<svg xmlns="http://www.w3.org/2000/svg" width="48" height="48" viewBox="0 0 48 48">
    <g fill="none" fill-rule="nonzero" transform="translate(1 1)">
        <circle cx="22.776" cy="23.181" r="22.776" stroke="transparent" stroke-width="1.5"/>
        <g fill="#000">
            <path d="M10.178 22.896c-.152-3.99 3.342-7.676 7.335-7.723 2.035-.174 4.015.616 5.556 1.905a35.101 35.101 0 0 1-1.962 2.024c-1.356-.823-2.988-1.451-4.573-.894-2.556.728-4.103 3.746-3.158 6.246.784 2.612 3.96 4.045 6.45 2.948 1.288-.461 2.138-1.65 2.511-2.929-1.477-.03-2.955-.01-4.432-.052-.004-.879-.007-1.754-.004-2.633 2.464-.004 4.931-.011 7.398.01.152 2.154-.166 4.46-1.566 6.188-1.917 2.467-5.459 3.191-8.34 2.223-3.058-1.004-5.282-4.085-5.215-7.313zM30.102 19.571h2.197l.015 2.21c.735.007 1.474.01 2.209.014v2.201l-2.209.011c-.007.74-.011 1.474-.015 2.213-.735-.004-1.47 0-2.201 0-.007-.74-.007-1.474-.015-2.209-.735-.008-1.474-.011-2.209-.015v-2.201c.735-.004 1.47-.008 2.209-.015.004-.735.01-1.473.019-2.209z"/>
        </g>
    </g>
</svg>
