<?xml version="1.0" encoding="UTF-8"?>
<svg width="50px" height="50px" viewBox="0 0 50 50" version="1.1" xmlns="http://www.w3.org/2000/svg" xmlns:xlink="http://www.w3.org/1999/xlink">
    <!-- Generator: Sketch 48.2 (47327) - http://www.bohemiancoding.com/sketch -->
    <title>lock</title>
    <desc>Created with Sketch.</desc>
    <defs></defs>
    <g id="Login" stroke="none" stroke-width="1" fill="none" fill-rule="evenodd">
        <g id="lock" fill="#FFFFFF">
            <g id="Group" transform="translate(10.000000, 5.000000)">
                <g id="Icon">
                    <path d="M2.593625,25.12625 C2.6005,18.408125 8.044875,12.964375 14.762375,12.9575 C21.483,12.9575 26.931125,18.405625 26.931125,25.12625 C26.931125,31.846875 21.483,37.295 14.762375,37.295 C8.04175,37.295 2.593625,31.846875 2.593625,25.12625 M-0.000125,25.12625 C0.00675,33.27625 6.612375,39.881875 14.762375,39.88875 C22.9155,39.88875 29.524875,33.279375 29.524875,25.12625 C29.524875,16.973125 22.9155,10.36375 14.762375,10.36375 C12.634875,10.36375 10.614875,10.816875 8.787375,11.6275 L8.787375,6.8325 C8.787375,4.53875 11.537375,2.6075 14.793625,2.6075 C16.473,2.569375 18.112375,3.1175 19.431125,4.1575 L21.118625,2.1825 C19.33175,0.73625 17.093,-0.03625 14.793625,0.00125 C10.049875,0.00125 6.187375,3.0575 6.187375,6.82 L6.193,13.109375 C2.4455,15.786875 -0.000125,20.169375 -0.000125,25.12625" id="Fill-1"></path>
                    <path d="M14.7625,22.344875 C16.301875,22.344875 17.55,23.593 17.55,25.132375 C17.55,26.199875 16.943125,27.116125 16.0625,27.58425 L16.0625,32.888625 L13.46875,32.888625 L13.46875,27.588 C12.584375,27.1205 11.975,26.202375 11.975,25.132375 C11.975,23.593 13.223125,22.344875 14.7625,22.344875" id="Fill-4"></path>
                </g>
                <path d="M14.7625,22.344875 C16.301875,22.344875 17.55,23.593 17.55,25.132375 C17.55,26.199875 16.943125,27.116125 16.0625,27.58425 L16.0625,32.888625 L13.46875,32.888625 L13.46875,27.588 C12.584375,27.1205 11.975,26.202375 11.975,25.132375 C11.975,23.593 13.223125,22.344875 14.7625,22.344875" id="Fill-4"></path>
            </g>
        </g>
    </g>
</svg>