<?xml version="1.0" encoding="UTF-8"?>
<svg width="50px" height="50px" viewBox="0 0 50 50" version="1.1" xmlns="http://www.w3.org/2000/svg" xmlns:xlink="http://www.w3.org/1999/xlink">
    <!-- Generator: Sketch 48.2 (47327) - http://www.bohemiancoding.com/sketch -->
    <title>lock2</title>
    <desc>Created with Sketch.</desc>
    <defs></defs>
    <g id="Login" stroke="none" stroke-width="1" fill="none" fill-rule="evenodd">
        <g id="lock2" fill="#FFFFFF">
            <g id="Group-4" transform="translate(13.000000, 4.000000)">
                <path d="M2.0749,20.101 C2.0804,14.7265 6.4359,10.3715 11.8099,10.366 C17.1864,10.366 21.5449,14.7245 21.5449,20.101 C21.5449,25.4775 17.1864,29.836 11.8099,29.836 C6.4334,29.836 2.0749,25.4775 2.0749,20.101 M-0.0001,20.101 C0.0054,26.621 5.2899,31.9055 11.8099,31.911 C18.3324,31.911 23.6199,26.6235 23.6199,20.101 C23.6199,13.5785 18.3324,8.291 11.8099,8.291 C10.1079,8.291 8.4919,8.6535 7.0299,9.302 L7.0299,5.466 C7.0299,3.631 9.2299,2.086 11.8349,2.086 C13.1784,2.0555 14.4899,2.494 15.5449,3.326 L16.8949,1.746 C15.4654,0.589 13.6744,-0.029 11.8349,0.001 C8.0399,0.001 4.9499,2.446 4.9499,5.456 L4.9544,10.4875 C1.9564,12.6295 -0.0001,16.1355 -0.0001,20.101" id="Fill-1"></path>
                <path d="M11.81,17.8759 C13.0415,17.8759 14.04,18.8744 14.04,20.1059 C14.04,20.9599 13.5545,21.6929 12.85,22.0674 L12.85,26.3109 L10.775,26.3109 L10.775,22.0704 C10.0675,21.6964 9.58,20.9619 9.58,20.1059 C9.58,18.8744 10.5785,17.8759 11.81,17.8759" id="Fill-4"></path>
                <circle id="Oval" cx="3" cy="40" r="2"></circle>
                <circle id="Oval" cx="9" cy="40" r="2"></circle>
                <circle id="Oval-Copy" cx="15" cy="40" r="2"></circle>
                <circle id="Oval-Copy-2" cx="21" cy="40" r="2"></circle>
            </g>
        </g>
    </g>
</svg>