<?xml version="1.0" encoding="UTF-8"?>
<svg width="50px" height="50px" viewBox="0 0 50 50" version="1.1" xmlns="http://www.w3.org/2000/svg" xmlns:xlink="http://www.w3.org/1999/xlink">
    <!-- Generator: Sketch 48.2 (47327) - http://www.bohemiancoding.com/sketch -->
    <title>Artboard 3</title>
    <desc>Created with Sketch.</desc>
    <defs></defs>
    <g id="2018011811" stroke="none" stroke-width="1" fill="none" fill-rule="evenodd">
        <g id="Artboard-3" fill="#B2B2B2" fill-rule="nonzero">
            <g id="Group-58">
                <path d="M25,45.814 C13.522,45.814 4.18,36.477 4.18,24.999 C4.18,13.521 13.522,4.18 25,4.18 C36.479,4.18 45.815,13.521 45.815,24.999 C45.815,36.478 36.479,45.814 25,45.814 M25,0 C11.213,0 0,11.212 0,24.999 C0,38.781 11.213,49.999 25,49.999 C38.781,49.999 50,38.781 50,24.999 C50,11.212 38.781,0 25,0" id="Fill-1"></path>
                <path d="M30.951,23.171 C32.821,23.171 34.342,21.651 34.342,19.775 C34.342,17.899 32.821,16.379 30.951,16.379 C29.068,16.379 27.549,17.899 27.549,19.775 C27.549,21.651 29.068,23.171 30.951,23.171" id="Fill-3"></path>
                <path d="M19.049,23.171 C20.925,23.171 22.445,21.651 22.445,19.775 C22.445,17.899 20.925,16.379 19.049,16.379 C17.179,16.379 15.653,17.899 15.653,19.775 C15.653,21.651 17.179,23.171 19.049,23.171" id="Fill-5"></path>
                <path d="M24.994,27.883 C20.927,27.883 17.11,29.684 14.52,32.816 C13.785,33.704 13.908,35.021 14.796,35.755 C15.69,36.491 17.007,36.373 17.742,35.486 C19.534,33.308 22.175,32.069 24.993,32.069 C27.817,32.069 30.462,33.312 32.261,35.5 C32.669,35.996 33.263,36.265 33.875,36.265 C34.337,36.265 34.81,36.101 35.2,35.786 C36.087,35.054 36.22,33.736 35.488,32.848 C32.896,29.689 29.063,27.883 24.994,27.883" id="Fill-7"></path>
            </g>
        </g>
    </g>
</svg>