<?xml version="1.0" encoding="utf-8"?>
<!-- Generator: Adobe Illustrator 15.1.0, SVG Export Plug-In . SVG Version: 6.00 Build 0)  -->
<!DOCTYPE svg PUBLIC "-//W3C//DTD SVG 1.1//EN" "http://www.w3.org/Graphics/SVG/1.1/DTD/svg11.dtd">
<svg version="1.1" id="Layer_1" xmlns="http://www.w3.org/2000/svg" xmlns:xlink="http://www.w3.org/1999/xlink" x="0px" y="0px"
	 width="50px" height="50px" viewBox="0 0 50 50" enable-background="new 0 0 50 50" xml:space="preserve">
<g id="Desktop-_x2F_-Home">
	<g id="_x30_1-Desktop-Home-user-zero" transform="translate(-144.000000, -4293.000000)">
		<g id="Group-17" transform="translate(124.000000, 3883.000000)">
			<g id="Group-14" transform="translate(20.000000, 408.000000)">
				<g id="UI_x2F_-Checkbox-selected-Copy-2" transform="translate(0.000000, 2.000000)">
					<g id="Tick-Copy">
						
							<linearGradient id="Shape_2_" gradientUnits="userSpaceOnUse" x1="12.9082" y1="35.3857" x2="11.8874" y2="34.3656" gradientTransform="matrix(26 0 0 -26 -297.5938 931.0156)">
							<stop  offset="0" style="stop-color:#5CBC61"/>
							<stop  offset="1" style="stop-color:#46BFAC"/>
						</linearGradient>
						<path id="Shape" fill="url(#Shape_2_)" d="M25,37c7.175,0,13-5.825,13-13s-5.825-13-13-13s-13,5.825-13,13S17.825,37,25,37z"
							/>
						<path id="Shape_1_" fill="#FFFFFF" d="M23.129,28.009c0.237,0.228,0.543,0.325,0.848,0.325s0.577-0.098,0.814-0.325
							l7.02-6.394c0.476-0.422,0.509-1.136,0.034-1.591c-0.441-0.454-1.188-0.487-1.662-0.032l-6.206,5.616l-3.222-3.084
							c-0.475-0.455-1.221-0.455-1.695,0c-0.475,0.454-0.475,1.168,0,1.623L23.129,28.009z"/>
					</g>
				</g>
			</g>
		</g>
	</g>
</g>
</svg>
