<?xml version="1.0" encoding="utf-8"?>
<!-- Generator: Adobe Illustrator 15.1.0, SVG Export Plug-In . SVG Version: 6.00 Build 0)  -->
<!DOCTYPE svg PUBLIC "-//W3C//DTD SVG 1.1//EN" "http://www.w3.org/Graphics/SVG/1.1/DTD/svg11.dtd">
<svg version="1.1" id="Layer_1" xmlns="http://www.w3.org/2000/svg" xmlns:xlink="http://www.w3.org/1999/xlink" x="0px" y="0px"
	 width="50px" height="50px" viewBox="0 0 50 50" enable-background="new 0 0 50 50" xml:space="preserve">
<g id="Desktop-_x2F_-Checkout-1">
	<g id="Desktop-Checkout_PAYMENT" transform="translate(-155.000000, -1091.000000)">
		<g id="Group-24" transform="translate(155.000000, 1090.000000)">
			<g id="Net">
				<g id="Page-1" transform="translate(0.000000, 1.000000)">
					<path id="Stroke-1" fill="none" stroke="#040505" stroke-width="1.4" d="M46.294,41.186H3.707
						c-1.772,0-3.207-1.436-3.207-3.207v-2.447h49v2.447C49.5,39.75,48.065,41.186,46.294,41.186z"/>
					<path id="Stroke-3" fill="none" stroke="#040505" stroke-width="1.4" d="M3.107,36.307V12.147c0-1.837,1.504-3.341,3.333-3.341
						h37.122c1.829,0,3.34,1.503,3.34,3.341v24.159"/>
					<path id="Stroke-5" fill="none" stroke="#040505" stroke-width="1.4" stroke-linecap="round" d="M21.46,36.827h7.08"/>
					<path id="Fill-7" fill="#231F20" d="M25.125,19.072c-0.39-1.107-1.447-1.889-2.665-1.889h-2.826v-1.877h10.732v1.877h-4.14
						c0.341,0.45,0.589,0.955,0.743,1.499c0.078,0.225,0.271,0.391,0.512,0.391h2.885v1.886h-2.884
						c-0.241,0-0.436,0.166-0.514,0.399c-0.578,1.965-2.396,3.376-4.509,3.376h-0.45l3.899,5.008l-1.486,1.154l-4.683-6.012
						c-0.072-0.096-0.107-0.203-0.107-0.322v-1.715h2.826c1.218,0,2.275-0.774,2.665-1.889h-5.491v-1.886H25.125z"/>
				</g>
			</g>
		</g>
	</g>
</g>
</svg>
