<?xml version="1.0" encoding="utf-8"?>
<!-- Generator: Adobe Illustrator 15.1.0, SVG Export Plug-In . SVG Version: 6.00 Build 0)  -->
<!DOCTYPE svg PUBLIC "-//W3C//DTD SVG 1.1//EN" "http://www.w3.org/Graphics/SVG/1.1/DTD/svg11.dtd">
<svg version="1.1" id="Layer_1" xmlns="http://www.w3.org/2000/svg" xmlns:xlink="http://www.w3.org/1999/xlink" x="0px" y="0px"
	 width="50px" height="50px" viewBox="0 0 50 50" enable-background="new 0 0 50 50" xml:space="preserve">
<g id="Desktop-_x2F_-Checkout-1">
	<g id="Desktop-Checkout_Thank-you" transform="translate(-1212.000000, -330.000000)">
		<g id="Rating" transform="translate(933.000000, 182.000000)">
			<g id="Rating--2" transform="translate(67.000000, 148.000000)">
				<g id="Love" transform="translate(212.333333, 0.000000)">
					<path id="Fill-1" d="M24.666,45.815c-11.478,0-20.82-9.338-20.82-20.816S13.188,4.18,24.666,4.18
						c11.479,0,20.816,9.341,20.816,20.819S36.144,45.815,24.666,45.815 M24.666,0C10.878,0-0.333,11.212-0.333,24.999
						C-0.333,38.781,10.878,50,24.666,50c13.781,0,25.001-11.219,25.001-25.001C49.667,11.212,38.447,0,24.666,0"/>
					<path id="Fill-3" d="M16.095,24.264c0.852,0,1.704-0.329,2.349-0.974l3.53-3.521c1.297-1.303,1.297-3.407,0-4.704
						c-1.303-1.297-3.405-1.297-4.704,0l-1.175,1.175l-1.174-1.175c-1.307-1.297-3.409-1.297-4.704,0
						c-1.296,1.297-1.296,3.401,0,4.704l3.529,3.521C14.392,23.935,15.244,24.264,16.095,24.264"/>
					<path id="Fill-5" d="M34.863,14.77l-1.213,1.206l-1.218-1.206c-1.335-1.341-3.513-1.341-4.844,0c-1.35,1.34-1.35,3.513,0,4.854
						l3.632,3.637c0.673,0.667,1.549,1.004,2.43,1.004c0.879,0,1.755-0.337,2.429-1.004l3.633-3.637
						c1.347-1.343,1.347-3.514,0-4.854C38.375,13.429,36.197,13.429,34.863,14.77"/>
					<path id="Fill-7" d="M15.799,29.981c-0.816,0-1.553,0.473-1.896,1.203c-0.345,0.732-0.239,1.589,0.282,2.217
						c2.591,3.155,6.413,4.962,10.488,4.962c4.06,0,7.889-1.801,10.479-4.933c0.51-0.626,0.614-1.496,0.271-2.229
						c-0.346-0.73-1.08-1.206-1.882-1.206L15.799,29.981z"/>
				</g>
			</g>
		</g>
	</g>
</g>
</svg>
