<?xml version="1.0" encoding="UTF-8"?>
<svg width="66px" height="43px" viewBox="0 0 66 43" version="1.1" xmlns="http://www.w3.org/2000/svg" xmlns:xlink="http://www.w3.org/1999/xlink">
    <!-- Generator: Sketch 48.2 (47327) - http://www.bohemiancoding.com/sketch -->
    <title>Master</title>
    <desc>Created with Sketch.</desc>
    <defs></defs>
    <g id="5-Select-coupon-Copy" stroke="none" stroke-width="1" fill="none" fill-rule="evenodd" transform="translate(-24.000000, -682.000000)">
        <g id="Payment-menthod" transform="translate(16.000000, 340.000000)">
            <g id="Master" transform="translate(8.000000, 342.000000)">
                <path d="M4,0 L62,0 C64.209139,-4.05812251e-16 66,1.790861 66,4 L66,39 C66,41.209139 64.209139,43 62,43 L4,43 C1.790861,43 2.705415e-16,41.209139 0,39 L0,4 C-2.705415e-16,1.790861 1.790861,4.05812251e-16 4,0 Z" id="Mask-Copy-3" fill="#FFFFFF"></path>
                <g id="Page-1" transform="translate(12.000000, 10.000000)">
                    <g id="Group-3" transform="translate(1.000000, 0.000000)"></g>
                    <g id="Group-8" transform="translate(0.352941, 0.000000)">
                        <path d="M26.9042695,0.189827273 C23.9527555,0.189827273 21.2408828,1.14691818 19.0939272,2.74578182 C22.0051625,4.91387273 23.8752445,8.26400909 23.8752445,12.0268273 C23.8752445,15.7893273 22.0051625,19.1397818 19.0939272,21.3078727 C21.2408828,22.9064182 23.9527555,23.8635091 26.9042695,23.8635091 C33.8586051,23.8635091 39.4962676,18.5641909 39.4962676,12.0268273 C39.4962676,5.48946364 33.8586051,0.189827273 26.9042695,0.189827273" id="Fill-6" fill="#F59F00"></path>
                        <path d="M16.2680143,12.0267318 C16.2680143,8.26391364 18.1377578,4.91377727 21.0493315,2.74568636 C18.9027144,1.14714091 16.1905032,0.189731818 13.2389892,0.189731818 C6.28465362,0.189731818 0.646991128,5.48936818 0.646991128,12.0267318 C0.646991128,18.5640955 6.28465362,23.8637318 13.2389892,23.8637318 C16.1905032,23.8637318 18.9027144,22.9063227 21.0493315,21.3077773 C18.1377578,19.1396864 16.2680143,15.78955 16.2680143,12.0267318" id="Fill-1" fill="#E30E17"></path>
                        <path d="M15.4940484,12.0681818 C15.4940484,16.0948431 17.3389477,19.6798859 20.2118339,22 C23.0847201,19.6798859 24.9296194,16.0948431 24.9296194,12.0681818 C24.9296194,8.04152057 23.0847201,4.45647777 20.2118339,2.13636364 C17.3389477,4.45647777 15.4940484,8.04152057 15.4940484,12.0681818" id="Fill-4" fill="#EA600A"></path>
                    </g>
                </g>
            </g>
        </g>
    </g>
</svg>