<?xml version="1.0" encoding="utf-8"?>
<!-- Generator: Adobe Illustrator 15.1.0, SVG Export Plug-In . SVG Version: 6.00 Build 0)  -->
<!DOCTYPE svg PUBLIC "-//W3C//DTD SVG 1.1//EN" "http://www.w3.org/Graphics/SVG/1.1/DTD/svg11.dtd">
<svg version="1.1" id="Layer_1" xmlns="http://www.w3.org/2000/svg" xmlns:xlink="http://www.w3.org/1999/xlink" x="0px" y="0px"
	 width="50px" height="50px" viewBox="0 0 50 50" enable-background="new 0 0 50 50" xml:space="preserve">
<g id="Desktop-_x2F_-Checkout-1">
	<g id="Desktop-Checkout_Thank-you" transform="translate(-1053.000000, -330.000000)">
		<g id="Rating" transform="translate(933.000000, 182.000000)">
			<g id="Rating--2" transform="translate(67.000000, 148.000000)">
				<g id="Ok" transform="translate(53.000000, 0.000000)">
					<path id="Fill-1" d="M25,45.814c-11.478,0-20.82-9.337-20.82-20.815C4.18,13.521,13.522,4.18,25,4.18
						c11.479,0,20.815,9.341,20.815,20.819C45.815,36.478,36.479,45.814,25,45.814 M25,0C11.213,0,0,11.212,0,24.999
						c0,13.782,11.213,25,25,25c13.781,0,25-11.218,25-25C50,11.212,38.781,0,25,0"/>
					<path id="Fill-3" d="M30.951,23.171c1.87,0,3.391-1.52,3.391-3.396c0-1.876-1.521-3.396-3.391-3.396
						c-1.883,0-3.402,1.52-3.402,3.396C27.549,21.651,29.068,23.171,30.951,23.171"/>
					<path id="Fill-5" d="M19.049,23.171c1.876,0,3.396-1.52,3.396-3.396c0-1.876-1.52-3.396-3.396-3.396
						c-1.87,0-3.396,1.52-3.396,3.396C15.653,21.651,17.179,23.171,19.049,23.171"/>
					<path id="Fill-7" d="M32.378,29.444H17.597c-1.161,0-2.093,0.932-2.093,2.092c0,1.146,0.933,2.093,2.093,2.093h14.781
						c1.161,0,2.093-0.946,2.093-2.093C34.471,30.376,33.539,29.444,32.378,29.444"/>
				</g>
			</g>
		</g>
	</g>
</g>
</svg>
