<?xml version="1.0" encoding="utf-8"?>
<!-- Generator: Adobe Illustrator 15.1.0, SVG Export Plug-In . SVG Version: 6.00 Build 0)  -->
<!DOCTYPE svg PUBLIC "-//W3C//DTD SVG 1.1//EN" "http://www.w3.org/Graphics/SVG/1.1/DTD/svg11.dtd">
<svg version="1.1" id="Layer_1" xmlns="http://www.w3.org/2000/svg" xmlns:xlink="http://www.w3.org/1999/xlink" x="0px" y="0px"
	 width="50px" height="50px" viewBox="0 0 50 50" enable-background="new 0 0 50 50" xml:space="preserve">
<g id="Desktop-_x2F_-Checkout-1">
	<g id="Desktop-Checkout_PAYMENT" transform="translate(-154.000000, -728.000000)">
		<g id="Group-31" transform="translate(154.000000, 728.000000)">
			<g id="Saved-Card-Title">
				<g id="credit-card">
					<g id="Saved-card">
						<path id="Fill-1" fill="#040505" d="M11.541,10.206c-2.408,0-4.365,1.854-4.582,4.202l-0.03,0.31
							c-0.001,0.035-0.014,0.074-0.014,0.109v0.387l0.014,1.553H4.125c-0.519,0-0.945,0.425-0.945,0.954
							c0,0.524,0.426,0.955,0.945,0.955h9.813c0.52,0,0.939-0.431,0.939-0.955c0-0.528-0.42-0.954-0.939-0.954H8.814v-2.419
							c0.228-1.303,1.362-2.291,2.727-2.291h33.834c1.536,0,2.775,1.244,2.775,2.77v20.341c0,1.537-1.239,2.775-2.775,2.775H11.541
							c-1.365,0-2.5-0.989-2.727-2.295v-5.468c0-0.528-0.421-0.947-0.946-0.947H1.92c-0.525,0-0.946,0.418-0.946,0.947
							c0,0.53,0.42,0.959,0.946,0.959h5.008v2.988l-0.014,1.04c0,2.546,2.074,4.626,4.626,4.626h15.033h3.701h14.794h0.306
							c2.558,0,4.625-2.08,4.625-4.626v-15.1v-5.241c0.002-2.545-2.067-4.621-4.625-4.621H11.541z"/>
						<path id="Fill-3" fill="#040505" d="M34.508,29.932c0-1.021,0.786-1.851,1.76-1.851c0.15,0,0.299,0.027,0.444,0.06
							c-0.29,0.554-0.444,1.16-0.444,1.791c0,0.63,0.154,1.237,0.444,1.791C35.64,32.026,34.508,31.108,34.508,29.932
							 M40.139,28.081c1.021,0,1.851,0.83,1.851,1.851c0,1.02-0.829,1.852-1.851,1.852s-1.851-0.831-1.851-1.852
							S39.117,28.081,40.139,28.081 M38.146,33.043c0.578,0.363,1.258,0.591,1.992,0.591c2.042,0,3.701-1.659,3.701-3.702
							s-1.659-3.7-3.701-3.7c-0.734,0-1.416,0.225-1.992,0.59c-0.56-0.374-1.216-0.59-1.879-0.59c-1.945,0-3.521,1.657-3.521,3.7
							s1.576,3.702,3.521,3.702C36.931,33.634,37.587,33.415,38.146,33.043"/>
						<path id="Fill-5" fill="#040505" d="M7.87,20.07c-0.52,0-0.941,0.431-0.941,0.955v4.005H3.461
							c-0.524,0-0.946,0.429-0.946,0.954c0,0.529,0.421,0.958,0.946,0.958h6.374c0.52,0,0.941-0.429,0.941-0.958
							c0-0.525-0.42-0.954-0.941-0.954h-1.02v-4.005C8.815,20.501,8.394,20.07,7.87,20.07"/>
						<path id="Fill-7" fill="#040505" d="M1.92,21.978h2.765c0.52,0,0.945-0.425,0.945-0.954c0-0.523-0.426-0.954-0.945-0.954H1.92
							c-0.525,0-0.946,0.431-0.946,0.954C0.975,21.553,1.395,21.978,1.92,21.978"/>
						<path id="Fill-9" fill="#040505" d="M1.951,25.983c0-0.523-0.421-0.954-0.946-0.954h-0.06C0.42,25.03,0,25.46,0,25.983
							c0,0.529,0.42,0.96,0.945,0.96h0.06C1.529,26.943,1.951,26.513,1.951,25.983"/>
						<path id="Fill-11" fill="#040505" d="M14.876,31.58H28.21c0.499,0,0.902-0.414,0.902-0.912c0-0.5-0.403-0.913-0.902-0.913
							H14.876c-0.499,0-0.906,0.413-0.906,0.913C13.97,31.166,14.378,31.58,14.876,31.58"/>
						<path id="Fill-13" fill="#040505" d="M14.876,27.144h6.175c0.503,0,0.913-0.403,0.913-0.912c0-0.5-0.409-0.908-0.913-0.908
							h-6.175c-0.499,0-0.906,0.408-0.906,0.908C13.97,26.74,14.378,27.144,14.876,27.144"/>
					</g>
				</g>
			</g>
		</g>
	</g>
</g>
</svg>
