<?xml version="1.0" encoding="utf-8"?>
<!-- Generator: Adobe Illustrator 15.1.0, SVG Export Plug-In . SVG Version: 6.00 Build 0)  -->
<!DOCTYPE svg PUBLIC "-//W3C//DTD SVG 1.1//EN" "http://www.w3.org/Graphics/SVG/1.1/DTD/svg11.dtd">
<svg version="1.1" id="Layer_1" xmlns="http://www.w3.org/2000/svg" xmlns:xlink="http://www.w3.org/1999/xlink" x="0px" y="0px"
	 width="50px" height="50px" viewBox="0 0 50 50" enable-background="new 0 0 50 50" xml:space="preserve">
<g id="My-Account-desktop">
	<g id="_x30_1_x5F_Dashboard" transform="translate(-147.000000, -436.000000)">
		<g id="Menu" transform="translate(125.000000, 180.000000)">
			<g id="Group-4" transform="translate(21.000000, 62.000000)">
				<g id="Brands" transform="translate(1.000000, 194.000000)">
					<g id="Group-2">
						<path id="Shape" fill="#010101" d="M23.536,0L4.518,0.464C2.267,0.535,0.535,2.322,0.464,4.518L0,23.536
							c0,1.125,0.394,2.268,1.196,3.064l20.679,20.669C23.607,49.016,25.929,50,28.377,50c2.479,0,4.817-0.929,6.533-2.731
							l12.358-12.304C49.016,33.249,50,30.911,50,28.464c0-2.464-0.929-4.787-2.731-6.518L26.6,1.196
							C25.803,0.394,24.662,0,23.536,0z M46.001,28.464c0,1.378-0.534,2.731-1.52,3.715L32.179,44.481
							c-0.983,0.985-2.337,1.52-3.715,1.52c-1.409,0-2.732-0.534-3.731-1.52L4.054,23.804c-0.07-0.071-0.07-0.071-0.07-0.126
							L4.448,4.66c0-0.071,0.07-0.212,0.212-0.212l19.017-0.464l0,0c0.055,0,0.055,0,0.126,0.07l20.678,20.679
							C45.467,25.732,46.001,27.055,46.001,28.464z"/>
						<path id="Shape_1_" fill="#010101" d="M11.619,11.596c-2.785,2.787-2.785,7.346,0,10.133c1.349,1.366,3.228,2.077,5.053,2.077
							c1.81,0,3.619-0.71,5.054-2.077c2.784-2.787,2.784-7.346,0-10.133C18.941,8.793,14.402,8.864,11.619,11.596z M18.996,18.997
							c-1.224,1.242-3.298,1.242-4.593,0c-1.24-1.225-1.24-3.302,0-4.614c0.639-0.64,1.49-0.976,2.27-0.976
							c0.834,0,1.685,0.336,2.269,0.976C20.236,15.625,20.236,17.701,18.996,18.997z"/>
					</g>
				</g>
			</g>
		</g>
	</g>
</g>
</svg>
