<?xml version="1.0" encoding="UTF-8"?>
<svg width="50px" height="50px" viewBox="0 0 50 50" version="1.1" xmlns="http://www.w3.org/2000/svg" xmlns:xlink="http://www.w3.org/1999/xlink">
    <!-- Generator: Sketch 48.2 (47327) - http://www.bohemiancoding.com/sketch -->
    <title>Artboard 5</title>
    <desc>Created with Sketch.</desc>
    <defs></defs>
    <g id="Symbols" stroke="none" stroke-width="1" fill="none" fill-rule="evenodd">
        <g id="Artboard-5" fill="#FFFFFF" fill-rule="nonzero">
            <path d="M23.536,0 L4.518,0.464 C2.267,0.535 0.535,2.322 0.464,4.518 L0,23.536 C0,24.661 0.394,25.804 1.196,26.6 L21.875,47.269 C23.607,49.016 25.929,50 28.377,50 C30.856,50 33.194,49.071 34.91,47.269 L47.268,34.965 C49.016,33.249 50,30.911 50,28.464 C50,26 49.071,23.677 47.269,21.946 L26.6,1.196 C25.803,0.394 24.662,0 23.536,0 Z M46.001,28.464 C46.001,29.842 45.467,31.195 44.481,32.179 L32.179,44.481 C31.196,45.466 29.842,46.001 28.464,46.001 C27.055,46.001 25.732,45.467 24.733,44.481 L4.054,23.804 C3.984,23.733 3.984,23.733 3.984,23.678 L4.448,4.66 C4.448,4.589 4.518,4.448 4.66,4.448 L23.677,3.984 C23.732,3.984 23.732,3.984 23.803,4.054 L44.481,24.733 C45.467,25.732 46.001,27.055 46.001,28.464 Z" id="Shape"></path>
            <path d="M11.619,11.596 C8.834,14.383 8.834,18.942 11.619,21.729 C12.968,23.095 14.847,23.806 16.672,23.806 C18.482,23.806 20.291,23.096 21.726,21.729 C24.51,18.942 24.51,14.383 21.726,11.596 C18.941,8.793 14.402,8.864 11.619,11.596 Z M18.996,18.997 C17.772,20.239 15.698,20.239 14.403,18.997 C13.163,17.772 13.163,15.695 14.403,14.383 C15.042,13.743 15.893,13.407 16.673,13.407 C17.507,13.407 18.358,13.743 18.942,14.383 C20.236,15.625 20.236,17.701 18.996,18.997 Z" id="Shape_1_"></path>
        </g>
    </g>
</svg>