<?xml version="1.0" encoding="UTF-8"?>
<svg width="50px" height="50px" viewBox="0 0 50 50" version="1.1" xmlns="http://www.w3.org/2000/svg" xmlns:xlink="http://www.w3.org/1999/xlink">
    <!-- Generator: Sketch 48.2 (47327) - http://www.bohemiancoding.com/sketch -->
    <title>Artboard</title>
    <desc>Created with Sketch.</desc>
    <defs></defs>
    <g id="homepage" stroke="none" stroke-width="1" fill="none" fill-rule="evenodd">
        <g id="Artboard" fill="#FF1744" fill-rule="nonzero">
            <g id="Group">
                <path d="M23.536,0 L4.518,0.464 C2.267,0.535 0.535,2.322 0.464,4.518 L0,23.536 C0,24.661 0.394,25.804 1.196,26.6 L21.875,47.269 C23.607,49.016 25.929,50 28.377,50 C30.856,50 33.194,49.071 34.91,47.269 L47.268,34.965 C49.016,33.249 50,30.911 50,28.464 C50,26 49.071,23.677 47.269,21.946 L26.6,1.196 C25.803,0.394 24.662,0 23.536,0 Z M46.001,28.464 C46.001,29.842 45.467,31.195 44.481,32.179 L32.179,44.481 C31.196,45.466 29.842,46.001 28.464,46.001 C27.055,46.001 25.732,45.467 24.733,44.481 L4.054,23.804 C3.984,23.733 3.984,23.733 3.984,23.678 L4.448,4.66 C4.448,4.589 4.518,4.448 4.66,4.448 L23.677,3.984 C23.732,3.984 23.732,3.984 23.803,4.054 L44.481,24.733 C45.467,25.732 46.001,27.055 46.001,28.464 Z" id="Shape"></path>
                <path d="M12.08875,11.0757104 C9.30375,13.8627104 9.30375,18.4217104 12.08875,21.2087104 C13.43775,22.5747104 15.31675,23.2857104 17.14175,23.2857104 C18.95175,23.2857104 20.76075,22.5757104 22.19575,21.2087104 C24.97975,18.4217104 24.97975,13.8627104 22.19575,11.0757104 C19.41075,8.27271038 14.87175,8.34371038 12.08875,11.0757104 Z M19.46575,18.4767104 C18.24175,19.7187104 16.16775,19.7187104 14.87275,18.4767104 C13.63275,17.2517104 13.63275,15.1747104 14.87275,13.8627104 C15.51175,13.2227104 16.36275,12.8867104 17.14275,12.8867104 C17.97675,12.8867104 18.82775,13.2227104 19.41175,13.8627104 C20.70575,15.1047104 20.70575,17.1807104 19.46575,18.4767104 Z" id="Shape_1_"></path>
            </g>
        </g>
    </g>
</svg>