<?xml version="1.0" encoding="UTF-8"?>
<svg width="50px" height="50px" viewBox="0 0 50 50" version="1.1" xmlns="http://www.w3.org/2000/svg" xmlns:xlink="http://www.w3.org/1999/xlink">
    <!-- Generator: Sketch 48.2 (47327) - http://www.bohemiancoding.com/sketch -->
    <title>Artboard 5</title>
    <desc>Created with Sketch.</desc>
    <defs></defs>
    <g id="Symbols" stroke="none" stroke-width="1" fill="none" fill-rule="evenodd">
        <g id="Artboard-5" fill="#ffffff" fill-rule="nonzero">
            <path d="M49,25 C49,38.2546017 38.2546372,49 25,49 C11.7453628,49 1,38.2546017 1,25 C1,11.7448303 11.7448303,1 25,1 C38.2551697,1 49,11.7448303 49,25 Z M45.021164,25 C45.021164,13.9422808 36.0577192,4.97883598 25,4.97883598 C13.9422808,4.97883598 4.97883598,13.9422808 4.97883598,25 C4.97883598,36.0571542 13.9428162,45.021164 25,45.021164 C36.0571838,45.021164 45.021164,36.0571542 45.021164,25 Z M23.010582,11.7936508 C23.010582,10.6949256 23.9012748,9.8042328 25,9.8042328 C26.0987252,9.8042328 26.989418,10.6949256 26.989418,11.7936508 L26.989418,38.2063492 C26.989418,39.3050744 26.0987252,40.1957672 25,40.1957672 C23.9012748,40.1957672 23.010582,39.3050744 23.010582,38.2063492 L23.010582,11.7936508 Z M11.7936508,26.989418 C10.6949256,26.989418 9.8042328,26.0987252 9.8042328,25 C9.8042328,23.9012748 10.6949256,23.010582 11.7936508,23.010582 L38.2063492,23.010582 C39.3050744,23.010582 40.1957672,23.9012748 40.1957672,25 C40.1957672,26.0987252 39.3050744,26.989418 38.2063492,26.989418 L11.7936508,26.989418 Z" id="Combined-Shape"></path>
        </g>
    </g>
</svg>