<?xml version="1.0" encoding="utf-8"?>
<!-- Generator: Adobe Illustrator 15.1.0, SVG Export Plug-In . SVG Version: 6.00 Build 0)  -->
<!DOCTYPE svg PUBLIC "-//W3C//DTD SVG 1.1//EN" "http://www.w3.org/Graphics/SVG/1.1/DTD/svg11.dtd">
<svg version="1.1" id="Layer_1" xmlns="http://www.w3.org/2000/svg" xmlns:xlink="http://www.w3.org/1999/xlink" x="0px" y="0px"
	 width="50px" height="50px" viewBox="0 0 50 50" enable-background="new 0 0 50 50" xml:space="preserve">
<title>Card</title>
<desc>Created with Sketch.</desc>
<g id="My-Account-desktop">
	<g id="_x30_1_x5F_Dashboard" transform="translate(-146.000000, -483.000000)">
		<g id="Menu" transform="translate(125.000000, 180.000000)">
			<g id="Group-4" transform="translate(21.000000, 62.000000)">
				<g id="Card" transform="translate(0.000000, 241.000000)">
					<path id="Shape" fill="#212121" d="M41.268,5.396H8.717C3.901,5.396,0,9.298,0,14.114v19.758c0,4.831,3.901,8.731,8.717,8.731
						h32.55c4.83,0,8.732-3.9,8.732-8.731V14.114C50,9.298,46.098,5.396,41.268,5.396z M8.717,8.887h32.55
						c2.921,0,5.256,2.322,5.256,5.227v1.752H3.49v-1.752C3.49,11.208,5.812,8.887,8.717,8.887z M41.268,39.128H8.717
						c-2.905,0-5.227-2.335-5.227-5.256v-14.53h43.033v14.53C46.523,36.793,44.188,39.128,41.268,39.128z"/>
					<path id="Shape_1_" fill="#212121" d="M9.13,27.477h11.159c0.996,0,1.752-0.742,1.752-1.728c0-0.993-0.756-1.749-1.752-1.749
						H9.13c-0.996,0-1.752,0.756-1.752,1.749C7.378,26.734,8.134,27.477,9.13,27.477z"/>
					<path id="Shape_2_" fill="#212121" d="M34.316,30.979H9.13c-0.996,0-1.752,0.743-1.752,1.753c0,0.982,0.756,1.724,1.752,1.724
						h25.187c0.98,0,1.723-0.741,1.723-1.724C36.039,31.723,35.297,30.979,34.316,30.979z"/>
				</g>
			</g>
		</g>
	</g>
</g>
</svg>
