<?xml version="1.0" encoding="UTF-8"?>
<svg width="50px" height="50px" viewBox="0 0 50 50" version="1.1" xmlns="http://www.w3.org/2000/svg" xmlns:xlink="http://www.w3.org/1999/xlink">
    <!-- Generator: Sketch 48.2 (47327) - http://www.bohemiancoding.com/sketch -->
    <title>Artboard</title>
    <desc>Created with Sketch.</desc>
    <defs></defs>
    <g id="homepage" stroke="none" stroke-width="1" fill="none" fill-rule="evenodd">
        <g id="Artboard" fill="#FF1744" fill-rule="nonzero">
            <path d="M41.268,6.396 L8.717,6.396 C3.901,6.396 0,10.298 0,15.114 L0,34.872 C0,39.703 3.901,43.603 8.717,43.603 L41.267,43.603 C46.097,43.603 49.999,39.703 49.999,34.872 L49.999,15.114 C50,10.298 46.098,6.396 41.268,6.396 Z M8.717,9.887 L41.267,9.887 C44.188,9.887 46.523,12.209 46.523,15.114 L46.523,16.866 L3.49,16.866 L3.49,15.114 C3.49,12.208 5.812,9.887 8.717,9.887 Z M41.268,40.128 L8.717,40.128 C5.812,40.128 3.49,37.793 3.49,34.872 L3.49,20.342 L46.523,20.342 L46.523,34.872 C46.523,37.793 44.188,40.128 41.268,40.128 Z" id="Shape"></path>
            <path d="M9.13,28.477 L20.289,28.477 C21.285,28.477 22.041,27.735 22.041,26.749 C22.041,25.756 21.285,25 20.289,25 L9.13,25 C8.134,25 7.378,25.756 7.378,26.749 C7.378,27.734 8.134,28.477 9.13,28.477 Z" id="Shape_1_"></path>
            <path d="M34.316,31.979 L9.13,31.979 C8.134,31.979 7.378,32.722 7.378,33.732 C7.378,34.714 8.134,35.456 9.13,35.456 L34.317,35.456 C35.297,35.456 36.04,34.715 36.04,33.732 C36.039,32.723 35.297,31.979 34.316,31.979 Z" id="Shape_2_"></path>
        </g>
    </g>
</svg>