<svg xmlns="http://www.w3.org/2000/svg" width="29" height="29" viewBox="0 0 29 29">
    <g fill="none" fill-rule="evenodd">
        <circle cx="14.5" cy="14.5" r="14.5" fill="#F5F5F5" opacity=".343"/>
        <path fill="#212121" fill-rule="nonzero" stroke="#212121" stroke-width=".4" d="M21.059 9.216c0-.237-.235-.427-.47-.427h-2.4C17.952 6.658 16.163 5 14 5c-2.165 0-3.953 1.658-4.188 3.79h-2.4c-.236 0-.47.189-.47.426L6 22.479c0 .256.185.521.47.521h15.06c.265 0 .47-.218.47-.521l-.941-13.263zM14 5.947c1.647 0 3.012 1.232 3.247 2.842h-6.494c.235-1.61 1.6-2.842 3.247-2.842zm-6.165 3.79h1.93v2.368c0 .284.188.474.47.474.283 0 .47-.19.47-.474V9.737h6.59v2.368c0 .284.187.474.47.474.282 0 .47-.19.47-.474V9.737h1.93l.659 9h-13.6l.611-9zm-.847 12.316l.188-2.369h13.695l.188 2.369H6.989z"/>
    </g>
</svg>
