<?xml version="1.0" encoding="UTF-8"?>
<svg width="22px" height="22px" viewBox="0 0 22 22" version="1.1" xmlns="http://www.w3.org/2000/svg" xmlns:xlink="http://www.w3.org/1999/xlink">
    <!-- Generator: Sketch 48.2 (47327) - http://www.bohemiancoding.com/sketch -->
    <title>Tick Copy</title>
    <desc>Created with Sketch.</desc>
    <defs></defs>
    <g id="4-Delivery-Mode" stroke="none" stroke-width="1" fill="none" fill-rule="evenodd" transform="translate(-302.000000, -348.000000)">
        <g id="Choose-delivery-mode--01" transform="translate(16.000000, 196.000000)" fill="#FF1744" fill-rule="nonzero">
            <g id="Delivery-01" transform="translate(0.000000, 139.000000)">
                <g id="Tick-Copy" transform="translate(286.000000, 13.000000)">
                    <path d="M11,21.8625 C16.995,21.8625 21.8625,16.995 21.8625,11 C21.8625,5.005 16.995,0.1375 11,0.1375 C5.005,0.1375 0.1375,5.005 0.1375,11 C0.1375,16.995 5.005,21.8625 11,21.8625 Z M11,2.0625 C15.9225,2.0625 19.9375,6.0775 19.9375,11 C19.9375,15.9225 15.9225,19.9375 11,19.9375 C6.0775,19.9375 2.0625,15.9225 2.0625,11 C2.0625,6.0775 6.0775,2.0625 11,2.0625 Z" id="Shape"></path>
                    <path d="M9.1025,14.41 C9.295,14.6025 9.5425,14.685 9.79,14.685 C10.0375,14.685 10.2575,14.6025 10.45,14.41 L16.1425,8.9925 C16.5275,8.635 16.555,8.03 16.17,7.645 C15.8125,7.26 15.2075,7.2325 14.8225,7.6175 L9.79,12.375 L7.1775,9.7625 C6.7925,9.3775 6.1875,9.3775 5.8025,9.7625 C5.4175,10.1475 5.4175,10.7525 5.8025,11.1375 L9.1025,14.41 Z" id="Shape"></path>
                </g>
            </g>
        </g>
    </g>
</svg>