<?xml version="1.0" encoding="utf-8"?>
<!-- Generator: Adobe Illustrator 15.1.0, SVG Export Plug-In . SVG Version: 6.00 Build 0)  -->
<!DOCTYPE svg PUBLIC "-//W3C//DTD SVG 1.1//EN" "http://www.w3.org/Graphics/SVG/1.1/DTD/svg11.dtd">
<svg version="1.1" id="Layer_1" xmlns="http://www.w3.org/2000/svg" xmlns:xlink="http://www.w3.org/1999/xlink" x="0px" y="0px"
	 width="50px" height="50px" viewBox="0 0 50 50" enable-background="new 0 0 50 50" xml:space="preserve">
<g id="Desktop_x2F_-PLP">
	<g id="_x30_1-PLP" transform="translate(-145.000000, -1062.000000)">
		<g id="Group-11-Copy-2" transform="translate(125.000000, 272.000000)">
			<g id="Group-15" transform="translate(0.000000, 654.000000)">
				<g id="Group-9" transform="translate(20.000000, 17.000000)">
					<g id="Group-5" transform="translate(0.000000, 88.000000)">
						<g id="UI_x2F_-Checkbox-selected" transform="translate(0.000000, 31.000000)">
							<g id="Tick-Copy-2">
								<path id="Oval-2" fill="none" stroke="#EE2849" stroke-width="1.4" d="M25,1c13.262,0,24,10.739,24,24
									c0,13.262-10.738,24-24,24C11.739,49,1,38.262,1,25C1,11.739,11.739,1,25,1z"/>
								<g id="noun_x5F_786082-_x28_1_x29_" transform="translate(5.000000, 6.000000)">
									<path id="Shape" fill="#EE2849" d="M13.722,27.056c0.464,0.424,1.052,0.617,1.64,0.617c0.604,0,1.191-0.227,1.641-0.617
										L30.88,14.029c0.926-0.844,0.926-2.225,0-3.069c-0.895-0.845-2.352-0.845-3.248,0l-12.27,11.47l-2.98-2.796
										c-0.91-0.845-2.368-0.845-3.277,0c-0.895,0.844-0.895,2.224,0,3.069L13.722,27.056z"/>
								</g>
							</g>
						</g>
					</g>
				</g>
			</g>
		</g>
	</g>
</g>
</svg>
