<?xml version="1.0" encoding="utf-8"?>
<!-- Generator: Adobe Illustrator 15.1.0, SVG Export Plug-In . SVG Version: 6.00 Build 0)  -->
<!DOCTYPE svg PUBLIC "-//W3C//DTD SVG 1.1//EN" "http://www.w3.org/Graphics/SVG/1.1/DTD/svg11.dtd">
<svg version="1.1" id="Layer_1" xmlns="http://www.w3.org/2000/svg" xmlns:xlink="http://www.w3.org/1999/xlink" x="0px" y="0px"
	 width="50px" height="50px" viewBox="0 0 50 50" enable-background="new 0 0 50 50" xml:space="preserve">
<g id="Desktop-_x2F_-Checkout-1">
	<g id="Desktop-Checkout_Mode" transform="translate(-630.000000, -589.000000)">
		<g id="Group-20" transform="translate(125.000000, 360.000000)">
			<g id="Delivery-mode-Copy-2" transform="translate(0.000000, 63.000000)">
				<g id="Group-18" transform="translate(505.000000, 32.000000)">
					<g id="Delivery-03" transform="translate(0.000000, 129.000000)">
						<g id="_x30_1">
							<g id="Cliq-_x26_-PIQ" transform="translate(0.000000, 5.000000)">
								<path id="Shape" fill="#010101" d="M46.918,22.689h-6.953c0.036-0.105,0.049-12.791,0.049-12.791
									c0-0.593-0.471-1.083-1.082-1.083H28.404V7.712c0-4.306-3.5-7.797-7.805-7.797h-3.59c-4.297,0-7.798,3.491-7.798,7.797
									v1.104H3.083C2.489,8.816,2,9.306,2,9.899V48.74c0,0.611,0.489,1.102,1.083,1.102h39.62c2.919,0,5.297-2.379,5.297-5.299
									V23.772C48,23.17,47.511,22.689,46.918,22.689z M37.898,22.689h-2.436V10.991h2.387v11.373
									C37.85,22.477,37.861,22.585,37.898,22.689z M11.387,7.712c0-3.101,2.521-5.63,5.623-5.63h3.59
									c3.101,0,5.627,2.529,5.627,5.63v1.105H11.387V7.712z M4.174,10.991h5.038v4.791c-0.669,0.381-1.123,1.094-1.123,1.911
									c0,1.225,0.99,2.215,2.215,2.215c1.217,0,2.208-0.99,2.208-2.215c0-0.817-0.454-1.531-1.124-1.911v-4.791h14.839v4.791
									c-0.665,0.381-1.119,1.094-1.119,1.911c0,1.225,0.987,2.215,2.215,2.215c1.216,0,2.206-0.99,2.206-2.215
									c0-0.817-0.453-1.531-1.124-1.911v-4.791h4.894v11.698h-8.167c-0.602,0-1.091,0.48-1.091,1.083v23.886H4.174V10.991z
									 M45.833,44.543c0,1.717-1.415,3.115-3.13,3.115H26.215V24.855h19.618V44.543z"/>
								<path id="Shape_1_" fill="#010101" d="M30.089,30.344v1.75c0,2.83,2.315,5.127,5.145,5.127h2.158
									c2.831,0,5.128-2.316,5.128-5.127v-1.75c0.67-0.391,1.124-1.102,1.124-1.92c0-1.217-0.99-2.205-2.206-2.205
									c-1.217,0-2.207,0.988-2.207,2.205c0,0.816,0.454,1.531,1.123,1.92v1.75c0,1.625-1.335,2.941-2.962,2.941h-2.158
									c-1.645,0-2.961-1.316-2.961-2.941v-1.75c0.669-0.391,1.123-1.102,1.123-1.92c0-1.217-0.99-2.205-2.206-2.205
									c-1.235,0-2.225,0.988-2.225,2.205C28.966,29.24,29.437,29.955,30.089,30.344z"/>
							</g>
						</g>
					</g>
				</g>
			</g>
		</g>
	</g>
</g>
</svg>
