<?xml version="1.0" encoding="utf-8"?>
<!-- Generator: Adobe Illustrator 15.1.0, SVG Export Plug-In . SVG Version: 6.00 Build 0)  -->
<!DOCTYPE svg PUBLIC "-//W3C//DTD SVG 1.1//EN" "http://www.w3.org/Graphics/SVG/1.1/DTD/svg11.dtd">
<svg version="1.1" id="Layer_1" xmlns="http://www.w3.org/2000/svg" xmlns:xlink="http://www.w3.org/1999/xlink" x="0px" y="0px"
	 width="50px" height="50px" viewBox="0 0 50 50"  xml:space="preserve">
<g id="Desktop-_x2F_-Home">
	<g id="_x30_4-Desktop-Home-user-500" transform="translate(-1282.000000, -3346.000000)">
		<g id="Group-30" transform="translate(125.000000, 3261.000000)">
			<g id="Group-22" transform="translate(981.000000, 75.000000)">
				<g id="Connect-_Small-icon" transform="translate(176.000000, 10.000000)">
					
						<linearGradient id="Oval_1_" gradientUnits="userSpaceOnUse" x1="12.3164" y1="33.502" x2="14.3999" y2="33.502" gradientTransform="matrix(24 0 0 -24 -295.5938 829.0156)">
						<stop  offset="0" style="stop-color:#5E9FD6"/>
						<stop  offset="1" style="stop-color:#48C3D2"/>
					</linearGradient>
					<path id="Oval" fill="url(#Oval_1_)" d="M25,0c13.813,0,25,11.187,25,25c0,13.813-11.188,25-25,25C11.187,50,0,38.813,0,25
						C0,11.187,11.187,0,25,0z"/>
					<g id="Page-1-Copy" transform="translate(4.000000, 4.000000)">
						<g id="Clip-2">
						</g>
						<defs>
							<filter id="Adobe_OpacityMaskFilter" filterUnits="userSpaceOnUse" x="4.329" y="4.335" width="33.334" height="33.323">
								<feColorMatrix  type="matrix" values="1 0 0 0 0  0 1 0 0 0  0 0 1 0 0  0 0 0 1 0"/>
							</filter>
						</defs>
						<mask maskUnits="userSpaceOnUse" x="4.329" y="4.335" width="33.334" height="33.323" id="mask-3_1_">
							<g filter="url(#Adobe_OpacityMaskFilter)">
								<polygon id="path-2_1_" fill="#FFFFFF" points="4.329,37.658 4.329,4.329 37.658,4.329 37.658,37.658 								"/>
							</g>
						</mask>
						<path id="Fill-1" mask="url(#mask-3_1_)" fill="#FFFFFF" d="M34.182,23.394c-1.801,0.003-3.456,0.924-4.389,2.392
							c-1.665,2.629-4.653,4.383-8.096,4.389c-1.717,0.002-3.313-0.434-4.705-1.177l-2.508,2.405
							c-0.979,0.965-2.59,0.967-3.572,0.006c-0.995-0.936-0.998-2.492-0.019-3.43l2.495-2.432c-0.861-1.434-1.327-3.146-1.248-4.964
							c0.219-4.685,4.151-8.495,9.026-8.738c3.638-0.175,6.861,1.608,8.621,4.347c0.924,1.438,2.529,2.34,4.259,2.337h0.127
							c2.548-0.017,4.21-2.585,3.091-4.801c-2.889-5.74-9.127-9.643-16.26-9.381C11.653,4.686,4.227,12.206,4.33,21.195
							c0.117,9.136,7.876,16.503,17.399,16.463c6.889-0.011,12.838-3.908,15.59-9.521C38.427,25.934,36.723,23.39,34.182,23.394"/>
					</g>
				</g>
			</g>
		</g>
	</g>
</g>
</svg>
