<?xml version="1.0" encoding="utf-8"?>
<!-- Generator: Adobe Illustrator 15.1.0, SVG Export Plug-In . SVG Version: 6.00 Build 0)  -->
<!DOCTYPE svg PUBLIC "-//W3C//DTD SVG 1.1//EN" "http://www.w3.org/Graphics/SVG/1.1/DTD/svg11.dtd">
<svg version="1.1" id="Layer_1" xmlns="http://www.w3.org/2000/svg" xmlns:xlink="http://www.w3.org/1999/xlink" x="0px" y="0px"
	 width="50px" height="50px" viewBox="0 0 50 50" enable-background="new 0 0 50 50" xml:space="preserve">
<g id="Desktop-_x2F_-Checkout-1">
	<g id="Desktop-Checkout_Address" transform="translate(-964.000000, -546.000000)">
		<g id="GIFT-WRAP-Copy" transform="translate(933.000000, 523.000000)">
			<g id="Group-9">
				<g id="Group-12" transform="translate(32.000000, 24.000000)">
					<g id="Coupon">
						<path id="Shape" fill="#010101" stroke="#010101" stroke-width="0.4" d="M0.571,19.794c2.931,0,5.319,2.359,5.319,5.256
							c0,2.91-2.388,5.258-5.319,5.258c-0.593,0-1.071,0.45-1.071,1.051v6.285c0,0.576,0.478,1.051,1.071,1.051h46.871
							c0.581,0,1.059-0.475,1.059-1.051v-6.285c0-0.601-0.478-1.051-1.059-1.051c-2.955,0-5.343-2.348-5.343-5.258
							c0-2.897,2.388-5.256,5.343-5.256c0.581,0,1.059-0.462,1.059-1.04v-8.411c0-0.577-0.478-1.04-1.059-1.04H0.571
							c-0.593,0-1.071,0.462-1.071,1.04v8.411C-0.5,19.332-0.022,19.794,0.571,19.794z M1.465,11.266h45.071v6.441
							c-3.638,0.509-6.448,3.612-6.448,7.35c0,3.74,2.812,6.844,6.451,7.363l-0.003,4.314H1.465l0.002-4.314
							c3.637-0.521,6.435-3.625,6.435-7.363c0-3.739-2.801-6.844-6.441-7.351L1.465,11.266z"/>
						<path id="Line-3" fill="none" stroke="#010101" stroke-width="1.4" stroke-linecap="square" d="M16.156,10.285v27.5"/>
					</g>
				</g>
			</g>
		</g>
	</g>
</g>
</svg>
