<?xml version="1.0" encoding="utf-8"?>
<!-- Generator: Adobe Illustrator 15.1.0, SVG Export Plug-In . SVG Version: 6.00 Build 0)  -->
<!DOCTYPE svg PUBLIC "-//W3C//DTD SVG 1.1//EN" "http://www.w3.org/Graphics/SVG/1.1/DTD/svg11.dtd">
<svg version="1.1" id="Layer_1" xmlns="http://www.w3.org/2000/svg" xmlns:xlink="http://www.w3.org/1999/xlink" x="0px" y="0px"
	 width="50px" height="50px" viewBox="0 0 50 50" enable-background="new 0 0 50 50" xml:space="preserve">
<g id="Desktop-_x2F_-Checkout-1">
	<g id="Desktop-Checkout_PAYMENT" transform="translate(-154.000000, -962.000000)">
		<g id="Group-25" transform="translate(155.000000, 961.000000)">
			<g id="Group-19">
				<g id="Credit-card" transform="translate(0.000000, 2.000000)">
					<path id="Stroke-1" fill="none" stroke="#040505" stroke-width="1.4" d="M44.728,39.75H3.265C1.472,39.75,0,38.292,0,36.508
						V11.492C0,9.708,1.472,8.25,3.265,8.25h41.463C46.535,8.25,48,9.708,48,11.492v25.016C48,38.292,46.535,39.75,44.728,39.75z"/>
					<path id="Stroke-3" fill="none" stroke="#040505" stroke-width="1.4" stroke-linecap="round" d="M6,27.75h3"/>
					<path id="Stroke-5" fill="none" stroke="#040505" stroke-width="1.4" stroke-linecap="round" d="M12,27.75h3"/>
					<path id="Stroke-7" fill="none" stroke="#040505" stroke-width="1.4" stroke-linecap="round" d="M18,27.75h3"/>
					<path id="Stroke-11" fill="none" stroke="#040505" stroke-width="1.4" stroke-linecap="round" d="M6,32.25h13.5"/>
					<path id="Fill-13" fill="#040505" d="M31.91,30c0-1.033,0.85-1.875,1.895-1.875c0.172,0,0.326,0.015,0.494,0.059
						c-0.318,0.555-0.494,1.172-0.494,1.816s0.176,1.262,0.494,1.816C33.135,32.118,31.91,31.187,31.91,30 M38.006,28.125
						c1.095,0,1.988,0.842,1.988,1.875s-0.894,1.875-1.988,1.875C36.895,31.875,36,31.033,36,30S36.895,28.125,38.006,28.125
						 M35.852,33.146c0.619,0.377,1.359,0.604,2.154,0.604C40.209,33.75,42,32.066,42,30s-1.791-3.75-3.994-3.75
						c-0.795,0-1.537,0.227-2.154,0.604c-0.61-0.383-1.313-0.604-2.047-0.604C31.701,26.25,30,27.934,30,30s1.701,3.75,3.805,3.75
						C34.539,33.75,35.241,33.529,35.852,33.146"/>
				</g>
			</g>
		</g>
	</g>
</g>
</svg>
