<?xml version="1.0" encoding="utf-8"?>
<!-- Generator: Adobe Illustrator 15.1.0, SVG Export Plug-In . SVG Version: 6.00 Build 0)  -->
<!DOCTYPE svg PUBLIC "-//W3C//DTD SVG 1.1//EN" "http://www.w3.org/Graphics/SVG/1.1/DTD/svg11.dtd">
<svg version="1.1" id="Layer_1" xmlns="http://www.w3.org/2000/svg" xmlns:xlink="http://www.w3.org/1999/xlink" x="0px" y="0px"
	 width="50px" height="50px" viewBox="0 0 50 50" enable-background="new 0 0 50 50" xml:space="preserve">
<g id="Brand-landing-page-desktop">
	<g id="_x30_1_x5F_Adidas_x5F_Brand_x5F_Landing_x5F_Page" transform="translate(-582.000000, -3035.000000)">
		<g id="Group-15" transform="translate(125.000000, 2888.000000)">
			<g id="Products" transform="translate(0.000000, 80.000000)">
				<g id="Mask-Copy-4-_x2B_-Mask-Copy-5-_x2B_-Mask-Copy-3-Mask-Copy-Copy" transform="translate(405.000000, 0.000000)">
					<g id="angi-kensington-floral-skirt_000000005663532001">
						<g id="Page-1" transform="translate(53.000000, 68.000000)">
							<path id="Fill-1" fill="#212121" stroke="#FFFFFF" stroke-width="0.5" d="M15.911,17.179l7.081,11.645l7.456-11.862
								L15.911,17.179z M9.297,28.756l6.244,0.35l-0.194-0.993c-0.302-1.644-1.173-3.158-2.45-4.268l-0.773-0.662L9.297,28.756z
								 M12.83,21.793l0.539,0.393c2.059,1.511,3.393,3.827,3.657,6.333l0.069,0.684l4.413,0.247l-6.848-11.27L12.83,21.793z
								 M8.039,22.038c-4.104,0-7.439,3.338-7.439,7.442s3.335,7.438,7.439,7.438c3.278,0,6.135-2.1,7.11-5.234l0.295-0.973
								l-7.45-0.434c-0.271-0.018-0.51-0.168-0.651-0.396c-0.128-0.238-0.14-0.531-0.018-0.771l3.379-6.657L9.705,22.23
								C9.158,22.101,8.596,22.038,8.039,22.038L8.039,22.038z M36.229,23.047c-2.291,1.334-3.709,3.802-3.709,6.433
								c0,4.104,3.337,7.438,7.441,7.438s7.451-3.335,7.451-7.438s-3.347-7.442-7.451-7.442c-0.107,0-0.215,0-0.313,0.002
								l-1.02,0.046l2.094,7.166c0.062,0.198,0.051,0.425-0.054,0.606c-0.105,0.184-0.286,0.321-0.481,0.379
								c-0.075,0.032-0.148,0.04-0.228,0.04c-0.356,0-0.658-0.244-0.758-0.586l-2.093-7.161L36.229,23.047z M39.961,38.518
								c-4.984,0-9.039-4.054-9.039-9.038c0-3.45,2.021-6.65,5.132-8.15l0.618-0.293l-2.199-7.492L23.662,30.766
								c-0.147,0.242-0.404,0.378-0.676,0.378c-0.019,0-0.031-0.001-0.049-0.002l-5.933-0.345l-0.149,0.652
								c-0.924,4.102-4.631,7.068-8.817,7.068C3.054,38.518-1,34.464-1,29.479s4.054-9.039,9.039-9.039
								c0.926,0,1.838,0.139,2.717,0.422l0.652,0.198l2.277-4.489l-0.879-1.43c-0.034-0.062-0.066-0.135-0.083-0.208l-0.161-0.587
								h-0.901c-0.44,0-0.794-0.365-0.794-0.804s0.354-0.795,0.794-0.795h3.849c0.44,0,0.794,0.356,0.794,0.795
								c0,0.244-0.105,0.464-0.288,0.615l-1.746,1.447l16.541-0.237c0.021,0,0.047,0.003,0.098,0.006l0.491,0.063l2.733-4.354h-5.61
								c-0.44,0-0.79-0.354-0.79-0.794c0-0.44,0.35-0.8,0.79-0.8h6.585c0.438,0,0.798,0.359,0.798,0.8
								c0,0.242-0.108,0.416-0.191,0.519l-0.276,0.323l2.753,9.462l0.675-0.086c0.383-0.044,0.739-0.066,1.094-0.066
								c4.984,0,9.039,4.055,9.039,9.039S44.945,38.518,39.961,38.518L39.961,38.518z"/>
						</g>
					</g>
				</g>
			</g>
		</g>
	</g>
</g>
</svg>
