<svg xmlns="http://www.w3.org/2000/svg" xmlns:xlink="http://www.w3.org/1999/xlink" width="26" height="28" viewBox="0 0 26 28">
    <defs>
        <rect id="b" width="22" height="22" rx="11"/>
        <filter id="a" width="154.5%" height="154.5%" x="-27.3%" y="-18.2%" filterUnits="objectBoundingBox">
            <feOffset dy="2" in="SourceAlpha" result="shadowOffsetOuter1"/>
            <feGaussianBlur in="shadowOffsetOuter1" result="shadowBlurOuter1" stdDeviation="1"/>
            <feColorMatrix in="shadowBlurOuter1" result="shadowMatrixOuter1" values="0 0 0 0 0 0 0 0 0 0 0 0 0 0 0 0 0 0 0.24 0"/>
            <feOffset in="SourceAlpha" result="shadowOffsetOuter2"/>
            <feGaussianBlur in="shadowOffsetOuter2" result="shadowBlurOuter2" stdDeviation="1"/>
            <feColorMatrix in="shadowBlurOuter2" result="shadowMatrixOuter2" values="0 0 0 0 0 0 0 0 0 0 0 0 0 0 0 0 0 0 0.12 0"/>
            <feMerge>
                <feMergeNode in="shadowMatrixOuter1"/>
                <feMergeNode in="shadowMatrixOuter2"/>
            </feMerge>
        </filter>
    </defs>
    <g fill="none" fill-rule="evenodd">
        <g transform="translate(2 2)">
            <use fill="#000" filter="url(#a)" xlink:href="#b"/>
            <use fill="#FF1744" xlink:href="#b"/>
        </g>
        <path fill="#FFF" fill-rule="nonzero" d="M14.473 13.5l4.325-4.326a.688.688 0 1 0-.972-.972L13.5 12.527 9.174 8.202a.688.688 0 1 0-.972.972l4.325 4.326-4.325 4.326a.688.688 0 1 0 .972.972l4.326-4.325 4.326 4.325a.686.686 0 0 0 .972 0 .688.688 0 0 0 0-.972L14.473 13.5z"/>
    </g>
</svg>
