<?xml version="1.0" encoding="UTF-8"?>
<svg width="50px" height="50px" viewBox="0 0 50 50" version="1.1" xmlns="http://www.w3.org/2000/svg" xmlns:xlink="http://www.w3.org/1999/xlink">
    <!-- Generator: Sketch 48.2 (47327) - http://www.bohemiancoding.com/sketch -->
    <title>Artboard</title>
    <desc>Created with Sketch.</desc>
    <defs></defs>
    <g id="25122017" stroke="none" stroke-width="1" fill="none" fill-rule="evenodd">
        <g id="Artboard">
            <g id="Group" transform="translate(9.000000, 2.000000)">
                <path d="M3.20000002,0.800000012 C2.75817222,0.800000012 2.40000001,1.15817222 2.40000001,1.60000002 L2.40000001,27.0297608 C2.40000001,27.2628149 2.50162784,27.4842831 2.67831186,27.6362601 L14.9434538,38.1862784 C15.2343935,38.4365339 15.6620547,38.4449375 15.9626011,38.2063047 L29.2982098,27.6178796 C29.4893448,27.466119 29.6007506,27.235411 29.6007506,26.9913539 L29.6007506,1.60000002 C29.6007506,1.15817222 29.2425784,0.800000012 28.8007506,0.800000012 L3.20000002,0.800000012 Z" id="Rectangle-23" stroke="#999999" stroke-width="1.60000002"></path>
                <path d="M0.793103448,44.4137931 L31.2068966,44.4137931 C31.6449155,44.4137931 32,44.7688776 32,45.2068966 L32,45.2068966 C32,45.6449155 31.6449155,46 31.2068966,46 L0.793103448,46 C0.355084509,46 5.36418492e-17,45.6449155 0,45.2068966 L0,45.2068966 C-5.36418492e-17,44.7688776 0.355084509,44.4137931 0.793103448,44.4137931 Z" id="Rectangle-24" fill="#999999"></path>
                <path d="M20.6317456,12.9259163 C20.9494996,12.6109015 21.4646808,12.6109015 21.7824349,12.9259163 L25.8720568,16.9802829 C26.1898109,17.2952977 26.1898109,17.8060376 25.8720568,18.1210525 C25.5543027,18.4360673 25.0391216,18.4360673 24.7213675,18.1210525 L20.6317456,14.0666859 C20.3139915,13.751671 20.3139915,13.2409311 20.6317456,12.9259163 Z M25.8720568,16.997568 C26.1898109,17.3125828 26.1898109,17.8233228 25.8720568,18.1383376 L21.7824349,22.1927042 C21.4646808,22.507719 20.9494996,22.507719 20.6317456,22.1927042 C20.3139915,21.8776894 20.3139915,21.3669494 20.6317456,21.0519346 L24.7213675,16.997568 C25.0391216,16.6825532 25.5543027,16.6825532 25.8720568,16.997568 Z M7.73214643,16.6566794 L23.6795295,16.6566794 C24.4037723,16.6566794 25.011676,17.1015021 25.011676,17.6863662 C25.011676,18.2712303 24.4037723,18.7160531 23.6795295,18.7160531 L7.73214643,18.7160531 C7.00790365,18.7160531 6.4,18.2712303 6.4,17.6863662 C6.4,17.1015021 7.00790365,16.6566794 7.73214643,16.6566794 Z" id="Combined-Shape" fill="#999999" fill-rule="nonzero" transform="translate(16.255186, 17.559310) rotate(90.000000) translate(-16.255186, -17.559310) "></path>
            </g>
        </g>
    </g>
</svg>