<?xml version="1.0" encoding="UTF-8"?>
<svg width="40px" height="40px" viewBox="0 0 40 40" version="1.1" xmlns="http://www.w3.org/2000/svg" xmlns:xlink="http://www.w3.org/1999/xlink">
    <!-- Generator: Sketch 48.2 (47327) - http://www.bohemiancoding.com/sketch -->
    <title>01</title>
    <desc>Created with Sketch.</desc>
    <defs></defs>
    <g id="Page-1" stroke="none" stroke-width="1" fill="none" fill-rule="evenodd">
        <g id="01" fill="#FFFFFF" fill-rule="nonzero" stroke="#FFFFFF" stroke-width="0.666666667">
            <g id="downloadWhite" transform="translate(5.000000, 0.000000)">
                <path d="M13.6284737,0.695384615 L13.6284737,24.6646154 L7.81244737,18.2376923 L6.62955263,19.7384615 L13.8902368,27.7584615 C14.0604211,27.9738462 14.2802105,28.0292308 14.5,28.0292308 C14.7197895,28.0292308 14.9388158,27.9207692 15.109,27.7584615 L22.3635789,19.7384615 L21.1951842,18.2376923 L15.3738158,24.6646154 L15.3738158,0.695384615 L13.6284737,0.695384615 Z" id="Shape"></path>
                <path d="M28.6184211,36.7261538 L28.6184211,11.2023077 C28.6184211,9.74769231 27.6537895,8.61615385 26.4357895,8.61615385 L20.6205263,8.61615385 L20.6205263,10.6861538 L26.4357895,10.6861538 C26.6914474,10.6861538 26.8753684,10.8861538 26.8753684,11.2015385 L26.8753684,36.7261538 C26.8753684,37.0338462 26.6914474,37.2346154 26.4357895,37.2346154 L2.57107895,37.2346154 C2.30931579,37.2346154 2.1315,37.0338462 2.1315,36.7261538 L2.1315,11.2023077 C2.1315,10.8869231 2.30855263,10.6869231 2.57107895,10.6869231 L8.37947368,10.6869231 L8.37947368,8.61692308 L2.57107895,8.61692308 C1.34621053,8.61692308 0.381578947,9.74846154 0.381578947,11.2030769 L0.381578947,36.7276923 C0.381578947,38.1753846 1.34544737,39.3138462 2.57107895,39.3138462 L26.4357895,39.3138462 C27.6537895,39.3123077 28.6184211,38.1738462 28.6184211,36.7261538 Z" id="Shape_1_"></path>
            </g>
        </g>
    </g>
</svg>