<?xml version="1.0" encoding="utf-8"?>
<!-- Generator: Adobe Illustrator 15.1.0, SVG Export Plug-In . SVG Version: 6.00 Build 0)  -->
<!DOCTYPE svg PUBLIC "-//W3C//DTD SVG 1.1//EN" "http://www.w3.org/Graphics/SVG/1.1/DTD/svg11.dtd">
<svg version="1.1" id="Layer_1" xmlns="http://www.w3.org/2000/svg" xmlns:xlink="http://www.w3.org/1999/xlink" x="0px" y="0px"
	 width="50px" height="50px" viewBox="0 0 50 50" enable-background="new 0 0 50 50" xml:space="preserve">
<g id="Desktop-_x2F_-Home">
	<g id="_x30_1-Desktop-Home-user-zero" transform="translate(-731.000000, -3091.000000)">
		<g id="Connect" transform="translate(125.000000, 2983.000000)">
			<g id="Group-31" transform="translate(606.000000, 108.000000)">
				<g id="Group-32">
					<g id="Delivery-icon">
						<g id="Group-36">
							<path id="Shape" d="M49.815,25.077l-6.446-10.5c-0.204-0.344-0.586-0.559-0.983-0.559h-9.082
								c-0.104-0.961-0.484-2.644-1.724-3.954c-1.152-1.176-2.715-1.769-4.665-1.769H9.713c-0.649,0-1.167,0.521-1.167,1.175v2.888
								H5.083c-0.639,0-1.156,0.531-1.156,1.185c0,0.643,0.516,1.174,1.156,1.174h12.106c0.639,0,1.167-0.531,1.167-1.174
								c0-0.654-0.528-1.185-1.167-1.185h-6.32v-1.714h16.045c1.303,0,2.29,0.36,2.973,1.052c1.159,1.187,1.129,3.026,1.128,3.072
								v19.205c0,0-8.527,0.01-8.61,0.022c-0.817-2.122-2.854-3.664-5.26-3.664c-2.376,0-4.419,1.511-5.232,3.642h-1.045v-5.064
								c0-0.642-0.516-1.174-1.156-1.174H2.367c-0.639,0-1.167,0.532-1.167,1.174c0,0.644,0.528,1.176,1.167,1.176h6.179v5.064
								c0,0.644,0.517,1.176,1.167,1.176h1.833c0.15,2.986,2.608,5.379,5.6,5.379c3.002,0,5.461-2.393,5.611-5.379h11.27
								c0.149,2.986,2.598,5.379,5.61,5.379c2.99,0,5.438-2.393,5.589-5.379h3.606c0.64,0,1.168-0.532,1.168-1.176v-9.446
								C50,25.484,49.945,25.268,49.815,25.077z M17.146,39.354c-1.813,0-3.285-1.503-3.285-3.326c0-1.845,1.473-3.326,3.285-3.326
								c1.823,0,3.308,1.481,3.308,3.326C20.453,37.852,18.969,39.354,17.146,39.354z M39.637,39.354
								c-1.834,0-3.307-1.503-3.307-3.326c0-1.845,1.473-3.326,3.307-3.326c1.813,0,3.284,1.481,3.284,3.326
								C42.921,37.852,41.449,39.354,39.637,39.354z M44.866,33.974c-0.822-2.133-2.865-3.644-5.229-3.644
								c-2.387,0-4.43,1.511-5.252,3.644h-1.034V16.378h8.394l4.683,7.618h-8.379v-3.42h1.938c0.639,0,1.167-0.531,1.167-1.185
								c0-0.644-0.528-1.175-1.167-1.175h-3.083c-0.662,0-1.168,0.531-1.168,1.175v5.78c0,0.654,0.506,1.18,1.168,1.18h10.762v7.623
								H44.866L44.866,33.974z"/>
							<path id="Shape_1_" d="M9.713,16.436c-0.649,0-1.167,0.532-1.167,1.186v4.937H4.269c-0.649,0-1.167,0.532-1.167,1.175
								c0,0.654,0.517,1.174,1.167,1.174h9.457c0.65,0,1.167-0.521,1.167-1.175c0-0.644-0.517-1.175-1.167-1.175H10.87v-4.937
								C10.87,16.968,10.353,16.436,9.713,16.436z"/>
							<path id="Shape_2_" d="M2.367,18.796h3.416c0.64,0,1.157-0.531,1.157-1.175c0-0.654-0.517-1.186-1.157-1.186H2.367
								c-0.639,0-1.167,0.531-1.167,1.186C1.2,18.265,1.728,18.796,2.367,18.796z"/>
						</g>
						<path id="Shape_3_" d="M2.399,23.733c0-0.644-0.516-1.175-1.156-1.175H1.167C0.517,22.558,0,23.09,0,23.733
							c0,0.654,0.517,1.175,1.167,1.175h0.076C1.883,24.908,2.399,24.387,2.399,23.733z"/>
					</g>
				</g>
			</g>
		</g>
	</g>
</g>
</svg>
