<?xml version="1.0" encoding="utf-8"?>
<!-- Generator: Adobe Illustrator 15.1.0, SVG Export Plug-In . SVG Version: 6.00 Build 0)  -->
<!DOCTYPE svg PUBLIC "-//W3C//DTD SVG 1.1//EN" "http://www.w3.org/Graphics/SVG/1.1/DTD/svg11.dtd">
<svg version="1.1" id="Layer_1" xmlns="http://www.w3.org/2000/svg" xmlns:xlink="http://www.w3.org/1999/xlink" x="0px" y="0px"
	 width="50px" height="50px" viewBox="0 0 50 50" enable-background="new 0 0 50 50" xml:space="preserve">
<g id="My-Account-desktop">
	<g id="_x31_0_x5F_Edit-profile" transform="translate(-492.000000, -1179.000000)">
		<g id="Interested-Categories" transform="translate(458.000000, 1103.000000)">
			<g id="_x30_1" transform="translate(0.000000, 47.000000)">
				<g id="Page-1" transform="translate(34.000000, 29.000000)">
					<g id="Group-3" transform="translate(0.000000, 0.000255)">
						<path id="Fill-1" fill="#212121" d="M27.851,48.59l-2.175-3.254c-0.15-0.225-0.402-0.364-0.675-0.364
							c-0.273,0-0.525,0.14-0.675,0.364L22.15,48.59c-8.687-0.484-13.25-3.133-14.475-3.956c0.92-7.359,6.041-13.869,9.453-18.196
							c0.604-0.773,1.142-1.456,1.602-2.072h7.469c0.448,0,0.813-0.366,0.813-0.815s-0.365-0.814-0.813-0.814h-7.365
							c-0.474-1.094-1.687-4.506-2.205-11.559c-0.02-0.266-0.169-0.506-0.403-0.644c-0.229-0.134-0.515-0.148-0.757-0.031
							l-2.801,1.31l-2.662-4.124l6.198-5.559l2.526-0.583c0.594,2.026,2.447,7.417,5.839,9.549c0.264,0.163,0.6,0.163,0.864,0
							c3.392-2.132,5.246-7.523,5.839-9.549l2.525,0.583l6.198,5.559l-2.667,4.124l-2.796-1.31
							c-0.246-0.117-0.524-0.103-0.762,0.031c-0.229,0.138-0.379,0.378-0.395,0.644c-0.519,7.056-1.736,10.468-2.208,11.559h-1.712
							c-0.449,0-0.814,0.366-0.814,0.815v8.879c0,0.448,0.365,0.813,0.814,0.813c0.448,0,0.814-0.365,0.814-0.813v-8.065h1
							c0.458,0.617,0.998,1.299,1.603,2.073c3.412,4.327,8.532,10.837,9.453,18.196C41.098,45.459,36.535,48.105,27.851,48.59
							 M25,3.963c1.308,0,2.604-0.151,3.865-0.451C28.055,5.541,26.774,8.055,25,9.413c-1.774-1.358-3.059-3.873-3.865-5.902
							C22.396,3.811,23.688,3.963,25,3.963 M43.997,44.934c-0.806-8.023-6.24-14.933-9.84-19.507
							c-0.581-0.73-1.094-1.38-1.523-1.965c0.504-1.151,1.684-4.404,2.27-10.99l2.381,1.116c0.369,0.172,0.81,0.045,1.032-0.295
							l3.423-5.307c0.22-0.335,0.156-0.78-0.142-1.045l-6.871-6.16c-0.104-0.092-0.225-0.159-0.361-0.187l-3.491-0.81
							c-0.429-0.099-0.866,0.167-0.973,0.598c-0.003,0.019-0.123,0.508-0.366,1.255C28.076,2.101,26.552,2.338,25,2.338
							c-1.553,0-3.077-0.237-4.54-0.701c-0.235-0.747-0.358-1.236-0.362-1.254c-0.107-0.432-0.54-0.698-0.977-0.599l-3.491,0.81
							c-0.133,0.028-0.258,0.095-0.358,0.187L8.399,6.94C8.101,7.206,8.042,7.65,8.26,7.986l3.425,5.306
							c0.221,0.341,0.662,0.467,1.031,0.296l2.381-1.116c0.586,6.586,1.76,9.839,2.274,10.99c-0.438,0.585-0.948,1.235-1.523,1.965
							c-3.6,4.574-9.043,11.483-9.844,19.507c-0.026,0.267,0.084,0.54,0.292,0.707c0.201,0.171,5.042,4.076,16.239,4.595
							c0.284,0.01,0.556-0.122,0.717-0.363L25,47.256l1.75,2.617c0.149,0.226,0.405,0.363,0.674,0.363c0.018,0,0.027,0,0.037,0
							c11.202-0.519,16.046-4.424,16.243-4.595C43.916,45.474,44.026,45.201,43.997,44.934"/>
					</g>
				</g>
			</g>
		</g>
	</g>
</g>
</svg>
