<?xml version="1.0" encoding="utf-8"?>
<!-- Generator: Adobe Illustrator 15.1.0, SVG Export Plug-In . SVG Version: 6.00 Build 0)  -->
<!DOCTYPE svg PUBLIC "-//W3C//DTD SVG 1.1//EN" "http://www.w3.org/Graphics/SVG/1.1/DTD/svg11.dtd">
<svg version="1.1" id="Layer_1" xmlns="http://www.w3.org/2000/svg" xmlns:xlink="http://www.w3.org/1999/xlink" x="0px" y="0px"
	 width="50px" height="50px" viewBox="0 0 50 50" enable-background="new 0 0 50 50" xml:space="preserve">
<g id="Desktop-_x2F_-My-bag">
	<g id="Desktop-My-Bag" transform="translate(-965.000000, -587.000000)">
		<g id="Group-11" transform="translate(933.000000, 556.000000)">
			<g id="GIFT-WRAP">
				<g id="Group-9">
					<path id="Shape-Copy" fill="#010101" d="M45.743,31c-3.001,0-5.414,2.444-5.414,5.415c0,1.059,0.316,2.077,0.871,2.915h-7.924
						c-0.781,0.068-1.277,0.627-1.275,1.288v11.531c0,0.708,0.581,1.288,1.275,1.288h2.577v26.289c0,0.695,0.568,1.275,1.275,1.275
						h39.745c0.695,0,1.276-0.58,1.276-1.275V52.798c0.003-0.463-0.241-0.898-0.636-1.124c-0.396-0.239-0.886-0.239-1.28,0
						c-0.396,0.226-0.639,0.661-0.636,1.124v25.651H58.275V53.436h22.449c0.695,0,1.275-0.58,1.275-1.288V40.617
						c0-0.708-0.58-1.288-1.275-1.288h-7.911c0.541-0.838,0.846-1.855,0.846-2.915c0-2.97-2.401-5.415-5.391-5.415
						c-3.159,0-5.416,1.487-7.174,3.17c-1.502,1.419-2.728,2.979-4.095,4.158c-1.367-1.179-2.593-2.739-4.082-4.158
						C51.16,32.487,48.891,31,45.743,31z M45.743,33.564c2.375,0,3.84,0.996,5.393,2.465c1.01,0.976,2.004,2.168,3.157,3.3h-8.868
						c-0.121-0.058-0.246-0.105-0.386-0.131c-1.243-0.356-2.146-1.487-2.146-2.784C42.893,34.788,44.089,33.564,45.743,33.564z
						 M68.269,33.564c1.63,0,2.839,1.224,2.839,2.851c0,1.297-0.917,2.427-2.146,2.784c-0.14,0.025-0.252,0.073-0.386,0.131h-8.88
						c1.165-1.132,2.146-2.325,3.169-3.3C64.417,34.56,65.882,33.564,68.269,33.564z M34.564,41.893h21.161v8.98H34.564V41.893z
						 M58.275,41.893h21.174v8.98H58.275V41.893z M38.416,53.436h17.309v25.013H38.416V53.436z"/>
				</g>
			</g>
		</g>
	</g>
</g>
</svg>
