<?xml version="1.0" encoding="utf-8"?>
<!-- Generator: Adobe Illustrator 15.1.0, SVG Export Plug-In . SVG Version: 6.00 Build 0)  -->
<!DOCTYPE svg PUBLIC "-//W3C//DTD SVG 1.1//EN" "http://www.w3.org/Graphics/SVG/1.1/DTD/svg11.dtd">
<svg version="1.1" id="Layer_1" xmlns="http://www.w3.org/2000/svg" xmlns:xlink="http://www.w3.org/1999/xlink" x="0px" y="0px"
	 width="50px" height="50px" viewBox="0 0 50 50" enable-background="new 0 0 50 50" xml:space="preserve">
<g id="Desktop-_x2F_-Checkout-1">
	<g id="Desktop-Checkout_Thank-you" transform="translate(-1159.000000, -330.000000)">
		<g id="Rating" transform="translate(933.000000, 182.000000)">
			<g id="Rating--2" transform="translate(67.000000, 148.000000)">
				<g id="Good" transform="translate(159.000000, 0.000000)">
					<path id="Fill-1" d="M25,45.814c-11.478,0-20.82-9.337-20.82-20.815C4.18,13.521,13.522,4.18,25,4.18
						c11.479,0,20.815,9.341,20.815,20.819C45.815,36.478,36.479,45.814,25,45.814 M25,0C11.213,0,0,11.212,0,24.999
						c0,13.782,11.213,25,25,25c13.781,0,25-11.218,25-25C50,11.212,38.781,0,25,0"/>
					<path id="Fill-7" d="M14.797,27.361c-0.959,0-1.835,0.584-2.246,1.499c-0.411,0.918-0.277,1.996,0.333,2.776
						c3.075,3.925,7.606,6.191,12.439,6.191c4.816,0,9.347-2.246,12.423-6.171c0.618-0.767,0.736-1.857,0.334-2.764
						c-0.417-0.916-1.279-1.502-2.243-1.502L14.797,27.361z"/>
					<path id="Fill-3" d="M30.951,23.171c1.87,0,3.391-1.52,3.391-3.396c0-1.876-1.521-3.396-3.391-3.396
						c-1.883,0-3.402,1.52-3.402,3.396C27.549,21.651,29.068,23.171,30.951,23.171"/>
					<path id="Fill-5" d="M19.049,23.171c1.876,0,3.396-1.52,3.396-3.396c0-1.876-1.52-3.396-3.396-3.396
						c-1.87,0-3.396,1.52-3.396,3.396C15.653,21.651,17.179,23.171,19.049,23.171"/>
				</g>
			</g>
		</g>
	</g>
</g>
</svg>
