<?xml version="1.0" encoding="utf-8"?>
<!-- Generator: Adobe Illustrator 15.1.0, SVG Export Plug-In . SVG Version: 6.00 Build 0)  -->
<!DOCTYPE svg PUBLIC "-//W3C//DTD SVG 1.1//EN" "http://www.w3.org/Graphics/SVG/1.1/DTD/svg11.dtd">
<svg version="1.1" id="Layer_1" xmlns="http://www.w3.org/2000/svg" xmlns:xlink="http://www.w3.org/1999/xlink" x="0px" y="0px"
	 width="50px" height="50px" viewBox="0 0 50 50" enable-background="new 0 0 50 50" xml:space="preserve">
<g id="Desktop-_x2F_-My-bag">
	<g id="Desktop-My-Bag-2" transform="translate(-1202.000000, -119.000000)">
		<g id="Group-11" transform="translate(0.000000, 100.000000)">
			<g id="Input-field-01" transform="translate(953.000000, 14.000000)">
				<g id="Group" transform="translate(250.000000, 6.000000)">
					<path id="Stroke-1" fill="none" stroke="#8d8d8d" stroke-width="3.5" stroke-linecap="round" stroke-linejoin="round" d="
						M34.63,24c0-5.883-4.748-10.646-10.63-10.646S13.356,18.117,13.356,24c0,5.885,4.762,10.662,10.644,10.662
						S34.63,29.885,34.63,24z"/>
					<path id="Stroke-3" fill="none" stroke="#8d8d8d" stroke-width="3.5" stroke-linecap="round" stroke-linejoin="round" d="
						M48.5,24C48.5,10.459,37.537-0.505,24-0.505C10.478-0.505-0.5,10.459-0.5,24c0,13.542,10.978,24.505,24.5,24.505
						C37.537,48.505,48.5,37.542,48.5,24z"/>
					<path id="Stroke-5" fill="none" stroke="#8d8d8d" stroke-width="3.5" stroke-linecap="round" stroke-linejoin="round" d="
						M24,35.188v5.313"/>
					<path id="Stroke-7" fill="none" stroke="#8d8d8d" stroke-width="3.5" stroke-linecap="round" stroke-linejoin="round" d="
						M24,7.515v5.313"/>
					<path id="Stroke-9" fill="none" stroke="#8d8d8d" stroke-width="3.5" stroke-linecap="round" stroke-linejoin="round" d="
						M13.355,24H8.303"/>
					<path id="Stroke-11" fill="none" stroke="#8d8d8d" stroke-width="3.5" stroke-linecap="round" stroke-linejoin="round" d="
						M39.697,24H34.63"/>
				</g>
			</g>
		</g>
	</g>
</g>
</svg>
