<?xml version="1.0" encoding="utf-8"?>
<!-- Generator: Adobe Illustrator 15.1.0, SVG Export Plug-In . SVG Version: 6.00 Build 0)  -->
<!DOCTYPE svg PUBLIC "-//W3C//DTD SVG 1.1//EN" "http://www.w3.org/Graphics/SVG/1.1/DTD/svg11.dtd">
<svg version="1.1" id="Layer_1" xmlns="http://www.w3.org/2000/svg" xmlns:xlink="http://www.w3.org/1999/xlink" x="0px" y="0px"
	 width="50px" height="50px" viewBox="0 0 50 50" enable-background="new 0 0 50 50" xml:space="preserve">
<g id="Brand-landing-page-desktop">
	<g id="_x30_1_x5F_Adidas_x5F_Brand_x5F_Landing_x5F_Page" transform="translate(-189.000000, -3032.000000)">
		<g id="Group-15" transform="translate(125.000000, 2888.000000)">
			<g id="Products" transform="translate(0.000000, 80.000000)">
				<g id="Mask-Copy-4-_x2B_-Mask-Copy-5-_x2B_-Mask-Copy-3-Mask">
					<g id="beats-solo3-wireless-gld-1">
						<path id="Fill-1" fill="#212121" d="M110.188,65.603c-0.591,0-1.146,0.23-1.562,0.646l-1.561,1.562l3.122,3.123l1.562-1.562
							c0.859-0.861,0.859-2.261,0-3.123C111.334,65.833,110.779,65.603,110.188,65.603L110.188,65.603z M101.672,65.603
							c-0.588,0-1.143,0.23-1.561,0.646l-2.128,2.129c-0.86,0.86-0.86,2.261-0.001,3.122c0.372,0.374,8.141,8.141,8.517,8.516
							c0.417,0.417,0.972,0.647,1.562,0.647s1.143-0.229,1.561-0.647l2.129-2.129c0.859-0.861,0.859-2.262,0-3.123l-8.516-8.515
							C102.818,65.833,102.264,65.603,101.672,65.603L101.672,65.603z M102.241,88.531c0.415,0.417,0.972,0.646,1.562,0.646
							s1.144-0.23,1.561-0.646l2.129-2.129c0.861-0.86,0.861-2.262,0-3.123L94.72,70.506c-0.418-0.416-0.972-0.646-1.562-0.646
							s-1.146,0.23-1.561,0.646l-2.129,2.129c-0.861,0.861-0.861,2.263,0,3.123l4.25,4.25l0.084,0.09l0.011,0.005L102.241,88.531z
							 M81.722,93.155l3.123,3.123l11.437-11.438l-3.123-3.123L81.722,93.155z M74.201,88.819c-0.591,0-1.145,0.23-1.562,0.646
							l-2.129,2.128c-0.86,0.861-0.86,2.263,0,3.123l12.772,12.771c0.417,0.418,0.972,0.648,1.562,0.648s1.144-0.23,1.561-0.648
							l2.129-2.127c0.861-0.861,0.861-2.264,0-3.123L75.762,89.465C75.345,89.048,74.791,88.819,74.201,88.819L74.201,88.819z
							 M66.253,108.624c-0.861,0.86-0.861,2.263,0,3.122c0.417,0.418,0.971,0.646,1.561,0.646c0.591,0,1.145-0.229,1.562-0.646
							l1.561-1.561l-3.123-3.123L66.253,108.624z M69.943,97.332c-0.589,0-1.145,0.232-1.561,0.648l-2.129,2.127
							c-0.417,0.419-0.647,0.975-0.647,1.563c0,0.59,0.23,1.145,0.647,1.563l8.515,8.514c0.417,0.419,0.972,0.648,1.562,0.648
							c0.589,0,1.144-0.229,1.561-0.648l2.129-2.128c0.417-0.418,0.646-0.972,0.646-1.562s-0.229-1.145-0.646-1.561l-8.515-8.516
							C71.087,97.564,70.532,97.332,69.943,97.332L69.943,97.332z M76.33,114c-1.018,0-1.976-0.398-2.697-1.118l-1.562-1.562
							l-1.562,1.562c-0.718,0.718-1.676,1.114-2.696,1.114c-1.02,0-1.977-0.396-2.696-1.114c-1.486-1.487-1.486-3.905,0-5.394
							l1.562-1.561l-1.562-1.563c-0.72-0.72-1.118-1.677-1.118-2.695s0.397-1.975,1.118-2.695l2.129-2.13
							c0.343-0.343,0.741-0.612,1.183-0.804l0.722-0.313l-0.392-0.683c-0.852-1.484-0.598-3.371,0.616-4.586l2.129-2.129
							c0.718-0.718,1.676-1.115,2.696-1.115s1.977,0.396,2.696,1.115l3.69,3.689l11.436-11.436l-3.69-3.69
							c-1.486-1.487-1.486-3.906,0-5.392l2.128-2.129c0.718-0.719,1.677-1.114,2.695-1.114c0.665,0,1.319,0.173,1.892,0.5
							l0.682,0.389l0.313-0.72c0.191-0.442,0.462-0.841,0.805-1.184l2.131-2.129c0.718-0.718,1.674-1.114,2.693-1.114
							c1.022,0,1.979,0.396,2.697,1.114l1.562,1.562l1.562-1.562c0.72-0.718,1.677-1.114,2.696-1.114l0,0
							c1.02,0,1.979,0.396,2.696,1.114c1.486,1.486,1.486,3.906,0,5.392l-1.561,1.563l1.561,1.561c1.486,1.486,1.486,3.906,0,5.392
							l-2.129,2.129c-0.344,0.342-0.74,0.612-1.182,0.805l-0.723,0.312l0.391,0.682c0.854,1.486,0.6,3.373-0.615,4.587l-2.127,2.129
							c-0.721,0.717-1.678,1.115-2.697,1.115l0,0c-1.02,0-1.979-0.398-2.697-1.115l-3.688-3.69L85.979,97.414l3.688,3.688
							c0.721,0.718,1.115,1.677,1.115,2.696s-0.395,1.977-1.115,2.697l-2.127,2.128c-0.721,0.72-1.678,1.117-2.695,1.117
							c-0.665,0-1.319-0.173-1.892-0.503l-0.682-0.391l-0.313,0.724c-0.191,0.441-0.462,0.839-0.805,1.181l-2.128,2.13
							C78.305,113.602,77.347,114,76.33,114L76.33,114z"/>
					</g>
				</g>
			</g>
		</g>
	</g>
</g>
</svg>
