<?xml version="1.0" encoding="UTF-8"?>
<svg width="50px" height="50px" viewBox="0 0 50 50" version="1.1" xmlns="http://www.w3.org/2000/svg" xmlns:xlink="http://www.w3.org/1999/xlink">
    <!-- Generator: Sketch 48.2 (47327) - http://www.bohemiancoding.com/sketch -->
    <title>Artboard 4</title>
    <desc>Created with Sketch.</desc>
    <defs></defs>
    <g id="Symbols" stroke="none" stroke-width="1" fill="none" fill-rule="evenodd">
        <g id="Artboard-4" fill="#212E43">
            <g id="Group" transform="translate(1.000000, 4.000000)">
                <path d="M46.0139273,18.1610422 C47.5951492,20.0071138 47.5951492,22.762117 46.0139273,24.6081886 C38.3089792,33.5700187 30.6860325,37.1153846 23.999974,37.1153846 C17.3139154,37.1153846 9.69096866,33.5700187 1.98560382,24.6077029 C0.404798728,22.762117 0.404798728,20.0071138 1.98602057,18.1610422 C9.69096866,9.19921211 17.3139154,5.65384615 23.999974,5.65384615 C30.6860325,5.65384615 38.3089792,9.19921211 46.0139273,18.1610422 Z M43.5787639,22.434442 C44.0929549,21.8340502 44.0929549,20.9351805 43.5787639,20.3347888 C37.9448234,13.7870986 31.0881827,8.95194913 24,8.95194913 C16.9118173,8.95194913 10.0551766,13.7870986 4.42175643,20.3341826 C3.90704512,20.9351805 3.90704512,21.8340502 4.42123609,22.434442 C10.0551766,28.9821322 16.9118173,33.8172816 24,33.8172816 C31.0881827,33.8172816 37.9448234,28.9821322 43.5787639,22.434442 Z" id="Shape" fill-rule="nonzero"></path>
                <path d="M24.2987162,12.9231101 C26.5179031,12.9171894 28.6476541,13.8011994 30.2203527,15.3806628 C31.7930513,16.9601263 32.679869,19.1056604 32.6857154,21.3461852 C32.685651,25.9923054 28.9593598,29.7609786 24.3574945,29.7691295 C19.7556292,29.7772803 16.0162638,26.0218305 16.0000529,21.3757391 C15.983842,16.7296477 19.6969082,12.9476927 24.2987162,12.9231101 Z M24.3029968,26.9402046 C25.7773744,26.9466163 27.1947238,26.360491 28.241708,25.3109899 C29.2886922,24.2614889 29.8793806,22.8347495 29.883599,21.3461875 C29.8835199,18.2619536 27.4109015,15.7596741 24.3560499,15.752331 C21.3011983,15.7449879 18.8168063,18.235352 18.802181,21.3195506 C18.7875557,24.4037491 21.2482156,26.9180159 24.3029968,26.9402046 Z" id="Shape" fill-rule="nonzero"></path>
                <rect id="Rectangle-32" transform="translate(24.200000, 21.000000) rotate(35.000000) translate(-24.200000, -21.000000) " x="22.4" y="-3.23076923" width="3.6" height="48.4615385" rx="1.8"></rect>
            </g>
        </g>
    </g>
</svg>