<?xml version="1.0" encoding="UTF-8"?>
<svg width="50px" height="50px" viewBox="0 0 50 50" version="1.1" xmlns="http://www.w3.org/2000/svg" xmlns:xlink="http://www.w3.org/1999/xlink">
    <!-- Generator: Sketch 48.2 (47327) - http://www.bohemiancoding.com/sketch -->
    <title>Artboard 3</title>
    <desc>Created with Sketch.</desc>
    <defs></defs>
    <g id="Symbols" stroke="none" stroke-width="1" fill="none" fill-rule="evenodd">
        <g id="Artboard-3" fill="#FF1744" fill-rule="nonzero">
            <path d="M4.00000675,20.2197811 C4.0000019,20.2181353 3.99999966,20.2164895 4.00000004,20.2148437 C4.00000675,19.7694605 4.18880511,19.3684893 4.49019398,19.0886837 L23.9563918,0.908447115 C24.5392935,0.364052669 25.4401942,0.363824151 26.0233681,0.907922816 L45.509197,19.0881167 C45.8109418,19.3679475 45.9999954,19.7691596 45.9999954,20.2148438 C46.0000026,20.2165114 46.0000003,20.218179 45.9999954,20.2198466 L45.9999954,47.96875 C45.9999954,48.814436 45.3193063,49.5 44.4796338,49.5 L30.7293048,49.5 C29.8896323,49.5 29.2089432,48.814436 29.2089432,47.96875 L29.2089432,35.6230469 L20.7910589,35.6230469 L20.7910589,47.96875 C20.7910589,48.814436 20.1103698,49.5 19.2706973,49.5 L5.52036833,49.5 C4.68069582,49.5 4.00000675,48.814436 4.00000675,47.96875 L4.00000675,20.2197811 Z M42.9592722,20.8836581 L24.9906828,4.11904219 L7.04072991,20.8831989 L7.04072991,46.4375 L17.7503357,46.4375 L17.7503357,34.0917969 C17.7503357,33.2461109 18.4310248,32.5605469 19.2706973,32.5605469 L30.7293048,32.5605469 C31.5689773,32.5605469 32.2496664,33.2461109 32.2496664,34.0917969 L32.2496664,46.4375 L42.9592722,46.4375 L42.9592722,20.8836581 Z" id="Combined-Shape"></path>
        </g>
    </g>
</svg>