<?xml version="1.0" encoding="utf-8"?>
<!-- Generator: Adobe Illustrator 15.1.0, SVG Export Plug-In . SVG Version: 6.00 Build 0)  -->
<!DOCTYPE svg PUBLIC "-//W3C//DTD SVG 1.1//EN" "http://www.w3.org/Graphics/SVG/1.1/DTD/svg11.dtd">
<svg version="1.1" id="Layer_1" xmlns="http://www.w3.org/2000/svg" xmlns:xlink="http://www.w3.org/1999/xlink" x="0px" y="0px"
	 width="50px" height="50px" viewBox="0 0 50 50" enable-background="new 0 0 50 50" xml:space="preserve">
<g id="PDP-desktop">
	<g id="_x30_1_x5F_Westside_x5F_PDP" transform="translate(-832.000000, -735.000000)">
		<g id="Product" transform="translate(125.000000, 131.000000)">
			<g id="Delivery" transform="translate(707.000000, 548.000000)">
				<g id="_x30_1" transform="translate(0.000000, 54.000000)">
					<g id="noun_1051724" transform="translate(0.000000, 2.000000)">
						<path id="Shape" fill="#212121" d="M13.899,21.289c-0.028,0.017-0.049,0.028-0.059,0.047c-0.019,0.007-0.04,0.009-0.051,0.024
							c-0.343,0.214-0.555,0.583-0.555,0.979v11.201c0,0.443,0.262,0.844,0.665,1.038l10.586,5.015
							c0.165,0.068,0.339,0.109,0.512,0.109c0.168,0,0.326-0.047,0.486-0.109c0.006,0,0.013,0.004,0.026,0l10.581-5.015
							c0.418-0.194,0.673-0.595,0.673-1.038V22.369c0-0.006,0.003-0.012,0.003-0.026c0-0.443-0.255-0.853-0.673-1.047l-10.58-5.007
							c-0.321-0.15-0.702-0.151-1.023,0L13.899,21.289z M32.861,22.341l-1.512,0.713l-6.352,3.002l-2.568-1.219l7.858-3.713
							L32.861,22.341z M15.595,24.188l8.225,3.89v8.63l-8.225-3.896V24.188L15.595,24.188z M26.174,36.709v-8.631l5.647-2.667
							l2.588-1.221v8.62L26.174,36.709z M27.578,19.842l-7.873,3.713l-2.57-1.219L25,18.624L27.578,19.842z"/>
						<path id="Shape_1_" fill="#212121" d="M22.81,29.789l-3.35-1.715c-0.633-0.327-1.388-0.043-1.687,0.632
							c-0.3,0.675-0.042,1.472,0.589,1.801l3.35,1.715c0.183,0.093,0.364,0.138,0.551,0.138c0.469,0,0.925-0.285,1.143-0.77
							C23.707,30.916,23.44,30.119,22.81,29.789z"/>
						<path id="Shape_2_" fill="#212121" d="M49.467,20.343l-6.645-4.384c-0.008-0.013-0.016-0.018-0.039-0.023L25.634,4.602
							c-0.385-0.254-0.878-0.254-1.264-0.004L7.203,15.94c-0.005,0.003-0.009,0.006-0.021,0.009l-6.649,4.393
							c-0.538,0.36-0.698,1.093-0.343,1.639c0.346,0.553,1.062,0.707,1.6,0.356l4.892-3.226v24.103H3.129
							c-0.64,0-1.157,0.533-1.157,1.182c0,0.665,0.518,1.197,1.157,1.197h44.367c0.641,0,1.15-0.532,1.15-1.197
							c0-0.648-0.51-1.182-1.15-1.182h-4.178V19.112l4.885,3.226c0.195,0.127,0.422,0.192,0.631,0.192
							c0.385,0,0.764-0.193,0.977-0.541C50.157,21.436,50.006,20.702,49.467,20.343z M41.004,43.216h-32V17.577L25.002,7.008
							l16.002,10.568V43.216z"/>
					</g>
				</g>
			</g>
		</g>
	</g>
</g>
</svg>
