<?xml version="1.0" encoding="UTF-8"?>
<svg width="21px" height="18px" viewBox="0 0 21 18" version="1.1" xmlns="http://www.w3.org/2000/svg" xmlns:xlink="http://www.w3.org/1999/xlink">
    <!-- Generator: Sketch 48.2 (47327) - http://www.bohemiancoding.com/sketch -->
    <title>Shape</title>
    <desc>Created with Sketch.</desc>
    <defs></defs>
    <g id="07_Kurta&amp;Kutis_PLP_Grid_View_Screen" stroke="none" stroke-width="1" fill="none" fill-rule="evenodd" transform="translate(-323.000000, -94.000000)">
        <g id="Grid/List-View" transform="translate(285.000000, 94.000000)" fill="#8D8D8D" fill-rule="nonzero">
            <g id="noun_77942" transform="translate(38.000000, 0.000000)">
                <path d="M0.160714286,17.775 L6.91071429,17.775 L6.91071429,11.025 L0.160714286,11.025 L0.160714286,17.775 Z M1.51071429,12.375 L5.56071429,12.375 L5.56071429,16.425 L1.51071429,16.425 L1.51071429,12.375 Z M8.26071429,5.625 L20.4107143,5.625 L20.4107143,4.275 L8.26071429,4.275 L8.26071429,5.625 Z M0.160714286,6.975 L6.91071429,6.975 L6.91071429,0.225 L0.160714286,0.225 L0.160714286,6.975 Z M1.51071429,1.575 L5.56071429,1.575 L5.56071429,5.625 L1.51071429,5.625 L1.51071429,1.575 Z M8.26071429,9.675 L20.4107143,9.675 L20.4107143,8.325 L8.26071429,8.325 L8.26071429,9.675 Z M8.26071429,17.775 L20.4107143,17.775 L20.4107143,16.425 L8.26071429,16.425 L8.26071429,17.775 Z M8.26071429,13.725 L20.4107143,13.725 L20.4107143,12.375 L8.26071429,12.375 L8.26071429,13.725 Z M8.26071429,0.225 L8.26071429,1.575 L20.4107143,1.575 L20.4107143,0.225 L8.26071429,0.225 Z" id="Shape"></path>
            </g>
        </g>
    </g>
</svg>