<?xml version="1.0" encoding="utf-8"?>
<!-- Generator: Adobe Illustrator 15.1.0, SVG Export Plug-In . SVG Version: 6.00 Build 0)  -->
<!DOCTYPE svg PUBLIC "-//W3C//DTD SVG 1.1//EN" "http://www.w3.org/Graphics/SVG/1.1/DTD/svg11.dtd">
<svg version="1.1" id="Layer_1" xmlns="http://www.w3.org/2000/svg" xmlns:xlink="http://www.w3.org/1999/xlink" x="0px" y="0px"
	 width="50px" height="50px" viewBox="0 0 50 50" enable-background="new 0 0 50 50" xml:space="preserve">
<g id="Desktop-_x2F_-Home">
	<g id="_x30_1-Desktop-Home-user-zero" transform="translate(-1271.000000, -58.000000)">
		<g id="Fllow-brand_Zero_User">
			<g id="Navigation">
				<g id="Bag" transform="translate(1272.000000, 57.000000)">
					<path id="My-Bag" stroke="#8d8d8d" stroke-width="0.4" d="M43.859,12.55c0-0.676-0.659-1.205-1.32-1.205h-6.762
						C35.118,5.347,30.072,0.688,24,0.688c-6.087,0-11.118,4.66-11.778,10.657H5.475c-0.66,0-1.334,0.529-1.334,1.205L1.5,49.856
						c0,0.71,0.525,1.456,1.32,1.456H45.18c0.747,0,1.32-0.614,1.32-1.456L43.859,12.55z M24,3.348c4.62,0,8.478,3.469,9.138,7.997
						H14.862C15.522,6.817,19.365,3.348,24,3.348z M6.663,14.005h5.427v6.673c0,0.794,0.528,1.323,1.32,1.323s1.32-0.529,1.32-1.323
						v-6.673H33.27v6.673c0,0.794,0.528,1.323,1.32,1.323s1.32-0.529,1.32-1.323v-6.673h5.412L43.2,39.317H4.947L6.663,14.005z
						 M4.272,48.638l0.542-6.646h38.518l0.527,6.646H4.272z"/>
				</g>
			</g>
		</g>
	</g>
</g>
</svg>
