<?xml version="1.0" encoding="UTF-8"?>
<svg width="50px" height="50px" viewBox="0 0 50 50" version="1.1" xmlns="http://www.w3.org/2000/svg" xmlns:xlink="http://www.w3.org/1999/xlink">
    <!-- Generator: Sketch 48.2 (47327) - http://www.bohemiancoding.com/sketch -->
    <title>Artboard</title>
    <desc>Created with Sketch.</desc>
    <defs></defs>
    <g id="homepage" stroke="none" stroke-width="1" fill="none" fill-rule="evenodd">
        <g id="Artboard" fill="#FF1744" fill-rule="nonzero" stroke="#FF1744" stroke-width="0.4">
            <path d="M44.0001383,12.4814712 C44.0001383,11.8271571 43.3622788,11.3151272 42.7224834,11.3151272 L36.177406,11.3151272 C35.5395465,5.50954093 30.6554204,1 24.778208,1 C18.8864768,1 14.0168695,5.51050885 13.378042,11.3151272 L6.84748341,11.3151272 C6.20865597,11.3151272 5.55627765,11.8271571 5.55627765,12.4814712 L3,48.590708 C3,49.2779314 3.50815819,50 4.27765487,50 L45.2787611,50 C46.0017976,50 46.5564159,49.4056969 46.5564159,48.590708 L44.0001383,12.4814712 Z M24.778208,3.57466814 C29.25,3.57466814 32.9842367,6.93238385 33.6230642,11.3151272 L15.9333518,11.3151272 C16.5721792,6.93238385 20.2918971,3.57466814 24.778208,3.57466814 Z M7.99737279,13.8897954 L13.2502765,13.8897954 L13.2502765,20.3487279 C13.2502765,21.1172566 13.7613385,21.6292865 14.5279314,21.6292865 C15.2945243,21.6292865 15.8055863,21.1172566 15.8055863,20.3487279 L15.8055863,13.8897954 L33.7508296,13.8897954 L33.7508296,20.3487279 C33.7508296,21.1172566 34.2618916,21.6292865 35.0284845,21.6292865 C35.7950774,21.6292865 36.3061394,21.1172566 36.3061394,20.3487279 L36.3061394,13.8897954 L41.5445243,13.8897954 L43.3622788,38.3897954 L6.33642146,38.3897954 L7.99737279,13.8897954 Z M5.68307522,47.411781 L6.20768805,40.9789823 L43.4900442,40.9789823 L44.0001383,47.411781 L5.68307522,47.411781 Z" id="My-Bag"></path>
        </g>
    </g>
</svg>