<?xml version="1.0" encoding="UTF-8"?>
<svg width="50px" height="50px" viewBox="0 0 50 50" version="1.1" xmlns="http://www.w3.org/2000/svg" xmlns:xlink="http://www.w3.org/1999/xlink">
    <!-- Generator: Sketch 48.2 (47327) - http://www.bohemiancoding.com/sketch -->
    <title>Artboard</title>
    <desc>Created with Sketch.</desc>
    <defs></defs>
    <g id="homepage" stroke="none" stroke-width="1" fill="none" fill-rule="evenodd">
        <g id="Artboard" fill="#FF1744" fill-rule="nonzero">
            <g id="Group-28">
                <path d="M25,50 C11.1928813,50 0,38.8071187 0,25 C0,11.1928813 11.1928813,0 25,0 C38.8071187,0 50,11.1928813 50,25 C50,38.8071187 38.8071187,50 25,50 Z M25,46.7741935 C37.025555,46.7741935 46.7741935,37.025555 46.7741935,25 C46.7741935,12.974445 37.025555,3.22580645 25,3.22580645 C12.974445,3.22580645 3.22580645,12.974445 3.22580645,25 C3.22580645,37.025555 12.974445,46.7741935 25,46.7741935 Z" id="Oval-2"></path>
                <path d="M25.0806452,12.0967742 C20.1209677,12.0967742 16.1290323,16.0887097 16.1290323,21.0483871 C16.1290323,26.0080645 20.1209677,30 25.0806452,30 C30.0403226,30 34.0322581,26.0080645 34.0322581,21.0483871 C34.0322581,16.0887097 30.0403226,12.0967742 25.0806452,12.0967742 Z M25.0806452,27.2983871 C21.6129032,27.2983871 18.8306452,24.516129 18.8306452,21.0483871 C18.8306452,17.5806452 21.6129032,14.7983871 25.0806452,14.7983871 C28.5483871,14.7983871 31.3306452,17.5806452 31.3306452,21.0483871 C31.3306452,24.516129 28.5483871,27.2983871 25.0806452,27.2983871 Z" id="Shape"></path>
                <path d="M24.8790323,27.8225806 C15.8069525,27.8225806 8.46774194,34.8913043 8.46774194,43.6290323 L11.3728461,43.6290323 C11.3728461,36.4621318 17.4378882,30.6206171 24.8790323,30.6206171 C32.3201763,30.6206171 38.3852184,36.4621318 38.3852184,43.6290323 L41.2903226,43.6290323 C41.2903226,34.8913043 33.951112,27.8225806 24.8790323,27.8225806 Z" id="Shape"></path>
            </g>
        </g>
    </g>
</svg>