<?xml version="1.0" encoding="UTF-8"?>
<svg width="50px" height="50px" viewBox="0 0 50 50" version="1.1" xmlns="http://www.w3.org/2000/svg" xmlns:xlink="http://www.w3.org/1999/xlink">
    <!-- Generator: Sketch 48.2 (47327) - http://www.bohemiancoding.com/sketch -->
    <title>Artboard 5</title>
    <desc>Created with Sketch.</desc>
    <defs></defs>
    <g id="Symbols" stroke="none" stroke-width="1" fill="none" fill-rule="evenodd">
        <g id="Artboard-5" fill="#FFFFFF" fill-rule="nonzero" stroke="#FFFFFF" stroke-width="0.4">
            <path d="M44.419,11.704 C44.419,11.055 43.773,10.521 43.129,10.521 L36.516,10.521 C35.871,4.609 30.966,-0.006 25,-0.006 C19.048,-0.006 14.129,4.609 13.483,10.521 L6.887,10.521 C6.241,10.521 5.581,11.055 5.581,11.704 L3,48.549 C3,49.273 3.513,50.006 4.291,50.006 L45.71,50.006 C46.44,50.006 47,49.402 47,48.549 L44.419,11.704 Z M25,2.633 C29.518,2.633 33.289,6.05 33.936,10.521 L16.066,10.521 C16.725,6.051 20.468,2.633 25,2.633 Z M8.048,13.16 L13.355,13.16 L13.355,19.736 C13.355,20.529 13.871,21.048 14.646,21.048 C15.421,21.048 15.937,20.529 15.937,19.736 L15.937,13.16 L34.064,13.16 L34.064,19.736 C34.064,20.529 34.581,21.048 35.355,21.048 C36.13,21.048 36.647,20.529 36.647,19.736 L36.647,13.16 L41.967,13.16 L43.774,38.152 L6.371,38.152 L8.048,13.16 Z M5.725,47.38 L6.241,40.776 L43.903,40.776 L44.419,47.38 L5.725,47.38 Z" id="Shape"></path>
        </g>
    </g>
</svg>