<?xml version="1.0" encoding="UTF-8"?>
<svg width="50px" height="50px" viewBox="0 0 50 50" version="1.1" xmlns="http://www.w3.org/2000/svg" xmlns:xlink="http://www.w3.org/1999/xlink">
    <!-- Generator: Sketch 48.1 (47250) - http://www.bohemiancoding.com/sketch -->
    <title>Play</title>
    <desc>Created with Sketch.</desc>
    <defs></defs>
    <g id="Icons" stroke="none" stroke-width="1" fill="none" fill-rule="evenodd">
        <g id="Play" fill="#FFFFFF" fill-rule="nonzero">
            <path d="M25,0 C11.2146341,0 0,11.2146531 0,25.0000122 C0,38.7853103 11.2146341,50 25,50 C38.7853659,50 50,38.7853103 50,25.0000122 C50,11.2146531 38.7853659,0 25,0 Z M25,1.89393939 C37.7843853,1.89393939 48.1060606,12.2155824 48.1060606,25.0000132 C48.1060606,37.7843912 37.7843853,48.1060606 25,48.1060606 C12.2156147,48.1060606 1.89393939,37.7843912 1.89393939,25.0000132 C1.89393939,12.2155824 12.2156147,1.89393939 25,1.89393939 Z M18.5213415,13.4920635 C17.1117073,13.5239538 15.8896951,14.6626656 15.8536585,16.290158 L15.8536585,33.9792958 C15.9018293,36.1491876 18.0560366,37.4653997 19.9504878,36.4323983 L35.1943902,27.5590974 C36.0240244,27.0744257 36.5853659,26.1848694 36.5853659,25.1443247 C36.5853659,24.1037799 36.0240854,23.2141623 35.1943902,22.7295519 L19.9504878,13.8561959 C19.4768293,13.5979455 18.9912195,13.4814232 18.5213415,13.4920635 Z" id="Shape"></path>
        </g>
    </g>
</svg>