<?xml version="1.0" encoding="utf-8"?>
<!-- Generator: Adobe Illustrator 15.1.0, SVG Export Plug-In . SVG Version: 6.00 Build 0)  -->
<!DOCTYPE svg PUBLIC "-//W3C//DTD SVG 1.1//EN" "http://www.w3.org/Graphics/SVG/1.1/DTD/svg11.dtd">
<svg version="1.1" id="Layer_1" xmlns="http://www.w3.org/2000/svg" xmlns:xlink="http://www.w3.org/1999/xlink" x="0px" y="0px"
	 width="50px" height="50px" viewBox="0 0 50 50" enable-background="new 0 0 50 50" xml:space="preserve">
<g id="PDP-desktop">
	<g id="_x30_5_x5F_Review-landing-page" transform="translate(-1122.000000, -873.000000)">
		<g id="_x30_1" transform="translate(165.000000, 756.000000)">
			<g id="Dislike" transform="translate(957.000000, 116.000000)">
				<g id="Page-1" transform="translate(0.000000, 1.000000)">
					<path id="Fill-1" d="M25,45.809C13.523,45.809,4.177,36.476,4.177,25C4.177,13.523,13.523,4.178,25,4.178
						S45.809,13.523,45.809,25C45.809,36.476,36.477,45.809,25,45.809 M25,0C11.21,0,0,11.209,0,25c0,13.776,11.21,25,25,25
						c13.776,0,25-11.225,25-25C50,11.209,38.776,0,25,0"/>
					<path id="Fill-3" d="M30.954,23.17c1.864,0,3.38-1.518,3.38-3.395c0-1.878-1.516-3.395-3.38-3.395
						c-1.893,0-3.409,1.517-3.409,3.395C27.545,21.653,29.062,23.17,30.954,23.17"/>
					<path id="Fill-5" d="M19.047,23.17c1.877,0,3.395-1.518,3.395-3.395c0-1.878-1.518-3.395-3.395-3.395
						c-1.864,0-3.396,1.517-3.396,3.395C15.651,21.653,17.183,23.17,19.047,23.17"/>
					<path id="Fill-7" d="M24.996,27.882c-4.071,0-7.884,1.803-10.473,4.933c-0.734,0.884-0.611,2.201,0.272,2.936
						c0.898,0.734,2.216,0.625,2.95-0.259c1.788-2.187,4.427-3.418,7.251-3.418c2.828,0,5.47,1.233,7.272,3.426
						c0.4,0.493,0.991,0.771,1.612,0.771c0.451,0,0.931-0.177,1.321-0.483c0.886-0.732,1.023-2.05,0.291-2.936
						C32.9,29.688,29.06,27.882,24.996,27.882"/>
				</g>
			</g>
		</g>
	</g>
</g>
</svg>
