<?xml version="1.0" encoding="utf-8"?>
<!-- Generator: Adobe Illustrator 15.1.0, SVG Export Plug-In . SVG Version: 6.00 Build 0)  -->
<!DOCTYPE svg PUBLIC "-//W3C//DTD SVG 1.1//EN" "http://www.w3.org/Graphics/SVG/1.1/DTD/svg11.dtd">
<svg version="1.1" id="Layer_1" xmlns="http://www.w3.org/2000/svg" xmlns:xlink="http://www.w3.org/1999/xlink" x="0px" y="0px"
	 width="50px" height="50px" viewBox="0 0 50 50" enable-background="new 0 0 50 50" xml:space="preserve">
<g id="Desktop-_x2F_-Home">
	<g id="_x30_1-Desktop-Home-user-zero" transform="translate(-1162.000000, -60.000000)">
		<g id="Fllow-brand_Zero_User">
			<g id="Navigation">
				<g id="Search" transform="translate(933.000000, 57.000000)">
					<path fill="#8d8d8d" stroke="#000000" stroke-width="0.2" d="M278.227,48.554l-12.067-12.099
						c6.305-8.116,5.756-19.907-1.714-27.377c-3.944-3.928-9.144-6.08-14.692-6.08c-5.542,0-10.747,2.152-14.675,6.08
						c-3.928,3.928-6.08,9.132-6.08,14.676c0,5.548,2.151,10.747,6.08,14.692c3.928,3.91,9.132,6.063,14.675,6.063
						c4.664,0,9.086-1.521,12.703-4.349l12.098,12.066c0.496,0.527,1.174,0.775,1.853,0.775c0.646,0,1.324-0.248,1.82-0.775
						C279.25,51.203,279.25,49.577,278.227,48.554z M238.766,34.741c-2.932-2.933-4.544-6.837-4.544-10.988
						c0-4.151,1.613-8.056,4.544-10.987c2.932-2.932,6.836-4.545,10.987-4.545c4.15,0,8.056,1.613,10.988,4.545
						c6.056,6.056,6.056,15.918,0,21.975c-2.933,2.932-6.838,4.544-10.988,4.544C245.602,39.285,241.698,37.673,238.766,34.741z"/>
				</g>
			</g>
		</g>
	</g>
</g>
</svg>
