<?xml version="1.0" encoding="utf-8"?>
<!-- Generator: Adobe Illustrator 15.1.0, SVG Export Plug-In . SVG Version: 6.00 Build 0)  -->
<!DOCTYPE svg PUBLIC "-//W3C//DTD SVG 1.1//EN" "http://www.w3.org/Graphics/SVG/1.1/DTD/svg11.dtd">
<svg version="1.1" id="Layer_1" xmlns="http://www.w3.org/2000/svg" xmlns:xlink="http://www.w3.org/1999/xlink" x="0px" y="0px"
	 width="50px" height="50px" viewBox="0 0 50 50" enable-background="new 0 0 50 50" xml:space="preserve">
<g id="Desktop-_x2F_-Checkout-1">
	<g id="Desktop-Checkout_Mode" transform="translate(-630.000000, -527.000000)">
		<g id="Group-20" transform="translate(125.000000, 360.000000)">
			<g id="Delivery-mode-Copy-2" transform="translate(0.000000, 63.000000)">
				<g id="Group-18" transform="translate(505.000000, 32.000000)">
					<g id="Delivery-02" transform="translate(0.000000, 64.000000)">
						<g id="_x30_1">
							<g id="noun_1051724" transform="translate(0.000000, 8.000000)">
								<path id="Shape" fill="#010101" d="M49.467,19.438l-6.645-4.299c-0.007-0.005-0.014-0.019-0.041-0.023L25.634,4.023
									c-0.386-0.256-0.878-0.256-1.265,0L7.203,15.12c-0.004,0.013-0.008,0.015-0.021,0.017l-6.647,4.301
									c-0.538,0.356-0.7,1.07-0.344,1.608c0.346,0.538,1.061,0.689,1.599,0.344l4.894-3.157v23.602H3.129
									c-0.639,0-1.156,0.526-1.156,1.165c0,0.64,0.517,1.167,1.156,1.167h44.369c0.639,0,1.146-0.527,1.146-1.167
									c0-0.639-0.507-1.165-1.146-1.165h-4.182V18.233l4.885,3.157c0.196,0.125,0.425,0.19,0.633,0.19
									c0.386,0,0.766-0.19,0.976-0.534C50.156,20.508,50.005,19.794,49.467,19.438z M41.005,41.836h-32V16.727L25.002,6.375
									l16.003,10.351V41.836z"/>
							</g>
						</g>
					</g>
				</g>
			</g>
		</g>
	</g>
</g>
</svg>
