<?xml version="1.0" encoding="UTF-8"?>
<svg width="50px" height="50px" viewBox="0 0 50 50" version="1.1" xmlns="http://www.w3.org/2000/svg" xmlns:xlink="http://www.w3.org/1999/xlink">
    <!-- Generator: Sketch 48.2 (47327) - http://www.bohemiancoding.com/sketch -->
    <title>Artboard 4</title>
    <desc>Created with Sketch.</desc>
    <defs></defs>
    <g id="Symbols" stroke="none" stroke-width="1" fill="none" fill-rule="evenodd">
        <g id="Artboard-4" fill="#212E43" fill-rule="nonzero">
            <g id="Group" transform="translate(1.000000, 9.000000)">
                <path d="M46.0139273,13.1610422 C47.5951492,15.0071138 47.5951492,17.762117 46.0139273,19.6081886 C38.3089792,28.5700187 30.6860325,32.1153846 23.999974,32.1153846 C17.3139154,32.1153846 9.69096866,28.5700187 1.98560382,19.6077029 C0.404798728,17.762117 0.404798728,15.0071138 1.98602057,13.1610422 C9.69096866,4.19921211 17.3139154,0.653846154 23.999974,0.653846154 C30.6860325,0.653846154 38.3089792,4.19921211 46.0139273,13.1610422 Z M43.5787639,17.434442 C44.0929549,16.8340502 44.0929549,15.9351805 43.5787639,15.3347888 C37.9448234,8.7870986 31.0881827,3.95194913 24,3.95194913 C16.9118173,3.95194913 10.0551766,8.7870986 4.42175643,15.3341826 C3.90704512,15.9351805 3.90704512,16.8340502 4.42123609,17.434442 C10.0551766,23.9821322 16.9118173,28.8172816 24,28.8172816 C31.0881827,28.8172816 37.9448234,23.9821322 43.5787639,17.434442 Z" id="Shape"></path>
                <path d="M24.2987162,7.92311007 C26.5179031,7.91718939 28.6476541,8.80119944 30.2203527,10.3806628 C31.7930513,11.9601263 32.679869,14.1056604 32.6857154,16.3461852 C32.685651,20.9923054 28.9593598,24.7609786 24.3574945,24.7691295 C19.7556292,24.7772803 16.0162638,21.0218305 16.0000529,16.3757391 C15.983842,11.7296477 19.6969082,7.94769272 24.2987162,7.92311007 Z M24.3029968,21.9402046 C25.7773744,21.9466163 27.1947238,21.360491 28.241708,20.3109899 C29.2886922,19.2614889 29.8793806,17.8347495 29.883599,16.3461875 C29.8835199,13.2619536 27.4109015,10.7596741 24.3560499,10.752331 C21.3011983,10.7449879 18.8168063,13.235352 18.802181,16.3195506 C18.7875557,19.4037491 21.2482156,21.9180159 24.3029968,21.9402046 Z" id="Shape"></path>
            </g>
        </g>
    </g>
</svg>