<?xml version="1.0" encoding="UTF-8"?>
<svg width="50px" height="50px" viewBox="0 0 50 50" version="1.1" xmlns="http://www.w3.org/2000/svg" xmlns:xlink="http://www.w3.org/1999/xlink">
    <!-- Generator: Sketch 48.2 (47327) - http://www.bohemiancoding.com/sketch -->
    <title>Artboard</title>
    <desc>Created with Sketch.</desc>
    <defs></defs>
    <g id="2018011811" stroke="none" stroke-width="1" fill="none" fill-rule="evenodd">
        <g id="Artboard" fill="#F5A623" fill-rule="nonzero">
            <path d="M39.5018023,48.807 C40.0338023,48.754 40.5168023,48.5 40.8148023,48.067 C41.1128023,47.634 41.2538023,47.132 41.1608023,46.602 L38.7178023,31.71 L49.4168023,21.093 C49.9458023,20.598 50.1378023,19.841 49.8998023,19.139 C49.6958023,18.453 49.0748023,17.943 48.3808023,17.841 L33.4848023,15.568 L26.7068023,2.069 C26.3798023,1.413 25.7268023,1 24.9968023,1 C24.2678023,1 23.6068023,1.413 23.2868023,2.069 L16.5258023,15.568 L1.61180235,17.841 C0.901802349,17.943 0.314802349,18.453 0.0938023494,19.139 C-0.127197651,19.841 0.0478023494,20.597 0.560802349,21.093 L11.2758023,31.71 L8.83280235,46.602 C8.71080235,47.331 9.00480235,48.061 9.59280235,48.463 C10.1798023,48.899 10.9618023,48.949 11.6168023,48.608 L24.9968023,41.674 L38.3768023,48.608 C38.7198023,48.799 39.1118023,48.856 39.5018023,48.807 Z" id="Shape-Copy-3"></path>
        </g>
    </g>
</svg>