<?xml version="1.0" encoding="utf-8"?>
<!-- Generator: Adobe Illustrator 15.1.0, SVG Export Plug-In . SVG Version: 6.00 Build 0)  -->
<!DOCTYPE svg PUBLIC "-//W3C//DTD SVG 1.1//EN" "http://www.w3.org/Graphics/SVG/1.1/DTD/svg11.dtd">
<svg version="1.1" id="Layer_1" xmlns="http://www.w3.org/2000/svg" xmlns:xlink="http://www.w3.org/1999/xlink" x="0px" y="0px"
	 width="50px" height="50px" viewBox="0 0 50 50" enable-background="new 0 0 50 50" xml:space="preserve">
<g id="My-Account-desktop">
	<g id="_x30_1_x5F_Dashboard" transform="translate(-147.000000, -255.000000)">
		<g id="Menu" transform="translate(125.000000, 180.000000)">
			<g id="Group-4" transform="translate(21.000000, 62.000000)">
				<g id="User" transform="translate(2.000000, 14.000000)">
					<path id="Shape" stroke="#010101" stroke-width="0.3" d="M22.922,26.146c7.186,0,13.039-5.76,13.039-12.862
						S30.107,0.467,22.922,0.467c-7.219,0-13.056,5.76-13.056,12.816C9.866,20.34,15.703,26.146,22.922,26.146z M22.922,3.83
						c5.275,0,9.58,4.251,9.58,9.453s-4.305,9.47-9.58,9.47c-5.293,0-9.614-4.268-9.614-9.47S17.629,3.83,22.922,3.83z"/>
					<path id="Shape_1_" stroke="#010101" stroke-width="0.3" d="M0.76,47.533h46.48c0.979,0,1.76-0.729,1.76-1.616
						c0-8.536-7.518-15.514-16.795-15.514H15.794C6.547,30.403-1,37.335-1,45.917C-1,46.805-0.219,47.533,0.76,47.533z
						 M15.794,33.67h16.411c6.736,0,12.295,4.632,13.136,10.598H2.659C3.516,38.348,9.058,33.67,15.794,33.67z"/>
				</g>
			</g>
		</g>
	</g>
</g>
</svg>
