<?xml version="1.0" standalone="no"?>
<!DOCTYPE svg PUBLIC "-//W3C//DTD SVG 1.1//EN" "http://www.w3.org/Graphics/SVG/1.1/DTD/svg11.dtd" >
<svg xmlns="http://www.w3.org/2000/svg">
<metadata>
Created by FontPrep 20130207 at Mon Apr 20 11:10:14 2015
 By Admin
Copyright (c) 2004 - 2007 Linotype GmbH, www.linotype.com. All rights reserved.
</metadata>
<defs>
<font id="5ff54762f5b331a06e3ae1fbf17e8ff4" horiz-adv-x='1024' >
  <font-face 
    font-family="AvenirNext-Medium"
    font-weight="500"
    font-stretch="normal"
    units-per-em="2048"
    panose-1="2 11 6 3 2 2 2 2 2 4"
    ascent="1638"
    descent="-410"
    x-height="971"
    cap-height="1450"
    bbox="-901 -891 2804 2456"
    underline-thickness="102"
    underline-position="-102"
    unicode-range="U+000D-FE48"
  />
<missing-glyph horiz-adv-x="1048" 
d="M1049 1470v-1470h-1049v1470h1049zM946 102v1264h-844v-1264h844zM524 1145q-64 0 -109 -45q-46 -45 -59 -150l-102 17q14 147 90 214t186 67t183 -74q72 -72 71 -195q0 -66 -26 -120t-102 -124q-77 -69 -89 -109t-12 -147h-94l-4 35q0 115 27 167t92 116t84 99
q20 35 20 92t-46 107t-110 50zM455 240v137h114v-137h-114z" />
    <glyph glyph-name="IJ" unicode="IJ" horiz-adv-x="1552" 
d="M1186 453v997h203v-1006q0 -316 -204 -434q-81 -47 -227 -47t-251 86q-104 86 -138 221l189 54q16 -78 71 -129t138 -52q219 0 219 310zM379 0h-203v1450h203v-1450z" />
    <glyph glyph-name="ij" unicode="ij" horiz-adv-x="1054" 
d="M918 1321q0 -53 -38 -88t-92 -35t-91 36q-38 36 -38 88t38 88t91 36q54 0 92 -36t38 -89zM692 -119v1090h193v-1096q0 -259 -158 -337q-61 -30 -129 -30t-139 13l20 164q146 -36 189 50q24 48 24 146zM393 1321q0 -53 -38 -88t-91 -35t-90 36t-37 88t37 88t90 36t91 -36
t38 -89zM360 0h-192v971h192v-971z" />
    <glyph glyph-name="napostrophe" unicode="&#x22;n" horiz-adv-x="1232" 
d="M137 1061h-162l131 389h191zM389 811h6q37 79 122 133q86 53 187 53q182 0 277 -111q94 -111 92 -284v-602h-192v539q0 297 -222 297q-115 0 -187 -87t-73 -233v-516h-192v762q0 113 -8 209h182q8 -74 8 -160z" />
    <glyph glyph-name="fi" unicode="fi" horiz-adv-x="1175" 
d="M1038 1321q0 -53 -38 -88t-91 -35t-90 36t-37 88t37 88t90 36t91 -36t38 -89zM1006 0h-193v971h193v-971zM563 1407q-135 0 -160 -146q-6 -42 -6 -87v-203h226v-158h-226v-813h-192v813h-193v158h193v203q0 279 195 368q69 31 153 31t135 -14l-22 -166q-54 14 -103 14z
" />
    <glyph glyph-name="fl" unicode="fl" horiz-adv-x="1175" 
d="M563 1407q-135 0 -160 -146q-6 -42 -6 -87v-203h226v-158h-226v-813h-192v813h-193v158h193v203q0 279 195 368q69 31 153 31t135 -14l-22 -166q-54 14 -103 14zM1006 0h-193v1548h193v-1548z" />
    <glyph glyph-name=".notdef" horiz-adv-x="1048" 
d="M1049 1470v-1470h-1049v1470h1049zM946 102v1264h-844v-1264h844zM524 1145q-64 0 -109 -45q-46 -45 -59 -150l-102 17q14 147 90 214t186 67t183 -74q72 -72 71 -195q0 -66 -26 -120t-102 -124q-77 -69 -89 -109t-12 -147h-94l-4 35q0 115 27 167t92 116t84 99
q20 35 20 92t-46 107t-110 50zM455 240v137h114v-137h-114z" />
    <glyph glyph-name=".null" horiz-adv-x="1024" 
 />
    <glyph glyph-name=".null" horiz-adv-x="1024" 
 />
    <glyph glyph-name="nonmarkingreturn" unicode="&#xd;" horiz-adv-x="0" 
 />
    <glyph glyph-name="space" unicode=" " horiz-adv-x="512" 
 />
    <glyph glyph-name="exclam" unicode="!" horiz-adv-x="684" 
d="M479 124q0 -54 -39 -95t-97 -41t-98 40t-40 94t39 94t98 40t98 -39t39 -93zM442 424h-202v1026h202v-1026z" />
    <glyph glyph-name="quotedbl" unicode="&#x22;" horiz-adv-x="866" 
d="M514 1450h168v-512h-168v512zM184 1450h168v-512h-168v512z" />
    <glyph glyph-name="numbersign" unicode="#" horiz-adv-x="1175" 
d="M453 582h241l39 288h-239zM84 432v150h217l39 288h-201v150h223l60 430h153l-61 -430h242l59 430h154l-62 -430h185v-150h-205l-41 -288h190v-150h-209l-61 -432h-154l62 432h-242l-61 -432h-152l62 432h-197z" />
    <glyph glyph-name="dollar" unicode="$" horiz-adv-x="1218" 
d="M324 1090q0 -100 60 -153q60 -52 157 -81v457q-89 -7 -153 -65t-64 -158zM874 378q0 107 -65 165q-66 57 -164 90v-492q94 4 162 67q67 63 67 170zM129 1072q0 176 121 285q121 108 291 116v143h104v-141q106 -2 216 -40t188 -116l-140 -129q-47 59 -119 90t-145 33v-488
q78 -27 155 -59q271 -114 271 -377q0 -186 -121 -297t-305 -115v-147h-104v147q-279 8 -457 203l149 127q48 -69 136 -117q88 -47 172 -49v521q-80 23 -155 54q-155 66 -222 196q-35 68 -35 160z" />
    <glyph glyph-name="percent" unicode="%" horiz-adv-x="1781" 
d="M518 -66l-139 68l889 1514l137 -68zM584 1249q-55 54 -136 55q-82 0 -138 -56t-56 -137t56 -136t136 -55t137 56q56 56 56 137q0 82 -55 136zM190 1368q107 107 257 107t256 -107t106 -256t-107 -256t-257 -107q-149 1 -255 107t-106 255t106 257zM1335 530
q-80 0 -136 -56t-56 -137t55 -136q55 -54 137 -55q81 -1 137 56t56 137t-56 136q-56 55 -137 55zM973 338q0 150 107 257t257 106t256 -107q105 -106 105 -256q0 -149 -107 -256t-256 -107q-149 1 -255 107t-107 256z" />
    <glyph glyph-name="ampersand" unicode="&#x26;" horiz-adv-x="1480" 
d="M537 680q-105 -45 -169 -113t-64 -178t78 -180q79 -70 187 -71t181 45q72 46 131 136zM834 1143q0 78 -52 131t-136 53q-83 0 -138 -53t-55 -127t39 -140q39 -65 104 -124q238 106 238 260zM424 805q-166 171 -166 327q0 94 32 158q64 131 210 175q70 22 146 22
q157 0 265 -91q109 -91 109 -249q0 -240 -311 -383l288 -297l183 307h225l-279 -432l332 -342h-268l-180 190q-173 -216 -412 -216q-346 -1 -462 234q-38 77 -38 177q0 268 326 420z" />
    <glyph glyph-name="quotesingle" unicode="'" horiz-adv-x="536" 
d="M184 1450h168v-512h-168v512z" />
    <glyph glyph-name="parenleft" unicode="(" horiz-adv-x="645" 
d="M244 590q0 -225 72 -439t192 -382l-139 -91q-135 182 -217 418t-82 494t82 494t217 417l139 -90q-120 -168 -192 -382t-72 -439z" />
    <glyph glyph-name="parenright" unicode=")" horiz-adv-x="645" 
d="M401 590q0 225 -71 439q-72 214 -193 382l139 90q136 -182 218 -418q82 -235 82 -493t-82 -494t-218 -418l-139 91q121 168 193 382q71 214 71 439z" />
    <glyph glyph-name="asterisk" unicode="*" horiz-adv-x="929" 
d="M373 1450h164v-264l260 84l55 -156l-260 -84l166 -223l-131 -98l-172 231l-172 -231l-131 98l165 223l-260 84l56 156l260 -84v264z" />
    <glyph glyph-name="plus" unicode="+" horiz-adv-x="1363" 
d="M766 705h455v-168h-455v-455h-168v455h-455v168h455v454h168v-454z" />
    <glyph glyph-name="comma" unicode="," horiz-adv-x="532" 
d="M233 -272h-163l141 512h192z" />
    <glyph glyph-name="hyphen" unicode="-" horiz-adv-x="655" 
d="M565 418h-475v164h475v-164z" />
    <glyph glyph-name="period" unicode="." horiz-adv-x="532" 
d="M266 256q59 0 98 -39t39 -93q-1 -54 -39 -95t-96 -41t-99 40q-40 40 -40 94t39 94t98 40z" />
    <glyph glyph-name="slash" unicode="/" horiz-adv-x="778" 
d="M141 -68l-145 50l629 1538l145 -54z" />
    <glyph glyph-name="zero" unicode="0" horiz-adv-x="1218" 
d="M844 1115q-76 206 -237 206q-160 0 -233 -206q-54 -151 -57 -390q0 -385 146 -536q57 -58 146 -58q159 0 235 205q57 152 57 389q0 236 -57 390zM610 1487q128 1 222 -59q183 -116 243 -406q29 -139 29 -298q0 -334 -123 -547q-123 -212 -370 -213t-373 212
q-125 213 -124 550q1 336 124 549q123 212 372 212z" />
    <glyph glyph-name="one" unicode="1" horiz-adv-x="1218" 
d="M776 0h-198v1208l-275 -229l-117 137l412 334h178v-1450z" />
    <glyph glyph-name="two" unicode="2" horiz-adv-x="1218" 
d="M1069 0h-946v190l577 574q160 165 160 293t-74 196t-185 68q-109 0 -181 -71t-90 -181l-195 33q24 166 154 276q129 109 316 109t323 -109q135 -109 135 -294t-143 -352q-43 -48 -91 -95l-471 -459h711v-178z" />
    <glyph glyph-name="three" unicode="3" horiz-adv-x="1218" 
d="M436 840h64q222 0 296 125q28 47 28 109q-1 119 -78 181q-77 66 -174 66q-189 0 -259 -178l-180 63q53 131 171 206t288 75t300 -104t130 -289q0 -119 -72 -210t-184 -120v-4q130 -25 213 -122q82 -97 82 -219t-41 -205q-79 -160 -264 -222q-88 -29 -181 -29
q-172 0 -303 78t-190 242l184 61q33 -94 112 -154t197 -59q118 0 203 74q86 74 85 208t-119 204q-96 59 -246 59h-62v164z" />
    <glyph glyph-name="four" unicode="4" horiz-adv-x="1218" 
d="M731 1223h-4l-459 -727h463v727zM924 496h209v-170h-209v-326h-193v326h-668v180l617 944h244v-954z" />
    <glyph glyph-name="five" unicode="5" horiz-adv-x="1218" 
d="M1004 1450v-176h-598l-13 -381q72 24 181 26q110 1 199 -31q184 -66 255 -236q37 -84 37 -194q0 -218 -144 -357q-144 -138 -362 -138q-170 0 -287 79t-176 212l180 72q35 -88 110 -142q76 -54 156 -53q144 0 233 88t88 234t-96 226q-95 79 -252 80q-156 1 -314 -79
l20 770h783z" />
    <glyph glyph-name="six" unicode="6" horiz-adv-x="1218" 
d="M307 440q0 -132 85 -220q85 -89 216 -89t216 88t84 219t-82 219t-216 86q-68 0 -124 -22q-114 -46 -158 -160q-22 -55 -21 -121zM1108 438q0 -206 -143 -342q-144 -133 -358 -133t-358 135q-143 135 -143 342q0 119 39 215t103 197l379 598h235l-389 -584l2 -4
q67 39 171 39q201 0 331 -128q131 -129 131 -335z" />
    <glyph glyph-name="seven" unicode="7" horiz-adv-x="1218" 
d="M131 1274v176h924v-180l-582 -1270h-227l604 1274h-719z" />
    <glyph glyph-name="eight" unicode="8" horiz-adv-x="1218" 
d="M326 405q0 -59 20 -111q40 -102 152 -146q113 -43 222 0q109 42 151 145q22 51 22 111q0 115 -78 195q-78 79 -205 81q-61 0 -113 -21q-105 -40 -149 -144q-22 -50 -22 -110zM373 1086q-1 -104 67 -170t168 -66t169 67q68 67 70 169q1 101 -68 169t-172 68
q-103 -1 -169 -67q-65 -66 -65 -170zM1096 379q0 -86 -39 -166q-76 -157 -260 -220q-89 -30 -187 -30t-187 30q-186 63 -261 220q-39 80 -39 167q0 228 169 336q50 32 105 48v4q-98 35 -160 119q-63 83 -63 189q-1 188 126 300q126 111 309 111q184 0 310 -109t125 -282
q0 -119 -62 -207t-161 -121v-4q57 -14 108 -48q167 -114 167 -337z" />
    <glyph glyph-name="nine" unicode="9" horiz-adv-x="1218" 
d="M913 1010q0 132 -85 222q-85 89 -215 89q-131 0 -217 -87t-85 -219q0 -133 82 -222q84 -88 218 -87q135 1 219 87q83 85 83 217zM572 549q-105 0 -187 34q-168 70 -240 238q-35 84 -35 188q1 211 144 345q144 133 358 133t357 -134t143 -343q0 -119 -39 -215t-100 -197
l-379 -598h-236l390 586l-3 2q-68 -39 -173 -39z" />
    <glyph glyph-name="colon" unicode=":" horiz-adv-x="614" 
d="M307 256q59 0 98 -39t39 -93t-38 -95t-98 -41q-58 0 -98 40t-40 94t39 94t98 40zM307 983q59 0 98 -40t39 -94t-38 -94t-98 -40q-58 0 -98 39t-40 93t39 95t98 41z" />
    <glyph glyph-name="semicolon" unicode=";" horiz-adv-x="614" 
d="M252 -272h-164l141 512h193zM307 983q59 0 98 -40t39 -94t-38 -94t-98 -40q-58 0 -98 39t-40 93t39 95t98 41z" />
    <glyph glyph-name="less" unicode="&#x3c;" horiz-adv-x="1363" 
d="M1206 981l-788 -360l784 -361v-174l-1040 473v123l1044 473v-174z" />
    <glyph glyph-name="equal" unicode="=" horiz-adv-x="1363" 
d="M1221 535v-166h-1078v166h1078zM1221 872v-165h-1078v165h1078z" />
    <glyph glyph-name="greater" unicode="&#x3e;" horiz-adv-x="1363" 
d="M162 1155l1040 -473v-123l-1040 -473v174l784 361l-784 360v174z" />
    <glyph glyph-name="question" unicode="?" horiz-adv-x="1024" 
d="M530 256q58 0 98 -39t40 -93t-39 -95t-97 -41t-99 40q-40 40 -40 94t39 94t98 40zM616 412h-192v98q0 142 87 241q28 32 62 64l76 72q45 39 75 85t30 131t-62 143t-164 58q-100 0 -161 -65q-61 -66 -72 -160l-197 23q24 174 146 277q122 102 298 102t297 -101t120 -273
q-1 -171 -117 -284q-37 -35 -104 -92t-94 -103q-26 -47 -28 -145v-71z" />
    <glyph glyph-name="at" unicode="@" horiz-adv-x="1638" 
d="M68 722q0 326 229 546q107 102 249 160t292 58q310 1 523 -170q212 -172 214 -487q0 -235 -117 -369t-284 -132q-86 0 -133 42q-46 42 -46 101h-10q-48 -93 -163 -130q-40 -13 -89 -13q-139 0 -217 93t-78 258t114 305t292 140q78 0 133 -34t74 -82h4l18 86h156l-80 -385
q-33 -157 -7 -209q14 -28 64 -29q93 -1 151 95t58 236q0 262 -157 401t-418 137q-261 -1 -427 -177q-167 -176 -167 -448t172 -438t448 -166q174 0 300 54t231 152l94 -108q-232 -244 -641 -246q-352 0 -567 213q-103 100 -159 240t-56 306zM995 782q0 197 -156 197
q-99 0 -163 -107q-56 -90 -57 -212t73 -168q29 -18 83 -18q101 -1 168 109q52 85 52 199z" />
    <glyph glyph-name="A" unicode="A" horiz-adv-x="1456" 
d="M453 535h542l-270 679zM236 0h-226l629 1450h184l623 -1450h-229l-148 356h-688z" />
    <glyph glyph-name="B" unicode="B" horiz-adv-x="1314" 
d="M379 172h254q244 0 329 128q32 48 31 122q0 129 -88 186t-254 58h-272v-494zM928 1063q0 217 -318 217h-231v-442h264q197 0 262 124q23 42 23 101zM176 1450h500q194 0 310 -80q146 -96 144 -287q0 -121 -70 -203t-183 -112v-4q142 -16 233 -111q90 -94 88 -241
q0 -203 -155 -307q-155 -105 -390 -105h-477v1450z" />
    <glyph glyph-name="C" unicode="C" horiz-adv-x="1449" 
d="M880 -37q-348 0 -562 214t-216 550q0 170 59 310q116 280 406 395q141 55 307 55q248 0 422 -128q57 -42 99 -97l-160 -123q-53 74 -151 122t-217 48q-120 0 -221 -46q-203 -93 -284 -312q-38 -105 -38 -226q1 -249 149 -416q149 -166 400 -166t384 193l162 -111
q-86 -117 -223 -189q-136 -72 -316 -73z" />
    <glyph glyph-name="D" unicode="D" horiz-adv-x="1558" 
d="M379 178h254q270 0 438 146t168 405t-168 402t-438 143h-254v-1096zM176 1450h498q312 0 530 -170q252 -196 252 -555q0 -187 -70 -323t-182 -225t-252 -133q-139 -44 -278 -44h-498v1450z" />
    <glyph glyph-name="E" unicode="E" horiz-adv-x="1230" 
d="M379 180h758v-180h-961v1450h930v-178h-727v-434h684v-174h-684v-484z" />
    <glyph glyph-name="F" unicode="F" horiz-adv-x="1163" 
d="M379 0h-203v1450h905v-178h-702v-451h657v-174h-657v-647z" />
    <glyph glyph-name="G" unicode="G" horiz-adv-x="1593" 
d="M878 1487q170 0 306 -51t227 -138l-141 -147q-66 72 -167 115t-227 43t-228 -46q-204 -92 -286 -312q-38 -105 -38 -225q1 -247 152 -414t407 -167q206 0 338 72v404h-322v172h522v-703q-239 -127 -563 -127q-323 0 -538 213q-216 213 -218 551q0 170 59 310
q116 280 406 395q141 55 311 55z" />
    <glyph glyph-name="H" unicode="H" horiz-adv-x="1492" 
d="M176 1450h203v-606h733v606h205v-1450h-205v664h-733v-664h-203v1450z" />
    <glyph glyph-name="I" unicode="I" horiz-adv-x="555" 
d="M379 0h-203v1450h203v-1450z" />
    <glyph glyph-name="J" unicode="J" horiz-adv-x="1013" 
d="M647 453v997h203v-1006q0 -316 -204 -434q-82 -47 -228 -47t-250 86t-137 221l188 54q15 -78 71 -129t130 -51q184 -1 217 189q10 56 10 120z" />
    <glyph glyph-name="K" unicode="K" horiz-adv-x="1349" 
d="M379 811h4l647 639h281l-705 -664l748 -786h-291l-680 750h-4v-750h-203v1450h203v-639z" />
    <glyph glyph-name="L" unicode="L" horiz-adv-x="1046" 
d="M379 180h647v-180h-850v1450h203v-1270z" />
    <glyph glyph-name="M" unicode="M" horiz-adv-x="1849" 
d="M1673 1450v-1450h-203v1212h-4l-481 -1212h-129l-479 1212h-4v-1212h-197v1450h316l434 -1114h4l428 1114h315z" />
    <glyph glyph-name="N" unicode="N" horiz-adv-x="1581" 
d="M1202 291v1159h203v-1450h-256l-766 1184h-4v-1184h-203v1450h264l758 -1159h4z" />
    <glyph glyph-name="O" unicode="O" 
d="M1419 726q0 241 -152 412t-398 171t-398 -171q-151 -171 -150 -414q1 -244 153 -412q152 -167 394 -167q125 0 228 45q204 92 284 310q38 106 39 226zM1638 728q0 -334 -218 -550q-218 -215 -551 -215q-334 0 -549 213q-216 213 -218 551q0 170 58 310q114 281 402 395
q140 55 306 55t308 -55q286 -110 404 -394q58 -140 58 -310z" />
    <glyph glyph-name="P" unicode="P" horiz-adv-x="1218" 
d="M932 1047q0 231 -334 231h-219v-469h215q338 0 338 238zM176 1450h442q374 0 482 -221q37 -75 37 -183q0 -208 -147 -310q-147 -101 -382 -99h-229v-637h-203v1450z" />
    <glyph glyph-name="Q" unicode="Q" horiz-adv-x="1732" 
d="M470 339q148 -161 385 -161t386 162q150 162 150 403q0 240 -148 403t-384 163q-237 0 -391 -167q-146 -158 -146 -400t148 -403zM1708 0h-852q-332 0 -542 202t-212 541q0 164 58 300q116 276 396 389q138 55 301 55q325 0 537 -208t214 -536q0 -195 -82 -340t-217 -229
v-4h399v-170z" />
    <glyph glyph-name="R" unicode="R" horiz-adv-x="1257" 
d="M379 815h233q238 0 314 124q27 44 26 110q0 120 -88 175q-88 54 -237 54h-248v-463zM379 0h-203v1450h465q225 0 371 -95q145 -95 145 -306q0 -160 -98 -258t-254 -125l405 -666h-245l-369 645h-217v-645z" />
    <glyph glyph-name="S" unicode="S" horiz-adv-x="1165" 
d="M636 1317q-135 0 -221 -62q-85 -62 -83 -174q0 -150 181 -214q54 -19 122 -41q67 -22 143 -50q163 -61 238 -193q39 -71 39 -182q0 -211 -147 -325q-147 -113 -355 -113q-137 0 -265 53t-212 158l157 133q51 -76 137 -123t162 -47q210 0 289 136q27 46 27 112
q0 118 -103 184q-62 41 -186 79q-125 38 -193 68q-240 106 -239 357q0 202 159 316q136 98 339 98q127 0 237 -45t178 -121l-143 -139q-43 59 -117 97t-144 38z" />
    <glyph glyph-name="T" unicode="T" horiz-adv-x="1165" 
d="M684 0h-203v1272h-465v178h1133v-178h-465v-1272z" />
    <glyph glyph-name="U" unicode="U" horiz-adv-x="1458" 
d="M729 -37q-143 0 -249 48q-211 95 -280 312q-34 103 -34 214v913h203v-901q0 -273 189 -369q69 -35 170 -35q189 0 283 127q77 104 79 277v901h202v-913q0 -237 -137 -398q-154 -176 -426 -176z" />
    <glyph glyph-name="V" unicode="V" horiz-adv-x="1314" 
d="M657 262h7l436 1188h219l-569 -1450h-189l-565 1450h225z" />
    <glyph glyph-name="W" unicode="W" horiz-adv-x="2023" 
d="M559 295h4l340 1155h223l338 -1155h4l320 1155h215l-426 -1450h-211l-352 1165h-4l-353 -1165h-211l-426 1450h220z" />
    <glyph glyph-name="X" unicode="X" horiz-adv-x="1368" 
d="M684 909l344 541h238l-463 -686l526 -764h-256l-397 610l-389 -610h-250l518 768l-467 682h248z" />
    <glyph glyph-name="Y" unicode="Y" horiz-adv-x="1277" 
d="M741 0h-204v627l-543 823h250l401 -655l404 655h235l-543 -823v-627z" />
    <glyph glyph-name="Z" unicode="Z" horiz-adv-x="1212" 
d="M1145 180v-180h-1077v178l817 1094h-801v178h1049v-178l-820 -1092h832z" />
    <glyph glyph-name="bracketleft" unicode="[" horiz-adv-x="645" 
d="M483 1364h-190v-1548h190v-135h-362v1818h362v-135z" />
    <glyph glyph-name="backslash" unicode="\" horiz-adv-x="778" 
d="M8 1466l144 54l630 -1538l-145 -50z" />
    <glyph glyph-name="bracketright" unicode="]" horiz-adv-x="645" 
d="M162 -184h190v1548h-190v135h362v-1818h-362v135z" />
    <glyph glyph-name="asciicircum" unicode="^" horiz-adv-x="1363" 
d="M614 1450h136l462 -817h-186l-346 614l-342 -614h-186z" />
    <glyph glyph-name="underscore" unicode="_" horiz-adv-x="1024" 
d="M0 -154h1024v-129h-1024v129z" />
    <glyph glyph-name="grave" unicode="`" horiz-adv-x="512" 
d="M-70 1450h232l205 -295h-158z" />
    <glyph glyph-name="a" unicode="a" horiz-adv-x="1110" 
d="M723 463q-187 -1 -268 -25q-82 -24 -123 -61t-41 -89t17 -81q47 -80 181 -80q135 0 208 81t73 204v51h-47zM94 274q0 282 432 318q121 10 244 10v27q0 109 -65 161t-161 52q-176 0 -290 -113l-102 123q154 145 397 145q201 0 304 -107t101 -274v-423q0 -135 15 -193h-174
q-16 70 -17 139h-6q-111 -164 -326 -164q-135 0 -233 66q-119 82 -119 233z" />
    <glyph glyph-name="b" unicode="b" horiz-adv-x="1302" 
d="M1001 487q0 146 -85 248q-85 103 -233 103q-147 0 -240 -105t-93 -247t92 -247q92 -104 239 -104q146 0 233 103t87 249zM356 154v-154h-186v1548h192v-723h7q49 72 137 122t203 50q219 0 355 -146t136 -363t-134 -366t-355 -149q-105 0 -199 46t-152 135h-4z" />
    <glyph glyph-name="c" unicode="c" horiz-adv-x="1011" 
d="M102 485q0 227 148 371q148 143 371 141q102 0 203 -41t161 -118l-139 -113q-31 47 -92 79t-134 32q-74 0 -132 -29q-119 -59 -161 -189q-22 -63 -22 -133q0 -143 87 -247q87 -103 234 -103t232 107l129 -117q-129 -152 -358 -152t-378 142q-149 143 -149 370z" />
    <glyph glyph-name="d" unicode="d" horiz-adv-x="1300" 
d="M388 238q87 -104 232 -103q145 0 239 104q93 104 92 246q-1 141 -93 247t-239 106t-232 -102q-86 -102 -86 -248t87 -250zM586 -27q-216 0 -351 149t-135 365t135 363t353 147q119 0 207 -50t139 -122h4v723h192v-1548h-186v154h-4q-55 -88 -150 -134t-204 -47z" />
    <glyph glyph-name="e" unicode="e" horiz-adv-x="1173" 
d="M614 -27q-223 0 -367 142q-145 142 -145 369q0 226 144 370t360 143q217 0 341 -137t124 -366v-33q0 -16 -2 -33h-770q4 -122 96 -209q92 -86 204 -86q200 0 298 148l135 -109q-151 -197 -418 -199zM608 846q-125 0 -214 -80q-87 -81 -95 -195h578q-7 189 -155 253
q-50 22 -114 22z" />
    <glyph glyph-name="f" unicode="f" horiz-adv-x="634" 
d="M563 1407q-135 0 -160 -146q-6 -42 -6 -87v-203h226v-158h-226v-813h-192v813h-193v158h193v203q0 279 195 368q69 31 153 31t135 -14l-22 -166q-54 14 -103 14z" />
    <glyph glyph-name="g" unicode="g" horiz-adv-x="1294" 
d="M301 497q0 -139 85 -239q95 -106 239 -105t237 100q92 99 91 242t-95 243t-235 100q-76 0 -136 -28q-121 -58 -165 -182q-22 -62 -21 -131zM594 -324q344 0 344 359v125h-4q-54 -82 -146 -125t-200 -43q-216 0 -351 145t-135 356t135 358q135 146 353 146q104 0 200 -45
t150 -137h4v156h186v-922q0 -375 -282 -495q-102 -46 -242 -46t-267 46q-128 46 -220 131l123 149q63 -72 158 -115q96 -43 194 -43z" />
    <glyph glyph-name="h" unicode="h" horiz-adv-x="1196" 
d="M844 537q0 297 -219 297q-115 0 -189 -88t-74 -232v-514h-192v1548h192v-725h5q35 72 118 123t183 51q183 0 277 -111q93 -111 91 -284v-602h-192v537z" />
    <glyph glyph-name="i" unicode="i" horiz-adv-x="530" 
d="M393 1321q0 -53 -38 -88t-91 -35t-90 36t-37 88t37 88t90 36t91 -36t38 -89zM360 0h-192v971h192v-971z" />
    <glyph glyph-name="j" unicode="j" horiz-adv-x="532" 
d="M395 1321q0 -53 -38 -88t-91 -35t-91 36t-38 88t38 88t91 36t91 -36t38 -89zM170 -119v1090h192v-1096q0 -167 -61 -256q-76 -111 -254 -111q-38 0 -110 13l20 164q100 -24 148 5q47 29 60 110q5 38 5 81z" />
    <glyph glyph-name="k" unicode="k" horiz-adv-x="1079" 
d="M362 549h7l407 422h258l-454 -441l493 -530h-266l-438 504h-7v-504h-192v1548h192v-999z" />
    <glyph glyph-name="l" unicode="l" horiz-adv-x="532" 
d="M362 0h-192v1548h192v-1548z" />
    <glyph glyph-name="m" unicode="m" horiz-adv-x="1816" 
d="M348 811h6q37 78 118 132t192 54q217 0 301 -194q49 94 137 144t187 50q99 1 167 -31q201 -93 201 -364v-602h-193v539q0 203 -110 272q-41 25 -106 25q-120 0 -182 -91t-62 -221v-524h-193v578q0 254 -205 258q-106 0 -177 -87t-71 -233v-516h-192v762q0 113 -8 209h182
q8 -74 8 -160z" />
    <glyph glyph-name="n" unicode="n" horiz-adv-x="1191" 
d="M348 811h6q37 79 122 133q86 53 187 53q182 0 277 -111q94 -111 92 -284v-602h-192v539q0 297 -222 297q-116 0 -188 -87t-72 -233v-516h-192v762q0 113 -8 209h182q8 -74 8 -160z" />
    <glyph glyph-name="o" unicode="o" horiz-adv-x="1249" 
d="M625 838q-79 0 -139 -29q-120 -58 -163 -188q-22 -63 -22 -133q0 -143 87 -248q86 -105 236 -105t237 104t87 249q0 146 -87 248q-88 102 -236 102zM1149 487q0 -222 -150 -368t-375 -146t-373 146q-149 146 -149 368q0 221 149 366q149 144 372 144q224 0 375 -143
q151 -145 151 -367z" />
    <glyph glyph-name="p" unicode="p" horiz-adv-x="1298" 
d="M997 488q0 146 -86 248t-232 102q-147 0 -240 -105t-93 -247t92 -247q92 -104 239 -104q146 -1 233 103t87 250zM358 -492h-192v1463h188v-152h6q46 78 138 128t207 50q219 0 355 -146t136 -363t-134 -366t-355 -149q-105 0 -197 45t-145 127h-7v-637z" />
    <glyph glyph-name="q" unicode="q" horiz-adv-x="1296" 
d="M388 238q87 -104 232 -103q145 0 239 104q93 104 92 246q-1 141 -93 247t-239 106t-232 -102q-86 -102 -86 -248t87 -250zM586 -27q-215 0 -351 149q-135 149 -135 365t135 363t353 147q119 0 210 -50t140 -128h6v152h186v-1463h-192v637h-4q-52 -82 -146 -127t-202 -45z
" />
    <glyph glyph-name="r" unicode="r" horiz-adv-x="741" 
d="M348 807h6q41 86 120 138t177 52q45 0 76 -8l-8 -178q-41 10 -99 10q-120 0 -190 -88t-72 -223v-510h-192v762q0 113 -8 209h182q8 -74 8 -164z" />
    <glyph glyph-name="s" unicode="s" horiz-adv-x="909" 
d="M598 812q-59 34 -135 34t-122 -30q-56 -32 -56 -95t55 -93q56 -30 146 -50q175 -40 261 -107t84 -184q0 -159 -119 -243q-98 -69 -268 -71q-111 0 -216 43t-175 131l137 117q39 -57 108 -96t150 -39q81 -1 121 23q72 43 72 115q0 71 -64 104q-65 33 -152 53t-137 38
t-91 48q-93 70 -93 203t107 208q107 76 236 76q267 0 376 -159l-133 -113q-33 53 -92 87z" />
    <glyph glyph-name="t" unicode="t" horiz-adv-x="673" 
d="M193 813h-187v158h187v278h190v-278h258v-158h-258v-506q0 -88 33 -126t100 -38t117 25l6 -158q-76 -26 -164 -26q-137 0 -210 76t-72 227v526z" />
    <glyph glyph-name="u" unicode="u" horiz-adv-x="1191" 
d="M842 160h-4q-37 -78 -124 -132q-88 -54 -188 -54q-189 -1 -279 111q-91 113 -89 284v602h192v-537q0 -299 221 -299q117 0 189 87t71 233v516h193v-762q0 -113 8 -209h-182q-8 74 -8 160z" />
    <glyph glyph-name="v" unicode="v" horiz-adv-x="1032" 
d="M623 0h-209l-396 971h213l285 -764h4l287 764h205z" />
    <glyph glyph-name="w" unicode="w" horiz-adv-x="1583" 
d="M238 971l219 -742h4l231 742h203l235 -742h5l219 742h202l-321 -971h-201l-239 729h-4l-238 -729h-201l-323 971h209z" />
    <glyph glyph-name="x" unicode="x" horiz-adv-x="1046" 
d="M403 510l-354 461h238l237 -334l240 334h225l-350 -459l391 -512h-239l-271 379l-274 -379h-232z" />
    <glyph glyph-name="y" unicode="y" horiz-adv-x="1032" 
d="M535 209h4l268 762h205l-471 -1200q-54 -132 -107 -179q-139 -123 -356 -69l18 170q49 -17 111 -17q63 0 99 42t67 120l61 162l-416 971h215z" />
    <glyph glyph-name="z" unicode="z" horiz-adv-x="946" 
d="M881 162v-162h-813v158l548 655h-522v158h764v-158l-553 -651h576z" />
    <glyph glyph-name="braceleft" unicode="{" horiz-adv-x="645" 
d="M10 666q61 0 107 43q45 43 45 141v385q0 133 67 199q67 65 174 65h140v-141h-105q-104 0 -104 -148v-374q0 -117 -66 -178t-125 -66v-4q64 -6 106 -44q85 -77 85 -206v-369q0 -104 49 -134q20 -13 55 -13h105v-141h-140q-167 0 -222 143q-19 49 -19 121v377
q0 104 -45 148t-107 44v152z" />
    <glyph glyph-name="bar" unicode="|" horiz-adv-x="454" 
d="M311 1536v-2048h-168v2048h168z" />
    <glyph glyph-name="braceright" unicode="}" horiz-adv-x="645" 
d="M311 1210q0 148 -102 148h-107v141h140q167 0 222 -144q19 -50 19 -120v-385q0 -98 45 -141t107 -43v-152q-61 0 -107 -44t-45 -148v-377q0 -133 -67 -199q-67 -65 -174 -65h-140v141h107q102 0 102 147v369q0 127 74 196q49 44 119 54v4q-61 5 -105 46q-88 79 -88 198
v374z" />
    <glyph glyph-name="asciitilde" unicode="~" horiz-adv-x="1363" 
d="M166 586q120 200 290 200q120 0 217 -62t139 -79q41 -16 87 -16q102 0 178 139l121 -113q-103 -164 -223 -190q-37 -8 -84 -8q-103 0 -225 78q-120 77 -201 77q-102 0 -178 -139z" />
    <glyph glyph-name="uni00A0" unicode="&#xa0;" horiz-adv-x="512" 
 />
    <glyph glyph-name="exclamdown" unicode="&#xa1;" horiz-adv-x="684" 
d="M343 1010q58 0 97 -42t39 -95q0 -54 -39 -93t-98 -39t-98 40q-39 41 -39 95t40 94t98 40zM240 -453v1026h202v-1026h-202z" />
    <glyph glyph-name="cent" unicode="&#xa2;" horiz-adv-x="1218" 
d="M717 -160h-105v137q-200 20 -321 163t-121 348t119 343t323 162v133h105v-131q217 -9 340 -153l-135 -123q-80 102 -205 108v-684q127 4 209 109l131 -123q-126 -145 -340 -154v-135zM360 486q0 -128 66 -222t186 -119v680q-124 -23 -188 -117t-64 -222z" />
    <glyph glyph-name="sterling" unicode="&#xa3;" horiz-adv-x="1218" 
d="M1034 1227q-85 94 -225 94t-210 -119q-50 -85 -50 -221v-168h340v-147h-340v-494h538v-172h-944v172h205v494h-198v147h198v180q0 191 102 329q122 165 367 165q205 0 338 -123z" />
    <glyph glyph-name="currency" unicode="&#xa4;" horiz-adv-x="1218" 
d="M301 573q0 -137 87 -233t225 -95q139 1 226 95t87 230t-86 230q-86 95 -225 95t-227 -93q-87 -92 -87 -229zM1100 576q0 -164 -92 -302l172 -174l-105 -106l-178 174q-122 -88 -281 -87t-288 91l-181 -178l-106 106l176 181q-88 129 -88 288q0 160 82 287l-170 172
l106 105l172 -168q132 92 293 92q160 0 291 -92l170 168l107 -105l-168 -168q88 -120 88 -284z" />
    <glyph glyph-name="yen" unicode="&#xa5;" horiz-adv-x="1218" 
d="M512 467v186h-348v135h297l-434 662h235l356 -602l349 602h225l-426 -662h289v-135h-348v-186h348v-135h-348v-332h-195v332h-348v135h348z" />
    <glyph glyph-name="brokenbar" unicode="&#xa6;" horiz-adv-x="454" 
d="M311 358v-716h-168v716h168zM311 1382v-716h-168v716h168z" />
    <glyph glyph-name="section" unicode="&#xa7;" horiz-adv-x="1218" 
d="M379 658q0 -98 120 -155q36 -17 74 -36l172 -74q47 17 84 59t37 93q0 116 -114 177q-33 17 -68 34l-154 67q-62 -15 -101 -52q-50 -43 -50 -113zM395 915q-141 90 -141 244t117 240t264 87q283 2 393 -183l-145 -107q-29 53 -88 92t-139 39t-142 -41q-61 -41 -61 -119
q0 -113 149 -183q49 -24 166 -73t176 -102q111 -100 111 -229q0 -92 -51 -163t-123 -104q125 -84 125 -250t-123 -257t-275 -91q-152 -1 -271 57q-120 58 -183 177l170 94q34 -84 110 -122t132 -38q163 0 218 90q20 33 20 79q1 86 -68 136q-52 39 -172 91q-120 51 -178 81
q-196 100 -196 262q0 115 60 187t145 106z" />
    <glyph glyph-name="dieresis" unicode="&#xa8;" horiz-adv-x="512" 
d="M328 1322q0 48 36 86t90 38t91 -36t37 -88t-37 -88t-91 -36t-90 38t-36 86zM-70 1322q0 48 36 86t90 38t91 -36t37 -88t-37 -88t-91 -36t-90 38t-36 86z" />
    <glyph glyph-name="copyright" unicode="&#xa9;" horiz-adv-x="1638" 
d="M1055 969q-67 90 -200 90t-221 -92q-87 -94 -86 -234q1 -141 82 -231t219 -90t214 102l125 -88q-124 -156 -337 -156t-344 129q-132 129 -132 338q0 208 138 335q138 126 341 126q149 0 256 -75q37 -26 64 -60zM164 723q0 -135 52 -254t141 -208t209 -140t255 -51t254 51
t208 140t140 208t52 254q0 135 -52 255q-103 243 -348 350q-119 52 -254 52t-255 -52t-209 -141t-141 -209t-52 -255zM41 724q0 161 61 301q125 286 415 410q142 60 303 60t302 -60q288 -122 414 -410q61 -140 61 -301t-61 -301q-125 -287 -414 -409q-141 -59 -302 -59
t-303 59q-141 60 -247 164t-168 244t-61 302z" />
    <glyph glyph-name="ordfeminine" unicode="&#xaa;" horiz-adv-x="778" 
d="M352 977q74 0 113 40t39 109v21h-33q-224 0 -221 -96q0 -74 102 -74zM104 1049q0 196 400 196v15q0 54 -39 80t-94 26q-96 0 -160 -66l-74 89q96 92 241 92t205 -71t60 -175v-352h-137v75h-2q-23 -38 -71 -64t-97 -26t-87 10q-142 36 -145 171z" />
    <glyph glyph-name="guillemotleft" unicode="&#xab;" horiz-adv-x="1024" 
d="M686 500l236 -359l-125 -88l-299 447l299 444l125 -86zM270 500l238 -359l-127 -88l-299 447l299 444l125 -86z" />
    <glyph glyph-name="logicalnot" unicode="&#xac;" horiz-adv-x="1363" 
d="M1221 285h-166v422h-912v165h1078v-587z" />
    <glyph glyph-name="uni00AD" unicode="&#xad;" horiz-adv-x="655" 
d="M565 418h-475v164h475v-164z" />
    <glyph glyph-name="registered" unicode="&#xae;" horiz-adv-x="1228" 
d="M221 1011q0 -162 114 -278q113 -117 279 -117q165 0 280 117q114 117 114 278q0 162 -115 277t-279 115q-82 0 -153 -31q-146 -62 -209 -208q-31 -72 -31 -153zM147 1012q0 193 139 328t330 135t328 -136q137 -137 137 -329q0 -193 -137 -327q-138 -134 -330 -134
q-193 0 -330 135t-137 328zM541 956v-202h-125v524h225q83 0 135 -35q62 -39 64 -129q0 -53 -30 -88t-75 -51l139 -221h-147l-113 202h-73zM637 1047q29 0 53 18t23 50q0 32 -27 46t-49 15h-96v-129h96z" />
    <glyph glyph-name="macron" unicode="&#xaf;" horiz-adv-x="512" 
d="M559 1223h-606v137h606v-137z" />
    <glyph glyph-name="degree" unicode="&#xb0;" horiz-adv-x="819" 
d="M410 971q78 0 132 54t54 134t-53 132t-133 54q-79 1 -132 -53t-54 -133q0 -80 54 -134t132 -54zM184 1382q94 93 226 93q132 -1 224 -93t93 -224q0 -132 -94 -225q-94 -92 -223 -92q-130 1 -224 91t-94 223t92 227z" />
    <glyph glyph-name="plusminus" unicode="&#xb1;" horiz-adv-x="1363" 
d="M143 248h1078v-166h-1078v166zM143 858h457v307h166v-307h455v-166h-455v-301h-166v301h-457v166z" />
    <glyph glyph-name="twosuperior" unicode="&#xb2;" horiz-adv-x="788" 
d="M682 586h-580v137l336 338q33 35 58 73q24 38 24 89t-35 81t-89 30t-91 -39q-37 -38 -47 -101l-152 20q16 113 96 186t195 73q190 0 259 -142q24 -47 24 -123t-44 -136q-44 -62 -99 -116l-234 -229h379v-141z" />
    <glyph glyph-name="threesuperior" unicode="&#xb3;" horiz-adv-x="788" 
d="M293 1102h55q66 0 115 28t49 90q0 60 -37 90t-85 30t-84 -30q-36 -28 -54 -75l-139 47q37 92 111 142q122 81 275 36q105 -29 147 -119q22 -45 22 -109t-37 -114q-37 -49 -90 -71q65 -19 107 -75t42 -128q0 -129 -87 -199t-201 -71q-242 -2 -320 214l145 46
q17 -56 59 -90t99 -34t104 32t47 86t-24 90q-40 57 -164 57h-55v127z" />
    <glyph glyph-name="acute" unicode="&#xb4;" horiz-adv-x="512" 
d="M303 1155h-158l205 295h232z" />
    <glyph glyph-name="mu" unicode="&#xb5;" horiz-adv-x="1183" 
d="M838 160h-4q-37 -78 -124 -132t-197 -54t-167 61v-527h-192v1463h192v-537q0 -299 221 -299q117 0 189 87t71 233v516h193v-762q0 -113 8 -209h-182q-8 74 -8 160z" />
    <glyph glyph-name="paragraph" unicode="&#xb6;" horiz-adv-x="1228" 
d="M1071 -258h-160v1579h-235v-1579h-162v928q-192 0 -313 108t-121 269q0 203 129 303t344 100h518v-1708z" />
    <glyph glyph-name="periodcentered" unicode="&#xb7;" horiz-adv-x="532" 
d="M129 619q0 53 40 95t98 42q59 0 99 -40t40 -94t-39 -96t-99 -41q-60 0 -99 40q-40 40 -40 94z" />
    <glyph glyph-name="cedilla" unicode="&#xb8;" horiz-adv-x="512" 
d="M274 -137h29q80 0 130 -35q61 -39 62 -130t-86 -141q-66 -38 -146 -38q-150 0 -238 47l41 86q76 -35 155 -35t114 43q13 16 13 43q0 75 -110 78q-37 0 -84 -14l-41 40l127 193h102l-94 -141q14 4 26 4z" />
    <glyph glyph-name="onesuperior" unicode="&#xb9;" horiz-adv-x="788" 
d="M506 578h-160v679l-139 -120l-94 104l256 209h137v-872z" />
    <glyph glyph-name="ordmasculine" unicode="&#xba;" horiz-adv-x="778" 
d="M547 1177q0 67 -40 117t-118 49q-78 0 -117 -50q-39 -51 -39 -117t39 -117t117 -51t118 51t40 118zM612 1394q88 -86 88 -217q0 -133 -88 -219t-222 -86q-135 0 -224 86q-90 86 -89 217t89 217t222 87q135 0 224 -85z" />
    <glyph glyph-name="guillemotright" unicode="&#xbb;" horiz-adv-x="1024" 
d="M227 944l299 -444l-299 -447l-125 88l236 359l-236 358zM643 944l299 -444l-299 -447l-127 88l238 359l-236 358z" />
    <glyph glyph-name="onequarter" unicode="&#xbc;" horiz-adv-x="1781" 
d="M465 -72l-119 64l924 1521l116 -63zM506 578h-160v679l-139 -120l-94 104l256 209h137v-872zM1382 324v356h-6l-223 -356h229zM1528 324h121v-138h-121v-186h-146v186h-387v131l363 555h170v-548z" />
    <glyph glyph-name="onehalf" unicode="&#xbd;" horiz-adv-x="1781" 
d="M465 -72l-119 64l924 1521l116 -63zM1661 0h-580v137l336 338q33 35 58 73t25 89t-36 81q-35 30 -89 30t-91 -38t-47 -102l-152 21q17 113 97 185t194 73q190 0 259 -142q24 -47 24 -123t-44 -136q-44 -62 -99 -115l-234 -230h379v-141zM506 578h-160v679l-139 -120
l-94 104l256 209h137v-872z" />
    <glyph glyph-name="threequarters" unicode="&#xbe;" horiz-adv-x="1781" 
d="M293 1102h55q66 0 115 28t49 90q0 60 -37 90t-85 30t-84 -30q-36 -28 -54 -75l-139 47q37 92 111 142q122 81 275 36q105 -29 147 -119q22 -45 22 -109t-37 -114q-37 -49 -90 -71q65 -19 107 -75t42 -128q0 -129 -87 -199t-201 -71q-242 -2 -320 214l145 46
q17 -56 59 -90t99 -34t104 32t47 86t-24 90q-40 57 -164 57h-55v127zM465 -72l-119 64l924 1521l116 -63zM1382 324v356h-6l-223 -356h229zM1528 324h121v-138h-121v-186h-146v186h-387v131l363 555h170v-548z" />
    <glyph glyph-name="questiondown" unicode="&#xbf;" horiz-adv-x="1024" 
d="M369 873q0 53 39 95t97 42t98 -40t40 -94t-39 -94t-98 -41q-59 0 -98 39t-39 93zM420 586h192v-99q0 -144 -87 -240q-28 -32 -62 -65l-76 -71q-45 -39 -75 -85t-30 -131t63 -143t163 -59q100 0 162 65q61 66 71 160l197 -22q-24 -174 -146 -278q-123 -104 -299 -102
q-177 1 -296 101t-119 273t117 284q37 35 79 71t82 76q64 63 64 193v72z" />
    <glyph glyph-name="Agrave" unicode="&#xc0;" horiz-adv-x="1456" 
d="M375 1860h233l205 -295h-158zM453 535h542l-270 679zM236 0h-226l629 1450h184l623 -1450h-229l-148 356h-688z" />
    <glyph glyph-name="Aacute" unicode="&#xc1;" horiz-adv-x="1456" 
d="M815 1565h-156l203 295h234zM453 535h542l-270 679zM236 0h-226l629 1450h184l623 -1450h-229l-148 356h-688z" />
    <glyph glyph-name="Acircumflex" unicode="&#xc2;" horiz-adv-x="1456" 
d="M1075 1565h-186l-154 202l-155 -202h-185l230 295h221zM453 535h542l-270 679zM236 0h-226l629 1450h184l623 -1450h-229l-148 356h-688z" />
    <glyph glyph-name="Atilde" unicode="&#xc3;" horiz-adv-x="1456" 
d="M588 1675q-72 0 -96 -94h-113q19 109 52 153q61 83 157 85q66 1 130 -29t98 -44t63 -13q71 0 98 94h110q-19 -109 -52 -153q-61 -83 -156 -85q-59 0 -155 43t-136 43zM453 535h542l-270 679zM236 0h-226l629 1450h184l623 -1450h-229l-148 356h-688z" />
    <glyph glyph-name="Adieresis" unicode="&#xc4;" horiz-adv-x="1456" 
d="M803 1732q0 48 36 86t90 38t91 -36t37 -88t-37 -88t-91 -36t-90 38t-36 86zM406 1732q0 48 35 86q36 38 90 38t92 -36q37 -36 37 -88t-38 -88q-36 -36 -90 -36t-91 38q-35 38 -35 86zM453 535h542l-270 679zM236 0h-226l629 1450h184l623 -1450h-229l-148 356h-688z" />
    <glyph glyph-name="Aring" unicode="&#xc5;" horiz-adv-x="1456" 
d="M856 1747q0 51 -36 85t-87 34t-86 -35t-35 -85t35 -84t86 -34t87 34t36 85zM940 1746q0 -87 -60 -144q-60 -58 -146 -58t-145 57q-58 57 -60 145q-1 87 59 144q60 58 145 58q87 0 147 -58t60 -144zM453 535h542l-270 679zM236 0h-226l629 1450h184l623 -1450h-229
l-148 356h-688z" />
    <glyph glyph-name="AE" unicode="&#xc6;" horiz-adv-x="2078" 
d="M1073 569v703h-29l-444 -703h473zM1276 180h709v-180h-912v393h-579l-248 -393h-242l936 1450h1014v-178h-678v-434h635v-174h-635v-484z" />
    <glyph glyph-name="Ccedilla" unicode="&#xc7;" horiz-adv-x="1449" 
d="M874 1487q248 0 422 -128q57 -42 99 -97l-160 -123q-53 74 -151 122t-217 48q-120 0 -221 -46q-203 -93 -284 -312q-38 -105 -38 -226q1 -249 149 -416q149 -166 400 -166t384 193l162 -111q-82 -111 -213 -183t-311 -77l-70 -106q14 4 27 4h29q129 0 175 -84
q17 -31 17 -80q0 -94 -87 -142q-66 -38 -146 -38q-150 0 -238 47l41 86q76 -35 156 -35t113 43q13 16 14 43q0 75 -111 78q-37 0 -84 -14l-41 40l105 160q-310 24 -500 235q-191 210 -193 525q0 170 59 310q116 280 406 395q141 55 307 55z" />
    <glyph glyph-name="Egrave" unicode="&#xc8;" horiz-adv-x="1230" 
d="M360 1860h234l205 -295h-158zM379 180h758v-180h-961v1450h930v-178h-727v-434h684v-174h-684v-484z" />
    <glyph glyph-name="Eacute" unicode="&#xc9;" horiz-adv-x="1230" 
d="M692 1565h-155l202 295h234zM379 180h758v-180h-961v1450h930v-178h-727v-434h684v-174h-684v-484z" />
    <glyph glyph-name="Ecircumflex" unicode="&#xca;" horiz-adv-x="1230" 
d="M991 1565h-186l-154 202l-155 -202h-185l230 295h221zM379 180h758v-180h-961v1450h930v-178h-727v-434h684v-174h-684v-484z" />
    <glyph glyph-name="Edieresis" unicode="&#xcb;" horiz-adv-x="1230" 
d="M721 1732q0 48 36 86t90 38t91 -36t37 -88t-37 -88t-91 -36t-90 38t-36 86zM324 1732q0 48 35 86q37 38 91 38t91 -36t37 -88t-37 -88t-91 -36t-91 38q-35 38 -35 86zM379 180h758v-180h-961v1450h930v-178h-727v-434h684v-174h-684v-484z" />
    <glyph glyph-name="Igrave" unicode="&#xcc;" horiz-adv-x="555" 
d="M-57 1860h233l205 -295h-158zM379 0h-203v1450h203v-1450z" />
    <glyph glyph-name="Iacute" unicode="&#xcd;" horiz-adv-x="555" 
d="M330 1565h-156l203 295h233zM379 0h-203v1450h203v-1450z" />
    <glyph glyph-name="Icircumflex" unicode="&#xce;" horiz-adv-x="555" 
d="M614 1565h-186l-154 202l-155 -202h-185l230 295h221zM379 0h-203v1450h203v-1450z" />
    <glyph glyph-name="Idieresis" unicode="&#xcf;" horiz-adv-x="555" 
d="M350 1732q0 48 36 86t90 38t91 -36t37 -88t-37 -88t-91 -36t-90 38t-36 86zM-47 1732q0 48 36 86t90 38t91 -36t37 -88t-37 -88t-91 -36t-90 38t-36 86zM379 0h-203v1450h203v-1450z" />
    <glyph glyph-name="Eth" unicode="&#xd0;" horiz-adv-x="1558" 
d="M373 184h239q283 0 450 148t167 394q0 245 -158 393q-158 147 -438 147h-260v-437h485v-143h-485v-502zM168 686h-141v143h141v621h528q140 0 274 -45q285 -95 411 -362q65 -136 65 -319q0 -184 -70 -320t-180 -226t-247 -134q-136 -44 -269 -44h-512v686z" />
    <glyph glyph-name="Ntilde" unicode="&#xd1;" horiz-adv-x="1581" 
d="M641 1675q-69 0 -96 -94h-113q19 107 52 152q32 45 68 65q89 50 243 -20q102 -45 137 -45q71 0 98 94h111q-19 -107 -52 -152q-62 -84 -157 -86q-59 0 -155 43t-136 43zM1202 291v1159h203v-1450h-256l-766 1184h-4v-1184h-203v1450h264l758 -1159h4z" />
    <glyph glyph-name="Ograve" unicode="&#xd2;" 
d="M557 1860h234l204 -295h-157zM1419 726q0 241 -152 412t-398 171t-398 -171q-151 -171 -150 -414q1 -244 153 -412q152 -167 394 -167q125 0 228 45q204 92 284 310q38 106 39 226zM1638 728q0 -334 -218 -550q-218 -215 -551 -215q-334 0 -549 213q-216 213 -218 551
q0 170 58 310q114 281 402 395q140 55 306 55t308 -55q286 -110 404 -394q58 -140 58 -310z" />
    <glyph glyph-name="Oacute" unicode="&#xd3;" 
d="M915 1565h-155l203 295h233zM1419 726q0 241 -152 412t-398 171t-398 -171q-151 -171 -150 -414q1 -244 153 -412q152 -167 394 -167q125 0 228 45q204 92 284 310q38 106 39 226zM1638 728q0 -334 -218 -550q-218 -215 -551 -215q-334 0 -549 213q-216 213 -218 551
q0 170 58 310q114 281 402 395q140 55 306 55t308 -55q286 -110 404 -394q58 -140 58 -310z" />
    <glyph glyph-name="Ocircumflex" unicode="&#xd4;" 
d="M1208 1565h-186l-154 202l-155 -202h-185l230 295h221zM1419 726q0 241 -152 412t-398 171t-398 -171q-151 -171 -150 -414q1 -244 153 -412q152 -167 394 -167q125 0 228 45q204 92 284 310q38 106 39 226zM1638 728q0 -334 -218 -550q-218 -215 -551 -215
q-334 0 -549 213q-216 213 -218 551q0 170 58 310q114 281 402 395q140 55 306 55t308 -55q286 -110 404 -394q58 -140 58 -310z" />
    <glyph glyph-name="Otilde" unicode="&#xd5;" 
d="M723 1675q-72 0 -96 -94h-113q19 106 51 152q33 45 69 65q90 50 243 -20q102 -45 137 -45q71 0 98 94h111q-19 -107 -52 -152q-62 -84 -157 -86q-59 0 -155 43t-136 43zM1419 726q0 241 -152 412t-398 171t-398 -171q-151 -171 -150 -414q1 -244 153 -412
q152 -167 394 -167q125 0 228 45q204 92 284 310q38 106 39 226zM1638 728q0 -334 -218 -550q-218 -215 -551 -215q-334 0 -549 213q-216 213 -218 551q0 170 58 310q114 281 402 395q140 55 306 55t308 -55q286 -110 404 -394q58 -140 58 -310z" />
    <glyph glyph-name="Odieresis" unicode="&#xd6;" 
d="M940 1732q0 48 36 86t90 38t91 -36t37 -88t-37 -88t-91 -36t-90 38t-36 86zM543 1732q0 48 36 86t90 38t91 -36t37 -88t-37 -88t-91 -36t-90 38t-36 86zM1419 726q0 241 -152 412t-398 171t-398 -171q-151 -171 -150 -414q1 -244 153 -412q152 -167 394 -167
q125 0 228 45q204 92 284 310q38 106 39 226zM1638 728q0 -334 -218 -550q-218 -215 -551 -215q-334 0 -549 213q-216 213 -218 551q0 170 58 310q114 281 402 395q140 55 306 55t308 -55q286 -110 404 -394q58 -140 58 -310z" />
    <glyph glyph-name="multiply" unicode="&#xd7;" horiz-adv-x="1363" 
d="M682 737l348 350l117 -114l-348 -350l352 -355l-121 -118l-350 348l-348 -348l-119 118l352 348l-350 357l117 114z" />
    <glyph glyph-name="Oslash" unicode="&#xd8;" 
d="M868 141q249 0 403 167t154 409t-127 397l-784 -848q144 -125 354 -125zM868 1311q-249 0 -401 -167t-152 -403q0 -237 117 -385l780 842q-134 113 -344 113zM1432 1264q206 -210 206 -539t-215 -543q-215 -213 -555 -219q-283 0 -487 162l-166 -178l-88 80l166 180
q-189 201 -191 520q0 170 58 310q114 281 402 395q140 55 306 55q276 0 471 -146l166 179l88 -80z" />
    <glyph glyph-name="Ugrave" unicode="&#xd9;" horiz-adv-x="1458" 
d="M381 1860h233l205 -295h-157zM729 -37q-143 0 -249 48q-211 95 -280 312q-34 103 -34 214v913h203v-901q0 -273 189 -369q69 -35 170 -35q189 0 283 127q77 104 79 277v901h202v-913q0 -237 -137 -398q-154 -176 -426 -176z" />
    <glyph glyph-name="Uacute" unicode="&#xda;" horiz-adv-x="1458" 
d="M760 1565h-156l203 295h233zM729 -37q-143 0 -249 48q-211 95 -280 312q-34 103 -34 214v913h203v-901q0 -273 189 -369q69 -35 170 -35q189 0 283 127q77 104 79 277v901h202v-913q0 -237 -137 -398q-154 -176 -426 -176z" />
    <glyph glyph-name="Ucircumflex" unicode="&#xdb;" horiz-adv-x="1458" 
d="M1065 1565h-186l-154 202l-156 -202h-184l229 295h222zM729 -37q-143 0 -249 48q-211 95 -280 312q-34 103 -34 214v913h203v-901q0 -273 189 -369q69 -35 170 -35q189 0 283 127q77 104 79 277v901h202v-913q0 -237 -137 -398q-154 -176 -426 -176z" />
    <glyph glyph-name="Udieresis" unicode="&#xdc;" horiz-adv-x="1458" 
d="M801 1732q0 48 36 86t90 38t91 -36t37 -88t-37 -88t-91 -36t-90 38t-36 86zM403 1732q0 48 36 86t90 38t92 -36q37 -36 37 -88t-38 -88q-36 -36 -90 -36t-91 38q-36 38 -36 86zM729 -37q-143 0 -249 48q-211 95 -280 312q-34 103 -34 214v913h203v-901q0 -273 189 -369
q69 -35 170 -35q189 0 283 127q77 104 79 277v901h202v-913q0 -237 -137 -398q-154 -176 -426 -176z" />
    <glyph glyph-name="Yacute" unicode="&#xdd;" horiz-adv-x="1277" 
d="M707 1565h-156l203 295h233zM741 0h-204v627l-543 823h250l401 -655l404 655h235l-543 -823v-627z" />
    <glyph glyph-name="Thorn" unicode="&#xde;" horiz-adv-x="1218" 
d="M588 512q338 0 338 233q0 119 -89 175q-89 57 -245 57h-213v-465h209zM176 1450h203v-299h239q372 0 482 -225q37 -76 37 -182q0 -207 -145 -308q-145 -100 -384 -98h-229v-338h-203v1450z" />
    <glyph glyph-name="germandbls" unicode="&#xdf;" horiz-adv-x="1253" 
d="M634 1403q-271 0 -278 -336v-1067h-192v1075q0 338 245 455q89 43 199 43t185 -28q155 -57 220 -197q31 -70 31 -170t-60 -184q-60 -83 -167 -117v-5q156 -24 250 -138t92 -279q0 -214 -136 -347t-361 -133q-70 0 -146 17v162q57 -15 121 -15q147 0 235 86t88 240
t-98 235q-99 80 -256 80h-22v168h22q110 0 178 58t68 162q0 106 -62 170t-156 65z" />
    <glyph glyph-name="agrave" unicode="&#xe0;" horiz-adv-x="1110" 
d="M246 1450h231l205 -295h-158zM723 463q-187 -1 -268 -25q-82 -24 -123 -61t-41 -89t17 -81q47 -80 181 -80q135 0 208 81t73 204v51h-47zM94 274q0 282 432 318q121 10 244 10v27q0 109 -65 161t-161 52q-176 0 -290 -113l-102 123q154 145 397 145q201 0 304 -107
t101 -274v-423q0 -135 15 -193h-174q-16 70 -17 139h-6q-111 -164 -326 -164q-135 0 -233 66q-119 82 -119 233z" />
    <glyph glyph-name="aacute" unicode="&#xe1;" horiz-adv-x="1110" 
d="M623 1155h-158l205 295h231zM723 463q-187 -1 -268 -25q-82 -24 -123 -61t-41 -89t17 -81q47 -80 181 -80q135 0 208 81t73 204v51h-47zM94 274q0 282 432 318q121 10 244 10v27q0 109 -65 161t-161 52q-176 0 -290 -113l-102 123q154 145 397 145q201 0 304 -107
t101 -274v-423q0 -135 15 -193h-174q-16 70 -17 139h-6q-111 -164 -326 -164q-135 0 -233 66q-119 82 -119 233z" />
    <glyph glyph-name="acircumflex" unicode="&#xe2;" horiz-adv-x="1110" 
d="M889 1155h-187l-153 203l-156 -203h-184l229 295h221zM723 463q-187 -1 -268 -25q-82 -24 -123 -61t-41 -89t17 -81q47 -80 181 -80q135 0 208 81t73 204v51h-47zM94 274q0 282 432 318q121 10 244 10v27q0 109 -65 161t-161 52q-176 0 -290 -113l-102 123
q154 145 397 145q201 0 304 -107t101 -274v-423q0 -135 15 -193h-174q-16 70 -17 139h-6q-111 -164 -326 -164q-135 0 -233 66q-119 82 -119 233z" />
    <glyph glyph-name="atilde" unicode="&#xe3;" horiz-adv-x="1110" 
d="M314 1388q36 20 97 21q61 0 146 -41q102 -45 137 -45q71 0 99 94h110q-19 -109 -52 -153q-62 -84 -157 -84q-66 0 -154 42q-89 42 -137 44q-69 0 -96 -95h-112q19 109 52 153q31 44 67 64zM723 463q-187 -1 -268 -25q-82 -24 -123 -61t-41 -89t17 -81q47 -80 181 -80
q135 0 208 81t73 204v51h-47zM94 274q0 282 432 318q121 10 244 10v27q0 109 -65 161t-161 52q-176 0 -290 -113l-102 123q154 145 397 145q201 0 304 -107t101 -274v-423q0 -135 15 -193h-174q-16 70 -17 139h-6q-111 -164 -326 -164q-135 0 -233 66q-119 82 -119 233z" />
    <glyph glyph-name="adieresis" unicode="&#xe4;" horiz-adv-x="1110" 
d="M623 1322q0 48 35 86q36 38 90 38t92 -36q37 -36 37 -88t-37 -88t-91 -36t-91 38q-35 38 -35 86zM225 1322q0 48 36 86t90 38t91 -36t37 -88t-37 -88t-91 -36t-90 38t-36 86zM723 463q-187 -1 -268 -25q-82 -24 -123 -61t-41 -89t17 -81q47 -80 181 -80q135 0 208 81
t73 204v51h-47zM94 274q0 282 432 318q121 10 244 10v27q0 109 -65 161t-161 52q-176 0 -290 -113l-102 123q154 145 397 145q201 0 304 -107t101 -274v-423q0 -135 15 -193h-174q-16 70 -17 139h-6q-111 -164 -326 -164q-135 0 -233 66q-119 82 -119 233z" />
    <glyph glyph-name="aring" unicode="&#xe5;" horiz-adv-x="1110" 
d="M670 1336q0 50 -36 83t-84 33t-84 -33t-36 -82t36 -83t84 -34t84 34q36 32 36 82zM548 1538q86 0 148 -58q60 -58 60 -144q0 -87 -60 -144t-147 -57q-86 0 -145 57q-60 57 -60 144q0 86 59 144t145 58zM723 463q-187 -1 -268 -25q-82 -24 -123 -61t-41 -89t17 -81
q47 -80 181 -80q135 0 208 81t73 204v51h-47zM94 274q0 282 432 318q121 10 244 10v27q0 109 -65 161t-161 52q-176 0 -290 -113l-102 123q154 145 397 145q201 0 304 -107t101 -274v-423q0 -135 15 -193h-174q-16 70 -17 139h-6q-111 -164 -326 -164q-135 0 -233 66
q-119 82 -119 233z" />
    <glyph glyph-name="ae" unicode="&#xe6;" horiz-adv-x="1796" 
d="M94 261q0 187 188 256q141 54 488 54v23q0 137 -65 192q-65 56 -161 56q-176 1 -290 -113l-102 123q154 145 408 145t329 -180q128 180 347 180t340 -137q120 -137 120 -366v-33q0 -16 -2 -33h-746q4 -123 93 -210q89 -85 199 -85q191 0 288 148l129 -109
q-147 -197 -404 -199q-129 1 -233 53t-162 148q-106 -199 -412 -199q-226 0 -318 141q-34 52 -34 145zM1503 571q0 120 -69 197q-69 78 -189 78q-119 0 -208 -80q-87 -81 -91 -195h557zM717 428q-212 0 -286 -22t-107 -52q-33 -31 -33 -78q0 -46 17 -74q47 -77 183 -77
q135 0 205 68t70 184v51h-49z" />
    <glyph glyph-name="ccedilla" unicode="&#xe7;" horiz-adv-x="1011" 
d="M228 137q-126 139 -126 357t148 362q148 143 371 141q102 0 203 -41t161 -118l-139 -113q-31 47 -92 79t-134 32q-74 0 -132 -29q-119 -59 -161 -189q-22 -63 -22 -133q0 -143 87 -247q87 -103 234 -103t232 107l129 -117q-125 -144 -338 -152l-76 -114q14 4 27 4h29
q129 0 175 -84q17 -31 17 -80q0 -94 -87 -142q-66 -38 -146 -38q-148 0 -238 47l41 86q76 -35 156 -35t113 43q13 16 14 43q0 75 -111 78q-37 0 -84 -14l-41 40l113 170q-195 24 -323 160z" />
    <glyph glyph-name="egrave" unicode="&#xe8;" horiz-adv-x="1173" 
d="M274 1450h232l205 -295h-158zM614 -27q-223 0 -367 142q-145 142 -145 369q0 226 144 370t360 143q217 0 341 -137t124 -366v-33q0 -16 -2 -33h-770q4 -122 96 -209q92 -86 204 -86q200 0 298 148l135 -109q-151 -197 -418 -199zM608 846q-125 0 -214 -80
q-87 -81 -95 -195h578q-7 189 -155 253q-50 22 -114 22z" />
    <glyph glyph-name="eacute" unicode="&#xe9;" horiz-adv-x="1173" 
d="M659 1155h-157l205 295h231zM614 -27q-223 0 -367 142q-145 142 -145 369q0 226 144 370t360 143q217 0 341 -137t124 -366v-33q0 -16 -2 -33h-770q4 -122 96 -209q92 -86 204 -86q200 0 298 148l135 -109q-151 -197 -418 -199zM608 846q-125 0 -214 -80
q-87 -81 -95 -195h578q-7 189 -155 253q-50 22 -114 22z" />
    <glyph glyph-name="ecircumflex" unicode="&#xea;" horiz-adv-x="1173" 
d="M956 1155h-186l-154 203l-155 -203h-185l230 295h221zM614 -27q-223 0 -367 142q-145 142 -145 369q0 226 144 370t360 143q217 0 341 -137t124 -366v-33q0 -16 -2 -33h-770q4 -122 96 -209q92 -86 204 -86q200 0 298 148l135 -109q-151 -197 -418 -199zM608 846
q-125 0 -214 -80q-87 -81 -95 -195h578q-7 189 -155 253q-50 22 -114 22z" />
    <glyph glyph-name="edieresis" unicode="&#xeb;" horiz-adv-x="1173" 
d="M686 1322q0 48 36 86t90 38t91 -36t37 -88t-37 -88t-91 -36t-90 38t-36 86zM289 1322q0 48 36 86t90 38t91 -36t37 -88t-37 -88t-91 -36t-90 38t-36 86zM614 -27q-223 0 -367 142q-145 142 -145 369q0 226 144 370t360 143q217 0 341 -137t124 -366v-33q0 -16 -2 -33
h-770q4 -122 96 -209q92 -86 204 -86q200 0 298 148l135 -109q-151 -197 -418 -199zM608 846q-125 0 -214 -80q-87 -81 -95 -195h578q-7 189 -155 253q-50 22 -114 22z" />
    <glyph glyph-name="igrave" unicode="&#xec;" horiz-adv-x="530" 
d="M-74 1450h232l204 -295h-157zM360 0h-192v971h192v-971z" />
    <glyph glyph-name="iacute" unicode="&#xed;" horiz-adv-x="530" 
d="M326 1155h-158l205 295h231zM360 0h-192v971h192v-971z" />
    <glyph glyph-name="icircumflex" unicode="&#xee;" horiz-adv-x="530" 
d="M606 1155h-186l-154 203l-155 -203h-185l230 295h221zM360 0h-192v971h192v-971z" />
    <glyph glyph-name="idieresis" unicode="&#xef;" horiz-adv-x="530" 
d="M338 1322q0 48 36 86t90 38t91 -36t37 -88t-37 -88t-91 -36t-90 38t-36 86zM-59 1322q0 48 35 86q36 38 90 38t92 -36q37 -36 37 -88t-37 -88t-91 -36t-91 38q-35 38 -35 86zM360 0h-192v971h192v-971z" />
    <glyph glyph-name="eth" unicode="&#xf0;" horiz-adv-x="1249" 
d="M854 240q88 103 87 246q-1 142 -88 245t-237 103t-238 -102q-87 -102 -87 -246t87 -247q88 -102 238 -102t238 103zM1139 542q0 -240 -132 -405q-132 -164 -374 -164t-391 144q-148 145 -148 369q0 225 148 368t366 143q157 0 266 -100l5 4q-116 224 -289 369l-225 -109
l-99 96l226 109q-60 57 -183 143l158 97q113 -87 190 -160l222 108l106 -94l-225 -110q266 -273 349 -583q30 -111 30 -225z" />
    <glyph glyph-name="ntilde" unicode="&#xf1;" horiz-adv-x="1191" 
d="M300 1324q62 85 145 85t165 -41q102 -45 138 -45q70 0 98 94h110q-19 -109 -52 -153q-62 -84 -156 -84q-64 0 -155 42q-90 42 -136 44q-70 0 -97 -95h-112q20 109 52 153zM348 811h6q37 79 122 133q86 53 187 53q182 0 277 -111q94 -111 92 -284v-602h-192v539
q0 297 -222 297q-116 0 -188 -87t-72 -233v-516h-192v762q0 113 -8 209h182q8 -74 8 -160z" />
    <glyph glyph-name="ograve" unicode="&#xf2;" horiz-adv-x="1249" 
d="M301 1450h231l205 -295h-157zM625 838q-79 0 -139 -29q-120 -58 -163 -188q-22 -63 -22 -133q0 -143 87 -248q86 -105 236 -105t237 104t87 249q0 146 -87 248q-88 102 -236 102zM1149 487q0 -222 -150 -368t-375 -146t-373 146q-149 146 -149 368q0 221 149 366
q149 144 372 144q224 0 375 -143q151 -145 151 -367z" />
    <glyph glyph-name="oacute" unicode="&#xf3;" horiz-adv-x="1249" 
d="M666 1155h-158l205 295h231zM625 838q-79 0 -139 -29q-120 -58 -163 -188q-22 -63 -22 -133q0 -143 87 -248q86 -105 236 -105t237 104t87 249q0 146 -87 248q-88 102 -236 102zM1149 487q0 -222 -150 -368t-375 -146t-373 146q-149 146 -149 368q0 221 149 366
q149 144 372 144q224 0 375 -143q151 -145 151 -367z" />
    <glyph glyph-name="ocircumflex" unicode="&#xf4;" horiz-adv-x="1249" 
d="M967 1155h-187l-153 203l-156 -203h-184l229 295h221zM625 838q-79 0 -139 -29q-120 -58 -163 -188q-22 -63 -22 -133q0 -143 87 -248q86 -105 236 -105t237 104t87 249q0 146 -87 248q-88 102 -236 102zM1149 487q0 -222 -150 -368t-375 -146t-373 146
q-149 146 -149 368q0 221 149 366q149 144 372 144q224 0 375 -143q151 -145 151 -367z" />
    <glyph glyph-name="otilde" unicode="&#xf5;" horiz-adv-x="1249" 
d="M392 1388q36 20 97 21q61 0 146 -41q102 -45 137 -45q73 0 98 94h111q-19 -106 -51 -152q-61 -85 -158 -85q-64 0 -155 42q-90 42 -136 44q-69 0 -96 -95h-113q19 107 52 152q32 45 68 65zM625 838q-79 0 -139 -29q-120 -58 -163 -188q-22 -63 -22 -133q0 -143 87 -248
q86 -105 236 -105t237 104t87 249q0 146 -87 248q-88 102 -236 102zM1149 487q0 -222 -150 -368t-375 -146t-373 146q-149 146 -149 368q0 221 149 366q149 144 372 144q224 0 375 -143q151 -145 151 -367z" />
    <glyph glyph-name="odieresis" unicode="&#xf6;" horiz-adv-x="1249" 
d="M698 1322q0 48 36 86t90 38t91 -36t37 -88t-37 -88t-91 -36t-90 38t-36 86zM301 1322q0 48 36 86t90 38t91 -36t37 -88t-37 -88t-91 -36t-90 38t-36 86zM625 838q-79 0 -139 -29q-120 -58 -163 -188q-22 -63 -22 -133q0 -143 87 -248q86 -105 236 -105t237 104t87 249
q0 146 -87 248q-88 102 -236 102zM1149 487q0 -222 -150 -368t-375 -146t-373 146q-149 146 -149 368q0 221 149 366q149 144 372 144q224 0 375 -143q151 -145 151 -367z" />
    <glyph glyph-name="divide" unicode="&#xf7;" horiz-adv-x="1363" 
d="M815 961q0 -53 -38 -93t-95 -41q-57 0 -95 40q-38 39 -38 93t38 94t95 40t95 -40t38 -93zM815 270q0 -53 -38 -93t-95 -40t-95 40t-38 93q0 54 38 94t95 40t95 -41q38 -40 38 -93zM1221 537h-1078v168h1078v-168z" />
    <glyph glyph-name="oslash" unicode="&#xf8;" horiz-adv-x="1249" 
d="M868 236q90 107 89 242t-60 214l-481 -491q84 -72 223 -72t229 107zM831 772q-74 70 -216 71t-232 -106t-89 -244t58 -214zM1026 821q123 -142 123 -351q0 -208 -151 -353q-151 -144 -355 -144q-205 0 -344 105l-139 -141l-74 73l135 140q-119 138 -119 348t149 355
q149 144 356 144q208 0 341 -104l139 143l76 -71z" />
    <glyph glyph-name="ugrave" unicode="&#xf9;" horiz-adv-x="1191" 
d="M268 1450h232l205 -295h-158zM842 160h-4q-37 -78 -124 -132q-88 -54 -188 -54q-189 -1 -279 111q-91 113 -89 284v602h192v-537q0 -299 221 -299q117 0 189 87t71 233v516h193v-762q0 -113 8 -209h-182q-8 74 -8 160z" />
    <glyph glyph-name="uacute" unicode="&#xfa;" horiz-adv-x="1191" 
d="M647 1155h-158l205 295h232zM842 160h-4q-37 -78 -124 -132q-88 -54 -188 -54q-189 -1 -279 111q-91 113 -89 284v602h192v-537q0 -299 221 -299q117 0 189 87t71 233v516h193v-762q0 -113 8 -209h-182q-8 74 -8 160z" />
    <glyph glyph-name="ucircumflex" unicode="&#xfb;" horiz-adv-x="1191" 
d="M936 1155h-186l-154 203l-156 -203h-184l229 295h222zM842 160h-4q-37 -78 -124 -132q-88 -54 -188 -54q-189 -1 -279 111q-91 113 -89 284v602h192v-537q0 -299 221 -299q117 0 189 87t71 233v516h193v-762q0 -113 8 -209h-182q-8 74 -8 160z" />
    <glyph glyph-name="udieresis" unicode="&#xfc;" horiz-adv-x="1191" 
d="M666 1322q0 48 35 86q37 38 91 38t91 -36t37 -88t-37 -88t-91 -36t-91 38q-35 38 -35 86zM268 1322q0 48 36 86t90 38t91 -36t37 -88t-37 -88t-91 -36t-90 38t-36 86zM842 160h-4q-37 -78 -124 -132q-88 -54 -188 -54q-189 -1 -279 111q-91 113 -89 284v602h192v-537
q0 -299 221 -299q117 0 189 87t71 233v516h193v-762q0 -113 8 -209h-182q-8 74 -8 160z" />
    <glyph glyph-name="yacute" unicode="&#xfd;" horiz-adv-x="1032" 
d="M586 1155h-158l205 295h231zM535 209h4l268 762h205l-471 -1200q-54 -132 -107 -179q-139 -123 -356 -69l18 170q49 -17 111 -17q63 0 99 42t67 120l61 162l-416 971h215z" />
    <glyph glyph-name="thorn" unicode="&#xfe;" horiz-adv-x="1302" 
d="M997 488q0 146 -86 248t-232 102q-147 0 -240 -105t-93 -247t92 -247q92 -104 239 -104q146 -1 233 103t87 250zM358 -492h-190v2040h190v-729h7q45 78 135 128t205 50q219 0 355 -146t136 -363t-134 -366t-355 -149q-105 0 -197 45t-145 127h-7v-637z" />
    <glyph glyph-name="ydieresis" unicode="&#xff;" horiz-adv-x="1032" 
d="M604 1322q0 48 36 86t90 38t91 -36t37 -88t-37 -88t-91 -36t-90 38t-36 86zM207 1322q0 48 36 86t90 38t91 -36t37 -88t-37 -88t-91 -36t-90 38t-36 86zM535 209h4l268 762h205l-471 -1200q-54 -132 -107 -179q-139 -123 -356 -69l18 170q49 -17 111 -17q63 0 99 42
t67 120l61 162l-416 971h215z" />
    <glyph glyph-name="Amacron" unicode="&#x100;" horiz-adv-x="1456" 
d="M1028 1632h-606v137h606v-137zM453 535h542l-270 679zM236 0h-226l629 1450h184l623 -1450h-229l-148 356h-688z" />
    <glyph glyph-name="amacron" unicode="&#x101;" horiz-adv-x="1110" 
d="M856 1223h-606v137h606v-137zM723 463q-187 -1 -268 -25q-82 -24 -123 -61t-41 -89t17 -81q47 -80 181 -80q135 0 208 81t73 204v51h-47zM94 274q0 282 432 318q121 10 244 10v27q0 109 -65 161t-161 52q-176 0 -290 -113l-102 123q154 145 397 145q201 0 304 -107
t101 -274v-423q0 -135 15 -193h-174q-16 70 -17 139h-6q-111 -164 -326 -164q-135 0 -233 66q-119 82 -119 233z" />
    <glyph glyph-name="Abreve" unicode="&#x102;" horiz-adv-x="1456" 
d="M724 1577q-136 0 -225 71t-100 212h115q14 -78 74 -113t140 -35q81 0 136 32t74 116h113q-11 -141 -101 -212t-226 -71zM453 535h542l-270 679zM236 0h-226l629 1450h184l623 -1450h-229l-148 356h-688z" />
    <glyph glyph-name="abreve" unicode="&#x103;" horiz-adv-x="1110" 
d="M550 1167q-136 0 -225 71t-100 212h115q14 -78 74 -113t140 -35q81 0 136 32t74 116h113q-11 -141 -101 -212t-226 -71zM723 463q-187 -1 -268 -25q-82 -24 -123 -61t-41 -89t17 -81q47 -80 181 -80q135 0 208 81t73 204v51h-47zM94 274q0 282 432 318q121 10 244 10v27
q0 109 -65 161t-161 52q-176 0 -290 -113l-102 123q154 145 397 145q201 0 304 -107t101 -274v-423q0 -135 15 -193h-174q-16 70 -17 139h-6q-111 -164 -326 -164q-135 0 -233 66q-119 82 -119 233z" />
    <glyph glyph-name="Aogonek" unicode="&#x104;" horiz-adv-x="1456" 
d="M453 535h542l-270 679zM1026 -285q0 142 186 291l-143 350h-688l-145 -356h-226l629 1450h184l623 -1450h-129q-150 -145 -150 -244q0 -40 29 -68t80 -28t98 45l45 -92q-87 -74 -181 -75q-95 -1 -153 47q-59 48 -59 130z" />
    <glyph glyph-name="aogonek" unicode="&#x105;" horiz-adv-x="1110" 
d="M723 463q-187 -1 -268 -25q-82 -24 -123 -61t-41 -89t17 -81q47 -80 181 -80q135 0 208 81t73 204v51h-47zM778 139h-6q-111 -164 -326 -164q-135 0 -233 66q-119 82 -119 233q0 282 432 318q121 10 244 10v27q0 109 -65 161t-161 52q-176 0 -290 -113l-102 123
q154 145 397 145q201 0 304 -107t101 -274v-423q0 -135 15 -193h-74q-148 -143 -150 -244q0 -40 29 -68t80 -28t98 45l45 -92q-87 -74 -182 -75t-152 47t-58 142q-1 95 122 222q33 33 66 57q-15 58 -15 133z" />
    <glyph glyph-name="Cacute" unicode="&#x106;" horiz-adv-x="1449" 
d="M883 1565h-156l203 295h233zM880 -37q-348 0 -562 214t-216 550q0 170 59 310q116 280 406 395q141 55 307 55q248 0 422 -128q57 -42 99 -97l-160 -123q-53 74 -151 122t-217 48q-120 0 -221 -46q-203 -93 -284 -312q-38 -105 -38 -226q1 -249 149 -416
q149 -166 400 -166t384 193l162 -111q-86 -117 -223 -189q-136 -72 -316 -73z" />
    <glyph glyph-name="cacute" unicode="&#x107;" horiz-adv-x="1011" 
d="M655 1155h-157l204 295h232zM102 485q0 227 148 371q148 143 371 141q102 0 203 -41t161 -118l-139 -113q-31 47 -92 79t-134 32q-74 0 -132 -29q-119 -59 -161 -189q-22 -63 -22 -133q0 -143 87 -247q87 -103 234 -103t232 107l129 -117q-129 -152 -358 -152t-378 142
q-149 143 -149 370z" />
    <glyph glyph-name="Ccircumflex" unicode="&#x108;" horiz-adv-x="1449" 
d="M1206 1565h-186l-154 202l-155 -202h-185l230 295h221zM880 -37q-348 0 -562 214t-216 550q0 170 59 310q116 280 406 395q141 55 307 55q248 0 422 -128q57 -42 99 -97l-160 -123q-53 74 -151 122t-217 48q-120 0 -221 -46q-203 -93 -284 -312q-38 -105 -38 -226
q1 -249 149 -416q149 -166 400 -166t384 193l162 -111q-86 -117 -223 -189q-136 -72 -316 -73z" />
    <glyph glyph-name="ccircumflex" unicode="&#x109;" horiz-adv-x="1011" 
d="M961 1155h-187l-153 203l-156 -203h-184l229 295h221zM102 485q0 227 148 371q148 143 371 141q102 0 203 -41t161 -118l-139 -113q-31 47 -92 79t-134 32q-74 0 -132 -29q-119 -59 -161 -189q-22 -63 -22 -133q0 -143 87 -247q87 -103 234 -103t232 107l129 -117
q-129 -152 -358 -152t-378 142q-149 143 -149 370z" />
    <glyph glyph-name="Cdotaccent" unicode="&#x10a;" horiz-adv-x="1449" 
d="M995 1731q0 -53 -38 -89t-91 -34q-53 0 -90 36t-37 88t37 88t90 36t91 -36t38 -89zM880 -37q-348 0 -562 214t-216 550q0 170 59 310q116 280 406 395q141 55 307 55q248 0 422 -128q57 -42 99 -97l-160 -123q-53 74 -151 122t-217 48q-120 0 -221 -46
q-203 -93 -284 -312q-38 -105 -38 -226q1 -249 149 -416q149 -166 400 -166t384 193l162 -111q-86 -117 -223 -189q-136 -72 -316 -73z" />
    <glyph glyph-name="cdotaccent" unicode="&#x10b;" horiz-adv-x="1011" 
d="M743 1321q1 -53 -37 -88t-92 -35t-90 36q-37 36 -37 88t37 88t90 36t91 -36t38 -89zM102 485q0 227 148 371q148 143 371 141q102 0 203 -41t161 -118l-139 -113q-31 47 -92 79t-134 32q-74 0 -132 -29q-119 -59 -161 -189q-22 -63 -22 -133q0 -143 87 -247
q87 -103 234 -103t232 107l129 -117q-129 -152 -358 -152t-378 142q-149 143 -149 370z" />
    <glyph glyph-name="Ccaron" unicode="&#x10c;" horiz-adv-x="1449" 
d="M975 1565h-219l-228 295h185l155 -203l156 203h180zM880 -37q-348 0 -562 214t-216 550q0 170 59 310q116 280 406 395q141 55 307 55q248 0 422 -128q57 -42 99 -97l-160 -123q-53 74 -151 122t-217 48q-120 0 -221 -46q-203 -93 -284 -312q-38 -105 -38 -226
q1 -249 149 -416q149 -166 400 -166t384 193l162 -111q-86 -117 -223 -189q-136 -72 -316 -73z" />
    <glyph glyph-name="ccaron" unicode="&#x10d;" horiz-adv-x="1011" 
d="M731 1155h-219l-227 295h184l156 -203l155 203h181zM102 485q0 227 148 371q148 143 371 141q102 0 203 -41t161 -118l-139 -113q-31 47 -92 79t-134 32q-74 0 -132 -29q-119 -59 -161 -189q-22 -63 -22 -133q0 -143 87 -247q87 -103 234 -103t232 107l129 -117
q-129 -152 -358 -152t-378 142q-149 143 -149 370z" />
    <glyph glyph-name="Dcaron" unicode="&#x10e;" horiz-adv-x="1558" 
d="M813 1565h-219l-227 295h184l156 -203l155 203h180zM379 178h254q270 0 438 146t168 405t-168 402t-438 143h-254v-1096zM176 1450h498q312 0 530 -170q252 -196 252 -555q0 -187 -70 -323t-182 -225t-252 -133q-139 -44 -278 -44h-498v1450z" />
    <glyph glyph-name="dcaron" unicode="&#x10f;" horiz-adv-x="1300" 
d="M1362 1061h-162l131 389h191zM388 238q87 -104 232 -103q145 0 239 104q93 104 92 246q-1 141 -93 247t-239 106t-232 -102q-86 -102 -86 -248t87 -250zM586 -27q-216 0 -351 149t-135 365t135 363t353 147q119 0 207 -50t139 -122h4v723h192v-1548h-186v154h-4
q-55 -88 -150 -134t-204 -47z" />
    <glyph glyph-name="Dcroat" unicode="&#x110;" horiz-adv-x="1558" 
d="M373 184h239q283 0 450 148t167 394q0 245 -158 393q-158 147 -438 147h-260v-437h485v-143h-485v-502zM168 686h-141v143h141v621h528q140 0 274 -45q285 -95 411 -362q65 -136 65 -319q0 -184 -70 -320t-180 -226t-247 -134q-136 -44 -269 -44h-512v686z" />
    <glyph glyph-name="dcroat" unicode="&#x111;" horiz-adv-x="1300" 
d="M388 238q87 -104 232 -103q145 0 239 104q93 104 92 246q-1 141 -93 247t-239 106t-232 -102q-86 -102 -86 -248t87 -250zM938 1296v252h192v-252h115v-129h-115v-1167h-186v154h-4q-55 -88 -150 -134t-204 -47q-216 0 -351 149t-135 365t135 363t353 147q119 0 207 -50
t139 -122h4v342h-334v129h334z" />
    <glyph glyph-name="Emacron" unicode="&#x112;" horiz-adv-x="1230" 
d="M946 1632h-606v137h606v-137zM379 180h758v-180h-961v1450h930v-178h-727v-434h684v-174h-684v-484z" />
    <glyph glyph-name="emacron" unicode="&#x113;" horiz-adv-x="1173" 
d="M909 1223h-606v137h606v-137zM614 -27q-223 0 -367 142q-145 142 -145 369q0 226 144 370t360 143q217 0 341 -137t124 -366v-33q0 -16 -2 -33h-770q4 -122 96 -209q92 -86 204 -86q200 0 298 148l135 -109q-151 -197 -418 -199zM608 846q-125 0 -214 -80
q-87 -81 -95 -195h578q-7 189 -155 253q-50 22 -114 22z" />
    <glyph glyph-name="Ebreve" unicode="&#x114;" horiz-adv-x="1230" 
d="M648 1577q-136 0 -225 71t-99 212h114q14 -78 74 -113t140 -35q81 0 136 32t74 116h113q-11 -141 -101 -212t-226 -71zM379 180h758v-180h-961v1450h930v-178h-727v-434h684v-174h-684v-484z" />
    <glyph glyph-name="ebreve" unicode="&#x115;" horiz-adv-x="1173" 
d="M612 1167q-136 0 -226 71q-89 71 -99 212h114q13 -78 73 -113t141 -35t137 32q55 32 73 116h113q-12 -141 -101 -212t-225 -71zM614 -27q-223 0 -367 142q-145 142 -145 369q0 226 144 370t360 143q217 0 341 -137t124 -366v-33q0 -16 -2 -33h-770q4 -122 96 -209
q92 -86 204 -86q200 0 298 148l135 -109q-151 -197 -418 -199zM608 846q-125 0 -214 -80q-87 -81 -95 -195h578q-7 189 -155 253q-50 22 -114 22z" />
    <glyph glyph-name="Edotaccent" unicode="&#x116;" horiz-adv-x="1230" 
d="M772 1731q0 -53 -38 -89t-91 -34q-53 0 -90 36t-37 88t37 88t90 36t91 -36t38 -89zM379 180h758v-180h-961v1450h930v-178h-727v-434h684v-174h-684v-484z" />
    <glyph glyph-name="edotaccent" unicode="&#x117;" horiz-adv-x="1173" 
d="M735 1321q0 -53 -38 -88t-91 -35t-90 36t-37 88t37 88t90 36t91 -36t38 -89zM614 -27q-223 0 -367 142q-145 142 -145 369q0 226 144 370t360 143q217 0 341 -137t124 -366v-33q0 -16 -2 -33h-770q4 -122 96 -209q92 -86 204 -86q200 0 298 148l135 -109
q-151 -197 -418 -199zM608 846q-125 0 -214 -80q-87 -81 -95 -195h578q-7 189 -155 253q-50 22 -114 22z" />
    <glyph glyph-name="Eogonek" unicode="&#x118;" horiz-adv-x="1230" 
d="M815 -285q0 108 116 228q32 33 62 57h-817v1450h930v-178h-727v-434h684v-174h-684v-484h758v-180h-31q-150 -145 -150 -244q0 -40 29 -68t80 -28t98 45l45 -92q-87 -74 -182 -75t-153 48q-58 48 -58 129z" />
    <glyph glyph-name="eogonek" unicode="&#x119;" horiz-adv-x="1173" 
d="M608 846q-125 0 -214 -80q-87 -81 -95 -195h578q-7 189 -155 253q-50 22 -114 22zM426 -285q0 129 149 260q-208 12 -341 153q-132 141 -132 361q0 221 144 365t360 143q217 0 341 -137t124 -366v-33q0 -16 -2 -33h-770q4 -122 96 -209q92 -86 204 -86q200 0 298 148
l135 -109q-131 -168 -336 -192q-129 -134 -129 -224q0 -40 29 -68t80 -28t98 45l45 -92q-87 -74 -181 -75q-95 -1 -153 47q-59 48 -59 130z" />
    <glyph glyph-name="Ecaron" unicode="&#x11a;" horiz-adv-x="1230" 
d="M758 1565h-219l-228 295h185l155 -203l156 203h180zM379 180h758v-180h-961v1450h930v-178h-727v-434h684v-174h-684v-484z" />
    <glyph glyph-name="ecaron" unicode="&#x11b;" horiz-adv-x="1173" 
d="M715 1155h-219l-228 295h185l155 -203l156 203h180zM614 -27q-223 0 -367 142q-145 142 -145 369q0 226 144 370t360 143q217 0 341 -137t124 -366v-33q0 -16 -2 -33h-770q4 -122 96 -209q92 -86 204 -86q200 0 298 148l135 -109q-151 -197 -418 -199zM608 846
q-125 0 -214 -80q-87 -81 -95 -195h578q-7 189 -155 253q-50 22 -114 22z" />
    <glyph glyph-name="Gcircumflex" unicode="&#x11c;" horiz-adv-x="1593" 
d="M1214 1565h-186l-154 202l-155 -202h-184l229 295h221zM878 1487q170 0 306 -51t227 -138l-141 -147q-66 72 -167 115t-227 43t-228 -46q-204 -92 -286 -312q-38 -105 -38 -225q1 -247 152 -414t407 -167q206 0 338 72v404h-322v172h522v-703q-239 -127 -563 -127
q-323 0 -538 213q-216 213 -218 551q0 170 59 310q116 280 406 395q141 55 311 55z" />
    <glyph glyph-name="gcircumflex" unicode="&#x11d;" horiz-adv-x="1294" 
d="M975 1155h-187l-153 203l-156 -203h-184l229 295h221zM301 497q0 -139 85 -239q95 -106 239 -105t237 100q92 99 91 242t-95 243t-235 100q-76 0 -136 -28q-121 -58 -165 -182q-22 -62 -21 -131zM594 -324q344 0 344 359v125h-4q-54 -82 -146 -125t-200 -43
q-216 0 -351 145t-135 356t135 358q135 146 353 146q104 0 200 -45t150 -137h4v156h186v-922q0 -375 -282 -495q-102 -46 -242 -46t-267 46q-128 46 -220 131l123 149q63 -72 158 -115q96 -43 194 -43z" />
    <glyph glyph-name="Gbreve" unicode="&#x11e;" horiz-adv-x="1593" 
d="M874 1577q-136 0 -226 71q-89 71 -99 212h115q14 -78 73 -113t140 -35t137 32q55 32 73 116h113q-12 -141 -101 -212t-225 -71zM878 1487q170 0 306 -51t227 -138l-141 -147q-66 72 -167 115t-227 43t-228 -46q-204 -92 -286 -312q-38 -105 -38 -225q1 -247 152 -414
t407 -167q206 0 338 72v404h-322v172h522v-703q-239 -127 -563 -127q-323 0 -538 213q-216 213 -218 551q0 170 59 310q116 280 406 395q141 55 311 55z" />
    <glyph glyph-name="gbreve" unicode="&#x11f;" horiz-adv-x="1294" 
d="M626 1167q-136 0 -226 71q-89 71 -99 212h115q14 -78 73 -113t141 -35t136 32q55 32 74 116h112q-12 -141 -101 -212t-225 -71zM301 497q0 -139 85 -239q95 -106 239 -105t237 100q92 99 91 242t-95 243t-235 100q-76 0 -136 -28q-121 -58 -165 -182q-22 -62 -21 -131z
M594 -324q344 0 344 359v125h-4q-54 -82 -146 -125t-200 -43q-216 0 -351 145t-135 356t135 358q135 146 353 146q104 0 200 -45t150 -137h4v156h186v-922q0 -375 -282 -495q-102 -46 -242 -46t-267 46q-128 46 -220 131l123 149q63 -72 158 -115q96 -43 194 -43z" />
    <glyph glyph-name="Gdotaccent" unicode="&#x120;" horiz-adv-x="1593" 
d="M1001 1731q0 -53 -37 -89q-38 -34 -92 -34t-90 36q-37 36 -37 88t37 88t90 36t92 -36q37 -36 37 -89zM878 1487q170 0 306 -51t227 -138l-141 -147q-66 72 -167 115t-227 43t-228 -46q-204 -92 -286 -312q-38 -105 -38 -225q1 -247 152 -414t407 -167q206 0 338 72v404
h-322v172h522v-703q-239 -127 -563 -127q-323 0 -538 213q-216 213 -218 551q0 170 59 310q116 280 406 395q141 55 311 55z" />
    <glyph glyph-name="gdotaccent" unicode="&#x121;" horiz-adv-x="1294" 
d="M778 1321q0 -53 -38 -88t-91 -35t-90 36t-37 88t37 88t90 36t91 -36t38 -89zM301 497q0 -139 85 -239q95 -106 239 -105t237 100q92 99 91 242t-95 243t-235 100q-76 0 -136 -28q-121 -58 -165 -182q-22 -62 -21 -131zM594 -324q344 0 344 359v125h-4q-54 -82 -146 -125
t-200 -43q-216 0 -351 145t-135 356t135 358q135 146 353 146q104 0 200 -45t150 -137h4v156h186v-922q0 -375 -282 -495q-102 -46 -242 -46t-267 46q-128 46 -220 131l123 149q63 -72 158 -115q96 -43 194 -43z" />
    <glyph glyph-name="Gcommaaccent" unicode="&#x122;" horiz-adv-x="1593" 
d="M844 -481h-162l131 389h191zM878 1487q170 0 306 -51t227 -138l-141 -147q-66 72 -167 115t-227 43t-228 -46q-204 -92 -286 -312q-38 -105 -38 -225q1 -247 152 -414t407 -167q206 0 338 72v404h-322v172h522v-703q-239 -127 -563 -127q-323 0 -538 213
q-216 213 -218 551q0 170 59 310q116 280 406 395q141 55 311 55z" />
    <glyph glyph-name="gcommaaccent" unicode="&#x123;" horiz-adv-x="1294" 
d="M717 1544h162l-131 -389h-191zM301 497q0 -139 85 -239q95 -106 239 -105t237 100q92 99 91 242t-95 243t-235 100q-76 0 -136 -28q-121 -58 -165 -182q-22 -62 -21 -131zM594 -324q344 0 344 359v125h-4q-54 -82 -146 -125t-200 -43q-216 0 -351 145t-135 356t135 358
q135 146 353 146q104 0 200 -45t150 -137h4v156h186v-922q0 -375 -282 -495q-102 -46 -242 -46t-267 46q-128 46 -220 131l123 149q63 -72 158 -115q96 -43 194 -43z" />
    <glyph glyph-name="Hcircumflex" unicode="&#x124;" horiz-adv-x="1492" 
d="M1085 1565h-186l-154 202l-155 -202h-184l229 295h221zM176 1450h203v-606h733v606h205v-1450h-205v664h-733v-664h-203v1450z" />
    <glyph glyph-name="hcircumflex" unicode="&#x125;" horiz-adv-x="1196" 
d="M944 1630h-186l-154 203l-155 -203h-185l230 295h221zM844 537q0 297 -219 297q-115 0 -189 -88t-74 -232v-514h-192v1548h192v-725h5q35 72 118 123t183 51q183 0 277 -111q93 -111 91 -284v-602h-192v537z" />
    <glyph glyph-name="Hbar" unicode="&#x126;" horiz-adv-x="1492" 
d="M1112 844v180h-733v-180h733zM176 1450h203v-297h733v297h205v-1450h-205v664h-733v-664h-203v1450z" />
    <glyph glyph-name="hbar" unicode="&#x127;" horiz-adv-x="1196" 
d="M844 537q0 297 -219 297q-115 0 -189 -88t-74 -232v-514h-192v1167h-111v129h111v252h192v-252h336v-129h-336v-344h5q35 72 118 123t183 51q185 0 279 -111q93 -111 91 -284v-602h-194v537z" />
    <glyph glyph-name="Itilde" unicode="&#x128;" horiz-adv-x="555" 
d="M131 1675q-69 0 -96 -94h-113q19 107 52 152q32 45 68 65q89 50 243 -20q102 -45 137 -45q71 0 98 94h111q-19 -107 -52 -152q-62 -84 -157 -86q-59 0 -155 43t-136 43zM379 0h-203v1450h203v-1450z" />
    <glyph glyph-name="itilde" unicode="&#x129;" horiz-adv-x="530" 
d="M-34 1324q62 85 145 85t165 -41q103 -45 138 -45q70 0 98 94h111q-42 -237 -209 -237q-64 0 -155 42q-90 42 -136 44q-72 0 -96 -95h-113q20 109 52 153zM360 0h-192v971h192v-971z" />
    <glyph glyph-name="Imacron" unicode="&#x12a;" horiz-adv-x="555" 
d="M578 1632h-607v137h607v-137zM379 0h-203v1450h203v-1450z" />
    <glyph glyph-name="imacron" unicode="&#x12b;" horiz-adv-x="530" 
d="M569 1223h-606v137h606v-137zM360 0h-192v971h192v-971z" />
    <glyph glyph-name="Ibreve" unicode="&#x12c;" horiz-adv-x="555" 
d="M279 1739q81 0 137 31q55 32 73 116h113q-12 -141 -101 -212q-89 -70 -225 -70t-226 70q-89 70 -99 212h115q14 -78 73 -112t140 -35zM379 0h-203v1450h203v-1450z" />
    <glyph glyph-name="ibreve" unicode="&#x12d;" horiz-adv-x="530" 
d="M263 1126q-136 0 -225 71t-99 212h114q13 -78 73 -113q60 -34 141 -34t136 32t74 115h113q-12 -141 -102 -212t-225 -71zM360 0h-192v971h192v-971z" />
    <glyph glyph-name="Iogonek" unicode="&#x12e;" horiz-adv-x="555" 
d="M465 -387q-87 -74 -181 -75q-95 -1 -153 47q-59 48 -59 142t115 216q32 33 63 57h-74v1450h203v-1450h-17q-149 -144 -149 -244q0 -40 29 -68t80 -28t98 45z" />
    <glyph glyph-name="iogonek" unicode="&#x12f;" horiz-adv-x="530" 
d="M393 1321q0 -53 -38 -88t-91 -35t-90 36t-37 88t37 88t90 36t91 -36t38 -89zM47 -285q0 108 116 228q32 33 62 57h-57v971h192v-971h-22q-150 -145 -150 -244q0 -40 29 -68t80 -28t98 45l45 -92q-87 -74 -182 -75t-153 48q-58 48 -58 129z" />
    <glyph glyph-name="Idotaccent" unicode="&#x130;" horiz-adv-x="555" 
d="M410 1731q0 -53 -38 -89t-91 -34q-53 0 -91 36q-36 36 -36 88t36 88t90 36t92 -36t38 -89zM379 0h-203v1450h203v-1450z" />
    <glyph glyph-name="dotlessi" unicode="&#x131;" horiz-adv-x="530" 
d="M360 0h-192v971h192v-971z" />
    <glyph glyph-name="Jcircumflex" unicode="&#x134;" horiz-adv-x="1013" 
d="M1087 1565h-186l-153 202l-156 -202h-184l229 295h221zM647 453v997h203v-1006q0 -316 -204 -434q-82 -47 -228 -47t-250 86t-137 221l188 54q15 -78 71 -129t130 -51q184 -1 217 189q10 56 10 120z" />
    <glyph glyph-name="jcircumflex" unicode="&#x135;" horiz-adv-x="532" 
d="M602 1155h-186l-154 203l-156 -203h-184l230 295h221zM170 -119v1090h192v-1096q0 -167 -61 -256q-76 -111 -254 -111q-38 0 -110 13l20 164q100 -24 148 5q47 29 60 110q5 38 5 81z" />
    <glyph glyph-name="Kcommaaccent" unicode="&#x136;" horiz-adv-x="1349" 
d="M659 -481h-161l131 389h190zM379 811h4l647 639h281l-705 -664l748 -786h-291l-680 750h-4v-750h-203v1450h203v-639z" />
    <glyph glyph-name="kcommaaccent" unicode="&#x137;" horiz-adv-x="1079" 
d="M522 -481h-162l132 389h190zM362 549h7l407 422h258l-454 -441l493 -530h-266l-438 504h-7v-504h-192v1548h192v-999z" />
    <glyph glyph-name="Lacute" unicode="&#x139;" horiz-adv-x="1046" 
d="M340 1565h-156l203 295h234zM379 180h647v-180h-850v1450h203v-1270z" />
    <glyph glyph-name="lacute" unicode="&#x13a;" horiz-adv-x="532" 
d="M328 1622h-158l205 295h231zM362 0h-192v1548h192v-1548z" />
    <glyph glyph-name="Lcommaaccent" unicode="&#x13b;" horiz-adv-x="1046" 
d="M567 -481h-161l131 389h190zM379 180h647v-180h-850v1450h203v-1270z" />
    <glyph glyph-name="lcommaaccent" unicode="&#x13c;" horiz-adv-x="532" 
d="M236 -481h-162l131 389h190zM362 0h-192v1548h192v-1548z" />
    <glyph glyph-name="Lcaron" unicode="&#x13d;" horiz-adv-x="1046" 
d="M631 1061h-162l131 389h191zM379 180h647v-180h-850v1450h203v-1270z" />
    <glyph glyph-name="lcaron" unicode="&#x13e;" horiz-adv-x="532" 
d="M596 1061h-162l131 389h191zM362 0h-192v1548h192v-1548z" />
    <glyph glyph-name="Ldot" unicode="&#x13f;" horiz-adv-x="1046" 
d="M920 686q0 -53 -38 -88t-91 -35t-91 36q-36 36 -36 88t36 88t90 36t92 -36t38 -89zM379 180h647v-180h-850v1450h203v-1270z" />
    <glyph glyph-name="ldot" unicode="&#x140;" horiz-adv-x="716" 
d="M745 686q1 -53 -37 -88t-92 -35t-90 36q-37 36 -37 88t37 88t90 36t91 -36t38 -89zM362 0h-192v1548h192v-1548z" />
    <glyph glyph-name="Lslash" unicode="&#x141;" horiz-adv-x="1046" 
d="M379 180h647v-180h-850v453l-156 -136v187l156 133v813h203v-662l432 377v-184l-432 -377v-424z" />
    <glyph glyph-name="lslash" unicode="&#x142;" horiz-adv-x="532" 
d="M360 0h-190v643l-154 -156v189l154 153v719h190v-565l154 156v-185l-154 -153v-801z" />
    <glyph glyph-name="Nacute" unicode="&#x143;" horiz-adv-x="1581" 
d="M801 1565h-156l203 295h233zM1202 291v1159h203v-1450h-256l-766 1184h-4v-1184h-203v1450h264l758 -1159h4z" />
    <glyph glyph-name="nacute" unicode="&#x144;" horiz-adv-x="1191" 
d="M635 1155h-158l205 295h231zM348 811h6q37 79 122 133q86 53 187 53q182 0 277 -111q94 -111 92 -284v-602h-192v539q0 297 -222 297q-116 0 -188 -87t-72 -233v-516h-192v762q0 113 -8 209h182q8 -74 8 -160z" />
    <glyph glyph-name="Ncommaaccent" unicode="&#x145;" horiz-adv-x="1581" 
d="M772 -481h-162l131 389h191zM1202 291v1159h203v-1450h-256l-766 1184h-4v-1184h-203v1450h264l758 -1159h4z" />
    <glyph glyph-name="ncommaaccent" unicode="&#x146;" horiz-adv-x="1191" 
d="M567 -481h-161l131 389h190zM348 811h6q37 79 122 133q86 53 187 53q182 0 277 -111q94 -111 92 -284v-602h-192v539q0 297 -222 297q-116 0 -188 -87t-72 -233v-516h-192v762q0 113 -8 209h182q8 -74 8 -160z" />
    <glyph glyph-name="Ncaron" unicode="&#x147;" horiz-adv-x="1581" 
d="M905 1565h-219l-227 295h184l156 -203l155 203h181zM1202 291v1159h203v-1450h-256l-766 1184h-4v-1184h-203v1450h264l758 -1159h4z" />
    <glyph glyph-name="ncaron" unicode="&#x148;" horiz-adv-x="1191" 
d="M707 1155h-220l-227 295h184l156 -203l156 203h180zM348 811h6q37 79 122 133q86 53 187 53q182 0 277 -111q94 -111 92 -284v-602h-192v539q0 297 -222 297q-116 0 -188 -87t-72 -233v-516h-192v762q0 113 -8 209h182q8 -74 8 -160z" />
    <glyph glyph-name="Omacron" unicode="&#x14c;" 
d="M1174 1632h-607v137h607v-137zM1419 726q0 241 -152 412t-398 171t-398 -171q-151 -171 -150 -414q1 -244 153 -412q152 -167 394 -167q125 0 228 45q204 92 284 310q38 106 39 226zM1638 728q0 -334 -218 -550q-218 -215 -551 -215q-334 0 -549 213q-216 213 -218 551
q0 170 58 310q114 281 402 395q140 55 306 55t308 -55q286 -110 404 -394q58 -140 58 -310z" />
    <glyph glyph-name="omacron" unicode="&#x14d;" horiz-adv-x="1249" 
d="M930 1223h-606v137h606v-137zM625 838q-79 0 -139 -29q-120 -58 -163 -188q-22 -63 -22 -133q0 -143 87 -248q86 -105 236 -105t237 104t87 249q0 146 -87 248q-88 102 -236 102zM1149 487q0 -222 -150 -368t-375 -146t-373 146q-149 146 -149 368q0 221 149 366
q149 144 372 144q224 0 375 -143q151 -145 151 -367z" />
    <glyph glyph-name="Obreve" unicode="&#x14e;" 
d="M868 1577q-136 0 -226 71q-89 71 -99 212h114q13 -78 73 -113t141 -35t137 32q55 32 73 116h113q-12 -141 -101 -212t-225 -71zM1419 726q0 241 -152 412t-398 171t-398 -171q-151 -171 -150 -414q1 -244 153 -412q152 -167 394 -167q125 0 228 45q204 92 284 310
q38 106 39 226zM1638 728q0 -334 -218 -550q-218 -215 -551 -215q-334 0 -549 213q-216 213 -218 551q0 170 58 310q114 281 402 395q140 55 306 55t308 -55q286 -110 404 -394q58 -140 58 -310z" />
    <glyph glyph-name="obreve" unicode="&#x14f;" horiz-adv-x="1249" 
d="M626 1167q-136 0 -226 71q-89 71 -99 212h115q14 -78 73 -113t141 -35t136 32q55 32 74 116h112q-12 -141 -101 -212t-225 -71zM625 838q-79 0 -139 -29q-120 -58 -163 -188q-22 -63 -22 -133q0 -143 87 -248q86 -105 236 -105t237 104t87 249q0 146 -87 248
q-88 102 -236 102zM1149 487q0 -222 -150 -368t-375 -146t-373 146q-149 146 -149 368q0 221 149 366q149 144 372 144q224 0 375 -143q151 -145 151 -367z" />
    <glyph glyph-name="Ohungarumlaut" unicode="&#x150;" 
d="M1118 1565h-157l204 295h232zM743 1565h-157l205 295h233zM1419 726q0 241 -152 412t-398 171t-398 -171q-151 -171 -150 -414q1 -244 153 -412q152 -167 394 -167q125 0 228 45q204 92 284 310q38 106 39 226zM1638 728q0 -334 -218 -550q-218 -215 -551 -215
q-334 0 -549 213q-216 213 -218 551q0 170 58 310q114 281 402 395q140 55 306 55t308 -55q286 -110 404 -394q58 -140 58 -310z" />
    <glyph glyph-name="ohungarumlaut" unicode="&#x151;" horiz-adv-x="1249" 
d="M885 1155h-158l205 295h231zM510 1155h-158l205 295h234zM625 838q-79 0 -139 -29q-120 -58 -163 -188q-22 -63 -22 -133q0 -143 87 -248q86 -105 236 -105t237 104t87 249q0 146 -87 248q-88 102 -236 102zM1149 487q0 -222 -150 -368t-375 -146t-373 146
q-149 146 -149 368q0 221 149 366q149 144 372 144q224 0 375 -143q151 -145 151 -367z" />
    <glyph glyph-name="OE" unicode="&#x152;" horiz-adv-x="2054" 
d="M926 1272q-273 0 -439 -143t-167 -399q-1 -257 168 -403q169 -147 438 -147h123v1092h-123zM1929 1450v-178h-678v-434h635v-174h-635v-484h709v-180h-1075q-139 0 -279 44q-301 95 -434 358q-70 136 -70 326t70 327q136 266 434 354q139 41 279 41h1044z" />
    <glyph glyph-name="oe" unicode="&#x153;" horiz-adv-x="1996" 
d="M1433 846q-124 0 -213 -80q-88 -82 -96 -195h580q-7 189 -157 253q-50 22 -114 22zM625 838q-77 0 -139 -29q-121 -57 -165 -188q-22 -63 -22 -133q0 -143 87 -248q88 -105 238 -105q151 0 237 104q87 104 87 249q0 146 -87 248q-88 102 -236 102zM1419 997
q338 0 445 -294q33 -93 32 -209v-33q0 -16 -2 -33h-772q8 -125 99 -210t205 -85q200 0 296 148l133 -109q-154 -199 -417 -199q-134 1 -240 57t-168 152q-64 -96 -170 -152t-230 -56q-236 -1 -382 145t-146 368t146 366t370 144q135 0 243 -57t171 -154q63 94 165 152
t222 59z" />
    <glyph glyph-name="Racute" unicode="&#x154;" horiz-adv-x="1257" 
d="M610 1565h-155l202 295h234zM379 815h233q238 0 314 124q27 44 26 110q0 120 -88 175q-88 54 -237 54h-248v-463zM379 0h-203v1450h465q225 0 371 -95q145 -95 145 -306q0 -160 -98 -258t-254 -125l405 -666h-245l-369 645h-217v-645z" />
    <glyph glyph-name="racute" unicode="&#x155;" horiz-adv-x="741" 
d="M371 1155h-158l205 295h231zM348 807h6q41 86 120 138t177 52q45 0 76 -8l-8 -178q-41 10 -99 10q-120 0 -190 -88t-72 -223v-510h-192v762q0 113 -8 209h182q8 -74 8 -164z" />
    <glyph glyph-name="Rcommaaccent" unicode="&#x156;" horiz-adv-x="1257" 
d="M616 -481h-161l131 389h190zM379 815h233q238 0 314 124q27 44 26 110q0 120 -88 175q-88 54 -237 54h-248v-463zM379 0h-203v1450h465q225 0 371 -95q145 -95 145 -306q0 -160 -98 -258t-254 -125l405 -666h-245l-369 645h-217v-645z" />
    <glyph glyph-name="rcommaaccent" unicode="&#x157;" horiz-adv-x="741" 
d="M233 -481h-161l131 389h190zM348 807h6q41 86 120 138t177 52q45 0 76 -8l-8 -178q-41 10 -99 10q-120 0 -190 -88t-72 -223v-510h-192v762q0 113 -8 209h182q8 -74 8 -164z" />
    <glyph glyph-name="Rcaron" unicode="&#x158;" horiz-adv-x="1257" 
d="M711 1565h-219l-228 295h185l155 -203l156 203h180zM379 815h233q238 0 314 124q27 44 26 110q0 120 -88 175q-88 54 -237 54h-248v-463zM379 0h-203v1450h465q225 0 371 -95q145 -95 145 -306q0 -160 -98 -258t-254 -125l405 -666h-245l-369 645h-217v-645z" />
    <glyph glyph-name="rcaron" unicode="&#x159;" horiz-adv-x="741" 
d="M545 1155h-219l-228 295h185l155 -203l156 203h180zM348 807h6q41 86 120 138t177 52q45 0 76 -8l-8 -178q-41 10 -99 10q-120 0 -190 -88t-72 -223v-510h-192v762q0 113 -8 209h182q8 -74 8 -164z" />
    <glyph glyph-name="Sacute" unicode="&#x15a;" horiz-adv-x="1165" 
d="M627 1565h-156l203 295h233zM636 1317q-135 0 -221 -62q-85 -62 -83 -174q0 -150 181 -214q54 -19 122 -41q67 -22 143 -50q163 -61 238 -193q39 -71 39 -182q0 -211 -147 -325q-147 -113 -355 -113q-137 0 -265 53t-212 158l157 133q51 -76 137 -123t162 -47
q210 0 289 136q27 46 27 112q0 118 -103 184q-62 41 -186 79q-125 38 -193 68q-240 106 -239 357q0 202 159 316q136 98 339 98q127 0 237 -45t178 -121l-143 -139q-43 59 -117 97t-144 38z" />
    <glyph glyph-name="sacute" unicode="&#x15b;" horiz-adv-x="909" 
d="M483 1155h-157l204 295h232zM598 812q-59 34 -135 34t-122 -30q-56 -32 -56 -95t55 -93q56 -30 146 -50q175 -40 261 -107t84 -184q0 -159 -119 -243q-98 -69 -268 -71q-111 0 -216 43t-175 131l137 117q39 -57 108 -96t150 -39q81 -1 121 23q72 43 72 115q0 71 -64 104
q-65 33 -152 53t-137 38t-91 48q-93 70 -93 203t107 208q107 76 236 76q267 0 376 -159l-133 -113q-33 53 -92 87z" />
    <glyph glyph-name="Scircumflex" unicode="&#x15c;" horiz-adv-x="1165" 
d="M961 1565h-187l-153 202l-156 -202h-184l229 295h221zM636 1317q-135 0 -221 -62q-85 -62 -83 -174q0 -150 181 -214q54 -19 122 -41q67 -22 143 -50q163 -61 238 -193q39 -71 39 -182q0 -211 -147 -325q-147 -113 -355 -113q-137 0 -265 53t-212 158l157 133
q51 -76 137 -123t162 -47q210 0 289 136q27 46 27 112q0 118 -103 184q-62 41 -186 79q-125 38 -193 68q-240 106 -239 357q0 202 159 316q136 98 339 98q127 0 237 -45t178 -121l-143 -139q-43 59 -117 97t-144 38z" />
    <glyph glyph-name="scircumflex" unicode="&#x15d;" horiz-adv-x="909" 
d="M817 1155h-186l-154 203l-155 -203h-185l230 295h221zM598 812q-59 34 -135 34t-122 -30q-56 -32 -56 -95t55 -93q56 -30 146 -50q175 -40 261 -107t84 -184q0 -159 -119 -243q-98 -69 -268 -71q-111 0 -216 43t-175 131l137 117q39 -57 108 -96t150 -39q81 -1 121 23
q72 43 72 115q0 71 -64 104q-65 33 -152 53t-137 38t-91 48q-93 70 -93 203t107 208q107 76 236 76q267 0 376 -159l-133 -113q-33 53 -92 87z" />
    <glyph glyph-name="Scedilla" unicode="&#x15e;" horiz-adv-x="1165" 
d="M532 137q210 0 289 136q27 46 27 112q0 118 -103 184q-62 41 -186 79q-125 38 -193 68q-240 106 -239 357q0 202 159 316q136 98 339 98q127 0 237 -45t178 -121l-143 -139q-43 59 -117 97t-144 38q-135 0 -221 -62q-85 -62 -83 -174q0 -150 181 -214q54 -19 122 -41
q67 -22 143 -50q163 -61 238 -193q39 -71 39 -177q0 -197 -121 -307q-121 -111 -301 -132l-72 -108q14 4 27 4h28q80 0 130 -35q63 -40 63 -131t-87 -140q-66 -38 -146 -38q-150 0 -238 47l41 86q76 -35 155 -35t114 43q13 16 14 43q0 75 -111 78q-37 0 -84 -14l-41 40
l102 156q-131 4 -253 57t-199 154l157 133q51 -76 137 -123t162 -47z" />
    <glyph glyph-name="scedilla" unicode="&#x15f;" horiz-adv-x="909" 
d="M298 168q69 -39 150 -39q81 -1 121 23q72 43 72 115q0 71 -64 104q-65 33 -152 53t-137 38t-91 48q-93 70 -93 203t107 208q107 76 236 76q267 0 376 -159l-133 -113q-33 53 -92 87t-135 34t-122 -30q-56 -32 -56 -95t55 -93q56 -30 146 -50q175 -40 261 -107t85 -197
q-1 -131 -102 -216q-81 -67 -234 -83l-78 -116q14 4 26 4h29q80 0 130 -35q61 -39 62 -130t-86 -141q-66 -38 -146 -38q-150 0 -238 47l41 86q76 -35 155 -35t114 43q13 16 13 43q0 75 -110 78q-37 0 -84 -14l-41 40l110 170q-217 18 -340 170l137 117q39 -57 108 -96z" />
    <glyph glyph-name="Scaron" unicode="&#x160;" horiz-adv-x="1165" 
d="M719 1565h-219l-228 295h185l155 -203l156 203h180zM636 1317q-135 0 -221 -62q-85 -62 -83 -174q0 -150 181 -214q54 -19 122 -41q67 -22 143 -50q163 -61 238 -193q39 -71 39 -182q0 -211 -147 -325q-147 -113 -355 -113q-137 0 -265 53t-212 158l157 133
q51 -76 137 -123t162 -47q210 0 289 136q27 46 27 112q0 118 -103 184q-62 41 -186 79q-125 38 -193 68q-240 106 -239 357q0 202 159 316q136 98 339 98q127 0 237 -45t178 -121l-143 -139q-43 59 -117 97t-144 38z" />
    <glyph glyph-name="scaron" unicode="&#x161;" horiz-adv-x="909" 
d="M582 1155h-220l-227 295h184l156 -203l156 203h180zM598 812q-59 34 -135 34t-122 -30q-56 -32 -56 -95t55 -93q56 -30 146 -50q175 -40 261 -107t84 -184q0 -159 -119 -243q-98 -69 -268 -71q-111 0 -216 43t-175 131l137 117q39 -57 108 -96t150 -39q81 -1 121 23
q72 43 72 115q0 71 -64 104q-65 33 -152 53t-137 38t-91 48q-93 70 -93 203t107 208q107 76 236 76q267 0 376 -159l-133 -113q-33 53 -92 87z" />
    <glyph glyph-name="Tcommaaccent" unicode="&#x162;" horiz-adv-x="1165" 
d="M481 0v1272h-465v178h1133v-178h-465v-1272h-41l-94 -141q14 4 26 4h29q80 0 130 -35q61 -39 62 -130t-86 -141q-66 -38 -146 -38q-150 0 -238 47l41 86q76 -35 155 -35t114 43q13 16 13 43q0 75 -110 78q-37 0 -84 -14l-41 40l127 193h-60z" />
    <glyph glyph-name="tcommaaccent" unicode="&#x163;" horiz-adv-x="673" 
d="M516 143q67 0 117 25l6 -158q-52 -18 -118 -24l-85 -127q14 4 27 4h29q129 0 175 -84q17 -31 17 -80q0 -93 -87 -142q-66 -38 -146 -38q-150 0 -238 47l41 86q76 -35 155 -35t114 43q13 16 14 43q0 75 -111 78q-37 0 -84 -14l-41 40l119 180q-229 31 -227 300v526h-187
v158h187v278h190v-278h258v-158h-258v-506q0 -88 33 -126t100 -38z" />
    <glyph glyph-name="Tcaron" unicode="&#x164;" horiz-adv-x="1165" 
d="M688 1565h-219l-227 295h184l156 -203l155 203h181zM684 0h-203v1272h-465v178h1133v-178h-465v-1272z" />
    <glyph glyph-name="tcaron" unicode="&#x165;" horiz-adv-x="673" 
d="M608 1108h-162l132 389h190zM193 813h-187v158h187v278h190v-278h258v-158h-258v-506q0 -88 33 -126t100 -38t117 25l6 -158q-76 -26 -164 -26q-137 0 -210 76t-72 227v526z" />
    <glyph glyph-name="Tbar" unicode="&#x166;" horiz-adv-x="1165" 
d="M481 1075v197h-465v178h1133v-178h-465v-197h334v-129h-334v-946h-203v946h-334v129h334z" />
    <glyph glyph-name="tbar" unicode="&#x167;" horiz-adv-x="673" 
d="M193 494h-168v129h168v190h-187v158h187v278h190v-278h258v-158h-258v-190h229v-129h-229v-187q0 -88 33 -126t100 -38t117 25l6 -158q-76 -26 -164 -26q-137 0 -210 76t-72 227v207z" />
    <glyph glyph-name="Utilde" unicode="&#x168;" horiz-adv-x="1458" 
d="M575 1675q-69 0 -96 -94h-112q19 109 52 153q31 44 67 64q89 50 243 -20q102 -45 137 -45q72 0 99 94h110q-19 -109 -52 -153q-61 -83 -157 -85q-60 0 -155 43q-94 43 -136 43zM729 -37q-143 0 -249 48q-211 95 -280 312q-34 103 -34 214v913h203v-901q0 -273 189 -369
q69 -35 170 -35q189 0 283 127q77 104 79 277v901h202v-913q0 -237 -137 -398q-154 -176 -426 -176z" />
    <glyph glyph-name="utilde" unicode="&#x169;" horiz-adv-x="1191" 
d="M358 1388q36 20 96 21q61 0 146 -41q103 -45 137 -45q71 0 99 94h110q-19 -109 -52 -153q-62 -84 -157 -84q-66 0 -154 42q-89 42 -137 44q-69 0 -96 -95h-112q19 109 52 153q32 44 68 64zM842 160h-4q-37 -78 -124 -132q-88 -54 -188 -54q-189 -1 -279 111
q-91 113 -89 284v602h192v-537q0 -299 221 -299q117 0 189 87t71 233v516h193v-762q0 -113 8 -209h-182q-8 74 -8 160z" />
    <glyph glyph-name="Umacron" unicode="&#x16a;" horiz-adv-x="1458" 
d="M1024 1632h-606v137h606v-137zM729 -37q-143 0 -249 48q-211 95 -280 312q-34 103 -34 214v913h203v-901q0 -273 189 -369q69 -35 170 -35q189 0 283 127q77 104 79 277v901h202v-913q0 -237 -137 -398q-154 -176 -426 -176z" />
    <glyph glyph-name="umacron" unicode="&#x16b;" horiz-adv-x="1191" 
d="M895 1223h-606v137h606v-137zM842 160h-4q-37 -78 -124 -132q-88 -54 -188 -54q-189 -1 -279 111q-91 113 -89 284v602h192v-537q0 -299 221 -299q117 0 189 87t71 233v516h193v-762q0 -113 8 -209h-182q-8 74 -8 160z" />
    <glyph glyph-name="Ubreve" unicode="&#x16c;" horiz-adv-x="1458" 
d="M730 1577q-136 0 -225 71t-99 212h114q14 -78 74 -113t140 -35q81 0 136 32t74 116h113q-11 -141 -101 -212t-226 -71zM729 -37q-143 0 -249 48q-211 95 -280 312q-34 103 -34 214v913h203v-901q0 -273 189 -369q69 -35 170 -35q189 0 283 127q77 104 79 277v901h202
v-913q0 -237 -137 -398q-154 -176 -426 -176z" />
    <glyph glyph-name="ubreve" unicode="&#x16d;" horiz-adv-x="1191" 
d="M593 1167q-136 0 -225 71t-100 212h115q13 -78 73 -113t141 -35t136 32t74 116h113q-12 -141 -102 -212t-225 -71zM842 160h-4q-37 -78 -124 -132q-88 -54 -188 -54q-189 -1 -279 111q-91 113 -89 284v602h192v-537q0 -299 221 -299q117 0 189 87t71 233v516h193v-762
q0 -113 8 -209h-182q-8 74 -8 160z" />
    <glyph glyph-name="Uring" unicode="&#x16e;" horiz-adv-x="1458" 
d="M844 1747q0 51 -36 85t-87 34t-86 -35t-35 -85t35 -84t86 -34t87 34t36 85zM928 1746q0 -87 -60 -144q-60 -58 -147 -58q-85 0 -145 58t-60 145q0 86 59 143q59 58 145 58t148 -58q60 -58 60 -144zM729 -37q-143 0 -249 48q-211 95 -280 312q-34 103 -34 214v913h203
v-901q0 -273 189 -369q69 -35 170 -35q189 0 283 127q77 104 79 277v901h202v-913q0 -237 -137 -398q-154 -176 -426 -176z" />
    <glyph glyph-name="uring" unicode="&#x16f;" horiz-adv-x="1191" 
d="M711 1336q0 50 -36 83t-84 33t-84 -33t-36 -82t36 -83t84 -34t84 34q36 32 36 82zM590 1538q86 0 146 -58t61 -144q-1 -87 -61 -144t-146 -57t-145 57q-60 57 -60 144q0 86 59 144q60 58 146 58zM842 160h-4q-37 -78 -124 -132q-88 -54 -188 -54q-189 -1 -279 111
q-91 113 -89 284v602h192v-537q0 -299 221 -299q117 0 189 87t71 233v516h193v-762q0 -113 8 -209h-182q-8 74 -8 160z" />
    <glyph glyph-name="Uhungarumlaut" unicode="&#x170;" horiz-adv-x="1458" 
d="M971 1565h-158l205 295h231zM596 1565h-158l205 295h234zM729 -37q-143 0 -249 48q-211 95 -280 312q-34 103 -34 214v913h203v-901q0 -273 189 -369q69 -35 170 -35q189 0 283 127q77 104 79 277v901h202v-913q0 -237 -137 -398q-154 -176 -426 -176z" />
    <glyph glyph-name="uhungarumlaut" unicode="&#x171;" horiz-adv-x="1191" 
d="M848 1155h-158l205 295h231zM473 1155h-158l205 295h234zM842 160h-4q-37 -78 -124 -132q-88 -54 -188 -54q-189 -1 -279 111q-91 113 -89 284v602h192v-537q0 -299 221 -299q117 0 189 87t71 233v516h193v-762q0 -113 8 -209h-182q-8 74 -8 160z" />
    <glyph glyph-name="Uogonek" unicode="&#x172;" horiz-adv-x="1458" 
d="M166 537v913h203v-901q0 -273 189 -369q69 -35 170 -35q189 0 283 127q77 104 79 277v901h202v-913q0 -217 -117 -375t-344 -191q-120 -130 -120 -215q1 -40 29 -68t78 -28t100 45l45 -92q-87 -74 -182 -75q-96 -1 -153 47t-59 130q0 120 138 250q-264 8 -402 171
q-139 164 -139 401z" />
    <glyph glyph-name="uogonek" unicode="&#x173;" horiz-adv-x="1191" 
d="M842 160h-4q-37 -78 -124 -132q-88 -54 -188 -54q-189 -1 -279 111q-91 113 -89 284v602h192v-537q0 -299 221 -299q117 0 189 87t71 233v516h193v-762q0 -113 8 -209h-88q-149 -144 -149 -244q1 -40 29 -68t79 -28t98 45l46 -92q-87 -74 -182 -75q-96 -1 -153 47
t-58 142q-1 95 127 227q34 34 67 58q-6 52 -6 148z" />
    <glyph glyph-name="Wcircumflex" unicode="&#x174;" horiz-adv-x="2023" 
d="M1356 1565h-187l-153 202l-156 -202h-184l229 295h221zM559 295h4l340 1155h223l338 -1155h4l320 1155h215l-426 -1450h-211l-352 1165h-4l-353 -1165h-211l-426 1450h220z" />
    <glyph glyph-name="wcircumflex" unicode="&#x175;" horiz-adv-x="1583" 
d="M1130 1155h-186l-153 203l-156 -203h-184l229 295h221zM238 971l219 -742h4l231 742h203l235 -742h5l219 742h202l-321 -971h-201l-239 729h-4l-238 -729h-201l-323 971h209z" />
    <glyph glyph-name="Ycircumflex" unicode="&#x176;" horiz-adv-x="1277" 
d="M983 1565h-186l-154 202l-156 -202h-184l229 295h222zM741 0h-204v627l-543 823h250l401 -655l404 655h235l-543 -823v-627z" />
    <glyph glyph-name="ycircumflex" unicode="&#x177;" horiz-adv-x="1032" 
d="M872 1155h-186l-154 203l-155 -203h-184l229 295h221zM535 209h4l268 762h205l-471 -1200q-54 -132 -107 -179q-139 -123 -356 -69l18 170q49 -17 111 -17q63 0 99 42t67 120l61 162l-416 971h215z" />
    <glyph glyph-name="Ydieresis" unicode="&#x178;" horiz-adv-x="1277" 
d="M717 1732q0 48 36 86t90 38t91 -36t37 -88t-37 -88t-91 -36t-90 38t-36 86zM319 1732q0 48 36 86t90 38t92 -36q37 -36 37 -88t-38 -88q-36 -36 -90 -36t-91 38q-36 38 -36 86zM741 0h-204v627l-543 823h250l401 -655l404 655h235l-543 -823v-627z" />
    <glyph glyph-name="Zacute" unicode="&#x179;" horiz-adv-x="1212" 
d="M618 1565h-155l203 295h233zM1145 180v-180h-1077v178l817 1094h-801v178h1049v-178l-820 -1092h832z" />
    <glyph glyph-name="zacute" unicode="&#x17a;" horiz-adv-x="946" 
d="M494 1155h-158l205 295h231zM881 162v-162h-813v158l548 655h-522v158h764v-158l-553 -651h576z" />
    <glyph glyph-name="Zdotaccent" unicode="&#x17b;" horiz-adv-x="1212" 
d="M735 1731q0 -53 -38 -89t-91 -34q-53 0 -90 36t-37 88t37 88t90 36t91 -36t38 -89zM1145 180v-180h-1077v178l817 1094h-801v178h1049v-178l-820 -1092h832z" />
    <glyph glyph-name="zdotaccent" unicode="&#x17c;" horiz-adv-x="946" 
d="M616 1321q0 -53 -38 -88t-90 -35q-54 0 -91 36t-37 88t37 88t90 36t91 -36t38 -89zM881 162v-162h-813v158l548 655h-522v158h764v-158l-553 -651h576z" />
    <glyph glyph-name="Zcaron" unicode="&#x17d;" horiz-adv-x="1212" 
d="M719 1565h-219l-228 295h185l155 -203l156 203h180zM1145 180v-180h-1077v178l817 1094h-801v178h1049v-178l-820 -1092h832z" />
    <glyph glyph-name="zcaron" unicode="&#x17e;" horiz-adv-x="946" 
d="M594 1155h-219l-228 295h185l155 -203l156 203h180zM881 162v-162h-813v158l548 655h-522v158h764v-158l-553 -651h576z" />
    <glyph glyph-name="florin" unicode="&#x192;" horiz-adv-x="1218" 
d="M967 866v-149h-265l-127 -654q-62 -348 -350 -348q-104 0 -188 49l78 146q48 -29 96 -29q49 -1 79 17q51 30 78 116q11 39 19 82l119 621h-227v149h256l51 260q42 242 197 320q58 29 130 29q123 0 230 -62l-82 -145q-56 33 -109 34q-122 2 -164 -150q-10 -40 -16 -73
l-41 -213h236z" />
    <glyph glyph-name="Ohorn" unicode="&#x1a0;" 
d="M472 313q150 -168 397 -168t398 166q152 166 152 411t-152 416q-151 171 -397 171t-401 -172q-147 -163 -147 -410q0 -246 150 -414zM1532 1520q0 72 -33 120l166 43q33 -65 33 -177t-69 -180q-69 -67 -191 -71q200 -212 200 -537q0 -324 -218 -540q-218 -215 -551 -215
q-334 0 -549 213q-216 213 -218 551q0 170 58 310q114 281 402 395q140 55 276 55q136 -1 212 -19t131 -40q56 -22 101 -40q44 -18 112 -18t103 39t35 111z" />
    <glyph glyph-name="ohorn" unicode="&#x1a1;" horiz-adv-x="1263" 
d="M301 489q0 -144 87 -249q86 -105 236 -105t238 105t87 249t-88 247q-87 102 -237 102q-149 0 -236 -102q-87 -103 -87 -247zM1296 1060q0 -112 -68 -178t-190 -71q111 -141 111 -324q0 -222 -150 -368t-375 -146t-373 146q-149 146 -149 368q0 221 149 366
q149 144 374 144q104 0 173 -25q70 -24 104 -36t71 -12q159 0 157 151q0 71 -32 121l166 43q32 -67 32 -179z" />
    <glyph glyph-name="Uhorn" unicode="&#x1af;" horiz-adv-x="1478" 
d="M1227 1450q159 0 157 148q0 70 -32 124l166 43q32 -68 32 -180t-68 -179t-190 -71v-798q0 -237 -137 -398q-154 -176 -426 -176t-426 176q-137 157 -137 398v913h203v-901q0 -273 189 -369q69 -35 170 -35q188 0 283 126q77 102 79 278v901h137z" />
    <glyph glyph-name="uhorn" unicode="&#x1b0;" horiz-adv-x="1222" 
d="M842 160h-4q-37 -78 -124 -132q-88 -54 -188 -54q-189 -1 -279 111q-91 113 -89 284v602h192v-537q0 -299 221 -299q117 0 189 87t71 233v516h127q160 0 160 151q0 68 -33 121l166 43q33 -68 33 -180t-69 -180q-69 -66 -191 -70v-647q0 -113 8 -209h-182q-8 74 -8 160z
" />
    <glyph glyph-name="clickdental" unicode="&#x1c0;" horiz-adv-x="454" 
d="M311 1536v-2048h-168v2048h168z" />
    <glyph glyph-name="clicklateral" unicode="&#x1c1;" horiz-adv-x="909" 
d="M766 1536v-2048h-168v2048h168zM311 1536v-2048h-168v2048h168z" />
    <glyph glyph-name="clickretroflex" unicode="&#x1c3;" horiz-adv-x="684" 
d="M479 124q0 -54 -39 -95t-97 -41t-98 40t-40 94t39 94t98 40t98 -39t39 -93zM442 424h-202v1026h202v-1026z" />
    <glyph glyph-name="DZcaron" unicode="&#x1c4;" horiz-adv-x="3282" 
d="M2273 1604h-219l-227 294h184l156 -202l155 202h181zM2703 180v-180h-1077v178l817 1094h-801v178h1049v-178l-819 -1092h831zM379 178h254q270 0 438 146t168 405t-168 402t-438 143h-254v-1096zM176 1450h498q312 0 530 -170q252 -196 252 -555q0 -187 -70 -323
t-182 -225t-252 -133q-139 -44 -278 -44h-498v1450z" />
    <glyph glyph-name="Dzcaron" unicode="&#x1c5;" horiz-adv-x="3016" 
d="M2140 1126h-219l-227 295h184l156 -202l155 202h181zM2439 162v-162h-813v158l549 655h-522v158h764v-158l-553 -651h575zM379 178h254q270 0 438 146t168 405t-168 402t-438 143h-254v-1096zM176 1450h498q312 0 530 -170q252 -196 252 -555q0 -187 -70 -323t-182 -225
t-252 -133q-139 -44 -278 -44h-498v1450z" />
    <glyph glyph-name="dzcaron" unicode="&#x1c6;" horiz-adv-x="2758" 
d="M1882 1126h-219l-227 295h184l156 -202l155 202h180zM2181 162v-162h-813v158l549 655h-522v158h764v-158l-553 -651h575zM388 238q87 -104 232 -103q145 0 239 104q93 104 92 246q-1 141 -93 247t-239 106t-232 -102q-86 -102 -86 -248t87 -250zM586 -27
q-216 0 -351 149t-135 365t135 363t353 147q119 0 207 -50t139 -122h4v723h192v-1548h-186v154h-4q-55 -88 -150 -134t-204 -47z" />
    <glyph glyph-name="LJ" unicode="&#x1c7;" horiz-adv-x="2060" 
d="M1694 1450h202v-1006q0 -316 -203 -434q-81 -47 -227 -47t-252 86q-104 86 -137 221l189 54q16 -78 71 -129t129 -51q186 -1 217 189q10 56 11 120v997zM379 180h647v-180h-850v1450h203v-1270z" />
    <glyph glyph-name="Lj" unicode="&#x1c8;" horiz-adv-x="1579" 
d="M1442 1321q0 -53 -38 -88t-91 -35t-91 36t-38 88t38 88t91 36t91 -36t38 -89zM1217 971h192v-1096q0 -167 -61 -256q-76 -111 -254 -111q-40 0 -111 13l21 164q145 -35 188 50q23 45 25 146v1090zM379 180h647v-180h-850v1450h203v-1270z" />
    <glyph glyph-name="lj" unicode="&#x1c9;" horiz-adv-x="1064" 
d="M928 1321q0 -53 -38 -88t-91 -35t-91 36t-38 88t38 88t91 36t91 -36t38 -89zM702 -119v1090h193v-1096q0 -167 -61 -256q-76 -111 -254 -111q-40 0 -111 13l20 164q146 -36 189 50q24 48 24 146zM362 0h-192v1548h192v-1548z" />
    <glyph glyph-name="NJ" unicode="&#x1ca;" horiz-adv-x="2594" 
d="M2228 453v997h203v-1006q0 -316 -204 -434q-81 -47 -227 -47t-251 86q-104 86 -137 221l188 54q16 -78 72 -129t129 -51q184 -1 217 189q10 56 10 120zM1202 291v1159h203v-1450h-256l-766 1184h-4v-1184h-203v1450h264l758 -1159h4z" />
    <glyph glyph-name="Nj" unicode="&#x1cb;" horiz-adv-x="2113" 
d="M1976 1321q0 -53 -38 -88t-91 -35t-91 36t-38 88t38 88t91 36t91 -36t38 -89zM1751 -119v1090h193v-1096q0 -259 -158 -337q-61 -30 -129 -30t-139 13l20 164q148 -36 188 50q25 50 25 146zM1202 291v1159h203v-1450h-256l-766 1184h-4v-1184h-203v1450h264l758 -1159h4z
" />
    <glyph glyph-name="nj" unicode="&#x1cc;" horiz-adv-x="1724" 
d="M1587 1321q0 -53 -38 -88t-91 -35t-91 36t-38 88t38 88t91 36t91 -36t38 -89zM1362 -119v1090h192v-1096q0 -167 -61 -256q-76 -111 -254 -111q-36 0 -111 13l21 164q100 -24 148 5q47 29 60 110q5 38 5 81zM348 811h6q37 79 122 133q86 53 187 53q182 0 277 -111
q94 -111 92 -284v-602h-192v539q0 297 -222 297q-116 0 -188 -87t-72 -233v-516h-192v762q0 113 -8 209h182q8 -74 8 -160z" />
    <glyph glyph-name="Acaron" unicode="&#x1cd;" horiz-adv-x="1456" 
d="M836 1604h-220l-227 294h184l156 -202l156 202h180zM453 535h542l-270 679zM236 0h-226l629 1450h184l623 -1450h-229l-148 356h-688z" />
    <glyph glyph-name="acaron" unicode="&#x1ce;" horiz-adv-x="1110" 
d="M639 1153h-219l-227 295h184l155 -203l156 203h180zM723 463q-187 -1 -268 -25q-82 -24 -123 -61t-41 -89t17 -81q47 -80 181 -80q135 0 208 81t73 204v51h-47zM94 274q0 282 432 318q121 10 244 10v27q0 109 -65 161t-161 52q-176 0 -290 -113l-102 123q154 145 397 145
q201 0 304 -107t101 -274v-423q0 -135 15 -193h-174q-16 70 -17 139h-6q-111 -164 -326 -164q-135 0 -233 66q-119 82 -119 233z" />
    <glyph glyph-name="Icaron" unicode="&#x1cf;" horiz-adv-x="555" 
d="M385 1604h-219l-227 294h184l156 -202l155 202h180zM379 0h-203v1450h203v-1450z" />
    <glyph glyph-name="icaron" unicode="&#x1d0;" horiz-adv-x="530" 
d="M373 1126h-219l-228 295h185l155 -202l156 202h180zM360 0h-192v971h192v-971z" />
    <glyph glyph-name="Ocaron" unicode="&#x1d1;" 
d="M979 1640h-219l-228 295h185l155 -202l156 202h180zM1419 726q0 241 -152 412t-398 171t-398 -171q-151 -171 -150 -414q1 -244 153 -412q152 -167 394 -167q125 0 228 45q204 92 284 310q38 106 39 226zM1638 728q0 -334 -218 -550q-218 -215 -551 -215q-334 0 -549 213
q-216 213 -218 551q0 170 58 310q114 281 402 395q140 55 306 55t308 -55q286 -110 404 -394q58 -140 58 -310z" />
    <glyph glyph-name="ocaron" unicode="&#x1d2;" horiz-adv-x="1249" 
d="M733 1153h-219l-227 295h184l156 -203l155 203h181zM625 838q-79 0 -139 -29q-120 -58 -163 -188q-22 -63 -22 -133q0 -143 87 -248q86 -105 236 -105t237 104t87 249q0 146 -87 248q-88 102 -236 102zM1149 487q0 -222 -150 -368t-375 -146t-373 146q-149 146 -149 368
q0 221 149 366q149 144 372 144q224 0 375 -143q151 -145 151 -367z" />
    <glyph glyph-name="Ucaron" unicode="&#x1d3;" horiz-adv-x="1458" 
d="M838 1604h-220l-227 294h184l156 -202l156 202h180zM729 -37q-143 0 -249 48q-211 95 -280 312q-34 103 -34 214v913h203v-901q0 -273 189 -369q69 -35 170 -35q189 0 283 127q77 104 79 277v901h202v-913q0 -237 -137 -398q-154 -176 -426 -176z" />
    <glyph glyph-name="ucaron" unicode="&#x1d4;" horiz-adv-x="1191" 
d="M702 1126h-219l-227 295h184l156 -202l156 202h180zM842 160h-4q-37 -78 -124 -132q-88 -54 -188 -54q-189 -1 -279 111q-91 113 -89 284v602h192v-537q0 -299 221 -299q117 0 189 87t71 233v516h193v-762q0 -113 8 -209h-182q-8 74 -8 160z" />
    <glyph glyph-name="Udieresismacron" unicode="&#x1d5;" horiz-adv-x="1458" 
d="M1032 2005h-606v137h606v-137zM801 1727q0 49 36 87t90 38t91 -36t37 -88t-37 -89q-37 -35 -91 -35t-90 38t-36 85zM403 1727q0 49 36 87t90 38t92 -36q37 -36 37 -88t-38 -89q-36 -35 -90 -35t-91 38q-36 38 -36 85zM729 -37q-143 0 -249 48q-211 95 -280 312
q-34 103 -34 214v913h203v-901q0 -273 189 -369q69 -35 170 -35q189 0 283 127q77 104 79 277v901h202v-913q0 -237 -137 -398q-154 -176 -426 -176z" />
    <glyph glyph-name="udieresismacron" unicode="&#x1d6;" horiz-adv-x="1191" 
d="M897 1526h-606v137h606v-137zM666 1250q0 48 35 86q37 38 91 38t91 -36t37 -88t-37 -88t-91 -36t-91 38q-35 38 -35 86zM268 1250q0 48 36 86t90 38t91 -36t37 -88t-37 -88t-91 -36t-90 38t-36 86zM842 160h-4q-37 -78 -124 -132q-88 -54 -188 -54q-189 -1 -279 111
q-91 113 -89 284v602h192v-537q0 -299 221 -299q117 0 189 87t71 233v516h193v-762q0 -113 8 -209h-182q-8 74 -8 160z" />
    <glyph glyph-name="Udieresisacute" unicode="&#x1d7;" horiz-adv-x="1458" 
d="M670 2005h-158l205 295h231zM801 1727q0 49 36 87t90 38t91 -36t37 -88t-37 -89q-37 -35 -91 -35t-90 38t-36 85zM403 1727q0 49 36 87t90 38t92 -36q37 -36 37 -88t-38 -89q-36 -35 -90 -35t-91 38q-36 38 -36 85zM729 -37q-143 0 -249 48q-211 95 -280 312
q-34 103 -34 214v913h203v-901q0 -273 189 -369q69 -35 170 -35q189 0 283 127q77 104 79 277v901h202v-913q0 -237 -137 -398q-154 -176 -426 -176z" />
    <glyph glyph-name="udieresisacute" unicode="&#x1d8;" horiz-adv-x="1191" 
d="M535 1526h-158l205 295h231zM666 1250q0 48 35 86q37 38 91 38t91 -36t37 -88t-37 -88t-91 -36t-91 38q-35 38 -35 86zM268 1250q0 48 36 86t90 38t91 -36t37 -88t-37 -88t-91 -36t-90 38t-36 86zM842 160h-4q-37 -78 -124 -132q-88 -54 -188 -54q-189 -1 -279 111
q-91 113 -89 284v602h192v-537q0 -299 221 -299q117 0 189 87t71 233v516h193v-762q0 -113 8 -209h-182q-8 74 -8 160z" />
    <glyph glyph-name="Udieresiscaron" unicode="&#x1d9;" horiz-adv-x="1458" 
d="M838 2005h-220l-227 295h184l156 -203l156 203h180zM801 1727q0 49 36 87t90 38t91 -36t37 -88t-37 -89q-37 -35 -91 -35t-90 38t-36 85zM403 1727q0 49 36 87t90 38t92 -36q37 -36 37 -88t-38 -89q-36 -35 -90 -35t-91 38q-36 38 -36 85zM729 -37q-143 0 -249 48
q-211 95 -280 312q-34 103 -34 214v913h203v-901q0 -273 189 -369q69 -35 170 -35q189 0 283 127q77 104 79 277v901h202v-913q0 -237 -137 -398q-154 -176 -426 -176z" />
    <glyph glyph-name="udieresiscaron" unicode="&#x1da;" horiz-adv-x="1191" 
d="M702 1526h-219l-227 295h184l156 -203l156 203h180zM666 1250q0 48 35 86q37 38 91 38t91 -36t37 -88t-37 -88t-91 -36t-91 38q-35 38 -35 86zM268 1250q0 48 36 86t90 38t91 -36t37 -88t-37 -88t-91 -36t-90 38t-36 86zM842 160h-4q-37 -78 -124 -132q-88 -54 -188 -54
q-189 -1 -279 111q-91 113 -89 284v602h192v-537q0 -299 221 -299q117 0 189 87t71 233v516h193v-762q0 -113 8 -209h-182q-8 74 -8 160z" />
    <glyph glyph-name="Udieresisgrave" unicode="&#x1db;" horiz-adv-x="1458" 
d="M512 2300h231l205 -295h-157zM801 1727q0 49 36 87t90 38t91 -36t37 -88t-37 -89q-37 -35 -91 -35t-90 38t-36 85zM403 1727q0 49 36 87t90 38t92 -36q37 -36 37 -88t-38 -89q-36 -35 -90 -35t-91 38q-36 38 -36 85zM729 -37q-143 0 -249 48q-211 95 -280 312
q-34 103 -34 214v913h203v-901q0 -273 189 -369q69 -35 170 -35q189 0 283 127q77 104 79 277v901h202v-913q0 -237 -137 -398q-154 -176 -426 -176z" />
    <glyph glyph-name="udieresisgrave" unicode="&#x1dc;" horiz-adv-x="1191" 
d="M377 1821h231l205 -295h-158zM666 1250q0 48 35 86q37 38 91 38t91 -36t37 -88t-37 -88t-91 -36t-91 38q-35 38 -35 86zM268 1250q0 48 36 86t90 38t91 -36t37 -88t-37 -88t-91 -36t-90 38t-36 86zM842 160h-4q-37 -78 -124 -132q-88 -54 -188 -54q-189 -1 -279 111
q-91 113 -89 284v602h192v-537q0 -299 221 -299q117 0 189 87t71 233v516h193v-762q0 -113 8 -209h-182q-8 74 -8 160z" />
    <glyph glyph-name="Adieresismacron" unicode="&#x1de;" horiz-adv-x="1456" 
d="M1030 2005h-606v137h606v-137zM799 1727q0 49 36 87t90 38t91 -36t37 -88t-37 -89q-37 -35 -91 -35t-90 38t-36 85zM401 1727q0 49 36 87t90 38t91 -36t37 -88t-37 -89q-37 -35 -91 -35t-90 38t-36 85zM453 535h542l-270 679zM236 0h-226l629 1450h184l623 -1450h-229
l-148 356h-688z" />
    <glyph glyph-name="adieresismacron" unicode="&#x1df;" horiz-adv-x="1110" 
d="M834 1552h-607v138h607v-138zM602 1277q0 48 36 86t90 38t91 -36t37 -88t-37 -88t-91 -36t-90 38t-36 86zM205 1277q0 48 36 86t90 38t91 -36t37 -88t-37 -88t-91 -36t-90 38t-36 86zM723 463q-187 -1 -268 -25q-82 -24 -123 -61t-41 -89t17 -81q47 -80 181 -80
q135 0 208 81t73 204v51h-47zM94 274q0 282 432 318q121 10 244 10v27q0 109 -65 161t-161 52q-176 0 -290 -113l-102 123q154 145 397 145q201 0 304 -107t101 -274v-423q0 -135 15 -193h-174q-16 70 -17 139h-6q-111 -164 -326 -164q-135 0 -233 66q-119 82 -119 233z" />
    <glyph glyph-name="Adotmacron" unicode="&#x1e0;" horiz-adv-x="1456" 
d="M1030 2005h-606v137h606v-137zM856 1726q0 -53 -38 -88q-38 -34 -91 -34t-90 36t-37 87q0 53 37 89t90 36t91 -37q38 -36 38 -89zM453 535h542l-270 679zM236 0h-226l629 1450h184l623 -1450h-229l-148 356h-688z" />
    <glyph glyph-name="adotmacron" unicode="&#x1e1;" horiz-adv-x="1110" 
d="M834 1552h-607v138h607v-138zM659 1276q1 -53 -37 -88t-92 -35t-90 36q-37 36 -37 88t37 88t90 36t91 -36t38 -89zM723 463q-187 -1 -268 -25q-82 -24 -123 -61t-41 -89t17 -81q47 -80 181 -80q135 0 208 81t73 204v51h-47zM94 274q0 282 432 318q121 10 244 10v27
q0 109 -65 161t-161 52q-176 0 -290 -113l-102 123q154 145 397 145q201 0 304 -107t101 -274v-423q0 -135 15 -193h-174q-16 70 -17 139h-6q-111 -164 -326 -164q-135 0 -233 66q-119 82 -119 233z" />
    <glyph glyph-name="AEmacron" unicode="&#x1e2;" horiz-adv-x="2078" 
d="M1296 1604h-606v137h606v-137zM1073 569v703h-29l-444 -703h473zM1276 180h709v-180h-912v393h-579l-248 -393h-242l936 1450h1014v-178h-678v-434h635v-174h-635v-484z" />
    <glyph glyph-name="aemacron" unicode="&#x1e3;" horiz-adv-x="1796" 
d="M1198 1153h-606v137h606v-137zM94 261q0 187 188 256q141 54 488 54v23q0 137 -65 192q-65 56 -161 56q-176 1 -290 -113l-102 123q154 145 408 145t329 -180q128 180 347 180t340 -137q120 -137 120 -366v-33q0 -16 -2 -33h-746q4 -123 93 -210q89 -85 199 -85
q191 0 288 148l129 -109q-147 -197 -404 -199q-129 1 -233 53t-162 148q-106 -199 -412 -199q-226 0 -318 141q-34 52 -34 145zM1503 571q0 120 -69 197q-69 78 -189 78q-119 0 -208 -80q-87 -81 -91 -195h557zM717 428q-212 0 -286 -22t-107 -52q-33 -31 -33 -78
q0 -46 17 -74q47 -77 183 -77q135 0 205 68t70 184v51h-49z" />
    <glyph glyph-name="Gcaron" unicode="&#x1e6;" horiz-adv-x="1593" 
d="M870 1640h-219l-227 295h184l156 -202l156 202h180zM878 1487q170 0 306 -51t227 -138l-141 -147q-66 72 -167 115t-227 43t-228 -46q-204 -92 -286 -312q-38 -105 -38 -225q1 -247 152 -414t407 -167q206 0 338 72v404h-322v172h522v-703q-239 -127 -563 -127
q-323 0 -538 213q-216 213 -218 551q0 170 59 310q116 280 406 395q141 55 311 55z" />
    <glyph glyph-name="gcaron" unicode="&#x1e7;" horiz-adv-x="1294" 
d="M725 1153h-219l-227 295h184l155 -203l156 203h180zM301 497q0 -139 85 -239q95 -106 239 -105t237 100q92 99 91 242t-95 243t-235 100q-76 0 -136 -28q-121 -58 -165 -182q-22 -62 -21 -131zM594 -324q344 0 344 359v125h-4q-54 -82 -146 -125t-200 -43
q-216 0 -351 145t-135 356t135 358q135 146 353 146q104 0 200 -45t150 -137h4v156h186v-922q0 -375 -282 -495q-102 -46 -242 -46t-267 46q-128 46 -220 131l123 149q63 -72 158 -115q96 -43 194 -43z" />
    <glyph glyph-name="Kcaron" unicode="&#x1e8;" horiz-adv-x="1349" 
d="M872 1604h-219l-227 294h184l156 -202l156 202h180zM379 811h4l647 639h281l-705 -664l748 -786h-291l-680 750h-4v-750h-203v1450h203v-639z" />
    <glyph glyph-name="kcaron" unicode="&#x1e9;" horiz-adv-x="1079" 
d="M729 1702h-219l-227 295h184l156 -203l155 203h180zM362 549h7l407 422h258l-454 -441l493 -530h-266l-438 504h-7v-504h-192v1548h192v-999z" />
    <glyph glyph-name="Oogonek" unicode="&#x1ea;" 
d="M674 -332q0 111 128 239q32 32 64 56q-331 0 -546 213q-216 213 -218 551q0 170 58 310q114 281 402 395q140 55 306 55t308 -55q286 -111 404 -395q58 -140 58 -309q0 -334 -219 -551q-196 -194 -488 -212h48q-164 -153 -164 -256q0 -41 29 -69t80 -27q51 0 98 45
l45 -92q-87 -74 -181 -75q-95 -1 -153 47q-59 48 -59 130zM1419 726q0 241 -152 412t-398 171t-398 -171q-151 -171 -150 -414q1 -244 153 -412q152 -167 394 -167q125 0 228 45q204 92 284 310q38 106 39 226z" />
    <glyph glyph-name="oogonek" unicode="&#x1eb;" horiz-adv-x="1249" 
d="M428 -322q0 107 128 239q32 32 64 56q-223 2 -370 147q-148 145 -148 367q0 221 149 366q149 144 372 144q224 0 375 -143q151 -145 151 -367t-141 -359t-333 -153h58q-161 -150 -164 -256q0 -41 29 -69t80 -27q51 0 98 45l45 -92q-87 -74 -180 -75t-153 47t-60 130z
M625 838q-79 0 -139 -29q-120 -58 -163 -188q-22 -63 -22 -133q0 -143 87 -248q86 -105 236 -105t237 104t87 249q0 146 -87 248q-88 102 -236 102z" />
    <glyph glyph-name="Oogonekmacron" unicode="&#x1ec;" 
d="M1174 1640h-607v138h607v-138zM674 -332q0 111 128 239q32 32 64 56q-331 0 -546 213q-216 213 -218 551q0 170 58 310q114 281 402 395q140 55 306 55t308 -55q286 -111 404 -395q58 -140 58 -309q0 -334 -219 -551q-196 -194 -488 -212h48q-164 -153 -164 -256
q0 -41 29 -69t80 -27q51 0 98 45l45 -92q-87 -74 -181 -75q-95 -1 -153 47q-59 48 -59 130zM1419 726q0 241 -152 412t-398 171t-398 -171q-151 -171 -150 -414q1 -244 153 -412q152 -167 394 -167q125 0 228 45q204 92 284 310q38 106 39 226z" />
    <glyph glyph-name="oogonekmacron" unicode="&#x1ed;" horiz-adv-x="1249" 
d="M928 1153h-606v137h606v-137zM428 -322q0 107 128 239q32 32 64 56q-223 2 -370 147q-148 145 -148 367q0 221 149 366q149 144 372 144q224 0 375 -143q151 -145 151 -367t-141 -359t-333 -153h58q-161 -150 -164 -256q0 -41 29 -69t80 -27q51 0 98 45l45 -92
q-87 -74 -180 -75t-153 47t-60 130zM625 838q-79 0 -139 -29q-120 -58 -163 -188q-22 -63 -22 -133q0 -143 87 -248q86 -105 236 -105t237 104t87 249q0 146 -87 248q-88 102 -236 102z" />
    <glyph glyph-name="DZ" unicode="&#x1f1;" horiz-adv-x="2770" 
d="M2703 180v-180h-1077v178l817 1094h-801v178h1049v-178l-819 -1092h831zM379 178h254q270 0 438 146t168 405t-168 402t-438 143h-254v-1096zM176 1450h498q312 0 530 -170q252 -196 252 -555q0 -187 -70 -323t-182 -225t-252 -133q-139 -44 -278 -44h-498v1450z" />
    <glyph glyph-name="Dz" unicode="&#x1f2;" horiz-adv-x="2504" 
d="M2439 162v-162h-813v158l549 655h-522v158h764v-158l-553 -651h575zM379 178h254q270 0 438 146t168 405t-168 402t-438 143h-254v-1096zM176 1450h498q312 0 530 -170q252 -196 252 -555q0 -187 -70 -323t-182 -225t-252 -133q-139 -44 -278 -44h-498v1450z" />
    <glyph glyph-name="dz" unicode="&#x1f3;" horiz-adv-x="2246" 
d="M2181 162v-162h-813v158l549 655h-522v158h764v-158l-553 -651h575zM388 238q87 -104 232 -103q145 0 239 104q93 104 92 246q-1 141 -93 247t-239 106t-232 -102q-86 -102 -86 -248t87 -250zM586 -27q-216 0 -351 149t-135 365t135 363t353 147q119 0 207 -50t139 -122
h4v723h192v-1548h-186v154h-4q-55 -88 -150 -134t-204 -47z" />
    <glyph glyph-name="Gacute" unicode="&#x1f4;" horiz-adv-x="1593" 
d="M702 1640h-157l205 295h231zM878 1487q170 0 306 -51t227 -138l-141 -147q-66 72 -167 115t-227 43t-228 -46q-204 -92 -286 -312q-38 -105 -38 -225q1 -247 152 -414t407 -167q206 0 338 72v404h-322v172h522v-703q-239 -127 -563 -127q-323 0 -538 213
q-216 213 -218 551q0 170 59 310q116 280 406 395q141 55 311 55z" />
    <glyph glyph-name="gacute" unicode="&#x1f5;" horiz-adv-x="1294" 
d="M557 1153h-158l205 295h232zM301 497q0 -139 85 -239q95 -106 239 -105t237 100q92 99 91 242t-95 243t-235 100q-76 0 -136 -28q-121 -58 -165 -182q-22 -62 -21 -131zM594 -324q344 0 344 359v125h-4q-54 -82 -146 -125t-200 -43q-216 0 -351 145t-135 356t135 358
q135 146 353 146q104 0 200 -45t150 -137h4v156h186v-922q0 -375 -282 -495q-102 -46 -242 -46t-267 46q-128 46 -220 131l123 149q63 -72 158 -115q96 -43 194 -43z" />
    <glyph glyph-name="Ngrave" unicode="&#x1f8;" horiz-adv-x="1581" 
d="M573 1898h232l205 -294h-158zM1202 291v1159h203v-1450h-256l-766 1184h-4v-1184h-203v1450h264l758 -1159h4z" />
    <glyph glyph-name="ngrave" unicode="&#x1f9;" horiz-adv-x="1191" 
d="M377 1448h231l205 -295h-158zM348 811h6q37 79 122 133q86 53 187 53q182 0 277 -111q94 -111 92 -284v-602h-192v539q0 297 -222 297q-116 0 -188 -87t-72 -233v-516h-192v762q0 113 -8 209h182q8 -74 8 -160z" />
    <glyph glyph-name="Aringacute" unicode="&#x1fa;" horiz-adv-x="1456" 
d="M668 2161h-158l205 295h231zM848 1805q0 50 -36 83t-84 33t-84 -33t-36 -82t36 -83q36 -33 84 -33t84 32t36 83zM727 2007q87 1 147 -57t60 -145t-60 -144t-148 -57q-86 0 -144 57t-59 144t59 145t145 57zM453 535h542l-270 679zM236 0h-226l629 1450h184l623 -1450h-229
l-148 356h-688z" />
    <glyph glyph-name="aringacute" unicode="&#x1fb;" horiz-adv-x="1110" 
d="M471 1708h-158l205 295h232zM651 1353q0 50 -36 83q-36 32 -84 32t-84 -32q-35 -32 -35 -82q0 -49 36 -83t83 -34q48 0 84 33t36 83zM530 1554q86 0 146 -57t61 -144q0 -87 -60 -145t-146 -57q-86 0 -145 57q-60 57 -60 145q0 87 59 144t145 57zM723 463
q-187 -1 -268 -25q-82 -24 -123 -61t-41 -89t17 -81q47 -80 181 -80q135 0 208 81t73 204v51h-47zM94 274q0 282 432 318q121 10 244 10v27q0 109 -65 161t-161 52q-176 0 -290 -113l-102 123q154 145 397 145q201 0 304 -107t101 -274v-423q0 -135 15 -193h-174
q-16 70 -17 139h-6q-111 -164 -326 -164q-135 0 -233 66q-119 82 -119 233z" />
    <glyph glyph-name="AEacute" unicode="&#x1fc;" horiz-adv-x="2078" 
d="M934 1604h-158l205 294h231zM1073 569v703h-29l-444 -703h473zM1276 180h709v-180h-912v393h-579l-248 -393h-242l936 1450h1014v-178h-678v-434h635v-174h-635v-484z" />
    <glyph glyph-name="aeacute" unicode="&#x1fd;" horiz-adv-x="1796" 
d="M836 1153h-158l205 295h231zM94 261q0 187 188 256q141 54 488 54v23q0 137 -65 192q-65 56 -161 56q-176 1 -290 -113l-102 123q154 145 408 145t329 -180q128 180 347 180t340 -137q120 -137 120 -366v-33q0 -16 -2 -33h-746q4 -123 93 -210q89 -85 199 -85
q191 0 288 148l129 -109q-147 -197 -404 -199q-129 1 -233 53t-162 148q-106 -199 -412 -199q-226 0 -318 141q-34 52 -34 145zM1503 571q0 120 -69 197q-69 78 -189 78q-119 0 -208 -80q-87 -81 -91 -195h557zM717 428q-212 0 -286 -22t-107 -52q-33 -31 -33 -78
q0 -46 17 -74q47 -77 183 -77q135 0 205 68t70 184v51h-49z" />
    <glyph glyph-name="Oslashacute" unicode="&#x1fe;" 
d="M811 1673h-158l205 295h232zM868 141q249 0 403 167t154 409t-127 397l-784 -848q144 -125 354 -125zM868 1311q-249 0 -401 -167t-152 -403q0 -237 117 -385l780 842q-134 113 -344 113zM1432 1264q206 -210 206 -539t-215 -543q-215 -213 -555 -219q-283 0 -487 162
l-166 -178l-88 80l166 180q-189 201 -191 520q0 170 58 310q114 281 402 395q140 55 306 55q276 0 471 -146l166 179l88 -80z" />
    <glyph glyph-name="oslashacute" unicode="&#x1ff;" horiz-adv-x="1249" 
d="M565 1190h-157l204 295h232zM868 236q90 107 89 242t-60 214l-481 -491q84 -72 223 -72t229 107zM831 772q-74 70 -216 71t-232 -106t-89 -244t58 -214zM1026 821q123 -142 123 -351q0 -208 -151 -353q-151 -144 -355 -144q-205 0 -344 105l-139 -141l-74 73l135 140
q-119 138 -119 348t149 355q149 144 356 144q208 0 341 -104l139 143l76 -71z" />
    <glyph glyph-name="Adblgrave" unicode="&#x200;" horiz-adv-x="1456" 
d="M315 1898h232l205 -294h-158zM705 1898h231l205 -294h-158zM453 535h542l-270 679zM236 0h-226l629 1450h184l623 -1450h-229l-148 356h-688z" />
    <glyph glyph-name="adblgrave" unicode="&#x201;" horiz-adv-x="1110" 
d="M119 1448h231l205 -295h-158zM508 1448h231l205 -295h-158zM723 463q-187 -1 -268 -25q-82 -24 -123 -61t-41 -89t17 -81q47 -80 181 -80q135 0 208 81t73 204v51h-47zM94 274q0 282 432 318q121 10 244 10v27q0 109 -65 161t-161 52q-176 0 -290 -113l-102 123
q154 145 397 145q201 0 304 -107t101 -274v-423q0 -135 15 -193h-174q-16 70 -17 139h-6q-111 -164 -326 -164q-135 0 -233 66q-119 82 -119 233z" />
    <glyph glyph-name="Ainvertedbreve" unicode="&#x202;" horiz-adv-x="1456" 
d="M730 1739q81 -1 136 31t74 116h113q-11 -141 -101 -212q-90 -70 -226 -70t-225 70t-100 212h115q14 -78 74 -112t140 -35zM453 535h542l-270 679zM236 0h-226l629 1450h184l623 -1450h-229l-148 356h-688z" />
    <glyph glyph-name="ainvertedbreve" unicode="&#x203;" horiz-adv-x="1110" 
d="M530 1153q-136 0 -226 71q-89 71 -99 212h114q13 -78 73 -113t141 -35t137 32q55 32 73 116h113q-12 -141 -101 -212t-225 -71zM723 463q-187 -1 -268 -25q-82 -24 -123 -61t-41 -89t17 -81q47 -80 181 -80q135 0 208 81t73 204v51h-47zM94 274q0 282 432 318
q121 10 244 10v27q0 109 -65 161t-161 52q-176 0 -290 -113l-102 123q154 145 397 145q201 0 304 -107t101 -274v-423q0 -135 15 -193h-174q-16 70 -17 139h-6q-111 -164 -326 -164q-135 0 -233 66q-119 82 -119 233z" />
    <glyph glyph-name="Edblgrave" unicode="&#x204;" horiz-adv-x="1230" 
d="M244 1898h231l205 -294h-158zM633 1898h231l205 -294h-158zM379 180h758v-180h-961v1450h930v-178h-727v-434h684v-174h-684v-484z" />
    <glyph glyph-name="edblgrave" unicode="&#x205;" horiz-adv-x="1173" 
d="M174 1448h232l204 -295h-157zM563 1448h232l204 -295h-157zM614 -27q-223 0 -367 142q-145 142 -145 369q0 226 144 370t360 143q217 0 341 -137t124 -366v-33q0 -16 -2 -33h-770q4 -122 96 -209q92 -86 204 -86q200 0 298 148l135 -109q-151 -197 -418 -199zM608 846
q-125 0 -214 -80q-87 -81 -95 -195h578q-7 189 -155 253q-50 22 -114 22z" />
    <glyph glyph-name="Einvertedbreve" unicode="&#x206;" horiz-adv-x="1230" 
d="M658 1739q81 0 137 31q55 32 73 116h113q-12 -141 -101 -212q-90 -70 -226 -70t-225 70t-99 212h114q14 -78 74 -112t140 -35zM379 180h758v-180h-961v1450h930v-178h-727v-434h684v-174h-684v-484z" />
    <glyph glyph-name="einvertedbreve" unicode="&#x207;" horiz-adv-x="1173" 
d="M585 1153q-136 0 -226 71q-89 71 -99 212h115q13 -78 73 -113t141 -35t136 32t74 116h112q-12 -141 -101 -212t-225 -71zM614 -27q-223 0 -367 142q-145 142 -145 369q0 226 144 370t360 143q217 0 341 -137t124 -366v-33q0 -16 -2 -33h-770q4 -122 96 -209
q92 -86 204 -86q200 0 298 148l135 -109q-151 -197 -418 -199zM608 846q-125 0 -214 -80q-87 -81 -95 -195h578q-7 189 -155 253q-50 22 -114 22z" />
    <glyph glyph-name="Idblgrave" unicode="&#x208;" horiz-adv-x="555" 
d="M-135 1898h231l205 -294h-158zM254 1898h231l205 -294h-158zM379 0h-203v1450h203v-1450z" />
    <glyph glyph-name="idblgrave" unicode="&#x209;" horiz-adv-x="530" 
d="M-147 1421h231l205 -295h-158zM242 1421h231l205 -295h-158zM360 0h-192v971h192v-971z" />
    <glyph glyph-name="Iinvertedbreve" unicode="&#x20a;" horiz-adv-x="555" 
d="M279 1739q81 0 137 31q55 32 73 116h113q-12 -141 -101 -212q-89 -70 -225 -70t-226 70q-89 70 -99 212h115q14 -78 73 -112t140 -35zM379 0h-203v1450h203v-1450z" />
    <glyph glyph-name="iinvertedbreve" unicode="&#x20b;" horiz-adv-x="530" 
d="M263 1126q-136 0 -225 71t-99 212h114q13 -78 73 -113q60 -34 141 -34t136 32t74 115h113q-12 -141 -102 -212t-225 -71zM360 0h-192v971h192v-971z" />
    <glyph glyph-name="Odblgrave" unicode="&#x20c;" 
d="M459 1935h231l205 -295h-158zM848 1935h231l205 -295h-158zM1419 726q0 241 -152 412t-398 171t-398 -171q-151 -171 -150 -414q1 -244 153 -412q152 -167 394 -167q125 0 228 45q204 92 284 310q38 106 39 226zM1638 728q0 -334 -218 -550q-218 -215 -551 -215
q-334 0 -549 213q-216 213 -218 551q0 170 58 310q114 281 402 395q140 55 306 55t308 -55q286 -110 404 -394q58 -140 58 -310z" />
    <glyph glyph-name="odblgrave" unicode="&#x20d;" horiz-adv-x="1249" 
d="M213 1448h231l205 -295h-157zM602 1448h232l204 -295h-157zM625 838q-79 0 -139 -29q-120 -58 -163 -188q-22 -63 -22 -133q0 -143 87 -248q86 -105 236 -105t237 104t87 249q0 146 -87 248q-88 102 -236 102zM1149 487q0 -222 -150 -368t-375 -146t-373 146
q-149 146 -149 368q0 221 149 366q149 144 372 144q224 0 375 -143q151 -145 151 -367z" />
    <glyph glyph-name="Oinvertedbreve" unicode="&#x20e;" 
d="M870 1640q-136 0 -226 71q-89 71 -99 212h114q13 -78 73 -113q60 -34 141 -34t137 31q55 32 73 116h113q-12 -141 -101 -212t-225 -71zM1419 726q0 241 -152 412t-398 171t-398 -171q-151 -171 -150 -414q1 -244 153 -412q152 -167 394 -167q125 0 228 45q204 92 284 310
q38 106 39 226zM1638 728q0 -334 -218 -550q-218 -215 -551 -215q-334 0 -549 213q-216 213 -218 551q0 170 58 310q114 281 402 395q140 55 306 55t308 -55q286 -110 404 -394q58 -140 58 -310z" />
    <glyph glyph-name="oinvertedbreve" unicode="&#x20f;" horiz-adv-x="1249" 
d="M624 1153q-136 0 -226 71q-89 71 -99 212h115q14 -78 73 -113t141 -35t136 32q55 32 74 116h112q-12 -141 -101 -212t-225 -71zM625 838q-79 0 -139 -29q-120 -58 -163 -188q-22 -63 -22 -133q0 -143 87 -248q86 -105 236 -105t237 104t87 249q0 146 -87 248
q-88 102 -236 102zM1149 487q0 -222 -150 -368t-375 -146t-373 146q-149 146 -149 368q0 221 149 366q149 144 372 144q224 0 375 -143q151 -145 151 -367z" />
    <glyph glyph-name="Rdblgrave" unicode="&#x210;" horiz-adv-x="1257" 
d="M281 1898h231l205 -294h-158zM670 1898h231l205 -294h-158zM379 815h233q238 0 314 124q27 44 26 110q0 120 -88 175q-88 54 -237 54h-248v-463zM379 0h-203v1450h465q225 0 371 -95q145 -95 145 -306q0 -160 -98 -258t-254 -125l405 -666h-245l-369 645h-217v-645z" />
    <glyph glyph-name="rdblgrave" unicode="&#x211;" horiz-adv-x="741" 
d="M31 1448h231l205 -295h-158zM420 1448h231l205 -295h-158zM348 807h6q41 86 120 138t177 52q45 0 76 -8l-8 -178q-41 10 -99 10q-120 0 -190 -88t-72 -223v-510h-192v762q0 113 -8 209h182q8 -74 8 -164z" />
    <glyph glyph-name="Rinvertedbreve" unicode="&#x212;" horiz-adv-x="1257" 
d="M695 1739q81 -1 136 31t74 116h113q-12 -141 -102 -212q-90 -70 -225 -70q-136 0 -225 70t-99 212h114q13 -78 73 -112t141 -35zM379 815h233q238 0 314 124q27 44 26 110q0 120 -88 175q-88 54 -237 54h-248v-463zM379 0h-203v1450h465q225 0 371 -95q145 -95 145 -306
q0 -160 -98 -258t-254 -125l405 -666h-245l-369 645h-217v-645z" />
    <glyph glyph-name="rinvertedbreve" unicode="&#x213;" horiz-adv-x="741" 
d="M442 1153q-136 0 -226 71q-89 71 -99 212h114q13 -78 73 -113t141 -35t137 32q55 32 73 116h113q-12 -141 -101 -212t-225 -71zM348 807h6q41 86 120 138t177 52q45 0 76 -8l-8 -178q-41 10 -99 10q-120 0 -190 -88t-72 -223v-510h-192v762q0 113 -8 209h182
q8 -74 8 -164z" />
    <glyph glyph-name="Udblgrave" unicode="&#x214;" horiz-adv-x="1458" 
d="M317 1898h232l205 -294h-158zM707 1898h231l205 -294h-158zM729 -37q-143 0 -249 48q-211 95 -280 312q-34 103 -34 214v913h203v-901q0 -273 189 -369q69 -35 170 -35q189 0 283 127q77 104 79 277v901h202v-913q0 -237 -137 -398q-154 -176 -426 -176z" />
    <glyph glyph-name="udblgrave" unicode="&#x215;" horiz-adv-x="1191" 
d="M182 1421h232l204 -295h-157zM571 1421h232l205 -295h-158zM842 160h-4q-37 -78 -124 -132q-88 -54 -188 -54q-189 -1 -279 111q-91 113 -89 284v602h192v-537q0 -299 221 -299q117 0 189 87t71 233v516h193v-762q0 -113 8 -209h-182q-8 74 -8 160z" />
    <glyph glyph-name="Uinvertedbreve" unicode="&#x216;" horiz-adv-x="1458" 
d="M732 1739q81 -1 136 31t74 116h113q-11 -141 -101 -212q-90 -70 -226 -70t-225 70t-100 212h115q14 -78 74 -112t140 -35zM729 -37q-143 0 -249 48q-211 95 -280 312q-34 103 -34 214v913h203v-901q0 -273 189 -369q69 -35 170 -35q189 0 283 127q77 104 79 277v901h202
v-913q0 -237 -137 -398q-154 -176 -426 -176z" />
    <glyph glyph-name="uinvertedbreve" unicode="&#x217;" horiz-adv-x="1191" 
d="M593 1126q-136 0 -225 71t-100 212h115q13 -78 73 -113q60 -34 141 -34t136 32t74 115h113q-12 -141 -102 -212t-225 -71zM842 160h-4q-37 -78 -124 -132q-88 -54 -188 -54q-189 -1 -279 111q-91 113 -89 284v602h192v-537q0 -299 221 -299q117 0 189 87t71 233v516h193
v-762q0 -113 8 -209h-182q-8 74 -8 160z" />
    <glyph glyph-name="Scommaaccent" unicode="&#x218;" horiz-adv-x="1165" 
d="M547 -481h-162l131 389h191zM636 1317q-135 0 -221 -62q-85 -62 -83 -174q0 -150 181 -214q54 -19 122 -41q67 -22 143 -50q163 -61 238 -193q39 -71 39 -182q0 -211 -147 -325q-147 -113 -355 -113q-137 0 -265 53t-212 158l157 133q51 -76 137 -123t162 -47
q210 0 289 136q27 46 27 112q0 118 -103 184q-62 41 -186 79q-125 38 -193 68q-240 106 -239 357q0 202 159 316q136 98 339 98q127 0 237 -45t178 -121l-143 -139q-43 59 -117 97t-144 38z" />
    <glyph glyph-name="scommaaccent" unicode="&#x219;" horiz-adv-x="909" 
d="M418 -481h-162l131 389h191zM598 812q-59 34 -135 34t-122 -30q-56 -32 -56 -95t55 -93q56 -30 146 -50q175 -40 261 -107t84 -184q0 -159 -119 -243q-98 -69 -268 -71q-111 0 -216 43t-175 131l137 117q39 -57 108 -96t150 -39q81 -1 121 23q72 43 72 115q0 71 -64 104
q-65 33 -152 53t-137 38t-91 48q-93 70 -93 203t107 208q107 76 236 76q267 0 376 -159l-133 -113q-33 53 -92 87z" />
    <glyph glyph-name="uni021A" unicode="&#x21a;" horiz-adv-x="1165" 
d="M551 -481h-162l131 389h191zM684 0h-203v1272h-465v178h1133v-178h-465v-1272z" />
    <glyph glyph-name="uni021B" unicode="&#x21b;" horiz-adv-x="673" 
d="M375 -481h-162l131 389h191zM193 813h-187v158h187v278h190v-278h258v-158h-258v-506q0 -88 33 -126t100 -38t117 25l6 -158q-76 -26 -164 -26q-137 0 -210 76t-72 227v526z" />
    <glyph glyph-name="Hcaron" unicode="&#x21e;" horiz-adv-x="1492" 
d="M854 1604h-219l-227 294h184l156 -202l155 202h180zM176 1450h203v-606h733v606h205v-1450h-205v664h-733v-664h-203v1450z" />
    <glyph glyph-name="hcaron" unicode="&#x21f;" horiz-adv-x="1196" 
d="M711 1702h-219l-228 295h185l155 -203l156 203h180zM844 537q0 297 -219 297q-115 0 -189 -88t-74 -232v-514h-192v1548h192v-725h5q35 72 118 123t183 51q183 0 277 -111q93 -111 91 -284v-602h-192v537z" />
    <glyph glyph-name="Adotaccent" unicode="&#x226;" horiz-adv-x="1456" 
d="M856 1726q0 -53 -38 -88q-38 -34 -91 -34t-90 36t-37 87q0 53 37 89t90 36t91 -37q38 -36 38 -89zM453 535h542l-270 679zM236 0h-226l629 1450h184l623 -1450h-229l-148 356h-688z" />
    <glyph glyph-name="adotaccent" unicode="&#x227;" horiz-adv-x="1110" 
d="M659 1276q1 -53 -37 -88t-92 -35t-90 36q-37 36 -37 88t37 88t90 36t91 -36t38 -89zM723 463q-187 -1 -268 -25q-82 -24 -123 -61t-41 -89t17 -81q47 -80 181 -80q135 0 208 81t73 204v51h-47zM94 274q0 282 432 318q121 10 244 10v27q0 109 -65 161t-161 52
q-176 0 -290 -113l-102 123q154 145 397 145q201 0 304 -107t101 -274v-423q0 -135 15 -193h-174q-16 70 -17 139h-6q-111 -164 -326 -164q-135 0 -233 66q-119 82 -119 233z" />
    <glyph glyph-name="Ecedilla" unicode="&#x228;" horiz-adv-x="1230" 
d="M176 0v1450h930v-178h-727v-434h684v-174h-684v-484h758v-180h-400l-94 -141q14 4 27 4h28q80 0 130 -35q61 -39 62 -130t-86 -141q-66 -38 -146 -38q-150 0 -238 47l41 86q76 -35 155 -35t114 43q13 16 13 43q0 75 -110 78q-37 0 -84 -14l-41 40l127 193h-459z" />
    <glyph glyph-name="ecedilla" unicode="&#x229;" horiz-adv-x="1173" 
d="M563 -244q-37 0 -84 -14l-41 41l127 192q-190 14 -326 148q-137 135 -137 361t144 370t360 143q217 0 341 -137t124 -366v-33q0 -16 -2 -33h-770q4 -122 96 -209q92 -86 204 -86q200 0 298 148l135 -109q-134 -175 -364 -197l-95 -141q14 4 27 4h29q129 0 175 -84
q17 -31 17 -80q0 -94 -87 -142q-66 -38 -146 -38q-148 0 -238 47l41 86q76 -35 155 -35t114 43q13 16 14 43q0 78 -111 78zM608 846q-125 0 -214 -80q-87 -81 -95 -195h578q-7 189 -155 253q-50 22 -114 22z" />
    <glyph glyph-name="Odieresismacron" unicode="&#x22a;" 
d="M1174 2042h-607v137h607v-137zM942 1764q0 48 36 86t90 38t91 -36t37 -88t-37 -88t-91 -36t-90 38t-36 86zM545 1764q0 48 36 86t90 38t91 -36t37 -88t-37 -88t-91 -36t-90 38t-36 86zM1419 726q0 241 -152 412t-398 171t-398 -171q-151 -171 -150 -414q1 -244 153 -412
q152 -167 394 -167q125 0 228 45q204 92 284 310q38 106 39 226zM1638 728q0 -334 -218 -550q-218 -215 -551 -215q-334 0 -549 213q-216 213 -218 551q0 170 58 310q114 281 402 395q140 55 306 55t308 -55q286 -110 404 -394q58 -140 58 -310z" />
    <glyph glyph-name="odieresismacron" unicode="&#x22b;" horiz-adv-x="1249" 
d="M928 1552h-606v138h606v-138zM696 1277q0 48 36 86t90 38t91 -36t37 -88t-37 -88t-91 -36t-90 38t-36 86zM299 1277q0 48 36 86t90 38t91 -36t37 -88t-37 -88t-91 -36t-90 38t-36 86zM625 838q-79 0 -139 -29q-120 -58 -163 -188q-22 -63 -22 -133q0 -143 87 -248
q86 -105 236 -105t237 104t87 249q0 146 -87 248q-88 102 -236 102zM1149 487q0 -222 -150 -368t-375 -146t-373 146q-149 146 -149 368q0 221 149 366q149 144 372 144q224 0 375 -143q151 -145 151 -367z" />
    <glyph glyph-name="Otildemacron" unicode="&#x22c;" 
d="M1174 2040h-607v137h607v-137zM516 1640q42 238 202 238q77 0 161 -41q103 -45 137 -45q70 0 98 94h111q-42 -237 -209 -237q-64 0 -155 42q-90 42 -136 44q-72 0 -96 -95h-113zM1419 726q0 241 -152 412t-398 171t-398 -171q-151 -171 -150 -414q1 -244 153 -412
q152 -167 394 -167q125 0 228 45q204 92 284 310q38 106 39 226zM1638 728q0 -334 -218 -550q-218 -215 -551 -215q-334 0 -549 213q-216 213 -218 551q0 170 58 310q114 281 402 395q140 55 306 55t308 -55q286 -110 404 -394q58 -140 58 -310z" />
    <glyph glyph-name="otildemacron" unicode="&#x22d;" horiz-adv-x="1249" 
d="M928 1550h-606v138h606v-138zM770 1305q74 0 98 94h111q-19 -106 -51 -152q-61 -85 -158 -86q-59 0 -155 43t-136 43q-69 0 -96 -94h-113q19 107 52 152q32 45 68 65q89 50 243 -20q103 -45 137 -45zM625 838q-79 0 -139 -29q-120 -58 -163 -188q-22 -63 -22 -133
q0 -143 87 -248q86 -105 236 -105t237 104t87 249q0 146 -87 248q-88 102 -236 102zM1149 487q0 -222 -150 -368t-375 -146t-373 146q-149 146 -149 368q0 221 149 366q149 144 372 144q224 0 375 -143q151 -145 151 -367z" />
    <glyph glyph-name="Odotaccent" unicode="&#x22e;" 
d="M999 1763q1 -53 -37 -88t-92 -35t-90 36q-37 36 -37 88t37 88t90 36t91 -36t38 -89zM1419 726q0 241 -152 412t-398 171t-398 -171q-151 -171 -150 -414q1 -244 153 -412q152 -167 394 -167q125 0 228 45q204 92 284 310q38 106 39 226zM1638 728q0 -334 -218 -550
q-218 -215 -551 -215q-334 0 -549 213q-216 213 -218 551q0 170 58 310q114 281 402 395q140 55 306 55t308 -55q286 -110 404 -394q58 -140 58 -310z" />
    <glyph glyph-name="odotaccent" unicode="&#x22f;" horiz-adv-x="1249" 
d="M754 1276q0 -53 -38 -88t-91 -35t-90 36t-37 88t37 88t90 36t91 -36t38 -89zM625 838q-79 0 -139 -29q-120 -58 -163 -188q-22 -63 -22 -133q0 -143 87 -248q86 -105 236 -105t237 104t87 249q0 146 -87 248q-88 102 -236 102zM1149 487q0 -222 -150 -368t-375 -146
t-373 146q-149 146 -149 368q0 221 149 366q149 144 372 144q224 0 375 -143q151 -145 151 -367z" />
    <glyph glyph-name="Odotaccentmacron" unicode="&#x230;" 
d="M1174 2042h-607v137h607v-137zM999 1763q1 -53 -37 -88t-92 -35t-90 36q-37 36 -37 88t37 88t90 36t91 -36t38 -89zM1419 726q0 241 -152 412t-398 171t-398 -171q-151 -171 -150 -414q1 -244 153 -412q152 -167 394 -167q125 0 228 45q204 92 284 310q38 106 39 226z
M1638 728q0 -334 -218 -550q-218 -215 -551 -215q-334 0 -549 213q-216 213 -218 551q0 170 58 310q114 281 402 395q140 55 306 55t308 -55q286 -110 404 -394q58 -140 58 -310z" />
    <glyph glyph-name="odotaccentmacron" unicode="&#x231;" horiz-adv-x="1249" 
d="M928 1552h-606v138h606v-138zM754 1276q0 -53 -38 -88t-91 -35t-90 36t-37 88t37 88t90 36t91 -36t38 -89zM625 838q-79 0 -139 -29q-120 -58 -163 -188q-22 -63 -22 -133q0 -143 87 -248q86 -105 236 -105t237 104t87 249q0 146 -87 248q-88 102 -236 102zM1149 487
q0 -222 -150 -368t-375 -146t-373 146q-149 146 -149 368q0 221 149 366q149 144 372 144q224 0 375 -143q151 -145 151 -367z" />
    <glyph glyph-name="Ymacron" unicode="&#x232;" horiz-adv-x="1277" 
d="M942 1604h-606v137h606v-137zM741 0h-204v627l-543 823h250l401 -655l404 655h235l-543 -823v-627z" />
    <glyph glyph-name="ymacron" unicode="&#x233;" horiz-adv-x="1032" 
d="M817 1126h-606v138h606v-138zM535 209h4l268 762h205l-471 -1200q-54 -132 -107 -179q-139 -123 -356 -69l18 170q49 -17 111 -17q63 0 99 42t67 120l61 162l-416 971h215z" />
    <glyph glyph-name="commaturnedmod" unicode="&#x2bb;" horiz-adv-x="503" 
d="M256 1450h162l-139 -512h-193z" />
    <glyph glyph-name="afii57929" unicode="&#x2bc;" horiz-adv-x="503" 
d="M248 938h-162l141 512h191z" />
    <glyph glyph-name="circumflex" unicode="&#x2c6;" horiz-adv-x="512" 
d="M596 1155h-186l-154 203l-156 -203h-184l229 295h222z" />
    <glyph glyph-name="caron" unicode="&#x2c7;" horiz-adv-x="512" 
d="M365 1155h-220l-227 295h184l156 -203l156 203h180z" />
    <glyph glyph-name="uni02C9" unicode="&#x2c9;" horiz-adv-x="512" 
d="M559 1632h-606v137h606v-137z" />
    <glyph glyph-name="breve" unicode="&#x2d8;" horiz-adv-x="512" 
d="M255 1167q-136 0 -225 71t-100 212h115q13 -78 73 -113t141 -35t136 32t74 116h113q-12 -141 -102 -212t-225 -71z" />
    <glyph glyph-name="dotaccent" unicode="&#x2d9;" horiz-adv-x="512" 
d="M385 1321q0 -53 -38 -88t-91 -35t-90 36t-37 88t37 88t90 36t91 -36t38 -89z" />
    <glyph glyph-name="ring" unicode="&#x2da;" horiz-adv-x="512" 
d="M377 1336q0 50 -36 83t-84 33t-84 -33t-36 -82t36 -83t84 -34t84 34q36 32 36 82zM256 1538q86 0 146 -58t61 -144q-1 -87 -61 -144t-146 -57t-145 57q-58 57 -59 144q-2 86 58 144t146 58z" />
    <glyph glyph-name="ogonek" unicode="&#x2db;" horiz-adv-x="512" 
d="M29 -285q0 111 128 239q34 34 66 58h111q-164 -153 -164 -256q0 -40 29 -68t80 -28t98 45l45 -92q-87 -74 -181 -75q-95 -1 -153 47q-59 48 -59 130z" />
    <glyph glyph-name="tilde" unicode="&#x2dc;" horiz-adv-x="512" 
d="M111 1409q69 0 160 -43t130 -43q71 0 99 94h110q-19 -109 -52 -153q-62 -84 -157 -84q-63 0 -154 42q-90 42 -136 44q-70 0 -97 -95h-112q19 109 52 153q62 85 157 85z" />
    <glyph glyph-name="hungarumlaut" unicode="&#x2dd;" horiz-adv-x="512" 
d="M455 1155h-158l205 295h231zM80 1155h-158l205 295h233z" />
    <glyph glyph-name="uni02EE" unicode="&#x2ee;" horiz-adv-x="872" 
d="M248 938h-162l141 512h191zM616 938h-161l141 512h190z" />
    <glyph glyph-name="gravecmb" unicode="&#x300;" horiz-adv-x="0" 
d="M-512 1450h231l205 -295h-157z" />
    <glyph glyph-name="acutecmb" unicode="&#x301;" horiz-adv-x="0" 
d="M-354 1155h-158l205 295h231z" />
    <glyph glyph-name="circumflexcmb" unicode="&#x302;" horiz-adv-x="0" 
d="M168 1155h-186l-154 203l-156 -203h-184l229 295h222z" />
    <glyph glyph-name="tildecmb" unicode="&#x303;" horiz-adv-x="0" 
d="M-512 1171q42 238 202 238q78 0 160 -41q103 -45 138 -45q70 0 98 94h111q-42 -237 -209 -237q-64 0 -155 42q-90 42 -136 44q-72 0 -96 -95h-113z" />
    <glyph glyph-name="macroncmb" unicode="&#x304;" horiz-adv-x="0" 
d="M94 1223h-606v137h606v-137z" />
    <glyph glyph-name="brevecmb" unicode="&#x306;" horiz-adv-x="0" 
d="M-187 1167q-136 0 -226 71q-89 71 -99 212h115q14 -78 73 -113q58 -35 140 -35t137 32t74 116h112q-12 -141 -101 -212t-225 -71z" />
    <glyph glyph-name="dotaccentcmb" unicode="&#x307;" horiz-adv-x="0" 
d="M-256 1321q0 -53 -38 -88t-91 -35t-90 36t-37 88t37 88t90 36t91 -36t38 -89z" />
    <glyph glyph-name="dieresiscmb" unicode="&#x308;" horiz-adv-x="0" 
d="M-115 1322q0 48 36 86t90 38t91 -36t37 -88t-37 -88t-91 -36t-90 38t-36 86zM-512 1322q0 48 36 86t90 38t91 -36t37 -88t-37 -88t-91 -36t-90 38t-36 86z" />
    <glyph glyph-name="hookabovecomb" unicode="&#x309;" horiz-adv-x="512" 
d="M268 1538q100 0 156 -49t57 -121q0 -109 -104 -156q-60 -27 -62 -75h-127q0 47 20 81t78 64q60 30 60 80q0 72 -82 74q-85 0 -100 -101l-135 17q32 186 239 186z" />
    <glyph glyph-name="ringcmb" unicode="&#x30a;" horiz-adv-x="0" 
d="M-186 1336q0 50 -36 83t-84 33t-84 -33t-36 -82t36 -83t84 -34t84 34q36 32 36 82zM-308 1538q86 0 148 -58q60 -58 60 -144q0 -87 -60 -144t-147 -57q-86 0 -145 57q-60 57 -60 144q0 86 59 144t145 58z" />
    <glyph glyph-name="hungarumlautcmb" unicode="&#x30b;" horiz-adv-x="0" 
d="M20 1155h-157l205 295h231zM-354 1155h-158l205 295h233z" />
    <glyph glyph-name="caroncmb" unicode="&#x30c;" horiz-adv-x="0" 
d="M-66 1155h-219l-227 295h184l156 -203l156 203h180z" />
    <glyph glyph-name="doublegravecmb" unicode="&#x30f;" horiz-adv-x="0" 
d="M-901 1450h231l205 -295h-158zM-512 1450h231l205 -295h-157z" />
    <glyph glyph-name="invertedbrevecmb" unicode="&#x311;" horiz-adv-x="0" 
d="M-326 1167q-136 0 -226 71q-89 71 -99 212h114q13 -78 73 -113t141 -35t137 32q55 32 73 116h113q-12 -141 -101 -212t-225 -71z" />
    <glyph glyph-name="horncmb" unicode="&#x31b;" horiz-adv-x="0" 
d="M-291 1122q0 68 -33 121l166 43q33 -68 33 -180t-69 -180q-69 -66 -185 -70t-194 33q-37 16 -68 37l2 45h188q160 0 160 151z" />
    <glyph glyph-name="dotbelowcmb" unicode="&#x323;" horiz-adv-x="0" 
d="M-258 -275q0 -53 -39 -95t-97 -42t-99 40q-39 40 -39 94t38 95q38 40 98 40t99 -39t39 -93z" />
    <glyph glyph-name="dieresisbelowcmb" unicode="&#x324;" horiz-adv-x="0" 
d="M-115 -267q0 48 36 86t90 38t91 -36t37 -88t-37 -88t-91 -36t-90 38t-36 86zM-512 -267q0 48 36 86t90 38t91 -36t37 -88t-37 -88t-91 -36t-90 38t-36 86z" />
    <glyph glyph-name="ringbelowcmb" unicode="&#x325;" horiz-adv-x="0" 
d="M-186 -345q0 50 -36 83t-84 33t-84 -33t-36 -82t36 -83t84 -34t84 33t36 83zM-100 -345q0 -87 -60 -144t-146 -57q-85 0 -146 57q-60 58 -60 144q0 87 59 144t145 57t148 -56q60 -58 60 -145z" />
    <glyph glyph-name="commabelowcmb" unicode="&#x326;" horiz-adv-x="0" 
d="M-369 -655h-163l141 512h192z" />
    <glyph glyph-name="cedillacmb" unicode="&#x327;" horiz-adv-x="0" 
d="M-262 -137h29q129 0 175 -84q17 -31 17 -80q0 -93 -87 -142q-66 -38 -146 -38q-150 0 -238 47l41 86q76 -35 156 -35t113 43q13 16 14 43q0 75 -111 78q-37 0 -84 -14l-41 40l127 193h102l-94 -141q14 4 27 4z" />
    <glyph glyph-name="ogonekcmb" unicode="&#x328;" horiz-adv-x="0" 
d="M-512 -285q0 107 128 239q34 34 67 58h110q-161 -150 -164 -256q0 -40 29 -68t80 -28t98 45l45 -92q-87 -74 -181 -75q-95 -1 -153 47q-59 48 -59 130z" />
    <glyph glyph-name="circumflexbelowcmb" unicode="&#x32d;" horiz-adv-x="0" 
d="M168 -438h-186l-154 202l-156 -202h-184l229 295h222z" />
    <glyph glyph-name="brevebelowcmb" unicode="&#x32e;" horiz-adv-x="0" 
d="M-187 -426q-136 0 -226 71q-89 71 -99 212h115q14 -78 73 -113q58 -35 140 -35t137 32t74 116h112q-12 -141 -101 -212t-225 -71z" />
    <glyph glyph-name="tildebelowcmb" unicode="&#x330;" horiz-adv-x="0" 
d="M-512 -389q42 237 202 237q78 0 160 -41q99 -44 138 -45q71 0 98 95h111q-19 -107 -52 -152q-62 -84 -157 -86q-64 0 -156 43t-135 43t-65 -30t-31 -64h-113z" />
    <glyph glyph-name="macronbelowcmb" unicode="&#x331;" horiz-adv-x="0" 
d="M94 -281h-606v138h606v-138z" />
    <glyph glyph-name="gravetonecmb" unicode="&#x340;" horiz-adv-x="0" 
d="M-512 1450h231l205 -295h-157z" />
    <glyph glyph-name="acutetonecmb" unicode="&#x341;" horiz-adv-x="0" 
d="M-354 1155h-158l205 295h231z" />
    <glyph glyph-name="dialytikatonoscmb" unicode="&#x344;" horiz-adv-x="0" 
d="M-246 1599h-157l204 295h232zM-115 1322q0 48 36 86t90 38t91 -36t37 -88t-37 -88t-91 -36t-90 38t-36 86zM-512 1322q0 48 36 86t90 38t91 -36t37 -88t-37 -88t-91 -36t-90 38t-36 86z" />
    <glyph glyph-name="combininggraphemejoiner" unicode="&#x34f;" horiz-adv-x="1024" 
 />
    <glyph glyph-name="uni037E" unicode="&#x37e;" horiz-adv-x="614" 
d="M252 -272h-164l141 512h193zM307 983q59 0 98 -40t39 -94t-38 -94t-98 -40q-58 0 -98 39t-40 93t39 95t98 41z" />
    <glyph glyph-name="u0384" unicode="&#x384;" horiz-adv-x="532" 
d="M180 1485h170l-20 -381h-127z" />
    <glyph glyph-name="u0385" unicode="&#x385;" horiz-adv-x="491" 
d="M172 1526h160l-21 -426h-116zM436 1191q0 40 29 71q29 30 73 30t72 -30t29 -71q0 -40 -29 -71q-28 -30 -72 -30t-73 30t-29 71zM-135 1191q0 40 29 71q28 30 72 30t73 -30t29 -71q0 -40 -29 -71q-29 -30 -73 -30t-72 30t-29 71z" />
    <glyph glyph-name="u0386" unicode="&#x386;" horiz-adv-x="1462" 
d="M451 528h567l-283 701zM238 0h-218l623 1450h193l618 -1450h-221l-150 356h-700zM139 1546h170l-20 -381h-127z" />
    <glyph glyph-name="anoteleia" unicode="&#x387;" horiz-adv-x="532" 
d="M129 619q0 53 40 95t98 42q59 0 99 -40t40 -94t-39 -96t-99 -41q-60 0 -99 40q-40 40 -40 94z" />
    <glyph glyph-name="u0388" unicode="&#x388;" horiz-adv-x="1361" 
d="M520 174h750v-174h-946v1450h919v-174h-723v-440h676v-168h-676v-494zM0 1546h168l-21 -381h-124z" />
    <glyph glyph-name="u0389" unicode="&#x389;" horiz-adv-x="1607" 
d="M293 1450h201v-608h733v608h198v-1450h-198v666h-733v-666h-201v1450zM0 1546h168l-21 -381h-124z" />
    <glyph glyph-name="u038A" unicode="&#x38a;" horiz-adv-x="690" 
d="M508 0h-201v1450h201v-1450zM0 1546h168l-21 -381h-124z" />
    <glyph glyph-name="u038C" unicode="&#x38c;" horiz-adv-x="1824" 
d="M1507 726q0 241 -153 413t-400 172t-400 -170t-153 -415q0 -244 152 -415q152 -170 401 -170q127 0 230 46q204 93 284 313q38 106 39 226zM954 -37q-332 0 -547 214t-217 550q0 168 58 307q115 280 402 397q140 56 304 56q330 0 547 -213t217 -547q0 -335 -217 -550
q-103 -101 -243 -157t-304 -57zM0 1546h168l-21 -381h-124z" />
    <glyph glyph-name="u038E" unicode="&#x38e;" horiz-adv-x="1544" 
d="M1008 0h-199v623l-543 827h246l403 -659l408 659h231l-546 -827v-623zM0 1546h168l-21 -381h-124z" />
    <glyph glyph-name="u038F" unicode="&#x38f;" horiz-adv-x="1710" 
d="M1028 0v393q182 35 285 150q102 115 102 295q0 218 -136 341q-136 124 -354 124t-358 -121q-139 -121 -139 -344q0 -181 107 -301t286 -144v-393h-569v166h401v119q-194 41 -315 193t-121 366q0 291 204 463t505 172q300 0 500 -174t200 -459q0 -203 -127 -364t-309 -197
v-119h405v-166h-567zM0 1511h168l-21 -381h-124z" />
    <glyph glyph-name="u0390" unicode="&#x390;" horiz-adv-x="641" 
d="M414 0h-189v975h189v-975zM246 1536h157l-20 -426h-115zM508 1202q0 39 29 70t73 31t72 -31q29 -31 29 -70q0 -38 -29 -70t-73 -32q-45 0 -73 32t-28 70zM-63 1202q0 39 28 70q29 31 74 31t74 -31t29 -70q0 -38 -30 -70q-28 -32 -73 -32t-73 32t-29 70z" />
    <glyph glyph-name="u0391" unicode="&#x391;" horiz-adv-x="1447" 
d="M436 528h570l-283 701zM225 0h-217l623 1450h192l619 -1450h-223l-148 356h-700z" />
    <glyph glyph-name="u0392" unicode="&#x392;" horiz-adv-x="1316" 
d="M377 166h256q246 0 331 136q30 48 29 120q0 129 -91 190t-251 62h-274v-508zM377 829h270q188 0 256 122q25 45 25 107q0 114 -85 170t-231 56h-235v-455zM182 1450h469q318 0 430 -190q43 -72 43 -185t-68 -197t-184 -112v-4q139 -16 230 -111q92 -95 92 -243
q0 -194 -150 -301t-395 -107h-467v1450z" />
    <glyph glyph-name="u0393" unicode="&#x393;" horiz-adv-x="1048" 
d="M381 0h-199v1450h846v-176h-647v-1274z" />
    <glyph glyph-name="u0394" unicode="&#x394;" horiz-adv-x="1454" 
d="M719 1237l-436 -1067h874zM72 0v156l551 1294h200l557 -1292v-158h-1308z" />
    <glyph glyph-name="u0395" unicode="&#x395;" horiz-adv-x="1220" 
d="M377 174h751v-174h-946v1450h918v-174h-723v-440h678v-168h-678v-494z" />
    <glyph glyph-name="u0396" unicode="&#x396;" horiz-adv-x="1204" 
d="M1137 176v-176h-1069v170l806 1106h-786v174h1036v-164l-811 -1110h824z" />
    <glyph glyph-name="u0397" unicode="&#x397;" horiz-adv-x="1495" 
d="M182 1450h199v-608h733v608h199v-1450h-199v666h-733v-666h-199v1450z" />
    <glyph glyph-name="u0398" unicode="&#x398;" horiz-adv-x="1740" 
d="M1423 726q0 241 -153 413q-154 172 -400 172q-247 0 -400 -170t-153 -415q0 -244 152 -415q152 -170 401 -170q127 0 230 46q204 93 284 313q38 106 39 226zM1634 727q0 -335 -217 -550q-217 -214 -548 -214t-546 214t-217 550q0 168 58 307q115 280 402 397
q140 56 304 56t304 -56q285 -114 403 -397q57 -139 57 -307zM1335 817v-162h-932v162h932z" />
    <glyph glyph-name="u0399" unicode="&#x399;" horiz-adv-x="563" 
d="M381 0h-199v1450h199v-1450z" />
    <glyph glyph-name="u039A" unicode="&#x39a;" horiz-adv-x="1329" 
d="M379 815h4l645 635h270l-704 -659l743 -791h-278l-678 745h-2v-745h-197v1450h197v-635z" />
    <glyph glyph-name="u039B" unicode="&#x39b;" horiz-adv-x="1447" 
d="M231 0h-217l611 1450h198l611 -1450h-220l-491 1190z" />
    <glyph glyph-name="u039C" unicode="&#x39c;" horiz-adv-x="1851" 
d="M1669 1450v-1450h-196l2 1200h-7l-485 -1200h-121l-483 1200h-6l2 -1200h-193v1450h295l449 -1131h4l442 1131h297z" />
    <glyph glyph-name="u039D" unicode="&#x39d;" horiz-adv-x="1579" 
d="M1397 1450v-1450h-240l-776 1171h-4l2 -1171h-197v1450h240l776 -1161h4l-2 1161h197z" />
    <glyph glyph-name="u039E" unicode="&#x39e;" horiz-adv-x="1208" 
d="M1114 176v-176h-1022v176h1022zM1032 834v-168h-882v168h882zM1096 1450v-176h-1004v176h1004z" />
    <glyph glyph-name="u039F" unicode="&#x39f;" horiz-adv-x="1740" 
d="M1423 726q0 241 -153 413q-154 172 -400 172q-247 0 -400 -170t-153 -415q0 -244 152 -415q152 -170 401 -170q127 0 230 46q204 93 284 313q38 106 39 226zM1634 727q0 -335 -217 -550q-217 -214 -548 -214t-546 214t-217 550q0 168 58 307q115 280 402 397
q140 56 304 56t304 -56q285 -114 403 -397q57 -139 57 -307z" />
    <glyph glyph-name="u03A0" unicode="&#x3a0;" horiz-adv-x="1454" 
d="M1274 1450v-1450h-199v1274h-694v-1274h-199v1450h1092z" />
    <glyph glyph-name="u03A1" unicode="&#x3a1;" horiz-adv-x="1218" 
d="M932 1047q0 237 -326 237h-225v-479h223q154 0 241 59t87 183zM182 1450h441q365 0 473 -221q37 -76 37 -180q0 -103 -39 -181q-77 -152 -272 -202q-95 -25 -206 -25h-235v-641h-199v1450z" />
    <glyph glyph-name="u03A3" unicode="&#x3a3;" horiz-adv-x="1243" 
d="M115 0v131l610 594v12l-610 580v133h1015v-170h-731l588 -543v-16l-567 -551h731v-170h-1036z" />
    <glyph glyph-name="u03A4" unicode="&#x3a4;" horiz-adv-x="1173" 
d="M686 0h-199v1276h-467v174h1133v-174h-467v-1276z" />
    <glyph glyph-name="u03A5" unicode="&#x3a5;" horiz-adv-x="1267" 
d="M731 0h-199v623l-542 827h246l403 -659l408 659h231l-547 -827v-623z" />
    <glyph glyph-name="u03A6" unicode="&#x3a6;" horiz-adv-x="1775" 
d="M1466 726q0 196 -127 333t-352 162v-992q220 23 350 162q129 139 129 335zM436 1058q-127 -139 -127 -335q0 -195 127 -332q127 -138 357 -164v994q-226 -24 -357 -163zM1486 259q-191 -183 -499 -210v-164h-194v164q-309 24 -503 210t-194 468t193 464t504 208v151h194
v-151q305 -24 498 -208q192 -184 192 -467q0 -282 -191 -465z" />
    <glyph glyph-name="u03A7" unicode="&#x3a7;" horiz-adv-x="1357" 
d="M680 899l362 551h236l-475 -688l530 -762h-248l-411 616l-406 -616h-243l526 764l-481 686h245z" />
    <glyph glyph-name="u03A8" unicode="&#x3a8;" horiz-adv-x="1755" 
d="M977 473h45q163 0 270 96t107 277v604h198v-627q0 -250 -164 -387t-415 -137h-41v-299h-199v299h-57q-246 0 -404 137q-159 137 -159 387v627h198v-604q0 -184 105 -278q105 -95 270 -95h47v977h199v-977z" />
    <glyph glyph-name="u03A9" unicode="&#x3a9;" horiz-adv-x="1574" 
d="M895 0v393q180 35 284 150q103 115 103 295q0 219 -138 342t-354 123t-356 -121q-139 -121 -139 -326q0 -206 106 -321t287 -142v-393h-569v166h399v119q-196 41 -316 195t-120 364q0 291 204 463t504 172t502 -174q201 -174 201 -459q0 -203 -127 -364t-311 -197v-119
h407v-166h-567z" />
    <glyph glyph-name="u03AA" unicode="&#x3aa;" horiz-adv-x="563" 
d="M365 1737q0 47 33 83q34 36 87 36t87 -36t34 -83t-34 -84t-87 -37t-87 37q-33 37 -33 84zM-43 1737q0 47 34 83t87 36t88 -36t35 -83t-35 -84t-88 -37t-87 37t-34 84zM381 0h-199v1450h199v-1450z" />
    <glyph glyph-name="u03AB" unicode="&#x3ab;" horiz-adv-x="1267" 
d="M721 1737q0 47 34 83t87 36t87 -36t34 -83t-34 -84t-87 -37t-87 37t-34 84zM313 1737q0 47 35 83t88 36t87 -36t34 -83t-34 -84t-87 -37t-88 37t-35 84zM731 0h-199v623l-542 827h246l403 -659l408 659h231l-547 -827v-623z" />
    <glyph glyph-name="u03AC" unicode="&#x3ac;" horiz-adv-x="1298" 
d="M293 486q0 -154 90 -253q90 -100 239 -100q148 0 245 103q96 103 96 253t-96 251q-96 102 -245 102q-148 0 -239 -101q-90 -101 -90 -255zM590 -27q-109 0 -200 41q-185 84 -255 274q-35 93 -35 199q0 216 136 364t358 148q104 0 198 -46t150 -130h4v152h191v-975h-183
v154h-4q-59 -86 -155 -134t-205 -47zM590 1526h170l-21 -381h-127z" />
    <glyph glyph-name="u03AD" unicode="&#x3ad;" horiz-adv-x="1036" 
d="M575 561h195v-143h-168q-170 0 -251 -33t-81 -111q0 -101 174 -133q49 -8 121 -8q127 0 240 62q47 27 78 63l104 -111l-31 -30q-74 -74 -223 -118q-85 -26 -191 -26q-205 0 -336 76q-132 76 -132 198t90 189q61 46 162 60v4q-84 14 -132 54q-86 73 -87 153
q-2 141 126 219q127 78 312 79q184 1 310 -83q63 -43 99 -101l-125 -96q-47 66 -144 103t-210 16q-181 -36 -179 -140q0 -36 24 -64q64 -79 255 -79zM600 1526l-20 -381h-125l-23 381h168z" />
    <glyph glyph-name="u03AE" unicode="&#x3ae;" horiz-adv-x="1234" 
d="M352 815h4q41 80 136 132t194 52q98 -1 169 -31q141 -61 188 -210q24 -74 24 -160v-1090h-188v1029q0 222 -125 282q-47 23 -119 23q-117 0 -196 -84t-79 -250v-508h-190v743q0 150 -6 232h182q6 -58 6 -160zM535 1526h167l-20 -381h-125z" />
    <glyph glyph-name="u03AF" unicode="&#x3af;" horiz-adv-x="505" 
d="M164 1561h168l-21 -381h-125zM342 0h-190v975h190v-975z" />
    <glyph glyph-name="u03B0" unicode="&#x3b0;" horiz-adv-x="1206" 
d="M528 1536h158l-20 -426h-115zM791 1202q0 39 28 70q29 31 73 31t73 -31t29 -70q0 -38 -30 -70q-28 -32 -72 -32t-72 32t-29 70zM219 1202q0 39 29 70t74 31q46 0 74 -31t28 -70q0 -38 -29 -70t-73 -32t-74 32q-29 32 -29 70zM600 -25q-224 0 -339 135q-101 117 -99 298
v567h190v-541q0 -200 131 -271q47 -26 118 -26q131 0 193 84t62 213v541h188v-567q0 -287 -241 -396q-84 -37 -203 -37z" />
    <glyph glyph-name="u03B1" unicode="&#x3b1;" horiz-adv-x="1298" 
d="M293 486q0 -154 90 -253q90 -100 239 -100q148 0 245 103q96 103 96 253t-96 251q-96 102 -245 102q-148 0 -239 -101q-90 -101 -90 -255zM590 -27q-109 0 -200 41q-185 84 -255 274q-35 93 -35 199q0 216 136 364t358 148q104 0 198 -46t150 -130h4v152h191v-975h-183
v154h-4q-59 -86 -155 -134t-205 -47z" />
    <glyph glyph-name="u03B2" unicode="&#x3b2;" horiz-adv-x="1306" 
d="M365 -492h-191v1590q0 211 123 334q123 124 308 123q186 -1 315 -106t129 -284q0 -129 -74 -226t-168 -110v-6q49 -1 116 -23t127 -69q144 -113 144 -305t-140 -324q-138 -125 -320 -125t-292 99q-49 43 -77 98v-666zM365 479q0 -160 89 -250t227 -90t227 81t88 220
t-95 218t-256 79h-127v154h107q100 0 168 63q67 64 67 182t-73 188t-178 71q-105 0 -175 -76t-69 -242v-598z" />
    <glyph glyph-name="u03B3" unicode="&#x3b3;" horiz-adv-x="1130" 
d="M670 -492h-191v574l-459 893h222l336 -719l321 719h209l-438 -893v-574z" />
    <glyph glyph-name="u03B4" unicode="&#x3b4;" horiz-adv-x="1259" 
d="M869 733q-92 98 -242 97q-151 -1 -239 -98q-89 -97 -89 -249t89 -250t239 -98q151 0 242 97q92 97 92 250t-92 251zM174 1282q0 122 138 195q140 73 340 73t333 -41q66 -18 115 -41l-51 -165q-86 42 -195 62q-110 19 -180 19q-204 0 -264 -63q-23 -23 -23 -51
q0 -53 62 -91t202 -87q502 -195 502 -609q1 -217 -145 -363q-146 -147 -378 -147t-378 146t-146 359t136 346t323 141q10 2 21 2h20l6 8q-49 8 -177 60t-167 80q-94 67 -94 167z" />
    <glyph glyph-name="u03B5" unicode="&#x3b5;" horiz-adv-x="1036" 
d="M575 561h195v-143h-168q-170 0 -251 -33t-81 -111q0 -101 174 -133q49 -8 121 -8q127 0 240 62q47 27 78 63l104 -111l-31 -30q-74 -74 -223 -118q-85 -26 -191 -26q-205 0 -336 76q-132 76 -132 198t90 189q61 46 162 60v4q-84 14 -132 54q-86 73 -87 153
q-2 141 126 219q127 78 312 79q184 1 310 -83q63 -43 99 -101l-125 -96q-47 66 -144 103t-210 16q-181 -36 -179 -140q0 -36 24 -64q64 -79 255 -79z" />
    <glyph glyph-name="u03B6" unicode="&#x3b6;" horiz-adv-x="1056" 
d="M164 1391v155h833v-139q-351 -228 -503 -398q-195 -218 -195 -467t255 -348q85 -34 196 -61q264 -59 268 -283q0 -138 -133 -247q-97 -79 -213 -109l-123 117q179 50 250 139q27 35 27 79t-19 74q-42 69 -209 99q-213 45 -333 151q-159 139 -161 386q0 283 206 526
q140 164 399 326h-545z" />
    <glyph glyph-name="u03B7" unicode="&#x3b7;" horiz-adv-x="1228" 
d="M352 815h4q41 80 136 132t194 52q98 -1 169 -31q141 -61 188 -210q24 -74 24 -160v-1090h-188v1029q0 222 -125 282q-47 23 -119 23q-117 0 -196 -84t-79 -250v-508h-190v743q0 150 -6 232h182q6 -58 6 -160z" />
    <glyph glyph-name="u03B8" unicode="&#x3b8;" horiz-adv-x="1267" 
d="M642 121q162 0 246 164q70 140 81 393l-654 2q13 -397 183 -517q60 -42 144 -42zM642 1405q-157 0 -244 -162q-72 -137 -83 -401h654q-13 397 -181 519q-60 44 -146 44zM641 1559q137 -1 235 -61q191 -117 256 -422q30 -146 30 -316q-2 -562 -282 -734q-98 -60 -238 -60
q-267 -1 -398 227q-119 207 -119 566t127 579q126 221 389 221z" />
    <glyph glyph-name="u03B9" unicode="&#x3b9;" horiz-adv-x="493" 
d="M342 0h-190v975h190v-975z" />
    <glyph glyph-name="u03BA" unicode="&#x3ba;" horiz-adv-x="1128" 
d="M354 547h6l414 428h248l-461 -445l502 -530h-254l-449 500h-6v-500h-188v975h188v-428z" />
    <glyph glyph-name="u03BB" unicode="&#x3bb;" horiz-adv-x="1097" 
d="M200 1368q-60 0 -120 -33l-33 154q37 15 82 29t125 14q149 0 227 -84q37 -41 63 -99t54 -135l477 -1214h-203l-307 821h-4l-307 -821h-203l414 1032l-45 121q-20 53 -37 93q-33 85 -91 109q-32 13 -92 13z" />
    <glyph glyph-name="u03BC" unicode="&#x3bc;" horiz-adv-x="1228" 
d="M352 139v-631h-188v1467h190v-520q0 -170 54 -243t181 -73q126 0 201 87t74 257v492h189v-764q0 -78 10 -211h-195l-4 150h-4q-42 -74 -110 -124t-156 -51q-188 0 -238 164h-4z" />
    <glyph glyph-name="u03BD" unicode="&#x3bd;" horiz-adv-x="1040" 
d="M625 0h-207l-393 975h211l284 -774h6l287 774h205z" />
    <glyph glyph-name="u03BE" unicode="&#x3be;" horiz-adv-x="1046" 
d="M249 101q-145 94 -145 267q0 174 135 276q111 85 287 108q-261 32 -357 180q-38 59 -38 139q0 206 200 281q60 23 130 37v6h-330v149h793v-133q-319 -31 -441 -89q-153 -72 -153 -228q0 -125 103 -188q103 -62 280 -62h192v-185h-254q-234 0 -319 -144q-27 -45 -27 -109
t27 -109q51 -86 217 -128q83 -23 211 -49q244 -50 246 -267q0 -138 -136 -245q-100 -80 -217 -108l-129 107q98 20 161 59q120 74 120 153q-1 79 -61 121t-164 58q-224 34 -331 103z" />
    <glyph glyph-name="u03BF" unicode="&#x3bf;" horiz-adv-x="1263" 
d="M965 490q0 149 -92 250q-92 102 -241 102t-241 -101t-92 -252t91 -254q90 -102 240 -102q149 0 242 104t93 253zM1157 489q0 -223 -150 -370q-150 -146 -375 -146q-226 0 -376 146q-150 147 -150 369q0 223 151 369t376 145q226 -1 375 -146q149 -144 149 -367z" />
    <glyph glyph-name="u03C0" unicode="&#x3c0;" horiz-adv-x="1189" 
d="M354 0h-190v975h862v-975h-190v821h-482v-821z" />
    <glyph glyph-name="u03C1" unicode="&#x3c1;" horiz-adv-x="1310" 
d="M1014 488q0 156 -89 255t-237 99q-149 0 -243 -100q-95 -100 -95 -256t93 -255q93 -98 239 -98q80 0 141 28q191 88 191 327zM356 -492h-186v971q0 244 153 384t374 139t364 -148t143 -369q0 -221 -144 -366q-144 -146 -368 -146q-100 0 -188 42t-142 114h-6v-621z" />
    <glyph glyph-name="u03C2" unicode="&#x3c2;" horiz-adv-x="1056" 
d="M969 -152q0 -78 -39 -139q-75 -118 -209 -178q-59 -27 -98 -37l-123 117q179 50 250 139q26 35 26 80q-1 84 -65 122q-29 17 -140 42t-165 47q-300 126 -300 444q0 231 148 375q148 143 369 141q117 0 218 -42t163 -123l-130 -115q-31 49 -92 85t-144 36q-152 0 -246 -92
q-93 -95 -93 -258q0 -237 231 -312q66 -21 126 -33t113 -30q54 -18 98 -52q44 -35 73 -87t29 -130z" />
    <glyph glyph-name="u03C3" unicode="&#x3c3;" horiz-adv-x="1312" 
d="M961 489q0 150 -92 251q-92 102 -241 102t-243 -103t-93 -254t94 -251q93 -101 242 -101t241 103t92 253zM1028 819v-6q49 -51 85 -136t36 -194t-39 -201q-80 -191 -272 -270q-96 -39 -211 -39q-227 0 -374 147q-147 148 -147 368t147 367t374 146q55 0 166 -12t186 -12
h317v-158h-268z" />
    <glyph glyph-name="u03C4" unicode="&#x3c4;" horiz-adv-x="976" 
d="M16 975h945v-154h-379v-821h-189v821h-377v154z" />
    <glyph glyph-name="u03C5" unicode="&#x3c5;" horiz-adv-x="1206" 
d="M162 975h190v-541q0 -200 131 -271q47 -26 118 -26q131 0 192 85t61 212v541h190v-567q0 -180 -112 -307q-112 -126 -334 -126t-337 135q-101 117 -99 298v567z" />
    <glyph glyph-name="u03C6" unicode="&#x3c6;" horiz-adv-x="1665" 
d="M106 490q0 207 133 345q105 108 269 156l76 -139q-113 -32 -199 -120t-86 -226q0 -183 123 -275t332 -96v848h262q228 0 385 -132q158 -132 158 -347q0 -250 -197 -398q-175 -131 -428 -131v-467h-180v467q-285 4 -459 133q-89 65 -139 163t-50 219zM1004 825h-70v-690
q191 0 312 96q120 96 120 273t-132 260q-98 61 -230 61z" />
    <glyph glyph-name="u03C7" unicode="&#x3c7;" horiz-adv-x="1148" 
d="M272 975l306 -553l303 553h200l-393 -694l434 -770h-207l-342 628l-340 -628h-204l432 772l-393 692h204z" />
    <glyph glyph-name="u03C8" unicode="&#x3c8;" horiz-adv-x="1646" 
d="M1319 555v420h190v-455q0 -260 -166 -406q-166 -145 -423 -145v-461h-191v461q-260 0 -426 145t-166 406v455h191v-420q0 -207 110 -310t291 -110v840h191v-840q180 7 290 109t109 311z" />
    <glyph glyph-name="u03C9" unicode="&#x3c9;" horiz-adv-x="1656" 
d="M506 139q98 0 163 81t64 243v176h191v-176q0 -162 63 -242t166 -80t163 87t60 243t-80 247t-243 144l98 127q283 -83 380 -329q36 -92 36 -204q0 -329 -236 -440q-76 -35 -170 -34q-137 0 -224 76t-103 216h-9q-20 -145 -108 -221q-87 -76 -201 -76q-207 0 -317 129
q-109 129 -109 351q0 221 130 365q103 115 286 167l98 -127q-164 -53 -244 -144t-79 -255q0 -226 128 -299q42 -25 97 -25z" />
    <glyph glyph-name="u03CA" unicode="&#x3ca;" horiz-adv-x="536" 
d="M352 1331q0 47 34 83t87 36t88 -36t35 -83t-35 -84t-88 -37t-87 37t-34 84zM-53 1331q0 47 34 83t87 36t87 -36q33 -36 33 -83t-34 -84t-86 -37q-53 0 -87 37t-34 84zM362 0h-188v975h188v-975z" />
    <glyph glyph-name="u03CB" unicode="&#x3cb;" horiz-adv-x="1206" 
d="M190 408v567h189v-541q0 -202 132 -271q48 -26 119 -26q129 0 196 92q55 75 57 205v541h190v-567q0 -180 -112 -307q-112 -126 -334 -126t-337 135q-100 115 -100 298zM707 1331q0 47 33 83q34 36 87 36t87 -36t34 -83t-34 -84t-87 -37t-87 37q-33 37 -33 84zM299 1331
q0 47 34 83t87 36t88 -36t35 -83t-35 -84t-88 -37t-87 37t-34 84z" />
    <glyph glyph-name="u03CC" unicode="&#x3cc;" horiz-adv-x="1263" 
d="M549 1499h168l-21 -379h-125zM965 490q0 149 -92 250q-92 102 -241 102t-241 -101t-92 -252t91 -254q90 -102 240 -102q149 0 242 104t93 253zM1157 489q0 -223 -150 -370q-150 -146 -375 -146q-226 0 -376 146q-150 147 -150 369q0 223 151 369t376 145q226 -1 375 -146
q149 -144 149 -367z" />
    <glyph glyph-name="u03CD" unicode="&#x3cd;" horiz-adv-x="1206" 
d="M600 -25q-224 0 -339 135q-101 117 -99 298v567h190v-541q0 -200 131 -271q47 -26 118 -26q131 0 193 84t62 213v541h188v-567q0 -287 -241 -396q-84 -37 -203 -37zM520 1485h170l-20 -381h-127z" />
    <glyph glyph-name="u03CE" unicode="&#x3ce;" horiz-adv-x="1656" 
d="M506 139q98 0 163 81t64 243v176h191v-176q0 -162 63 -242t166 -80t163 87t60 243t-80 247t-243 144l98 127q283 -83 380 -329q36 -92 36 -204q0 -329 -236 -440q-76 -35 -170 -34q-137 0 -224 76t-103 216h-9q-20 -145 -108 -221q-87 -76 -201 -76q-207 0 -317 129
q-109 129 -109 351q0 221 130 365q103 115 286 167l98 -127q-164 -53 -244 -144t-79 -255q0 -226 128 -299q42 -25 97 -25zM907 1485l-20 -381h-125l-23 381h168z" />
    <glyph glyph-name="u0401" unicode="&#x401;" horiz-adv-x="1220" 
d="M729 1737q0 47 34 83t87 36t87 -36t34 -83t-34 -84t-87 -37t-87 37t-34 84zM322 1737q0 47 33 83q34 36 87 36t88 -36t35 -83t-35 -84t-88 -37t-87 37q-33 37 -33 84zM377 174h751v-174h-946v1450h918v-174h-723v-440h678v-168h-678v-494z" />
    <glyph glyph-name="u0402" unicode="&#x402;" horiz-adv-x="1488" 
d="M20 1274v176h1096v-176h-500v-338h252q255 0 389 -128t134 -337t-130 -337q-143 -136 -387 -136l-69 2v176h100q115 0 199 76t84 212t-80 215t-244 79h-248v-758h-198v1274h-398z" />
    <glyph glyph-name="u0403" unicode="&#x403;" horiz-adv-x="1077" 
d="M381 0h-199v1450h846v-176h-647v-1274zM924 1860l-279 -295h-153l206 295h226z" />
    <glyph glyph-name="u0404" unicode="&#x404;" horiz-adv-x="1484" 
d="M1417 229q-179 -266 -581 -266q-134 0 -274 57q-283 115 -399 400q-56 139 -57 305q0 166 58 305q115 281 401 400q139 57 306 57q167 -1 305 -59t217 -166l-148 -132q-47 72 -143 126t-220 54t-216 -36q-185 -74 -279 -256q-45 -88 -59 -193h815v-166h-819
q20 -224 171 -371t377 -147q262 0 402 199z" />
    <glyph glyph-name="u0405" unicode="&#x405;" horiz-adv-x="1169" 
d="M634 1321q-133 0 -219 -63q-87 -63 -85 -179q0 -151 180 -216q53 -19 120 -41q66 -22 144 -52q168 -64 243 -192q40 -72 40 -183q0 -209 -147 -320q-147 -112 -347 -112q-139 0 -267 54t-212 159l154 131q49 -76 134 -126t196 -50t199 65q87 65 87 185t-99 186
q-65 44 -189 83q-124 38 -192 68q-244 105 -245 355q0 205 159 317q138 97 330 97q141 0 252 -50t174 -126l-143 -131q-47 66 -121 104t-146 37z" />
    <glyph glyph-name="u0406" unicode="&#x406;" horiz-adv-x="563" 
d="M381 0h-199v1450h199v-1450z" />
    <glyph glyph-name="u0407" unicode="&#x407;" horiz-adv-x="573" 
d="M373 1737q0 47 34 83t87 36t87 -36q33 -36 33 -83t-34 -84t-86 -37q-53 0 -87 37t-34 84zM-35 1737q0 47 34 83t87 36t88 -36t35 -83t-35 -84t-88 -37t-87 37t-34 84zM389 0h-199v1450h199v-1450z" />
    <glyph glyph-name="u0408" unicode="&#x408;" horiz-adv-x="1026" 
d="M657 444v1006h199v-1012q0 -312 -203 -429q-79 -46 -225 -46t-254 85t-137 220l180 56q15 -78 71 -131t142 -54q227 0 227 305z" />
    <glyph glyph-name="u0409" unicode="&#x409;" horiz-adv-x="1955" 
d="M1692 410q0 264 -379 264h-187l205 -506q254 0 333 130q28 46 28 112zM1321 844q266 0 418 -108q153 -108 153 -333q0 -178 -147 -290q-147 -113 -408 -113h-157l-469 1212l-471 -1212h-209l585 1450h195l248 -606h262z" />
    <glyph glyph-name="u040A" unicode="&#x40a;" horiz-adv-x="2056" 
d="M1214 676v-502h218q158 0 242 65t85 189q0 124 -87 186q-87 61 -240 62h-218zM381 1450v-602h635v602h198v-602h232q226 0 369 -110t143 -313q0 -204 -140 -314q-139 -111 -372 -111h-430v672h-635v-672h-199v1450h199z" />
    <glyph glyph-name="u040B" unicode="&#x40b;" horiz-adv-x="1497" 
d="M616 756v-756h-198v1274h-398v176h1096v-176h-500v-342h304q230 0 344 -135t112 -359v-438h-198v360q0 203 -67 300q-67 96 -243 96h-252z" />
    <glyph glyph-name="u040C" unicode="&#x40c;" horiz-adv-x="1427" 
d="M758 1565h-154l207 295h225zM381 856q73 0 186 -10l525 604h217l-539 -651q240 -82 375 -279t188 -520h-219q-63 367 -233 527q-170 161 -500 153v-680h-199v1450h199v-594z" />
    <glyph glyph-name="u040E" unicode="&#x40e;" horiz-adv-x="1329" 
d="M672 1698q90 0 154 47t94 119l122 -62q-34 -99 -132 -166q-99 -67 -238 -67t-237 65t-138 168l123 62q30 -72 96 -119t156 -47zM221 193q70 -48 143 -49q74 -1 122 47t96 139l-543 1120h221l428 -893l412 893h221l-539 -1135q-82 -168 -170 -246q-109 -98 -264 -98
q-94 0 -146 22t-85 44z" />
    <glyph glyph-name="u040F" unicode="&#x40f;" horiz-adv-x="1460" 
d="M1079 176v1274h199v-1450h-440v-285h-183v285h-473v1450h199v-1274h698z" />
    <glyph glyph-name="u0410" unicode="&#x410;" horiz-adv-x="1447" 
d="M436 528h570l-283 701zM225 0h-217l623 1450h192l619 -1450h-223l-148 356h-700z" />
    <glyph glyph-name="u0411" unicode="&#x411;" horiz-adv-x="1280" 
d="M182 0v1450h877v-176h-678v-428h270q230 0 369 -108t139 -311t-142 -315t-372 -112h-463zM633 176q154 0 243 66t89 188q1 122 -91 180q-92 59 -239 60h-254v-494h252z" />
    <glyph glyph-name="u0412" unicode="&#x412;" horiz-adv-x="1316" 
d="M377 166h256q246 0 331 136q30 48 29 120q0 129 -91 190t-251 62h-274v-508zM377 829h270q188 0 256 122q25 45 25 107q0 114 -85 170t-231 56h-235v-455zM182 1450h469q318 0 430 -190q43 -72 43 -185t-68 -197t-184 -112v-4q139 -16 230 -111q92 -95 92 -243
q0 -194 -150 -301t-395 -107h-467v1450z" />
    <glyph glyph-name="u0413" unicode="&#x413;" horiz-adv-x="1073" 
d="M381 0h-199v1450h846v-176h-647v-1274z" />
    <glyph glyph-name="u0414" unicode="&#x414;" horiz-adv-x="1542" 
d="M397 176h740l-371 1051zM180 0v-285h-182v461h197l481 1274h192l475 -1274h201v-461h-184v285h-1180z" />
    <glyph glyph-name="u0415" unicode="&#x415;" horiz-adv-x="1220" 
d="M377 174h751v-174h-946v1450h918v-174h-723v-440h678v-168h-678v-494z" />
    <glyph glyph-name="u0416" unicode="&#x416;" horiz-adv-x="2023" 
d="M911 854v596h199v-596q96 0 182 -16l416 612h217l-452 -672q387 -174 454 -778h-217q-84 690 -600 678v-678h-199v678q-516 12 -598 -678h-219q68 606 453 778l-451 672h219l416 -612q88 16 180 16z" />
    <glyph glyph-name="u0417" unicode="&#x417;" horiz-adv-x="1273" 
d="M950 406q0 272 -424 272h-98v156h104q235 0 314 134q27 46 26 109q0 117 -76 179t-188 62q-210 1 -291 -185l-163 90q63 129 180 197t276 67q206 0 338 -102q131 -102 131 -291q0 -123 -90 -213t-201 -115v-4q139 -14 240 -91q123 -97 123 -265q0 -202 -156 -323
q-156 -120 -387 -120q-366 0 -506 324l174 82q45 -111 124 -174t229 -63q149 0 235 75q86 76 86 199z" />
    <glyph glyph-name="u0418" unicode="&#x418;" horiz-adv-x="1587" 
d="M1405 1450v-1450h-199v1171h-4l-782 -1171h-238v1450h199v-1165h4l782 1165h238z" />
    <glyph glyph-name="u0419" unicode="&#x419;" horiz-adv-x="1585" 
d="M1405 1450v-1450h-199v1171h-4l-778 -1171h-242v1450h199l-2 -1161h6l776 1161h244zM795 1698q91 0 155 47t92 119l123 -62q-34 -99 -132 -166q-99 -67 -239 -67t-237 65t-137 168l123 62q29 -72 95 -119t157 -47z" />
    <glyph glyph-name="u041A" unicode="&#x41a;" horiz-adv-x="1427" 
d="M381 856q73 0 186 -10l525 604h217l-539 -651q240 -82 375 -279t188 -520h-219q-63 367 -233 527q-170 161 -500 153v-680h-199v1450h199v-594z" />
    <glyph glyph-name="u041B" unicode="&#x41b;" horiz-adv-x="1404" 
d="M223 0h-215l610 1450h199l610 -1450h-219l-493 1190z" />
    <glyph glyph-name="u041C" unicode="&#x41c;" horiz-adv-x="1851" 
d="M1669 1450v-1450h-196l2 1200h-7l-485 -1200h-121l-483 1200h-6l2 -1200h-193v1450h295l449 -1131h4l442 1131h297z" />
    <glyph glyph-name="u041D" unicode="&#x41d;" horiz-adv-x="1495" 
d="M182 1450h199v-608h733v608h199v-1450h-199v666h-733v-666h-199v1450z" />
    <glyph glyph-name="u041E" unicode="&#x41e;" horiz-adv-x="1740" 
d="M1423 726q0 241 -153 413q-154 172 -400 172q-247 0 -400 -170t-153 -415q0 -244 152 -415q152 -170 401 -170q127 0 230 46q204 93 284 313q38 106 39 226zM1634 727q0 -335 -217 -550q-217 -214 -548 -214t-546 214t-217 550q0 168 58 307q115 280 402 397
q140 56 304 56t304 -56q285 -114 403 -397q57 -139 57 -307z" />
    <glyph glyph-name="u041F" unicode="&#x41f;" horiz-adv-x="1454" 
d="M1274 1450v-1450h-199v1274h-694v-1274h-199v1450h1092z" />
    <glyph glyph-name="u0420" unicode="&#x420;" horiz-adv-x="1218" 
d="M932 1047q0 237 -326 237h-225v-479h223q154 0 241 59t87 183zM182 1450h441q365 0 473 -221q37 -76 37 -180q0 -103 -39 -181q-77 -152 -272 -202q-95 -25 -206 -25h-235v-641h-199v1450z" />
    <glyph glyph-name="u0421" unicode="&#x421;" horiz-adv-x="1462" 
d="M870 1487q245 0 426 -130q57 -42 97 -95l-152 -127q-47 71 -144 123t-225 52t-229 -46q-205 -94 -285 -314q-39 -106 -39 -226q0 -242 152 -413q152 -170 409 -170q256 0 388 197l149 -113q-80 -113 -221 -187q-141 -73 -317 -74q-343 -2 -556 213q-101 101 -159 241
t-58 308q0 167 59 306q118 282 402 399q139 56 303 56z" />
    <glyph glyph-name="u0422" unicode="&#x422;" horiz-adv-x="1173" 
d="M686 0h-199v1276h-467v174h1133v-174h-467v-1276z" />
    <glyph glyph-name="u0423" unicode="&#x423;" horiz-adv-x="1329" 
d="M221 193q70 -48 143 -49q74 -1 122 47t96 139l-543 1120h221l428 -893l412 893h221l-539 -1135q-82 -168 -170 -246q-109 -98 -264 -98q-94 0 -146 22t-85 44z" />
    <glyph glyph-name="u0424" unicode="&#x424;" horiz-adv-x="1775" 
d="M1466 726q0 196 -127 333t-352 162v-992q220 23 350 162q129 139 129 335zM436 1058q-127 -139 -127 -335q0 -195 127 -332q127 -138 357 -164v994q-226 -24 -357 -163zM1486 259q-191 -183 -499 -210v-164h-194v164q-309 24 -503 210t-194 468t193 464t504 208v151h194
v-151q305 -24 498 -208q192 -184 192 -467q0 -282 -191 -465z" />
    <glyph glyph-name="u0425" unicode="&#x425;" horiz-adv-x="1357" 
d="M680 899l362 551h236l-475 -688l530 -762h-248l-411 616l-406 -616h-243l526 764l-481 686h245z" />
    <glyph glyph-name="u0426" unicode="&#x426;" horiz-adv-x="1509" 
d="M182 0v1450h199v-1274h698v1274h199v-1274h172v-461h-182v285h-1086z" />
    <glyph glyph-name="u0427" unicode="&#x427;" horiz-adv-x="1302" 
d="M922 1450h198v-1450h-196v625h-334q-232 0 -347 129q-116 129 -116 358v338h199v-264q0 -197 64 -292t228 -93h304v649z" />
    <glyph glyph-name="u0428" unicode="&#x428;" horiz-adv-x="2035" 
d="M926 176v1274h198v-1274h531v1274h198v-1450h-1671v1450h199v-1274h545z" />
    <glyph glyph-name="u0429" unicode="&#x429;" horiz-adv-x="2103" 
d="M182 0v1450h199v-1274h545v1274h198v-1274h527v1274h200v-1274h193v-461h-182v285h-1680z" />
    <glyph glyph-name="u042A" unicode="&#x42a;" horiz-adv-x="1429" 
d="M600 172h209q157 0 239 75q83 75 84 194q1 118 -81 190t-242 71h-209v-530zM600 1450v-576h213q236 0 377 -112t141 -319q0 -206 -167 -325q-167 -118 -421 -118h-342v1274h-381v176h580z" />
    <glyph glyph-name="u042B" unicode="&#x42b;" horiz-adv-x="1626" 
d="M1446 1450v-1450h-199v1450h199zM590 172q321 0 321 258q0 128 -81 201q-81 72 -240 71h-209v-530h209zM381 1450v-576h211q233 0 376 -117q144 -117 144 -323t-144 -320t-380 -114h-406v1450h199z" />
    <glyph glyph-name="u042C" unicode="&#x42c;" horiz-adv-x="1220" 
d="M381 702v-530h221q162 0 242 76t80 194t-81 190q-81 71 -241 70h-221zM182 1450h199v-576h223q231 0 376 -111q144 -111 144 -319q0 -207 -147 -326q-148 -118 -377 -118h-418v1450z" />
    <glyph glyph-name="u042D" unicode="&#x42d;" horiz-adv-x="1486" 
d="M634 141q118 0 211 39q189 79 271 274q41 95 51 205h-823v166h819q-45 338 -333 450q-93 36 -190 36q-97 1 -164 -19q-189 -55 -259 -184l-129 127q122 175 375 232q84 19 178 20q341 0 540 -212t199 -547q0 -336 -207 -551q-207 -214 -538 -214q-184 0 -338 73
q-153 73 -229 187l143 113q73 -102 189 -148t234 -47z" />
    <glyph glyph-name="u042E" unicode="&#x42e;" horiz-adv-x="2265" 
d="M842 726q0 -243 152 -414t400 -171q249 0 402 169q152 169 152 414q0 244 -153 416q-153 171 -400 171q-127 0 -230 -47q-205 -94 -285 -312q-38 -106 -38 -226zM381 1450v-635h254q12 147 75 270q125 248 398 352q133 50 292 50t299 -56q287 -115 402 -397
q57 -139 57 -307q1 -333 -216 -550q-102 -101 -242 -157t-300 -57q-316 0 -527 190t-238 486h-254v-639h-199v1450h199z" />
    <glyph glyph-name="u042F" unicode="&#x42f;" horiz-adv-x="1337" 
d="M700 1450h455v-1450h-199v637h-155q-228 0 -357 -149t-161 -488h-217q16 258 123 445t270 262v4q-147 25 -236 108q-88 84 -90 230q0 199 152 300t415 101zM719 1274q-373 0 -373 -224q0 -238 373 -237h237v461h-237z" />
    <glyph glyph-name="u0430" unicode="&#x430;" horiz-adv-x="1110" 
d="M733 471q-198 -1 -281 -27q-84 -26 -124 -64t-41 -91q0 -53 18 -84q50 -86 183 -86q133 1 210 83q76 82 76 206v63h-41zM100 274q0 285 424 317q121 9 248 9v29q0 111 -62 166t-160 55q-182 0 -292 -111l-102 115q66 66 170 107t208 41q295 -1 382 -204q34 -78 34 -216
v-369q0 -133 13 -213h-172q-11 96 -11 143h-4q-113 -168 -334 -168q-131 0 -237 75q-105 76 -105 224z" />
    <glyph glyph-name="u0431" unicode="&#x431;" horiz-adv-x="1241" 
d="M946 470q0 145 -87 240t-224 95t-230 -85q-94 -85 -94 -238t89 -251t233 -98q145 0 229 96t84 241zM652 963q215 0 350 -136t135 -358t-146 -359t-362 -137q-215 0 -352 136t-148 370q-4 33 -4 68v67q16 428 180 631t512 203h291v-154h-295q-248 0 -358 -125t-140 -360
q53 72 143 113t194 41z" />
    <glyph glyph-name="u0432" unicode="&#x432;" horiz-adv-x="1128" 
d="M164 0v975h452q186 0 278 -72t93 -190q0 -143 -133 -191q-39 -14 -84 -26q181 -14 243 -134q22 -43 21 -102q0 -116 -100 -188t-293 -72h-477zM354 143h166q168 -1 217 15t74 46t25 83q0 95 -91 125q-55 18 -229 18h-162v-287zM588 555q92 0 148 28t57 111
q0 124 -173 134q-52 3 -114 3h-152v-276h234z" />
    <glyph glyph-name="u0433" unicode="&#x433;" horiz-adv-x="819" 
d="M354 0h-190v975h627v-154h-437v-821z" />
    <glyph glyph-name="u0434" unicode="&#x434;" horiz-adv-x="1169" 
d="M535 629l-181 -473h459l-217 598zM174 -285h-172v441h158l336 819h196l312 -819h163v-441h-172v285h-821v-285z" />
    <glyph glyph-name="u0435" unicode="&#x435;" horiz-adv-x="1183" 
d="M618 -27q-221 0 -366 143q-146 143 -146 369t144 372t361 145t342 -141q126 -140 126 -355v-33q0 -18 -2 -37h-780q4 -129 97 -219t210 -90q116 0 190 46t111 106l137 -99q-154 -205 -424 -207zM614 854q-129 0 -219 -85t-98 -198h598q-4 123 -78 203t-203 80z" />
    <glyph glyph-name="u0436" unicode="&#x436;" horiz-adv-x="1712" 
d="M762 975h188v-385q63 -4 123 -12l293 397h211l-340 -451q152 -61 243 -188t142 -336h-211q-52 233 -163 330t-298 104v-434h-188v434q-189 -8 -300 -104t-163 -330h-209q51 209 141 336t242 188l-338 451h211l291 -397q59 10 125 12v385z" />
    <glyph glyph-name="u0437" unicode="&#x437;" horiz-adv-x="964" 
d="M169 919q115 89 292 89t275 -80t98 -188q0 -106 -68 -168t-162 -72v-6q177 -7 244 -126q22 -42 22 -107q-1 -131 -114 -210q-113 -78 -298 -79t-301 85q-44 33 -66 62t-28 33l121 102q4 -4 20 -26t50 -46q84 -62 197 -63q112 0 173 42q60 42 60 113q0 72 -57 112t-172 40
h-136v131h119q92 0 155 35q62 36 62 106t-51 120q-52 50 -142 50t-134 -22q-87 -44 -119 -121l-129 86q33 66 89 108z" />
    <glyph glyph-name="u0438" unicode="&#x438;" horiz-adv-x="1265" 
d="M164 0v975h192v-711l553 711h193v-975h-193v731l-553 -731h-192z" />
    <glyph glyph-name="u0439" unicode="&#x439;" horiz-adv-x="1265" 
d="M647 1298q82 0 141 43t82 107l113 -55q-53 -143 -217 -194q-55 -17 -120 -17q-123 0 -215 62t-120 149l113 55q23 -62 82 -106t141 -44zM909 0v731l-553 -731h-192v975h192v-711l553 711h193v-975h-193z" />
    <glyph glyph-name="u043A" unicode="&#x43a;" horiz-adv-x="1138" 
d="M354 586q72 0 138 -13l315 402h211l-361 -451q228 -88 331 -339q34 -83 61 -185h-211q-52 236 -162 331t-322 101v-432h-190v975h190v-389z" />
    <glyph glyph-name="u043B" unicode="&#x43b;" horiz-adv-x="1067" 
d="M834 0l-291 748l-305 -748h-203l414 975h194l389 -975h-198z" />
    <glyph glyph-name="u043C" unicode="&#x43c;" horiz-adv-x="1447" 
d="M1284 975v-975h-190v705l-340 -435h-58l-342 426v-696h-190v975h164l399 -473l393 473h164z" />
    <glyph glyph-name="u043D" unicode="&#x43d;" horiz-adv-x="1202" 
d="M354 0h-190v975h190v-385h494v385h190v-975h-190v436h-494v-436z" />
    <glyph glyph-name="u043E" unicode="&#x43e;" horiz-adv-x="1263" 
d="M965 490q0 149 -92 250q-92 102 -241 102t-241 -101t-92 -252t91 -254q90 -102 240 -102q149 0 242 104t93 253zM1157 489q0 -223 -150 -370q-150 -146 -375 -146q-226 0 -376 146q-150 147 -150 369q0 223 151 369t376 145q226 -1 375 -146q149 -144 149 -367z" />
    <glyph glyph-name="u043F" unicode="&#x43f;" horiz-adv-x="1185" 
d="M354 0h-190v975h858v-975h-191v821h-477v-821z" />
    <glyph glyph-name="u0440" unicode="&#x440;" horiz-adv-x="1312" 
d="M1014 487q0 152 -90 254q-90 101 -239 101q-148 0 -244 -102q-97 -102 -97 -252t96 -253q96 -102 243 -102q148 0 239 101q92 101 92 253zM360 -492h-190v1467h186v-156h6q58 86 152 133t203 47q215 0 352 -147t137 -363q0 -217 -138 -367q-138 -149 -355 -149
q-101 0 -195 45t-151 132h-7v-642z" />
    <glyph glyph-name="u0441" unicode="&#x441;" horiz-adv-x="1026" 
d="M1001 131q-138 -158 -371 -158q-232 0 -378 146q-146 147 -146 369t146 368t381 145q101 -1 201 -41t161 -118l-131 -115q-33 51 -95 83t-136 32q-144 0 -237 -101t-93 -253q0 -153 92 -254t242 -101t237 113z" />
    <glyph glyph-name="u0442" unicode="&#x442;" horiz-adv-x="909" 
d="M27 975h856v-154h-342v-821h-191v821h-323v154z" />
    <glyph glyph-name="u0443" unicode="&#x443;" horiz-adv-x="1040" 
d="M201 -328q61 0 101 42t69 120l67 172l-413 969h211l299 -770h6l272 770h205l-428 -1086q-78 -199 -128 -262q-94 -119 -228 -119q-88 0 -168 15l20 168q54 -19 115 -19z" />
    <glyph glyph-name="u0444" unicode="&#x444;" horiz-adv-x="1409" 
d="M295 486q0 -154 87 -252q87 -99 232 -103v713q-148 -4 -233 -104q-86 -100 -86 -254zM1026 739q-86 101 -235 105v-713q150 4 235 104q86 99 86 251t-86 253zM791 997q220 0 366 -147t146 -365t-144 -362t-368 -148v-475h-177v475q-219 4 -364 151q-144 147 -144 362
t143 360t365 149v551h177v-551z" />
    <glyph glyph-name="u0445" unicode="&#x445;" horiz-adv-x="1048" 
d="M408 506l-359 469h234l243 -342l244 342h223l-354 -465l387 -510h-235l-269 377l-274 -377h-225z" />
    <glyph glyph-name="u0446" unicode="&#x446;" horiz-adv-x="1204" 
d="M164 0v975h190v-815h467v815h189v-815h159v-445h-172v285h-833z" />
    <glyph glyph-name="u0447" unicode="&#x447;" horiz-adv-x="1103" 
d="M98 975h189v-139q0 -92 6 -158q12 -131 109 -167q52 -19 147 -19h201v483h188v-975h-188v328l-215 2q-367 0 -419 236q-17 77 -18 177v232z" />
    <glyph glyph-name="u0448" unicode="&#x448;" horiz-adv-x="1679" 
d="M164 0v975h190v-821h389v821h191v-821h391v821h188v-975h-1349z" />
    <glyph glyph-name="u0449" unicode="&#x449;" horiz-adv-x="1687" 
d="M164 0v975h190v-821h379v821h191v-821h381v821h188v-821h162v-439h-174v285h-1317z" />
    <glyph glyph-name="u044A" unicode="&#x44a;" horiz-adv-x="1175" 
d="M895 326q0 180 -242 180h-161v-363h167q104 0 170 38t66 145zM492 975v-328h202q207 0 300 -86t93 -231q0 -144 -100 -237t-285 -93h-401v821h-274v154h465z" />
    <glyph glyph-name="u044B" unicode="&#x44b;" horiz-adv-x="1421" 
d="M1257 975v-975h-190v975h190zM760 326q0 180 -242 180h-164v-363h170q104 0 170 38t66 145zM528 647q428 0 424 -321q0 -152 -105 -239t-317 -87h-366v975h190v-328h174z" />
    <glyph glyph-name="u044C" unicode="&#x44c;" horiz-adv-x="1075" 
d="M354 143h201q104 0 171 38t67 145q0 180 -244 180h-195v-363zM354 975v-328h236q302 0 374 -194q48 -129 -3 -254q-52 -124 -196 -173q-73 -26 -167 -26h-434v975h190z" />
    <glyph glyph-name="u044D" unicode="&#x44d;" horiz-adv-x="1120" 
d="M490 1001q140 -1 234 -39q188 -78 256 -270q34 -94 34 -205t-39 -205q-80 -192 -268 -270q-94 -39 -211 -39q-254 0 -416 207l135 107q37 -59 111 -107t159 -49q149 0 243 88q93 88 99 217h-503v133h501q-13 116 -97 196q-85 81 -207 81q-121 0 -193 -48t-109 -110
l-129 111q56 84 158 143t242 59z" />
    <glyph glyph-name="u044E" unicode="&#x44e;" horiz-adv-x="1687" 
d="M1389 488q0 150 -92 252t-240 102t-240 -101t-92 -252t91 -254q90 -102 240 -102q149 0 241 103q92 102 92 252zM354 442v-442h-190v975h190v-379h189q32 183 176 295t338 110q228 0 377 -145t149 -367q0 -223 -150 -370q-150 -146 -369 -146t-366 130t-163 339h-181z
" />
    <glyph glyph-name="u044F" unicode="&#x44f;" horiz-adv-x="1099" 
d="M334 677q0 -114 149 -131q45 -5 97 -5h180v272h-182q-128 0 -169 -18q-75 -33 -75 -118zM618 385q-141 0 -218 -94t-97 -291h-211q20 178 95 297t194 156v6q-102 10 -171 65t-69 183t106 197t294 71h407v-975h-188v385h-142z" />
    <glyph glyph-name="u0451" unicode="&#x451;" horiz-adv-x="1171" 
d="M711 1331q0 47 33 83q34 36 87 36t87 -36t34 -83t-34 -84t-86 -37q-54 0 -88 37q-33 37 -33 84zM303 1331q0 47 35 83t88 36t87 -36t34 -83t-34 -84t-87 -37t-88 37t-35 84zM627 -27q-222 0 -367 143t-145 367t144 372t360 147q215 -1 342 -141q126 -140 126 -355v-33
q0 -18 -2 -37h-780q4 -130 99 -220q95 -89 210 -89t188 46t111 106l140 -99q-154 -205 -426 -207zM625 854q-128 0 -224 -86q-86 -82 -94 -197h596q-4 123 -77 203t-201 80z" />
    <glyph glyph-name="u0452" unicode="&#x452;" horiz-adv-x="1220" 
d="M647 -270q119 0 169 79t50 238v483q0 152 -52 232t-172 80t-196 -90q-77 -90 -75 -250v-502h-191v1176h-194v122h194v250h191v-250h364v-122h-364v-353h4q39 84 127 130t185 46q274 0 345 -242q23 -75 23 -163v-617q-13 -281 -227 -375q-73 -32 -145 -32q-147 0 -239 63
l88 131q14 -10 48 -22t67 -12z" />
    <glyph glyph-name="u0453" unicode="&#x453;" horiz-adv-x="825" 
d="M520 1114h-155l206 295h226zM354 0h-190v975h627v-154h-437v-821z" />
    <glyph glyph-name="u0454" unicode="&#x454;" horiz-adv-x="1155" 
d="M618 -27q-214 0 -357 147q-142 147 -142 369q0 223 136 369q136 145 366 143q279 0 421 -202l-131 -111q-35 63 -106 111q-72 47 -162 47q-148 0 -242 -83q-84 -77 -96 -194h504v-133h-504q8 -128 101 -217q93 -88 215 -88q123 0 191 48t106 108l135 -107
q-159 -205 -435 -207z" />
    <glyph glyph-name="u0455" unicode="&#x455;" horiz-adv-x="946" 
d="M508 852q-199 0 -203 -131q0 -61 52 -93q51 -32 187 -61t223 -95t87 -189q0 -156 -122 -240q-99 -68 -235 -69q-283 -2 -419 178l131 112q39 -59 109 -100t154 -41q86 0 137 34q59 36 60 109q1 74 -66 108t-153 54t-136 38q-186 66 -187 241q0 142 106 218t236 76
t199 -33q125 -60 176 -132l-125 -109q-35 55 -95 90t-116 35z" />
    <glyph glyph-name="u0456" unicode="&#x456;" horiz-adv-x="536" 
d="M391 1331q0 -53 -38 -86t-86 -33t-85 34t-37 85t37 86t85 35t86 -34t38 -87zM362 0h-188v975h188v-975z" />
    <glyph glyph-name="u0457" unicode="&#x457;" horiz-adv-x="536" 
d="M352 1331q0 47 34 83t87 36t88 -36t35 -83t-35 -84t-88 -37t-87 37t-34 84zM-53 1331q0 47 34 83t87 36t87 -36q33 -36 33 -83t-34 -84t-86 -37q-53 0 -87 37t-34 84zM362 0h-188v975h188v-975z" />
    <glyph glyph-name="u0458" unicode="&#x458;" horiz-adv-x="538" 
d="M393 1331q0 -53 -37 -86t-85 -33t-85 34t-36 85q0 51 36 86q37 35 85 35t85 -34t37 -87zM49 -330q90 0 114 89q13 50 13 214v1002h191v-1016q1 -78 -5 -158q-20 -293 -303 -293q-68 0 -120 15l22 160q39 -13 88 -13z" />
    <glyph glyph-name="u0459" unicode="&#x459;" horiz-adv-x="1482" 
d="M991 143q117 0 178 40q61 39 61 143t-60 142t-183 38h-199l136 -363h67zM1030 647q306 0 377 -197q20 -58 20 -124q0 -146 -102 -236t-293 -90h-246l-268 748l-280 -748h-195l385 975h190l121 -328h291z" />
    <glyph glyph-name="u045A" unicode="&#x45a;" horiz-adv-x="1730" 
d="M1448 299q0 160 -244 160h-162v-316h168q104 0 171 32t67 124zM354 975v-373h498v373h190v-373h203q202 0 299 -85q98 -85 97 -216t-103 -216t-285 -85h-401v449h-498v-449h-190v975h190z" />
    <glyph glyph-name="u045B" unicode="&#x45b;" horiz-adv-x="1218" 
d="M710 999q72 -1 142 -31q203 -88 203 -370v-598h-189v537q0 305 -233 305q-110 0 -187 -90t-75 -246v-506h-191v1176h-194v122h194v250h191v-250h364v-122h-364v-353h4q18 39 50 72q101 104 285 104z" />
    <glyph glyph-name="u045C" unicode="&#x45c;" horiz-adv-x="1138" 
d="M612 1114h-155l207 295h227zM354 586q72 0 138 -13l315 402h211l-361 -451q228 -88 331 -339q34 -83 61 -185h-211q-52 236 -162 331t-322 101v-432h-190v975h190v-389z" />
    <glyph glyph-name="u045E" unicode="&#x45e;" horiz-adv-x="1040" 
d="M201 -328q61 0 101 42t69 120l67 172l-413 969h211l299 -770h6l272 770h205l-428 -1086q-78 -199 -128 -262q-94 -119 -228 -119q-88 0 -168 15l20 168q54 -19 115 -19zM520 1298q82 0 142 43q59 43 81 107l113 -55q-53 -143 -217 -194q-55 -17 -120 -17q-123 0 -215 62
t-120 149l113 55q23 -62 82 -106t141 -44z" />
    <glyph glyph-name="u045F" unicode="&#x45f;" horiz-adv-x="1175" 
d="M684 0v-285h-170v285h-350v975h190v-819h467v819h191v-975h-328z" />
    <glyph glyph-name="u0490" unicode="&#x490;" horiz-adv-x="1083" 
d="M371 0h-201v1450h682v309h168v-485h-649v-1274z" />
    <glyph glyph-name="u0491" unicode="&#x491;" horiz-adv-x="851" 
d="M354 0h-190v975h469v323h172v-477h-451v-821z" />
    <glyph glyph-name="palochkacyrillic" unicode="&#x4c0;" horiz-adv-x="555" 
d="M379 0h-203v1450h203v-1450z" />
    <glyph glyph-name="Aiecyrillic" unicode="&#x4d4;" horiz-adv-x="2078" 
d="M1073 569v703h-29l-444 -703h473zM1276 180h709v-180h-912v393h-579l-248 -393h-242l936 1450h1014v-178h-678v-434h635v-174h-635v-484z" />
    <glyph glyph-name="aiecyrillic" unicode="&#x4d5;" horiz-adv-x="1796" 
d="M94 261q0 187 188 256q141 54 488 54v23q0 137 -65 192q-65 56 -161 56q-176 1 -290 -113l-102 123q154 145 408 145t329 -180q128 180 347 180t340 -137q120 -137 120 -366v-33q0 -16 -2 -33h-746q4 -123 93 -210q89 -85 199 -85q191 0 288 148l129 -109
q-147 -197 -404 -199q-129 1 -233 53t-162 148q-106 -199 -412 -199q-226 0 -318 141q-34 52 -34 145zM1503 571q0 120 -69 197q-69 78 -189 78q-119 0 -208 -80q-87 -81 -91 -195h557zM717 428q-212 0 -286 -22t-107 -52q-33 -31 -33 -78q0 -46 17 -74q47 -77 183 -77
q135 0 205 68t70 184v51h-49z" />
    <glyph glyph-name="Aringbelow" unicode="&#x1e00;" horiz-adv-x="1456" 
d="M848 -353q0 50 -36 83q-36 32 -84 32t-84 -32t-36 -82q0 -49 36 -83t84 -34t84 33t36 83zM727 -152q87 0 147 -57t60 -144t-60 -145t-148 -57q-86 0 -144 57t-59 144q-1 88 59 145t145 57zM453 535h542l-270 679zM236 0h-226l629 1450h184l623 -1450h-229l-148 356h-688z
" />
    <glyph glyph-name="aringbelow" unicode="&#x1e01;" horiz-adv-x="1110" 
d="M651 -378q0 50 -36 83t-84 33t-84 -33q-35 -33 -35 -82t36 -83t83 -34q48 0 84 33t36 83zM737 -378q0 -87 -60 -144q-60 -58 -145 -58t-146 58q-60 58 -60 144t59 144t145 58t147 -57q60 -58 60 -145zM723 463q-187 -1 -268 -25q-82 -24 -123 -61t-41 -89t17 -81
q47 -80 181 -80q135 0 208 81t73 204v51h-47zM94 274q0 282 432 318q121 10 244 10v27q0 109 -65 161t-161 52q-176 0 -290 -113l-102 123q154 145 397 145q201 0 304 -107t101 -274v-423q0 -135 15 -193h-174q-16 70 -17 139h-6q-111 -164 -326 -164q-135 0 -233 66
q-119 82 -119 233z" />
    <glyph glyph-name="uni1E02" unicode="&#x1e02;" horiz-adv-x="1314" 
d="M756 1731q0 -53 -38 -89t-91 -34q-53 0 -90 36t-37 88t37 88t90 36t91 -36t38 -89zM379 172h254q244 0 329 128q32 48 31 122q0 129 -88 186t-254 58h-272v-494zM928 1063q0 217 -318 217h-231v-442h264q197 0 262 124q23 42 23 101zM176 1450h500q194 0 310 -80
q146 -96 144 -287q0 -121 -70 -203t-183 -112v-4q142 -16 233 -111q90 -94 88 -241q0 -203 -155 -307q-155 -105 -390 -105h-477v1450z" />
    <glyph glyph-name="uni1E03" unicode="&#x1e03;" horiz-adv-x="1302" 
d="M778 1731q0 -53 -38 -89t-91 -34q-53 0 -90 36t-37 88t37 88t90 36t91 -36t38 -89zM1001 487q0 146 -85 248q-85 103 -233 103q-147 0 -240 -105t-93 -247t92 -247q92 -104 239 -104q146 0 233 103t87 249zM356 154v-154h-186v1548h192v-723h7q49 72 137 122t203 50
q219 0 355 -146t136 -363t-134 -366t-355 -149q-105 0 -199 46t-152 135h-4z" />
    <glyph glyph-name="Bdotbelow" unicode="&#x1e04;" horiz-adv-x="1314" 
d="M815 -276q0 -52 -38 -88t-91 -36t-90 36t-37 88t37 89q37 35 90 35t91 -36t38 -88zM379 172h254q244 0 329 128q32 48 31 122q0 129 -88 186t-254 58h-272v-494zM928 1063q0 217 -318 217h-231v-442h264q197 0 262 124q23 42 23 101zM176 1450h500q194 0 310 -80
q146 -96 144 -287q0 -121 -70 -203t-183 -112v-4q142 -16 233 -111q90 -94 88 -241q0 -203 -155 -307q-155 -105 -390 -105h-477v1450z" />
    <glyph glyph-name="bdotbelow" unicode="&#x1e05;" horiz-adv-x="1302" 
d="M813 -303q0 -53 -38 -88t-91 -35t-90 36t-37 88t37 88t90 36t91 -36t38 -89zM1001 487q0 146 -85 248q-85 103 -233 103q-147 0 -240 -105t-93 -247t92 -247q92 -104 239 -104q146 0 233 103t87 249zM356 154v-154h-186v1548h192v-723h7q49 72 137 122t203 50
q219 0 355 -146t136 -363t-134 -366t-355 -149q-105 0 -199 46t-152 135h-4z" />
    <glyph glyph-name="Blinebelow" unicode="&#x1e06;" horiz-adv-x="1314" 
d="M989 -289h-606v137h606v-137zM379 172h254q244 0 329 128q32 48 31 122q0 129 -88 186t-254 58h-272v-494zM928 1063q0 217 -318 217h-231v-442h264q197 0 262 124q23 42 23 101zM176 1450h500q194 0 310 -80q146 -96 144 -287q0 -121 -70 -203t-183 -112v-4
q142 -16 233 -111q90 -94 88 -241q0 -203 -155 -307q-155 -105 -390 -105h-477v1450z" />
    <glyph glyph-name="blinebelow" unicode="&#x1e07;" horiz-adv-x="1302" 
d="M987 -315h-606v137h606v-137zM1001 487q0 146 -85 248q-85 103 -233 103q-147 0 -240 -105t-93 -247t92 -247q92 -104 239 -104q146 0 233 103t87 249zM356 154v-154h-186v1548h192v-723h7q49 72 137 122t203 50q219 0 355 -146t136 -363t-134 -366t-355 -149
q-105 0 -199 46t-152 135h-4z" />
    <glyph glyph-name="Ccedillaacute" unicode="&#x1e08;" horiz-adv-x="1449" 
d="M700 1640h-157l205 295h231zM874 1487q248 0 422 -128q57 -42 99 -97l-160 -123q-53 74 -151 122t-217 48q-120 0 -221 -46q-203 -93 -284 -312q-38 -105 -38 -226q1 -249 149 -416q149 -166 400 -166t384 193l162 -111q-82 -111 -213 -183t-311 -77l-70 -106q14 4 27 4
h29q129 0 175 -84q17 -31 17 -80q0 -94 -87 -142q-66 -38 -146 -38q-150 0 -238 47l41 86q76 -35 156 -35t113 43q13 16 14 43q0 75 -111 78q-37 0 -84 -14l-41 40l105 160q-310 24 -500 235q-191 210 -193 525q0 170 59 310q116 280 406 395q141 55 307 55z" />
    <glyph glyph-name="ccedillaacute" unicode="&#x1e09;" horiz-adv-x="1011" 
d="M485 1153h-157l204 295h232zM228 137q-126 139 -126 357t148 362q148 143 371 141q102 0 203 -41t161 -118l-139 -113q-31 47 -92 79t-134 32q-74 0 -132 -29q-119 -59 -161 -189q-22 -63 -22 -133q0 -143 87 -247q87 -103 234 -103t232 107l129 -117
q-125 -144 -338 -152l-76 -114q14 4 27 4h29q129 0 175 -84q17 -31 17 -80q0 -94 -87 -142q-66 -38 -146 -38q-148 0 -238 47l41 86q76 -35 156 -35t113 43q13 16 14 43q0 75 -111 78q-37 0 -84 -14l-41 40l113 170q-195 24 -323 160z" />
    <glyph glyph-name="uni1E0A" unicode="&#x1e0a;" horiz-adv-x="1558" 
d="M836 1731q0 -53 -38 -89t-91 -34q-53 0 -91 36q-36 36 -36 88t36 88t90 36t92 -36t38 -89zM379 178h254q270 0 438 146t168 405t-168 402t-438 143h-254v-1096zM176 1450h498q312 0 530 -170q252 -196 252 -555q0 -187 -70 -323t-182 -225t-252 -133q-139 -44 -278 -44
h-498v1450z" />
    <glyph glyph-name="uni1E0B" unicode="&#x1e0b;" horiz-adv-x="1300" 
d="M766 1731q0 -53 -38 -89t-91 -34q-53 0 -90 36t-37 88t37 88t90 36t91 -36t38 -89zM388 238q87 -104 232 -103q145 0 239 104q93 104 92 246q-1 141 -93 247t-239 106t-232 -102q-86 -102 -86 -248t87 -250zM586 -27q-216 0 -351 149t-135 365t135 363t353 147
q119 0 207 -50t139 -122h4v723h192v-1548h-186v154h-4q-55 -88 -150 -134t-204 -47z" />
    <glyph glyph-name="Ddotbelow" unicode="&#x1e0c;" horiz-adv-x="1558" 
d="M944 -276q0 -52 -38 -88t-91 -36t-90 36t-37 88t37 89q37 35 90 35t91 -36t38 -88zM379 178h254q270 0 438 146t168 405t-168 402t-438 143h-254v-1096zM176 1450h498q312 0 530 -170q252 -196 252 -555q0 -187 -70 -323t-182 -225t-252 -133q-139 -44 -278 -44h-498
v1450z" />
    <glyph glyph-name="ddotbelow" unicode="&#x1e0d;" horiz-adv-x="1300" 
d="M743 -303q1 -53 -37 -88t-92 -35t-90 36q-37 36 -37 88t37 88t90 36t91 -36t38 -89zM388 238q87 -104 232 -103q145 0 239 104q93 104 92 246q-1 141 -93 247t-239 106t-232 -102q-86 -102 -86 -248t87 -250zM586 -27q-216 0 -351 149t-135 365t135 363t353 147
q119 0 207 -50t139 -122h4v723h192v-1548h-186v154h-4q-55 -88 -150 -134t-204 -47z" />
    <glyph glyph-name="Dlinebelow" unicode="&#x1e0e;" horiz-adv-x="1558" 
d="M1118 -289h-606v137h606v-137zM379 178h254q270 0 438 146t168 405t-168 402t-438 143h-254v-1096zM176 1450h498q312 0 530 -170q252 -196 252 -555q0 -187 -70 -323t-182 -225t-252 -133q-139 -44 -278 -44h-498v1450z" />
    <glyph glyph-name="dlinebelow" unicode="&#x1e0f;" horiz-adv-x="1300" 
d="M918 -315h-607v137h607v-137zM388 238q87 -104 232 -103q145 0 239 104q93 104 92 246q-1 141 -93 247t-239 106t-232 -102q-86 -102 -86 -248t87 -250zM586 -27q-216 0 -351 149t-135 365t135 363t353 147q119 0 207 -50t139 -122h4v723h192v-1548h-186v154h-4
q-55 -88 -150 -134t-204 -47z" />
    <glyph glyph-name="Dcommaaccent" unicode="&#x1e10;" horiz-adv-x="1558" 
d="M813 -664h-164l142 512h192zM379 178h254q270 0 438 146t168 405t-168 402t-438 143h-254v-1096zM176 1450h498q312 0 530 -170q252 -196 252 -555q0 -187 -70 -323t-182 -225t-252 -133q-139 -44 -278 -44h-498v1450z" />
    <glyph glyph-name="dcommaaccent" unicode="&#x1e11;" horiz-adv-x="1300" 
d="M612 -690h-163l141 512h192zM388 238q87 -104 232 -103q145 0 239 104q93 104 92 246q-1 141 -93 247t-239 106t-232 -102q-86 -102 -86 -248t87 -250zM586 -27q-216 0 -351 149t-135 365t135 363t353 147q119 0 207 -50t139 -122h4v723h192v-1548h-186v154h-4
q-55 -88 -150 -134t-204 -47z" />
    <glyph glyph-name="Dcircumflexbelow" unicode="&#x1e12;" horiz-adv-x="1558" 
d="M1155 -446h-186l-154 202l-156 -202h-184l230 294h221zM379 178h254q270 0 438 146t168 405t-168 402t-438 143h-254v-1096zM176 1450h498q312 0 530 -170q252 -196 252 -555q0 -187 -70 -323t-182 -225t-252 -133q-139 -44 -278 -44h-498v1450z" />
    <glyph glyph-name="dcircumflexbelow" unicode="&#x1e13;" horiz-adv-x="1300" 
d="M954 -473h-186l-154 203l-155 -203h-185l230 295h221zM388 238q87 -104 232 -103q145 0 239 104q93 104 92 246q-1 141 -93 247t-239 106t-232 -102q-86 -102 -86 -248t87 -250zM586 -27q-216 0 -351 149t-135 365t135 363t353 147q119 0 207 -50t139 -122h4v723h192
v-1548h-186v154h-4q-55 -88 -150 -134t-204 -47z" />
    <glyph glyph-name="Emacrongrave" unicode="&#x1e14;" horiz-adv-x="1230" 
d="M438 2189h232l204 -295h-157zM958 1604h-606v137h606v-137zM379 180h758v-180h-961v1450h930v-178h-727v-434h684v-174h-684v-484z" />
    <glyph glyph-name="emacrongrave" unicode="&#x1e15;" horiz-adv-x="1173" 
d="M369 1737h231l205 -295h-158zM889 1153h-606v137h606v-137zM614 -27q-223 0 -367 142q-145 142 -145 369q0 226 144 370t360 143q217 0 341 -137t124 -366v-33q0 -16 -2 -33h-770q4 -122 96 -209q92 -86 204 -86q200 0 298 148l135 -109q-151 -197 -418 -199zM608 846
q-125 0 -214 -80q-87 -81 -95 -195h578q-7 189 -155 253q-50 22 -114 22z" />
    <glyph glyph-name="Emacronacute" unicode="&#x1e16;" horiz-adv-x="1230" 
d="M596 1894h-158l205 295h231zM958 1604h-606v137h606v-137zM379 180h758v-180h-961v1450h930v-178h-727v-434h684v-174h-684v-484z" />
    <glyph glyph-name="emacronacute" unicode="&#x1e17;" horiz-adv-x="1173" 
d="M526 1442h-157l204 295h232zM889 1153h-606v137h606v-137zM614 -27q-223 0 -367 142q-145 142 -145 369q0 226 144 370t360 143q217 0 341 -137t124 -366v-33q0 -16 -2 -33h-770q4 -122 96 -209q92 -86 204 -86q200 0 298 148l135 -109q-151 -197 -418 -199zM608 846
q-125 0 -214 -80q-87 -81 -95 -195h578q-7 189 -155 253q-50 22 -114 22z" />
    <glyph glyph-name="Ecircumflexbelow" unicode="&#x1e18;" horiz-adv-x="1230" 
d="M995 -446h-186l-154 202l-155 -202h-185l230 294h221zM379 180h758v-180h-961v1450h930v-178h-727v-434h684v-174h-684v-484z" />
    <glyph glyph-name="ecircumflexbelow" unicode="&#x1e19;" horiz-adv-x="1173" 
d="M926 -473h-187l-153 203l-156 -203h-184l229 295h221zM614 -27q-223 0 -367 142q-145 142 -145 369q0 226 144 370t360 143q217 0 341 -137t124 -366v-33q0 -16 -2 -33h-770q4 -122 96 -209q92 -86 204 -86q200 0 298 148l135 -109q-151 -197 -418 -199zM608 846
q-125 0 -214 -80q-87 -81 -95 -195h578q-7 189 -155 253q-50 22 -114 22z" />
    <glyph glyph-name="Etildebelow" unicode="&#x1e1a;" horiz-adv-x="1230" 
d="M301 -397q42 237 202 237q77 0 161 -41q100 -44 137 -45q70 0 98 94h111q-42 -237 -209 -237q-64 0 -156 43t-135 43t-65 -30t-31 -64h-113zM379 180h758v-180h-961v1450h930v-178h-727v-434h684v-174h-684v-484z" />
    <glyph glyph-name="etildebelow" unicode="&#x1e1b;" horiz-adv-x="1173" 
d="M440 -330q-69 0 -96 -94h-113q19 107 52 152t69 65q89 50 242 -20q103 -45 137 -45q74 0 98 94h111q-19 -109 -52 -153q-61 -83 -157 -85q-59 0 -155 43t-136 43zM614 -27q-223 0 -367 142q-145 142 -145 369q0 226 144 370t360 143q217 0 341 -137t124 -366v-33
q0 -16 -2 -33h-770q4 -122 96 -209q92 -86 204 -86q200 0 298 148l135 -109q-151 -197 -418 -199zM608 846q-125 0 -214 -80q-87 -81 -95 -195h578q-7 189 -155 253q-50 22 -114 22z" />
    <glyph glyph-name="Ecedillabreve" unicode="&#x1e1c;" horiz-adv-x="1230" 
d="M176 0v1450h930v-178h-727v-434h684v-174h-684v-484h758v-180h-400l-94 -141q14 4 27 4h28q80 0 130 -35q61 -39 62 -130t-86 -141q-66 -38 -146 -38q-150 0 -238 47l41 86q76 -35 155 -35t114 43q13 16 13 43q0 75 -110 78q-37 0 -84 -14l-41 40l127 193h-459zM658 1739
q81 0 137 31q55 32 73 116h113q-12 -141 -101 -212q-90 -70 -226 -70t-225 70t-99 212h114q14 -78 74 -112t140 -35z" />
    <glyph glyph-name="ecedillabreve" unicode="&#x1e1d;" horiz-adv-x="1173" 
d="M563 -244q-37 0 -84 -14l-41 41l127 192q-190 14 -326 148q-137 135 -137 361t144 370t360 143q217 0 341 -137t124 -366v-33q0 -16 -2 -33h-770q4 -122 96 -209q92 -86 204 -86q200 0 298 148l135 -109q-134 -175 -364 -197l-95 -141q14 4 27 4h29q129 0 175 -84
q17 -31 17 -80q0 -94 -87 -142q-66 -38 -146 -38q-148 0 -238 47l41 86q76 -35 155 -35t114 43q13 16 14 43q0 78 -111 78zM585 1153q-136 0 -226 71q-89 71 -99 212h115q13 -78 73 -113t141 -35t136 32t74 116h112q-12 -141 -101 -212t-225 -71zM608 846q-125 0 -214 -80
q-87 -81 -95 -195h578q-7 189 -155 253q-50 22 -114 22z" />
    <glyph glyph-name="uni1E1E" unicode="&#x1e1e;" horiz-adv-x="1163" 
d="M756 1731q0 -53 -38 -89t-91 -34q-53 0 -90 36t-37 88t37 88t90 36t91 -36t38 -89zM379 0h-203v1450h905v-178h-702v-451h657v-174h-657v-647z" />
    <glyph glyph-name="uni1E1F" unicode="&#x1e1f;" horiz-adv-x="634" 
d="M489 1804q1 -53 -37 -88t-92 -35t-90 36q-37 36 -37 88t37 88t90 36t91 -36t38 -89zM563 1407q-135 0 -160 -146q-6 -42 -6 -87v-203h226v-158h-226v-813h-192v813h-193v158h193v203q0 279 195 368q69 31 153 31t135 -14l-22 -166q-54 14 -103 14z" />
    <glyph glyph-name="Gmacron" unicode="&#x1e20;" horiz-adv-x="1593" 
d="M1065 1640h-606v138h606v-138zM878 1487q170 0 306 -51t227 -138l-141 -147q-66 72 -167 115t-227 43t-228 -46q-204 -92 -286 -312q-38 -105 -38 -225q1 -247 152 -414t407 -167q206 0 338 72v404h-322v172h522v-703q-239 -127 -563 -127q-323 0 -538 213
q-216 213 -218 551q0 170 59 310q116 280 406 395q141 55 311 55z" />
    <glyph glyph-name="gmacron" unicode="&#x1e21;" horiz-adv-x="1294" 
d="M920 1153h-607v137h607v-137zM301 497q0 -139 85 -239q95 -106 239 -105t237 100q92 99 91 242t-95 243t-235 100q-76 0 -136 -28q-121 -58 -165 -182q-22 -62 -21 -131zM594 -324q344 0 344 359v125h-4q-54 -82 -146 -125t-200 -43q-216 0 -351 145t-135 356t135 358
q135 146 353 146q104 0 200 -45t150 -137h4v156h186v-922q0 -375 -282 -495q-102 -46 -242 -46t-267 46q-128 46 -220 131l123 149q63 -72 158 -115q96 -43 194 -43z" />
    <glyph glyph-name="uni1E22" unicode="&#x1e22;" horiz-adv-x="1492" 
d="M872 1731q0 -53 -37 -89q-37 -34 -91 -34t-91 36t-37 88t37 88t90 36t92 -36q37 -36 37 -89zM176 1450h203v-606h733v606h205v-1450h-205v664h-733v-664h-203v1450z" />
    <glyph glyph-name="uni1E23" unicode="&#x1e23;" horiz-adv-x="1196" 
d="M778 1731q0 -53 -38 -89t-91 -34q-53 0 -90 36t-37 88t37 88t90 36t91 -36t38 -89zM844 537q0 297 -219 297q-115 0 -189 -88t-74 -232v-514h-192v1548h192v-725h5q35 72 118 123t183 51q183 0 277 -111q93 -111 91 -284v-602h-192v537z" />
    <glyph glyph-name="Hdotbelow" unicode="&#x1e24;" horiz-adv-x="1492" 
d="M874 -276q0 -53 -37 -89q-37 -35 -91 -35t-91 36t-37 88t37 89q37 35 90 35t92 -35q37 -36 37 -89zM176 1450h203v-606h733v606h205v-1450h-205v664h-733v-664h-203v1450z" />
    <glyph glyph-name="hdotbelow" unicode="&#x1e25;" horiz-adv-x="1196" 
d="M731 -276q0 -52 -38 -88t-91 -36t-90 36t-37 88t37 89q37 35 90 35t91 -36t38 -88zM844 537q0 297 -219 297q-115 0 -189 -88t-74 -232v-514h-192v1548h192v-725h5q35 72 118 123t183 51q183 0 277 -111q93 -111 91 -284v-602h-192v537z" />
    <glyph glyph-name="Hdieresis" unicode="&#x1e26;" horiz-adv-x="1492" 
d="M817 1727q0 49 36 87t90 38t91 -36t37 -88t-37 -89q-37 -35 -91 -35t-90 38t-36 85zM420 1727q0 49 36 87t90 38t91 -36t37 -88t-37 -89q-37 -35 -91 -35t-90 38t-36 85zM176 1450h203v-606h733v606h205v-1450h-205v664h-733v-664h-203v1450z" />
    <glyph glyph-name="hdieresis" unicode="&#x1e27;" horiz-adv-x="1196" 
d="M674 1826q0 48 36 86t90 38t91 -36t37 -88t-37 -88t-91 -36t-90 38t-36 86zM276 1826q0 48 36 86t90 38t92 -36t36 -88q0 -52 -36 -88t-92 -36q-54 0 -90 38t-36 86zM844 537q0 297 -219 297q-115 0 -189 -88t-74 -232v-514h-192v1548h192v-725h5q35 72 118 123t183 51
q183 0 277 -111q93 -111 91 -284v-602h-192v537z" />
    <glyph glyph-name="Hcedilla" unicode="&#x1e28;" horiz-adv-x="1492" 
d="M176 0v1450h203v-606h733v606h205v-1450h-205v664h-733v-664h-37l-94 -141q14 4 26 4h29q80 0 130 -35q61 -39 62 -130t-86 -141q-66 -38 -146 -38q-150 0 -238 47l41 86q76 -35 155 -35t114 43q13 16 13 43q0 75 -110 78q-37 0 -84 -14l-41 40l127 193h-64z" />
    <glyph glyph-name="hcedilla" unicode="&#x1e29;" horiz-adv-x="1196" 
d="M844 537q0 297 -219 297q-115 0 -189 -88t-74 -232v-514h-20l-94 -141q14 4 26 4h29q80 0 130 -35q61 -39 62 -130t-86 -141q-66 -38 -146 -38q-150 0 -238 47l41 86q76 -35 155 -35t114 43q13 16 13 43q0 75 -110 78q-37 0 -84 -14l-41 40l127 193h-70v1548h192v-725h5
q35 72 118 123t183 51q183 0 277 -111q93 -111 91 -284v-602h-192v537z" />
    <glyph glyph-name="Hbrevebelow" unicode="&#x1e2a;" horiz-adv-x="1492" 
d="M748 -299q81 0 137 32q55 32 73 115h113q-12 -141 -101 -212q-90 -70 -226 -70t-225 70t-99 212h115q14 -78 73 -112t140 -35zM176 1450h203v-606h733v606h205v-1450h-205v664h-733v-664h-203v1450z" />
    <glyph glyph-name="hbrevebelow" unicode="&#x1e2b;" horiz-adv-x="1196" 
d="M605 -299q81 0 136 32t74 115h113q-12 -141 -102 -212q-90 -70 -225 -70q-136 0 -225 70t-100 212h115q13 -78 73 -112t141 -35zM844 537q0 297 -219 297q-115 0 -189 -88t-74 -232v-514h-192v1548h192v-725h5q35 72 118 123t183 51q183 0 277 -111q93 -111 91 -284v-602
h-192v537z" />
    <glyph glyph-name="Itildebelow" unicode="&#x1e2c;" horiz-adv-x="555" 
d="M-78 -397q42 237 202 237q77 0 161 -41q100 -44 137 -45q70 0 98 94h111q-42 -237 -209 -237q-64 0 -156 43t-135 43q-68 0 -96 -94h-113zM379 0h-203v1450h203v-1450z" />
    <glyph glyph-name="itildebelow" unicode="&#x1e2d;" horiz-adv-x="530" 
d="M119 -303q-43 0 -65 -30t-31 -64h-113q19 109 52 153q62 84 145 84t165 -41q99 -44 138 -45q70 0 98 94h110q-20 -110 -52 -153q-63 -84 -156 -84q-64 0 -156 43t-135 43zM393 1321q0 -53 -38 -88t-91 -35t-90 36t-37 88t37 88t90 36t91 -36t38 -89zM360 0h-192v971h192
v-971z" />
    <glyph glyph-name="Idieresisacute" unicode="&#x1e2e;" horiz-adv-x="555" 
d="M219 2005h-158l205 295h232zM348 1727q0 49 36 87t90 38t91 -36t37 -88t-37 -89q-37 -35 -91 -35t-90 38t-36 85zM-49 1727q0 49 36 87t90 38t91 -36t37 -88t-37 -89q-37 -35 -91 -35t-90 38t-36 85zM379 0h-203v1450h203v-1450z" />
    <glyph glyph-name="idieresisacute" unicode="&#x1e2f;" horiz-adv-x="530" 
d="M207 1526h-158l205 295h231zM336 1250q0 48 36 86t90 38t91 -36t37 -88t-37 -88t-91 -36t-90 38t-36 86zM-61 1250q0 48 35 86q36 38 90 38t92 -36q37 -36 37 -88t-37 -88t-91 -36t-91 38q-35 38 -35 86zM360 0h-192v971h192v-971z" />
    <glyph glyph-name="Kacute" unicode="&#x1e30;" horiz-adv-x="1349" 
d="M705 1604h-158l205 294h231zM379 811h4l647 639h281l-705 -664l748 -786h-291l-680 750h-4v-750h-203v1450h203v-639z" />
    <glyph glyph-name="kacute" unicode="&#x1e31;" horiz-adv-x="1079" 
d="M561 1702h-158l205 295h232zM362 549h7l407 422h258l-454 -441l493 -530h-266l-438 504h-7v-504h-192v1548h192v-999z" />
    <glyph glyph-name="Kdotbelow" unicode="&#x1e32;" horiz-adv-x="1349" 
d="M893 -276q0 -52 -38 -88t-91 -36t-90 36t-37 88t37 89q37 35 90 35t91 -36t38 -88zM379 811h4l647 639h281l-705 -664l748 -786h-291l-680 750h-4v-750h-203v1450h203v-639z" />
    <glyph glyph-name="kdotbelow" unicode="&#x1e33;" horiz-adv-x="1079" 
d="M750 -276q0 -52 -38 -88t-91 -36t-91 36q-36 36 -36 88t36 89q36 35 90 35t92 -36t38 -88zM362 549h7l407 422h258l-454 -441l493 -530h-266l-438 504h-7v-504h-192v1548h192v-999z" />
    <glyph glyph-name="Klinebelow" unicode="&#x1e34;" horiz-adv-x="1349" 
d="M1067 -289h-606v137h606v-137zM379 811h4l647 639h281l-705 -664l748 -786h-291l-680 750h-4v-750h-203v1450h203v-639z" />
    <glyph glyph-name="klinebelow" unicode="&#x1e35;" horiz-adv-x="1079" 
d="M924 -289h-607v137h607v-137zM362 549h7l407 422h258l-454 -441l493 -530h-266l-438 504h-7v-504h-192v1548h192v-999z" />
    <glyph glyph-name="Ldotbelow" unicode="&#x1e36;" horiz-adv-x="1046" 
d="M729 -276q0 -52 -38 -88t-91 -36t-90 36t-37 88t37 89q37 35 90 35t91 -36t38 -88zM379 180h647v-180h-850v1450h203v-1270z" />
    <glyph glyph-name="ldotbelow" unicode="&#x1e37;" horiz-adv-x="532" 
d="M395 -276q0 -52 -38 -88t-91 -36t-90 36t-37 88t37 89q37 35 90 35t91 -36t38 -88zM362 0h-192v1548h192v-1548z" />
    <glyph glyph-name="Ldotbelowmacron" unicode="&#x1e38;" horiz-adv-x="1046" 
d="M903 1604h-606v137h606v-137zM729 -276q0 -52 -38 -88t-91 -36t-90 36t-37 88t37 89q37 35 90 35t91 -36t38 -88zM379 180h647v-180h-850v1450h203v-1270z" />
    <glyph glyph-name="ldotbelowmacron" unicode="&#x1e39;" horiz-adv-x="532" 
d="M569 1702h-606v137h606v-137zM395 -276q0 -52 -38 -88t-91 -36t-90 36t-37 88t37 89q37 35 90 35t91 -36t38 -88zM362 0h-192v1548h192v-1548z" />
    <glyph glyph-name="Llinebelow" unicode="&#x1e3a;" horiz-adv-x="1046" 
d="M903 -289h-606v137h606v-137zM379 180h647v-180h-850v1450h203v-1270z" />
    <glyph glyph-name="llinebelow" unicode="&#x1e3b;" horiz-adv-x="532" 
d="M569 -289h-606v137h606v-137zM362 0h-192v1548h192v-1548z" />
    </font>
</defs>
</svg>
