<?xml version="1.0" encoding="utf-8"?>
<!-- Generator: Adobe Illustrator 15.1.0, SVG Export Plug-In . SVG Version: 6.00 Build 0)  -->
<!DOCTYPE svg PUBLIC "-//W3C//DTD SVG 1.1//EN" "http://www.w3.org/Graphics/SVG/1.1/DTD/svg11.dtd">
<svg version="1.1" id="Layer_1" xmlns="http://www.w3.org/2000/svg" xmlns:xlink="http://www.w3.org/1999/xlink" x="0px" y="0px"
	 width="50px" height="50px" viewBox="0 0 50 50" enable-background="new 0 0 50 50" xml:space="preserve">
<g id="Desktop-_x2F_-Checkout-2">
	<g id="_x32__x5F_Desktop-Checkout_x5F_Token" transform="translate(-368.000000, -566.000000)">
		<g id="TOKEN" transform="translate(0.000000, 75.000000)">
			<g id="Group-24" transform="translate(368.000000, 485.000000)">
				<g id="noun_1092955_cc" transform="translate(0.000000, 6.000000)">
					<g id="Group">
						<path id="Shape" stroke="#FFFFFF" stroke-width="0.3" d="M23.858-0.096v31.16l-7.621-8.355l-1.55,1.951l9.514,10.426
							c0.223,0.28,0.511,0.352,0.799,0.352s0.575-0.141,0.798-0.352l9.506-10.426l-1.531-1.951l-7.628,8.355v-31.16H23.858z"/>
						<path id="Shape_1_" stroke="#FFFFFF" stroke-width="0.3" d="M43.5,46.744V13.563c0-1.891-1.264-3.362-2.86-3.362h-7.62v2.691
							h7.62c0.335,0,0.576,0.26,0.576,0.67v33.182c0,0.4-0.241,0.661-0.576,0.661H9.369c-0.343,0-0.576-0.261-0.576-0.661V13.563
							c0-0.41,0.232-0.67,0.576-0.67h7.611v-2.691H9.369c-1.605,0-2.869,1.471-2.869,3.362v33.182c0,1.882,1.263,3.362,2.869,3.362
							H40.64C42.236,50.106,43.5,48.626,43.5,46.744z"/>
					</g>
				</g>
			</g>
		</g>
	</g>
</g>
</svg>
