<?xml version="1.0" encoding="UTF-8"?>
<svg width="30px" height="30px" viewBox="0 0 30 30" version="1.1" xmlns="http://www.w3.org/2000/svg" xmlns:xlink="http://www.w3.org/1999/xlink">
    <!-- Generator: Sketch 48.2 (47327) - http://www.bohemiancoding.com/sketch -->
    <title>clock</title>
    <desc>Created with Sketch.</desc>
    <defs>
        <polygon id="path-1" points="0 0.0186270872 0 28.5714286 28.9622623 28.5714286 28.9622623 0.0186270872"></polygon>
    </defs>
    <g id="Component-List" stroke="none" stroke-width="1" fill="none" fill-rule="evenodd">
        <g id="clock">
            <g id="Clock-icon">
                <g id="Group-3">
                    <mask id="mask-2" fill="white">
                        <use xlink:href="#path-1"></use>
                    </mask>
                    <g id="Clip-2"></g>
                    <path d="M5.55511948,5.49172542 C8.00317143,3.07985158 11.2425091,1.85536178 14.4810935,1.85536178 C17.7200545,1.85536178 20.9590156,3.07985158 23.4070675,5.49172542 C28.3408338,10.3525788 28.3408338,18.2189981 23.4070675,23.0798516 C18.4733013,27.940705 10.4892623,27.940705 5.55511948,23.0798516 C0.621353247,18.2189981 0.621353247,10.3525788 5.55511948,5.49172542 M14.4810935,28.5715028 C18.2100416,28.5715028 21.900574,27.1614842 24.7252494,24.3785529 C30.3746,18.8126902 30.3746,9.75888683 24.7252494,4.19302412 C19.0758987,-1.37283859 9.88628831,-1.37283859 4.23693766,4.19302412 C-1.41241299,9.75888683 -1.41241299,18.8126902 4.23693766,24.3785529 C7.06161299,27.1614842 10.7525221,28.5715028 14.4810935,28.5715028" id="Fill-1" fill="#FFFFFF" mask="url(#mask-2)"></path>
                </g>
                <path d="M9.49761576,20.1680672 C9.76204981,20.1680672 9.98870757,20.0619195 10.177589,19.8850066 L15.0885071,14.8960637 C15.2396123,14.7191508 15.3529412,14.5068554 15.3529412,14.2945599 L15.3529412,7.60725343 C15.3529412,7.11189739 14.937402,6.72268908 14.4085339,6.72268908 C13.8796657,6.72268908 13.4641265,7.11189739 13.4641265,7.60725343 L13.4641265,13.9761168 L8.77986619,18.6819991 C8.43987955,19.0358249 8.43987955,19.601946 8.81764248,19.9203892 C9.00652395,20.0973021 9.270958,20.1680672 9.49761576,20.1680672" id="Fill-4" fill="#FFFFFF"></path>
            </g>
        </g>
    </g>
</svg>