<?xml version="1.0" encoding="utf-8"?>
<!-- Generator: Adobe Illustrator 15.1.0, SVG Export Plug-In . SVG Version: 6.00 Build 0)  -->
<!DOCTYPE svg PUBLIC "-//W3C//DTD SVG 1.1//EN" "http://www.w3.org/Graphics/SVG/1.1/DTD/svg11.dtd">
<svg version="1.1" id="Layer_1" xmlns="http://www.w3.org/2000/svg" xmlns:xlink="http://www.w3.org/1999/xlink" x="0px" y="0px"
	 width="50px" height="50px" viewBox="0 0 50 50" enable-background="new 0 0 50 50" xml:space="preserve">
<g id="My-Account-desktop">
	<g id="_x31_0_x5F_Edit-profile" transform="translate(-638.000000, -1177.000000)">
		<g id="Interested-Categories" transform="translate(458.000000, 1103.000000)">
			<g id="_x30_1-copy" transform="translate(142.000000, 47.000000)">
				<g id="Page-1" transform="translate(38.000000, 27.000000)">
					<path id="Fill-1" fill="#ffffff" d="M23.791,2.326c-2.205,0-3.93,1.726-3.93,3.93v7.034c1.549-0.647,3.211-0.988,4.837-0.988
						h0.605c1.626,0,3.287,0.34,4.837,0.988V6.256c0-2.204-1.727-3.93-3.93-3.93H23.791z M24.698,14.116
						c-6.002,0-10.883,4.882-10.883,10.884c0,6.001,4.881,10.884,10.883,10.884h0.605c6.001,0,10.884-4.883,10.884-10.884
						c0-6.001-4.883-10.884-10.884-10.884H24.698z M19.86,43.743c0,2.204,1.726,3.931,3.93,3.931h2.419
						c2.203,0,3.93-1.727,3.93-3.931v-7.034c-1.549,0.647-3.211,0.988-4.837,0.988h-0.605c-1.626,0-3.289-0.341-4.837-0.988V43.743z
						 M23.791,49.488c-3.167,0-5.744-2.577-5.744-5.745v-7.859c0-0.038,0.003-0.072,0.008-0.104C14.259,33.412,12,29.399,12,25
						c0-4.398,2.257-8.409,6.05-10.777c-0.003-0.043-0.003-0.08-0.003-0.107v-7.86c0-3.167,2.577-5.745,5.744-5.745h2.419
						c3.166,0,5.744,2.577,5.744,5.745v7.86c0,0.038-0.004,0.072-0.008,0.104C35.741,16.587,38,20.6,38,25
						c0,4.397-2.257,8.408-6.05,10.775c0.004,0.044,0.004,0.082,0.004,0.108v7.859c0,3.168-2.578,5.745-5.744,5.745H23.791z"/>
					<path id="Fill-4" fill="#ffffff" d="M21.554,26.935c-0.526,0-0.907-0.382-0.907-0.907c0-0.525,0.381-0.906,0.907-0.906h3.023
						v-4.838c0-0.525,0.382-0.907,0.907-0.907c0.466,0,0.908,0.441,0.908,0.907v5.744c0,0.535-0.374,0.907-0.908,0.907H21.554z"/>
				</g>
			</g>
		</g>
	</g>
</g>
</svg>
