<?xml version="1.0" encoding="UTF-8"?>
<svg width="18px" height="15px" viewBox="0 0 18 15" version="1.1" xmlns="http://www.w3.org/2000/svg" xmlns:xlink="http://www.w3.org/1999/xlink">
    <!-- Generator: Sketch 48.2 (47327) - http://www.bohemiancoding.com/sketch -->
    <title>Shape</title>
    <desc>Created with Sketch.</desc>
    <defs></defs>
    <g id="07_Kurta&amp;Kutis_PLP_Grid_View_Screen-Copy-5" stroke="none" stroke-width="1" fill="none" fill-rule="evenodd" transform="translate(-54.000000, -324.000000)">
        <g id="Refine-Sort" transform="translate(0.000000, 301.000000)" fill="#FF1744" fill-rule="nonzero">
            <g id="noun_1181311" transform="translate(54.000000, 22.000000)">
                <path d="M6.10567515,1.03540233 C7.49232355,1.46294125 8.50097847,2.75765033 8.50097847,4.28571429 C8.50097847,5.81458121 7.49175199,7.10857337 6.10567515,7.53599129 L6.10567515,16.2857143 C6.10567515,16.837999 5.65883606,17.2857143 5.10763209,17.2857143 C4.55642813,17.2857143 4.10958904,16.837999 4.10958904,16.2857143 L4.10958904,7.53602625 C2.72294064,7.10848733 1.71428571,5.81377825 1.71428571,4.28571429 C1.71428571,2.75684737 2.7235122,1.46285521 4.10958904,1.03543729 L4.10958904,0.285714286 C4.10958904,-0.266570474 4.55642813,-0.714285714 5.10763209,-0.714285714 C5.65883606,-0.714285714 6.10567515,-0.266570474 6.10567515,0.285714286 L6.10567515,1.03540233 Z M3.71037182,4.28571429 C3.71037182,5.05732097 4.33704896,5.68571429 5.10763209,5.68571429 C5.87772878,5.68571429 6.50489237,5.05780837 6.50489237,4.28571429 C6.50489237,3.51410761 5.87821523,2.88571429 5.10763209,2.88571429 C4.33753541,2.88571429 3.71037182,3.51362021 3.71037182,4.28571429 Z M13.890411,7.03540233 C15.2770594,7.46294125 16.2857143,8.75765033 16.2857143,10.2857143 C16.2857143,11.8145812 15.2764878,13.1085734 13.890411,13.5359913 L13.890411,16.2857143 C13.890411,16.837999 13.4435719,17.2857143 12.8923679,17.2857143 C12.3411639,17.2857143 11.8943249,16.837999 11.8943249,16.2857143 L11.8943249,13.5360262 C10.5076765,13.1084873 9.49902153,11.8137782 9.49902153,10.2857143 C9.49902153,8.75684737 10.508248,7.46285521 11.8943249,7.03543729 L11.8943249,0.285714286 C11.8943249,-0.266570474 12.3411639,-0.714285714 12.8923679,-0.714285714 C13.4435719,-0.714285714 13.890411,-0.266570474 13.890411,0.285714286 L13.890411,7.03540233 Z M11.4951076,10.2857143 C11.4951076,11.057321 12.1217848,11.6857143 12.8923679,11.6857143 C13.6624646,11.6857143 14.2896282,11.0578084 14.2896282,10.2857143 C14.2896282,9.51410761 13.662951,8.88571429 12.8923679,8.88571429 C12.1222712,8.88571429 11.4951076,9.51362021 11.4951076,10.2857143 Z" id="Shape" transform="translate(9.000000, 8.285714) rotate(90.000000) translate(-9.000000, -8.285714) "></path>
            </g>
        </g>
    </g>
</svg>