<?xml version="1.0" encoding="UTF-8"?>
<svg width="40px" height="40px" viewBox="0 0 40 40" version="1.1" xmlns="http://www.w3.org/2000/svg" xmlns:xlink="http://www.w3.org/1999/xlink">
    <!-- Generator: Sketch 48.2 (47327) - http://www.bohemiancoding.com/sketch -->
    <title>02</title>
    <desc>Created with Sketch.</desc>
    <defs></defs>
    <g id="Page-1" stroke="none" stroke-width="1" fill="none" fill-rule="evenodd">
        <g id="02" fill="#8D8D8D" fill-rule="nonzero">
            <path d="M13.6438356,3.88819564 C16.6890243,4.83828213 18.9041096,7.71541342 18.9041096,11.1111111 C18.9041096,14.5085932 16.6877691,17.3841313 13.6438356,18.3339489 L13.6438356,37.7777778 C13.6438356,39.0050772 12.6625419,40 11.4520548,40 C10.2415676,40 9.26027397,39.0050772 9.26027397,37.7777778 L9.26027397,18.3340266 C6.21508533,17.3839401 4,14.5068088 4,11.1111111 C4,7.71362907 6.21634052,4.83809093 9.26027397,3.88827333 L9.26027397,2.22222222 C9.26027397,0.994922756 10.2415676,0 11.4520548,0 C12.6625419,0 13.6438356,0.994922756 13.6438356,2.22222222 L13.6438356,3.88819564 Z M8.38356164,11.1111111 C8.38356164,12.8257926 9.7597938,14.2222222 11.4520548,14.2222222 C13.1432475,14.2222222 14.5205479,12.8268757 14.5205479,11.1111111 C14.5205479,9.3964296 13.1443158,8 11.4520548,8 C9.76086207,8 8.38356164,9.39534649 8.38356164,11.1111111 Z M30.739726,17.221529 C33.7849147,18.1716155 36,21.0487468 36,24.4444444 C36,27.8419265 33.7836595,30.7174646 30.739726,31.6672822 L30.739726,37.7777778 C30.739726,39.0050772 29.7584324,40 28.5479452,40 C27.3374581,40 26.3561644,39.0050772 26.3561644,37.7777778 L26.3561644,31.6673599 C23.3109757,30.7172734 21.0958904,27.8401421 21.0958904,24.4444444 C21.0958904,21.0469624 23.3122309,18.1714243 26.3561644,17.2216067 L26.3561644,2.22222222 C26.3561644,0.994922756 27.3374581,0 28.5479452,0 C29.7584324,0 30.739726,0.994922756 30.739726,2.22222222 L30.739726,17.221529 Z M25.4794521,24.4444444 C25.4794521,26.159126 26.8556842,27.5555556 28.5479452,27.5555556 C30.2391379,27.5555556 31.6164384,26.1602091 31.6164384,24.4444444 C31.6164384,22.7297629 30.2402062,21.3333333 28.5479452,21.3333333 C26.8567525,21.3333333 25.4794521,22.7286798 25.4794521,24.4444444 Z" id="Shape" transform="translate(20.000000, 20.000000) rotate(90.000000) translate(-20.000000, -20.000000) "></path>
        </g>
    </g>
</svg>