<svg xmlns="http://www.w3.org/2000/svg" xmlns:xlink="http://www.w3.org/1999/xlink" version="1.1" x="0px" y="0px" viewBox="0 0 100 125" enable-background="new 0 0 100 100" xml:space="preserve"><path d="M48.32,38.5H88.5v-4H48.32c-0.957-5.666-5.887-10-11.82-10s-10.863,4.334-11.82,10H12.5v4h12.18  c0.957,5.666,5.887,10,11.82,10S47.363,44.166,48.32,38.5z M28.5,36.5c0-4.411,3.588-8,8-8s8,3.589,8,8s-3.588,8-8,8  S28.5,40.911,28.5,36.5z M76.32,68.5H88.5v-4H76.32c-0.957-5.668-5.887-10-11.82-10s-10.863,4.332-11.82,10H12.5v4h40.18  c0.957,5.664,5.887,10,11.82,10S75.363,74.164,76.32,68.5z M56.5,66.5c0-4.41,3.588-8,8-8s8,3.59,8,8s-3.588,8-8,8  S56.5,70.91,56.5,66.5z"/></svg>