<?xml version="1.0" standalone="no"?>
<!DOCTYPE svg PUBLIC "-//W3C//DTD SVG 1.1//EN" "http://www.w3.org/Graphics/SVG/1.1/DTD/svg11.dtd" >
<svg xmlns="http://www.w3.org/2000/svg">
<metadata>
Created by FontPrep 20130207 at Mon Apr 20 11:09:56 2015
 By Admin
Copyright (c) 2004 - 2007 Linotype GmbH, www.linotype.com. All rights reserved.
</metadata>
<defs>
<font id="92550229aad14ffa2dc273e49410d17e" horiz-adv-x='1024' >
  <font-face 
    font-family="AvenirNext-Bold"
    font-weight="700"
    font-stretch="normal"
    units-per-em="2048"
    panose-1="2 11 8 3 2 2 2 2 2 4"
    ascent="1638"
    descent="-410"
    x-height="1020"
    cap-height="1450"
    bbox="-1100 -995 3201 2490"
    underline-thickness="102"
    underline-position="-102"
    unicode-range="U+000D-FE48"
  />
<missing-glyph horiz-adv-x="1048" 
d="M1049 1470v-1470h-1049v1470h1049zM946 102v1264h-844v-1264h844zM524 1145q-64 0 -109 -45q-46 -45 -59 -150l-102 17q14 147 90 214t186 67t183 -74q72 -72 71 -195q0 -66 -26 -120t-102 -124q-77 -69 -89 -109t-12 -147h-94l-4 35q0 115 27 167t92 116t84 99
q20 35 20 92t-46 107t-110 50zM455 240v137h114v-137h-114z" />
    <glyph glyph-name="IJ" unicode="IJ" horiz-adv-x="1714" 
d="M1573 496q0 -355 -237 -484q-92 -51 -258 -51t-290 95q-123 95 -163 245l309 105q14 -56 52 -92t93 -35q86 0 114 59t28 156v956h352v-954zM150 0v1450h352v-1450h-352z" />
    <glyph glyph-name="ij" unicode="ij" horiz-adv-x="1206" 
d="M612 -205q74 0 99 50t24 128v1047h336v-1047q0 -217 -80 -327q-99 -138 -327 -138q-84 0 -146 17l23 280q30 -10 71 -10zM1096 1346q0 -39 -16 -73q-50 -109 -177 -112q-82 0 -137 54t-55 132t56 129q56 52 138 53q81 1 136 -53t55 -130zM135 0v1020h336v-1020h-336z
M496 1346q0 -39 -16 -73q-50 -109 -177 -112q-82 0 -137 54t-55 132t56 129q56 52 138 53q81 1 136 -53t55 -130z" />
    <glyph glyph-name="napostrophe" unicode="&#x22;n" horiz-adv-x="1445" 
d="M240 1051h-258l137 399h297zM985 557q0 215 -151 215q-88 0 -133 -61t-48 -158v-553h-338v1020h326v-141h4q61 112 205 155q46 14 124 14t150 -36q199 -102 199 -381v-631h-338v557z" />
    <glyph glyph-name="fi" unicode="fi" horiz-adv-x="1361" 
d="M672 1315q-150 0 -150 -193v-102h228v-252h-228v-768h-336v768h-186v252h186v98q0 332 227 431q85 38 195 38t178 -20l-22 -267q-45 15 -92 15zM889 0v1020h338v-1020h-338zM1251 1346q0 -39 -15 -73q-31 -69 -103 -97q-35 -14 -74 -15q-82 0 -137 54q-56 54 -56 131
t57 130q57 52 136 53q80 1 136 -52t56 -131z" />
    <glyph glyph-name="fl" unicode="fl" horiz-adv-x="1363" 
d="M672 1315q-150 0 -150 -193v-102h228v-252h-228v-768h-336v768h-186v252h186v98q0 332 227 431q85 38 195 38t178 -20l-22 -267q-45 15 -92 15zM889 0v1548h340v-1548h-340z" />
    <glyph glyph-name=".notdef" horiz-adv-x="1048" 
d="M1049 1470v-1470h-1049v1470h1049zM946 102v1264h-844v-1264h844zM524 1145q-64 0 -109 -45q-46 -45 -59 -150l-102 17q14 147 90 214t186 67t183 -74q72 -72 71 -195q0 -66 -26 -120t-102 -124q-77 -69 -89 -109t-12 -147h-94l-4 35q0 115 27 167t92 116t84 99
q20 35 20 92t-46 107t-110 50zM455 240v137h114v-137h-114z" />
    <glyph glyph-name=".null" horiz-adv-x="1024" 
 />
    <glyph glyph-name=".null" horiz-adv-x="1024" 
 />
    <glyph glyph-name="nonmarkingreturn" unicode="&#xd;" horiz-adv-x="0" 
 />
    <glyph glyph-name="space" unicode=" " horiz-adv-x="512" 
 />
    <glyph glyph-name="exclam" unicode="!" horiz-adv-x="731" 
d="M565 173q0 -85 -59 -139t-141 -54q-128 0 -183 116q-16 35 -16 75q0 83 56 139q56 55 143 57q41 0 77 -16q78 -33 108 -103q15 -36 15 -75zM193 485v965h344v-965h-344z" />
    <glyph glyph-name="quotedbl" unicode="&#x22;" horiz-adv-x="1019" 
d="M176 895v555h268v-555h-268zM575 895v555h267v-555h-267z" />
    <glyph glyph-name="numbersign" unicode="#" horiz-adv-x="1234" 
d="M551 827l-27 -204h160l29 204h-162zM1083 623v-213h-200l-62 -410h-225l59 410h-161l-60 -410h-225l59 410h-174v213h203l31 204h-174v213h200l60 410h227l-59 -410h159l60 410h225l-57 -410h172v-213h-203l-29 -204h174z" />
    <glyph glyph-name="dollar" unicode="$" horiz-adv-x="1323" 
d="M879 410q0 72 -42 108t-108 55v-323q70 4 110 46t40 114zM444 1062q0 -66 39 -102q39 -34 105 -51v297q-56 -6 -100 -42t-44 -102zM578 252v358q-217 62 -312 135q-135 108 -135 297q0 188 142 304t315 122v142h149v-140q117 -4 240 -40t219 -115q-100 -115 -199 -223
q-51 52 -123 80t-137 30v-328q80 -26 162 -56q181 -67 260 -206q43 -74 43 -186q0 -211 -141 -327q-141 -117 -332 -119v-150h-151v150q-132 4 -268 50t-238 138q109 113 215 225q75 -86 217 -130q39 -11 74 -11z" />
    <glyph glyph-name="percent" unicode="%" horiz-adv-x="1865" 
d="M606 -70l-182 90l846 1496l190 -93zM608 1087q0 66 -47 113t-113 47t-112 -47q-47 -47 -47 -113q0 -65 47 -111t113 -46q67 0 113 46t46 111zM724 814q-114 -114 -276 -114t-275 114q-114 114 -114 274t113 274q112 113 276 113t277 -113q113 -114 113 -274t-114 -274z
M1432 522q-66 0 -113 -47t-47 -113t47 -112t114 -45q67 0 112 47q46 47 46 113t-47 111q-46 46 -112 46zM1707 89q-113 -114 -275 -114t-276 114q-114 113 -114 273t114 274t276 114t275 -114q114 -114 114 -274t-114 -273z" />
    <glyph glyph-name="ampersand" unicode="&#x26;" horiz-adv-x="1599" 
d="M620 236q135 0 218 110l-256 266q-61 -25 -108 -68q-46 -44 -46 -127t59 -132t133 -49zM840 1110q0 55 -37 94t-99 39t-101 -38q-40 -38 -40 -92q0 -103 109 -191q168 70 168 188zM92 403q0 263 303 402q-149 145 -149 320t146 278q121 84 303 85q183 1 315 -93t131 -278
q0 -183 -178 -308q-53 -37 -113 -68l182 -186l146 223h372l-313 -420l360 -358h-423l-138 141q-161 -170 -424 -170q-216 0 -368 113q-152 112 -152 319z" />
    <glyph glyph-name="quotesingle" unicode="'" horiz-adv-x="620" 
d="M176 895v555h266v-555h-266z" />
    <glyph glyph-name="parenleft" unicode="(" horiz-adv-x="700" 
d="M59 590q0 252 78 490t223 440l230 -113q-268 -370 -267 -818q1 -449 267 -816l-230 -113q-145 202 -223 440t-78 490z" />
    <glyph glyph-name="parenright" unicode=")" horiz-adv-x="700" 
d="M377 589q0 449 -266 818l229 113q145 -202 223 -440t78 -490t-78 -491t-223 -439l-229 113q266 367 266 816z" />
    <glyph glyph-name="asterisk" unicode="*" horiz-adv-x="1001" 
d="M389 1450h225v-266l260 82l70 -205l-262 -82l166 -219l-184 -129l-166 223l-162 -215l-180 129l166 213l-265 88l72 205l260 -90v266z" />
    <glyph glyph-name="plus" unicode="+" horiz-adv-x="1363" 
d="M817 492v-429h-266v429h-436v258h434v428h266v-428h436v-258h-434z" />
    <glyph glyph-name="comma" unicode="," horiz-adv-x="614" 
d="M317 -254h-276l154 582h321z" />
    <glyph glyph-name="hyphen" unicode="-" horiz-adv-x="667" 
d="M74 403v267h520v-267h-520z" />
    <glyph glyph-name="period" unicode="." horiz-adv-x="614" 
d="M514 180q0 -86 -60 -143t-146 -57t-146 56t-61 141q-1 84 61 144t147 60q84 0 145 -57q60 -58 60 -144z" />
    <glyph glyph-name="slash" unicode="/" horiz-adv-x="849" 
d="M217 -106l-231 75l632 1592l232 -80z" />
    <glyph glyph-name="zero" unicode="0" horiz-adv-x="1323" 
d="M773 304q104 119 104 423t-104 423q-41 48 -109 48t-111 -48q-83 -92 -98 -262q-16 -169 -4 -281q11 -113 35 -184t67 -119t111 -48t109 48zM224 191q-130 198 -130 536t130 536q150 224 440 225q289 1 436 -225q129 -195 129 -532q0 -336 -129 -540q-148 -228 -437 -229
q-290 -1 -439 229z" />
    <glyph glyph-name="one" unicode="1" horiz-adv-x="1323" 
d="M580 0v1065l-271 -209l-178 244l477 350h316v-1450h-344z" />
    <glyph glyph-name="two" unicode="2" horiz-adv-x="1323" 
d="M139 0v287l566 512q53 51 86 104t33 125t-50 120q-49 48 -133 48t-138 -60t-65 -159l-329 45q23 214 179 341q156 126 373 126t371 -115t154 -320q0 -206 -159 -365q-46 -46 -95 -91l-336 -299h592v-299h-1049z" />
    <glyph glyph-name="three" unicode="3" horiz-adv-x="1323" 
d="M555 877q254 0 254 172q0 79 -55 119t-128 40t-127 -44t-71 -117l-319 73q53 180 203 275q150 94 347 94q198 0 349 -107t151 -303q-1 -121 -69 -203t-175 -112v-6q122 -28 200 -121q79 -93 79 -214q0 -225 -165 -344q-165 -118 -376 -118t-371 95t-216 290l319 84
q19 -72 83 -126t163 -54q136 0 191 98q20 35 20 88q1 99 -93 149q-72 38 -202 40h-92v252h100z" />
    <glyph glyph-name="four" unicode="4" horiz-adv-x="1323" 
d="M735 1098h-6l-344 -537h350v537zM1055 283v-283h-322v283h-682v288l590 879h412v-889h200v-278h-198z" />
    <glyph glyph-name="five" unicode="5" horiz-adv-x="1323" 
d="M678 940q218 0 366 -120t148 -356q0 -235 -166 -369t-377 -134t-364 98q-152 98 -203 271l313 96q23 -76 85 -125t150 -49t152 53t64 163t-85 163t-240 53q-156 0 -326 -63l34 829h889v-295h-583l-13 -229q57 14 156 14z" />
    <glyph glyph-name="six" unicode="6" horiz-adv-x="1323" 
d="M662 707q-102 1 -166 -63t-64 -162t62 -167q62 -67 164 -67q103 0 166 64t63 164q1 101 -61 166t-164 65zM1231 478q0 -114 -45 -212q-90 -197 -305 -269q-105 -36 -223 -36q-241 0 -405 143q-165 143 -165 375q0 129 45 235t117 214l350 522h416l-357 -496l-6 -10
q36 14 116 16q81 1 168 -33q178 -70 255 -246q39 -89 39 -203z" />
    <glyph glyph-name="seven" unicode="7" horiz-adv-x="1323" 
d="M129 1155v295h1053v-274l-555 -1176h-400l588 1155h-686z" />
    <glyph glyph-name="eight" unicode="8" horiz-adv-x="1323" 
d="M862 424q0 86 -56 142t-145 56t-145 -54q-56 -56 -57 -143q0 -87 56 -139q57 -52 147 -52t145 52t55 138zM660 885q78 0 127 51t49 122t-52 118t-126 47t-121 -47t-47 -118t46 -122t124 -51zM1206 388q0 -89 -45 -174t-120 -141q-150 -112 -379 -112t-387 116t-158 335
q0 187 159 298q47 32 101 48v4q-94 35 -158 114q-63 79 -63 189q0 204 147 314t358 110t359 -107q147 -107 147 -301q0 -121 -61 -203t-160 -114v-6q55 -16 103 -48q157 -107 157 -322z" />
    <glyph glyph-name="nine" unicode="9" horiz-adv-x="1323" 
d="M889 971q-1 98 -61 167q-60 68 -164 68t-167 -64q-63 -65 -63 -166t62 -166t163 -65q102 0 166 64t64 162zM90 971q0 115 45 213q90 197 305 269q104 36 222 36q244 0 408 -143q163 -143 163 -375q0 -129 -45 -235t-117 -214l-350 -522h-416l361 500l4 6
q-42 -15 -120 -16q-79 -1 -165 33q-180 71 -256 246q-39 87 -39 202z" />
    <glyph glyph-name="colon" unicode=":" horiz-adv-x="679" 
d="M541 181q0 -82 -59 -137q-59 -56 -143 -56t-141 56t-58 137t59 138q60 56 141 57q82 1 142 -56q59 -57 59 -139zM342 1032q83 0 141 -57t58 -136q-1 -79 -59 -137t-142 -59q-84 0 -142 56q-57 56 -58 137t59 138q60 58 143 58z" />
    <glyph glyph-name="semicolon" unicode=";" horiz-adv-x="679" 
d="M344 -254h-283l154 582h328zM482 702q-58 -56 -142 -57q-84 0 -140 56q-57 56 -58 138t58 138q59 57 142 57t141 -57t58 -138q-1 -81 -59 -137z" />
    <glyph glyph-name="less" unicode="&#x3c;" horiz-adv-x="1363" 
d="M162 514v211l1040 438v-278l-627 -269l627 -260v-280z" />
    <glyph glyph-name="equal" unicode="=" horiz-adv-x="1363" 
d="M139 307v252h1086v-252h-1086zM139 686v252h1086v-252h-1086z" />
    <glyph glyph-name="greater" unicode="&#x3e;" horiz-adv-x="1363" 
d="M162 76v280l626 260l-626 269v278l1040 -438v-211z" />
    <glyph glyph-name="question" unicode="?" horiz-adv-x="1118" 
d="M780 174q0 -82 -57 -138t-141 -56t-142 56q-59 56 -59 138q0 81 58 136t140 56t141 -54q60 -56 60 -138zM1079 1098q0 -88 -16 -138t-55 -107t-158 -146q-70 -57 -91 -95q-20 -37 -20 -96v-53h-319v78q0 142 91 239q30 33 71 68l67 63q35 31 60 65t25 90t-41 96
q-39 38 -117 38t-121 -58t-47 -132l-326 34q24 219 167 332q144 113 346 113q201 1 335 -97q68 -50 108 -128t41 -166z" />
    <glyph glyph-name="at" unicode="@" horiz-adv-x="1638" 
d="M952 776q0 160 -114 160q-72 0 -121 -81t-49 -157q0 -168 102 -168q130 -1 172 164q10 43 10 82zM1585 821q0 -230 -120 -363q-120 -132 -300 -130q-82 0 -134 36t-60 95h-8q-29 -47 -91 -89t-142 -42q-218 0 -286 207q-20 63 -20 144q0 177 112 316q112 140 281 140
q78 0 129 -33t66 -78h2l14 70h221l-63 -322q-27 -132 -27 -170q1 -74 61 -74t108 71t48 202q0 244 -147 372q-147 129 -388 128t-399 -164q-157 -163 -157 -418q0 -256 164 -409q164 -154 434 -154q269 0 460 176l130 -144q-229 -225 -623 -225q-350 0 -569 213
q-105 100 -163 240t-58 306q0 165 62 304q127 284 419 402q143 58 297 58q319 1 533 -176t214 -489z" />
    <glyph glyph-name="A" unicode="A" horiz-adv-x="1492" 
d="M743 1063l-184 -498h365zM1133 0l-113 285h-561l-107 -285h-381l609 1450h340l602 -1450h-389z" />
    <glyph glyph-name="B" unicode="B" horiz-adv-x="1361" 
d="M930 455q0 90 -68 125t-180 34h-195v-331h197q170 0 223 85q23 34 23 87zM883 1030q0 143 -224 141h-172v-299h189q98 0 152 40t55 118zM1280 398q0 -96 -47 -176q-129 -222 -506 -222h-577v1450h577q329 0 449 -190q45 -72 45 -188t-66 -194t-172 -114v-4
q61 -10 116 -38q181 -94 181 -324z" />
    <glyph glyph-name="C" unicode="C" horiz-adv-x="1425" 
d="M870 -39q-347 0 -565 212q-103 101 -163 243t-60 313q0 342 224 551t562 209q154 0 302 -54t241 -159l-237 -238q-50 68 -130 101q-169 69 -332 -1q-155 -68 -218 -234q-31 -81 -31 -178t31 -179q62 -163 215 -232q77 -33 173 -33t174 42q78 41 126 106l243 -229
q-96 -111 -237 -175q-142 -64 -318 -65z" />
    <glyph glyph-name="D" unicode="D" horiz-adv-x="1585" 
d="M992 395q147 108 147 335t-147 332q-121 87 -326 89h-174v-848h165q209 0 335 92zM1503 736q0 -366 -257 -563q-225 -173 -556 -173h-540v1450h524q154 0 303 -36q319 -76 455 -341q72 -139 71 -337z" />
    <glyph glyph-name="E" unicode="E" horiz-adv-x="1243" 
d="M150 0v1450h974v-297h-637v-272h603v-281h-603v-301h674v-299h-1011z" />
    <glyph glyph-name="F" unicode="F" horiz-adv-x="1179" 
d="M496 1151v-299h561v-289h-561v-563h-346v1450h954v-299h-608z" />
    <glyph glyph-name="G" unicode="G" horiz-adv-x="1574" 
d="M1438 88q-241 -125 -576 -125t-557 212q-223 212 -223 554t224 551t562 209q172 0 320 -52t239 -141l-221 -252q-51 60 -135 98t-183 38q-189 0 -313 -128q-122 -128 -121 -330q1 -201 117 -326q116 -126 326 -126q127 0 219 39v264h-276v283h598v-768z" />
    <glyph glyph-name="H" unicode="H" horiz-adv-x="1564" 
d="M1065 0v606h-565v-606h-350v1450h350v-549h565v549h350v-1450h-350z" />
    <glyph glyph-name="I" unicode="I" horiz-adv-x="651" 
d="M150 0v1450h352v-1450h-352z" />
    <glyph glyph-name="J" unicode="J" horiz-adv-x="1083" 
d="M942 496q0 -355 -236 -484q-93 -51 -259 -51t-289 95t-164 245l309 105q14 -56 52 -92t94 -35q85 0 113 59t28 156v956h352v-954z" />
    <glyph glyph-name="K" unicode="K" horiz-adv-x="1456" 
d="M494 668v-668h-344v1450h344v-590h6l518 590h438l-625 -668l662 -782h-457l-538 668h-4z" />
    <glyph glyph-name="L" unicode="L" horiz-adv-x="1077" 
d="M150 0v1450h352v-1145h561v-305h-913z" />
    <glyph glyph-name="M" unicode="M" horiz-adv-x="1955" 
d="M150 0v1450h497l330 -930h8l315 930h506v-1450h-342l9 1026h-7l-376 -1026h-246l-367 1026h-6l8 -1026h-329z" />
    <glyph glyph-name="N" unicode="N" horiz-adv-x="1617" 
d="M150 0v1450h399l581 -946h7l-9 946h340v-1450h-397l-584 948h-6l8 -948h-339z" />
    <glyph glyph-name="O" unicode="O" horiz-adv-x="1742" 
d="M1286 727q0 194 -116 321q-117 126 -298 126t-299 -124t-117 -320t118 -324q117 -127 297 -126q181 1 298 127t117 320zM1661 732q0 -343 -222 -557t-568 -214q-345 0 -565 212q-104 101 -164 243t-60 316q0 345 222 551t566 206q170 0 316 -53q296 -108 416 -390
q60 -140 59 -314z" />
    <glyph glyph-name="P" unicode="P" horiz-adv-x="1310" 
d="M647 825q252 0 252 176q0 139 -155 160q-44 6 -91 6h-153v-342h147zM1249 1003q0 -237 -166 -347q-166 -111 -409 -109h-174v-547h-350v1450h532q119 0 222 -24q345 -80 345 -423z" />
    <glyph glyph-name="Q" unicode="Q" horiz-adv-x="1755" 
d="M1156 1051q-116 122 -294 121q-179 -1 -296 -122t-116 -314t114 -315t293 -122t297 123q116 123 116 314q0 193 -114 315zM848 0q-356 0 -565 198t-209 537q0 340 224 547q106 98 250 152t312 55q338 0 559 -206t221 -533q0 -230 -137 -395q-39 -46 -78 -76v-7l306 7
v-279h-883z" />
    <glyph glyph-name="R" unicode="R" horiz-adv-x="1357" 
d="M657 829q254 0 254 177q0 161 -233 161h-186v-338h165zM494 575v-575h-344v1450h552q380 0 508 -229q47 -84 47 -220t-79 -237q-80 -100 -222 -143l379 -621h-409l-314 575h-118z" />
    <glyph glyph-name="S" unicode="S" horiz-adv-x="1210" 
d="M798 1164q-72 34 -150 34q-77 0 -116 -24q-77 -47 -77 -118q0 -72 54 -105t149 -63q94 -30 174 -60q296 -112 296 -390q0 -229 -162 -352t-393 -123q-156 0 -301 54t-241 155l229 234q53 -66 140 -110q88 -44 150 -44q224 0 224 158q0 74 -79 121q-45 28 -169 68t-190 71
q-234 109 -234 362q0 225 179 348q156 107 383 107q122 0 250 -45t225 -133l-224 -236q-45 57 -117 91z" />
    <glyph glyph-name="T" unicode="T" horiz-adv-x="1189" 
d="M770 1151v-1151h-350v1151h-410v299h1170v-299h-410z" />
    <glyph glyph-name="U" unicode="U" horiz-adv-x="1511" 
d="M1378 547q0 -265 -172 -426q-172 -160 -454 -160t-449 161q-168 161 -168 425v903h348v-875q0 -124 67 -212q67 -87 205 -87q139 0 206 85t67 214v875h350v-903z" />
    <glyph glyph-name="V" unicode="V" horiz-adv-x="1396" 
d="M868 0h-350l-549 1450h393l336 -1028h9l333 1028h387z" />
    <glyph glyph-name="W" unicode="W" horiz-adv-x="2099" 
d="M1686 0h-347l-286 981h-6l-287 -981h-348l-412 1450h377l229 -965h6l258 965h365l260 -965h6l234 965h364z" />
    <glyph glyph-name="X" unicode="X" horiz-adv-x="1439" 
d="M1024 0l-317 512l-306 -512h-417l508 766l-467 684h421l271 -451l266 451h408l-459 -684l524 -766h-432z" />
    <glyph glyph-name="Y" unicode="Y" horiz-adv-x="1370" 
d="M854 0h-350v614l-545 836h424l309 -537l309 537h410l-557 -836v-614z" />
    <glyph glyph-name="Z" unicode="Z" horiz-adv-x="1300" 
d="M80 0v303l690 850h-674v297h1112v-281l-706 -866h721v-303h-1143z" />
    <glyph glyph-name="bracketleft" unicode="[" horiz-adv-x="700" 
d="M109 -319v1818h442v-209h-182v-1401h182v-208h-442z" />
    <glyph glyph-name="backslash" unicode="\" horiz-adv-x="849" 
d="M633 -106l-631 1587l231 80l631 -1592z" />
    <glyph glyph-name="bracketright" unicode="]" horiz-adv-x="700" 
d="M150 -319v208h182v1401h-182v209h442v-1818h-442z" />
    <glyph glyph-name="asciicircum" unicode="^" horiz-adv-x="1413" 
d="M958 702l-253 437l-252 -437h-303l436 748h241l435 -748h-304z" />
    <glyph glyph-name="underscore" unicode="_" horiz-adv-x="1024" 
d="M0 -336v182h1024v-182h-1024z" />
    <glyph glyph-name="grave" unicode="`" horiz-adv-x="614" 
d="M219 1171l-299 295h340l213 -295h-254z" />
    <glyph glyph-name="a" unicode="a" 
d="M68 295q0 344 655 344v16q0 76 -53 112t-128 36t-142 -31t-113 -74l-170 183q90 86 210 129q121 43 247 43q252 0 360 -130q108 -132 106 -409v-514h-307v109h-6q-39 -63 -118 -99t-155 -35q-160 0 -263 70q-125 86 -123 250zM733 444h-43q-313 0 -313 -139q0 -53 42 -78
q42 -26 103 -26q102 0 157 56q54 56 54 153v34z" />
    <glyph glyph-name="b" unicode="b" horiz-adv-x="1349" 
d="M878 699q-66 77 -175 76t-178 -80q-68 -79 -68 -183t69 -184t179 -79q109 1 174 78t65 186t-66 186zM1268 514q0 -106 -33 -204q-69 -205 -248 -294q-91 -45 -199 -45t-199 42t-140 120h-5v-133h-309v1548h336v-637h4q43 51 121 95t190 43q216 0 349 -158
q133 -157 133 -377z" />
    <glyph glyph-name="c" unicode="c" horiz-adv-x="1030" 
d="M659 250q121 0 183 76l186 -228q-64 -61 -164 -96t-217 -35q-245 0 -406 149t-161 393q0 245 162 394q162 150 407 150q102 0 207 -36t172 -102l-194 -225q-29 37 -78 60q-101 48 -197 1q-87 -45 -122 -141q-17 -47 -17 -100q0 -173 140 -240q44 -20 99 -20z" />
    <glyph glyph-name="d" unicode="d" horiz-adv-x="1347" 
d="M891 512q0 103 -70 183q-70 81 -178 80t-173 -76t-66 -184t65 -188t176 -78t178 81q68 79 68 182zM903 0v133h-4q-49 -78 -140 -120t-200 -42t-199 45t-152 120q-128 155 -128 376q0 222 132 379q132 158 349 158q113 0 191 -43t120 -95h5v637h335v-1548h-309z" />
    <glyph glyph-name="e" unicode="e" horiz-adv-x="1220" 
d="M641 -33q-239 0 -400 144t-161 392q0 247 158 399q158 151 390 151q233 0 374 -150t141 -405v-41q0 -20 -2 -39h-740q8 -82 79 -137q71 -54 165 -56q145 0 225 107l234 -148q-149 -215 -463 -217zM834 627q0 80 -50 137t-149 57q-98 0 -163 -56q-64 -56 -71 -138h433z
" />
    <glyph glyph-name="f" unicode="f" horiz-adv-x="745" 
d="M672 1315q-150 0 -150 -193v-102h228v-252h-228v-768h-336v768h-186v252h186v98q0 332 227 431q85 38 195 38t178 -20l-22 -267q-45 15 -92 15z" />
    <glyph glyph-name="g" unicode="g" horiz-adv-x="1347" 
d="M893 516q0 110 -69 184t-180 74q-110 0 -174 -74t-64 -182q0 -109 66 -186q66 -76 174 -76q109 0 178 76q69 75 69 184zM877 125q-104 -135 -319 -135t-346 152q-132 152 -132 372t132 378q132 157 353 157q97 0 185 -39t141 -121h4v131h317v-924q0 -291 -159 -439
q-159 -149 -441 -149q-135 0 -277 41t-247 119l168 240q145 -129 338 -129q147 0 218 78t71 206v62h-6z" />
    <glyph glyph-name="h" unicode="h" horiz-adv-x="1263" 
d="M803 553q0 215 -150 215q-88 0 -135 -62t-47 -155v-551h-336v1548h336v-657h4q35 61 111 109t181 48q192 1 291 -132q81 -106 83 -285v-631h-338v553z" />
    <glyph glyph-name="i" unicode="i" horiz-adv-x="606" 
d="M135 0v1020h336v-1020h-336zM496 1346q0 -39 -16 -73q-50 -109 -177 -112q-82 0 -137 54t-55 132t56 129q56 52 138 53q81 1 136 -53t55 -130z" />
    <glyph glyph-name="j" unicode="j" horiz-adv-x="612" 
d="M18 -205q74 0 99 50t24 128v1047h336v-1047q0 -217 -80 -327q-99 -138 -327 -138q-84 0 -146 17l23 280q30 -10 71 -10zM502 1346q0 -39 -16 -73q-50 -109 -177 -112q-82 0 -137 54t-55 132t56 129q56 52 138 53q81 1 136 -53t55 -130z" />
    <glyph glyph-name="k" unicode="k" horiz-adv-x="1218" 
d="M471 489v-489h-338v1548h338v-942h6l326 414h407l-393 -461l410 -559h-416l-334 489h-6z" />
    <glyph glyph-name="l" unicode="l" horiz-adv-x="610" 
d="M135 0v1548h340v-1548h-340z" />
    <glyph glyph-name="m" unicode="m" horiz-adv-x="1892" 
d="M1769 631v-631h-335v557q0 99 -22 140t-51 58q-28 17 -72 17q-84 0 -127 -63q-44 -63 -44 -158v-551h-336v582q0 190 -145 190q-80 0 -124 -63t-44 -156v-553h-338v1020h326v-141h4q63 115 199 155q48 14 106 15q218 0 307 -175q110 173 314 174t301 -136
q81 -113 81 -281z" />
    <glyph glyph-name="n" unicode="n" horiz-adv-x="1261" 
d="M801 557q0 215 -152 215q-89 0 -134 -63q-46 -63 -46 -156v-553h-338v1020h326v-141h4q61 112 205 155q46 14 124 14t150 -36q195 -100 199 -381v-631h-338v557z" />
    <glyph glyph-name="o" unicode="o" horiz-adv-x="1294" 
d="M889 514q0 105 -68 183q-68 79 -177 78q-110 -1 -174 -77t-64 -184q0 -107 65 -186q65 -80 178 -79t176 81q64 80 64 184zM1046 118q-166 -151 -402 -151t-400 151t-164 396q0 244 163 391q163 148 401 148q239 0 404 -147q164 -147 164 -392t-166 -396z" />
    <glyph glyph-name="p" unicode="p" horiz-adv-x="1345" 
d="M875 698q-65 77 -174 77q-110 -1 -178 -80t-68 -183t69 -184t180 -79q110 1 173 79t63 186t-65 184zM1266 514q0 -106 -33 -204q-69 -205 -248 -294q-91 -45 -195 -45t-188 38t-131 104h-4v-605h-336v1512h320v-125h6q47 61 130 107t195 46q218 1 351 -156
q133 -158 133 -378z" />
    <glyph glyph-name="q" unicode="q" horiz-adv-x="1345" 
d="M891 512q0 103 -70 183q-70 81 -178 80t-173 -76t-66 -184t65 -188t176 -78t178 81q68 79 68 182zM879 -492v605h-5q-49 -66 -132 -104q-82 -38 -188 -38t-196 45t-151 120q-127 156 -127 377t132 378q132 158 349 158q115 -1 198 -47t130 -107h6v125h317v-1512h-333z
" />
    <glyph glyph-name="r" unicode="r" horiz-adv-x="811" 
d="M695 756q-107 0 -167 -74q-61 -74 -61 -158v-524h-336v1020h324v-148h4q39 78 110 127q72 49 143 49t95 -8l-14 -295q-42 11 -98 11z" />
    <glyph glyph-name="s" unicode="s" horiz-adv-x="966" 
d="M518 811q-47 0 -87 -18q-40 -19 -40 -63t44 -62t122 -36q157 -35 252 -108q94 -74 94 -209q0 -177 -140 -270q-114 -76 -268 -77q-311 -2 -472 157l188 199q45 -49 111 -82t123 -33q137 0 137 88q0 47 -50 70t-128 41t-132 38q-113 42 -163 142q-27 51 -27 133
q0 83 39 147t100 105q116 78 258 79q285 2 436 -143l-184 -190q-97 92 -213 92z" />
    <glyph glyph-name="t" unicode="t" horiz-adv-x="761" 
d="M168 338v430h-164v252h162v268h330v-268h239v-252h-239v-389q0 -72 28 -108q28 -35 94 -35q67 0 103 16l4 -246q-84 -29 -191 -30q-286 -3 -348 213q-18 67 -18 149z" />
    <glyph glyph-name="u" unicode="u" horiz-adv-x="1257" 
d="M803 0v141h-4q-57 -112 -206 -155q-47 -14 -125 -14t-150 36q-198 102 -197 381v631h338v-553q0 -157 76 -200q29 -17 75 -17q88 0 134 66t47 153v551h335v-1020h-323z" />
    <glyph glyph-name="v" unicode="v" horiz-adv-x="1161" 
d="M762 0h-363l-401 1020h371l215 -662h6l215 662h358z" />
    <glyph glyph-name="w" unicode="w" horiz-adv-x="1783" 
d="M1430 0h-338l-201 635h-4l-197 -635h-338l-352 1020h362l177 -645h6l182 645h338l188 -645h4l179 645h348z" />
    <glyph glyph-name="x" unicode="x" horiz-adv-x="1216" 
d="M827 0l-219 313l-225 -313h-389l407 535l-368 485h391l190 -272l193 272h379l-367 -485l404 -535h-396z" />
    <glyph glyph-name="y" unicode="y" horiz-adv-x="1161" 
d="M234 -205q63 0 98 36t59 101l33 84l-426 1004h373l227 -655h6l203 655h356l-456 -1174q-65 -169 -165 -253q-100 -85 -284 -85q-99 0 -184 23l37 283q60 -19 123 -19z" />
    <glyph glyph-name="z" unicode="z" horiz-adv-x="1048" 
d="M70 0v262l479 500h-461v258h870v-252l-493 -508h514v-260h-909z" />
    <glyph glyph-name="braceleft" unicode="{" horiz-adv-x="700" 
d="M150 326q0 151 -138 151v225q135 0 138 144v350q0 139 75 221q76 82 205 82h168v-215h-96q-58 0 -76 -39t-18 -84v-342q0 -106 -64 -164t-127 -63v-4q65 -5 107 -43q43 -37 63 -81t21 -112v-334q0 -45 17 -84t77 -38h96v-215h-168q-129 -1 -205 81t-75 222v342z" />
    <glyph glyph-name="bar" unicode="|" horiz-adv-x="493" 
d="M381 1536v-2048h-266l-2 2048h268z" />
    <glyph glyph-name="braceright" unicode="}" horiz-adv-x="700" 
d="M688 477q-137 0 -137 -151v-342q0 -140 -76 -222t-205 -81h-168v215h97q59 0 76 38t18 84v334q0 121 71 183q49 44 119 53v4q-63 5 -127 63q-63 58 -63 164v342q1 45 -17 84t-77 39h-97v215h168q129 0 205 -82t76 -221v-350q0 -116 88 -137q25 -6 49 -7v-225z" />
    <glyph glyph-name="asciitilde" unicode="~" horiz-adv-x="1363" 
d="M930 379q-66 0 -116 18q-50 19 -112 59q-120 78 -222 78q-101 1 -171 -143l-135 213q104 203 281 203q120 0 251 -78t192 -79q62 -1 104 44t79 101l133 -207v-4q-54 -92 -100 -132q-84 -73 -184 -73z" />
    <glyph glyph-name="uni00A0" unicode="&#xa0;" horiz-adv-x="512" 
 />
    <glyph glyph-name="exclamdown" unicode="&#xa1;" horiz-adv-x="731" 
d="M193 -410v965h344v-965h-344zM506 729q-59 -55 -143 -55q-83 0 -140 57t-57 137t57 136q57 57 140 57t143 -55q59 -54 59 -138t-59 -139z" />
    <glyph glyph-name="cent" unicode="&#xa2;" horiz-adv-x="1323" 
d="M455 511q0 -99 49 -174t139 -99v544q-92 -24 -140 -98t-48 -173zM799 -162h-156v133q-215 24 -346 173t-131 368t129 361t348 176v131h156v-131q214 -14 325 -129l-170 -213q-63 68 -155 79v-553q92 8 162 80l165 -209q-115 -115 -327 -133v-133z" />
    <glyph glyph-name="sterling" unicode="&#xa3;" horiz-adv-x="1323" 
d="M680 956v-104h319v-236h-319v-327h530v-289h-1063v289h195v327h-195v236h195v125q0 192 123 340q143 172 400 172q258 0 415 -141l-197 -226q-75 80 -190 79q-114 -1 -170 -82q-43 -62 -43 -163z" />
    <glyph glyph-name="currency" unicode="&#xa4;" horiz-adv-x="1323" 
d="M665 850q-108 0 -176 -72q-67 -72 -67 -182q0 -170 141 -236q45 -20 101 -20q111 0 177 73t66 183q0 170 -141 234q-45 20 -101 20zM1167 596q0 -68 -19 -144t-54 -128l168 -166l-166 -172l-172 172q-106 -68 -254 -68t-267 72l-174 -176l-170 170l177 174
q-72 112 -72 268q0 155 65 258l-168 166l168 166l168 -166q125 74 269 75t264 -71l162 162l172 -166l-166 -164q69 -110 69 -262z" />
    <glyph glyph-name="yen" unicode="&#xa5;" horiz-adv-x="1323" 
d="M1192 852v-211h-367v-133h367v-211h-367v-297h-323v297h-365v211h365v133h-365v211h260l-372 598h378l271 -532l264 532h367l-367 -598h254z" />
    <glyph glyph-name="brokenbar" unicode="&#xa6;" horiz-adv-x="493" 
d="M113 -358v741h268v-741h-268zM113 641v741h268v-741h-268z" />
    <glyph glyph-name="section" unicode="&#xa7;" horiz-adv-x="1243" 
d="M512 766q-84 -34 -84 -111t103 -120q30 -12 61 -25l192 -76q64 29 64 97q0 69 -49 103t-111 60zM1100 90q0 -197 -165 -303q-143 -92 -335 -90q-242 0 -419 140q-58 46 -99 108l250 178q47 -78 126 -114t126 -36t90 10t67 49q15 19 15 49t-21 63t-99 63q-79 30 -152 56
q-72 27 -138 55q-218 95 -219 292q0 104 52 173t124 110q-109 80 -109 242t157 266q128 84 298 85q339 2 484 -210l-238 -180q-37 57 -96 90t-101 33q-42 -1 -70 -7q-94 -23 -93 -94q0 -55 60 -91q59 -36 157 -71q205 -74 287 -144q112 -95 112 -241q0 -81 -42 -149
t-112 -107q103 -73 103 -225z" />
    <glyph glyph-name="dieresis" unicode="&#xa8;" horiz-adv-x="614" 
d="M256 1347q0 -71 -50 -119t-122 -48t-121 49t-49 117t48 118t121 49q73 1 123 -47t50 -119zM700 1347q0 -71 -50 -119t-121 -48t-119 49t-50 117q0 68 49 117q49 50 120 50q71 1 121 -47t50 -119z" />
    <glyph glyph-name="copyright" unicode="&#xa9;" horiz-adv-x="1638" 
d="M1196 379q-125 -129 -333 -129t-349 124t-141 340t143 350q139 126 342 126q102 0 194 -38t146 -108l-158 -143q-63 80 -177 80t-177 -77t-63 -183t66 -184t181 -77q116 1 179 75zM1475 723q0 135 -52 255q-103 243 -348 350q-119 52 -254 52t-255 -52t-209 -141
t-141 -209t-52 -255t51 -254t139 -208t208 -140t255 -51t255 51q243 103 350 348q53 119 53 254zM1597 724q0 -161 -61 -301q-125 -287 -414 -409q-141 -59 -302 -59t-303 59q-288 120 -415 409q-61 140 -61 301t61 301q125 286 415 410q142 60 303 60t302 -60
q140 -61 246 -165t168 -244t61 -302z" />
    <glyph glyph-name="ordfeminine" unicode="&#xaa;" horiz-adv-x="786" 
d="M291 1061q0 -55 89 -55q40 0 70 28t29 74v25h-24q-164 0 -164 -72zM389 1481q226 0 271 -162q13 -47 14 -100v-336h-191v55h-2q-45 -68 -152 -69t-153 31q-83 58 -83 138q-1 80 35 118t106 66t239 27v8q-1 72 -93 72t-149 -57l-110 112q105 97 268 97z" />
    <glyph glyph-name="guillemotleft" unicode="&#xab;" horiz-adv-x="1112" 
d="M381 45l-330 475l330 475l199 -129l-236 -346l238 -346zM844 45l-330 475l330 475l198 -129l-235 -346l235 -346z" />
    <glyph glyph-name="logicalnot" unicode="&#xac;" horiz-adv-x="1363" 
d="M975 297v375h-871v252h1137v-627h-266z" />
    <glyph glyph-name="uni00AD" unicode="&#xad;" horiz-adv-x="667" 
d="M74 403v267h520v-267h-520z" />
    <glyph glyph-name="registered" unicode="&#xae;" horiz-adv-x="1228" 
d="M221 1009q0 -163 116 -279t279 -116t278 117q114 117 114 278q0 162 -115 277t-277 115q-82 0 -153 -31q-148 -64 -211 -208q-31 -72 -31 -153zM616 547q-195 0 -332 135t-137 328t139 328t331 135q193 -1 329 -137q135 -136 135 -328t-135 -326q-135 -135 -330 -135z
M571 940v-192h-180v544h234q166 0 225 -91q23 -34 22 -85q0 -113 -98 -151l125 -217h-205l-90 192h-33zM625 1067q25 0 41 13q16 14 16 32t-17 28t-40 11h-54v-84h54z" />
    <glyph glyph-name="macron" unicode="&#xaf;" horiz-adv-x="614" 
d="M-37 1231v176h688v-176h-688z" />
    <glyph glyph-name="degree" unicode="&#xb0;" horiz-adv-x="851" 
d="M606 1142q0 75 -52 128t-128 53t-128 -53t-52 -128t52 -127t128 -52t128 52t52 127zM181 898q-99 99 -99 242t99 245q100 100 244 100q144 1 244 -99q101 -100 101 -242t-99 -246q-101 -101 -245 -100t-245 100z" />
    <glyph glyph-name="plusminus" unicode="&#xb1;" horiz-adv-x="1363" 
d="M125 63v261h1137v-261h-1137zM827 678v-270h-266v270h-436v260h436v270h266v-270h435v-260h-435z" />
    <glyph glyph-name="twosuperior" unicode="&#xb2;" horiz-adv-x="860" 
d="M113 563v189l348 317q59 55 59 103q0 96 -92 96q-47 0 -77 -35t-34 -90l-225 26q15 139 112 221q97 81 233 82t232 -70q97 -71 97 -209t-156 -269l-178 -158h334v-203h-653z" />
    <glyph glyph-name="threesuperior" unicode="&#xb3;" horiz-adv-x="860" 
d="M756 1227q0 -135 -117 -195q65 -23 101 -78t36 -128q0 -136 -100 -207q-100 -72 -236 -72q-203 0 -306 135q-36 47 -54 115l215 57q14 -45 46 -77t79 -32q121 -1 121 95t-160 96h-68v172h74q133 0 133 94q0 34 -26 56t-66 22q-39 0 -68 -27t-38 -71l-216 51
q30 111 124 176q93 64 212 66q208 0 287 -138q27 -47 27 -110z" />
    <glyph glyph-name="acute" unicode="&#xb4;" horiz-adv-x="614" 
d="M395 1171h-254l213 295h340z" />
    <glyph glyph-name="mu" unicode="&#xb5;" horiz-adv-x="1363" 
d="M514 -463h-332v1483h332v-508q0 -163 76 -227q31 -27 82 -27q99 0 144 68q42 59 42 159v535h332v-1020h-318v117h-2q-77 -131 -224 -131q-89 0 -132 41v-490z" />
    <glyph glyph-name="paragraph" unicode="&#xb6;" horiz-adv-x="1265" 
d="M49 1061q0 389 500 389h588v-1714h-238v1509h-174v-1509h-238v950q-199 4 -319 107q-119 102 -119 268z" />
    <glyph glyph-name="periodcentered" unicode="&#xb7;" horiz-adv-x="614" 
d="M514 596q0 -86 -60 -143t-146 -57t-146 56q-60 57 -61 142t61 143t146 59q86 2 146 -56t60 -144z" />
    <glyph glyph-name="cedilla" unicode="&#xb8;" horiz-adv-x="614" 
d="M369 -121q211 0 211 -174q0 -55 -29 -94q-74 -99 -272 -103q-140 0 -244 52l55 123q84 -39 180 -39q95 0 95 67q0 57 -97 60q-49 0 -82 -13l-63 60l137 182h168l-96 -123q10 2 18 2h19z" />
    <glyph glyph-name="onesuperior" unicode="&#xb9;" horiz-adv-x="860" 
d="M369 557v627l-152 -119l-123 166l297 219h217v-893h-239z" />
    <glyph glyph-name="ordmasculine" unicode="&#xba;" horiz-adv-x="786" 
d="M272 1177q0 -51 31 -91t90 -40t92 40q33 39 33 91t-33 91t-92 39t-90 -39t-31 -91zM621 953q-91 -85 -225 -85t-228 86t-93 223t92 222q91 84 225 84q135 0 229 -83q92 -86 92 -221q0 -136 -92 -226z" />
    <glyph glyph-name="guillemotright" unicode="&#xbb;" horiz-adv-x="1112" 
d="M270 45l-198 129l235 344l-237 348l200 129l330 -477zM731 45l-199 129l236 344l-236 348l199 129l332 -477z" />
    <glyph glyph-name="onequarter" unicode="&#xbc;" horiz-adv-x="1925" 
d="M369 557v627l-152 -119l-123 166l297 219h217v-893h-239zM641 -61l-178 79l786 1495l187 -81zM1470 637h-2l-180 -275h182v275zM1688 170v-170h-218v170h-409v190l358 533h269v-531h118v-192h-118z" />
    <glyph glyph-name="onehalf" unicode="&#xbd;" horiz-adv-x="1925" 
d="M369 557v627l-152 -119l-123 166l297 219h217v-893h-239zM641 -61l-178 79l786 1495l187 -81zM1178 0v188l348 320q59 50 59 113q-1 37 -25 61t-68 23q-44 0 -75 -34t-35 -91l-225 28q16 141 114 222t233 81t231 -70t96 -198q0 -127 -97 -227q-28 -29 -59 -56l-178 -155
h334v-205h-653z" />
    <glyph glyph-name="threequarters" unicode="&#xbe;" horiz-adv-x="1925" 
d="M756 1227q0 -135 -117 -195q65 -23 101 -78t36 -128q0 -136 -100 -207q-100 -72 -236 -72q-203 0 -306 135q-36 47 -54 115l215 57q14 -45 46 -77t79 -32q121 -1 121 95t-160 96h-68v172h74q133 0 133 94q0 34 -26 56t-66 22q-39 0 -68 -27t-38 -71l-216 51
q30 111 124 176q93 64 212 66q208 0 287 -138q27 -47 27 -110zM641 -61l-178 79l786 1495l187 -81zM1470 637h-2l-180 -275h182v275zM1688 170v-170h-218v170h-409v190l358 533h269v-531h118v-192h-118z" />
    <glyph glyph-name="questiondown" unicode="&#xbf;" horiz-adv-x="1118" 
d="M92 163q53 76 150 151q96 74 117 111q22 38 22 99v54h319v-76q0 -142 -92 -240q-31 -33 -69 -69l-70 -62q-35 -33 -59 -65t-25 -90q0 -56 41 -96t118 -40t121 58t46 135l327 -37q-23 -215 -169 -330q-146 -114 -346 -113q-201 1 -333 98q-68 50 -109 127q-42 77 -42 193
t53 192zM680 730q-59 -56 -140 -56q-82 0 -142 56t-60 138q0 83 59 138t142 55t141 -56q59 -56 59 -137q0 -82 -59 -138z" />
    <glyph glyph-name="Agrave" unicode="&#xc0;" horiz-adv-x="1492" 
d="M645 1565l-299 295h340l213 -295h-254zM743 1063l-184 -498h365zM1133 0l-113 285h-561l-107 -285h-381l609 1450h340l602 -1450h-389z" />
    <glyph glyph-name="Aacute" unicode="&#xc1;" horiz-adv-x="1492" 
d="M856 1565h-254l213 295h340zM743 1063l-184 -498h365zM1133 0l-113 285h-561l-107 -285h-381l609 1450h340l602 -1450h-389z" />
    <glyph glyph-name="Acircumflex" unicode="&#xc2;" horiz-adv-x="1492" 
d="M889 1565l-139 166l-140 -166h-262l254 295h303l250 -295h-266zM743 1063l-184 -498h365zM1133 0l-113 285h-561l-107 -285h-381l609 1450h340l602 -1450h-389z" />
    <glyph glyph-name="Atilde" unicode="&#xc3;" horiz-adv-x="1492" 
d="M516 1575h-147q21 184 128 241q107 58 267 -16q88 -41 130 -41t60 24t29 60h145q-21 -184 -135 -248q-98 -55 -262 21q-73 41 -130 41t-85 -82zM743 1063l-184 -498h365zM1133 0l-113 285h-561l-107 -285h-381l609 1450h340l602 -1450h-389z" />
    <glyph glyph-name="Adieresis" unicode="&#xc4;" horiz-adv-x="1492" 
d="M698 1740q0 -71 -50 -119t-122 -48t-120 49t-50 116q0 67 48 117t121 51t123 -47t50 -119zM1143 1740q0 -71 -50 -119t-121 -48t-120 49t-49 116t47 117t120 51t123 -47t50 -119zM743 1063l-184 -498h365zM1133 0l-113 285h-561l-107 -285h-381l609 1450h340l602 -1450
h-389z" />
    <glyph glyph-name="Aring" unicode="&#xc5;" horiz-adv-x="1492" 
d="M872 1753q0 51 -34 85q-35 34 -87 34t-86 -35t-34 -85t35 -84t86 -34t86 34q34 34 34 85zM975 1753q1 -47 -17 -88q-35 -81 -120 -115q-41 -16 -87 -16q-92 0 -156 60q-65 60 -66 157t64 159t159 62t159 -63q64 -63 64 -156zM743 1063l-184 -498h365zM1133 0l-113 285
h-561l-107 -285h-381l609 1450h340l602 -1450h-389z" />
    <glyph glyph-name="AE" unicode="&#xc6;" horiz-adv-x="2115" 
d="M1053 1153h-21l-313 -557h334v557zM1053 0v313h-473l-181 -313h-407l848 1450h1157v-297h-611v-272h576v-281h-576v-301h648v-299h-981z" />
    <glyph glyph-name="Ccedilla" unicode="&#xc7;" horiz-adv-x="1425" 
d="M877 -121q210 0 210 -174q-1 -55 -29 -94q-72 -99 -272 -103q-139 0 -243 52l55 123q84 -39 180 -39t94 67q0 37 -32 48q-77 26 -146 -1l-63 60l112 151q-292 36 -477 243q-184 206 -184 532t224 536q224 209 562 209q154 0 302 -54t241 -159l-237 -238q-50 68 -130 101
q-169 69 -332 -1q-155 -68 -218 -234q-31 -81 -31 -178t31 -179q62 -163 215 -232q77 -33 173 -33t174 42q78 41 126 106l243 -229q-191 -220 -520 -238l-65 -86q10 2 18 2h19z" />
    <glyph glyph-name="Egrave" unicode="&#xc8;" horiz-adv-x="1243" 
d="M578 1565l-299 295h339l213 -295h-253zM150 0v1450h974v-297h-637v-272h603v-281h-603v-301h674v-299h-1011z" />
    <glyph glyph-name="Eacute" unicode="&#xc9;" horiz-adv-x="1243" 
d="M731 1565h-254l213 295h340zM150 0v1450h974v-297h-637v-272h603v-281h-603v-301h674v-299h-1011z" />
    <glyph glyph-name="Ecircumflex" unicode="&#xca;" horiz-adv-x="1243" 
d="M782 1565l-139 166l-139 -166h-262l254 295h303l250 -295h-267zM150 0v1450h974v-297h-637v-272h603v-281h-603v-301h674v-299h-1011z" />
    <glyph glyph-name="Edieresis" unicode="&#xcb;" horiz-adv-x="1243" 
d="M594 1740q0 -71 -50 -119t-122 -48t-121 49t-49 116t47 117q47 49 121 51q74 1 124 -47t50 -119zM1038 1740q0 -71 -50 -119t-121 -48t-119 49t-50 116q0 67 48 117t120 51t122 -47t50 -119zM150 0v1450h974v-297h-637v-272h603v-281h-603v-301h674v-299h-1011z" />
    <glyph glyph-name="Igrave" unicode="&#xcc;" horiz-adv-x="651" 
d="M248 1565l-299 295h340l213 -295h-254zM150 0v1450h352v-1450h-352z" />
    <glyph glyph-name="Iacute" unicode="&#xcd;" horiz-adv-x="651" 
d="M403 1565h-253l212 295h340zM150 0v1450h352v-1450h-352z" />
    <glyph glyph-name="Icircumflex" unicode="&#xce;" horiz-adv-x="651" 
d="M461 1565l-139 166l-140 -166h-262l254 295h303l250 -295h-266zM150 0v1450h352v-1450h-352z" />
    <glyph glyph-name="Idieresis" unicode="&#xcf;" horiz-adv-x="651" 
d="M274 1740q0 -71 -50 -119t-122 -48t-120 49t-50 116q0 67 48 117t121 51t123 -47t50 -119zM719 1740q0 -71 -50 -119t-121 -48t-120 49t-49 116t47 117t120 51t123 -47t50 -119zM150 0v1450h352v-1450h-352z" />
    <glyph glyph-name="Eth" unicode="&#xd0;" horiz-adv-x="1585" 
d="M999 406q142 110 142 320t-125 315q-125 104 -338 104h-184v-293h370v-219h-370v-326h151q228 0 354 99zM1247 176q-221 -176 -538 -176h-557v633h-125v219h125v598h559q340 0 549 -167q239 -191 239 -549q0 -357 -252 -558z" />
    <glyph glyph-name="Ntilde" unicode="&#xd1;" horiz-adv-x="1617" 
d="M584 1575h-148q21 182 129 241t266 -16q88 -41 131 -41q42 0 60 24t29 60h145q-21 -182 -135 -248q-98 -55 -262 21q-73 41 -131 41t-84 -82zM150 0v1450h399l581 -946h7l-9 946h340v-1450h-397l-584 948h-6l8 -948h-339z" />
    <glyph glyph-name="Ograve" unicode="&#xd2;" horiz-adv-x="1742" 
d="M825 1565l-299 295h340l213 -295h-254zM1286 727q0 194 -116 321q-117 126 -298 126t-299 -124t-117 -320t118 -324q117 -127 297 -126q181 1 298 127t117 320zM1661 732q0 -343 -222 -557t-568 -214q-345 0 -565 212q-104 101 -164 243t-60 316q0 345 222 551t566 206
q170 0 316 -53q296 -108 416 -390q60 -140 59 -314z" />
    <glyph glyph-name="Oacute" unicode="&#xd3;" horiz-adv-x="1742" 
d="M940 1565h-254l213 295h340zM1286 727q0 194 -116 321q-117 126 -298 126t-299 -124t-117 -320t118 -324q117 -127 297 -126q181 1 298 127t117 320zM1661 732q0 -343 -222 -557t-568 -214q-345 0 -565 212q-104 101 -164 243t-60 316q0 345 222 551t566 206
q170 0 316 -53q296 -108 416 -390q60 -140 59 -314z" />
    <glyph glyph-name="Ocircumflex" unicode="&#xd4;" horiz-adv-x="1742" 
d="M1010 1565l-140 166l-139 -166h-262l254 295h303l250 -295h-266zM1286 727q0 194 -116 321q-117 126 -298 126t-299 -124t-117 -320t118 -324q117 -127 297 -126q181 1 298 127t117 320zM1661 732q0 -343 -222 -557t-568 -214q-345 0 -565 212q-104 101 -164 243t-60 316
q0 345 222 551t566 206q170 0 316 -53q296 -108 416 -390q60 -140 59 -314z" />
    <glyph glyph-name="Otilde" unicode="&#xd5;" horiz-adv-x="1742" 
d="M641 1575h-147q21 184 128 241q107 58 267 -16q88 -41 130 -41t60 24t29 60h145q-21 -184 -135 -248q-98 -55 -262 21q-73 41 -130 41t-85 -82zM1286 727q0 194 -116 321q-117 126 -298 126t-299 -124t-117 -320t118 -324q117 -127 297 -126q181 1 298 127t117 320z
M1661 732q0 -343 -222 -557t-568 -214q-345 0 -565 212q-104 101 -164 243t-60 316q0 345 222 551t566 206q170 0 316 -53q296 -108 416 -390q60 -140 59 -314z" />
    <glyph glyph-name="Odieresis" unicode="&#xd6;" horiz-adv-x="1742" 
d="M821 1740q0 -71 -50 -119t-122 -48t-121 49t-49 115t47 117t121 52t124 -47t50 -119zM1266 1740q0 -71 -50 -119t-122 -48q-70 0 -119 49t-49 119q0 33 13 62q43 101 173 103q54 0 104 -47q50 -48 50 -119zM1286 727q0 194 -116 321q-117 126 -298 126t-299 -124
t-117 -320t118 -324q117 -127 297 -126q181 1 298 127t117 320zM1661 732q0 -343 -222 -557t-568 -214q-345 0 -565 212q-104 101 -164 243t-60 316q0 345 222 551t566 206q170 0 316 -53q296 -108 416 -390q60 -140 59 -314z" />
    <glyph glyph-name="multiply" unicode="&#xd7;" horiz-adv-x="1363" 
d="M1044 76l-362 354l-360 -354l-191 182l363 358l-365 357l193 186l362 -354l356 352l187 -178l-357 -354l367 -359z" />
    <glyph glyph-name="Oslash" unicode="&#xd8;" horiz-adv-x="1742" 
d="M438 727q0 -150 64 -246l594 645q-82 58 -205 59t-203 -35q-159 -71 -220 -245q-30 -84 -30 -178zM1300 719q0 176 -77 276l-598 -651q94 -76 243 -76q98 0 179 36q161 72 223 242q30 84 30 173zM262 225q-180 192 -180 520t222 535t566 207q258 0 449 -119l178 199
l137 -121l-176 -191q203 -207 203 -535t-226 -544q-105 -100 -251 -156t-316 -57h-10q-275 0 -459 141l-182 -194l-137 117z" />
    <glyph glyph-name="Ugrave" unicode="&#xd9;" horiz-adv-x="1511" 
d="M709 1565l-299 295h340l213 -295h-254zM1378 547q0 -265 -172 -426q-172 -160 -454 -160t-449 161q-168 161 -168 425v903h348v-875q0 -124 67 -212q67 -87 205 -87q139 0 206 85t67 214v875h350v-903z" />
    <glyph glyph-name="Uacute" unicode="&#xda;" horiz-adv-x="1511" 
d="M813 1565h-254l213 295h340zM1378 547q0 -265 -172 -426q-172 -160 -454 -160t-449 161q-168 161 -168 425v903h348v-875q0 -124 67 -212q67 -87 205 -87q139 0 206 85t67 214v875h350v-903z" />
    <glyph glyph-name="Ucircumflex" unicode="&#xdb;" horiz-adv-x="1511" 
d="M895 1565l-139 166l-140 -166h-262l254 295h303l250 -295h-266zM1378 547q0 -265 -172 -426q-172 -160 -454 -160t-449 161q-168 161 -168 425v903h348v-875q0 -124 67 -212q67 -87 205 -87q139 0 206 85t67 214v875h350v-903z" />
    <glyph glyph-name="Udieresis" unicode="&#xdc;" horiz-adv-x="1511" 
d="M707 1740q-1 -71 -51 -119t-122 -48t-120 49q-49 49 -49 119q0 33 13 62q44 101 176 103q54 0 103 -47q50 -48 50 -119zM1151 1740q0 -71 -50 -119t-121 -48t-120 49t-49 116t47 117t120 51t123 -47t50 -119zM1378 547q0 -265 -172 -426q-172 -160 -454 -160t-449 161
q-168 161 -168 425v903h348v-875q0 -124 67 -212q67 -87 205 -87q139 0 206 85t67 214v875h350v-903z" />
    <glyph glyph-name="Yacute" unicode="&#xdd;" horiz-adv-x="1370" 
d="M813 1565h-254l213 295h340zM854 0h-350v614l-545 836h424l309 -537l309 537h410l-557 -836v-614z" />
    <glyph glyph-name="Thorn" unicode="&#xde;" horiz-adv-x="1310" 
d="M647 578q252 0 252 176q0 140 -155 161q-44 6 -91 7h-153v-344h147zM1249 755q0 -237 -164 -346q-164 -110 -411 -110h-174v-299h-350v1450h350v-248h182q401 0 523 -236q44 -85 44 -211z" />
    <glyph glyph-name="germandbls" unicode="&#xdf;" horiz-adv-x="1366" 
d="M629 705v264h45q109 0 155 78q21 33 21 93t-43 110t-117 50q-224 0 -223 -276v-1024h-336v1026q0 381 310 505q105 42 229 42q230 0 374 -111t144 -299q0 -115 -62 -197t-151 -110v-2q141 -29 227 -134t86 -265q0 -221 -143 -351q-143 -131 -381 -131q-96 0 -197 25v289
q79 -27 163 -27q85 0 152 48q66 48 66 165t-76 173q-76 57 -200 59h-43z" />
    <glyph glyph-name="agrave" unicode="&#xe0;" 
d="M528 1171l-299 295h340l213 -295h-254zM68 295q0 344 655 344v16q0 76 -53 112t-128 36t-142 -31t-113 -74l-170 183q90 86 210 129q121 43 247 43q252 0 360 -130q108 -132 106 -409v-514h-307v109h-6q-39 -63 -118 -99t-155 -35q-160 0 -263 70q-125 86 -123 250z
M733 444h-43q-313 0 -313 -139q0 -53 42 -78q42 -26 103 -26q102 0 157 56q54 56 54 153v34z" />
    <glyph glyph-name="aacute" unicode="&#xe1;" 
d="M639 1171h-254l213 295h340zM68 295q0 344 655 344v16q0 76 -53 112t-128 36t-142 -31t-113 -74l-170 183q90 86 210 129q121 43 247 43q252 0 360 -130q108 -132 106 -409v-514h-307v109h-6q-39 -63 -118 -99t-155 -35q-160 0 -263 70q-125 86 -123 250zM733 444h-43
q-313 0 -313 -139q0 -53 42 -78q42 -26 103 -26q102 0 157 56q54 56 54 153v34z" />
    <glyph glyph-name="acircumflex" unicode="&#xe2;" 
d="M721 1171l-139 166l-140 -166h-262l254 295h303l250 -295h-266zM68 295q0 344 655 344v16q0 76 -53 112t-128 36t-142 -31t-113 -74l-170 183q90 86 210 129q121 43 247 43q252 0 360 -130q108 -132 106 -409v-514h-307v109h-6q-39 -63 -118 -99t-155 -35q-160 0 -263 70
q-125 86 -123 250zM733 444h-43q-313 0 -313 -139q0 -53 42 -78q42 -26 103 -26q102 0 157 56q54 56 54 153v34z" />
    <glyph glyph-name="atilde" unicode="&#xe3;" 
d="M344 1426q41 22 106 22t154 -41q88 -41 130 -41t61 24q18 24 28 60h146q-21 -182 -127 -243t-271 16q-69 39 -128 40t-87 -81h-147q21 186 135 244zM68 295q0 344 655 344v16q0 76 -53 112t-128 36t-142 -31t-113 -74l-170 183q90 86 210 129q121 43 247 43
q252 0 360 -130q108 -132 106 -409v-514h-307v109h-6q-39 -63 -118 -99t-155 -35q-160 0 -263 70q-125 86 -123 250zM733 444h-43q-313 0 -313 -139q0 -53 42 -78q42 -26 103 -26q102 0 157 56q54 56 54 153v34z" />
    <glyph glyph-name="adieresis" unicode="&#xe4;" 
d="M532 1347q0 -71 -50 -119t-122 -48t-120 49t-50 117q0 68 49 117q49 50 121 50q72 1 122 -47t50 -119zM824 1513q54 1 103 -47q50 -48 50 -119t-50 -119t-121 -48t-120 49t-49 119q0 33 13 62q45 103 174 103zM68 295q0 344 655 344v16q0 76 -53 112t-128 36t-142 -31
t-113 -74l-170 183q90 86 210 129q121 43 247 43q252 0 360 -130q108 -132 106 -409v-514h-307v109h-6q-39 -63 -118 -99t-155 -35q-160 0 -263 70q-125 86 -123 250zM733 444h-43q-313 0 -313 -139q0 -53 42 -78q42 -26 103 -26q102 0 157 56q54 56 54 153v34z" />
    <glyph glyph-name="aring" unicode="&#xe5;" 
d="M709 1360q0 51 -35 85t-87 34t-86 -35t-34 -85t35 -84t86 -34t86 34t35 85zM365 1358q0 96 64 159q65 62 159 62t159 -63q64 -63 64 -159t-66 -156q-65 -60 -157 -60t-158 61q-65 60 -65 156zM68 295q0 344 655 344v16q0 76 -53 112t-128 36t-142 -31t-113 -74l-170 183
q90 86 210 129q121 43 247 43q252 0 360 -130q108 -132 106 -409v-514h-307v109h-6q-39 -63 -118 -99t-155 -35q-160 0 -263 70q-125 86 -123 250zM733 444h-43q-313 0 -313 -139q0 -53 42 -78q42 -26 103 -26q102 0 157 56q54 56 54 153v34z" />
    <glyph glyph-name="ae" unicode="&#xe6;" horiz-adv-x="1841" 
d="M723 639q0 164 -182 164q-72 0 -140 -31t-114 -74l-168 183q88 86 208 129q119 43 245 43t207 -45t122 -105q55 66 145 108t204 42t208 -38q192 -78 267 -284q38 -102 38 -233q0 -42 -4 -80h-737q10 -86 80 -139t162 -54q150 0 225 107l231 -148q-149 -215 -463 -217
q-121 0 -222 48t-161 137q-106 -175 -413 -177q-152 0 -262 73q-133 89 -131 247q0 194 202 271q144 57 453 59v14zM1452 627q0 80 -50 137t-149 57t-164 -57t-69 -137h432zM377 305q0 -104 165 -104q82 0 137 51q54 51 54 139v33h-43q-145 0 -229 -23t-84 -96z" />
    <glyph glyph-name="ccedilla" unicode="&#xe7;" horiz-adv-x="1030" 
d="M670 -121q211 0 211 -174q0 -55 -29 -94q-74 -99 -272 -103q-138 0 -244 52l55 123q84 -39 180 -39q95 0 95 67q0 57 -97 60q-49 0 -82 -13l-63 60l119 157q-204 29 -334 174q-129 145 -129 375t162 379q162 150 407 150q102 0 207 -36t172 -102l-194 -225q-29 37 -78 60
q-101 48 -197 1q-87 -45 -122 -141q-17 -47 -17 -100q0 -173 140 -240q44 -20 99 -20q121 0 183 76l186 -228q-116 -112 -323 -129l-72 -92q10 2 18 2h19z" />
    <glyph glyph-name="egrave" unicode="&#xe8;" horiz-adv-x="1220" 
d="M569 1171l-299 295h340l213 -295h-254zM641 -33q-239 0 -400 144t-161 392q0 247 158 399q158 151 390 151q233 0 374 -150t141 -405v-41q0 -20 -2 -39h-740q8 -82 79 -137q71 -54 165 -56q145 0 225 107l234 -148q-149 -215 -463 -217zM834 627q0 80 -50 137t-149 57
q-98 0 -163 -56q-64 -56 -71 -138h433z" />
    <glyph glyph-name="eacute" unicode="&#xe9;" horiz-adv-x="1220" 
d="M678 1171h-254l213 295h340zM641 -33q-239 0 -400 144t-161 392q0 247 158 399q158 151 390 151q233 0 374 -150t141 -405v-41q0 -20 -2 -39h-740q8 -82 79 -137q71 -54 165 -56q145 0 225 107l234 -148q-149 -215 -463 -217zM834 627q0 80 -50 137t-149 57
q-98 0 -163 -56q-64 -56 -71 -138h433z" />
    <glyph glyph-name="ecircumflex" unicode="&#xea;" horiz-adv-x="1220" 
d="M780 1171l-139 166l-139 -166h-262l254 295h303l250 -295h-267zM641 -33q-239 0 -400 144t-161 392q0 247 158 399q158 151 390 151q233 0 374 -150t141 -405v-41q0 -20 -2 -39h-740q8 -82 79 -137q71 -54 165 -56q145 0 225 107l234 -148q-149 -215 -463 -217zM834 627
q0 80 -50 137t-149 57q-98 0 -163 -56q-64 -56 -71 -138h433z" />
    <glyph glyph-name="edieresis" unicode="&#xeb;" horiz-adv-x="1220" 
d="M590 1347q0 -71 -50 -119t-122 -48t-121 49t-49 117t48 118t121 49q73 1 123 -47t50 -119zM1034 1347q0 -71 -50 -119t-121 -48t-120 49t-49 116t48 117q48 51 120 51q72 1 122 -47t50 -119zM641 -33q-239 0 -400 144t-161 392q0 247 158 399q158 151 390 151
q233 0 374 -150t141 -405v-41q0 -20 -2 -39h-740q8 -82 79 -137q71 -54 165 -56q145 0 225 107l234 -148q-149 -215 -463 -217zM834 627q0 80 -50 137t-149 57q-98 0 -163 -56q-64 -56 -71 -138h433z" />
    <glyph glyph-name="igrave" unicode="&#xec;" horiz-adv-x="606" 
d="M213 1171l-299 295h340l213 -295h-254zM135 0v1020h336v-1020h-336z" />
    <glyph glyph-name="iacute" unicode="&#xed;" horiz-adv-x="606" 
d="M391 1171h-254l213 295h340zM135 0v1020h336v-1020h-336z" />
    <glyph glyph-name="icircumflex" unicode="&#xee;" horiz-adv-x="606" 
d="M446 1171l-139 166l-139 -166h-262l254 295h303l250 -295h-267zM135 0v1020h336v-1020h-336z" />
    <glyph glyph-name="idieresis" unicode="&#xef;" horiz-adv-x="606" 
d="M256 1347q0 -71 -50 -119t-122 -48t-121 49t-49 117t48 118t121 49q73 1 123 -47t50 -119zM700 1347q0 -71 -50 -119t-121 -48t-119 49t-50 117q0 68 49 117q49 50 120 50q71 1 121 -47t50 -119zM135 0v1020h336v-1020h-336z" />
    <glyph glyph-name="eth" unicode="&#xf0;" horiz-adv-x="1294" 
d="M891 511q0 103 -67 183t-179 79t-176 -78t-65 -182t66 -185t179 -79t177 80t65 182zM1214 578q0 -281 -155 -446t-405 -165t-412 150t-162 392q0 243 157 390t384 145q104 0 167 -51l5 2q-104 152 -201 234l-221 -99l-164 144l223 96q-53 53 -154 121l261 145
q57 -43 102 -83t74 -64l231 102l178 -145l-248 -107q340 -368 340 -761z" />
    <glyph glyph-name="ntilde" unicode="&#xf1;" horiz-adv-x="1261" 
d="M393 1426q41 22 106 22t154 -41q88 -41 130 -41t61 24q18 24 28 60h146q-21 -182 -128 -243t-269 16q-69 39 -129 40t-86 -81h-148q21 184 135 244zM801 557q0 215 -152 215q-89 0 -134 -63q-46 -63 -46 -156v-553h-338v1020h326v-141h4q61 112 205 155q46 14 124 14
t150 -36q195 -100 199 -381v-631h-338v557z" />
    <glyph glyph-name="ograve" unicode="&#xf2;" horiz-adv-x="1294" 
d="M559 1171l-299 295h340l213 -295h-254zM889 514q0 105 -68 183q-68 79 -177 78q-110 -1 -174 -77t-64 -184q0 -107 65 -186q65 -80 178 -79t176 81q64 80 64 184zM1046 118q-166 -151 -402 -151t-400 151t-164 396q0 244 163 391q163 148 401 148q239 0 404 -147
q164 -147 164 -392t-166 -396z" />
    <glyph glyph-name="oacute" unicode="&#xf3;" horiz-adv-x="1294" 
d="M725 1171h-254l213 295h340zM889 514q0 105 -68 183q-68 79 -177 78q-110 -1 -174 -77t-64 -184q0 -107 65 -186q65 -80 178 -79t176 81q64 80 64 184zM1046 118q-166 -151 -402 -151t-400 151t-164 396q0 244 163 391q163 148 401 148q239 0 404 -147q164 -147 164 -392
t-166 -396z" />
    <glyph glyph-name="ocircumflex" unicode="&#xf4;" horiz-adv-x="1294" 
d="M780 1180l-135 161l-135 -161h-256l248 286h295l241 -286h-258zM889 514q0 105 -68 183q-68 79 -177 78q-110 -1 -174 -77t-64 -184q0 -107 65 -186q65 -80 178 -79t176 81q64 80 64 184zM1046 118q-166 -151 -402 -151t-400 151t-164 396q0 244 163 391q163 148 401 148
q239 0 404 -147q164 -147 164 -392t-166 -396z" />
    <glyph glyph-name="otilde" unicode="&#xf5;" horiz-adv-x="1294" 
d="M401 1426q41 22 107 22t154 -41t130 -41t60 24t29 60h145q-21 -182 -135 -248q-98 -55 -262 21q-69 39 -129 40t-86 -81h-148q21 184 135 244zM889 514q0 105 -68 183q-68 79 -177 78q-110 -1 -174 -77t-64 -184q0 -107 65 -186q65 -80 178 -79t176 81q64 80 64 184z
M1046 118q-166 -151 -402 -151t-400 151t-164 396q0 244 163 391q163 148 401 148q239 0 404 -147q164 -147 164 -392t-166 -396z" />
    <glyph glyph-name="odieresis" unicode="&#xf6;" horiz-adv-x="1294" 
d="M594 1347q0 -71 -50 -119t-122 -48t-121 49t-49 117t48 118t121 49q73 1 123 -47t50 -119zM1038 1347q0 -71 -50 -119t-121 -48t-119 49t-50 117q0 68 49 117q49 50 120 50q71 1 121 -47t50 -119zM889 514q0 105 -68 183q-68 79 -177 78q-110 -1 -174 -77t-64 -184
q0 -107 65 -186q65 -80 178 -79t176 81q64 80 64 184zM1046 118q-166 -151 -402 -151t-400 151t-164 396q0 244 163 391q163 148 401 148q239 0 404 -147q164 -147 164 -392t-166 -396z" />
    <glyph glyph-name="divide" unicode="&#xf7;" horiz-adv-x="1363" 
d="M162 492v260h1038v-260h-1038zM858 240q0 -72 -52 -123t-124 -51t-126 51q-52 51 -52 124q0 72 52 120q52 49 108 50q132 2 180 -105q14 -32 14 -66zM858 1000q0 -72 -50 -122q-50 -49 -107 -50q-92 -2 -145 50q-52 51 -52 124t52 121q52 49 108 50q132 2 180 -105
q14 -32 14 -68z" />
    <glyph glyph-name="oslash" unicode="&#xf8;" horiz-adv-x="1294" 
d="M640 242q125 0 189 78t64 172t-27 135l-342 -344q48 -41 116 -41zM762 748q-55 38 -117 38q-115 0 -182 -77t-69 -171q-1 -94 28 -135zM80 512q0 242 163 392q163 151 402 151q193 0 328 -101l147 148l123 -119l-143 -141q113 -131 112 -330q0 -238 -163 -391
q-163 -154 -404 -154q-185 0 -321 96l-154 -151l-121 119l148 145q-117 135 -117 336z" />
    <glyph glyph-name="ugrave" unicode="&#xf9;" horiz-adv-x="1257" 
d="M582 1171l-299 295h340l213 -295h-254zM803 0v141h-4q-57 -112 -206 -155q-47 -14 -125 -14t-150 36q-198 102 -197 381v631h338v-553q0 -157 76 -200q29 -17 75 -17q88 0 134 66t47 153v551h335v-1020h-323z" />
    <glyph glyph-name="uacute" unicode="&#xfa;" horiz-adv-x="1257" 
d="M702 1171h-253l213 295h339zM803 0v141h-4q-57 -112 -206 -155q-47 -14 -125 -14t-150 36q-198 102 -197 381v631h338v-553q0 -157 76 -200q29 -17 75 -17q88 0 134 66t47 153v551h335v-1020h-323z" />
    <glyph glyph-name="ucircumflex" unicode="&#xfb;" horiz-adv-x="1257" 
d="M768 1171l-139 166l-140 -166h-262l254 295h303l250 -295h-266zM803 0v141h-4q-57 -112 -206 -155q-47 -14 -125 -14t-150 36q-198 102 -197 381v631h338v-553q0 -157 76 -200q29 -17 75 -17q88 0 134 66t47 153v551h335v-1020h-323z" />
    <glyph glyph-name="udieresis" unicode="&#xfc;" horiz-adv-x="1257" 
d="M578 1347q0 -71 -50 -119t-122 -48t-121 49t-49 117t48 118t121 49q73 1 123 -47t50 -119zM1022 1347q0 -71 -50 -119t-121 -48t-120 49t-49 119q0 33 13 62q45 103 173 103q54 1 104 -47t50 -119zM803 0v141h-4q-57 -112 -206 -155q-47 -14 -125 -14t-150 36
q-198 102 -197 381v631h338v-553q0 -157 76 -200q29 -17 75 -17q88 0 134 66t47 153v551h335v-1020h-323z" />
    <glyph glyph-name="yacute" unicode="&#xfd;" horiz-adv-x="1161" 
d="M700 1171h-254l213 295h340zM234 -205q63 0 98 36t59 101l33 84l-426 1004h373l227 -655h6l203 655h356l-456 -1174q-65 -169 -165 -253q-100 -85 -284 -85q-99 0 -184 23l37 283q60 -19 123 -19z" />
    <glyph glyph-name="thorn" unicode="&#xfe;" horiz-adv-x="1349" 
d="M878 699q-66 77 -175 76t-178 -80q-68 -79 -68 -183t69 -184t179 -79q109 1 174 78t65 186t-66 186zM1268 514q0 -106 -33 -204q-69 -206 -246 -294q-89 -45 -195 -45t-191 39t-130 105h-4v-607h-334v2040h334v-637h6q43 51 120 95t189 43q217 0 351 -158
q133 -157 133 -377z" />
    <glyph glyph-name="ydieresis" unicode="&#xff;" horiz-adv-x="1161" 
d="M549 1347q0 -71 -50 -119t-122 -48t-121 49t-49 117t48 118t121 49q73 1 123 -47t50 -119zM993 1347q0 -71 -50 -119t-121 -48t-120 49t-49 116t48 117q48 51 120 51q72 1 122 -47t50 -119zM234 -205q63 0 98 36t59 101l33 84l-426 1004h373l227 -655h6l203 655h356
l-456 -1174q-65 -169 -165 -253q-100 -85 -284 -85q-99 0 -184 23l37 283q60 -19 123 -19z" />
    <glyph glyph-name="Amacron" unicode="&#x100;" horiz-adv-x="1492" 
d="M401 1624v176h689v-176h-689zM743 1063l-184 -498h365zM1133 0l-113 285h-561l-107 -285h-381l609 1450h340l602 -1450h-389z" />
    <glyph glyph-name="amacron" unicode="&#x101;" 
d="M242 1231v176h688v-176h-688zM68 295q0 344 655 344v16q0 76 -53 112t-128 36t-142 -31t-113 -74l-170 183q90 86 210 129q121 43 247 43q252 0 360 -130q108 -132 106 -409v-514h-307v109h-6q-39 -63 -118 -99t-155 -35q-160 0 -263 70q-125 86 -123 250zM733 444h-43
q-313 0 -313 -139q0 -53 42 -78q42 -26 103 -26q102 0 157 56q54 56 54 153v34z" />
    <glyph glyph-name="Abreve" unicode="&#x102;" horiz-adv-x="1492" 
d="M741 1565q-233 0 -318 158q-30 56 -36 137h172q21 -113 184 -113q70 0 120 20t65 93h172q-11 -151 -108 -223t-251 -72zM743 1063l-184 -498h365zM1133 0l-113 285h-561l-107 -285h-381l609 1450h340l602 -1450h-389z" />
    <glyph glyph-name="abreve" unicode="&#x103;" 
d="M586 1354q70 0 120 20t64 92h172q-11 -150 -107 -221q-96 -72 -251 -74q-234 0 -319 159q-30 56 -36 136h172q23 -112 185 -112zM68 295q0 344 655 344v16q0 76 -53 112t-128 36t-142 -31t-113 -74l-170 183q90 86 210 129q121 43 247 43q252 0 360 -130
q108 -132 106 -409v-514h-307v109h-6q-39 -63 -118 -99t-155 -35q-160 0 -263 70q-125 86 -123 250zM733 444h-43q-313 0 -313 -139q0 -53 42 -78q42 -26 103 -26q102 0 157 56q54 56 54 153v34z" />
    <glyph glyph-name="Aogonek" unicode="&#x104;" horiz-adv-x="1492" 
d="M743 1063l-184 -498h365zM926 -300q0 81 61 160t148 140h-2l-113 285h-561l-107 -285h-381l609 1450h340l602 -1450h-199q-184 -144 -184 -242q-1 -33 21 -53t66 -20t101 41l66 -127q-113 -84 -236 -82q-153 0 -211 101q-20 36 -20 82z" />
    <glyph glyph-name="aogonek" unicode="&#x105;" 
d="M733 444h-43q-313 0 -313 -139q0 -53 42 -78q42 -26 103 -26q102 0 157 56q54 56 54 153v34zM68 295q0 344 655 344v16q0 76 -53 112t-128 36t-142 -31t-113 -74l-170 183q90 86 210 129q121 43 247 43q252 0 360 -130q108 -132 106 -409v-514h-127q-184 -144 -184 -242
q0 -33 22 -53t65 -20t102 41l65 -127q-113 -84 -235 -82q-153 0 -213 107t53 249q61 76 145 131v105h-6q-39 -63 -118 -99t-155 -35q-160 0 -263 70q-125 86 -123 250z" />
    <glyph glyph-name="Cacute" unicode="&#x106;" horiz-adv-x="1425" 
d="M928 1565h-254l213 295h340zM870 -39q-347 0 -565 212q-103 101 -163 243t-60 313q0 342 224 551t562 209q154 0 302 -54t241 -159l-237 -238q-50 68 -130 101q-169 69 -332 -1q-155 -68 -218 -234q-31 -81 -31 -178t31 -179q62 -163 215 -232q77 -33 173 -33t174 42
q78 41 126 106l243 -229q-96 -111 -237 -175q-142 -64 -318 -65z" />
    <glyph glyph-name="cacute" unicode="&#x107;" horiz-adv-x="1030" 
d="M731 1171h-254l213 295h340zM659 250q121 0 183 76l186 -228q-64 -61 -164 -96t-217 -35q-245 0 -406 149t-161 393q0 245 162 394q162 150 407 150q102 0 207 -36t172 -102l-194 -225q-29 37 -78 60q-101 48 -197 1q-87 -45 -122 -141q-17 -47 -17 -100q0 -173 140 -240
q44 -20 99 -20z" />
    <glyph glyph-name="Ccircumflex" unicode="&#x108;" horiz-adv-x="1425" 
d="M1014 1565l-140 166l-139 -166h-262l254 295h303l250 -295h-266zM870 -39q-347 0 -565 212q-103 101 -163 243t-60 313q0 342 224 551t562 209q154 0 302 -54t241 -159l-237 -238q-50 68 -130 101q-169 69 -332 -1q-155 -68 -218 -234q-31 -81 -31 -178t31 -179
q62 -163 215 -232q77 -33 173 -33t174 42q78 41 126 106l243 -229q-96 -111 -237 -175q-142 -64 -318 -65z" />
    <glyph glyph-name="ccircumflex" unicode="&#x109;" horiz-adv-x="1030" 
d="M791 1171l-140 166l-139 -166h-262l254 295h303l250 -295h-266zM659 250q121 0 183 76l186 -228q-64 -61 -164 -96t-217 -35q-245 0 -406 149t-161 393q0 245 162 394q162 150 407 150q102 0 207 -36t172 -102l-194 -225q-29 37 -78 60q-101 48 -197 1q-87 -45 -122 -141
q-17 -47 -17 -100q0 -173 140 -240q44 -20 99 -20z" />
    <glyph glyph-name="Cdotaccent" unicode="&#x10a;" horiz-adv-x="1425" 
d="M1055 1739q1 -74 -53 -124t-132 -50t-130 51t-52 123t52 124t130 52t132 -51t53 -125zM870 -39q-347 0 -565 212q-103 101 -163 243t-60 313q0 342 224 551t562 209q154 0 302 -54t241 -159l-237 -238q-50 68 -130 101q-169 69 -332 -1q-155 -68 -218 -234
q-31 -81 -31 -178t31 -179q62 -163 215 -232q77 -33 173 -33t174 42q78 41 126 106l243 -229q-96 -111 -237 -175q-142 -64 -318 -65z" />
    <glyph glyph-name="cdotaccent" unicode="&#x10b;" horiz-adv-x="1030" 
d="M840 1346q0 -74 -54 -124t-131 -50q-78 0 -130 50q-52 52 -52 124t52 124t130 52q77 0 131 -51t54 -125zM659 250q121 0 183 76l186 -228q-64 -61 -164 -96t-217 -35q-245 0 -406 149t-161 393q0 245 162 394q162 150 407 150q102 0 207 -36t172 -102l-194 -225
q-29 37 -78 60q-101 48 -197 1q-87 -45 -122 -141q-17 -47 -17 -100q0 -173 140 -240q44 -20 99 -20z" />
    <glyph glyph-name="Ccaron" unicode="&#x10c;" horiz-adv-x="1425" 
d="M1026 1565h-301l-254 295h266l140 -166l139 166h262zM870 -39q-347 0 -565 212q-103 101 -163 243t-60 313q0 342 224 551t562 209q154 0 302 -54t241 -159l-237 -238q-50 68 -130 101q-169 69 -332 -1q-155 -68 -218 -234q-31 -81 -31 -178t31 -179q62 -163 215 -232
q77 -33 173 -33t174 42q78 41 126 106l243 -229q-96 -111 -237 -175q-142 -64 -318 -65z" />
    <glyph glyph-name="ccaron" unicode="&#x10d;" horiz-adv-x="1030" 
d="M801 1171h-301l-254 295h266l139 -166l140 166h262zM659 250q121 0 183 76l186 -228q-64 -61 -164 -96t-217 -35q-245 0 -406 149t-161 393q0 245 162 394q162 150 407 150q102 0 207 -36t172 -102l-194 -225q-29 37 -78 60q-101 48 -197 1q-87 -45 -122 -141
q-17 -47 -17 -100q0 -173 140 -240q44 -20 99 -20z" />
    <glyph glyph-name="Dcaron" unicode="&#x10e;" horiz-adv-x="1585" 
d="M883 1565h-301l-254 295h266l139 -166l139 166h263zM992 395q147 108 147 335t-147 332q-121 87 -326 89h-174v-848h165q209 0 335 92zM1503 736q0 -366 -257 -563q-225 -173 -556 -173h-540v1450h524q154 0 303 -36q319 -76 455 -341q72 -139 71 -337z" />
    <glyph glyph-name="dcaron" unicode="&#x10f;" horiz-adv-x="1347" 
d="M1528 1051h-258l137 399h297zM891 512q0 103 -70 183q-70 81 -178 80t-173 -76t-66 -184t65 -188t176 -78t178 81q68 79 68 182zM903 0v133h-4q-49 -78 -140 -120t-200 -42t-199 45t-152 120q-128 155 -128 376q0 222 132 379q132 158 349 158q113 0 191 -43t120 -95h5
v637h335v-1548h-309z" />
    <glyph glyph-name="Dcroat" unicode="&#x110;" horiz-adv-x="1585" 
d="M999 406q142 110 142 320t-125 315q-125 104 -338 104h-184v-293h370v-219h-370v-326h151q228 0 354 99zM1247 176q-221 -176 -538 -176h-557v633h-125v219h125v598h559q340 0 549 -167q239 -191 239 -549q0 -357 -252 -558z" />
    <glyph glyph-name="dcroat" unicode="&#x111;" horiz-adv-x="1347" 
d="M891 512q0 103 -70 183q-70 81 -178 80t-173 -76t-66 -184t65 -188t176 -78t178 81q68 79 68 182zM903 0v133h-4q-49 -78 -140 -120t-200 -42t-199 45t-152 120q-128 155 -128 376q0 222 132 379q132 158 349 158q113 0 191 -43t120 -95h5v256h-306v183h306v198h335v-198
h95v-183h-95v-1167h-309z" />
    <glyph glyph-name="Emacron" unicode="&#x112;" horiz-adv-x="1243" 
d="M291 1624v176h688v-176h-688zM150 0v1450h974v-297h-637v-272h603v-281h-603v-301h674v-299h-1011z" />
    <glyph glyph-name="emacron" unicode="&#x113;" horiz-adv-x="1220" 
d="M295 1231v176h688v-176h-688zM641 -33q-239 0 -400 144t-161 392q0 247 158 399q158 151 390 151q233 0 374 -150t141 -405v-41q0 -20 -2 -39h-740q8 -82 79 -137q71 -54 165 -56q145 0 225 107l234 -148q-149 -215 -463 -217zM834 627q0 80 -50 137t-149 57
q-98 0 -163 -56q-64 -56 -71 -138h433z" />
    <glyph glyph-name="Ebreve" unicode="&#x114;" horiz-adv-x="1243" 
d="M635 1747q70 0 120 20t64 93h172q-11 -150 -108 -222q-96 -73 -250 -73q-234 0 -319 158q-30 56 -35 137h172q21 -113 184 -113zM150 0v1450h974v-297h-637v-272h603v-281h-603v-301h674v-299h-1011z" />
    <glyph glyph-name="ebreve" unicode="&#x115;" horiz-adv-x="1220" 
d="M639 1354q70 0 120 20t64 92h172q-11 -149 -107 -221t-251 -74q-234 0 -319 159q-30 56 -35 136h172q23 -112 184 -112zM641 -33q-239 0 -400 144t-161 392q0 247 158 399q158 151 390 151q233 0 374 -150t141 -405v-41q0 -20 -2 -39h-740q8 -82 79 -137q71 -54 165 -56
q145 0 225 107l234 -148q-149 -215 -463 -217zM834 627q0 80 -50 137t-149 57q-98 0 -163 -56q-64 -56 -71 -138h433z" />
    <glyph glyph-name="Edotaccent" unicode="&#x116;" horiz-adv-x="1243" 
d="M819 1739q0 -74 -53 -124t-131 -50t-130 51t-52 123t52 124t130 52t131 -51t53 -125zM150 0v1450h974v-297h-637v-272h603v-281h-603v-301h674v-299h-1011z" />
    <glyph glyph-name="edotaccent" unicode="&#x117;" horiz-adv-x="1220" 
d="M821 1346q0 -74 -53 -124t-131 -50t-130 50q-52 52 -52 124t52 124t130 52t131 -51t53 -125zM641 -33q-239 0 -400 144t-161 392q0 247 158 399q158 151 390 151q233 0 374 -150t141 -405v-41q0 -20 -2 -39h-740q8 -82 79 -137q71 -54 165 -56q145 0 225 107l234 -148
q-149 -215 -463 -217zM834 627q0 80 -50 137t-149 57q-98 0 -163 -56q-64 -56 -71 -138h433z" />
    <glyph glyph-name="Eogonek" unicode="&#x118;" horiz-adv-x="1243" 
d="M150 0v1450h974v-297h-637v-272h603v-281h-603v-301h674v-299h-35q-184 -144 -184 -242q0 -33 22 -53t66 -20t100 41l66 -127q-113 -84 -235 -82q-153 0 -213 105q-59 105 50 247q55 71 140 131h-788z" />
    <glyph glyph-name="eogonek" unicode="&#x119;" horiz-adv-x="1220" 
d="M834 627q0 80 -50 137t-149 57q-98 0 -163 -56q-64 -56 -71 -138h433zM422 -297q0 127 168 266q-222 13 -366 157t-144 384t158 392q158 151 390 151q233 0 374 -150t141 -405v-41q0 -20 -2 -39h-740q8 -82 79 -137q71 -54 165 -56q145 0 225 107l234 -148
q-104 -156 -305 -198q-164 -138 -164 -228q-1 -33 21 -53t66 -20t101 41l66 -127q-113 -84 -236 -82q-150 0 -211 101q-20 36 -20 85z" />
    <glyph glyph-name="Ecaron" unicode="&#x11a;" horiz-adv-x="1243" 
d="M788 1565h-301l-254 295h267l139 -166l139 166h262zM150 0v1450h974v-297h-637v-272h603v-281h-603v-301h674v-299h-1011z" />
    <glyph glyph-name="ecaron" unicode="&#x11b;" horiz-adv-x="1220" 
d="M791 1171h-302l-253 295h266l139 -166l139 166h262zM641 -33q-239 0 -400 144t-161 392q0 247 158 399q158 151 390 151q233 0 374 -150t141 -405v-41q0 -20 -2 -39h-740q8 -82 79 -137q71 -54 165 -56q145 0 225 107l234 -148q-149 -215 -463 -217zM834 627
q0 80 -50 137t-149 57q-98 0 -163 -56q-64 -56 -71 -138h433z" />
    <glyph glyph-name="Gcircumflex" unicode="&#x11c;" horiz-adv-x="1574" 
d="M1022 1565l-139 166l-140 -166h-262l254 295h303l250 -295h-266zM1438 88q-241 -125 -576 -125t-557 212q-223 212 -223 554t224 551t562 209q172 0 320 -52t239 -141l-221 -252q-51 60 -135 98t-183 38q-189 0 -313 -128q-122 -128 -121 -330q1 -201 117 -326
q116 -126 326 -126q127 0 219 39v264h-276v283h598v-768z" />
    <glyph glyph-name="gcircumflex" unicode="&#x11d;" horiz-adv-x="1347" 
d="M793 1171l-140 166l-139 -166h-262l254 295h303l250 -295h-266zM893 516q0 110 -69 184t-180 74q-110 0 -174 -74t-64 -182q0 -109 66 -186q66 -76 174 -76q109 0 178 76q69 75 69 184zM877 125q-104 -135 -319 -135t-346 152q-132 152 -132 372t132 378q132 157 353 157
q97 0 185 -39t141 -121h4v131h317v-924q0 -291 -159 -439q-159 -149 -441 -149q-135 0 -277 41t-247 119l168 240q145 -129 338 -129q147 0 218 78t71 206v62h-6z" />
    <glyph glyph-name="Gbreve" unicode="&#x11e;" horiz-adv-x="1574" 
d="M891 1565q-234 0 -319 158q-30 56 -35 137h172q21 -113 184 -113q70 0 120 20t64 93h172q-11 -150 -108 -222q-96 -73 -250 -73zM1438 88q-241 -125 -576 -125t-557 212q-223 212 -223 554t224 551t562 209q172 0 320 -52t239 -141l-221 -252q-51 60 -135 98t-183 38
q-189 0 -313 -128q-122 -128 -121 -330q1 -201 117 -326q116 -126 326 -126q127 0 219 39v264h-276v283h598v-768z" />
    <glyph glyph-name="gbreve" unicode="&#x11f;" horiz-adv-x="1347" 
d="M481 1466q23 -112 185 -112q70 0 120 20t64 92h172q-11 -150 -107 -221q-96 -72 -251 -74q-234 0 -319 159q-30 56 -36 136h172zM893 516q0 110 -69 184t-180 74q-110 0 -174 -74t-64 -182q0 -109 66 -186q66 -76 174 -76q109 0 178 76q69 75 69 184zM877 125
q-104 -135 -319 -135t-346 152q-132 152 -132 372t132 378q132 157 353 157q97 0 185 -39t141 -121h4v131h317v-924q0 -291 -159 -439q-159 -149 -441 -149q-135 0 -277 41t-247 119l168 240q145 -129 338 -129q147 0 218 78t71 206v62h-6z" />
    <glyph glyph-name="Gdotaccent" unicode="&#x120;" horiz-adv-x="1574" 
d="M1067 1739q0 -74 -53 -124t-131 -50t-130 51t-53 123q0 72 52 124t131 52q78 0 131 -51t53 -125zM1438 88q-241 -125 -576 -125t-557 212q-223 212 -223 554t224 551t562 209q172 0 320 -52t239 -141l-221 -252q-51 60 -135 98t-183 38q-189 0 -313 -128
q-122 -128 -121 -330q1 -201 117 -326q116 -126 326 -126q127 0 219 39v264h-276v283h598v-768z" />
    <glyph glyph-name="gdotaccent" unicode="&#x121;" horiz-adv-x="1347" 
d="M842 1346q0 -74 -54 -124t-131 -50q-78 0 -130 50q-52 52 -52 124t52 124t130 52q77 0 131 -51t54 -125zM893 516q0 110 -69 184t-180 74q-110 0 -174 -74t-64 -182q0 -109 66 -186q66 -76 174 -76q109 0 178 76q69 75 69 184zM877 125q-104 -135 -319 -135t-346 152
q-132 152 -132 372t132 378q132 157 353 157q97 0 185 -39t141 -121h4v131h317v-924q0 -291 -159 -439q-159 -149 -441 -149q-135 0 -277 41t-247 119l168 240q145 -129 338 -129q147 0 218 78t71 206v62h-6z" />
    <glyph glyph-name="Gcommaaccent" unicode="&#x122;" horiz-adv-x="1574" 
d="M860 -492h-258l137 400h297zM1438 88q-241 -125 -576 -125t-557 212q-223 212 -223 554t224 551t562 209q172 0 320 -52t239 -141l-221 -252q-51 60 -135 98t-183 38q-189 0 -313 -128q-122 -128 -121 -330q1 -201 117 -326q116 -126 326 -126q127 0 219 39v264h-276v283
h598v-768z" />
    <glyph glyph-name="gcommaaccent" unicode="&#x123;" horiz-adv-x="1347" 
d="M682 1571h258l-137 -400h-297zM893 516q0 110 -69 184t-180 74q-110 0 -174 -74t-64 -182q0 -109 66 -186q66 -76 174 -76q109 0 178 76q69 75 69 184zM877 125q-104 -135 -319 -135t-346 152q-132 152 -132 372t132 378q132 157 353 157q97 0 185 -39t141 -121h4v131
h317v-924q0 -291 -159 -439q-159 -149 -441 -149q-135 0 -277 41t-247 119l168 240q145 -129 338 -129q147 0 218 78t71 206v62h-6z" />
    <glyph glyph-name="Hcircumflex" unicode="&#x124;" horiz-adv-x="1564" 
d="M926 1565l-140 166l-139 -166h-262l254 295h303l250 -295h-266zM1065 0v606h-565v-606h-350v1450h350v-549h565v549h350v-1450h-350z" />
    <glyph glyph-name="hcircumflex" unicode="&#x125;" horiz-adv-x="1263" 
d="M438 1630l-139 166l-139 -166h-262l254 295h303l250 -295h-267zM803 553q0 215 -150 215q-88 0 -135 -62t-47 -155v-551h-336v1548h336v-657h4q35 61 111 109t181 48q192 1 291 -132q81 -106 83 -285v-631h-338v553z" />
    <glyph glyph-name="Hbar" unicode="&#x126;" horiz-adv-x="1564" 
d="M1065 901v123h-565v-123h565zM1065 0v606h-565v-606h-350v1450h350v-244h565v244h350v-1450h-350z" />
    <glyph glyph-name="hbar" unicode="&#x127;" horiz-adv-x="1263" 
d="M803 553q0 215 -150 215q-88 0 -135 -62t-47 -155v-551h-336v1167h-94v183h94v198h336v-198h305v-183h-305v-276h4q35 61 111 109t181 48q192 1 291 -132q81 -106 83 -285v-631h-338v553z" />
    <glyph glyph-name="Itilde" unicode="&#x128;" horiz-adv-x="651" 
d="M472 1759q42 0 60 24t29 60h146q-21 -183 -136 -248q-98 -55 -262 21q-73 41 -130 41t-85 -82h-147q21 184 128 241q107 58 267 -16q88 -41 130 -41zM150 0v1450h352v-1450h-352z" />
    <glyph glyph-name="itilde" unicode="&#x129;" horiz-adv-x="606" 
d="M61 1426q41 22 107 22t154 -41t130 -41t60 24t29 60h145q-21 -184 -135 -248q-98 -55 -262 21q-69 39 -129 40t-86 -81h-148q21 184 135 244zM135 0v1020h336v-1020h-336z" />
    <glyph glyph-name="Imacron" unicode="&#x12a;" horiz-adv-x="651" 
d="M-20 1624v176h688v-176h-688zM150 0v1450h352v-1450h-352z" />
    <glyph glyph-name="imacron" unicode="&#x12b;" horiz-adv-x="606" 
d="M-37 1231v176h688v-176h-688zM135 0v1020h336v-1020h-336z" />
    <glyph glyph-name="Ibreve" unicode="&#x12c;" horiz-adv-x="651" 
d="M326 1786q70 0 120 20t64 92h172q-11 -150 -108 -222t-250 -72q-234 0 -319 158q-30 56 -36 136h172q23 -112 185 -112zM150 0v1450h352v-1450h-352z" />
    <glyph glyph-name="ibreve" unicode="&#x12d;" horiz-adv-x="606" 
d="M301 1174q-236 0 -318 158q-30 56 -36 136h172q23 -112 184 -112q70 0 120 20t64 92h172q-11 -151 -108 -222q-96 -72 -250 -72zM135 0v1020h336v-1020h-336z" />
    <glyph glyph-name="Iogonek" unicode="&#x12e;" horiz-adv-x="651" 
d="M82 -300q0 117 135 241q37 33 74 59h-141v1450h352v-1450h-23q-184 -144 -184 -242q-1 -33 21 -53t66 -20t101 41l66 -127q-113 -84 -236 -82q-150 0 -211 101q-20 36 -20 82z" />
    <glyph glyph-name="iogonek" unicode="&#x12f;" horiz-adv-x="606" 
d="M496 1346q0 -39 -16 -73q-50 -109 -177 -112q-82 0 -137 54t-55 132t56 129q56 52 138 53q81 1 136 -53t55 -130zM43 -300q0 117 135 241q37 33 74 59h-117v1020h336v-1020h-31q-184 -144 -184 -242q0 -33 22 -53t66 -20t100 41l66 -127q-113 -84 -236 -82
q-150 0 -211 101q-20 36 -20 82z" />
    <glyph glyph-name="Idotaccent" unicode="&#x130;" horiz-adv-x="651" 
d="M510 1739q0 -74 -53 -124t-131 -50t-130 51t-53 123q1 72 53 124t130 52t131 -51t53 -125zM150 0v1450h352v-1450h-352z" />
    <glyph glyph-name="dotlessi" unicode="&#x131;" horiz-adv-x="606" 
d="M135 0v1020h336v-1020h-336z" />
    <glyph glyph-name="Jcircumflex" unicode="&#x134;" horiz-adv-x="1083" 
d="M901 1565l-139 166l-139 -166h-263l254 295h304l249 -295h-266zM942 496q0 -355 -236 -484q-93 -51 -259 -51t-289 95t-164 245l309 105q14 -56 52 -92t94 -35q85 0 113 59t28 156v956h352v-954z" />
    <glyph glyph-name="jcircumflex" unicode="&#x135;" horiz-adv-x="612" 
d="M442 1171l-139 166l-139 -166h-262l254 295h303l250 -295h-267zM18 -205q74 0 99 50t24 128v1047h336v-1047q0 -217 -80 -327q-99 -138 -327 -138q-84 0 -146 17l23 280q30 -10 71 -10z" />
    <glyph glyph-name="Kcommaaccent" unicode="&#x136;" horiz-adv-x="1456" 
d="M731 -492h-258l137 400h297zM494 668v-668h-344v1450h344v-590h6l518 590h438l-625 -668l662 -782h-457l-538 668h-4z" />
    <glyph glyph-name="kcommaaccent" unicode="&#x137;" horiz-adv-x="1218" 
d="M612 -492h-258l138 400h296zM471 489v-489h-338v1548h338v-942h6l326 414h407l-393 -461l410 -559h-416l-334 489h-6z" />
    <glyph glyph-name="Lacute" unicode="&#x139;" horiz-adv-x="1077" 
d="M449 1565h-254l213 295h340zM150 0v1450h352v-1145h561v-305h-913z" />
    <glyph glyph-name="lacute" unicode="&#x13a;" horiz-adv-x="610" 
d="M389 1622h-254l213 295h340zM135 0v1548h340v-1548h-340z" />
    <glyph glyph-name="Lcommaaccent" unicode="&#x13b;" horiz-adv-x="1077" 
d="M573 -492h-258l138 400h297zM150 0v1450h352v-1145h561v-305h-913z" />
    <glyph glyph-name="lcommaaccent" unicode="&#x13c;" horiz-adv-x="610" 
d="M281 -492h-258l137 400h297zM135 0v1548h340v-1548h-340z" />
    <glyph glyph-name="Lcaron" unicode="&#x13d;" horiz-adv-x="1077" 
d="M819 1051h-258l137 399h297zM150 0v1450h352v-1145h561v-305h-913z" />
    <glyph glyph-name="lcaron" unicode="&#x13e;" horiz-adv-x="610" 
d="M793 1051h-258l137 399h297zM135 0v1548h340v-1548h-340z" />
    <glyph glyph-name="Ldot" unicode="&#x13f;" horiz-adv-x="1077" 
d="M1040 711q0 -74 -53 -124t-131 -50t-130 51t-52 123t52 124t130 52t131 -51t53 -125zM150 0v1450h352v-1145h561v-305h-913z" />
    <glyph glyph-name="ldot" unicode="&#x140;" horiz-adv-x="917" 
d="M942 690q0 -74 -53 -124t-131 -50t-130 51t-53 123q1 72 53 124t130 52t131 -51t53 -125zM135 0v1548h340v-1548h-340z" />
    <glyph glyph-name="Lslash" unicode="&#x141;" horiz-adv-x="1077" 
d="M150 0v362l-132 -114v291l132 114v797h352v-537l391 342v-288l-391 -342v-320h561v-305h-913z" />
    <glyph glyph-name="lslash" unicode="&#x142;" horiz-adv-x="610" 
d="M475 0h-340v547l-119 -115v293l119 117v706h340v-444l119 117v-291l-119 -115v-815z" />
    <glyph glyph-name="Nacute" unicode="&#x143;" horiz-adv-x="1617" 
d="M905 1565h-254l213 295h340zM150 0v1450h399l581 -946h7l-9 946h340v-1450h-397l-584 948h-6l8 -948h-339z" />
    <glyph glyph-name="nacute" unicode="&#x144;" horiz-adv-x="1261" 
d="M692 1171h-254l213 295h340zM801 557q0 215 -152 215q-89 0 -134 -63q-46 -63 -46 -156v-553h-338v1020h326v-141h4q61 112 205 155q46 14 124 14t150 -36q195 -100 199 -381v-631h-338v557z" />
    <glyph glyph-name="Ncommaaccent" unicode="&#x145;" horiz-adv-x="1617" 
d="M776 -492h-258l137 400h297zM150 0v1450h399l581 -946h7l-9 946h340v-1450h-397l-584 948h-6l8 -948h-339z" />
    <glyph glyph-name="ncommaaccent" unicode="&#x146;" horiz-adv-x="1261" 
d="M600 -492h-258l137 400h297zM801 557q0 215 -152 215q-89 0 -134 -63q-46 -63 -46 -156v-553h-338v1020h326v-141h4q61 112 205 155q46 14 124 14t150 -36q195 -100 199 -381v-631h-338v557z" />
    <glyph glyph-name="Ncaron" unicode="&#x147;" horiz-adv-x="1617" 
d="M967 1565h-301l-254 295h266l139 -166l139 166h263zM150 0v1450h399l581 -946h7l-9 946h340v-1450h-397l-584 948h-6l8 -948h-339z" />
    <glyph glyph-name="ncaron" unicode="&#x148;" horiz-adv-x="1261" 
d="M786 1171h-301l-254 295h267l139 -166l139 166h262zM801 557q0 215 -152 215q-89 0 -134 -63q-46 -63 -46 -156v-553h-338v1020h326v-141h4q61 112 205 155q46 14 124 14t150 -36q195 -100 199 -381v-631h-338v557z" />
    <glyph glyph-name="Omacron" unicode="&#x14c;" horiz-adv-x="1742" 
d="M522 1624v176h688v-176h-688zM1286 727q0 194 -116 321q-117 126 -298 126t-299 -124t-117 -320t118 -324q117 -127 297 -126q181 1 298 127t117 320zM1661 732q0 -343 -222 -557t-568 -214q-345 0 -565 212q-104 101 -164 243t-60 316q0 345 222 551t566 206
q170 0 316 -53q296 -108 416 -390q60 -140 59 -314z" />
    <glyph glyph-name="omacron" unicode="&#x14d;" horiz-adv-x="1294" 
d="M301 1231v176h688v-176h-688zM889 514q0 105 -68 183q-68 79 -177 78q-110 -1 -174 -77t-64 -184q0 -107 65 -186q65 -80 178 -79t176 81q64 80 64 184zM1046 118q-166 -151 -402 -151t-400 151t-164 396q0 244 163 391q163 148 401 148q239 0 404 -147
q164 -147 164 -392t-166 -396z" />
    <glyph glyph-name="Obreve" unicode="&#x14e;" horiz-adv-x="1742" 
d="M866 1565q-233 0 -318 158q-30 56 -36 137h172q21 -113 184 -113q70 0 120 20t65 93h172q-11 -151 -108 -223t-251 -72zM1286 727q0 194 -116 321q-117 126 -298 126t-299 -124t-117 -320t118 -324q117 -127 297 -126q181 1 298 127t117 320zM1661 732q0 -343 -222 -557
t-568 -214q-345 0 -565 212q-104 101 -164 243t-60 316q0 345 222 551t566 206q170 0 316 -53q296 -108 416 -390q60 -140 59 -314z" />
    <glyph glyph-name="obreve" unicode="&#x14f;" horiz-adv-x="1294" 
d="M643 1354q70 0 120 20t64 92h172q-11 -151 -107 -222t-251 -73q-236 0 -318 159q-30 56 -36 136h172q23 -112 184 -112zM889 514q0 105 -68 183q-68 79 -177 78q-110 -1 -174 -77t-64 -184q0 -107 65 -186q65 -80 178 -79t176 81q64 80 64 184zM1046 118
q-166 -151 -402 -151t-400 151t-164 396q0 244 163 391q163 148 401 148q239 0 404 -147q164 -147 164 -392t-166 -396z" />
    <glyph glyph-name="Ohungarumlaut" unicode="&#x150;" horiz-adv-x="1742" 
d="M756 1565h-254l213 295h340zM1206 1565h-254l213 295h340zM1286 727q0 194 -116 321q-117 126 -298 126t-299 -124t-117 -320t118 -324q117 -127 297 -126q181 1 298 127t117 320zM1661 732q0 -343 -222 -557t-568 -214q-345 0 -565 212q-104 101 -164 243t-60 316
q0 345 222 551t566 206q170 0 316 -53q296 -108 416 -390q60 -140 59 -314z" />
    <glyph glyph-name="ohungarumlaut" unicode="&#x151;" horiz-adv-x="1294" 
d="M547 1171h-254l213 295h340zM997 1171h-254l213 295h340zM889 514q0 105 -68 183q-68 79 -177 78q-110 -1 -174 -77t-64 -184q0 -107 65 -186q65 -80 178 -79t176 81q64 80 64 184zM1046 118q-166 -151 -402 -151t-400 151t-164 396q0 244 163 391q163 148 401 148
q239 0 404 -147q164 -147 164 -392t-166 -396z" />
    <glyph glyph-name="OE" unicode="&#x152;" horiz-adv-x="2086" 
d="M1026 1153h-94q-333 0 -437 -222q-40 -83 -40 -205q0 -221 137 -324t332 -103h102v854zM905 0q-340 0 -565 167q-258 192 -258 561q0 198 71 336q137 267 451 348q147 38 301 38h1065v-297h-610v-272h575v-281h-575v-301h645v-299h-1100z" />
    <glyph glyph-name="oe" unicode="&#x153;" horiz-adv-x="1992" 
d="M646 -33q-243 0 -404 151q-162 151 -162 395t163 392t398 148q125 -1 225 -51t158 -128q62 76 160 127t216 51t211 -37q191 -78 266 -284q38 -102 38 -233v-41q0 -20 -2 -39h-739q18 -132 156 -178q42 -14 87 -15q145 0 225 107l232 -148q-149 -215 -461 -217
q-129 0 -231 47t-160 123q-58 -78 -156 -124t-220 -46zM1606 627q0 80 -50 137t-149 57q-98 0 -164 -57q-65 -57 -69 -137h432zM470 327q64 -79 176 -78t176 78q63 77 64 184t-65 186t-177 78t-175 -79q-63 -78 -63 -184t64 -185z" />
    <glyph glyph-name="Racute" unicode="&#x154;" horiz-adv-x="1357" 
d="M717 1565h-254l213 295h340zM657 829q254 0 254 177q0 161 -233 161h-186v-338h165zM494 575v-575h-344v1450h552q380 0 508 -229q47 -84 47 -220t-79 -237q-80 -100 -222 -143l379 -621h-409l-314 575h-118z" />
    <glyph glyph-name="racute" unicode="&#x155;" horiz-adv-x="811" 
d="M473 1171h-254l213 295h340zM695 756q-107 0 -167 -74q-61 -74 -61 -158v-524h-336v1020h324v-148h4q39 78 110 127q72 49 143 49t95 -8l-14 -295q-42 11 -98 11z" />
    <glyph glyph-name="Rcommaaccent" unicode="&#x156;" horiz-adv-x="1357" 
d="M670 -492h-258l137 400h297zM657 829q254 0 254 177q0 161 -233 161h-186v-338h165zM494 575v-575h-344v1450h552q380 0 508 -229q47 -84 47 -220t-79 -237q-80 -100 -222 -143l379 -621h-409l-314 575h-118z" />
    <glyph glyph-name="rcommaaccent" unicode="&#x157;" horiz-adv-x="811" 
d="M283 -494h-258l137 400h297zM695 756q-107 0 -167 -74q-61 -74 -61 -158v-524h-336v1020h324v-148h4q39 78 110 127q72 49 143 49t95 -8l-14 -295q-42 11 -98 11z" />
    <glyph glyph-name="Rcaron" unicode="&#x158;" horiz-adv-x="1357" 
d="M807 1565h-301l-254 295h266l139 -166l140 166h262zM657 829q254 0 254 177q0 161 -233 161h-186v-338h165zM494 575v-575h-344v1450h552q380 0 508 -229q47 -84 47 -220t-79 -237q-80 -100 -222 -143l379 -621h-409l-314 575h-118z" />
    <glyph glyph-name="rcaron" unicode="&#x159;" horiz-adv-x="811" 
d="M618 1171h-301l-254 295h267l139 -166l139 166h262zM695 756q-107 0 -167 -74q-61 -74 -61 -158v-524h-336v1020h324v-148h4q39 78 110 127q72 49 143 49t95 -8l-14 -295q-42 11 -98 11z" />
    <glyph glyph-name="Sacute" unicode="&#x15a;" horiz-adv-x="1210" 
d="M698 1565h-254l213 295h340zM798 1164q-72 34 -150 34q-77 0 -116 -24q-77 -47 -77 -118q0 -72 54 -105t149 -63q94 -30 174 -60q296 -112 296 -390q0 -229 -162 -352t-393 -123q-156 0 -301 54t-241 155l229 234q53 -66 140 -110q88 -44 150 -44q224 0 224 158
q0 74 -79 121q-45 28 -169 68t-190 71q-234 109 -234 362q0 225 179 348q156 107 383 107q122 0 250 -45t225 -133l-224 -236q-45 57 -117 91z" />
    <glyph glyph-name="sacute" unicode="&#x15b;" horiz-adv-x="966" 
d="M569 1171h-254l213 295h340zM518 811q-47 0 -87 -18q-40 -19 -40 -63t44 -62t122 -36q157 -35 252 -108q94 -74 94 -209q0 -177 -140 -270q-114 -76 -268 -77q-311 -2 -472 157l188 199q45 -49 111 -82t123 -33q137 0 137 88q0 47 -50 70t-128 41t-132 38
q-113 42 -163 142q-27 51 -27 133q0 83 39 147t100 105q116 78 258 79q285 2 436 -143l-184 -190q-97 92 -213 92z" />
    <glyph glyph-name="Scircumflex" unicode="&#x15c;" horiz-adv-x="1210" 
d="M795 1565l-140 166l-139 -166h-262l254 295h303l250 -295h-266zM798 1164q-72 34 -150 34q-77 0 -116 -24q-77 -47 -77 -118q0 -72 54 -105t149 -63q94 -30 174 -60q296 -112 296 -390q0 -229 -162 -352t-393 -123q-156 0 -301 54t-241 155l229 234q53 -66 140 -110
q88 -44 150 -44q224 0 224 158q0 74 -79 121q-45 28 -169 68t-190 71q-234 109 -234 362q0 225 179 348q156 107 383 107q122 0 250 -45t225 -133l-224 -236q-45 57 -117 91z" />
    <glyph glyph-name="scircumflex" unicode="&#x15d;" horiz-adv-x="966" 
d="M645 1171l-139 166l-139 -166h-263l254 295h304l249 -295h-266zM518 811q-47 0 -87 -18q-40 -19 -40 -63t44 -62t122 -36q157 -35 252 -108q94 -74 94 -209q0 -177 -140 -270q-114 -76 -268 -77q-311 -2 -472 157l188 199q45 -49 111 -82t123 -33q137 0 137 88
q0 47 -50 70t-128 41t-132 38q-113 42 -163 142q-27 51 -27 133q0 83 39 147t100 105q116 78 258 79q285 2 436 -143l-184 -190q-97 92 -213 92z" />
    <glyph glyph-name="Scedilla" unicode="&#x15e;" horiz-adv-x="1210" 
d="M550 252q224 0 224 158q0 74 -79 121q-45 28 -169 68t-190 71q-234 109 -234 362q0 225 179 348q156 107 383 107q122 0 250 -45t225 -133l-224 -236q-45 57 -117 91t-150 34q-77 0 -116 -24q-77 -47 -77 -118q0 -72 54 -105t149 -63q94 -30 174 -60q177 -67 253 -200
q43 -73 43 -183q0 -207 -125 -328q-125 -120 -325 -146l-72 -94q10 2 19 2h18q92 1 132 -25q79 -50 79 -151q0 -100 -102 -154q-75 -38 -169 -40q-166 -2 -274 51l56 123q84 -39 179 -39t95 67q0 57 -96 60q-49 0 -82 -13l-64 60l111 147q-139 11 -265 63t-212 144l229 234
q53 -66 140 -110q88 -44 150 -44z" />
    <glyph glyph-name="scedilla" unicode="&#x15f;" horiz-adv-x="966" 
d="M532 -121q211 0 211 -170q0 -108 -102 -160q-75 -39 -169 -40q-167 -2 -273 51l55 123q84 -39 180 -39t94 67q0 37 -32 48q-77 26 -146 -1l-63 60l114 153q-244 22 -378 154l188 199q45 -49 111 -82t123 -33q137 0 137 88q0 47 -50 70t-128 41t-132 38q-113 42 -163 142
q-27 51 -27 133q0 157 139 253q114 79 257 80q284 2 437 -145l-184 -190q-97 92 -213 92q-47 0 -87 -18q-40 -19 -40 -63t44 -62t122 -36q157 -35 252 -108q94 -74 94 -209q0 -221 -207 -307q-59 -25 -125 -33l-75 -98q10 2 18 2h18z" />
    <glyph glyph-name="Scaron" unicode="&#x160;" horiz-adv-x="1210" 
d="M813 1565h-301l-254 295h266l140 -166l139 166h262zM798 1164q-72 34 -150 34q-77 0 -116 -24q-77 -47 -77 -118q0 -72 54 -105t149 -63q94 -30 174 -60q296 -112 296 -390q0 -229 -162 -352t-393 -123q-156 0 -301 54t-241 155l229 234q53 -66 140 -110q88 -44 150 -44
q224 0 224 158q0 74 -79 121q-45 28 -169 68t-190 71q-234 109 -234 362q0 225 179 348q156 107 383 107q122 0 250 -45t225 -133l-224 -236q-45 57 -117 91z" />
    <glyph glyph-name="scaron" unicode="&#x161;" horiz-adv-x="966" 
d="M657 1171h-301l-254 295h267l139 -166l139 166h262zM518 811q-47 0 -87 -18q-40 -19 -40 -63t44 -62t122 -36q157 -35 252 -108q94 -74 94 -209q0 -177 -140 -270q-114 -76 -268 -77q-311 -2 -472 157l188 199q45 -49 111 -82t123 -33q137 0 137 88q0 47 -50 70t-128 41
t-132 38q-113 42 -163 142q-27 51 -27 133q0 83 39 147t100 105q116 78 258 79q285 2 436 -143l-184 -190q-97 92 -213 92z" />
    <glyph glyph-name="Tcommaaccent" unicode="&#x162;" horiz-adv-x="1189" 
d="M420 0v1151h-410v299h1170v-299h-410v-1151h-76l-96 -123q10 2 18 2h19q92 1 132 -25q79 -50 79 -152q0 -101 -103 -153q-75 -38 -168 -40q-166 -2 -274 51l55 123q84 -39 180 -39q95 0 95 67q0 57 -96 60q-49 0 -82 -13l-64 60l137 182h-106z" />
    <glyph glyph-name="tcommaaccent" unicode="&#x163;" horiz-adv-x="761" 
d="M496 379q0 -72 28 -108q28 -35 94 -35q67 0 103 16l4 -246q-51 -18 -123 -26l-80 -103q10 2 19 2h18q92 1 132 -25q79 -50 79 -151q0 -100 -102 -154q-75 -38 -169 -40q-166 -2 -274 51l56 123q84 -39 179 -39t95 67q0 57 -96 60q-49 0 -82 -13l-64 60l123 164
q-210 34 -254 224q-14 60 -14 132v430h-164v252h162v268h330v-268h239v-252h-239v-389z" />
    <glyph glyph-name="Tcaron" unicode="&#x164;" horiz-adv-x="1189" 
d="M748 1565h-302l-253 295h266l139 -166l139 166h262zM770 1151v-1151h-350v1151h-410v299h1170v-299h-410z" />
    <glyph glyph-name="tcaron" unicode="&#x165;" horiz-adv-x="761" 
d="M811 1098h-258l137 399h297zM168 338v430h-164v252h162v268h330v-268h239v-252h-239v-389q0 -72 28 -108q28 -35 94 -35q67 0 103 16l4 -246q-84 -29 -191 -30q-286 -3 -348 213q-18 67 -18 149z" />
    <glyph glyph-name="Tbar" unicode="&#x166;" horiz-adv-x="1189" 
d="M770 1151v-174h279v-182h-279v-795h-350v795h-268v182h268v174h-410v299h1170v-299h-410z" />
    <glyph glyph-name="tbar" unicode="&#x167;" horiz-adv-x="761" 
d="M168 338v102h-145v183h145v145h-164v252h162v268h330v-268h239v-252h-239v-145h198v-183h-198v-61q0 -72 28 -108q28 -35 94 -35q67 0 103 16l4 -246q-84 -29 -191 -30q-286 -3 -348 213q-18 67 -18 149z" />
    <glyph glyph-name="Utilde" unicode="&#x168;" horiz-adv-x="1511" 
d="M532 1575h-147q21 182 128 241q107 58 267 -16q88 -41 130 -41t61 24q18 24 28 60h146q-21 -182 -128 -243t-269 16q-73 41 -130 41q-58 0 -86 -82zM1378 547q0 -265 -172 -426q-172 -160 -454 -160t-449 161q-168 161 -168 425v903h348v-875q0 -124 67 -212
q67 -87 205 -87q139 0 206 85t67 214v875h350v-903z" />
    <glyph glyph-name="utilde" unicode="&#x169;" horiz-adv-x="1257" 
d="M381 1426q41 22 106 22t154 -41q88 -41 130 -41t60 24t29 60h146q-21 -183 -136 -248q-98 -55 -262 21q-69 39 -128 40t-87 -81h-147q21 186 135 244zM803 0v141h-4q-57 -112 -206 -155q-47 -14 -125 -14t-150 36q-198 102 -197 381v631h338v-553q0 -157 76 -200
q29 -17 75 -17q88 0 134 66t47 153v551h335v-1020h-323z" />
    <glyph glyph-name="Umacron" unicode="&#x16a;" horiz-adv-x="1511" 
d="M422 1624v176h688v-176h-688zM1378 547q0 -265 -172 -426q-172 -160 -454 -160t-449 161q-168 161 -168 425v903h348v-875q0 -124 67 -212q67 -87 205 -87q139 0 206 85t67 214v875h350v-903z" />
    <glyph glyph-name="umacron" unicode="&#x16b;" horiz-adv-x="1257" 
d="M279 1231v176h688v-176h-688zM803 0v141h-4q-57 -112 -206 -155q-47 -14 -125 -14t-150 36q-198 102 -197 381v631h338v-553q0 -157 76 -200q29 -17 75 -17q88 0 134 66t47 153v551h335v-1020h-323z" />
    <glyph glyph-name="Ubreve" unicode="&#x16c;" horiz-adv-x="1511" 
d="M756 1565q-234 0 -319 158q-30 56 -36 137h172q21 -113 185 -113q70 0 120 20t64 93h172q-11 -151 -108 -223t-250 -72zM1378 547q0 -265 -172 -426q-172 -160 -454 -160t-449 161q-168 161 -168 425v903h348v-875q0 -124 67 -212q67 -87 205 -87q139 0 206 85t67 214
v875h350v-903z" />
    <glyph glyph-name="ubreve" unicode="&#x16d;" horiz-adv-x="1257" 
d="M625 1354q69 0 119 20t65 92h172q-11 -150 -107 -221q-96 -72 -251 -74q-234 0 -319 159q-30 56 -36 136h172q23 -112 185 -112zM803 0v141h-4q-57 -112 -206 -155q-47 -14 -125 -14t-150 36q-198 102 -197 381v631h338v-553q0 -157 76 -200q29 -17 75 -17q88 0 134 66
t47 153v551h335v-1020h-323z" />
    <glyph glyph-name="Uring" unicode="&#x16e;" horiz-adv-x="1511" 
d="M887 1753q0 51 -35 85t-87 34t-86 -35t-34 -85t35 -84t86 -34t86 34t35 85zM924 1595q-65 -61 -158 -61t-158 61t-65 156q0 96 64 159q65 62 159 62t158 -62q65 -62 65 -159q0 -95 -65 -156zM1378 547q0 -265 -172 -426q-172 -160 -454 -160t-449 161q-168 161 -168 425
v903h348v-875q0 -124 67 -212q67 -87 205 -87q139 0 206 85t67 214v875h350v-903z" />
    <glyph glyph-name="uring" unicode="&#x16f;" horiz-adv-x="1257" 
d="M745 1360q0 51 -34 85q-35 34 -87 34t-86 -35t-34 -85t35 -84t86 -34t86 34q34 34 34 85zM848 1360q0 -47 -18 -88q-35 -81 -119 -115q-41 -16 -87 -16q-92 0 -156 60q-65 60 -66 157q-1 96 64 158q66 62 160 63q94 0 158 -63t64 -156zM803 0v141h-4q-57 -112 -206 -155
q-47 -14 -125 -14t-150 36q-198 102 -197 381v631h338v-553q0 -157 76 -200q29 -17 75 -17q88 0 134 66t47 153v551h335v-1020h-323z" />
    <glyph glyph-name="Uhungarumlaut" unicode="&#x170;" horiz-adv-x="1511" 
d="M655 1565h-254l213 295h340zM1106 1565h-254l213 295h340zM1378 547q0 -265 -172 -426q-172 -160 -454 -160t-449 161q-168 161 -168 425v903h348v-875q0 -124 67 -212q67 -87 205 -87q139 0 206 85t67 214v875h350v-903z" />
    <glyph glyph-name="uhungarumlaut" unicode="&#x171;" horiz-adv-x="1257" 
d="M524 1171h-254l213 295h340zM975 1171h-254l213 295h340zM803 0v141h-4q-57 -112 -206 -155q-47 -14 -125 -14t-150 36q-198 102 -197 381v631h338v-553q0 -157 76 -200q29 -17 75 -17q88 0 134 66t47 153v551h335v-1020h-323z" />
    <glyph glyph-name="Uogonek" unicode="&#x172;" horiz-adv-x="1511" 
d="M135 547v903h348v-875q0 -124 67 -212q67 -87 205 -87q139 0 206 85t67 214v875h350v-903q0 -226 -131 -381q-131 -156 -362 -195q-150 -131 -150 -213q0 -33 22 -53t65 -20t102 41l65 -127q-113 -84 -235 -82q-153 0 -211 101q-20 36 -21 85q0 126 164 262
q-251 19 -401 177q-150 157 -150 405z" />
    <glyph glyph-name="uogonek" unicode="&#x173;" horiz-adv-x="1257" 
d="M594 -300q0 117 135 241q37 33 74 59v141h-4q-57 -112 -206 -155q-47 -14 -125 -14t-150 36q-198 102 -197 381v631h338v-553q0 -157 76 -200q29 -17 75 -17q88 0 134 66t47 153v551h335v-1020h-135q-184 -144 -184 -242q-1 -33 21 -53t66 -20t101 41l66 -127
q-113 -84 -236 -82q-150 0 -211 101q-20 36 -20 82z" />
    <glyph glyph-name="Wcircumflex" unicode="&#x174;" horiz-adv-x="2099" 
d="M1192 1565l-139 166l-140 -166h-262l254 295h303l250 -295h-266zM1686 0h-347l-286 981h-6l-287 -981h-348l-412 1450h377l229 -965h6l258 965h365l260 -965h6l234 965h364z" />
    <glyph glyph-name="wcircumflex" unicode="&#x175;" horiz-adv-x="1783" 
d="M1034 1171l-139 166l-139 -166h-262l254 295h303l249 -295h-266zM1430 0h-338l-201 635h-4l-197 -635h-338l-352 1020h362l177 -645h6l182 645h338l188 -645h4l179 645h348z" />
    <glyph glyph-name="Ycircumflex" unicode="&#x176;" horiz-adv-x="1370" 
d="M829 1565l-139 166l-139 -166h-262l254 295h303l250 -295h-267zM854 0h-350v614l-545 836h424l309 -537l309 537h410l-557 -836v-614z" />
    <glyph glyph-name="ycircumflex" unicode="&#x177;" horiz-adv-x="1161" 
d="M735 1171l-139 166l-139 -166h-262l254 295h303l249 -295h-266zM234 -205q63 0 98 36t59 101l33 84l-426 1004h373l227 -655h6l203 655h356l-456 -1174q-65 -169 -165 -253q-100 -85 -284 -85q-99 0 -184 23l37 283q60 -19 123 -19z" />
    <glyph glyph-name="Ydieresis" unicode="&#x178;" horiz-adv-x="1370" 
d="M641 1740q0 -71 -50 -119t-122 -48t-121 49t-49 116t47 117q47 49 121 51q74 1 124 -47t50 -119zM1085 1740q0 -71 -50 -119t-121 -48q-72 0 -120 49t-48 116t47 117q48 50 120 51t122 -47t50 -119zM854 0h-350v614l-545 836h424l309 -537l309 537h410l-557 -836v-614z
" />
    <glyph glyph-name="Zacute" unicode="&#x179;" horiz-adv-x="1300" 
d="M760 1565h-254l213 295h340zM80 0v303l690 850h-674v297h1112v-281l-706 -866h721v-303h-1143z" />
    <glyph glyph-name="zacute" unicode="&#x17a;" horiz-adv-x="1048" 
d="M608 1171h-254l213 295h340zM70 0v262l479 500h-461v258h870v-252l-493 -508h514v-260h-909z" />
    <glyph glyph-name="Zdotaccent" unicode="&#x17b;" horiz-adv-x="1300" 
d="M856 1739q0 -74 -53 -124t-131 -50t-130 51t-53 123q1 72 53 124t130 52t131 -51t53 -125zM80 0v303l690 850h-674v297h1112v-281l-706 -866h721v-303h-1143z" />
    <glyph glyph-name="zdotaccent" unicode="&#x17c;" horiz-adv-x="1048" 
d="M715 1346q0 -74 -53 -124q-54 -50 -132 -50t-130 50q-52 52 -52 124t52 124t130 52t132 -51t53 -125zM70 0v262l479 500h-461v258h870v-252l-493 -508h514v-260h-909z" />
    <glyph glyph-name="Zcaron" unicode="&#x17d;" horiz-adv-x="1300" 
d="M805 1565h-301l-254 295h266l139 -166l140 166h262zM80 0v303l690 850h-674v297h1112v-281l-706 -866h721v-303h-1143z" />
    <glyph glyph-name="zcaron" unicode="&#x17e;" horiz-adv-x="1048" 
d="M688 1171h-301l-254 295h266l140 -166l139 166h262zM70 0v262l479 500h-461v258h870v-252l-493 -508h514v-260h-909z" />
    <glyph glyph-name="florin" unicode="&#x192;" horiz-adv-x="1323" 
d="M225 -14q59 0 89 50t46 132l101 494h-234v231h275l33 160q39 196 117 295q108 133 309 133q163 0 280 -70l-123 -248q-61 37 -125 37q-63 0 -95 -50t-46 -124l-29 -133h258v-231h-303l-112 -562q-36 -186 -136 -285t-264 -99t-270 57l119 245q50 -32 110 -32z" />
    <glyph glyph-name="Ohorn" unicode="&#x1a0;" horiz-adv-x="1751" 
d="M457 729q1 -96 31 -179q61 -165 214 -236q76 -34 168 -34q183 1 300 128q116 126 116 319q0 194 -116 321q-117 126 -298 126t-301 -126q-114 -120 -114 -319zM1661 731q0 -342 -222 -556t-568 -214q-345 0 -565 212q-104 101 -164 243t-60 316q0 345 222 551t566 206
q173 0 306 -50q53 -19 95 -35q43 -16 107 -15q135 0 133 151q0 76 -36 129l254 62q39 -76 38 -187q0 -294 -280 -315q174 -204 174 -498z" />
    <glyph glyph-name="ohorn" unicode="&#x1a1;" horiz-adv-x="1314" 
d="M471 328q65 -80 178 -79t175 79q63 78 64 184t-66 184t-177 78q-112 0 -179 -81q-60 -72 -60 -179q0 -106 65 -186zM1378 1151q0 -288 -268 -313q104 -146 102 -324q0 -245 -166 -396t-402 -151t-400 151t-164 396q0 244 164 392q164 149 401 149q111 1 173 -21t92 -32
t61 -9q81 0 115 39t34 117t-35 127l254 61q39 -84 39 -186z" />
    <glyph glyph-name="Uhorn" unicode="&#x1af;" horiz-adv-x="1531" 
d="M1411 1605q0 75 -37 130l254 59q39 -76 39 -186q0 -160 -79 -234t-210 -82v-745q0 -265 -172 -426q-172 -160 -454 -160t-449 161q-168 161 -168 425v903h348v-875q0 -124 67 -212q67 -87 205 -87q139 0 206 85t67 214v875h217q92 0 129 40t37 115z" />
    <glyph glyph-name="uhorn" unicode="&#x1b0;" horiz-adv-x="1298" 
d="M1151 1175q0 75 -37 130l256 61q37 -78 37 -186q0 -160 -77 -234t-204 -82v-864h-323v141h-4q-57 -112 -206 -155q-47 -14 -125 -14t-150 36q-198 102 -197 381v631h338v-553q0 -157 76 -200q29 -17 75 -17q88 0 134 66t47 153v551h202q86 0 122 40t36 115z" />
    <glyph glyph-name="clickdental" unicode="&#x1c0;" horiz-adv-x="493" 
d="M381 1536v-2048h-266l-2 2048h268z" />
    <glyph glyph-name="clicklateral" unicode="&#x1c1;" horiz-adv-x="987" 
d="M874 1536v-2048h-266l-2 2048h268zM381 1536v-2048h-266l-2 2048h268z" />
    <glyph glyph-name="clickretroflex" unicode="&#x1c3;" horiz-adv-x="731" 
d="M565 173q0 -85 -59 -139t-141 -54q-128 0 -183 116q-16 35 -16 75q0 83 56 139q56 55 143 57q41 0 77 -16q78 -33 108 -103q15 -36 15 -75zM193 485v965h344v-965h-344z" />
    <glyph glyph-name="DZcaron" unicode="&#x1c4;" horiz-adv-x="3500" 
d="M2408 1604h-301l-254 294h267l139 -165l139 165h262zM1665 0v303l690 850h-674v297h1112v-281l-706 -866h721v-303h-1143zM992 395q147 108 147 335t-147 332q-121 87 -326 89h-174v-848h165q209 0 335 92zM1503 736q0 -366 -257 -563q-225 -173 -556 -173h-540v1450h524
q154 0 303 -36q319 -76 455 -341q72 -139 71 -337z" />
    <glyph glyph-name="Dzcaron" unicode="&#x1c5;" horiz-adv-x="3248" 
d="M2281 1174h-301l-254 294h267l139 -165l139 165h262zM1655 0v262l479 500h-461v258h871v-252l-494 -508h514v-260h-909zM992 395q147 108 147 335t-147 332q-121 87 -326 89h-174v-848h165q209 0 335 92zM1503 736q0 -366 -257 -563q-225 -173 -556 -173h-540v1450h524
q154 0 303 -36q319 -76 455 -341q72 -139 71 -337z" />
    <glyph glyph-name="dzcaron" unicode="&#x1c6;" horiz-adv-x="3010" 
d="M2044 1174h-301l-254 294h266l139 -165l140 165h262zM1417 0v262l479 500h-460v258h870v-252l-494 -508h515v-260h-910zM891 512q0 103 -70 183q-70 81 -178 80t-173 -76t-66 -184t65 -188t176 -78t178 81q68 79 68 182zM903 0v133h-4q-49 -78 -140 -120t-200 -42
t-199 45t-152 120q-128 155 -128 376q0 222 132 379q132 158 349 158q113 0 191 -43t120 -95h5v637h335v-1548h-309z" />
    <glyph glyph-name="LJ" unicode="&#x1c7;" horiz-adv-x="2160" 
d="M2019 496q0 -355 -236 -484q-93 -51 -259 -51t-289 95t-164 245l309 105q14 -56 52 -92t94 -35q86 0 114 59t27 156v956h352v-954zM150 0v1450h352v-1145h561v-305h-913z" />
    <glyph glyph-name="Lj" unicode="&#x1c8;" horiz-adv-x="1689" 
d="M1096 -205q74 0 98 50t25 128v1047h335v-1047q0 -216 -79 -327q-99 -138 -328 -138q-84 0 -146 17l23 280q30 -10 72 -10zM1579 1346q0 -39 -15 -73q-48 -109 -178 -112q-82 0 -137 54t-55 132t56 129q56 52 137 53t136 -52q56 -54 56 -131zM150 0v1450h352v-1145h561
v-305h-913z" />
    <glyph glyph-name="lj" unicode="&#x1c9;" horiz-adv-x="1222" 
d="M629 -205q75 0 99 50t24 128v1047h335v-1047q0 -216 -79 -327q-99 -138 -328 -138q-85 0 -145 17l22 280q30 -10 72 -10zM1112 1346q0 -39 -15 -73q-31 -71 -103 -97q-36 -14 -74 -15q-82 0 -138 54q-55 54 -55 132t56 129q56 52 137 53t136 -52q56 -54 56 -131zM135 0
v1548h340v-1548h-340z" />
    <glyph glyph-name="NJ" unicode="&#x1ca;" horiz-adv-x="2701" 
d="M2560 496q0 -355 -237 -484q-93 -51 -259 -51t-288 95q-123 95 -164 245l309 105q14 -56 52 -92t93 -35q86 0 114 59t28 156v956h352v-954zM150 0v1450h399l581 -946h7l-9 946h340v-1450h-397l-584 948h-6l8 -948h-339z" />
    <glyph glyph-name="Nj" unicode="&#x1cb;" horiz-adv-x="2230" 
d="M1636 -205q74 0 99 50t24 128v1047h336v-1047q0 -217 -80 -327q-99 -138 -327 -138q-84 0 -146 17l23 280q30 -10 71 -10zM2120 1346q0 -39 -16 -73q-50 -109 -177 -112q-82 0 -137 54t-55 132t56 129q56 52 138 53q81 1 136 -53t55 -130zM150 0v1450h399l581 -946h7
l-9 946h340v-1450h-397l-584 948h-6l8 -948h-339z" />
    <glyph glyph-name="nj" unicode="&#x1cc;" horiz-adv-x="1873" 
d="M1280 -205q74 0 98 50t25 128v1047h336v-1047q0 -215 -80 -327q-99 -138 -328 -138q-85 0 -145 17l22 280q30 -10 72 -10zM1763 1346q0 -39 -15 -73q-48 -109 -177 -112q-82 0 -137 54q-56 54 -56 131t57 130q57 52 138 53t135 -52q54 -54 55 -131zM801 557
q0 215 -152 215q-89 0 -134 -63q-46 -63 -46 -156v-553h-338v1020h326v-141h4q61 112 205 155q46 14 124 14t150 -36q195 -100 199 -381v-631h-338v557z" />
    <glyph glyph-name="Acaron" unicode="&#x1cd;" horiz-adv-x="1492" 
d="M897 1604h-301l-254 294h266l140 -165l139 165h262zM743 1063l-184 -498h365zM1133 0l-113 285h-561l-107 -285h-381l609 1450h340l602 -1450h-389z" />
    <glyph glyph-name="acaron" unicode="&#x1ce;" 
d="M705 1206h-302l-253 295h266l139 -166l139 166h262zM68 295q0 344 655 344v16q0 76 -53 112t-128 36t-142 -31t-113 -74l-170 183q90 86 210 129q121 43 247 43q252 0 360 -130q108 -132 106 -409v-514h-307v109h-6q-39 -63 -118 -99t-155 -35q-160 0 -263 70
q-125 86 -123 250zM733 444h-43q-313 0 -313 -139q0 -53 42 -78q42 -26 103 -26q102 0 157 56q54 56 54 153v34z" />
    <glyph glyph-name="Icaron" unicode="&#x1cf;" horiz-adv-x="651" 
d="M477 1604h-301l-254 294h266l140 -165l139 165h262zM150 0v1450h352v-1450h-352z" />
    <glyph glyph-name="icaron" unicode="&#x1d0;" horiz-adv-x="606" 
d="M455 1174h-301l-254 294h266l139 -165l139 165h263zM135 0v1020h336v-1020h-336z" />
    <glyph glyph-name="Ocaron" unicode="&#x1d1;" horiz-adv-x="1742" 
d="M1022 1642h-301l-254 295h266l139 -165l140 165h262zM1286 727q0 194 -116 321q-117 126 -298 126t-299 -124t-117 -320t118 -324q117 -127 297 -126q181 1 298 127t117 320zM1661 732q0 -343 -222 -557t-568 -214q-345 0 -565 212q-104 101 -164 243t-60 316
q0 345 222 551t566 206q170 0 316 -53q296 -108 416 -390q60 -140 59 -314z" />
    <glyph glyph-name="ocaron" unicode="&#x1d2;" horiz-adv-x="1294" 
d="M797 1206h-301l-254 295h266l139 -166l139 166h263zM889 514q0 105 -68 183q-68 79 -177 78q-110 -1 -174 -77t-64 -184q0 -107 65 -186q65 -80 178 -79t176 81q64 80 64 184zM1046 118q-166 -151 -402 -151t-400 151t-164 396q0 244 163 391q163 148 401 148
q239 0 404 -147q164 -147 164 -392t-166 -396z" />
    <glyph glyph-name="Ucaron" unicode="&#x1d3;" horiz-adv-x="1511" 
d="M907 1604h-301l-254 294h266l140 -165l139 165h262zM1378 547q0 -265 -172 -426q-172 -160 -454 -160t-449 161q-168 161 -168 425v903h348v-875q0 -124 67 -212q67 -87 205 -87q139 0 206 85t67 214v875h350v-903z" />
    <glyph glyph-name="ucaron" unicode="&#x1d4;" horiz-adv-x="1257" 
d="M774 1174h-301l-254 294h266l140 -165l139 165h262zM803 0v141h-4q-57 -112 -206 -155q-47 -14 -125 -14t-150 36q-198 102 -197 381v631h338v-553q0 -157 76 -200q29 -17 75 -17q88 0 134 66t47 153v551h335v-1020h-323z" />
    <glyph glyph-name="Udieresismacron" unicode="&#x1d5;" horiz-adv-x="1511" 
d="M412 2091v176h688v-176h-688zM705 1771q-1 -71 -51 -119t-122 -48t-120 49t-50 117q0 68 49 117q49 50 121 50q72 1 122 -47t51 -119zM996 1937q54 1 103 -47q50 -48 50 -119t-50 -119t-121 -48t-120 49t-49 119q0 33 13 62q45 103 174 103zM1378 547q0 -265 -172 -426
q-172 -160 -454 -160t-449 161q-168 161 -168 425v903h348v-875q0 -124 67 -212q67 -87 205 -87q139 0 206 85t67 214v875h350v-903z" />
    <glyph glyph-name="udieresismacron" unicode="&#x1d6;" horiz-adv-x="1257" 
d="M279 1661v176h688v-176h-688zM571 1340q0 -70 -50 -118t-122 -48q-73 0 -121 49t-48 117t48 117q49 50 121 50t122 -48t50 -119zM1016 1340q0 -70 -50 -118t-121 -48t-120 49t-49 117t48 118t120 49q72 0 122 -48t50 -119zM803 0v141h-4q-57 -112 -206 -155
q-47 -14 -125 -14t-150 36q-198 102 -197 381v631h338v-553q0 -157 76 -200q29 -17 75 -17q88 0 134 66t47 153v551h335v-1020h-323z" />
    <glyph glyph-name="Udieresisacute" unicode="&#x1d7;" horiz-adv-x="1511" 
d="M885 2091h-254l213 295h340zM713 1771q0 -71 -50 -119t-122 -48t-121 49t-49 117t48 118t121 49q73 1 123 -47t50 -119zM1157 1771q0 -71 -50 -119t-121 -48t-120 49t-49 117t48 118t120 49q72 1 122 -47t50 -119zM1378 547q0 -265 -172 -426q-172 -160 -454 -160
t-449 161q-168 161 -168 425v903h348v-875q0 -124 67 -212q67 -87 205 -87q139 0 206 85t67 214v875h350v-903z" />
    <glyph glyph-name="udieresisacute" unicode="&#x1d8;" horiz-adv-x="1257" 
d="M743 1661h-254l213 295h340zM571 1340q0 -70 -50 -118t-122 -48q-73 0 -121 49t-48 117t48 117q49 50 121 50t122 -48t50 -119zM1016 1340q0 -70 -50 -118t-121 -48t-120 49t-49 117t48 118t120 49q72 0 122 -48t50 -119zM803 0v141h-4q-57 -112 -206 -155
q-47 -14 -125 -14t-150 36q-198 102 -197 381v631h338v-553q0 -157 76 -200q29 -17 75 -17q88 0 134 66t47 153v551h335v-1020h-323z" />
    <glyph glyph-name="Udieresiscaron" unicode="&#x1d9;" horiz-adv-x="1511" 
d="M907 2091h-301l-254 295h266l140 -166l139 166h262zM705 1771q-1 -71 -51 -119t-122 -48t-120 49t-50 117q0 68 49 117q49 50 121 50q72 1 122 -47t51 -119zM996 1937q54 1 103 -47q50 -48 50 -119t-50 -119t-121 -48t-120 49t-49 119q0 33 13 62q45 103 174 103z
M1378 547q0 -265 -172 -426q-172 -160 -454 -160t-449 161q-168 161 -168 425v903h348v-875q0 -124 67 -212q67 -87 205 -87q139 0 206 85t67 214v875h350v-903z" />
    <glyph glyph-name="udieresiscaron" unicode="&#x1da;" horiz-adv-x="1257" 
d="M774 1661h-301l-254 295h266l140 -166l139 166h262zM571 1340q0 -70 -50 -118t-122 -48q-73 0 -121 49t-48 117t48 117q49 50 121 50t122 -48t50 -119zM1016 1340q0 -70 -50 -118t-121 -48t-120 49t-49 117t48 118t120 49q72 0 122 -48t50 -119zM803 0v141h-4
q-57 -112 -206 -155q-47 -14 -125 -14t-150 36q-198 102 -197 381v631h338v-553q0 -157 76 -200q29 -17 75 -17q88 0 134 66t47 153v551h335v-1020h-323z" />
    <glyph glyph-name="Udieresisgrave" unicode="&#x1db;" horiz-adv-x="1511" 
d="M635 2091l-299 295h340l213 -295h-254zM705 1771q-1 -71 -51 -119t-122 -48t-120 49t-50 117q0 68 49 117q49 50 121 50q72 1 122 -47t51 -119zM996 1937q54 1 103 -47q50 -48 50 -119t-50 -119t-121 -48t-120 49t-49 119q0 33 13 62q45 103 174 103zM1378 547
q0 -265 -172 -426q-172 -160 -454 -160t-449 161q-168 161 -168 425v903h348v-875q0 -124 67 -212q67 -87 205 -87q139 0 206 85t67 214v875h350v-903z" />
    <glyph glyph-name="udieresisgrave" unicode="&#x1dc;" horiz-adv-x="1257" 
d="M481 1661l-299 295h340l213 -295h-254zM571 1340q0 -70 -50 -118t-122 -48q-73 0 -121 49t-48 117t48 117q49 50 121 50t122 -48t50 -119zM1016 1340q0 -70 -50 -118t-121 -48t-120 49t-49 117t48 118t120 49q72 0 122 -48t50 -119zM803 0v141h-4q-57 -112 -206 -155
q-47 -14 -125 -14t-150 36q-198 102 -197 381v631h338v-553q0 -157 76 -200q29 -17 75 -17q88 0 134 66t47 153v551h335v-1020h-323z" />
    <glyph glyph-name="Adieresismacron" unicode="&#x1de;" horiz-adv-x="1492" 
d="M401 2091v176h689v-176h-689zM694 1771q0 -71 -50 -119t-122 -48t-121 49t-49 116t48 117q48 51 121 51q73 1 123 -47t50 -119zM986 1937q54 1 103 -47q50 -48 50 -119t-50 -119t-121 -48t-120 49t-49 119q0 33 13 62q45 103 174 103zM743 1063l-184 -498h365zM1133 0
l-113 285h-561l-107 -285h-381l609 1450h340l602 -1450h-389z" />
    <glyph glyph-name="adieresismacron" unicode="&#x1df;" 
d="M209 1694v176h688v-176h-688zM502 1373q0 -71 -50 -119t-122 -48t-121 49t-49 117t48 118t121 50t123 -48t50 -119zM946 1373q0 -71 -50 -119t-121 -48t-120 49t-49 116t48 118t120 51t122 -48t50 -119zM68 295q0 344 655 344v16q0 76 -53 112t-128 36t-142 -31t-113 -74
l-170 183q90 86 210 129q121 43 247 43q252 0 360 -130q108 -132 106 -409v-514h-307v109h-6q-39 -63 -118 -99t-155 -35q-160 0 -263 70q-125 86 -123 250zM733 444h-43q-313 0 -313 -139q0 -53 42 -78q42 -26 103 -26q102 0 157 56q54 56 54 153v34z" />
    <glyph glyph-name="Adotmacron" unicode="&#x1e0;" horiz-adv-x="1492" 
d="M401 2107v177h689v-177h-689zM930 1778q0 -74 -53 -124t-131 -50t-131 51q-52 51 -52 123t52 124t130 52q77 0 131 -51t54 -125zM743 1063l-184 -498h365zM1133 0l-113 285h-561l-107 -285h-381l609 1450h340l602 -1450h-389z" />
    <glyph glyph-name="adotmacron" unicode="&#x1e1;" 
d="M209 1710v176h688v-176h-688zM737 1380q0 -74 -53 -124t-131 -50t-130 51t-52 123t52 124t130 52t131 -51t53 -125zM68 295q0 344 655 344v16q0 76 -53 112t-128 36t-142 -31t-113 -74l-170 183q90 86 210 129q121 43 247 43q252 0 360 -130q108 -132 106 -409v-514h-307
v109h-6q-39 -63 -118 -99t-155 -35q-160 0 -263 70q-125 86 -123 250zM733 444h-43q-313 0 -313 -139q0 -53 42 -78q42 -26 103 -26q102 0 157 56q54 56 54 153v34z" />
    <glyph glyph-name="AEmacron" unicode="&#x1e2;" horiz-adv-x="2115" 
d="M1098 1604v176h688v-176h-688zM1053 1153h-21l-313 -557h334v557zM1053 0v313h-473l-181 -313h-407l848 1450h1157v-297h-611v-272h576v-281h-576v-301h648v-299h-981z" />
    <glyph glyph-name="aemacron" unicode="&#x1e3;" horiz-adv-x="1841" 
d="M571 1206v176h689v-176h-689zM723 639q0 164 -182 164q-72 0 -140 -31t-114 -74l-168 183q88 86 208 129q119 43 245 43t207 -45t122 -105q55 66 145 108t204 42t208 -38q192 -78 267 -284q38 -102 38 -233q0 -42 -4 -80h-737q10 -86 80 -139t162 -54q150 0 225 107
l231 -148q-149 -215 -463 -217q-121 0 -222 48t-161 137q-106 -175 -413 -177q-152 0 -262 73q-133 89 -131 247q0 194 202 271q144 57 453 59v14zM1452 627q0 80 -50 137t-149 57t-164 -57t-69 -137h432zM377 305q0 -104 165 -104q82 0 137 51q54 51 54 139v33h-43
q-145 0 -229 -23t-84 -96z" />
    <glyph glyph-name="Gcaron" unicode="&#x1e6;" horiz-adv-x="1574" 
d="M993 1642h-301l-254 295h267l139 -165l139 165h262zM1438 88q-241 -125 -576 -125t-557 212q-223 212 -223 554t224 551t562 209q172 0 320 -52t239 -141l-221 -252q-51 60 -135 98t-183 38q-189 0 -313 -128q-122 -128 -121 -330q1 -201 117 -326q116 -126 326 -126
q127 0 219 39v264h-276v283h598v-768z" />
    <glyph glyph-name="gcaron" unicode="&#x1e7;" horiz-adv-x="1347" 
d="M879 1202h-301l-254 295h266l139 -166l139 166h262zM893 516q0 110 -69 184t-180 74q-110 0 -174 -74t-64 -182q0 -109 66 -186q66 -76 174 -76q109 0 178 76q69 75 69 184zM877 125q-104 -135 -319 -135t-346 152q-132 152 -132 372t132 378q132 157 353 157
q97 0 185 -39t141 -121h4v131h317v-924q0 -291 -159 -439q-159 -149 -441 -149q-135 0 -277 41t-247 119l168 240q145 -129 338 -129q147 0 218 78t71 206v62h-6z" />
    <glyph glyph-name="Kcaron" unicode="&#x1e8;" horiz-adv-x="1456" 
d="M850 1604h-301l-254 294h266l139 -165l140 165h262zM494 668v-668h-344v1450h344v-590h6l518 590h438l-625 -668l662 -782h-457l-538 668h-4z" />
    <glyph glyph-name="kcaron" unicode="&#x1e9;" horiz-adv-x="1218" 
d="M457 1702h-301l-254 295h266l139 -166l139 166h263zM471 489v-489h-338v1548h338v-942h6l326 414h407l-393 -461l410 -559h-416l-334 489h-6z" />
    <glyph glyph-name="Oogonek" unicode="&#x1ea;" horiz-adv-x="1742" 
d="M1286 727q0 194 -116 321q-117 126 -298 126t-299 -124t-117 -320t118 -324q117 -127 297 -126q181 1 298 127t117 320zM637 -344q0 159 194 307q-328 12 -539 225q-210 213 -210 551t222 544t568 206t567 -207q222 -207 222 -551q0 -294 -171 -499t-454 -257
q-186 -145 -186 -264q0 -33 22 -53t65 -20q44 0 101 40l66 -127q-111 -83 -236 -81q-150 0 -211 101q-20 36 -20 85z" />
    <glyph glyph-name="oogonek" unicode="&#x1eb;" horiz-adv-x="1294" 
d="M889 514q0 105 -68 183q-68 79 -177 78q-110 -1 -174 -77t-64 -184q0 -107 65 -186q65 -80 178 -79t176 81q64 80 64 184zM588 -31q-215 16 -362 167q-146 151 -146 386t163 383t401 148q239 0 404 -147q164 -147 164 -392q0 -202 -115 -344t-302 -184q-79 -63 -135 -130
t-56 -139q0 -33 22 -53t65 -20t102 41l65 -127q-113 -84 -235 -82q-153 0 -211 101q-20 36 -21 85q0 161 197 307z" />
    <glyph glyph-name="Oogonekmacron" unicode="&#x1ec;" horiz-adv-x="1742" 
d="M526 1642v177h688v-177h-688zM1286 727q0 194 -116 321q-117 126 -298 126t-299 -124t-117 -320t118 -324q117 -127 297 -126q181 1 298 127t117 320zM637 -344q0 159 194 307q-328 12 -539 225q-210 213 -210 551t222 544t568 206t567 -207q222 -207 222 -551
q0 -294 -171 -499t-454 -257q-186 -145 -186 -264q0 -33 22 -53t65 -20q44 0 101 40l66 -127q-111 -83 -236 -81q-150 0 -211 101q-20 36 -20 85z" />
    <glyph glyph-name="oogonekmacron" unicode="&#x1ed;" horiz-adv-x="1294" 
d="M301 1206v176h688v-176h-688zM889 514q0 105 -68 183q-68 79 -177 78q-110 -1 -174 -77t-64 -184q0 -107 65 -186q65 -80 178 -79t176 81q64 80 64 184zM588 -31q-215 16 -362 167q-146 151 -146 386t163 383t401 148q239 0 404 -147q164 -147 164 -392q0 -202 -115 -344
t-302 -184q-79 -63 -135 -130t-56 -139q0 -33 22 -53t65 -20t102 41l65 -127q-113 -84 -235 -82q-153 0 -211 101q-20 36 -21 85q0 161 197 307z" />
    <glyph glyph-name="DZ" unicode="&#x1f1;" horiz-adv-x="2885" 
d="M1665 0v303l690 850h-674v297h1112v-281l-706 -866h721v-303h-1143zM992 395q147 108 147 335t-147 332q-121 87 -326 89h-174v-848h165q209 0 335 92zM1503 736q0 -366 -257 -563q-225 -173 -556 -173h-540v1450h524q154 0 303 -36q319 -76 455 -341q72 -139 71 -337z
" />
    <glyph glyph-name="Dz" unicode="&#x1f2;" horiz-adv-x="2633" 
d="M1655 0v262l479 500h-461v258h871v-252l-494 -508h514v-260h-909zM992 395q147 108 147 335t-147 332q-121 87 -326 89h-174v-848h165q209 0 335 92zM1503 736q0 -366 -257 -563q-225 -173 -556 -173h-540v1450h524q154 0 303 -36q319 -76 455 -341q72 -139 71 -337z" />
    <glyph glyph-name="dz" unicode="&#x1f3;" horiz-adv-x="2396" 
d="M1417 0v262l479 500h-460v258h870v-252l-494 -508h515v-260h-910zM891 512q0 103 -70 183q-70 81 -178 80t-173 -76t-66 -184t65 -188t176 -78t178 81q68 79 68 182zM903 0v133h-4q-49 -78 -140 -120t-200 -42t-199 45t-152 120q-128 155 -128 376q0 222 132 379
q132 158 349 158q113 0 191 -43t120 -95h5v637h335v-1548h-309z" />
    <glyph glyph-name="Gacute" unicode="&#x1f4;" horiz-adv-x="1574" 
d="M860 1642h-254l213 295h340zM1438 88q-241 -125 -576 -125t-557 212q-223 212 -223 554t224 551t562 209q172 0 320 -52t239 -141l-221 -252q-51 60 -135 98t-183 38q-189 0 -313 -128q-122 -128 -121 -330q1 -201 117 -326q116 -126 326 -126q127 0 219 39v264h-276v283
h598v-768z" />
    <glyph glyph-name="gacute" unicode="&#x1f5;" horiz-adv-x="1347" 
d="M766 1202h-254l213 295h340zM893 516q0 110 -69 184t-180 74q-110 0 -174 -74t-64 -182q0 -109 66 -186q66 -76 174 -76q109 0 178 76q69 75 69 184zM877 125q-104 -135 -319 -135t-346 152q-132 152 -132 372t132 378q132 157 353 157q97 0 185 -39t141 -121h4v131h317
v-924q0 -291 -159 -439q-159 -149 -441 -149q-135 0 -277 41t-247 119l168 240q145 -129 338 -129q147 0 218 78t71 206v62h-6z" />
    <glyph glyph-name="Ngrave" unicode="&#x1f8;" horiz-adv-x="1617" 
d="M729 1604l-299 294h340l213 -294h-254zM150 0v1450h399l581 -946h7l-9 946h340v-1450h-397l-584 948h-6l8 -948h-339z" />
    <glyph glyph-name="ngrave" unicode="&#x1f9;" horiz-adv-x="1261" 
d="M555 1202l-299 295h340l213 -295h-254zM801 557q0 215 -152 215q-89 0 -134 -63q-46 -63 -46 -156v-553h-338v1020h326v-141h4q61 112 205 155q46 14 124 14t150 -36q195 -100 199 -381v-631h-338v557z" />
    <glyph glyph-name="Aringacute" unicode="&#x1fa;" horiz-adv-x="1492" 
d="M723 2195h-254l213 295h340zM866 1823q0 51 -35 85t-87 34t-86 -35t-34 -85t36 -84q34 -34 85 -34t86 34t35 85zM903 1665q-66 -61 -159 -61t-156 60q-64 60 -65 157q-1 96 64 158q65 63 158 63t158 -63q66 -63 66 -158t-66 -156zM743 1063l-184 -498h365zM1133 0
l-113 285h-561l-107 -285h-381l609 1450h340l602 -1450h-389z" />
    <glyph glyph-name="aringacute" unicode="&#x1fb;" 
d="M530 1798h-254l213 295h340zM674 1425q0 51 -35 85t-87 34t-86 -35t-34 -85t35 -84t86 -34t86 34t35 85zM330 1424q0 95 64 158q65 62 158 62t159 -62q65 -63 65 -159t-65 -156q-65 -59 -157 -60q-93 -1 -158 60q-66 62 -66 157zM68 295q0 344 655 344v16q0 76 -53 112
t-128 36t-142 -31t-113 -74l-170 183q90 86 210 129q121 43 247 43q252 0 360 -130q108 -132 106 -409v-514h-307v109h-6q-39 -63 -118 -99t-155 -35q-160 0 -263 70q-125 86 -123 250zM733 444h-43q-313 0 -313 -139q0 -53 42 -78q42 -26 103 -26q102 0 157 56
q54 56 54 153v34z" />
    <glyph glyph-name="AEacute" unicode="&#x1fc;" horiz-adv-x="2115" 
d="M1440 1604h-254l213 294h340zM1053 1153h-21l-313 -557h334v557zM1053 0v313h-473l-181 -313h-407l848 1450h1157v-297h-611v-272h576v-281h-576v-301h648v-299h-981z" />
    <glyph glyph-name="aeacute" unicode="&#x1fd;" horiz-adv-x="1841" 
d="M975 1206h-254l213 295h340zM723 639q0 164 -182 164q-72 0 -140 -31t-114 -74l-168 183q88 86 208 129q119 43 245 43t207 -45t122 -105q55 66 145 108t204 42t208 -38q192 -78 267 -284q38 -102 38 -233q0 -42 -4 -80h-737q10 -86 80 -139t162 -54q150 0 225 107
l231 -148q-149 -215 -463 -217q-121 0 -222 48t-161 137q-106 -175 -413 -177q-152 0 -262 73q-133 89 -131 247q0 194 202 271q144 57 453 59v14zM1452 627q0 80 -50 137t-149 57t-164 -57t-69 -137h432zM377 305q0 -104 165 -104q82 0 137 51q54 51 54 139v33h-43
q-145 0 -229 -23t-84 -96z" />
    <glyph glyph-name="Oslashacute" unicode="&#x1fe;" horiz-adv-x="1742" 
d="M930 1720h-254l213 295h340zM438 727q0 -150 64 -246l594 645q-82 58 -205 59t-203 -35q-159 -71 -220 -245q-30 -84 -30 -178zM1300 719q0 176 -77 276l-598 -651q94 -76 243 -76q98 0 179 36q161 72 223 242q30 84 30 173zM262 225q-180 192 -180 520t222 535t566 207
q258 0 449 -119l178 199l137 -121l-176 -191q203 -207 203 -535t-226 -544q-105 -100 -251 -156t-316 -57h-10q-275 0 -459 141l-182 -194l-137 117z" />
    <glyph glyph-name="oslashacute" unicode="&#x1ff;" horiz-adv-x="1294" 
d="M705 1255h-254l213 295h340zM640 242q125 0 189 78t64 172t-27 135l-342 -344q48 -41 116 -41zM762 748q-55 38 -117 38q-115 0 -182 -77t-69 -171q-1 -94 28 -135zM80 512q0 242 163 392q163 151 402 151q193 0 328 -101l147 148l123 -119l-143 -141q113 -131 112 -330
q0 -238 -163 -391q-163 -154 -404 -154q-185 0 -321 96l-154 -151l-121 119l148 145q-117 135 -117 336z" />
    <glyph glyph-name="Adblgrave" unicode="&#x200;" horiz-adv-x="1492" 
d="M424 1604l-299 294h340l213 -294h-254zM909 1604l-299 294h340l213 -294h-254zM743 1063l-184 -498h365zM1133 0l-113 285h-561l-107 -285h-381l609 1450h340l602 -1450h-389z" />
    <glyph glyph-name="adblgrave" unicode="&#x201;" 
d="M252 1206l-299 295h340l213 -295h-254zM737 1206l-299 295h340l213 -295h-254zM68 295q0 344 655 344v16q0 76 -53 112t-128 36t-142 -31t-113 -74l-170 183q90 86 210 129q121 43 247 43q252 0 360 -130q108 -132 106 -409v-514h-307v109h-6q-39 -63 -118 -99t-155 -35
q-160 0 -263 70q-125 86 -123 250zM733 444h-43q-313 0 -313 -139q0 -53 42 -78q42 -26 103 -26q102 0 157 56q54 56 54 153v34z" />
    <glyph glyph-name="Ainvertedbreve" unicode="&#x202;" horiz-adv-x="1492" 
d="M745 1716q-159 0 -184 -112h-172q11 150 105 222t249 72q235 0 322 -158q31 -56 37 -136h-172q-14 72 -64 92t-121 20zM743 1063l-184 -498h365zM1133 0l-113 285h-561l-107 -285h-381l609 1450h340l602 -1450h-389z" />
    <glyph glyph-name="ainvertedbreve" unicode="&#x203;" 
d="M551 1501q237 0 321 -159q31 -56 37 -136h-172q-14 72 -64 92t-120 21q-161 0 -184 -113h-172q11 150 105 222q93 73 249 73zM68 295q0 344 655 344v16q0 76 -53 112t-128 36t-142 -31t-113 -74l-170 183q90 86 210 129q121 43 247 43q252 0 360 -130q108 -132 106 -409
v-514h-307v109h-6q-39 -63 -118 -99t-155 -35q-160 0 -263 70q-125 86 -123 250zM733 444h-43q-313 0 -313 -139q0 -53 42 -78q42 -26 103 -26q102 0 157 56q54 56 54 153v34z" />
    <glyph glyph-name="Edblgrave" unicode="&#x204;" horiz-adv-x="1243" 
d="M293 1604l-299 294h340l213 -294h-254zM778 1604l-299 294h340l213 -294h-254zM150 0v1450h974v-297h-637v-272h603v-281h-603v-301h674v-299h-1011z" />
    <glyph glyph-name="edblgrave" unicode="&#x205;" horiz-adv-x="1220" 
d="M268 1206l-299 295h340l213 -295h-254zM754 1206l-299 295h340l213 -295h-254zM641 -33q-239 0 -400 144t-161 392q0 247 158 399q158 151 390 151q233 0 374 -150t141 -405v-41q0 -20 -2 -39h-740q8 -82 79 -137q71 -54 165 -56q145 0 225 107l234 -148
q-149 -215 -463 -217zM834 627q0 80 -50 137t-149 57q-98 0 -163 -56q-64 -56 -71 -138h433z" />
    <glyph glyph-name="Einvertedbreve" unicode="&#x206;" horiz-adv-x="1243" 
d="M655 1716q-159 0 -184 -112h-172q11 150 105 222t249 72q235 0 322 -158q31 -56 37 -136h-172q-14 72 -64 92t-121 20zM150 0v1450h974v-297h-637v-272h603v-281h-603v-301h674v-299h-1011z" />
    <glyph glyph-name="einvertedbreve" unicode="&#x207;" horiz-adv-x="1220" 
d="M608 1501q236 0 322 -159q31 -56 37 -136h-172q-15 72 -65 92t-120 21q-159 0 -184 -113h-172q11 149 105 222t249 73zM641 -33q-239 0 -400 144t-161 392q0 247 158 399q158 151 390 151q233 0 374 -150t141 -405v-41q0 -20 -2 -39h-740q8 -82 79 -137q71 -54 165 -56
q145 0 225 107l234 -148q-149 -215 -463 -217zM834 627q0 80 -50 137t-149 57q-98 0 -163 -56q-64 -56 -71 -138h433z" />
    <glyph glyph-name="Idblgrave" unicode="&#x208;" horiz-adv-x="651" 
d="M45 1604l-299 294h340l213 -294h-254zM530 1604l-299 294h340l213 -294h-254zM150 0v1450h352v-1450h-352z" />
    <glyph glyph-name="idblgrave" unicode="&#x209;" horiz-adv-x="606" 
d="M2 1174l-299 294h340l213 -294h-254zM487 1174l-299 294h340l213 -294h-254zM135 0v1020h336v-1020h-336z" />
    <glyph glyph-name="Iinvertedbreve" unicode="&#x20a;" horiz-adv-x="651" 
d="M326 1716q-160 0 -185 -112h-172q11 150 105 222t250 72q234 0 321 -158q31 -56 37 -136h-172q-14 72 -64 92t-120 20zM150 0v1450h352v-1450h-352z" />
    <glyph glyph-name="iinvertedbreve" unicode="&#x20b;" horiz-adv-x="606" 
d="M303 1286q-161 0 -184 -112h-172q11 149 105 222q93 72 249 72q235 0 322 -158q31 -56 36 -136h-172q-14 72 -64 92t-120 20zM135 0v1020h336v-1020h-336z" />
    <glyph glyph-name="Odblgrave" unicode="&#x20c;" horiz-adv-x="1742" 
d="M549 1642l-299 295h340l213 -295h-254zM1034 1642l-299 295h340l213 -295h-254zM1286 727q0 194 -116 321q-117 126 -298 126t-299 -124t-117 -320t118 -324q117 -127 297 -126q181 1 298 127t117 320zM1661 732q0 -343 -222 -557t-568 -214q-345 0 -565 212
q-104 101 -164 243t-60 316q0 345 222 551t566 206q170 0 316 -53q296 -108 416 -390q60 -140 59 -314z" />
    <glyph glyph-name="odblgrave" unicode="&#x20d;" horiz-adv-x="1294" 
d="M324 1206l-299 295h340l213 -295h-254zM809 1206l-299 295h340l213 -295h-254zM889 514q0 105 -68 183q-68 79 -177 78q-110 -1 -174 -77t-64 -184q0 -107 65 -186q65 -80 178 -79t176 81q64 80 64 184zM1046 118q-166 -151 -402 -151t-400 151t-164 396q0 244 163 391
q163 148 401 148q239 0 404 -147q164 -147 164 -392t-166 -396z" />
    <glyph glyph-name="Oinvertedbreve" unicode="&#x20e;" horiz-adv-x="1742" 
d="M870 1755q-160 0 -184 -113h-172q11 151 105 223t249 72q235 0 322 -158q31 -56 37 -137h-172q-15 72 -65 92t-120 21zM1286 727q0 194 -116 321q-117 126 -298 126t-299 -124t-117 -320t118 -324q117 -127 297 -126q181 1 298 127t117 320zM1661 732q0 -343 -222 -557
t-568 -214q-345 0 -565 212q-104 101 -164 243t-60 316q0 345 222 551t566 206q170 0 316 -53q296 -108 416 -390q60 -140 59 -314z" />
    <glyph glyph-name="oinvertedbreve" unicode="&#x20f;" horiz-adv-x="1294" 
d="M645 1319q-161 0 -184 -113h-172q11 148 112 229q86 66 242 66q236 0 322 -159q31 -56 36 -136h-172q-14 72 -64 92t-120 21zM889 514q0 105 -68 183q-68 79 -177 78q-110 -1 -174 -77t-64 -184q0 -107 65 -186q65 -80 178 -79t176 81q64 80 64 184zM1046 118
q-166 -151 -402 -151t-400 151t-164 396q0 244 163 391q163 148 401 148q239 0 404 -147q164 -147 164 -392t-166 -396z" />
    <glyph glyph-name="Rdblgrave" unicode="&#x210;" horiz-adv-x="1357" 
d="M297 1604l-299 294h340l213 -294h-254zM782 1604l-299 294h340l213 -294h-254zM657 829q254 0 254 177q0 161 -233 161h-186v-338h165zM494 575v-575h-344v1450h552q380 0 508 -229q47 -84 47 -220t-79 -237q-80 -100 -222 -143l379 -621h-409l-314 575h-118z" />
    <glyph glyph-name="rdblgrave" unicode="&#x211;" horiz-adv-x="811" 
d="M106 1202l-299 295h340l213 -295h-254zM592 1202l-299 295h340l213 -295h-254zM695 756q-107 0 -167 -74q-61 -74 -61 -158v-524h-336v1020h324v-148h4q39 78 110 127q72 49 143 49t95 -8l-14 -295q-42 11 -98 11z" />
    <glyph glyph-name="Rinvertedbreve" unicode="&#x212;" horiz-adv-x="1357" 
d="M598 1716q-161 0 -184 -112h-172q11 149 105 222q93 72 249 72q235 0 322 -158q31 -56 36 -136h-172q-14 72 -64 92t-120 20zM657 829q254 0 254 177q0 161 -233 161h-186v-338h165zM494 575v-575h-344v1450h552q380 0 508 -229q47 -84 47 -220t-79 -237
q-80 -100 -222 -143l379 -621h-409l-314 575h-118z" />
    <glyph glyph-name="rinvertedbreve" unicode="&#x213;" horiz-adv-x="811" 
d="M446 1497q236 0 322 -159q31 -56 37 -136h-172q-15 72 -65 92t-119 21q-160 0 -185 -113h-172q11 149 105 222t249 73zM695 756q-107 0 -167 -74q-61 -74 -61 -158v-524h-336v1020h324v-148h4q39 78 110 127q72 49 143 49t95 -8l-14 -295q-42 11 -98 11z" />
    <glyph glyph-name="Udblgrave" unicode="&#x214;" horiz-adv-x="1511" 
d="M434 1604l-299 294h340l213 -294h-254zM920 1604l-299 294h340l213 -294h-254zM1378 547q0 -265 -172 -426q-172 -160 -454 -160t-449 161q-168 161 -168 425v903h348v-875q0 -124 67 -212q67 -87 205 -87q139 0 206 85t67 214v875h350v-903z" />
    <glyph glyph-name="udblgrave" unicode="&#x215;" horiz-adv-x="1257" 
d="M260 1174l-299 294h340l213 -294h-254zM745 1174l-299 294h340l213 -294h-254zM803 0v141h-4q-57 -112 -206 -155q-47 -14 -125 -14t-150 36q-198 102 -197 381v631h338v-553q0 -157 76 -200q29 -17 75 -17q88 0 134 66t47 153v551h335v-1020h-323z" />
    <glyph glyph-name="Uinvertedbreve" unicode="&#x216;" horiz-adv-x="1511" 
d="M756 1716q-160 0 -185 -112h-172q11 150 105 222t250 72q234 0 321 -158q31 -56 37 -136h-172q-14 72 -64 92t-120 20zM1378 547q0 -265 -172 -426q-172 -160 -454 -160t-449 161q-168 161 -168 425v903h348v-875q0 -124 67 -212q67 -87 205 -87q139 0 206 85t67 214v875
h350v-903z" />
    <glyph glyph-name="uinvertedbreve" unicode="&#x217;" horiz-adv-x="1257" 
d="M623 1286q-160 0 -185 -112h-172q11 150 105 222t250 72q234 0 321 -158q31 -56 37 -136h-172q-15 72 -65 92t-119 20zM803 0v141h-4q-57 -112 -206 -155q-47 -14 -125 -14t-150 36q-198 102 -197 381v631h338v-553q0 -157 76 -200q29 -17 75 -17q88 0 134 66t47 153v551
h335v-1020h-323z" />
    <glyph glyph-name="Scommaaccent" unicode="&#x218;" horiz-adv-x="1210" 
d="M569 -492h-258l138 400h296zM798 1164q-72 34 -150 34q-77 0 -116 -24q-77 -47 -77 -118q0 -72 54 -105t149 -63q94 -30 174 -60q296 -112 296 -390q0 -229 -162 -352t-393 -123q-156 0 -301 54t-241 155l229 234q53 -66 140 -110q88 -44 150 -44q224 0 224 158
q0 74 -79 121q-45 28 -169 68t-190 71q-234 109 -234 362q0 225 179 348q156 107 383 107q122 0 250 -45t225 -133l-224 -236q-45 57 -117 91z" />
    <glyph glyph-name="scommaaccent" unicode="&#x219;" horiz-adv-x="966" 
d="M446 -492h-258l138 400h297zM518 811q-47 0 -87 -18q-40 -19 -40 -63t44 -62t122 -36q157 -35 252 -108q94 -74 94 -209q0 -177 -140 -270q-114 -76 -268 -77q-311 -2 -472 157l188 199q45 -49 111 -82t123 -33q137 0 137 88q0 47 -50 70t-128 41t-132 38
q-113 42 -163 142q-27 51 -27 133q0 83 39 147t100 105q116 78 258 79q285 2 436 -143l-184 -190q-97 92 -213 92z" />
    <glyph glyph-name="uni021A" unicode="&#x21a;" horiz-adv-x="1189" 
d="M571 -492h-258l138 400h297zM770 1151v-1151h-350v1151h-410v299h1170v-299h-410z" />
    <glyph glyph-name="uni021B" unicode="&#x21b;" horiz-adv-x="761" 
d="M414 -492h-258l137 400h297zM168 338v430h-164v252h162v268h330v-268h239v-252h-239v-389q0 -72 28 -108q28 -35 94 -35q67 0 103 16l4 -246q-84 -29 -191 -30q-286 -3 -348 213q-18 67 -18 149z" />
    <glyph glyph-name="Hcaron" unicode="&#x21e;" horiz-adv-x="1564" 
d="M934 1604h-301l-254 294h266l139 -165l140 165h262zM1065 0v606h-565v-606h-350v1450h350v-549h565v549h350v-1450h-350z" />
    <glyph glyph-name="hcaron" unicode="&#x21f;" horiz-adv-x="1263" 
d="M455 1702h-301l-254 295h266l139 -166l139 166h263zM803 553q0 215 -150 215q-88 0 -135 -62t-47 -155v-551h-336v1548h336v-657h4q35 61 111 109t181 48q192 1 291 -132q81 -106 83 -285v-631h-338v553z" />
    <glyph glyph-name="Adotaccent" unicode="&#x226;" horiz-adv-x="1492" 
d="M930 1778q0 -74 -53 -124t-131 -50t-131 51q-52 51 -52 123t52 124t130 52q77 0 131 -51t54 -125zM743 1063l-184 -498h365zM1133 0l-113 285h-561l-107 -285h-381l609 1450h340l602 -1450h-389z" />
    <glyph glyph-name="adotaccent" unicode="&#x227;" 
d="M737 1380q0 -74 -53 -124t-131 -50t-130 51t-52 123t52 124t130 52t131 -51t53 -125zM68 295q0 344 655 344v16q0 76 -53 112t-128 36t-142 -31t-113 -74l-170 183q90 86 210 129q121 43 247 43q252 0 360 -130q108 -132 106 -409v-514h-307v109h-6q-39 -63 -118 -99
t-155 -35q-160 0 -263 70q-125 86 -123 250zM733 444h-43q-313 0 -313 -139q0 -53 42 -78q42 -26 103 -26q102 0 157 56q54 56 54 153v34z" />
    <glyph glyph-name="Ecedilla" unicode="&#x228;" horiz-adv-x="1243" 
d="M150 0v1450h974v-297h-637v-272h603v-281h-603v-301h674v-299h-385l-96 -123q10 2 18 2h19q92 1 132 -25q79 -50 79 -152q0 -101 -103 -153q-75 -38 -168 -40q-166 -2 -274 51l55 123q84 -39 180 -39q95 0 95 67q0 57 -97 60q-49 0 -81 -13l-64 60l137 182h-458z" />
    <glyph glyph-name="ecedilla" unicode="&#x229;" horiz-adv-x="1220" 
d="M834 627q0 80 -50 137t-149 57q-98 0 -163 -56q-64 -56 -71 -138h433zM571 -262q-46 0 -82 -12l-63 59l131 188q-208 25 -342 165q-135 140 -135 376q0 237 158 388t390 151q233 0 374 -150t141 -405v-41q0 -20 -2 -39h-740q8 -82 79 -137q71 -54 165 -56q145 0 225 107
l234 -148q-129 -184 -379 -213l-90 -127q10 2 18 2h19q208 0 211 -170q0 -109 -103 -159q-80 -41 -171 -41q-167 0 -271 51l55 123q84 -39 180 -39q95 0 95 67q0 60 -97 60z" />
    <glyph glyph-name="Odieresismacron" unicode="&#x22a;" horiz-adv-x="1742" 
d="M526 2130v176h688v-176h-688zM819 1809q0 -71 -50 -119t-122 -48t-121 50t-49 117t48 117t121 50t123 -48t50 -119zM1264 1809q0 -71 -50 -119t-122 -48q-70 0 -119 50t-49 118q0 33 13 63q45 103 173 103q54 0 104 -48t50 -119zM1286 727q0 194 -116 321
q-117 126 -298 126t-299 -124t-117 -320t118 -324q117 -127 297 -126q181 1 298 127t117 320zM1661 732q0 -343 -222 -557t-568 -214q-345 0 -565 212q-104 101 -164 243t-60 316q0 345 222 551t566 206q170 0 316 -53q296 -108 416 -390q60 -140 59 -314z" />
    <glyph glyph-name="odieresismacron" unicode="&#x22b;" horiz-adv-x="1294" 
d="M301 1694v176h688v-176h-688zM594 1373q0 -71 -50 -119t-122 -48t-121 49t-49 117t48 118t121 50t123 -48t50 -119zM1038 1373q0 -71 -50 -119t-121 -48t-119 49t-50 117q0 68 49 118t120 50t121 -48t50 -119zM889 514q0 105 -68 183q-68 79 -177 78q-110 -1 -174 -77
t-64 -184q0 -107 65 -186q65 -80 178 -79t176 81q64 80 64 184zM1046 118q-166 -151 -402 -151t-400 151t-164 396q0 244 163 391q163 148 401 148q239 0 404 -147q164 -147 164 -392t-166 -396z" />
    <glyph glyph-name="Otildemacron" unicode="&#x22c;" horiz-adv-x="1742" 
d="M526 2066v177h688v-177h-688zM1116 1664q-41 -22 -104 -22t-158 44q-71 40 -119 40q-47 0 -66 -24t-30 -57h-147q21 186 135 244q41 22 106 22t154 -41q88 -41 130 -41q42 -1 60 23t29 61h145q-21 -186 -135 -249zM1286 727q0 194 -116 321q-117 126 -298 126t-299 -124
t-117 -320t118 -324q117 -127 297 -126q181 1 298 127t117 320zM1661 732q0 -343 -222 -557t-568 -214q-345 0 -565 212q-104 101 -164 243t-60 316q0 345 222 551t566 206q170 0 316 -53q296 -108 416 -390q60 -140 59 -314z" />
    <glyph glyph-name="otildemacron" unicode="&#x22d;" horiz-adv-x="1294" 
d="M301 1630v176h688v-176h-688zM401 1453q41 22 104 22t155 -41t133 -41q41 -1 59 23t29 61h145q-21 -185 -135 -248q-41 -23 -103 -23t-159 43q-73 41 -132 41t-83 -82h-148q21 185 135 245zM889 514q0 105 -68 183q-68 79 -177 78q-110 -1 -174 -77t-64 -184
q0 -107 65 -186q65 -80 178 -79t176 81q64 80 64 184zM1046 118q-166 -151 -402 -151t-400 151t-164 396q0 244 163 391q163 148 401 148q239 0 404 -147q164 -147 164 -392t-166 -396z" />
    <glyph glyph-name="Odotaccent" unicode="&#x22e;" horiz-adv-x="1742" 
d="M1055 1817q1 -74 -53 -124q-54 -51 -132 -51t-130 52t-52 123t52 123t130 52t132 -50q54 -51 53 -125zM1286 727q0 194 -116 321q-117 126 -298 126t-299 -124t-117 -320t118 -324q117 -127 297 -126q181 1 298 127t117 320zM1661 732q0 -343 -222 -557t-568 -214
q-345 0 -565 212q-104 101 -164 243t-60 316q0 345 222 551t566 206q170 0 316 -53q296 -108 416 -390q60 -140 59 -314z" />
    <glyph glyph-name="odotaccent" unicode="&#x22f;" horiz-adv-x="1294" 
d="M829 1380q0 -74 -53 -124t-131 -50t-130 51t-52 123t52 124t130 52t131 -51t53 -125zM889 514q0 105 -68 183q-68 79 -177 78q-110 -1 -174 -77t-64 -184q0 -107 65 -186q65 -80 178 -79t176 81q64 80 64 184zM1046 118q-166 -151 -402 -151t-400 151t-164 396
q0 244 163 391q163 148 401 148q239 0 404 -147q164 -147 164 -392t-166 -396z" />
    <glyph glyph-name="Odotaccentmacron" unicode="&#x230;" horiz-adv-x="1742" 
d="M526 2146v176h688v-176h-688zM1055 1817q1 -74 -53 -124q-54 -51 -132 -51t-130 52t-52 123t52 123t130 52t132 -50q54 -51 53 -125zM1286 727q0 194 -116 321q-117 126 -298 126t-299 -124t-117 -320t118 -324q117 -127 297 -126q181 1 298 127t117 320zM1661 732
q0 -343 -222 -557t-568 -214q-345 0 -565 212q-104 101 -164 243t-60 316q0 345 222 551t566 206q170 0 316 -53q296 -108 416 -390q60 -140 59 -314z" />
    <glyph glyph-name="odotaccentmacron" unicode="&#x231;" horiz-adv-x="1294" 
d="M301 1710v176h688v-176h-688zM829 1380q0 -74 -53 -124t-131 -50t-130 51t-52 123t52 124t130 52t131 -51t53 -125zM889 514q0 105 -68 183q-68 79 -177 78q-110 -1 -174 -77t-64 -184q0 -107 65 -186q65 -80 178 -79t176 81q64 80 64 184zM1046 118q-166 -151 -402 -151
t-400 151t-164 396q0 244 163 391q163 148 401 148q239 0 404 -147q164 -147 164 -392t-166 -396z" />
    <glyph glyph-name="Ymacron" unicode="&#x232;" horiz-adv-x="1370" 
d="M340 1604v176h688v-176h-688zM854 0h-350v614l-545 836h424l309 -537l309 537h410l-557 -836v-614z" />
    <glyph glyph-name="ymacron" unicode="&#x233;" horiz-adv-x="1161" 
d="M236 1174v176h688v-176h-688zM234 -205q63 0 98 36t59 101l33 84l-426 1004h373l227 -655h6l203 655h356l-456 -1174q-65 -169 -165 -253q-100 -85 -284 -85q-99 0 -184 23l37 283q60 -19 123 -19z" />
    <glyph glyph-name="dotlessj" unicode="&#x237;" horiz-adv-x="612" 
d="M18 -205q74 0 99 50t24 128v1047h336v-1047q0 -217 -80 -327q-99 -138 -327 -138q-84 0 -146 17l23 280q30 -10 71 -10z" />
    <glyph glyph-name="commaturnedmod" unicode="&#x2bb;" horiz-adv-x="614" 
d="M383 895h-297l186 555h258z" />
    <glyph glyph-name="afii57929" unicode="&#x2bc;" horiz-adv-x="614" 
d="M342 895h-258l147 555h297z" />
    <glyph glyph-name="circumflex" unicode="&#x2c6;" horiz-adv-x="614" 
d="M444 1171l-139 166l-139 -166h-262l254 295h303l250 -295h-267z" />
    <glyph glyph-name="caron" unicode="&#x2c7;" horiz-adv-x="614" 
d="M459 1171h-301l-254 295h266l139 -166l140 166h262z" />
    <glyph glyph-name="uni02C9" unicode="&#x2c9;" horiz-adv-x="614" 
d="M-37 1624v176h688v-176h-688z" />
    <glyph glyph-name="breve" unicode="&#x2d8;" horiz-adv-x="614" 
d="M307 1354q70 0 120 20t65 92h172q-11 -150 -107 -221q-96 -72 -252 -74q-236 0 -318 159q-30 56 -36 136h172q23 -112 184 -112z" />
    <glyph glyph-name="dotaccent" unicode="&#x2d9;" horiz-adv-x="614" 
d="M492 1346q0 -74 -54 -124t-131 -50q-78 0 -130 50q-52 52 -52 124t52 124t130 52q77 0 131 -51t54 -125z" />
    <glyph glyph-name="ring" unicode="&#x2da;" horiz-adv-x="614" 
d="M428 1360q0 51 -35 85t-87 34t-86 -35t-34 -85t35 -84t86 -34t86 34t35 85zM465 1202q-65 -61 -159 -61q-93 0 -157 61q-65 61 -65 157q0 95 64 158q65 62 159 62t158 -62q65 -62 65 -159q0 -95 -65 -156z" />
    <glyph glyph-name="ogonek" unicode="&#x2db;" horiz-adv-x="614" 
d="M25 -297q0 150 221 305h186q-194 -153 -194 -250q0 -33 22 -53t65 -20q44 0 101 41l66 -127q-113 -84 -236 -82q-153 0 -211 101q-20 36 -20 85z" />
    <glyph glyph-name="tilde" unicode="&#x2dc;" horiz-adv-x="614" 
d="M61 1426q41 22 107 22t154 -41t130 -41t60 24t29 60h145q-21 -184 -135 -248q-98 -55 -262 21q-69 39 -129 40t-86 -81h-148q21 184 135 244z" />
    <glyph glyph-name="hungarumlaut" unicode="&#x2dd;" horiz-adv-x="614" 
d="M184 1171h-254l213 295h340zM635 1171h-254l213 295h340z" />
    <glyph glyph-name="uni02EE" unicode="&#x2ee;" horiz-adv-x="1038" 
d="M342 895h-258l147 555h293zM768 895h-260l151 555h293z" />
    <glyph glyph-name="gravecmb" unicode="&#x300;" horiz-adv-x="0" 
d="M-315 1171l-299 295h340l213 -295h-254z" />
    <glyph glyph-name="acutecmb" unicode="&#x301;" horiz-adv-x="0" 
d="M-360 1171h-254l213 295h340z" />
    <glyph glyph-name="circumflexcmb" unicode="&#x302;" horiz-adv-x="0" 
d="M-74 1171l-139 166l-139 -166h-262l254 295h303l250 -295h-267z" />
    <glyph glyph-name="tildecmb" unicode="&#x303;" horiz-adv-x="0" 
d="M-479 1426q41 22 106 22t154 -41q88 -41 130 -41t60 24t29 60h145q-21 -184 -135 -248q-98 -55 -262 21q-69 39 -128 40t-87 -81h-147q21 186 135 244z" />
    <glyph glyph-name="macroncmb" unicode="&#x304;" horiz-adv-x="0" 
d="M-614 1231v176h688v-176h-688z" />
    <glyph glyph-name="brevecmb" unicode="&#x306;" horiz-adv-x="0" 
d="M-442 1466q23 -112 184 -112q70 0 120 20t64 92h172q-11 -149 -107 -221t-251 -74q-234 0 -319 159q-30 56 -35 136h172z" />
    <glyph glyph-name="dotaccentcmb" unicode="&#x307;" horiz-adv-x="0" 
d="M-248 1346q0 -74 -53 -124t-131 -50t-130 50q-52 52 -52 124t52 124t130 52t131 -51t53 -125z" />
    <glyph glyph-name="dieresiscmb" unicode="&#x308;" horiz-adv-x="0" 
d="M-272 1347q0 -71 -50 -119t-122 -48t-121 49t-49 117t48 118q48 49 121 49q73 1 123 -47t50 -119zM18 1513q54 1 104 -47t50 -119t-50 -119t-121 -48t-120 49t-49 119q0 33 13 62q44 103 173 103z" />
    <glyph glyph-name="hookabovecomb" unicode="&#x309;" horiz-adv-x="614" 
d="M315 1593q129 0 198 -58q69 -57 69 -127t-28 -110t-75 -61q-47 -23 -59 -41t-12 -45h-189q1 53 21 87t78 68t59 78q0 61 -66 62q-37 0 -57 -23t-27 -75l-200 22q32 223 288 223z" />
    <glyph glyph-name="ringcmb" unicode="&#x30a;" horiz-adv-x="0" 
d="M-270 1360q0 51 -35 85t-87 34t-86 -35t-34 -85t35 -84t86 -34t86 34t35 85zM-233 1202q-65 -61 -158 -61t-158 61t-65 156q0 96 64 159q65 62 159 62t158 -62q65 -62 65 -159q0 -95 -65 -156z" />
    <glyph glyph-name="hungarumlautcmb" unicode="&#x30b;" horiz-adv-x="0" 
d="M-360 1171h-254l213 295h340zM90 1171h-254l213 295h340z" />
    <glyph glyph-name="caroncmb" unicode="&#x30c;" horiz-adv-x="0" 
d="M-59 1171h-301l-254 295h266l139 -166l139 166h263z" />
    <glyph glyph-name="doublegravecmb" unicode="&#x30f;" horiz-adv-x="0" 
d="M-801 1171l-299 295h340l213 -295h-254zM-315 1171l-299 295h340l213 -295h-254z" />
    <glyph glyph-name="invertedbrevecmb" unicode="&#x311;" horiz-adv-x="0" 
d="M-356 1284q-161 0 -185 -113h-172q11 151 105 223t250 72q234 0 321 -158q31 -56 37 -137h-172q-14 73 -64 93t-120 20z" />
    <glyph glyph-name="horncmb" unicode="&#x31b;" horiz-adv-x="0" 
d="M-500 993q78 0 110 39t32 115t-35 129l254 61q37 -80 38 -207q1 -126 -77 -220t-210 -93q-132 0 -222 57q-41 25 -68 58l4 149q96 -88 174 -88z" />
    <glyph glyph-name="dotbelowcmb" unicode="&#x323;" horiz-adv-x="0" 
d="M-201 -344q0 -86 -60 -143t-145 -57t-146 56q-62 56 -62 142q0 85 61 143t146 59q85 2 145 -56t61 -144z" />
    <glyph glyph-name="dieresisbelowcmb" unicode="&#x324;" horiz-adv-x="0" 
d="M-272 -310q0 -71 -50 -119t-122 -48t-121 49t-49 119q0 33 13 62q43 101 175 103q54 0 104 -47q50 -48 50 -119zM172 -310q0 -71 -50 -119t-121 -48t-120 49t-49 117t48 117t120 50t122 -47t50 -119z" />
    <glyph glyph-name="ringbelowcmb" unicode="&#x325;" horiz-adv-x="0" 
d="M-270 -362q0 50 -35 84t-87 34t-86 -35t-34 -85t35 -84t86 -33q51 0 86 34t35 85zM-614 -364q0 95 64 158q65 62 158 62t159 -62q65 -63 65 -159t-65 -156q-65 -59 -157 -60q-93 -1 -158 60q-66 62 -66 157z" />
    <glyph glyph-name="commabelowcmb" unicode="&#x326;" horiz-adv-x="0" 
d="M-338 -725h-276l153 582h322z" />
    <glyph glyph-name="cedillacmb" unicode="&#x327;" horiz-adv-x="0" 
d="M-281 -121q211 0 211 -170q0 -108 -102 -160q-75 -39 -169 -40q-167 -2 -273 51l55 123q84 -39 180 -39t94 67q0 37 -32 48q-77 26 -146 -1l-63 60l137 182h168l-96 -123q10 2 18 2h18z" />
    <glyph glyph-name="ogonekcmb" unicode="&#x328;" horiz-adv-x="0" 
d="M-614 -297q0 150 221 305h186q-194 -153 -194 -250q-1 -33 21 -53t66 -20t101 41l66 -127q-113 -84 -236 -82q-153 0 -211 101q-20 36 -20 85z" />
    <glyph glyph-name="circumflexbelowcmb" unicode="&#x32d;" horiz-adv-x="0" 
d="M-74 -438l-139 166l-139 -166h-262l254 295h303l250 -295h-267z" />
    <glyph glyph-name="brevebelowcmb" unicode="&#x32e;" horiz-adv-x="0" 
d="M-260 -438q-234 0 -319 158q-30 56 -35 137h172q23 -113 184 -113q70 0 120 20t64 93h172q-11 -150 -108 -222q-96 -73 -250 -73z" />
    <glyph glyph-name="tildebelowcmb" unicode="&#x330;" horiz-adv-x="0" 
d="M10 -392q-41 -22 -103 -22t-159 43q-73 41 -120 41q-46 0 -65 -24t-30 -58h-147q21 187 135 245q41 22 104 22t154 -41q92 -41 133 -41q41 -1 59 23t29 61h145q-21 -186 -135 -249z" />
    <glyph glyph-name="macronbelowcmb" unicode="&#x331;" horiz-adv-x="0" 
d="M-614 -319v176h688v-176h-688z" />
    <glyph glyph-name="gravetonecmb" unicode="&#x340;" horiz-adv-x="0" 
d="M-315 1171l-299 295h340l213 -295h-254z" />
    <glyph glyph-name="acutetonecmb" unicode="&#x341;" horiz-adv-x="0" 
d="M-360 1171h-254l213 295h340z" />
    <glyph glyph-name="dialytikatonoscmb" unicode="&#x344;" horiz-adv-x="0" 
d="M-244 1667h-254l213 295h340zM-272 1347q0 -71 -50 -119t-122 -48t-121 49t-49 117t48 118q48 49 121 49q73 1 123 -47t50 -119zM18 1513q54 1 104 -47t50 -119t-50 -119t-121 -48t-120 49t-49 119q0 33 13 62q44 103 173 103z" />
    <glyph glyph-name="combininggraphemejoiner" unicode="&#x34f;" horiz-adv-x="1024" 
 />
    <glyph glyph-name="uni037E" unicode="&#x37e;" horiz-adv-x="679" 
d="M344 -254h-283l154 582h328zM482 702q-58 -56 -142 -57q-84 0 -140 56q-57 56 -58 138t58 138q59 57 142 57t141 -57t58 -138q-1 -81 -59 -137z" />
    <glyph glyph-name="u0384" unicode="&#x384;" horiz-adv-x="532" 
d="M135 1585h260l-20 -457h-217z" />
    <glyph glyph-name="u0385" unicode="&#x385;" horiz-adv-x="491" 
d="M121 1587h219l-21 -457h-176zM434 1255q0 49 37 89t92 40t92 -40t37 -88q0 -50 -37 -90t-92 -40t-92 40t-37 89zM-242 1255q0 49 37 89t92 40t93 -39q36 -39 36 -89t-36 -90t-92 -40t-93 40t-37 89z" />
    <glyph glyph-name="u0386" unicode="&#x386;" horiz-adv-x="1542" 
d="M94 1585h260l-20 -457h-217zM793 1063l-185 -498h365zM1182 0l-113 285h-561l-107 -285h-381l609 1450h340l602 -1450h-389z" />
    <glyph glyph-name="anoteleia" unicode="&#x387;" horiz-adv-x="614" 
d="M514 596q0 -86 -60 -143t-146 -57t-146 56q-60 57 -61 142t61 143t146 59q86 2 146 -56t60 -144z" />
    <glyph glyph-name="u0388" unicode="&#x388;" horiz-adv-x="1466" 
d="M0 1585h260l-20 -457h-217zM373 0v1450h975v-297h-637v-272h602v-281h-602v-301h673v-299h-1011z" />
    <glyph glyph-name="u0389" unicode="&#x389;" horiz-adv-x="1800" 
d="M0 1585h260l-20 -457h-217zM1300 0v606h-565v-606h-350v1450h350v-549h565v549h351v-1450h-351z" />
    <glyph glyph-name="u038A" unicode="&#x38a;" horiz-adv-x="886" 
d="M0 1585h260l-20 -457h-217zM385 0v1450h352v-1450h-352z" />
    <glyph glyph-name="u038C" unicode="&#x38c;" horiz-adv-x="1951" 
d="M0 1585h260l-20 -457h-217zM1379 1048q-117 126 -298 126t-299 -124t-117 -320t118 -324q117 -127 297 -126q181 1 298 127t117 320t-116 321zM1870 732q0 -341 -222 -556t-568 -215q-345 0 -565 212q-105 101 -165 243t-59 316q0 345 222 551t566 206q170 0 316 -53
q295 -108 415 -390q60 -140 60 -314z" />
    <glyph glyph-name="u038E" unicode="&#x38e;" horiz-adv-x="1765" 
d="M0 1585h260l-20 -457h-217zM1249 0h-350v614l-545 836h424l309 -537l310 537h409l-557 -836v-614z" />
    <glyph glyph-name="u038F" unicode="&#x38f;" horiz-adv-x="1861" 
d="M-2 1448h260l-20 -457h-218zM1130 0v401q136 45 216 137t80 269q0 176 -100 275q-99 100 -280 100t-292 -103t-111 -273q0 -171 94 -279t224 -124v-403h-642v256h367v14q-68 10 -142 54q-156 94 -236 284q-40 96 -40 230t61 261q119 250 415 350q142 48 304 48t300 -51
q277 -103 395 -355q57 -123 57 -255q0 -221 -152 -395q-65 -73 -139 -117t-131 -54v-14h391v-256h-639z" />
    <glyph glyph-name="u0390" unicode="&#x390;" horiz-adv-x="1015" 
d="M403 1628h220l-21 -457h-176zM717 1296q0 49 37 89t92 40t92 -40t37 -89t-37 -89t-92 -40t-92 40t-37 89zM41 1296q0 49 37 89t92 40t92 -40t37 -89t-37 -89t-92 -40t-92 40t-37 89zM336 0v1020h336v-1020h-336z" />
    <glyph glyph-name="u0391" unicode="&#x391;" horiz-adv-x="1492" 
d="M743 1063l-184 -498h365zM1133 0l-113 285h-561l-107 -285h-381l609 1450h340l602 -1450h-389z" />
    <glyph glyph-name="u0392" unicode="&#x392;" horiz-adv-x="1361" 
d="M930 455q0 90 -68 125t-180 34h-195v-331h197q170 0 223 85q23 34 23 87zM883 1030q0 143 -224 141h-172v-299h189q98 0 152 40t55 118zM1280 398q0 -96 -47 -176q-129 -222 -506 -222h-577v1450h577q329 0 449 -190q45 -72 45 -188t-66 -194t-172 -114v-4
q61 -10 116 -38q181 -94 181 -324z" />
    <glyph glyph-name="u0393" unicode="&#x393;" horiz-adv-x="1073" 
d="M1063 1450v-305h-561v-1145h-352v1450h913z" />
    <glyph glyph-name="u0394" unicode="&#x394;" horiz-adv-x="1617" 
d="M803 1073l-357 -776h707zM98 0v301l543 1149h340l539 -1145v-305h-1422z" />
    <glyph glyph-name="u0395" unicode="&#x395;" horiz-adv-x="1243" 
d="M150 0v1450h974v-297h-637v-272h603v-281h-603v-301h674v-299h-1011z" />
    <glyph glyph-name="u0396" unicode="&#x396;" horiz-adv-x="1300" 
d="M80 0v303l690 850h-674v297h1112v-281l-706 -866h721v-303h-1143z" />
    <glyph glyph-name="u0397" unicode="&#x397;" horiz-adv-x="1564" 
d="M1065 0v606h-565v-606h-350v1450h350v-549h565v549h350v-1450h-350z" />
    <glyph glyph-name="u0398" unicode="&#x398;" horiz-adv-x="1742" 
d="M870 1174q-154 0 -259 -88t-140 -230h799q-34 142 -140 230t-260 88zM870 281q156 0 264 92t140 243h-807q33 -152 140 -244t263 -91zM1661 732q0 -343 -222 -557t-568 -214q-345 0 -565 212q-104 101 -164 243t-60 316q0 345 222 551t566 206q170 0 316 -53
q296 -108 416 -390q60 -140 59 -314z" />
    <glyph glyph-name="u0399" unicode="&#x399;" horiz-adv-x="651" 
d="M150 0v1450h352v-1450h-352z" />
    <glyph glyph-name="u039A" unicode="&#x39a;" horiz-adv-x="1456" 
d="M494 668v-668h-344v1450h344v-590h6l518 590h438l-625 -668l662 -782h-457l-538 668h-4z" />
    <glyph glyph-name="u039B" unicode="&#x39b;" horiz-adv-x="1492" 
d="M373 0h-375l563 1450h359l575 -1450h-383l-369 967z" />
    <glyph glyph-name="u039C" unicode="&#x39c;" horiz-adv-x="1955" 
d="M150 0v1450h497l330 -930h8l315 930h506v-1450h-342l9 1026h-7l-376 -1026h-246l-367 1026h-6l8 -1026h-329z" />
    <glyph glyph-name="u039D" unicode="&#x39d;" horiz-adv-x="1617" 
d="M150 0v1450h399l581 -946h7l-9 946h340v-1450h-397l-584 948h-6l8 -948h-339z" />
    <glyph glyph-name="u039E" unicode="&#x39e;" horiz-adv-x="1216" 
d="M1135 295v-295h-1053v295h1053zM1030 866v-266h-854v266h854zM1130 1450v-295h-1048v295h1048z" />
    <glyph glyph-name="u039F" unicode="&#x39f;" horiz-adv-x="1742" 
d="M1286 727q0 194 -116 321q-117 126 -298 126t-299 -124t-117 -320t118 -324q117 -127 297 -126q181 1 298 127t117 320zM1661 732q0 -343 -222 -557t-568 -214q-345 0 -565 212q-104 101 -164 243t-60 316q0 345 222 551t566 206q170 0 316 -53q296 -108 416 -390
q60 -140 59 -314z" />
    <glyph glyph-name="u03A0" unicode="&#x3a0;" horiz-adv-x="1527" 
d="M1378 1450v-1450h-348v1155h-532v-1155h-348v1450h1228z" />
    <glyph glyph-name="u03A1" unicode="&#x3a1;" horiz-adv-x="1310" 
d="M647 825q252 0 252 176q0 139 -155 160q-44 6 -91 6h-153v-342h147zM1249 1003q0 -237 -166 -347q-166 -111 -409 -109h-174v-547h-350v1450h532q119 0 222 -24q345 -80 345 -423z" />
    <glyph glyph-name="u03A3" unicode="&#x3a3;" horiz-adv-x="1257" 
d="M123 0v246l463 477v12l-463 467v248h1042v-285h-610l442 -417v-31l-401 -432h580v-285h-1053z" />
    <glyph glyph-name="u03A4" unicode="&#x3a4;" horiz-adv-x="1189" 
d="M770 1151v-1151h-350v1151h-410v299h1170v-299h-410z" />
    <glyph glyph-name="u03A5" unicode="&#x3a5;" horiz-adv-x="1370" 
d="M854 0h-350v614l-545 836h424l309 -537l309 537h410l-557 -836v-614z" />
    <glyph glyph-name="u03A6" unicode="&#x3a6;" horiz-adv-x="1945" 
d="M1489 725q0 151 -87 261t-263 149v-820q176 37 263 149t87 261zM457 728q0 -154 88 -266t266 -149v822q-172 -34 -263 -143t-91 -264zM1139 -145h-328v137q-321 40 -525 240t-204 493t203 490t526 239v127h328v-127q329 -48 526 -244t198 -484q1 -289 -201 -490
t-523 -244v-137z" />
    <glyph glyph-name="u03A7" unicode="&#x3a7;" horiz-adv-x="1439" 
d="M1024 0l-317 512l-306 -512h-417l508 766l-467 684h421l271 -451l266 451h408l-459 -684l524 -766h-432z" />
    <glyph glyph-name="u03A8" unicode="&#x3a8;" horiz-adv-x="1818" 
d="M1083 551h31q124 0 181 76t59 204v619h348v-688q0 -251 -164 -389q-164 -137 -414 -135h-41v-238h-348v238h-41q-249 0 -413 137t-164 387v688h348v-619q0 -196 129 -259q45 -22 111 -21h30v899h348v-899z" />
    <glyph glyph-name="u03A9" unicode="&#x3a9;" horiz-adv-x="1654" 
d="M924 0v401q137 45 216 137t79 269q1 176 -99 275q-100 100 -281 100t-292 -103t-111 -273q0 -171 94 -279t224 -124v-403h-641v256h366v14q-67 10 -141 54q-156 94 -237 284q-40 96 -40 230t61 261q119 250 416 350q142 48 304 48t299 -51q277 -103 395 -355
q57 -123 57 -255q0 -221 -152 -395q-65 -73 -139 -117t-131 -54v-14h392v-256h-639z" />
    <glyph glyph-name="u03AA" unicode="&#x3aa;" horiz-adv-x="651" 
d="M274 1740q0 -71 -50 -119t-122 -48t-120 49t-50 116q0 67 48 117t121 51t123 -47t50 -119zM719 1740q0 -71 -50 -119t-121 -48t-120 49t-49 116t47 117t120 51t123 -47t50 -119zM150 0v1450h352v-1450h-352z" />
    <glyph glyph-name="u03AB" unicode="&#x3ab;" horiz-adv-x="1370" 
d="M641 1740q0 -71 -50 -119t-122 -48t-121 49t-49 116t47 117q47 49 121 51q74 1 124 -47t50 -119zM1085 1740q0 -71 -50 -119t-121 -48q-72 0 -120 49t-48 116t47 117q48 50 120 51t122 -47t50 -119zM854 0h-350v614l-545 836h424l309 -537l309 537h410l-557 -836v-614z
" />
    <glyph glyph-name="u03AC" unicode="&#x3ac;" horiz-adv-x="1318" 
d="M545 1585h260l-21 -457h-217zM391 514q-1 -49 15 -97q32 -98 122 -145q46 -22 104 -22q110 1 177 79q68 78 69 182t-69 184q-70 81 -179 80t-174 -77t-65 -184zM546 -29q-108 0 -198 45q-177 89 -247 292q-70 204 1 408q70 204 247 290q89 43 201 43t190 -43t120 -95h4
v113h336v-1024h-309v133h-4q-49 -78 -141 -120t-200 -42z" />
    <glyph glyph-name="u03AD" unicode="&#x3ad;" horiz-adv-x="1165" 
d="M705 1585l-21 -457h-217l-23 457h261zM618 778q-86 0 -139 -19t-53 -54q0 -82 240 -82h149v-228h-149q-113 0 -182 -15t-68 -61q0 -71 210 -71t310 80l162 -201q-90 -100 -290 -140q-201 -40 -400 -5t-283 147q-43 57 -43 129q0 120 85 193q63 54 146 65v6
q-128 41 -180 142q-20 38 -20 100t38 117q37 55 105 92q135 74 345 75q210 0 321 -52t155 -119l-174 -185q-108 86 -285 86z" />
    <glyph glyph-name="u03AE" unicode="&#x3ae;" horiz-adv-x="1267" 
d="M494 1585h260l-21 -457h-217zM457 1020v-141h4q61 111 210 155q47 14 125 14t151 -36q206 -104 206 -381v-1123h-334v1049q0 152 -87 198q-32 17 -77 17q-90 0 -138 -66t-48 -153v-553h-338v1020h326z" />
    <glyph glyph-name="u03AF" unicode="&#x3af;" horiz-adv-x="557" 
d="M150 1722h260l-21 -456h-217zM111 0v1020h335v-1020h-335z" />
    <glyph glyph-name="u03B0" unicode="&#x3b0;" horiz-adv-x="1259" 
d="M516 1587h219l-20 -457h-176zM829 1255q0 49 37 89t92 40t93 -39q37 -39 37 -89t-38 -90q-36 -40 -92 -40t-92 40q-37 40 -37 89zM154 1255q0 49 36 90q36 39 92 39t93 -40t37 -88q0 -50 -37 -90t-92 -40t-93 40q-36 40 -36 89zM123 1020h336v-539q1 -111 27 -153t59 -59
t84 -17q102 0 139 64t37 165v539h336v-612q0 -184 -114 -302q-135 -137 -400 -137t-397 137q-109 115 -107 302v612z" />
    <glyph glyph-name="u03B1" unicode="&#x3b1;" horiz-adv-x="1318" 
d="M391 514q-1 -49 15 -97q32 -98 122 -145q46 -22 104 -22q110 1 177 79q68 78 69 182t-69 184q-70 81 -179 80t-174 -77t-65 -184zM546 -29q-108 0 -198 45q-177 89 -247 292q-70 204 1 408q70 204 247 290q89 43 201 43t190 -43t120 -95h4v113h336v-1024h-309v133h-4
q-49 -78 -141 -120t-200 -42z" />
    <glyph glyph-name="u03B2" unicode="&#x3b2;" horiz-adv-x="1357" 
d="M459 1063v-447q0 -201 71 -286q52 -62 154 -62t166 48q63 48 63 144t-58 154q-58 59 -189 60h-82v274h61q68 0 117 40t49 121t-53 121t-124 40t-123 -46t-52 -161zM459 -492h-336v1590q0 215 144 337q144 121 372 120q227 -1 370 -105q144 -104 144 -289q0 -133 -72 -226
t-163 -106v-6q123 -5 229 -90q129 -106 129 -302q0 -197 -133 -325t-325 -127q-279 1 -359 195v-666z" />
    <glyph glyph-name="u03B3" unicode="&#x3b3;" horiz-adv-x="1269" 
d="M815 -492h-338v529l-473 983h373l270 -682l256 682h363l-451 -983v-529z" />
    <glyph glyph-name="u03B4" unicode="&#x3b4;" horiz-adv-x="1298" 
d="M650 774q-112 0 -176 -76t-64 -186q0 -174 142 -242q44 -20 99 -20q112 0 177 75t65 189q0 112 -66 186q-65 74 -177 74zM705 1280q-144 0 -144 -61q0 -29 48 -51q49 -22 135 -54q192 -70 319 -210q154 -170 154 -395t-152 -383q-152 -159 -407 -159t-414 153
q-160 153 -160 382q0 228 166 382q68 62 136 93t108 31l8 16l-68 17t-115 40t-94 52q-71 57 -71 132q0 207 319 268q98 19 212 19q264 0 482 -88l-65 -278q-199 94 -397 94z" />
    <glyph glyph-name="u03B5" unicode="&#x3b5;" horiz-adv-x="1165" 
d="M618 778q-86 0 -139 -19t-53 -54q0 -82 240 -82h149v-228h-149q-113 0 -182 -15t-68 -61q0 -71 210 -71t310 80l162 -201q-90 -100 -290 -140q-201 -40 -400 -5t-283 147q-43 57 -43 129q0 120 85 193q63 54 146 65v6q-128 41 -180 142q-20 38 -20 100t38 117
q37 55 105 92q135 74 345 75q210 0 321 -52t155 -119l-174 -185q-108 86 -285 86z" />
    <glyph glyph-name="u03B6" unicode="&#x3b6;" horiz-adv-x="1107" 
d="M243 181q-159 150 -159 400q0 249 154 445q110 140 299 242h-422v280h950v-217q-137 -82 -257 -160q-253 -164 -347 -349q-51 -99 -51 -226t66 -211t224 -138q159 -54 231 -106q72 -53 109 -110t37 -142q-1 -85 -31 -155q-80 -184 -282 -258l-248 143q129 68 164 98
q72 60 73 137t-116 119q-35 13 -95 35q-188 68 -299 173z" />
    <glyph glyph-name="u03B7" unicode="&#x3b7;" horiz-adv-x="1267" 
d="M457 1020v-141h4q61 111 210 155q47 14 125 14t151 -36q206 -104 206 -381v-1123h-334v1049q0 152 -87 198q-32 17 -77 17q-90 0 -138 -66t-48 -153v-553h-338v1020h326z" />
    <glyph glyph-name="u03B8" unicode="&#x3b8;" horiz-adv-x="1359" 
d="M430 643q19 -283 144 -370q44 -29 104 -29q218 2 250 399h-498zM679 1280q-217 0 -249 -393h496q-19 276 -144 363q-43 30 -103 30zM238 193q-144 212 -144 566t158 575q158 222 430 222q271 0 428 -223q156 -223 156 -576t-149 -571t-439 -218q-290 -1 -440 225z" />
    <glyph glyph-name="u03B9" unicode="&#x3b9;" horiz-adv-x="606" 
d="M135 0v1020h336v-1020h-336z" />
    <glyph glyph-name="u03BA" unicode="&#x3ba;" horiz-adv-x="1255" 
d="M469 606h6l326 414h387l-393 -461l409 -559h-395l-334 489h-6v-489h-334v1020h334v-414z" />
    <glyph glyph-name="u03BB" unicode="&#x3bb;" horiz-adv-x="1220" 
d="M269 1255q-44 0 -86 -20t-58 -43l-39 268q30 29 102 61q72 31 170 31q172 -1 264 -88q68 -66 138 -250l461 -1214h-355l-256 709h-4l-252 -709h-354l438 1102l-27 66q-37 87 -142 87z" />
    <glyph glyph-name="u03BC" unicode="&#x3bc;" horiz-adv-x="1333" 
d="M1192 211q0 -78 10 -211h-332l-12 135h-4q-27 -84 -74 -122t-123 -38q-158 0 -196 156h-4v-623h-326v1512h336v-485q0 -150 47 -211q48 -62 150 -62t148 62t46 211v485h334v-809z" />
    <glyph glyph-name="u03BD" unicode="&#x3bd;" horiz-adv-x="1161" 
d="M762 0h-363l-401 1020h371l215 -662h6l215 662h358z" />
    <glyph glyph-name="u03BE" unicode="&#x3be;" horiz-adv-x="1089" 
d="M690 -152q0 53 -100 102q-55 28 -129 41t-132 31q-136 41 -208 163q-39 67 -39 166q0 179 137 279t346 122q-221 24 -324 77q-143 73 -143 211q0 175 204 224q58 14 120 26v10q-12 -2 -49 -2h-264v246h854v-260q-295 0 -401 -40q-105 -40 -103 -152q0 -187 278 -187h221
v-321h-268q-133 0 -195 -52t-63 -116q0 -96 57 -140t177 -64q378 -68 382 -299q1 -97 -31 -164q-85 -178 -302 -249l-275 107q253 94 250 213v28z" />
    <glyph glyph-name="u03BF" unicode="&#x3bf;" horiz-adv-x="1296" 
d="M891 514q0 105 -68 183q-68 79 -177 78q-110 -1 -174 -77t-64 -184q0 -107 65 -186q65 -80 178 -79t176 81q64 80 64 184zM647 -33q-236 0 -401 151q-164 151 -164 396q0 244 163 391q163 148 401 148q239 0 403 -147q165 -147 165 -391q0 -245 -165 -397
q-166 -151 -402 -151z" />
    <glyph glyph-name="u03C0" unicode="&#x3c0;" horiz-adv-x="1275" 
d="M467 0h-336v1020h1014v-1020h-336v760h-342v-760z" />
    <glyph glyph-name="u03C1" unicode="&#x3c1;" horiz-adv-x="1341" 
d="M942 512q0 112 -61 186t-179 74t-184 -74q-67 -74 -67 -192q1 -117 71 -189q70 -71 184 -71t176 76q60 76 60 190zM455 37v-529h-324v971q0 263 158 419q158 155 424 155q228 0 388 -154q161 -154 161 -393t-159 -387t-409 -148q-132 0 -233 66h-6z" />
    <glyph glyph-name="u03C2" unicode="&#x3c2;" horiz-adv-x="1107" 
d="M1036 -109q0 -87 -30 -157q-80 -184 -283 -258l-248 143q129 68 164 98q72 60 74 133q0 94 -119 130q-30 8 -70 17q-168 38 -268 113q-174 130 -174 387q0 256 167 406t396 150q119 -1 207 -31q155 -54 215 -133l-190 -225q-29 46 -86 78t-123 32q-124 0 -193 -65
t-69 -193q0 -180 159 -240q45 -16 99 -30t121 -40t122 -67t92 -101t37 -147z" />
    <glyph glyph-name="u03C3" unicode="&#x3c3;" horiz-adv-x="1345" 
d="M881 511q0 112 -69 187q-69 76 -183 76q-113 0 -178 -76q-66 -76 -66 -188t68 -187t179 -75q112 0 181 76q68 75 68 187zM1188 506q0 -121 -41 -218t-115 -169t-176 -113t-223 -41t-222 41t-174 115t-114 173t-41 216q0 234 154 390q154 157 397 157q91 -1 178 -15
t195 -14h335v-272h-223v-8q70 -121 70 -242z" />
    <glyph glyph-name="u03C4" unicode="&#x3c4;" horiz-adv-x="952" 
d="M4 1020h944v-260h-305v-760h-336v760h-303v260z" />
    <glyph glyph-name="u03C5" unicode="&#x3c5;" horiz-adv-x="1259" 
d="M121 1020h336v-539q0 -110 26 -153q25 -42 59 -59t85 -17q102 0 139 64t37 165v539h336v-612q0 -184 -114 -302q-135 -137 -400 -137t-397 137q-109 115 -107 302v612z" />
    <glyph glyph-name="u03C6" unicode="&#x3c6;" horiz-adv-x="1748" 
d="M1044 743v-485q160 2 229 70q68 68 68 181t-73 175q-73 63 -170 59h-54zM82 494q0 231 126 375q100 116 277 173l152 -235q-96 -29 -164 -101q-67 -72 -67 -197q0 -124 94 -185t241 -66v764h369q234 0 395 -135q162 -135 162 -386q0 -250 -197 -397q-172 -129 -426 -129
v-467h-303v467q-463 7 -607 287q-52 101 -52 232z" />
    <glyph glyph-name="u03C7" unicode="&#x3c7;" horiz-adv-x="1257" 
d="M393 1020l240 -465l237 465h357l-379 -711l420 -798h-363l-276 559l-277 -559h-362l418 802l-377 707h362z" />
    <glyph glyph-name="u03C8" unicode="&#x3c8;" horiz-adv-x="1769" 
d="M1311 1020h336v-500q0 -281 -184 -434q-157 -132 -410 -137v-441h-336v441q-249 4 -411 137q-183 154 -183 434v500h336v-389q0 -197 57 -279t201 -98v766h336v-766q144 16 200 97t58 280v389z" />
    <glyph glyph-name="u03C9" unicode="&#x3c9;" horiz-adv-x="1675" 
d="M408 511q0 -134 42 -190q42 -57 101 -57t88 57t31 203v183h336v-183q0 -146 21 -191t43 -57t50 -12q66 0 107 56t41 190q0 133 -54 210t-176 134l217 190q235 -111 313 -378q26 -90 25 -197q0 -236 -106 -363t-316 -126q-252 0 -329 219h-8q-80 -219 -334 -219
q-199 0 -309 122t-109 367q0 330 203 490q61 50 135 85l221 -190q-129 -64 -181 -136q-52 -73 -52 -207z" />
    <glyph glyph-name="u03CA" unicode="&#x3ca;" horiz-adv-x="606" 
d="M256 1347q0 -71 -50 -119t-122 -48t-121 49t-49 117t48 118t121 49q73 1 123 -47t50 -119zM700 1347q0 -71 -50 -119t-121 -48t-119 49t-50 117q0 68 49 117q49 50 120 50q71 1 121 -47t50 -119zM135 0v1020h336v-1020h-336z" />
    <glyph glyph-name="u03CB" unicode="&#x3cb;" horiz-adv-x="1263" 
d="M735 -31q-263 0 -396 137q-108 114 -108 302v612h336v-539q1 -111 27 -153t59 -59t84 -17q102 0 140 64q37 65 36 165v539h336v-612q0 -297 -272 -401q-99 -38 -242 -38zM682 1347q0 -71 -50 -119t-122 -48t-121 49t-49 117t48 118t121 49q73 1 123 -47t50 -119z
M1126 1347q0 -71 -50 -119t-121 -48t-119 49t-50 117q0 68 49 117q49 50 120 50q71 1 121 -47t50 -119z" />
    <glyph glyph-name="u03CC" unicode="&#x3cc;" horiz-adv-x="1296" 
d="M512 1585h260l-20 -457h-217zM891 514q0 105 -68 183q-68 79 -177 78q-110 -1 -174 -77t-64 -184q0 -107 65 -186q65 -80 178 -79t176 81q64 80 64 184zM647 -33q-236 0 -401 151q-164 151 -164 396q0 244 163 391q163 148 401 148q239 0 403 -147q165 -147 165 -391
q0 -245 -165 -397q-166 -151 -402 -151z" />
    <glyph glyph-name="u03CD" unicode="&#x3cd;" horiz-adv-x="1263" 
d="M123 1020h336v-539q1 -111 27 -153t59 -59t84 -17q102 0 139 64t37 165v539h336v-612q0 -184 -114 -302q-135 -137 -400 -137t-397 137q-109 115 -107 302v612zM500 1585h260l-21 -457h-217z" />
    <glyph glyph-name="u03CE" unicode="&#x3ce;" horiz-adv-x="1675" 
d="M969 1585l-21 -457h-217l-22 457h260zM408 511q0 -134 42 -190q42 -57 101 -57t88 57t31 203v183h336v-183q0 -146 21 -191t43 -57t50 -12q66 0 107 56t41 190q0 133 -54 210t-176 134l217 190q235 -111 313 -378q26 -90 25 -197q0 -236 -106 -363t-316 -126
q-252 0 -329 219h-8q-80 -219 -334 -219q-199 0 -309 122t-109 367q0 330 203 490q61 50 135 85l221 -190q-129 -64 -181 -136q-52 -73 -52 -207z" />
    <glyph glyph-name="u0401" unicode="&#x401;" horiz-adv-x="1243" 
d="M594 1740q0 -71 -50 -119t-122 -48t-121 49t-49 116t47 117q47 49 121 51q74 1 124 -47t50 -119zM1038 1740q0 -71 -50 -119t-121 -48t-119 49t-50 116q0 67 48 117t120 51t122 -47t50 -119zM150 0v1450h974v-297h-637v-272h603v-281h-603v-301h674v-299h-1011z" />
    <glyph glyph-name="u0402" unicode="&#x402;" horiz-adv-x="1468" 
d="M10 1155v295h1096v-295h-424v-192h176q268 0 408 -125t141 -371q0 -202 -138 -332q-148 -135 -405 -135h-55v283h39q98 0 153 52q55 51 55 145t-56 140q-58 46 -199 46h-119v-666h-348v1155h-324z" />
    <glyph glyph-name="u0403" unicode="&#x403;" horiz-adv-x="1140" 
d="M977 1860l-299 -295h-254l213 295h340zM1063 1450v-305h-561v-1145h-352v1450h913z" />
    <glyph glyph-name="u0404" unicode="&#x404;" horiz-adv-x="1425" 
d="M1145 870v-272h-670q33 -158 148 -236q115 -79 234 -79t199 38t150 113l219 -219q-82 -111 -220 -181q-139 -70 -325 -71q-360 0 -579 215t-219 548t219 545q103 101 249 159t320 57q379 0 541 -211l-223 -256q-100 153 -315 152t-333 -167q-40 -56 -61 -135h666z" />
    <glyph glyph-name="u0405" unicode="&#x405;" horiz-adv-x="1210" 
d="M798 1164q-72 34 -150 34q-77 0 -116 -24q-77 -47 -77 -118q0 -72 54 -105t149 -63q94 -30 174 -60q296 -112 296 -390q0 -229 -162 -352t-393 -123q-156 0 -301 54t-241 155l229 234q53 -66 140 -110q88 -44 150 -44q224 0 224 158q0 74 -79 121q-45 28 -169 68t-190 71
q-234 109 -234 362q0 225 179 348q156 107 383 107q122 0 250 -45t225 -133l-224 -236q-45 57 -117 91z" />
    <glyph glyph-name="u0406" unicode="&#x406;" horiz-adv-x="651" 
d="M150 0v1450h352v-1450h-352z" />
    <glyph glyph-name="u0407" unicode="&#x407;" horiz-adv-x="694" 
d="M307 1740q0 -71 -50 -119t-122 -48t-121 49t-49 116t47 117q47 49 121 51q74 1 124 -47t50 -119zM752 1740q0 -71 -50 -119t-122 -48q-70 0 -119 49t-49 119q0 33 13 62q43 101 173 103q54 0 104 -47q50 -48 50 -119zM182 0v1450h353v-1450h-353z" />
    <glyph glyph-name="u0408" unicode="&#x408;" horiz-adv-x="1083" 
d="M942 496q0 -355 -236 -484q-93 -51 -259 -51t-289 95t-164 245l309 105q14 -56 52 -92t94 -35q85 0 113 59t28 156v956h352v-954z" />
    <glyph glyph-name="u0409" unicode="&#x409;" horiz-adv-x="2043" 
d="M1649 469q0 61 -26 93q-47 58 -170 69q-58 4 -122 4h-100l135 -344q123 0 175 21q52 20 80 58t28 99zM1335 922q313 0 476 -97q192 -114 192 -355t-172 -355q-172 -115 -479 -115h-254l-373 1061l-379 -1061h-375l590 1450h340l215 -528h219z" />
    <glyph glyph-name="u040A" unicode="&#x40a;" horiz-adv-x="2142" 
d="M1321 627v-328h143q112 -1 158 23q45 24 66 56q20 32 20 82q0 167 -250 167h-137zM498 1450v-528h475v528h348v-528h164q245 0 401 -107q174 -120 174 -357t-156 -348q-156 -110 -411 -110h-520v627h-475v-627h-348v1450h348z" />
    <glyph glyph-name="u040B" unicode="&#x40b;" horiz-adv-x="1497" 
d="M682 668v-668h-348v1155h-324v295h1096v-295h-424v-192h215q409 0 493 -359q26 -111 25 -244v-360h-352v268q0 100 -9 175t-41 125q-64 100 -259 100h-72z" />
    <glyph glyph-name="u040C" unicode="&#x40c;" horiz-adv-x="1460" 
d="M879 1565h-254l213 295h340zM498 924q58 0 110 -4l445 530h381l-486 -612q289 -142 422 -528q47 -136 80 -310h-381q-64 341 -194 489q-131 148 -377 140v-629h-348v1450h348v-526z" />
    <glyph glyph-name="u040E" unicode="&#x40e;" horiz-adv-x="1331" 
d="M207 344q86 -92 165 -92t132 67l-510 1131h389l303 -721l291 721h375l-494 -1135q-33 -76 -75 -141q-137 -215 -421 -215q-237 0 -330 98q-24 25 -42 43zM670 1747q68 0 131 40t94 103l180 -98q-36 -93 -150 -162t-255 -69q-212 0 -347 142q-40 42 -59 89l180 98
q30 -63 94 -103t132 -40z" />
    <glyph glyph-name="u040F" unicode="&#x40f;" horiz-adv-x="1548" 
d="M1051 295v1155h348v-1450h-465v-285h-287v285h-497v1450h348v-1155h553z" />
    <glyph glyph-name="u0410" unicode="&#x410;" horiz-adv-x="1492" 
d="M559 565h365l-181 498zM352 0h-381l609 1450h340l602 -1450h-389l-113 285h-561z" />
    <glyph glyph-name="u0411" unicode="&#x411;" horiz-adv-x="1376" 
d="M911 464q0 156 -243 161h-170v-330h164q172 0 229 91q20 32 20 78zM150 0v1450h1036v-295h-688v-235h198q399 0 524 -244q44 -86 44 -212q0 -236 -164 -350t-412 -114h-538z" />
    <glyph glyph-name="u0412" unicode="&#x412;" horiz-adv-x="1361" 
d="M930 455q0 90 -68 125t-180 34h-195v-331h197q170 0 223 85q23 34 23 87zM883 1030q0 143 -224 141h-172v-299h189q98 0 152 40t55 118zM1280 398q0 -96 -47 -176q-129 -222 -506 -222h-577v1450h577q329 0 449 -190q45 -72 45 -188t-66 -194t-172 -114v-4
q61 -10 116 -38q181 -94 181 -324z" />
    <glyph glyph-name="u0413" unicode="&#x413;" horiz-adv-x="1124" 
d="M1063 1450v-305h-561v-1145h-352v1450h913z" />
    <glyph glyph-name="u0414" unicode="&#x414;" horiz-adv-x="1699" 
d="M600 295h479l-239 762zM276 0v-285h-286v580h250l438 1155h340l434 -1155h258v-580h-287v285h-1147z" />
    <glyph glyph-name="u0415" unicode="&#x415;" horiz-adv-x="1243" 
d="M150 0v1450h974v-297h-637v-272h603v-281h-603v-301h674v-299h-1011z" />
    <glyph glyph-name="u0416" unicode="&#x416;" horiz-adv-x="2068" 
d="M860 913v537h348v-537q51 0 105 -6l364 543h381l-416 -657q338 -222 412 -793h-381q-31 253 -141 422q-127 196 -324 196v-618h-348v618q-195 0 -323 -198q-110 -170 -142 -420h-381q71 573 410 793l-414 657h381l363 -543q51 6 106 6z" />
    <glyph glyph-name="u0417" unicode="&#x417;" horiz-adv-x="1271" 
d="M625 254q98 0 153 43t56 121q0 147 -162 187q-61 15 -156 16h-201v245h220q139 0 192 47t53 120t-51 118t-133 45q-160 0 -201 -178l-309 100q53 166 190 267t352 101t368 -104q153 -105 153 -299q0 -129 -88 -214t-193 -103v-4q205 -24 290 -192q32 -62 32 -160
t-46 -184t-124 -143q-161 -120 -392 -120t-370 104t-186 279l311 96q66 -188 242 -188z" />
    <glyph glyph-name="u0418" unicode="&#x418;" horiz-adv-x="1650" 
d="M1501 1450v-1450h-348v954h-6l-604 -954h-393v1450h348v-967h6l602 967h395z" />
    <glyph glyph-name="u0419" unicode="&#x419;" horiz-adv-x="1646" 
d="M823 1747q68 0 131 40t95 103l180 -98q-35 -93 -150 -162t-256 -69q-212 0 -347 142q-40 42 -58 89l180 98q31 -63 94 -103t131 -40zM1497 1450v-1450h-348l2 948h-6l-584 -948h-411v1450h348l-2 -946h6l581 946h414z" />
    <glyph glyph-name="u041A" unicode="&#x41a;" horiz-adv-x="1460" 
d="M498 924q58 0 110 -4l445 530h381l-486 -612q289 -142 422 -528q47 -136 80 -310h-381q-64 341 -194 489q-131 148 -377 140v-629h-348v1450h348v-526z" />
    <glyph glyph-name="u041B" unicode="&#x41b;" horiz-adv-x="1439" 
d="M346 0h-375l564 1450h358l575 -1450h-383l-368 967z" />
    <glyph glyph-name="u041C" unicode="&#x41c;" horiz-adv-x="1955" 
d="M150 0v1450h497l330 -930h8l315 930h506v-1450h-342l9 1026h-7l-376 -1026h-246l-367 1026h-6l8 -1026h-329z" />
    <glyph glyph-name="u041D" unicode="&#x41d;" horiz-adv-x="1564" 
d="M1065 0v606h-565v-606h-350v1450h350v-549h565v549h350v-1450h-350z" />
    <glyph glyph-name="u041E" unicode="&#x41e;" horiz-adv-x="1742" 
d="M1286 727q0 194 -116 321q-117 126 -298 126t-299 -124t-117 -320t118 -324q117 -127 297 -126q181 1 298 127t117 320zM1661 732q0 -343 -222 -557t-568 -214q-345 0 -565 212q-104 101 -164 243t-60 316q0 345 222 551t566 206q170 0 316 -53q296 -108 416 -390
q60 -140 59 -314z" />
    <glyph glyph-name="u041F" unicode="&#x41f;" horiz-adv-x="1527" 
d="M1378 1450v-1450h-348v1155h-532v-1155h-348v1450h1228z" />
    <glyph glyph-name="u0420" unicode="&#x420;" horiz-adv-x="1310" 
d="M647 825q252 0 252 176q0 139 -155 160q-44 6 -91 6h-153v-342h147zM1249 1003q0 -237 -166 -347q-166 -111 -409 -109h-174v-547h-350v1450h532q119 0 222 -24q345 -80 345 -423z" />
    <glyph glyph-name="u0421" unicode="&#x421;" horiz-adv-x="1425" 
d="M870 -39q-347 0 -565 212q-103 101 -163 243t-60 313q0 342 224 551t562 209q154 0 302 -54t241 -159l-237 -238q-50 68 -130 101q-169 69 -332 -1q-155 -68 -218 -234q-31 -81 -31 -178t31 -179q62 -163 215 -232q77 -33 173 -33t174 42q78 41 126 106l243 -229
q-96 -111 -237 -175q-142 -64 -318 -65z" />
    <glyph glyph-name="u0422" unicode="&#x422;" horiz-adv-x="1189" 
d="M770 1151v-1151h-350v1151h-410v299h1170v-299h-410z" />
    <glyph glyph-name="u0423" unicode="&#x423;" horiz-adv-x="1331" 
d="M207 344q86 -92 165 -92t132 67l-510 1131h389l303 -721l291 721h375l-494 -1135q-33 -76 -75 -141q-137 -215 -421 -215q-237 0 -330 98q-24 25 -42 43z" />
    <glyph glyph-name="u0424" unicode="&#x424;" horiz-adv-x="1945" 
d="M1489 725q0 151 -87 261t-263 149v-820q176 37 263 149t87 261zM457 728q0 -154 88 -266t266 -149v822q-172 -34 -263 -143t-91 -264zM1139 -145h-328v137q-321 40 -525 240t-204 493t203 490t526 239v127h328v-127q329 -48 526 -244t198 -484q1 -289 -201 -490
t-523 -244v-137z" />
    <glyph glyph-name="u0425" unicode="&#x425;" horiz-adv-x="1439" 
d="M1024 0l-317 512l-306 -512h-417l508 766l-467 684h421l271 -451l266 451h408l-459 -684l524 -766h-432z" />
    <glyph glyph-name="u0426" unicode="&#x426;" horiz-adv-x="1605" 
d="M150 0v1450h348v-1155h553v1155h348v-1155h155v-580h-286v285h-1118z" />
    <glyph glyph-name="u0427" unicode="&#x427;" horiz-adv-x="1376" 
d="M881 1450h346v-1450h-344v539h-262q-283 1 -411 151t-128 422v338h348v-264q0 -197 44 -268q51 -84 200 -84h207v616z" />
    <glyph glyph-name="u0428" unicode="&#x428;" horiz-adv-x="2062" 
d="M864 295v1155h348v-1155h353v1155h348v-1450h-1763v1450h348v-1155h366z" />
    <glyph glyph-name="u0429" unicode="&#x429;" horiz-adv-x="2213" 
d="M150 0v1450h348v-1155h366v1155h348v-1155h365v1155h348v-1155h238v-580h-287v285h-1726z" />
    <glyph glyph-name="u042A" unicode="&#x42a;" horiz-adv-x="1470" 
d="M694 295h113q131 0 180 50t49 123t-49 116t-180 43h-113v-332zM780 922q606 0 609 -435q0 -241 -175 -364t-440 -123h-428v1155h-336v295h684v-528h86z" />
    <glyph glyph-name="u042B" unicode="&#x42b;" horiz-adv-x="1783" 
d="M1634 1450v-1450h-348v1450h348zM498 295h116q131 0 180 47q48 47 48 125q0 118 -118 147q-44 12 -110 13h-116v-332zM588 922q608 0 608 -435q0 -242 -175 -364q-175 -123 -439 -123h-432v1450h348v-528h90z" />
    <glyph glyph-name="u042C" unicode="&#x42c;" horiz-adv-x="1318" 
d="M150 1450h348v-528h131q428 0 560 -229q48 -83 48 -207q0 -241 -175 -363q-175 -123 -439 -123h-473v1450zM498 627v-332h157q131 0 181 46q49 46 49 124t-49 120t-181 42h-157z" />
    <glyph glyph-name="u042D" unicode="&#x42d;" horiz-adv-x="1431" 
d="M287 598v272h684q-37 145 -149 223t-249 78q-230 0 -329 -151l-207 235q84 109 229 170q146 61 328 61q349 1 551 -210q203 -211 204 -546t-218 -551t-570 -216q-388 0 -561 234l219 219q128 -135 351 -134t343 170q43 60 62 146h-688z" />
    <glyph glyph-name="u042E" unicode="&#x42e;" horiz-adv-x="2379" 
d="M1094 729q0 -96 30 -179q61 -165 215 -236q76 -34 168 -34q183 1 300 128q116 126 116 319q0 194 -116 321q-117 126 -298 126t-301 -126q-114 -120 -114 -319zM498 1450v-573h231q39 274 254 443t544 169q328 0 548 -206q221 -206 222 -549t-221 -558t-569 -215
q-304 0 -519 172t-259 449h-231v-582h-348v1450h348z" />
    <glyph glyph-name="u042F" unicode="&#x42f;" horiz-adv-x="1415" 
d="M918 821v334h-152q-164 0 -237 -43t-72 -129q0 -159 313 -162h148zM82 1001q0 213 165 331t488 118h531v-1450h-348v526h-125q-155 0 -261 -135t-141 -391h-381q15 234 135 418q97 146 265 235v4q-147 25 -238 112q-90 87 -90 232z" />
    <glyph glyph-name="u0430" unicode="&#x430;" 
d="M68 295q0 344 655 344v16q0 76 -53 112t-128 36t-142 -31t-113 -74l-170 183q90 86 210 129q121 43 247 43q252 0 360 -130q108 -132 106 -409v-514h-307v109h-6q-39 -63 -118 -99t-155 -35q-160 0 -263 70q-125 86 -123 250zM733 444h-43q-313 0 -313 -139q0 -53 42 -78
q42 -26 103 -26q102 0 157 56q54 56 54 153v34z" />
    <glyph glyph-name="u0431" unicode="&#x431;" horiz-adv-x="1286" 
d="M668 1020q244 0 390 -141t146 -379t-157 -385q-157 -148 -408 -148q-196 0 -338 114q-143 114 -190 331q-19 88 -19 256t45 329q88 314 362 406q136 45 320 45h332v-252h-336q-321 0 -356 -229q77 53 209 53zM889 496q1 108 -63 180t-168 72t-174 -62q-68 -62 -68 -183
q0 -122 66 -191q66 -68 171 -68q106 0 171 72t65 180z" />
    <glyph glyph-name="u0432" unicode="&#x432;" horiz-adv-x="1191" 
d="M602 612q79 0 110 12q56 23 56 78q0 56 -51 72t-119 17h-131v-179h135zM467 229h127q114 -1 148 9t53 28q18 18 18 53q0 66 -68 85q-48 14 -149 14h-129v-189zM721 0h-590v1020h563q195 0 300 -75t106 -200q0 -149 -141 -199q-42 -15 -87 -28q196 -14 256 -137
q23 -45 23 -109q-1 -124 -115 -198t-315 -74z" />
    <glyph glyph-name="u0433" unicode="&#x433;" horiz-adv-x="888" 
d="M467 0h-336v1020h717v-258h-381v-762z" />
    <glyph glyph-name="u0434" unicode="&#x434;" horiz-adv-x="1331" 
d="M526 260h283l-117 385h-41zM285 -285h-275v545h168l287 760h409l271 -760h176v-545h-274v285h-762v-285z" />
    <glyph glyph-name="u0435" unicode="&#x435;" horiz-adv-x="1220" 
d="M641 -33q-239 0 -400 144t-161 392q0 247 158 399q158 151 390 151q233 0 374 -150t141 -405v-41q0 -20 -2 -39h-740q8 -82 79 -137q71 -54 165 -56q145 0 225 107l234 -148q-149 -215 -463 -217zM834 627q0 80 -50 137t-149 57q-98 0 -163 -56q-64 -56 -71 -138h433z
" />
    <glyph glyph-name="u0436" unicode="&#x436;" horiz-adv-x="1830" 
d="M748 1020h335v-361q81 -14 88 -16l207 377h371l-301 -502q249 -178 332 -518h-371q-64 288 -219 367q-49 25 -107 34v-401h-335v401q-124 -21 -204 -110t-122 -291h-371q83 340 332 518l-301 502h371l204 -377q2 1 91 16v361z" />
    <glyph glyph-name="u0437" unicode="&#x437;" horiz-adv-x="1015" 
d="M645 312q0 100 -233 100h-168v209h168q152 0 189 37q15 15 15 52t-51 72t-148 35t-169 -63q-31 -27 -49 -62l-191 144q77 149 273 201q78 22 184 22q219 0 341 -76t122 -215q0 -168 -185 -246v-6q84 -11 148 -71q84 -77 84 -173t-39 -154q-74 -110 -269 -144
q-93 -15 -195 -15q-268 0 -462 152l146 200q42 -33 125 -65q83 -33 161 -33q203 -1 203 99z" />
    <glyph glyph-name="u0438" unicode="&#x438;" horiz-adv-x="1382" 
d="M131 0v1020h336v-586l448 586h336v-1020h-336v590l-448 -590h-336z" />
    <glyph glyph-name="u0439" unicode="&#x439;" horiz-adv-x="1382" 
d="M1071 1417q-73 -266 -348 -266q-133 0 -221 70t-119 196l225 39q10 -51 43 -78q33 -26 76 -26t76 28t43 76zM915 0v590l-448 -590h-336v1020h336v-586l448 586h336v-1020h-336z" />
    <glyph glyph-name="u043A" unicode="&#x43a;" horiz-adv-x="1214" 
d="M467 0h-336v1020h336v-371q45 -2 88 -12l233 383h371l-321 -494q128 -86 204 -219t121 -307h-370q-44 204 -121 289q-76 85 -205 102v-391z" />
    <glyph glyph-name="u043B" unicode="&#x43b;" horiz-adv-x="1210" 
d="M829 0l-215 621l-231 -621h-363l396 1020h401l375 -1020h-363z" />
    <glyph glyph-name="u043C" unicode="&#x43c;" horiz-adv-x="1521" 
d="M1391 1020v-1020h-336v555l-264 -360h-58l-266 356v-551h-336v1020h295l338 -412l332 412h295z" />
    <glyph glyph-name="u043D" unicode="&#x43d;" horiz-adv-x="1275" 
d="M467 0h-336v1020h336v-377h342v377h336v-1020h-336v385h-342v-385z" />
    <glyph glyph-name="u043E" unicode="&#x43e;" horiz-adv-x="1296" 
d="M891 514q0 105 -68 183q-68 79 -177 78q-110 -1 -174 -77t-64 -184q0 -107 65 -186q65 -80 178 -79t176 81q64 80 64 184zM647 -33q-236 0 -401 151q-164 151 -164 396q0 244 163 391q163 148 401 148q239 0 403 -147q165 -147 165 -391q0 -245 -165 -397
q-166 -151 -402 -151z" />
    <glyph glyph-name="u043F" unicode="&#x43f;" horiz-adv-x="1259" 
d="M467 0h-336v1020h997v-1020h-335v760h-326v-760z" />
    <glyph glyph-name="u0440" unicode="&#x440;" horiz-adv-x="1345" 
d="M875 698q-65 77 -174 77q-110 -1 -178 -80t-68 -183t69 -184t180 -79q110 1 173 79t63 186t-65 184zM1266 514q0 -106 -33 -204q-69 -205 -248 -294q-91 -45 -195 -45t-188 38t-131 104h-4v-605h-336v1512h320v-125h6q47 61 130 107t195 46q218 1 351 -156
q133 -158 133 -378z" />
    <glyph glyph-name="u0441" unicode="&#x441;" horiz-adv-x="1030" 
d="M659 250q121 0 183 76l186 -228q-64 -61 -164 -96t-217 -35q-245 0 -406 149t-161 393q0 245 162 394q162 150 407 150q102 0 207 -36t172 -102l-194 -225q-29 37 -78 60q-101 48 -197 1q-87 -45 -122 -141q-17 -47 -17 -100q0 -173 140 -240q44 -20 99 -20z" />
    <glyph glyph-name="u0442" unicode="&#x442;" horiz-adv-x="985" 
d="M41 1020h903v-260h-285v-760h-335v760h-283v260z" />
    <glyph glyph-name="u0443" unicode="&#x443;" horiz-adv-x="1161" 
d="M234 -205q63 0 98 36t59 101l33 84l-426 1004h373l227 -655h6l203 655h356l-456 -1174q-65 -169 -165 -253q-100 -85 -284 -85q-99 0 -184 23l37 283q60 -19 123 -19z" />
    <glyph glyph-name="u0444" unicode="&#x444;" horiz-adv-x="1531" 
d="M606 780q-213 -11 -213 -271t213 -273v544zM1139 506q0 260 -215 274v-544q119 8 167 82t48 188zM924 -492h-318v467q-221 4 -372 155q-152 152 -152 377t146 376t378 159v506h318v-506q228 -4 377 -156t149 -377t-147 -378q-148 -152 -379 -156v-467z" />
    <glyph glyph-name="u0445" unicode="&#x445;" horiz-adv-x="1216" 
d="M827 0l-219 313l-225 -313h-389l407 535l-368 485h391l190 -272l193 272h379l-367 -485l404 -535h-396z" />
    <glyph glyph-name="u0446" unicode="&#x446;" horiz-adv-x="1302" 
d="M131 1020h336v-760h330v760h336v-760h159v-545h-274v285h-887v1020z" />
    <glyph glyph-name="u0447" unicode="&#x447;" horiz-adv-x="1239" 
d="M84 1020h336v-137q0 -193 24 -245t57 -72q34 -20 93 -19h178v473h336v-1020h-336v248l-227 2q-372 6 -440 288q-22 91 -21 205v277z" />
    <glyph glyph-name="u0448" unicode="&#x448;" horiz-adv-x="1812" 
d="M131 0v1020h336v-760h270v760h336v-760h273v760h335v-1020h-1550z" />
    <glyph glyph-name="u0449" unicode="&#x449;" horiz-adv-x="1777" 
d="M131 1020h336v-760h233v760h334v-760h234v760h336v-760h163v-545h-274v285h-1362v1020z" />
    <glyph glyph-name="u044A" unicode="&#x44a;" horiz-adv-x="1308" 
d="M621 236h155q70 0 114 26t44 94q0 70 -46 95t-116 24h-151v-239zM621 1020v-309h219q318 0 395 -214q51 -143 -4 -280q-56 -136 -206 -189q-77 -28 -177 -28h-563v760h-244v260h580z" />
    <glyph glyph-name="u044B" unicode="&#x44b;" horiz-adv-x="1667" 
d="M1536 1020v-1020h-336v1020h336zM467 236h164q69 0 113 26t44 94q0 70 -46 95t-115 24h-160v-239zM467 1020v-309h227q319 0 396 -214q51 -145 -5 -281t-205 -188q-77 -28 -178 -28h-571v1020h336z" />
    <glyph glyph-name="u044C" unicode="&#x44c;" horiz-adv-x="1163" 
d="M467 236h164q69 0 113 26t44 94q0 70 -46 95t-115 24h-160v-239zM467 1020v-309h227q319 0 396 -214q51 -145 -5 -281t-205 -188q-77 -28 -178 -28h-571v1020h336z" />
    <glyph glyph-name="u044D" unicode="&#x44d;" horiz-adv-x="1153" 
d="M1071 510q0 -234 -157 -389q-157 -154 -400 -154q-285 0 -453 219l222 179q29 -49 88 -87t151 -38t146 42q53 42 75 134h-391v202h391q-52 166 -231 166q-154 0 -225 -129l-215 185q59 88 168 151t259 63q149 0 253 -40q208 -82 282 -287q37 -100 37 -217z" />
    <glyph glyph-name="u044E" unicode="&#x44e;" horiz-adv-x="1792" 
d="M1319 698q-67 78 -179 77q-111 -1 -173 -77t-63 -182q-1 -107 65 -187t177 -80q112 1 176 80t64 185t-67 184zM1544 118q-166 -151 -387 -151t-378 119t-193 320h-119v-406h-336v1020h336v-354h129q49 178 200 282q151 105 347 105q239 0 403 -147t164 -392t-166 -396z
" />
    <glyph glyph-name="u044F" unicode="&#x44f;" horiz-adv-x="1085" 
d="M389 637q0 -39 36 -55t138 -17h113v174h-115q-109 0 -134 -14q-25 -13 -31 -31t-7 -57zM68 743q0 277 405 277h539v-1020h-336v305h-68q-104 0 -148 -47q-63 -65 -89 -258h-371q36 198 123 304t184 130v6q-174 21 -221 166q-18 55 -18 137z" />
    <glyph glyph-name="u0451" unicode="&#x451;" horiz-adv-x="1171" 
d="M625 1347q-1 -71 -51 -119t-122 -48t-120 49q-49 49 -49 117t48 118t121 49q73 1 123 -47t50 -119zM916 1513q54 1 103 -47q50 -48 50 -119t-50 -119t-121 -48t-120 49t-49 119q0 33 13 62q45 103 174 103zM676 -33q-239 0 -400 144t-161 392q0 247 157 398
q157 152 390 152q232 0 374 -150t142 -405v-41q0 -20 -2 -39h-740q8 -82 79 -137q71 -54 165 -56q145 0 225 107l234 -148q-149 -215 -463 -217zM868 627q0 80 -50 137t-148 57t-163 -56q-64 -56 -71 -138h432z" />
    <glyph glyph-name="u0452" unicode="&#x452;" horiz-adv-x="1277" 
d="M809 53v477q0 200 -91 229q-28 9 -59 9q-182 0 -182 -240v-528h-336v1167h-141v183h141v198h336v-198h303v-183h-303v-280h4q79 162 303 162q177 0 277 -131q84 -110 86 -310v-559q0 -330 -243 -438q-88 -41 -202 -41q-184 0 -331 104l135 195q64 -45 143 -45
q160 0 160 229z" />
    <glyph glyph-name="u0453" unicode="&#x453;" horiz-adv-x="931" 
d="M592 1171h-254l213 295h340zM467 0h-336v1020h717v-258h-381v-762z" />
    <glyph glyph-name="u0454" unicode="&#x454;" horiz-adv-x="1153" 
d="M641 784q-179 0 -231 -166h391v-202h-391q41 -176 243 -176q72 0 130 38t87 87l222 -179q-168 -219 -453 -219q-252 -1 -404 151q-153 152 -153 392t147 392q147 153 406 153q171 1 279 -63t167 -152l-215 -185q-71 129 -225 129z" />
    <glyph glyph-name="u0455" unicode="&#x455;" horiz-adv-x="1056" 
d="M446 730q0 -44 44 -62t122 -36q349 -78 346 -317q0 -179 -140 -270q-114 -76 -268 -77q-309 -2 -472 157l188 199q45 -49 111 -82t123 -33q137 0 137 88q0 47 -49 70t-128 41q-159 36 -228 94q-95 79 -95 209q0 169 139 262q116 78 258 79q284 2 437 -143l-185 -190
q-97 92 -213 92q-47 0 -87 -18q-40 -19 -40 -63z" />
    <glyph glyph-name="u0456" unicode="&#x456;" horiz-adv-x="606" 
d="M135 0v1020h336v-1020h-336zM496 1346q0 -39 -16 -73q-50 -109 -177 -112q-82 0 -137 54t-55 132t56 129q56 52 138 53q81 1 136 -53t55 -130z" />
    <glyph glyph-name="u0457" unicode="&#x457;" horiz-adv-x="606" 
d="M256 1347q0 -71 -50 -119t-122 -48t-121 49t-49 117t48 118t121 49q73 1 123 -47t50 -119zM700 1347q0 -71 -50 -119t-121 -48t-119 49t-50 117q0 68 49 117q49 50 120 50q71 1 121 -47t50 -119zM135 0v1020h336v-1020h-336z" />
    <glyph glyph-name="u0458" unicode="&#x458;" horiz-adv-x="612" 
d="M18 -205q74 0 99 50t24 128v1047h336v-1047q0 -217 -80 -327q-99 -138 -327 -138q-84 0 -146 17l23 280q30 -10 71 -10zM502 1346q0 -39 -16 -73q-50 -109 -177 -112q-82 0 -137 54t-55 132t56 129q56 52 138 53q81 1 136 -53t55 -130z" />
    <glyph glyph-name="u0459" unicode="&#x459;" horiz-adv-x="1585" 
d="M1044 236q147 0 169 70q28 88 -29 137q-37 32 -140 32h-98l76 -239h22zM1122 711q226 0 335 -111q87 -89 87 -253t-118 -256q-118 -91 -318 -91h-342l-184 621l-199 -621h-334l342 1020h385l96 -309h250z" />
    <glyph glyph-name="u045A" unicode="&#x45a;" horiz-adv-x="1849" 
d="M1317 236q158 0 158 110t-162 109h-152v-219h156zM467 1020v-330h358v330h336v-330h219q319 0 396 -210q50 -136 -5 -268q-56 -132 -205 -184q-77 -28 -177 -28h-564v430h-358v-430h-336v1020h336z" />
    <glyph glyph-name="u045B" unicode="&#x45b;" horiz-adv-x="1269" 
d="M809 553q0 215 -150 215q-88 0 -135 -62t-47 -155v-551h-336v1167h-141v183h141v198h336v-198h303v-183h-303v-276h4q35 61 111 109t181 48q192 1 291 -132q81 -106 83 -285v-631h-338v553z" />
    <glyph glyph-name="u045C" unicode="&#x45c;" horiz-adv-x="1214" 
d="M737 1171h-254l213 295h340zM467 0h-336v1020h336v-371q45 -2 88 -12l233 383h371l-321 -494q128 -86 204 -219t121 -307h-370q-44 204 -121 289q-76 85 -205 102v-391z" />
    <glyph glyph-name="u045E" unicode="&#x45e;" horiz-adv-x="1161" 
d="M234 -205q63 0 98 36t59 101l33 84l-426 1004h373l227 -655h6l203 655h356l-456 -1174q-65 -169 -165 -253q-100 -85 -284 -85q-99 0 -184 23l37 283q60 -19 123 -19zM580 1356q62 0 117 36q56 36 85 93l162 -88q-32 -85 -134 -147q-103 -62 -230 -62q-192 0 -313 128
q-36 38 -52 81l162 88q29 -57 85 -93t118 -36z" />
    <glyph glyph-name="u045F" unicode="&#x45f;" horiz-adv-x="1265" 
d="M770 0v-285h-274v285h-365v1020h336v-760h332v760h336v-1020h-365z" />
    <glyph glyph-name="u0490" unicode="&#x490;" horiz-adv-x="1089" 
d="M760 1714h258v-569h-561v-1145h-353v1450h656v264z" />
    <glyph glyph-name="u0491" unicode="&#x491;" horiz-adv-x="909" 
d="M465 0h-334v1020h438v278h279v-538h-383v-760z" />
    <glyph glyph-name="palochkacyrillic" unicode="&#x4c0;" horiz-adv-x="651" 
d="M150 0v1450h352v-1450h-352z" />
    <glyph glyph-name="Aiecyrillic" unicode="&#x4d4;" horiz-adv-x="2115" 
d="M1053 1153h-21l-313 -557h334v557zM1053 0v313h-473l-181 -313h-407l848 1450h1157v-297h-611v-272h576v-281h-576v-301h648v-299h-981z" />
    <glyph glyph-name="aiecyrillic" unicode="&#x4d5;" horiz-adv-x="1841" 
d="M723 639q0 164 -182 164q-72 0 -140 -31t-114 -74l-168 183q88 86 208 129q119 43 245 43t207 -45t122 -105q55 66 145 108t204 42t208 -38q192 -78 267 -284q38 -102 38 -233q0 -42 -4 -80h-737q10 -86 80 -139t162 -54q150 0 225 107l231 -148q-149 -215 -463 -217
q-121 0 -222 48t-161 137q-106 -175 -413 -177q-152 0 -262 73q-133 89 -131 247q0 194 202 271q144 57 453 59v14zM1452 627q0 80 -50 137t-149 57t-164 -57t-69 -137h432zM377 305q0 -104 165 -104q82 0 137 51q54 51 54 139v33h-43q-145 0 -229 -23t-84 -96z" />
    <glyph glyph-name="Aringbelow" unicode="&#x1e00;" horiz-adv-x="1492" 
d="M866 -373q0 51 -35 85t-87 34t-86 -35t-34 -85t36 -84q34 -34 85 -34t86 34t35 85zM587 -216q65 62 158 62t159 -63q65 -63 65 -158t-65 -155t-158 -61t-158 60q-64 61 -65 156q-1 97 64 159zM743 1063l-184 -498h365zM1133 0l-113 285h-561l-107 -285h-381l609 1450h340
l602 -1450h-389z" />
    <glyph glyph-name="aringbelow" unicode="&#x1e01;" 
d="M674 -397q0 51 -35 85t-87 34t-86 -36q-34 -34 -34 -84t35 -84t86 -34t86 34t35 85zM711 -555q-65 -61 -158 -61t-158 61t-65 156q0 96 64 158q65 63 158 63t159 -63q65 -63 65 -158t-65 -156zM68 295q0 344 655 344v16q0 76 -53 112t-128 36t-142 -31t-113 -74l-170 183
q90 86 210 129q121 43 247 43q252 0 360 -130q108 -132 106 -409v-514h-307v109h-6q-39 -63 -118 -99t-155 -35q-160 0 -263 70q-125 86 -123 250zM733 444h-43q-313 0 -313 -139q0 -53 42 -78q42 -26 103 -26q102 0 157 56q54 56 54 153v34z" />
    <glyph glyph-name="uni1E02" unicode="&#x1e02;" horiz-adv-x="1361" 
d="M838 1739q0 -74 -54 -124t-131 -50q-78 0 -130 51t-52 123t52 124t130 52q77 0 131 -51t54 -125zM930 455q0 90 -68 125t-180 34h-195v-331h197q170 0 223 85q23 34 23 87zM883 1030q0 143 -224 141h-172v-299h189q98 0 152 40t55 118zM1280 398q0 -96 -47 -176
q-129 -222 -506 -222h-577v1450h577q329 0 449 -190q45 -72 45 -188t-66 -194t-172 -114v-4q61 -10 116 -38q181 -94 181 -324z" />
    <glyph glyph-name="uni1E03" unicode="&#x1e03;" horiz-adv-x="1349" 
d="M489 1800q0 -74 -53 -124t-131 -50t-130 51t-52 123t52 124t130 52t131 -51t53 -125zM878 699q-66 77 -175 76t-178 -80q-68 -79 -68 -183t69 -184t179 -79q109 1 174 78t65 186t-66 186zM1268 514q0 -106 -33 -204q-69 -205 -248 -294q-91 -45 -199 -45t-199 42
t-140 120h-5v-133h-309v1548h336v-637h4q43 51 121 95t190 43q216 0 349 -158q133 -157 133 -377z" />
    <glyph glyph-name="Bdotbelow" unicode="&#x1e04;" horiz-adv-x="1361" 
d="M879 -330q1 -74 -53 -124t-132 -50t-130 51t-52 123t52 124t130 52t132 -51t53 -125zM930 455q0 90 -68 125t-180 34h-195v-331h197q170 0 223 85q23 34 23 87zM883 1030q0 143 -224 141h-172v-299h189q98 0 152 40t55 118zM1280 398q0 -96 -47 -176q-129 -222 -506 -222
h-577v1450h577q329 0 449 -190q45 -72 45 -188t-66 -194t-172 -114v-4q61 -10 116 -38q181 -94 181 -324z" />
    <glyph glyph-name="bdotbelow" unicode="&#x1e05;" horiz-adv-x="1349" 
d="M926 -358q0 -74 -54 -124t-131 -50q-78 0 -130 51t-52 123t52 124t130 52q77 0 131 -51t54 -125zM878 699q-66 77 -175 76t-178 -80q-68 -79 -68 -183t69 -184t179 -79q109 1 174 78t65 186t-66 186zM1268 514q0 -106 -33 -204q-69 -205 -248 -294q-91 -45 -199 -45
t-199 42t-140 120h-5v-133h-309v1548h336v-637h4q43 51 121 95t190 43q216 0 349 -158q133 -157 133 -377z" />
    <glyph glyph-name="Blinebelow" unicode="&#x1e06;" horiz-adv-x="1361" 
d="M268 -330v176h688v-176h-688zM930 455q0 90 -68 125t-180 34h-195v-331h197q170 0 223 85q23 34 23 87zM883 1030q0 143 -224 141h-172v-299h189q98 0 152 40t55 118zM1280 398q0 -96 -47 -176q-129 -222 -506 -222h-577v1450h577q329 0 449 -190q45 -72 45 -188
t-66 -194t-172 -114v-4q61 -10 116 -38q181 -94 181 -324z" />
    <glyph glyph-name="blinebelow" unicode="&#x1e07;" horiz-adv-x="1349" 
d="M295 -358v176h688v-176h-688zM878 699q-66 77 -175 76t-178 -80q-68 -79 -68 -183t69 -184t179 -79q109 1 174 78t65 186t-66 186zM1268 514q0 -106 -33 -204q-69 -205 -248 -294q-91 -45 -199 -45t-199 42t-140 120h-5v-133h-309v1548h336v-637h4q43 51 121 95t190 43
q216 0 349 -158q133 -157 133 -377z" />
    <glyph glyph-name="Ccedillaacute" unicode="&#x1e08;" horiz-adv-x="1425" 
d="M895 1642h-254l213 295h340zM877 -121q210 0 210 -174q-1 -55 -29 -94q-72 -99 -272 -103q-139 0 -243 52l55 123q84 -39 180 -39t94 67q0 37 -32 48q-77 26 -146 -1l-63 60l112 151q-292 36 -477 243q-184 206 -184 532t224 536q224 209 562 209q154 0 302 -54t241 -159
l-237 -238q-50 68 -130 101q-169 69 -332 -1q-155 -68 -218 -234q-31 -81 -31 -178t31 -179q62 -163 215 -232q77 -33 173 -33t174 42q78 41 126 106l243 -229q-191 -220 -520 -238l-65 -86q10 2 18 2h19z" />
    <glyph glyph-name="ccedillaacute" unicode="&#x1e09;" horiz-adv-x="1030" 
d="M592 1206h-254l213 295h340zM670 -121q211 0 211 -174q0 -55 -29 -94q-74 -99 -272 -103q-138 0 -244 52l55 123q84 -39 180 -39q95 0 95 67q0 57 -97 60q-49 0 -82 -13l-63 60l119 157q-204 29 -334 174q-129 145 -129 375t162 379q162 150 407 150q102 0 207 -36
t172 -102l-194 -225q-29 37 -78 60q-101 48 -197 1q-87 -45 -122 -141q-17 -47 -17 -100q0 -173 140 -240q44 -20 99 -20q121 0 183 76l186 -228q-116 -112 -323 -129l-72 -92q10 2 18 2h19z" />
    <glyph glyph-name="uni1E0A" unicode="&#x1e0a;" horiz-adv-x="1585" 
d="M903 1739q0 -74 -53 -124t-131 -50t-130 51t-52 123t52 124t130 52t131 -51t53 -125zM992 395q147 108 147 335t-147 332q-121 87 -326 89h-174v-848h165q209 0 335 92zM1503 736q0 -366 -257 -563q-225 -173 -556 -173h-540v1450h524q154 0 303 -36q319 -76 455 -341
q72 -139 71 -337z" />
    <glyph glyph-name="uni1E0B" unicode="&#x1e0b;" horiz-adv-x="1347" 
d="M1229 1800q0 -74 -53 -124q-54 -50 -132 -50t-130 51t-52 123t52 124t130 52t132 -51t53 -125zM891 512q0 103 -70 183q-70 81 -178 80t-173 -76t-66 -184t65 -188t176 -78t178 81q68 79 68 182zM903 0v133h-4q-49 -78 -140 -120t-200 -42t-199 45t-152 120
q-128 155 -128 376q0 222 132 379q132 158 349 158q113 0 191 -43t120 -95h5v637h335v-1548h-309z" />
    <glyph glyph-name="Ddotbelow" unicode="&#x1e0c;" horiz-adv-x="1585" 
d="M907 -330q0 -74 -53 -124t-131 -50t-130 51t-52 123t52 124t130 52t131 -51t53 -125zM992 395q147 108 147 335t-147 332q-121 87 -326 89h-174v-848h165q209 0 335 92zM1503 736q0 -366 -257 -563q-225 -173 -556 -173h-540v1450h524q154 0 303 -36q319 -76 455 -341
q72 -139 71 -337z" />
    <glyph glyph-name="ddotbelow" unicode="&#x1e0d;" horiz-adv-x="1347" 
d="M965 -358q1 -74 -53 -124t-132 -50t-130 51t-52 123t52 124t130 52t132 -51t53 -125zM891 512q0 103 -70 183q-70 81 -178 80t-173 -76t-66 -184t65 -188t176 -78t178 81q68 79 68 182zM903 0v133h-4q-49 -78 -140 -120t-200 -42t-199 45t-152 120q-128 155 -128 376
q0 222 132 379q132 158 349 158q113 0 191 -43t120 -95h5v637h335v-1548h-309z" />
    <glyph glyph-name="Dlinebelow" unicode="&#x1e0e;" horiz-adv-x="1585" 
d="M317 -330v176h689v-176h-689zM992 395q147 108 147 335t-147 332q-121 87 -326 89h-174v-848h165q209 0 335 92zM1503 736q0 -366 -257 -563q-225 -173 -556 -173h-540v1450h524q154 0 303 -36q319 -76 455 -341q72 -139 71 -337z" />
    <glyph glyph-name="dlinebelow" unicode="&#x1e0f;" horiz-adv-x="1347" 
d="M403 -358v176h689v-176h-689zM891 512q0 103 -70 183q-70 81 -178 80t-173 -76t-66 -184t65 -188t176 -78t178 81q68 79 68 182zM903 0v133h-4q-49 -78 -140 -120t-200 -42t-199 45t-152 120q-128 155 -128 376q0 222 132 379q132 158 349 158q113 0 191 -43t120 -95h5
v637h335v-1548h-309z" />
    <glyph glyph-name="Dcommaaccent" unicode="&#x1e10;" horiz-adv-x="1585" 
d="M700 -735h-276l154 581h321zM992 395q147 108 147 335t-147 332q-121 87 -326 89h-174v-848h165q209 0 335 92zM1503 736q0 -366 -257 -563q-225 -173 -556 -173h-540v1450h524q154 0 303 -36q319 -76 455 -341q72 -139 71 -337z" />
    <glyph glyph-name="dcommaaccent" unicode="&#x1e11;" horiz-adv-x="1347" 
d="M766 -764h-277l154 582h322zM891 512q0 103 -70 183q-70 81 -178 80t-173 -76t-66 -184t65 -188t176 -78t178 81q68 79 68 182zM903 0v133h-4q-49 -78 -140 -120t-200 -42t-199 45t-152 120q-128 155 -128 376q0 222 132 379q132 158 349 158q113 0 191 -43t120 -95h5
v637h335v-1548h-309z" />
    <glyph glyph-name="Dcircumflexbelow" unicode="&#x1e12;" horiz-adv-x="1585" 
d="M819 -449l-139 166l-139 -166h-262l253 295h304l249 -295h-266zM992 395q147 108 147 335t-147 332q-121 87 -326 89h-174v-848h165q209 0 335 92zM1503 736q0 -366 -257 -563q-225 -173 -556 -173h-540v1450h524q154 0 303 -36q319 -76 455 -341q72 -139 71 -337z" />
    <glyph glyph-name="dcircumflexbelow" unicode="&#x1e13;" horiz-adv-x="1347" 
d="M905 -477l-139 166l-139 -166h-262l253 295h304l249 -295h-266zM891 512q0 103 -70 183q-70 81 -178 80t-173 -76t-66 -184t65 -188t176 -78t178 81q68 79 68 182zM903 0v133h-4q-49 -78 -140 -120t-200 -42t-199 45t-152 120q-128 155 -128 376q0 222 132 379
q132 158 349 158q113 0 191 -43t120 -95h5v637h335v-1548h-309z" />
    <glyph glyph-name="Emacrongrave" unicode="&#x1e14;" horiz-adv-x="1243" 
d="M559 1933l-299 295h340l213 -295h-254zM311 1604v176h688v-176h-688zM150 0v1450h974v-297h-637v-272h603v-281h-603v-301h674v-299h-1011z" />
    <glyph glyph-name="emacrongrave" unicode="&#x1e15;" horiz-adv-x="1220" 
d="M551 1536l-299 295h340l213 -295h-254zM266 1206v176h688v-176h-688zM641 -33q-239 0 -400 144t-161 392q0 247 158 399q158 151 390 151q233 0 374 -150t141 -405v-41q0 -20 -2 -39h-740q8 -82 79 -137q71 -54 165 -56q145 0 225 107l234 -148q-149 -215 -463 -217z
M834 627q0 80 -50 137t-149 57q-98 0 -163 -56q-64 -56 -71 -138h433z" />
    <glyph glyph-name="Emacronacute" unicode="&#x1e16;" horiz-adv-x="1243" 
d="M776 1933h-254l213 295h340zM311 1604v176h688v-176h-688zM150 0v1450h974v-297h-637v-272h603v-281h-603v-301h674v-299h-1011z" />
    <glyph glyph-name="emacronacute" unicode="&#x1e17;" horiz-adv-x="1220" 
d="M731 1536h-254l213 295h340zM266 1206v176h688v-176h-688zM641 -33q-239 0 -400 144t-161 392q0 247 158 399q158 151 390 151q233 0 374 -150t141 -405v-41q0 -20 -2 -39h-740q8 -82 79 -137q71 -54 165 -56q145 0 225 107l234 -148q-149 -215 -463 -217zM834 627
q0 80 -50 137t-149 57q-98 0 -163 -56q-64 -56 -71 -138h433z" />
    <glyph glyph-name="Ecircumflexbelow" unicode="&#x1e18;" horiz-adv-x="1243" 
d="M793 -449l-140 166l-139 -166h-262l254 295h303l250 -295h-266zM150 0v1450h974v-297h-637v-272h603v-281h-603v-301h674v-299h-1011z" />
    <glyph glyph-name="ecircumflexbelow" unicode="&#x1e19;" horiz-adv-x="1220" 
d="M748 -481l-140 166l-139 -166h-262l254 295h303l250 -295h-266zM641 -33q-239 0 -400 144t-161 392q0 247 158 399q158 151 390 151q233 0 374 -150t141 -405v-41q0 -20 -2 -39h-740q8 -82 79 -137q71 -54 165 -56q145 0 225 107l234 -148q-149 -215 -463 -217zM834 627
q0 80 -50 137t-149 57q-98 0 -163 -56q-64 -56 -71 -138h433z" />
    <glyph glyph-name="Etildebelow" unicode="&#x1e1a;" horiz-adv-x="1243" 
d="M901 -401q-41 -23 -105 -23t-157 43q-73 41 -130 41t-85 -82h-148q21 183 129 241t267 -16q150 -70 190 -17q18 24 29 60h145q-21 -186 -135 -247zM150 0v1450h974v-297h-637v-272h603v-281h-603v-301h674v-299h-1011z" />
    <glyph glyph-name="etildebelow" unicode="&#x1e1b;" horiz-adv-x="1220" 
d="M856 -434q-41 -22 -103 -23q-62 0 -159 43q-73 41 -120 41q-46 -1 -65 -25t-30 -57h-148q21 186 136 245q41 22 104 22t154 -41q92 -41 133 -41t59 24t29 60h145q-21 -185 -135 -248zM641 -33q-239 0 -400 144t-161 392q0 247 158 399q158 151 390 151q233 0 374 -150
t141 -405v-41q0 -20 -2 -39h-740q8 -82 79 -137q71 -54 165 -56q145 0 225 107l234 -148q-149 -215 -463 -217zM834 627q0 80 -50 137t-149 57q-98 0 -163 -56q-64 -56 -71 -138h433z" />
    <glyph glyph-name="Ecedillabreve" unicode="&#x1e1c;" horiz-adv-x="1243" 
d="M655 1786q70 0 120 20t65 92h172q-11 -150 -108 -222t-251 -72q-233 0 -318 158q-30 56 -36 136h172q23 -112 184 -112zM150 0v1450h974v-297h-637v-272h603v-281h-603v-301h674v-299h-385l-96 -123q10 2 18 2h19q92 1 132 -25q79 -50 79 -152q0 -101 -103 -153
q-75 -38 -168 -40q-166 -2 -274 51l55 123q84 -39 180 -39q95 0 95 67q0 57 -97 60q-49 0 -81 -13l-64 60l137 182h-458z" />
    <glyph glyph-name="ecedillabreve" unicode="&#x1e1d;" horiz-adv-x="1220" 
d="M834 627q0 80 -50 137t-149 57q-98 0 -163 -56q-64 -56 -71 -138h433zM610 1389q70 0 120 20t65 92h172q-11 -150 -107 -221q-96 -72 -252 -74q-233 0 -318 159q-30 56 -36 136h172q23 -112 184 -112zM672 -154q211 0 211 -174q0 -105 -103 -155q-80 -41 -171 -41
q-167 0 -271 51l55 123q84 -39 180 -39q95 0 95 67q0 60 -97 60q-46 0 -82 -12l-63 59l129 188q-209 25 -338 160q-137 148 -137 383t158 386t390 151q233 0 374 -150t141 -405v-41q0 -20 -2 -39h-740q8 -82 79 -137q71 -54 165 -56q145 0 225 107l234 -148
q-129 -184 -381 -213l-88 -127q10 2 18 2h19z" />
    <glyph glyph-name="uni1E1E" unicode="&#x1e1e;" horiz-adv-x="1179" 
d="M809 1739q0 -74 -53 -124t-131 -50t-130 51t-53 123q0 72 52 124t131 52q78 0 131 -51t53 -125zM496 1151v-299h561v-289h-561v-563h-346v1450h954v-299h-608z" />
    <glyph glyph-name="uni1E1F" unicode="&#x1e1f;" horiz-adv-x="745" 
d="M563 1825q0 -74 -53 -124t-131 -50t-130 51t-52 123t52 124t130 52t131 -51t53 -125zM672 1315q-150 0 -150 -193v-102h228v-252h-228v-768h-336v768h-186v252h186v98q0 332 227 431q85 38 195 38t178 -20l-22 -267q-45 15 -92 15z" />
    <glyph glyph-name="Gmacron" unicode="&#x1e20;" horiz-adv-x="1574" 
d="M477 1642v177h688v-177h-688zM1438 88q-241 -125 -576 -125t-557 212q-223 212 -223 554t224 551t562 209q172 0 320 -52t239 -141l-221 -252q-51 60 -135 98t-183 38q-189 0 -313 -128q-122 -128 -121 -330q1 -201 117 -326q116 -126 326 -126q127 0 219 39v264h-276
v283h598v-768z" />
    <glyph glyph-name="gmacron" unicode="&#x1e21;" horiz-adv-x="1347" 
d="M383 1202v176h688v-176h-688zM893 516q0 110 -69 184t-180 74q-110 0 -174 -74t-64 -182q0 -109 66 -186q66 -76 174 -76q109 0 178 76q69 75 69 184zM877 125q-104 -135 -319 -135t-346 152q-132 152 -132 372t132 378q132 157 353 157q97 0 185 -39t141 -121h4v131h317
v-924q0 -291 -159 -439q-159 -149 -441 -149q-135 0 -277 41t-247 119l168 240q145 -129 338 -129q147 0 218 78t71 206v62h-6z" />
    <glyph glyph-name="uni1E22" unicode="&#x1e22;" horiz-adv-x="1564" 
d="M967 1739q1 -74 -53 -124t-132 -50t-130 51t-52 123t52 124t130 52t132 -51t53 -125zM1065 0v606h-565v-606h-350v1450h350v-549h565v549h350v-1450h-350z" />
    <glyph glyph-name="uni1E23" unicode="&#x1e23;" horiz-adv-x="1263" 
d="M498 1800q0 -74 -54 -124t-131 -50q-78 0 -130 51t-52 123t52 124t130 52q77 0 131 -51t54 -125zM803 553q0 215 -150 215q-88 0 -135 -62t-47 -155v-551h-336v1548h336v-657h4q35 61 111 109t181 48q192 1 291 -132q81 -106 83 -285v-631h-338v553z" />
    <glyph glyph-name="Hdotbelow" unicode="&#x1e24;" horiz-adv-x="1564" 
d="M967 -330q1 -74 -53 -124t-132 -50t-130 51t-52 123t52 124t130 52t132 -51t53 -125zM1065 0v606h-565v-606h-350v1450h350v-549h565v549h350v-1450h-350z" />
    <glyph glyph-name="hdotbelow" unicode="&#x1e25;" horiz-adv-x="1263" 
d="M821 -330q0 -74 -53 -124t-131 -50t-130 51t-52 123t52 124t130 52t131 -51t53 -125zM803 553q0 215 -150 215q-88 0 -135 -62t-47 -155v-551h-336v1548h336v-657h4q35 61 111 109t181 48q192 1 291 -132q81 -106 83 -285v-631h-338v553z" />
    <glyph glyph-name="Hdieresis" unicode="&#x1e26;" horiz-adv-x="1564" 
d="M731 1771q0 -71 -50 -119t-122 -48t-121 49t-49 117t48 118t121 49q73 1 123 -47t50 -119zM1022 1937q54 1 104 -47t50 -119t-50 -119t-122 -48q-70 0 -119 49t-49 119q0 33 13 62q44 103 173 103zM1065 0v606h-565v-606h-350v1450h350v-549h565v549h350v-1450h-350z" />
    <glyph glyph-name="hdieresis" unicode="&#x1e27;" horiz-adv-x="1263" 
d="M254 1869q0 -71 -50 -119t-122 -48t-121 49t-49 116t47 117q47 49 121 51q74 1 124 -47t50 -119zM698 1869q0 -71 -50 -119t-121 -48t-119 49t-50 116q0 67 48 117t120 51t122 -47t50 -119zM803 553q0 215 -150 215q-88 0 -135 -62t-47 -155v-551h-336v1548h336v-657h4
q35 61 111 109t181 48q192 1 291 -132q81 -106 83 -285v-631h-338v553z" />
    <glyph glyph-name="Hcedilla" unicode="&#x1e28;" horiz-adv-x="1564" 
d="M440 -121q211 0 211 -170q0 -108 -102 -160q-75 -39 -169 -40q-166 -2 -274 51l56 123q84 -39 179 -39t95 67q0 57 -96 60q-49 0 -82 -13l-63 60l137 182h-182v1450h350v-549h565v549h350v-1450h-350v606h-565v-606l-97 -123q10 2 19 2h18z" />
    <glyph glyph-name="hcedilla" unicode="&#x1e29;" horiz-adv-x="1263" 
d="M412 -121q211 0 211 -174q0 -55 -29 -94q-74 -99 -272 -103q-140 0 -244 52l55 123q84 -39 180 -39q95 0 95 67q0 57 -97 60q-49 0 -82 -13l-63 60l137 182h-168v1548h336v-657h4q35 61 111 109t181 48q192 1 291 -132q81 -106 83 -285v-631h-338v553q0 215 -150 215
q-88 0 -135 -62t-47 -155v-551l-96 -123q10 2 18 2h19z" />
    <glyph glyph-name="Hbrevebelow" unicode="&#x1e2a;" horiz-adv-x="1564" 
d="M782 -266q70 0 120 20t65 92h172q-11 -150 -107 -221q-96 -72 -252 -74q-233 0 -318 159q-30 56 -36 136h172q23 -112 184 -112zM1065 0v606h-565v-606h-350v1450h350v-549h565v549h350v-1450h-350z" />
    <glyph glyph-name="hbrevebelow" unicode="&#x1e2b;" horiz-adv-x="1263" 
d="M637 -266q70 0 120 20t64 92h172q-11 -149 -107 -221t-251 -74q-234 0 -319 159q-30 56 -35 136h172q23 -112 184 -112zM803 553q0 215 -150 215q-88 0 -135 -62t-47 -155v-551h-336v1548h336v-657h4q35 61 111 109t181 48q192 1 291 -132q81 -106 83 -285v-631h-338v553
z" />
    <glyph glyph-name="Itildebelow" unicode="&#x1e2c;" horiz-adv-x="651" 
d="M571 -401q-41 -23 -105 -23t-157 43q-73 41 -130 41t-85 -82h-147q21 184 128 241q107 58 267 -16q150 -70 190 -17q18 24 29 60h146q-21 -185 -136 -247zM150 0v1450h352v-1450h-352z" />
    <glyph glyph-name="itildebelow" unicode="&#x1e2d;" horiz-adv-x="606" 
d="M549 -401q-41 -23 -105 -23t-157 43q-73 41 -131 41t-84 -82h-148q21 182 129 241t266 -16q151 -70 191 -17q18 24 29 60h145q-21 -184 -135 -247zM135 0v1020h336v-1020h-336zM496 1346q0 -39 -16 -73q-50 -109 -177 -112q-82 0 -137 54t-55 132t56 129q56 52 138 53
q81 1 136 -53t55 -130z" />
    <glyph glyph-name="Idieresisacute" unicode="&#x1e2e;" horiz-adv-x="651" 
d="M446 2091h-253l213 295h339zM102 1937q72 1 122 -47t50 -119t-50 -119t-122 -48t-120 49t-50 117q0 68 49 117q49 50 121 50zM566 1937q54 1 103 -47q50 -48 50 -119t-50 -119t-121 -48t-120 49t-49 119q0 33 13 62q45 103 174 103zM150 0v1450h352v-1450h-352z" />
    <glyph glyph-name="idieresisacute" unicode="&#x1e2f;" horiz-adv-x="606" 
d="M424 1661h-254l213 295h340zM252 1340q0 -70 -50 -118t-122 -48t-121 49t-49 117t48 118t121 49q73 0 123 -48t50 -119zM696 1340q0 -70 -50 -118t-121 -48t-119 49t-50 117q0 68 49 117q49 50 120 50t121 -48t50 -119zM135 0v1020h336v-1020h-336z" />
    <glyph glyph-name="Kacute" unicode="&#x1e30;" horiz-adv-x="1456" 
d="M834 1604h-254l213 294h340zM494 668v-668h-344v1450h344v-590h6l518 590h438l-625 -668l662 -782h-457l-538 668h-4z" />
    <glyph glyph-name="kacute" unicode="&#x1e31;" horiz-adv-x="1218" 
d="M426 1702h-254l213 295h340zM471 489v-489h-338v1548h338v-942h6l326 414h407l-393 -461l410 -559h-416l-334 489h-6z" />
    <glyph glyph-name="Kdotbelow" unicode="&#x1e32;" horiz-adv-x="1456" 
d="M915 -330q0 -74 -53 -124t-131 -50t-130 51t-52 123t52 124t130 52t131 -51t53 -125zM494 668v-668h-344v1450h344v-590h6l518 590h438l-625 -668l662 -782h-457l-538 668h-4z" />
    <glyph glyph-name="kdotbelow" unicode="&#x1e33;" horiz-adv-x="1218" 
d="M805 -330q0 -74 -53 -124t-131 -50t-131 51q-52 51 -52 123t52 124t130 52t132 -51q53 -51 53 -125zM471 489v-489h-338v1548h338v-942h6l326 414h407l-393 -461l410 -559h-416l-334 489h-6z" />
    <glyph glyph-name="Klinebelow" unicode="&#x1e34;" horiz-adv-x="1456" 
d="M416 -330v176h688v-176h-688zM494 668v-668h-344v1450h344v-590h6l518 590h438l-625 -668l662 -782h-457l-538 668h-4z" />
    <glyph glyph-name="klinebelow" unicode="&#x1e35;" horiz-adv-x="1218" 
d="M295 -330v176h688v-176h-688zM471 489v-489h-338v1548h338v-942h6l326 414h407l-393 -461l410 -559h-416l-334 489h-6z" />
    <glyph glyph-name="Ldotbelow" unicode="&#x1e36;" horiz-adv-x="1077" 
d="M750 -330q0 -74 -54 -124t-131 -50q-78 0 -130 51t-52 123t52 124t130 52q77 0 131 -51t54 -125zM150 0v1450h352v-1145h561v-305h-913z" />
    <glyph glyph-name="ldotbelow" unicode="&#x1e37;" horiz-adv-x="610" 
d="M489 -330q0 -74 -53 -124t-131 -50t-130 51t-52 123t52 124t130 52t131 -51t53 -125zM135 0v1548h340v-1548h-340z" />
    <glyph glyph-name="Ldotbelowmacron" unicode="&#x1e38;" horiz-adv-x="1077" 
d="M-14 1604v176h688v-176h-688zM770 -330q0 -74 -53 -124t-131 -50t-130 51t-53 123q1 72 53 124t130 52t131 -51t53 -125zM150 0v1450h352v-1145h561v-305h-913z" />
    <glyph glyph-name="ldotbelowmacron" unicode="&#x1e39;" horiz-adv-x="610" 
d="M-39 1702v176h688v-176h-688zM489 -330q0 -74 -53 -124t-131 -50t-130 51t-52 123t52 124t130 52t131 -51t53 -125zM135 0v1548h340v-1548h-340z" />
    <glyph glyph-name="Llinebelow" unicode="&#x1e3a;" horiz-adv-x="1077" 
d="M242 -330v176h688v-176h-688zM150 0v1450h352v-1145h561v-305h-913z" />
    <glyph glyph-name="llinebelow" unicode="&#x1e3b;" horiz-adv-x="610" 
d="M-39 -330v176h688v-176h-688zM135 0v1548h340v-1548h-340z" />
    <glyph glyph-name="Lcircumflexbelow" unicode="&#x1e3c;" horiz-adv-x="1077" 
d="M723 -449l-139 166l-140 -166h-262l254 295h303l250 -295h-266zM150 0v1450h352v-1145h561v-305h-913z" />
    <glyph glyph-name="lcircumflexbelow" unicode="&#x1e3d;" horiz-adv-x="610" 
d="M442 -449l-139 166l-139 -166h-262l254 295h303l250 -295h-267zM135 0v1548h340v-1548h-340z" />
    <glyph glyph-name="Macute" unicode="&#x1e3e;" horiz-adv-x="1955" 
d="M1057 1604h-254l213 294h340zM150 0v1450h497l330 -930h8l315 930h506v-1450h-342l9 1026h-7l-376 -1026h-246l-367 1026h-6l8 -1026h-329z" />
    <glyph glyph-name="macute" unicode="&#x1e3f;" horiz-adv-x="1892" 
d="M1092 1202h-254l213 295h340zM1769 631v-631h-335v557q0 99 -22 140t-51 58q-28 17 -72 17q-84 0 -127 -63q-44 -63 -44 -158v-551h-336v582q0 190 -145 190q-80 0 -124 -63t-44 -156v-553h-338v1020h326v-141h4q63 115 199 155q48 14 106 15q218 0 307 -175
q110 173 314 174t301 -136q81 -113 81 -281z" />
    <glyph glyph-name="Mdotaccent" unicode="&#x1e40;" horiz-adv-x="1955" 
d="M1161 1778q0 -74 -53 -124t-131 -50t-130 51t-52 123t52 124t130 52t131 -51t53 -125zM150 0v1450h497l330 -930h8l315 930h506v-1450h-342l9 1026h-7l-376 -1026h-246l-367 1026h-6l8 -1026h-329z" />
    <glyph glyph-name="mdotaccent" unicode="&#x1e41;" horiz-adv-x="1892" 
d="M1196 1376q0 -74 -53 -124t-131 -50t-130 51t-53 123q1 72 53 124t130 52t131 -51t53 -125zM1769 631v-631h-335v557q0 99 -22 140t-51 58q-28 17 -72 17q-84 0 -127 -63q-44 -63 -44 -158v-551h-336v582q0 190 -145 190q-80 0 -124 -63t-44 -156v-553h-338v1020h326
v-141h4q63 115 199 155q48 14 106 15q218 0 307 -175q110 173 314 174t301 -136q81 -113 81 -281z" />
    <glyph glyph-name="Mdotbelow" unicode="&#x1e42;" horiz-adv-x="1955" 
d="M1161 -330q0 -74 -53 -124t-131 -50t-130 51t-52 123t52 124t130 52t131 -51t53 -125zM150 0v1450h497l330 -930h8l315 930h506v-1450h-342l9 1026h-7l-376 -1026h-246l-367 1026h-6l8 -1026h-329z" />
    <glyph glyph-name="mdotbelow" unicode="&#x1e43;" horiz-adv-x="1892" 
d="M1135 -330q1 -74 -53 -124t-132 -50t-130 51t-52 123t52 124t130 52t132 -51t53 -125zM1769 631v-631h-335v557q0 99 -22 140t-51 58q-28 17 -72 17q-84 0 -127 -63q-44 -63 -44 -158v-551h-336v582q0 190 -145 190q-80 0 -124 -63t-44 -156v-553h-338v1020h326v-141h4
q63 115 199 155q48 14 106 15q218 0 307 -175q110 173 314 174t301 -136q81 -113 81 -281z" />
    </font>
</defs>
</svg>
