<?xml version="1.0" standalone="no"?>
<!DOCTYPE svg PUBLIC "-//W3C//DTD SVG 1.1//EN" "http://www.w3.org/Graphics/SVG/1.1/DTD/svg11.dtd" >
<svg xmlns="http://www.w3.org/2000/svg">
<metadata>
Created by FontPrep 20130207 at Mon Apr 20 11:10:03 2015
 By Admin
Copyright (c) 2004 - 2007 Linotype GmbH, www.linotype.com. All rights reserved.
</metadata>
<defs>
<font id="a7885c27eda45e60a2a49ed9bc9ba53c" horiz-adv-x='1024' >
  <font-face 
    font-family="AvenirNext-DemiBold"
    font-weight="600"
    font-stretch="normal"
    units-per-em="2048"
    panose-1="2 11 7 3 2 2 2 2 2 4"
    ascent="1638"
    descent="-410"
    x-height="983"
    cap-height="1450"
    bbox="-948 -938 2910 2470"
    underline-thickness="102"
    underline-position="-102"
    unicode-range="U+000D-FE48"
  />
<missing-glyph horiz-adv-x="1048" 
d="M1049 1470v-1470h-1049v1470h1049zM946 102v1264h-844v-1264h844zM524 1145q-64 0 -109 -45q-46 -45 -59 -150l-102 17q14 147 90 214t186 67t183 -74q72 -72 71 -195q0 -66 -26 -120t-102 -124q-77 -69 -89 -109t-12 -147h-94l-4 35q0 115 27 167t92 116t84 99
q20 35 20 92t-46 107t-110 50zM455 240v137h114v-137h-114z" />
    <glyph glyph-name="IJ" unicode="IJ" horiz-adv-x="1576" 
d="M1430 469q0 -335 -216 -457q-86 -49 -242 -49t-260 88q-105 88 -145 232l238 67q18 -72 67 -114q48 -42 110 -41q112 0 151 74q38 74 38 208v973h259v-981zM160 1450h258v-1450h-258v1450z" />
    <glyph glyph-name="ij" unicode="ij" horiz-adv-x="1097" 
d="M666 1317q0 59 44 103t112 44t113 -42q46 -42 46 -105t-46 -105t-114 -43q-67 1 -111 45t-44 103zM700 -70v1053h246v-1042q0 -205 -68 -305q-88 -128 -288 -128q-52 0 -111 13l21 209q24 -6 67 -7q115 -4 129 126q4 38 4 81zM117 1317q0 59 44 103q43 44 111 44t114 -42
t46 -105t-46 -105t-114 -43q-68 1 -112 45t-43 103zM152 983h245v-983h-245v983z" />
    <glyph glyph-name="napostrophe" unicode="&#x22;n" horiz-adv-x="1273" 
d="M86 1450h217l-164 -399h-186zM889 545q0 262 -184 262q-109 0 -169 -79q-61 -79 -61 -187v-541h-246v983h234v-158h4q33 74 114 130q81 57 184 57q186 1 285 -123q83 -103 85 -275v-614h-246v545z" />
    <glyph glyph-name="fi" unicode="fi" horiz-adv-x="1214" 
d="M598 1364q-166 0 -166 -221v-160h227v-197h-227v-786h-246v786h-186v197h186v145q0 311 207 409q76 36 171 36t145 -14l-17 -209q-47 14 -94 14zM805 1317q0 59 44 103t112 44q67 0 113 -42t46 -105t-46 -105t-114 -43q-68 1 -111 45q-44 44 -44 103zM840 983h245v-983
h-245v983z" />
    <glyph glyph-name="fl" unicode="fl" horiz-adv-x="1214" 
d="M598 1364q-166 0 -166 -221v-160h227v-197h-227v-786h-246v786h-186v197h186v145q0 311 207 409q76 36 171 36t145 -14l-17 -209q-47 14 -94 14zM840 1548h245v-1548h-245v1548z" />
    <glyph glyph-name=".notdef" horiz-adv-x="1048" 
d="M1049 1470v-1470h-1049v1470h1049zM946 102v1264h-844v-1264h844zM524 1145q-64 0 -109 -45q-46 -45 -59 -150l-102 17q14 147 90 214t186 67t183 -74q72 -72 71 -195q0 -66 -26 -120t-102 -124q-77 -69 -89 -109t-12 -147h-94l-4 35q0 115 27 167t92 116t84 99
q20 35 20 92t-46 107t-110 50zM455 240v137h114v-137h-114z" />
    <glyph glyph-name=".null" horiz-adv-x="1024" 
 />
    <glyph glyph-name=".null" horiz-adv-x="1024" 
 />
    <glyph glyph-name="nonmarkingreturn" unicode="&#xd;" horiz-adv-x="0" 
 />
    <glyph glyph-name="space" unicode=" " horiz-adv-x="512" 
 />
    <glyph glyph-name="exclam" unicode="!" horiz-adv-x="696" 
d="M347 303q67 0 116 -45t49 -111q0 -67 -48 -113t-115 -46t-116 44t-49 110q0 67 48 114t115 47zM471 455h-246v995h246v-995z" />
    <glyph glyph-name="quotedbl" unicode="&#x22;" horiz-adv-x="940" 
d="M547 1450h209v-541h-209v541zM184 1450h209v-541h-209v541z" />
    <glyph glyph-name="numbersign" unicode="#" horiz-adv-x="1212" 
d="M518 850l-35 -250h211l35 250h-211zM96 428v172h207l37 250h-184v172h206l62 428h180l-61 -428h211l61 428h178l-61 -428h184v-172h-209l-35 -250h185v-172h-205l-64 -428h-178l62 428h-213l-62 -428h-178l62 428h-185z" />
    <glyph glyph-name="dollar" unicode="$" 
d="M866 398q0 92 -54 138t-136 74v-422q86 4 138 62t52 148zM383 1079q0 -88 52 -132t130 -66v385q-72 -8 -127 -54t-55 -133zM676 1266v-414q201 -64 279 -127q79 -63 118 -135t39 -177q0 -203 -127 -317t-309 -119v-147h-111v147q-291 9 -481 191l180 172q55 -66 139 -108
t162 -44v455q-211 59 -304 137q-124 105 -124 283q0 179 128 288t300 119v140h111v-135q114 -2 228 -38t198 -108l-166 -172q-47 53 -118 81t-142 28z" />
    <glyph glyph-name="percent" unicode="%" horiz-adv-x="1904" 
d="M1292 1516l170 -78l-852 -1504l-170 78zM647 1094q0 78 -53 131t-131 53t-131 -53t-53 -131t53 -131t131 -53t131 52q53 54 53 132zM82 1094q0 80 30 148q62 141 202 203q69 30 149 30q157 0 269 -112q112 -111 112 -269t-112 -270t-271 -112q-158 0 -269 112
q-110 112 -110 270zM1626 356q0 78 -53 131t-131 53t-131 -52q-53 -54 -53 -132t52 -131q54 -53 132 -53t131 53t53 131zM1172 626q113 113 270 112q158 0 270 -112t111 -270q0 -158 -112 -269q-111 -112 -269 -112q-158 -1 -270 111t-111 269q0 158 111 271z" />
    <glyph glyph-name="ampersand" unicode="&#x26;" horiz-adv-x="1517" 
d="M553 647q-198 -67 -201 -244q0 -103 75 -165t165 -62t153 39t117 111zM673 1288q-73 0 -122 -45t-49 -111q0 -118 129 -237q205 86 209 231q0 66 -47 114t-120 48zM414 805q-156 160 -156 329t130 268q109 83 278 84t286 -92t117 -259q0 -128 -80 -226t-217 -159
l238 -248l168 264h280l-291 -420l338 -346h-327l-160 166q-72 -84 -174 -139t-229 -55q-356 -1 -477 238q-40 79 -40 171q0 286 316 424z" />
    <glyph glyph-name="quotesingle" unicode="'" horiz-adv-x="577" 
d="M184 1450h209v-541h-209v541z" />
    <glyph glyph-name="parenleft" unicode="(" horiz-adv-x="675" 
d="M74 590q0 495 299 909l172 -113q-123 -172 -192 -378q-139 -415 0 -837q69 -206 192 -378l-172 -112q-299 414 -299 909z" />
    <glyph glyph-name="parenright" unicode=")" horiz-adv-x="675" 
d="M303 1499q299 -414 299 -910q0 -497 -299 -908l-172 112q123 172 192 378t68 419q0 213 -68 419q-69 206 -192 377z" />
    <glyph glyph-name="asterisk" unicode="*" horiz-adv-x="948" 
d="M389 1450h172v-291l277 90l53 -164l-279 -90l176 -239l-141 -103l-176 242l-172 -236l-137 105l176 231l-281 97l54 163l278 -96v291z" />
    <glyph glyph-name="plus" unicode="+" horiz-adv-x="1363" 
d="M578 725v451h208v-451h451v-209h-451v-450h-208v450h-451v209h451z" />
    <glyph glyph-name="comma" unicode="," horiz-adv-x="532" 
d="M193 283h237l-174 -541h-207z" />
    <glyph glyph-name="hyphen" unicode="-" horiz-adv-x="655" 
d="M573 399h-491v209h491v-209z" />
    <glyph glyph-name="period" unicode="." horiz-adv-x="532" 
d="M266 303q66 0 115 -45t49 -111q0 -67 -48 -113t-115 -46t-116 44t-49 111q0 66 48 113q50 47 116 47z" />
    <glyph glyph-name="slash" unicode="/" horiz-adv-x="796" 
d="M152 -98l-170 61l639 1589l170 -65z" />
    <glyph glyph-name="zero" unicode="0" 
d="M885 725q0 354 -125 499q-51 58 -134 58q-148 0 -213 -203q-48 -147 -48 -354q0 -348 127 -495q51 -58 134 -58t134 58t79 142q46 138 46 353zM627 1487q243 0 377 -202q133 -202 133 -557t-134 -560t-377 -205t-379 203t-134 559q0 543 295 709q96 53 219 53z" />
    <glyph glyph-name="one" unicode="1" 
d="M817 1450v-1450h-246v1151l-286 -236l-144 170l453 365h223z" />
    <glyph glyph-name="two" unicode="2" 
d="M848 1067q0 95 -67 155t-168 60t-164 -71t-78 -177l-240 37q20 180 156 298t336 118q199 0 340 -113t141 -311q0 -227 -234 -438l-417 -400h653v-225h-965v225l559 549q68 66 108 132t40 161z" />
    <glyph glyph-name="three" unicode="3" 
d="M434 854h66q210 0 281 110q28 42 28 100q0 107 -67 162q-67 56 -160 56q-92 0 -152 -51t-82 -135l-231 59q35 143 167 238q133 94 318 94t320 -104t135 -293q0 -117 -71 -208t-189 -120v-4q133 -27 216 -120t83 -217t-44 -208t-117 -139t-163 -83t-182 -28
q-190 0 -330 83t-197 259l230 72q27 -86 99 -146q73 -59 190 -59q176 0 242 129q24 45 24 113t-34 116q-91 127 -318 127h-62v197z" />
    <glyph glyph-name="four" unicode="4" 
d="M713 1161h-4l-412 -649h416v649zM713 301h-670v217l616 932h295v-938h203v-211h-203v-301h-241v301z" />
    <glyph glyph-name="five" unicode="5" 
d="M599 934q216 0 358 -121q141 -121 141 -347q0 -225 -152 -364t-377 -139q-182 0 -307 85t-182 233l223 81q31 -86 103 -138t148 -52q206 0 270 159q22 52 22 127q0 142 -104 219q-81 60 -213 60t-270 -49q-42 -14 -75 -31l25 793h825v-221h-592l-14 -314q66 19 171 19z
" />
    <glyph glyph-name="six" unicode="6" 
d="M342 458q0 -124 78 -205t202 -81t200 79t77 207q0 128 -78 206t-196 77q-61 0 -114 -20q-107 -41 -149 -149q-20 -54 -20 -114zM690 936q188 0 324 -133q137 -133 137 -346q0 -212 -150 -353t-376 -141q-227 0 -381 143q-152 144 -152 355q0 163 87 321q28 51 63 107
l362 561h299l-371 -537l3 -2q61 25 155 25z" />
    <glyph glyph-name="seven" unicode="7" 
d="M104 1450h986v-225l-580 -1225h-289l610 1229h-727v221z" />
    <glyph glyph-name="eight" unicode="8" 
d="M373 410q0 -113 71 -177q72 -63 180 -63t179 63t71 175t-72 182q-72 69 -178 69q-107 0 -179 -68t-72 -181zM416 1082q0 -92 56 -152q56 -62 149 -62t153 61t61 151t-62 147t-152 57t-147 -55t-58 -147zM624 1487q95 0 179 -27q170 -55 245 -202q36 -73 36 -182t-64 -193
q-63 -84 -162 -117v-4q116 -29 195 -127t78 -216t-41 -201t-108 -140q-69 -57 -161 -86t-196 -29q-105 0 -197 29q-192 60 -269 226q-40 82 -40 172q0 223 170 328q49 30 102 44v4q-98 35 -162 113q-63 78 -63 187t36 184t98 127t146 81t178 29z" />
    <glyph glyph-name="nine" unicode="9" 
d="M827 1198q-78 84 -202 84q-123 0 -200 -81t-77 -208t78 -206t200 -79q122 1 200 79q79 79 79 203t-78 208zM559 514q-190 0 -326 133q-137 133 -137 346q0 212 150 353t377 141q228 0 380 -143t152 -355q0 -163 -87 -321q-28 -51 -62 -107l-363 -561h-299l373 539l-2 2
q-60 -27 -156 -27z" />
    <glyph glyph-name="colon" unicode=":" horiz-adv-x="614" 
d="M306 995q67 0 116 -45q49 -44 49 -110t-48 -113t-115 -47t-116 44t-49 111t48 113t115 47zM306 303q67 0 116 -45t49 -111q0 -67 -48 -113t-115 -46t-116 44t-49 111q0 66 48 113t115 47z" />
    <glyph glyph-name="semicolon" unicode=";" horiz-adv-x="614" 
d="M306 997q67 0 116 -45q49 -44 49 -110t-48 -113t-115 -47t-116 44t-49 111t48 113t115 47zM225 283h250l-174 -541h-219z" />
    <glyph glyph-name="less" unicode="&#x3c;" horiz-adv-x="1363" 
d="M164 547v147l1036 461v-225l-692 -309l692 -310v-225z" />
    <glyph glyph-name="equal" unicode="=" horiz-adv-x="1363" 
d="M1200 541v-209h-1036v209h1036zM1200 909v-209h-1036v209h1036z" />
    <glyph glyph-name="greater" unicode="&#x3e;" horiz-adv-x="1363" 
d="M1200 694v-147l-1036 -461v225l692 310l-692 309v225z" />
    <glyph glyph-name="question" unicode="?" horiz-adv-x="1062" 
d="M552 303q67 0 116 -45t49 -111q0 -67 -48 -113t-116 -46t-116 44t-48 110q0 67 48 114t115 47zM430 428v78q0 96 28 159t107 140l92 88q95 85 95 174q0 88 -50 142q-50 55 -143 55q-92 0 -147 -60t-62 -153l-252 22q24 194 155 304t318 110t314 -105t127 -290
q0 -120 -50 -195t-123 -139t-111 -103t-47 -84t-9 -90v-53h-242z" />
    <glyph glyph-name="at" unicode="@" horiz-adv-x="1638" 
d="M66 722q0 326 229 546q107 102 249 160t292 58q310 1 523 -170q212 -172 214 -487q0 -234 -119 -369q-119 -134 -287 -132q-82 0 -131 39t-49 98h-10q-31 -49 -94 -93t-156 -44q-139 0 -215 92t-76 256t114 306t288 142q78 0 131 -32t69 -80h2l17 82h182l-80 -387
q-4 -29 -11 -64t-7 -67q0 -81 65 -80q80 0 132 86t52 220t-40 229q-83 192 -287 257q-100 33 -224 33t-232 -46q-107 -46 -183 -127q-160 -171 -160 -434t167 -422t435 -159q166 0 286 53t220 148l113 -123q-231 -246 -637 -248q-352 0 -567 213q-103 100 -159 240t-56 306z
M979 776q0 180 -140 180q-84 0 -140 -94t-56 -184q1 -89 21 -119q41 -61 103 -61q108 0 160 88t52 190z" />
    <glyph glyph-name="A" unicode="A" horiz-adv-x="1445" 
d="M942 553l-223 590l-227 -590h450zM614 1450h224l624 -1450h-295l-135 332h-629l-131 -332h-288z" />
    <glyph glyph-name="B" unicode="B" horiz-adv-x="1325" 
d="M649 217q324 0 324 217q0 115 -78 160t-236 45h-241v-422h231zM418 860h229q129 0 197 51t68 147t-70 138q-70 41 -217 41h-207v-377zM160 1450h565q295 0 405 -197q39 -71 39 -181q1 -110 -69 -190t-182 -114v-4q137 -18 225 -106t88 -222q0 -133 -47 -214
q-129 -222 -502 -222h-522v1450z" />
    <glyph glyph-name="C" unicode="C" horiz-adv-x="1425" 
d="M90 729q0 174 61 314q120 281 414 391q143 53 312 53q238 0 421 -123q61 -41 105 -98l-197 -156q-57 78 -149 114q-93 36 -193 36t-192 -41q-189 -84 -261 -281q-36 -96 -36 -212q0 -234 136 -384q136 -149 355 -147q117 0 207 46t146 121l206 -145q-202 -254 -552 -254
t-566 214q-217 215 -217 552z" />
    <glyph glyph-name="D" unicode="D" horiz-adv-x="1564" 
d="M633 225q378 0 514 256q51 96 51 248q0 277 -183 404q-138 94 -382 96h-215v-1004h215zM160 1450h514q326 0 543 -159q258 -191 258 -566q0 -189 -72 -327q-139 -266 -445 -356q-143 -42 -284 -42h-514v1450z" />
    <glyph glyph-name="E" unicode="E" 
d="M160 1450h960v-225h-702v-369h665v-217h-665v-410h739v-229h-997v1450z" />
    <glyph glyph-name="F" unicode="F" horiz-adv-x="1173" 
d="M160 1450h936v-225h-678v-398h639v-217h-639v-610h-258v1450z" />
    <glyph glyph-name="G" unicode="G" horiz-adv-x="1583" 
d="M90 729q0 174 61 314q120 281 414 391q143 53 315 53t315 -50q144 -50 232 -132l-178 -193q-55 60 -154 104t-215 44t-209 -41q-188 -83 -260 -281q-36 -96 -36 -211q0 -230 140 -382t376 -150q166 0 289 51v368h-306v213h556v-751q-237 -113 -547 -113q-352 0 -572 214
q-221 215 -221 552z" />
    <glyph glyph-name="H" unicode="H" horiz-adv-x="1513" 
d="M160 1450h258v-586h678v586h258v-1450h-258v643h-678v-643h-258v1450z" />
    <glyph glyph-name="I" unicode="I" horiz-adv-x="577" 
d="M160 1450h258v-1450h-258v1450z" />
    <glyph glyph-name="J" unicode="J" horiz-adv-x="1019" 
d="M872 469q0 -336 -215 -457q-85 -49 -241 -49t-261 88t-145 232l238 67q18 -72 67 -114t111 -41q112 0 150 74t38 208v973h258v-981z" />
    <glyph glyph-name="K" unicode="K" horiz-adv-x="1411" 
d="M160 1450h258v-627h6l606 627h348l-678 -670l723 -780h-362l-637 727h-6v-727h-258v1450z" />
    <glyph glyph-name="L" unicode="L" horiz-adv-x="1046" 
d="M160 1450h258v-1221h616v-229h-874v1450z" />
    <glyph glyph-name="M" unicode="M" horiz-adv-x="1884" 
d="M160 1450h403l377 -1030h6l373 1030h405v-1450h-256v1165h-4l-440 -1165h-180l-434 1165h-4v-1165h-246v1450z" />
    <glyph glyph-name="N" unicode="N" horiz-adv-x="1597" 
d="M160 1450h342l674 -1085h4v1085h258v-1450h-328l-688 1120h-4v-1120h-258v1450z" />
    <glyph glyph-name="O" unicode="O" horiz-adv-x="1738" 
d="M371 727q0 -230 140 -382t359 -151t359 151q139 150 139 379q0 230 -139 383t-361 153q-113 0 -203 -41q-185 -84 -259 -281q-36 -96 -35 -211zM90 733q0 340 218 547t561 207t560 -206q218 -206 219 -547t-220 -556t-561 -215q-339 0 -558 215t-219 555z" />
    <glyph glyph-name="P" unicode="P" 
d="M598 817q322 0 322 213q0 117 -98 166q-71 37 -216 37h-188v-416h180zM633 1450q547 0 547 -420q0 -227 -167 -335q-146 -95 -397 -95h-198v-600h-258v1450h473z" />
    <glyph glyph-name="Q" unicode="Q" horiz-adv-x="1744" 
d="M856 1255q-217 0 -358 -146q-140 -146 -140 -372q0 -227 137 -369q137 -143 354 -143q216 0 355 145t137 373q0 111 -34 205q-71 188 -255 268q-88 38 -196 39zM1722 0h-874q-354 0 -563 198t-209 537t221 545q105 98 247 152t308 55q335 0 552 -207q218 -207 218 -537
q0 -175 -73 -313t-185 -217v-4h358v-209z" />
    <glyph glyph-name="R" unicode="R" horiz-adv-x="1288" 
d="M629 825q311 0 311 211q0 106 -94 158q-70 39 -195 39h-233v-408h211zM160 1450h504q365 0 489 -221q45 -80 45 -195q0 -158 -89 -257t-243 -134l387 -643h-311l-336 614h-188v-614h-258v1450z" />
    <glyph glyph-name="S" unicode="S" horiz-adv-x="1175" 
d="M648 1272q-116 0 -194 -51t-78 -146q1 -95 78 -145q47 -33 158 -68q111 -36 186 -64t137 -75q142 -108 142 -297q0 -222 -151 -342q-151 -121 -377 -121q-141 0 -277 52t-221 155l185 172q53 -74 142 -117q88 -43 154 -43q190 0 260 116q24 40 24 98q-1 144 -206 210
l-129 43q-167 50 -249 125q-119 107 -117 287q1 206 159 316t371 110q111 0 225 -39t197 -117l-168 -184q-41 53 -116 89t-135 36z" />
    <glyph glyph-name="T" unicode="T" horiz-adv-x="1163" 
d="M453 1225h-445v225h1147v-225h-444v-1225h-258v1225z" />
    <glyph glyph-name="U" unicode="U" horiz-adv-x="1462" 
d="M1315 532q0 -256 -165 -412q-165 -157 -417 -157t-419 155t-167 414v918h259v-907q0 -234 171 -318q62 -31 154 -31q93 0 155 32q168 82 171 317v907h258v-918z" />
    <glyph glyph-name="V" unicode="V" horiz-adv-x="1337" 
d="M-20 1450h288l400 -1116h8l403 1116h279l-582 -1450h-223z" />
    <glyph glyph-name="W" unicode="W" horiz-adv-x="2056" 
d="M12 1450h283l280 -1065h5l319 1065h266l314 -1065h4l286 1065h275l-424 -1450h-250l-340 1087h-4l-340 -1087h-250z" />
    <glyph glyph-name="X" unicode="X" horiz-adv-x="1347" 
d="M510 774l-451 676h312l299 -496l295 496h297l-443 -682l520 -768h-325l-355 569l-340 -569h-311z" />
    <glyph glyph-name="Y" unicode="Y" horiz-adv-x="1273" 
d="M768 0h-258v629l-545 821h316l364 -610l369 610h299l-545 -821v-629z" />
    <glyph glyph-name="Z" unicode="Z" horiz-adv-x="1251" 
d="M84 1225v225h1083v-233l-792 -988h805v-229h-1108v233l788 992h-776z" />
    <glyph glyph-name="bracketleft" unicode="[" horiz-adv-x="675" 
d="M516 1339h-184v-1499h184v-159h-393v1818h393v-160z" />
    <glyph glyph-name="backslash" unicode="\" horiz-adv-x="796" 
d="M176 1552l639 -1589l-170 -61l-639 1585z" />
    <glyph glyph-name="bracketright" unicode="]" horiz-adv-x="675" 
d="M160 -160h184v1499h-184v160h393v-1818h-393v159z" />
    <glyph glyph-name="asciicircum" unicode="^" horiz-adv-x="1363" 
d="M141 702l457 748h168l457 -748h-242l-301 490l-297 -490h-242z" />
    <glyph glyph-name="underscore" unicode="_" horiz-adv-x="1024" 
d="M1024 -307h-1024v153h1024v-153z" />
    <glyph glyph-name="grave" unicode="`" horiz-adv-x="532" 
d="M362 1155h-192l-289 295h279z" />
    <glyph glyph-name="a" unicode="a" horiz-adv-x="1126" 
d="M698 449q-377 0 -374 -164q0 -123 172 -123q126 0 192 68t66 184v35h-56zM133 856q167 156 425 156q122 0 207 -37q222 -97 222 -377v-598h-229v125h-6q-37 -66 -119 -108t-164 -42q-164 0 -265 67q-126 84 -126 239q0 199 223 276q160 57 453 57v25q0 92 -67 136
t-152 44t-157 -33t-118 -79z" />
    <glyph glyph-name="b" unicode="b" horiz-adv-x="1300" 
d="M961 494q0 125 -74 221t-203 96q-130 0 -211 -95t-83 -221q-1 -126 80 -222q81 -97 211 -97t205 96t75 222zM397 1548v-690h6q110 152 348 154q87 0 175 -40q176 -80 250 -274q34 -94 34 -202q-1 -224 -133 -375q-132 -150 -350 -150q-103 0 -195 45t-143 131h-4v-147
h-233v1548h245z" />
    <glyph glyph-name="c" unicode="c" horiz-adv-x="999" 
d="M612 807q-122 0 -194 -94t-72 -220q0 -125 74 -221t205 -96q57 0 114 23t92 65l154 -155q-61 -66 -157 -102t-204 -36q-110 0 -207 35q-199 72 -285 266q-42 96 -42 218q0 235 153 378q153 144 373 144q109 0 210 -41t161 -113l-168 -147q-29 41 -86 69t-121 27z" />
    <glyph glyph-name="d" unicode="d" horiz-adv-x="1298" 
d="M833 276q76 90 76 216t-81 222q-81 97 -211 97t-204 -95q-75 -95 -75 -222t75 -223q75 -95 203 -95t217 100zM1147 0h-234v147h-4q-51 -86 -142 -131t-200 -45q-211 0 -345 152t-134 372t134 368q134 149 343 149q168 0 283 -103q29 -27 47 -51h6v690h246v-1548z" />
    <glyph glyph-name="e" unicode="e" horiz-adv-x="1175" 
d="M616 172q171 0 261 127l163 -131q-145 -197 -422 -197q-229 0 -378 139q-150 139 -150 374t149 382q149 146 366 146t349 -139q131 -139 131 -394v-33q0 -16 -2 -32h-747q8 -106 91 -174t189 -68zM840 590q0 161 -128 218q-44 19 -104 19q-112 -1 -188 -67t-84 -170h504z
" />
    <glyph glyph-name="f" unicode="f" horiz-adv-x="663" 
d="M598 1364q-166 0 -166 -221v-160h227v-197h-227v-786h-246v786h-186v197h186v145q0 311 207 409q76 36 171 36t145 -14l-17 -209q-47 14 -94 14z" />
    <glyph glyph-name="g" unicode="g" horiz-adv-x="1294" 
d="M340 503q0 -130 78 -223q78 -94 204 -94q127 0 209 92t82 221q0 130 -80 221t-209 91t-207 -89q-77 -89 -77 -219zM222 135q-132 149 -132 364t132 364t349 149q105 0 195 -43t143 -133h4v147h234v-895q0 -418 -307 -539q-104 -41 -248 -41q-283 0 -488 162l142 191
q148 -140 344 -140q311 0 311 338v72h-4q-108 -147 -323 -147q-214 0 -352 151z" />
    <glyph glyph-name="h" unicode="h" horiz-adv-x="1196" 
d="M811 541q0 260 -182 260q-111 0 -170 -78t-62 -186v-537h-245v1548h245v-702h4q29 65 109 115q80 51 180 51q184 0 282 -123q83 -103 85 -275v-614h-246v541z" />
    <glyph glyph-name="i" unicode="i" horiz-adv-x="548" 
d="M117 1317q0 59 44 103q43 44 111 44t114 -42t46 -105t-46 -105t-114 -43q-68 1 -112 45t-43 103zM152 983h245v-983h-245v983z" />
    <glyph glyph-name="j" unicode="j" horiz-adv-x="548" 
d="M117 1317q0 59 44 103q43 44 111 44t114 -42t46 -105t-46 -105t-114 -43q-68 1 -112 45t-43 103zM152 983h245v-1042q0 -205 -68 -305q-88 -128 -288 -128q-49 0 -111 13l21 209q24 -6 67 -7q115 -4 129 126q4 38 5 81v1053z" />
    <glyph glyph-name="k" unicode="k" horiz-adv-x="1112" 
d="M152 1548h245v-979h6l373 414h316l-426 -444l452 -539h-325l-390 504h-6v-504h-245v1548z" />
    <glyph glyph-name="l" unicode="l" horiz-adv-x="548" 
d="M152 1548h245v-1548h-245v1548z" />
    <glyph glyph-name="m" unicode="m" horiz-adv-x="1822" 
d="M1321 1012q181 0 277 -123q85 -106 85 -275v-614h-245v545q0 262 -185 262q-103 0 -159 -79t-58 -191v-537h-245v594q-1 92 -45 152t-142 60t-154 -76q-55 -77 -57 -189v-541h-246v983h234v-158h4q33 76 111 131q78 54 194 56q219 0 307 -187q102 187 324 187z" />
    <glyph glyph-name="n" unicode="n" horiz-adv-x="1191" 
d="M807 545q0 262 -184 262q-110 0 -169 -78t-61 -188v-541h-246v983h234v-158h4q33 74 114 130q81 57 184 57q186 1 285 -123q83 -103 85 -275v-614h-246v545z" />
    <glyph glyph-name="o" unicode="o" 
d="M625 176q135 0 209 96q75 96 75 222t-73 222q-73 95 -210 95q-136 0 -211 -95t-75 -222t70 -215q80 -103 215 -103zM625 1012q229 0 381 -144q153 -144 153 -372q0 -227 -154 -376t-380 -149t-380 148q-155 148 -155 377t153 372q153 144 382 144z" />
    <glyph glyph-name="p" unicode="p" horiz-adv-x="1296" 
d="M956 494q0 126 -73 222q-73 95 -203 95t-212 -97q-83 -97 -83 -222t81 -221q81 -95 211 -95t204 96q75 96 75 222zM383 983v-137h6q102 164 358 166q87 0 175 -40t151 -110q133 -148 133 -367q0 -220 -133 -372t-350 -152q-103 0 -191 43t-135 117h-4v-623h-246v1475h236
z" />
    <glyph glyph-name="q" unicode="q" horiz-adv-x="1294" 
d="M833 276q76 90 76 216t-81 222q-81 97 -211 97t-204 -95q-75 -95 -75 -222t75 -223q75 -95 203 -95t217 100zM1147 -492h-246v623h-4q-47 -74 -134 -117t-196 -43q-211 0 -345 152t-134 372t134 368q134 149 343 149q120 0 208 -49t132 -117h6v137h236v-1475z" />
    <glyph glyph-name="r" unicode="r" horiz-adv-x="745" 
d="M393 526v-526h-246v983h236v-164h4q41 86 115 139t172 54q41 0 59 -6v-226q-36 9 -98 10t-113 -30t-90 -89t-39 -145z" />
    <glyph glyph-name="s" unicode="s" horiz-adv-x="909" 
d="M313 721q1 -57 55 -81t134 -42q162 -37 238 -93q104 -77 104 -206q0 -168 -124 -254q-103 -72 -286 -74q-116 0 -224 42t-179 120l162 152q41 -53 107 -88t135 -35q70 0 105 19q62 35 62 97t-56 89t-140 46t-136 39q-184 68 -184 246q0 154 114 233t249 80
q278 2 397 -149l-160 -141q-33 43 -90 75q-56 32 -120 32t-114 -25q-49 -25 -49 -82z" />
    <glyph glyph-name="t" unicode="t" horiz-adv-x="696" 
d="M495 -20q-257 0 -304 214q-13 62 -13 134v458h-172v197h172v285h242v-285h246v-197h-246v-456q0 -66 24 -109t95 -43q72 0 114 21l9 -193q-72 -26 -167 -26z" />
    <glyph glyph-name="u" unicode="u" horiz-adv-x="1191" 
d="M385 438q0 -262 184 -262q110 0 169 78t61 188v541h245v-983h-233v158h-4q-33 -74 -114 -130t-184 -56q-186 -1 -285 122q-83 103 -85 275v614h246v-545z" />
    <glyph glyph-name="v" unicode="v" horiz-adv-x="1050" 
d="M0 983h268l258 -717h4l261 717h260l-392 -983h-262z" />
    <glyph glyph-name="w" unicode="w" horiz-adv-x="1646" 
d="M8 983h266l205 -704h4l211 704h262l213 -704h5l208 704h256l-340 -983h-249l-224 688h-4l-221 -688h-250z" />
    <glyph glyph-name="x" unicode="x" horiz-adv-x="1099" 
d="M397 522l-354 461h295l213 -305l219 305h283l-353 -461l402 -522h-299l-256 358l-258 -358h-291z" />
    <glyph glyph-name="y" unicode="y" horiz-adv-x="1050" 
d="M106 -264q38 -12 85 -14t73 8q47 17 78 77q14 29 31 68l49 125l-422 983h272l275 -715h4l244 715h256l-465 -1194q-58 -145 -137 -212t-236 -69q-65 0 -127 15z" />
    <glyph glyph-name="z" unicode="z" horiz-adv-x="987" 
d="M94 786v197h799v-217l-533 -565h558v-201h-848v217l530 569h-506z" />
    <glyph glyph-name="braceleft" unicode="{" horiz-adv-x="675" 
d="M20 680q92 0 127 72q14 29 15 71v406q0 130 76 200t186 70h149v-172h-112q-59 0 -75 -39t-15 -84v-385q0 -102 -68 -162t-133 -65v-4q123 -10 178 -123q23 -45 23 -117v-373q0 -45 15 -84t75 -38h112v-172h-149q-110 0 -187 71t-75 199v391q0 126 -95 152q-26 6 -47 6
v180z" />
    <glyph glyph-name="bar" unicode="|" horiz-adv-x="454" 
d="M332 1536v-2048h-209v2048h209z" />
    <glyph glyph-name="braceright" unicode="}" horiz-adv-x="675" 
d="M655 500q-59 0 -85 -24q-56 -49 -56 -134v-391q0 -130 -76 -200t-186 -70h-150v172h113q59 0 75 38q15 39 15 84v373q0 121 76 189q48 42 125 51v4q-68 5 -125 57q-76 66 -76 170v385q0 45 -15 84t-75 39h-113v172h150q110 0 187 -71t75 -199v-406q0 -111 94 -137
q25 -6 47 -6v-180z" />
    <glyph glyph-name="asciitilde" unicode="~" horiz-adv-x="1363" 
d="M465 592q-89 0 -160 -129l-158 133q76 125 155 168t157 43q77 -1 131 -21t140 -77t130 -59q16 -1 39 -1q90 0 160 129l158 -133q-126 -209 -314 -209q-118 0 -248 82q-77 47 -115 61q-37 13 -75 13z" />
    <glyph glyph-name="uni00A0" unicode="&#xa0;" horiz-adv-x="512" 
 />
    <glyph glyph-name="exclamdown" unicode="&#xa1;" horiz-adv-x="696" 
d="M184 868q0 100 102 144q30 12 62 12q68 0 116 -47t48 -113t-49 -110t-116 -45q-67 1 -115 47t-48 112zM225 -438v995h246v-995h-246z" />
    <glyph glyph-name="cent" unicode="&#xa2;" 
d="M614 797q-107 -23 -163 -102q-56 -80 -57 -196q-2 -116 54 -201t166 -114v613zM725 -172h-111v147q-205 16 -330 164q-126 148 -125 359t123 346t332 164v137h111v-137q237 -10 348 -142l-158 -159q-80 84 -190 92v-615q113 0 199 95l149 -162q-122 -133 -348 -142v-147z
" />
    <glyph glyph-name="sterling" unicode="&#xa3;" 
d="M1051 1194q-84 88 -215 88t-199 -104q-51 -79 -51 -201v-160h336v-172h-336v-426h542v-219h-993v219h201v426h-201v172h201v170q0 189 107 327q134 173 393 173q218 0 360 -123z" />
    <glyph glyph-name="currency" unicode="&#xa4;" 
d="M629 877q-126 0 -205 -83q-78 -83 -79 -212q-1 -128 78 -213q79 -86 205 -85t204 85q79 84 79 211t-78 212t-204 85zM1120 581q0 -158 -84 -286l170 -172l-129 -131l-176 174q-115 -80 -267 -80t-282 82l-178 -176l-131 131l176 178q-82 134 -82 280q0 147 76 275
l-170 170l131 129l170 -166q137 86 291 85t272 -85l168 166l131 -129l-166 -166q80 -121 80 -279z" />
    <glyph glyph-name="yen" unicode="&#xa5;" 
d="M502 317h-361v160h361v158h-361v160h297l-405 655h286l318 -590l305 590h275l-396 -655h287v-160h-360v-158h360v-160h-360v-317h-246v317z" />
    <glyph glyph-name="brokenbar" unicode="&#xa6;" horiz-adv-x="454" 
d="M332 358v-716h-209v716h209zM332 1382v-716h-209v716h209z" />
    <glyph glyph-name="section" unicode="&#xa7;" 
d="M877 540q0 94 -108 154q-30 16 -58 31l-183 82q-118 -51 -118 -132q1 -100 88 -147q49 -26 77 -39l213 -88q41 19 65 59t24 80zM944 311q107 -82 107 -247t-144 -268q-125 -91 -318 -91q-194 0 -359 129q-54 43 -91 103l203 120q37 -71 111 -107t150 -36t128 35
q64 40 65 97q2 58 -18 90q-34 57 -155 105q-57 24 -169 67t-167 90q-111 94 -111 220q0 196 197 297q-125 80 -125 236t127 245t274 90q295 2 434 -175l-168 -150q-41 59 -105 94t-134 35q-69 0 -119 -33q-61 -36 -61 -102q0 -99 159 -170q49 -23 109 -49q163 -70 234 -131
q112 -96 112 -232q0 -87 -48 -157t-118 -105z" />
    <glyph glyph-name="dieresis" unicode="&#xa8;" horiz-adv-x="532" 
d="M319 1319q0 57 41 100q40 43 104 43t107 -41t43 -102t-43 -102t-106 -41t-105 43q-41 43 -41 100zM-82 1319q0 57 41 100t104 43t107 -41t43 -102q0 -61 -43 -102q-42 -41 -106 -41t-105 43t-41 100z" />
    <glyph glyph-name="copyright" unicode="&#xa9;" horiz-adv-x="1638" 
d="M164 723q0 -135 52 -254t141 -208t209 -140t255 -51t254 51t208 140t140 208t52 254q0 135 -52 255q-103 243 -348 350q-119 52 -254 52t-255 -52t-209 -141t-141 -209t-52 -255zM41 724q0 161 61 301q125 286 415 410q142 60 303 60t302 -60q288 -122 414 -410
q61 -140 61 -301t-61 -301q-125 -287 -414 -409q-141 -59 -302 -59t-303 59q-141 60 -247 164t-168 244t-61 302zM856 262q-98 0 -183 30q-180 64 -251 231q-37 85 -37 193q0 212 137 337t334 125q98 0 185 -37t141 -105l-129 -129q-29 37 -83 62t-114 25q-121 -1 -188 -81
q-66 -80 -66 -192q0 -111 73 -193t195 -82q54 0 106 20t85 58l119 -139q-54 -59 -140 -91t-184 -32z" />
    <glyph glyph-name="ordfeminine" unicode="&#xaa;" horiz-adv-x="778" 
d="M459 1141q-186 0 -189 -80q0 -63 104 -65q48 0 81 32q33 33 32 86v27h-28zM379 1481q217 0 258 -151q12 -44 12 -91v-356h-149v61h-2q-42 -74 -183 -76q-85 0 -149 46t-65 124q-2 132 129 180q83 30 257 31v13q0 84 -122 86q-87 0 -142 -64l-90 107q90 90 246 90z" />
    <glyph glyph-name="guillemotleft" unicode="&#xab;" horiz-adv-x="1062" 
d="M748 508l237 -358l-156 -105l-311 463l311 459l154 -105zM291 508l237 -358l-155 -105l-312 463l312 459l153 -105z" />
    <glyph glyph-name="logicalnot" unicode="&#xac;" horiz-adv-x="1363" 
d="M1028 700h-901v209h1110v-608h-209v399z" />
    <glyph glyph-name="uni00AD" unicode="&#xad;" horiz-adv-x="655" 
d="M573 399h-491v209h491v-209z" />
    <glyph glyph-name="registered" unicode="&#xae;" horiz-adv-x="1228" 
d="M702 1116q0 27 -23 39q-24 12 -48 12h-78v-110h78q29 0 50 16t21 43zM553 950v-196h-145v532h229q92 0 148 -36q71 -42 71 -132q0 -53 -30 -91t-76 -54l135 -219h-170l-103 196h-59zM616 1405q-163 0 -279 -116t-116 -279t117 -278q117 -114 278 -114q162 0 277 115
t115 277t-114 278q-115 117 -278 117zM1081 1010q0 -192 -136 -326q-136 -133 -329 -133q-194 0 -331 133q-138 133 -138 327q0 193 139 329q139 135 331 135q193 -1 329 -137q135 -136 135 -328z" />
    <glyph glyph-name="macron" unicode="&#xaf;" horiz-adv-x="532" 
d="M594 1219h-655v159h655v-159z" />
    <glyph glyph-name="degree" unicode="&#xb0;" horiz-adv-x="819" 
d="M242 1147q0 -70 49 -119t119 -49t118 49t50 119q0 70 -50 119t-118 49q-70 0 -119 -49t-49 -119zM178 1378q98 97 232 97t231 -97t97 -231q-1 -133 -97 -231q-96 -97 -229 -97t-234 96q-96 96 -96 230q0 135 96 233z" />
    <glyph glyph-name="plusminus" unicode="&#xb1;" horiz-adv-x="1363" 
d="M164 274h1036v-208h-1036v208zM586 1176h196v-293h418v-209h-418v-293h-196v293h-422v209h422v293z" />
    <glyph glyph-name="twosuperior" unicode="&#xb2;" horiz-adv-x="819" 
d="M711 748v-168h-596v155l331 330q74 74 74 132t-31 85t-81 27t-83 -39q-34 -39 -38 -99l-181 25q12 120 96 197q84 78 208 79t212 -68t89 -194q0 -86 -42 -147t-100 -117l-204 -198h346z" />
    <glyph glyph-name="threesuperior" unicode="&#xb3;" horiz-adv-x="819" 
d="M539 846q0 109 -181 115h-55v145h57q57 0 106 26q48 26 48 80t-32 78t-76 25q-44 0 -74 -31q-31 -31 -41 -78l-176 43q29 98 109 162q81 63 196 63q114 0 198 -58q84 -60 84 -186t-112 -188q135 -51 135 -193q0 -141 -93 -210t-213 -71q-259 -2 -337 229l174 51
q16 -51 52 -85t90 -34t98 27q43 27 43 90z" />
    <glyph glyph-name="acute" unicode="&#xb4;" horiz-adv-x="532" 
d="M373 1450h278l-289 -295h-192z" />
    <glyph glyph-name="mu" unicode="&#xb5;" horiz-adv-x="1175" 
d="M385 -467h-246v1450h246v-498q-1 -121 21 -175q46 -114 160 -113t169 69q54 69 56 180v537h245v-983h-233v158h-4q-78 -180 -281 -183q-93 0 -133 50v-492z" />
    <glyph glyph-name="paragraph" unicode="&#xb6;" horiz-adv-x="1228" 
d="M504 692q-197 0 -320 106q-121 106 -121 267q0 199 126 292t352 93h551v-1708h-185v1561h-219v-1561h-184v950z" />
    <glyph glyph-name="periodcentered" unicode="&#xb7;" horiz-adv-x="532" 
d="M266 756q66 0 115 -45t49 -111t-48 -113t-114 -47t-116 44t-50 111t48 114q50 47 116 47z" />
    <glyph glyph-name="cedilla" unicode="&#xb8;" horiz-adv-x="532" 
d="M354 -297q0 74 -123 74q-32 0 -65 -13l-47 52l127 184h119l-93 -131q12 2 21 2h18q215 0 215 -170q0 -102 -93 -153q-68 -37 -157 -39q-150 -2 -253 53l47 98q78 -41 159 -41q125 0 125 84z" />
    <glyph glyph-name="onesuperior" unicode="&#xb9;" horiz-adv-x="819" 
d="M537 1450v-879h-193v650l-149 -125l-109 127l281 227h170z" />
    <glyph glyph-name="ordmasculine" unicode="&#xba;" horiz-adv-x="778" 
d="M532 1177q0 60 -35 106q-36 46 -108 46q-73 0 -107 -46t-34 -106q0 -59 35 -107t107 -48t107 47q35 48 35 108zM612 1394q88 -86 88 -217q0 -133 -88 -219t-222 -86q-135 0 -224 86q-90 86 -89 217t89 217t222 87q135 0 224 -85z" />
    <glyph glyph-name="guillemotright" unicode="&#xbb;" horiz-adv-x="1062" 
d="M315 504l-237 358l155 105l312 -463l-312 -459l-153 105zM772 504l-237 358l155 105l311 -463l-311 -459l-153 105z" />
    <glyph glyph-name="onequarter" unicode="&#xbc;" horiz-adv-x="1843" 
d="M537 1450v-879h-193v650l-149 -125l-109 127l281 227h170zM1233 1516l160 -78l-852 -1504l-160 78zM1397 641h-2l-197 -305h199v305zM1397 174h-389v152l366 553h199v-543h119v-162h-119v-174h-176v174z" />
    <glyph glyph-name="onehalf" unicode="&#xbd;" horiz-adv-x="1843" 
d="M537 1450v-879h-193v650l-149 -125l-109 127l281 227h170zM1720 168v-168h-596v156l332 329q72 72 73 132q1 59 -30 85t-81 27q-50 0 -84 -39t-38 -98l-180 24q12 118 96 197q84 78 209 79q126 1 214 -68q87 -69 85 -193q0 -85 -42 -147t-99 -117l-205 -199h346z
M1233 1516l160 -78l-852 -1504l-160 78z" />
    <glyph glyph-name="threequarters" unicode="&#xbe;" horiz-adv-x="1843" 
d="M539 846q0 109 -181 115h-55v145h57q57 0 106 26q48 26 48 80t-32 78t-76 25q-44 0 -74 -31q-31 -31 -41 -78l-176 43q29 98 109 162q81 63 196 63q114 0 198 -58q84 -60 84 -186t-112 -188q135 -51 135 -193q0 -141 -93 -210t-213 -71q-259 -2 -337 229l174 51
q16 -51 52 -85t90 -34t98 27q43 27 43 90zM1233 1516l160 -78l-852 -1504l-160 78zM1397 641h-2l-197 -305h199v305zM1397 174h-389v152l366 553h199v-543h119v-162h-119v-174h-176v174z" />
    <glyph glyph-name="questiondown" unicode="&#xbf;" horiz-adv-x="1062" 
d="M519 709q-67 0 -116 45q-49 44 -49 110t48 113t116 47t116 -44t48 -111t-48 -113t-115 -47zM641 584v-78q0 -96 -29 -161t-106 -138l-92 -88q-95 -85 -95 -174q1 -89 51 -143t141 -54t148 61t62 152l252 -22q-24 -197 -154 -305q-130 -109 -319 -109q-188 0 -314 105
q-127 105 -127 290q0 120 50 195t146 161q97 85 120 127q24 42 24 127v54h242z" />
    <glyph glyph-name="Agrave" unicode="&#xc0;" horiz-adv-x="1445" 
d="M825 1565h-192l-289 295h279zM942 553l-223 590l-227 -590h450zM614 1450h224l624 -1450h-295l-135 332h-629l-131 -332h-288z" />
    <glyph glyph-name="Aacute" unicode="&#xc1;" horiz-adv-x="1445" 
d="M819 1860h279l-289 -295h-193zM942 553l-223 590l-227 -590h450zM614 1450h224l624 -1450h-295l-135 332h-629l-131 -332h-288z" />
    <glyph glyph-name="Acircumflex" unicode="&#xc2;" horiz-adv-x="1445" 
d="M866 1565l-141 184l-141 -184h-230l236 295h276l234 -295h-234zM942 553l-223 590l-227 -590h450zM614 1450h224l624 -1450h-295l-135 332h-629l-131 -332h-288z" />
    <glyph glyph-name="Atilde" unicode="&#xc3;" horiz-adv-x="1445" 
d="M578 1833q80 0 161 -37q100 -39 133 -39q70 0 95 86h135q-42 -260 -230 -260q-75 0 -163 39t-131 39q-69 0 -95 -88h-135q42 260 230 260zM942 553l-223 590l-227 -590h450zM614 1450h224l624 -1450h-295l-135 332h-629l-131 -332h-288z" />
    <glyph glyph-name="Adieresis" unicode="&#xc4;" horiz-adv-x="1445" 
d="M782 1729q0 57 41 100t105 43t106 -41q43 -41 43 -102t-43 -103t-106 -41q-63 0 -105 43q-41 44 -41 101zM381 1729q0 57 41 100t104 43q62 0 106 -41t44 -102t-43 -103t-107 -41q-64 -1 -104 43q-41 44 -41 101zM942 553l-223 590l-227 -590h450zM614 1450h224
l624 -1450h-295l-135 332h-629l-131 -332h-288z" />
    <glyph glyph-name="Aring" unicode="&#xc5;" horiz-adv-x="1445" 
d="M844 1751q0 51 -35 84t-87 33t-86 -34t-34 -84t35 -83t86 -33t86 33t35 84zM938 1751q0 -92 -61 -150q-61 -59 -153 -59t-154 58t-62 150q0 91 62 151q62 59 153 59q92 0 154 -58q61 -59 61 -151zM942 553l-223 590l-227 -590h450zM614 1450h224l624 -1450h-295l-135 332
h-629l-131 -332h-288z" />
    <glyph glyph-name="AE" unicode="&#xc6;" horiz-adv-x="2142" 
d="M1083 602v623h-30l-383 -623h413zM1083 381h-548l-234 -381h-313l927 1450h1098v-225h-672v-369h635v-217h-635v-410h709v-229h-967v381z" />
    <glyph glyph-name="Ccedilla" unicode="&#xc7;" horiz-adv-x="1425" 
d="M913 -297q0 74 -123 74q-32 0 -65 -13l-47 52l104 151q-305 24 -498 233q-194 209 -194 529q0 174 61 314q120 281 414 391q143 53 312 53q238 0 421 -123q61 -41 105 -98l-197 -156q-57 78 -149 114q-93 36 -193 36t-192 -41q-189 -84 -261 -281q-36 -96 -36 -212
q0 -234 136 -384q136 -149 355 -147q117 0 207 46t146 121l206 -145q-189 -240 -528 -252l-66 -96q12 2 21 2h18q215 0 215 -170q0 -102 -93 -153q-68 -37 -157 -39q-150 -2 -253 53l47 98q78 -41 159 -41q125 0 125 84z" />
    <glyph glyph-name="Egrave" unicode="&#xc8;" 
d="M809 1565h-193l-288 295h278zM160 1450h960v-225h-702v-369h665v-217h-665v-410h739v-229h-997v1450z" />
    <glyph glyph-name="Eacute" unicode="&#xc9;" 
d="M721 1860h278l-288 -295h-193zM160 1450h960v-225h-702v-369h665v-217h-665v-410h739v-229h-997v1450z" />
    <glyph glyph-name="Ecircumflex" unicode="&#xca;" 
d="M788 1565l-141 184l-141 -184h-230l236 295h276l234 -295h-234zM160 1450h960v-225h-702v-369h665v-217h-665v-410h739v-229h-997v1450z" />
    <glyph glyph-name="Edieresis" unicode="&#xcb;" 
d="M705 1729q0 57 40 100q41 43 105 43t106 -41q43 -41 43 -102t-43 -103t-106 -41q-63 0 -105 43q-40 44 -40 101zM303 1729q0 57 41 100q40 43 104 43t107 -41t43 -102t-43 -103t-106 -41q-63 0 -105 43q-41 44 -41 101zM160 1450h960v-225h-702v-369h665v-217h-665v-410
h739v-229h-997v1450z" />
    <glyph glyph-name="Igrave" unicode="&#xcc;" horiz-adv-x="577" 
d="M416 1565h-193l-289 295h279zM160 1450h258v-1450h-258v1450z" />
    <glyph glyph-name="Iacute" unicode="&#xcd;" horiz-adv-x="577" 
d="M362 1860h279l-289 -295h-192zM160 1450h258v-1450h-258v1450z" />
    <glyph glyph-name="Icircumflex" unicode="&#xce;" horiz-adv-x="577" 
d="M426 1565l-141 184l-142 -184h-229l236 295h276l233 -295h-233zM160 1450h258v-1450h-258v1450z" />
    <glyph glyph-name="Idieresis" unicode="&#xcf;" horiz-adv-x="577" 
d="M342 1729q0 57 41 100t104 43t107 -41t43 -102q0 -61 -43 -103q-42 -42 -106 -41q-64 -1 -105 43t-41 101zM-59 1729q0 57 41 100t104 43q62 0 106 -41t44 -102t-43 -103t-107 -41q-64 -1 -104 43q-41 44 -41 101zM160 1450h258v-1450h-258v1450z" />
    <glyph glyph-name="Eth" unicode="&#xd0;" horiz-adv-x="1564" 
d="M612 233q261 0 416 114q172 125 172 377q0 253 -154 379q-143 114 -391 114h-235v-381h442v-172h-442v-431h192zM162 664h-135v172h135v614h571q310 0 512 -178q225 -199 225 -547q0 -187 -70 -323t-182 -225t-248 -133t-268 -44h-540v664z" />
    <glyph glyph-name="Ntilde" unicode="&#xd1;" horiz-adv-x="1597" 
d="M649 1833q81 0 162 -37q100 -39 133 -39q71 0 94 86h136q-42 -260 -230 -260q-74 0 -164 39t-131 39q-68 0 -94 -88h-135q42 260 229 260zM160 1450h342l674 -1085h4v1085h258v-1450h-328l-688 1120h-4v-1120h-258v1450z" />
    <glyph glyph-name="Ograve" unicode="&#xd2;" horiz-adv-x="1738" 
d="M1012 1565h-193l-289 295h279zM371 727q0 -230 140 -382t359 -151t359 151q139 150 139 379q0 230 -139 383t-361 153q-113 0 -203 -41q-185 -84 -259 -281q-36 -96 -35 -211zM90 733q0 340 218 547t561 207t560 -206q218 -206 219 -547t-220 -556t-561 -215
q-339 0 -558 215t-219 555z" />
    <glyph glyph-name="Oacute" unicode="&#xd3;" horiz-adv-x="1738" 
d="M942 1860h279l-289 -295h-193zM371 727q0 -230 140 -382t359 -151t359 151q139 150 139 379q0 230 -139 383t-361 153q-113 0 -203 -41q-185 -84 -259 -281q-36 -96 -35 -211zM90 733q0 340 218 547t561 207t560 -206q218 -206 219 -547t-220 -556t-561 -215
q-339 0 -558 215t-219 555z" />
    <glyph glyph-name="Ocircumflex" unicode="&#xd4;" horiz-adv-x="1738" 
d="M1018 1565l-141 184l-142 -184h-229l235 295h277l233 -295h-233zM371 727q0 -230 140 -382t359 -151t359 151q139 150 139 379q0 230 -139 383t-361 153q-113 0 -203 -41q-185 -84 -259 -281q-36 -96 -35 -211zM90 733q0 340 218 547t561 207t560 -206q218 -206 219 -547
t-220 -556t-561 -215q-339 0 -558 215t-219 555z" />
    <glyph glyph-name="Otilde" unicode="&#xd5;" horiz-adv-x="1738" 
d="M729 1833q81 0 162 -37q100 -39 133 -39q69 0 94 86h135q-42 -260 -229 -260q-74 0 -164 39t-131 39q-68 0 -94 -88h-135q42 260 229 260zM371 727q0 -230 140 -382t359 -151t359 151q139 150 139 379q0 230 -139 383t-361 153q-113 0 -203 -41q-185 -84 -259 -281
q-36 -96 -35 -211zM90 733q0 340 218 547t561 207t560 -206q218 -206 219 -547t-220 -556t-561 -215q-339 0 -558 215t-219 555z" />
    <glyph glyph-name="Odieresis" unicode="&#xd6;" horiz-adv-x="1738" 
d="M928 1729q0 57 41 100t104 43t107 -41t43 -102q0 -61 -43 -103q-42 -42 -106 -41q-64 -1 -105 43t-41 101zM526 1729q0 57 41 100t105 43t106 -41q43 -41 43 -102t-43 -103t-106 -41q-63 0 -105 43q-41 44 -41 101zM371 727q0 -230 140 -382t359 -151t359 151
q139 150 139 379q0 230 -139 383t-361 153q-113 0 -203 -41q-185 -84 -259 -281q-36 -96 -35 -211zM90 733q0 340 218 547t561 207t560 -206q218 -206 219 -547t-220 -556t-561 -215q-339 0 -558 215t-219 555z" />
    <glyph glyph-name="multiply" unicode="&#xd7;" horiz-adv-x="1363" 
d="M682 766l373 373l143 -144l-371 -370l379 -381l-151 -152l-375 371l-371 -371l-151 150l379 372l-377 381l147 146z" />
    <glyph glyph-name="Oslash" unicode="&#xd8;" horiz-adv-x="1738" 
d="M868 1266q-230 0 -370 -152t-140 -366q0 -215 93 -345l714 775q-114 88 -297 88zM1380 722q0 224 -116 363l-721 -784q123 -113 337 -113t357 152q68 72 105 171q38 99 38 211zM276 213q-186 194 -186 527t218 540t558 207q265 0 461 -127l174 190l101 -88l-170 -186
q215 -207 216 -545t-220 -550t-562 -218q-292 0 -491 158l-174 -189l-103 88z" />
    <glyph glyph-name="Ugrave" unicode="&#xd9;" horiz-adv-x="1462" 
d="M895 1565h-193l-288 295h278zM1315 532q0 -256 -165 -412q-165 -157 -417 -157t-419 155t-167 414v918h259v-907q0 -234 171 -318q62 -31 154 -31q93 0 155 32q168 82 171 317v907h258v-918z" />
    <glyph glyph-name="Uacute" unicode="&#xda;" horiz-adv-x="1462" 
d="M799 1860h278l-289 -295h-192zM1315 532q0 -256 -165 -412q-165 -157 -417 -157t-419 155t-167 414v918h259v-907q0 -234 171 -318q62 -31 154 -31q93 0 155 32q168 82 171 317v907h258v-918z" />
    <glyph glyph-name="Ucircumflex" unicode="&#xdb;" horiz-adv-x="1462" 
d="M874 1565l-141 184l-141 -184h-230l236 295h276l234 -295h-234zM1315 532q0 -256 -165 -412q-165 -157 -417 -157t-419 155t-167 414v918h259v-907q0 -234 171 -318q62 -31 154 -31q93 0 155 32q168 82 171 317v907h258v-918z" />
    <glyph glyph-name="Udieresis" unicode="&#xdc;" horiz-adv-x="1462" 
d="M788 1729q0 57 41 100t105 43t106 -41q43 -41 43 -102t-43 -103t-106 -41q-63 0 -105 43q-41 44 -41 101zM387 1729q0 57 41 100t104 43q62 0 106 -41t44 -102t-43 -103t-107 -41q-64 -1 -104 43q-41 44 -41 101zM1315 532q0 -256 -165 -412q-165 -157 -417 -157
t-419 155t-167 414v918h259v-907q0 -234 171 -318q62 -31 154 -31q93 0 155 32q168 82 171 317v907h258v-918z" />
    <glyph glyph-name="Yacute" unicode="&#xdd;" horiz-adv-x="1273" 
d="M748 1860h278l-289 -295h-192zM768 0h-258v629l-545 821h316l364 -610l369 610h299l-545 -821v-629z" />
    <glyph glyph-name="Thorn" unicode="&#xde;" 
d="M598 543q322 -1 322 211q0 64 -27 105q-54 79 -171 92q-56 7 -116 7h-188v-415h180zM633 1176q547 0 547 -424q0 -222 -158 -325t-406 -101h-198v-326h-258v1450h258v-274h215z" />
    <glyph glyph-name="germandbls" unicode="&#xdf;" horiz-adv-x="1284" 
d="M870 260q80 76 80 210t-89 205q-89 70 -226 70h-27v209h31q92 0 147 54t56 143q0 136 -113 188q-39 19 -103 19q-122 1 -185 -111q-48 -84 -48 -221v-1026h-246v1038q0 230 116 373q131 162 384 162q190 0 315 -115t124 -282t-133 -266q-40 -30 -87 -42v-4
q155 -24 247 -139q91 -115 89 -270q0 -214 -140 -347t-366 -133q-88 0 -178 23v207q61 -21 144 -21q128 0 208 76z" />
    <glyph glyph-name="agrave" unicode="&#xe0;" horiz-adv-x="1126" 
d="M686 1155h-192l-289 295h278zM698 449q-377 0 -374 -164q0 -123 172 -123q126 0 192 68t66 184v35h-56zM133 856q167 156 425 156q122 0 207 -37q222 -97 222 -377v-598h-229v125h-6q-37 -66 -119 -108t-164 -42q-164 0 -265 67q-126 84 -126 239q0 199 223 276
q160 57 453 57v25q0 92 -67 136t-152 44t-157 -33t-118 -79z" />
    <glyph glyph-name="aacute" unicode="&#xe1;" horiz-adv-x="1126" 
d="M602 1450h279l-289 -295h-193zM698 449q-377 0 -374 -164q0 -123 172 -123q126 0 192 68t66 184v35h-56zM133 856q167 156 425 156q122 0 207 -37q222 -97 222 -377v-598h-229v125h-6q-37 -66 -119 -108t-164 -42q-164 0 -265 67q-126 84 -126 239q0 199 223 276
q160 57 453 57v25q0 92 -67 136t-152 44t-157 -33t-118 -79z" />
    <glyph glyph-name="acircumflex" unicode="&#xe2;" horiz-adv-x="1126" 
d="M700 1155l-141 184l-141 -184h-230l236 295h276l234 -295h-234zM698 449q-377 0 -374 -164q0 -123 172 -123q126 0 192 68t66 184v35h-56zM133 856q167 156 425 156q122 0 207 -37q222 -97 222 -377v-598h-229v125h-6q-37 -66 -119 -108t-164 -42q-164 0 -265 67
q-126 84 -126 239q0 199 223 276q160 57 453 57v25q0 92 -67 136t-152 44t-157 -33t-118 -79z" />
    <glyph glyph-name="atilde" unicode="&#xe3;" horiz-adv-x="1126" 
d="M408 1251q-70 0 -95 -88h-135q19 119 56 167q36 48 76 71q95 55 261 -15q91 -38 131 -38q70 0 95 86h135q-43 -263 -230 -260q-72 0 -163 38t-131 39zM698 449q-377 0 -374 -164q0 -123 172 -123q126 0 192 68t66 184v35h-56zM133 856q167 156 425 156q122 0 207 -37
q222 -97 222 -377v-598h-229v125h-6q-37 -66 -119 -108t-164 -42q-164 0 -265 67q-126 84 -126 239q0 199 223 276q160 57 453 57v25q0 92 -67 136t-152 44t-157 -33t-118 -79z" />
    <glyph glyph-name="adieresis" unicode="&#xe4;" horiz-adv-x="1126" 
d="M612 1319q0 57 41 100t105 43t106 -41q43 -41 43 -102t-43 -102t-106 -41t-105 43q-41 43 -41 100zM211 1319q0 57 41 100t104 43q62 0 106 -41t44 -102t-43 -102t-107 -41t-104 43q-41 43 -41 100zM698 449q-377 0 -374 -164q0 -123 172 -123q126 0 192 68t66 184v35
h-56zM133 856q167 156 425 156q122 0 207 -37q222 -97 222 -377v-598h-229v125h-6q-37 -66 -119 -108t-164 -42q-164 0 -265 67q-126 84 -126 239q0 199 223 276q160 57 453 57v25q0 92 -67 136t-152 44t-157 -33t-118 -79z" />
    <glyph glyph-name="aring" unicode="&#xe5;" horiz-adv-x="1126" 
d="M672 1341q0 51 -35 84t-87 33t-86 -34t-34 -84t35 -83t86 -33t86 34q35 32 35 83zM766 1341q0 -92 -61 -150t-153 -58t-155 58q-61 58 -61 149t62 151q62 59 153 59q92 0 154 -58q61 -59 61 -151zM698 449q-377 0 -374 -164q0 -123 172 -123q126 0 192 68t66 184v35h-56z
M133 856q167 156 425 156q122 0 207 -37q222 -97 222 -377v-598h-229v125h-6q-37 -66 -119 -108t-164 -42q-164 0 -265 67q-126 84 -126 239q0 199 223 276q160 57 453 57v25q0 92 -67 136t-152 44t-157 -33t-118 -79z" />
    <glyph glyph-name="ae" unicode="&#xe6;" horiz-adv-x="1816" 
d="M1481 590q0 161 -128 218q-44 19 -104 19q-111 -1 -187 -67t-85 -170h504zM754 414h-56q-174 0 -274 -24t-100 -105q0 -123 172 -123q126 0 192 57t66 162v33zM135 856q165 156 423 156q120 0 202 -51t123 -117q53 74 146 121t209 47q341 0 453 -300q36 -99 35 -233v-33
q0 -16 -2 -32h-747q12 -107 92 -175q80 -67 188 -67q169 0 261 129l161 -133q-145 -197 -415 -197t-396 197q-43 -80 -140 -136t-258 -56t-265 69q-127 85 -127 236q0 265 418 299q123 10 258 10v20q0 209 -224 209q-74 0 -148 -33t-122 -79z" />
    <glyph glyph-name="ccedilla" unicode="&#xe7;" horiz-adv-x="999" 
d="M657 -297q0 74 -123 74q-32 0 -65 -13l-47 52l110 161q-192 25 -317 163q-125 139 -125 362t153 366q153 144 373 144q109 0 210 -41t161 -113l-168 -147q-29 41 -86 69t-121 27q-122 0 -194 -94t-72 -220q0 -125 74 -221t205 -96q57 0 114 23t92 65l154 -155
q-121 -130 -338 -138l-72 -102q12 2 21 2h18q215 0 215 -170q0 -102 -93 -153q-68 -37 -157 -39q-150 -2 -253 53l47 98q78 -41 159 -41q125 0 125 84z" />
    <glyph glyph-name="egrave" unicode="&#xe8;" horiz-adv-x="1175" 
d="M735 1155h-192l-289 295h278zM616 172q171 0 261 127l163 -131q-145 -197 -422 -197q-229 0 -378 139q-150 139 -150 374t149 382q149 146 366 146t349 -139q131 -139 131 -394v-33q0 -16 -2 -32h-747q8 -106 91 -174t189 -68zM840 590q0 161 -128 218q-44 19 -104 19
q-112 -1 -188 -67t-84 -170h504z" />
    <glyph glyph-name="eacute" unicode="&#xe9;" horiz-adv-x="1175" 
d="M676 1450h278l-288 -295h-193zM616 172q171 0 261 127l163 -131q-145 -197 -422 -197q-229 0 -378 139q-150 139 -150 374t149 382q149 146 366 146t349 -139q131 -139 131 -394v-33q0 -16 -2 -32h-747q8 -106 91 -174t189 -68zM840 590q0 161 -128 218q-44 19 -104 19
q-112 -1 -188 -67t-84 -170h504z" />
    <glyph glyph-name="ecircumflex" unicode="&#xea;" horiz-adv-x="1175" 
d="M758 1155l-142 184l-141 -184h-229l235 295h277l233 -295h-233zM616 172q171 0 261 127l163 -131q-145 -197 -422 -197q-229 0 -378 139q-150 139 -150 374t149 382q149 146 366 146t349 -139q131 -139 131 -394v-33q0 -16 -2 -32h-747q8 -106 91 -174t189 -68zM840 590
q0 161 -128 218q-44 19 -104 19q-112 -1 -188 -67t-84 -170h504z" />
    <glyph glyph-name="edieresis" unicode="&#xeb;" horiz-adv-x="1175" 
d="M668 1319q0 57 41 100t104 43t107 -41t43 -102q0 -61 -43 -102q-42 -41 -106 -41t-105 43t-41 100zM266 1319q0 57 41 100t105 43t106 -41q43 -41 43 -102t-43 -102t-106 -41t-105 43q-41 43 -41 100zM616 172q171 0 261 127l163 -131q-145 -197 -422 -197
q-229 0 -378 139q-150 139 -150 374t149 382q149 146 366 146t349 -139q131 -139 131 -394v-33q0 -16 -2 -32h-747q8 -106 91 -174t189 -68zM840 590q0 161 -128 218q-44 19 -104 19q-112 -1 -188 -67t-84 -170h504z" />
    <glyph glyph-name="igrave" unicode="&#xec;" horiz-adv-x="548" 
d="M395 1155h-192l-289 295h279zM152 983h245v-983h-245v983z" />
    <glyph glyph-name="iacute" unicode="&#xed;" horiz-adv-x="548" 
d="M356 1450h279l-289 -295h-192zM152 983h245v-983h-245v983z" />
    <glyph glyph-name="icircumflex" unicode="&#xee;" horiz-adv-x="548" 
d="M416 1155l-142 184l-141 -184h-229l235 295h277l233 -295h-233zM152 983h245v-983h-245v983z" />
    <glyph glyph-name="idieresis" unicode="&#xef;" horiz-adv-x="548" 
d="M330 1319q0 57 41 100t104 43t107 -41t43 -102q0 -61 -43 -102q-42 -41 -106 -41t-105 43t-41 100zM-72 1319q0 57 41 100t105 43t106 -41q43 -41 43 -102t-43 -102t-106 -41t-105 43q-41 43 -41 100zM152 983h245v-983h-245v983z" />
    <glyph glyph-name="eth" unicode="&#xf0;" 
d="M624 176q137 0 213 94t76 221t-75 221q-75 95 -212 95t-214 -94q-76 -94 -76 -222q0 -127 76 -221t212 -94zM633 -29q-123 0 -220 38t-169 107t-113 164t-41 212q0 226 151 373t367 147q142 0 230 -82l4 4q-133 216 -260 319l-222 -102l-122 117l225 102q-43 46 -160 133
l193 113q119 -93 178 -152l231 109l131 -115l-239 -110q253 -273 335 -569q65 -236 -6 -455t-270 -308q-100 -45 -223 -45z" />
    <glyph glyph-name="ntilde" unicode="&#xf1;" horiz-adv-x="1191" 
d="M453 1251q-70 0 -95 -88h-135q19 119 56 167q72 95 165 94t170 -38q97 -38 134 -38q69 0 94 86h135q-19 -118 -56 -167q-71 -95 -158 -94t-178 40q-92 38 -132 38zM807 545q0 262 -184 262q-110 0 -169 -78t-61 -188v-541h-246v983h234v-158h4q33 74 114 130
q81 57 184 57q186 1 285 -123q83 -103 85 -275v-614h-246v545z" />
    <glyph glyph-name="ograve" unicode="&#xf2;" 
d="M776 1155h-192l-289 295h278zM625 176q135 0 209 96q75 96 75 222t-73 222q-73 95 -210 95q-136 0 -211 -95t-75 -222t70 -215q80 -103 215 -103zM625 1012q229 0 381 -144q153 -144 153 -372q0 -227 -154 -376t-380 -149t-380 148q-155 148 -155 377t153 372
q153 144 382 144z" />
    <glyph glyph-name="oacute" unicode="&#xf3;" 
d="M680 1450h278l-288 -295h-193zM625 176q135 0 209 96q75 96 75 222t-73 222q-73 95 -210 95q-136 0 -211 -95t-75 -222t70 -215q80 -103 215 -103zM625 1012q229 0 381 -144q153 -144 153 -372q0 -227 -154 -376t-380 -149t-380 148q-155 148 -155 377t153 372
q153 144 382 144z" />
    <glyph glyph-name="ocircumflex" unicode="&#xf4;" 
d="M768 1155l-141 184l-142 -184h-229l236 295h276l233 -295h-233zM625 176q135 0 209 96q75 96 75 222t-73 222q-73 95 -210 95q-136 0 -211 -95t-75 -222t70 -215q80 -103 215 -103zM625 1012q229 0 381 -144q153 -144 153 -372q0 -227 -154 -376t-380 -149t-380 148
q-155 148 -155 377t153 372q153 144 382 144z" />
    <glyph glyph-name="otilde" unicode="&#xf5;" 
d="M481 1251q-69 0 -94 -88h-135q20 120 56 168q72 94 163 93t172 -38q97 -38 133 -38q72 0 94 86h136q-19 -118 -56 -167q-71 -95 -158 -94t-179 40q-92 38 -132 38zM625 176q135 0 209 96q75 96 75 222t-73 222q-73 95 -210 95q-136 0 -211 -95t-75 -222t70 -215
q80 -103 215 -103zM625 1012q229 0 381 -144q153 -144 153 -372q0 -227 -154 -376t-380 -149t-380 148q-155 148 -155 377t153 372q153 144 382 144z" />
    <glyph glyph-name="odieresis" unicode="&#xf6;" 
d="M682 1319q0 57 41 100t104 43t107 -41t43 -102q0 -61 -43 -102q-42 -41 -106 -41t-105 43t-41 100zM281 1319q0 57 41 100t104 43t106 -41t43 -102t-43 -102t-106 -41t-104 43t-41 100zM625 176q135 0 209 96q75 96 75 222t-73 222q-73 95 -210 95q-136 0 -211 -95
t-75 -222t70 -215q80 -103 215 -103zM625 1012q229 0 381 -144q153 -144 153 -372q0 -227 -154 -376t-380 -149t-380 148q-155 148 -155 377t153 372q153 144 382 144z" />
    <glyph glyph-name="divide" unicode="&#xf7;" horiz-adv-x="1363" 
d="M164 512v219h1036v-219h-1036zM528 252q0 63 45 108q45 46 109 46t108 -46q46 -46 46 -108t-45 -108t-109 -46t-109 45q-45 46 -45 109zM528 989q0 63 45 109t109 45q64 0 108 -45q46 -44 46 -108t-45 -109t-109 -45t-109 45t-45 108z" />
    <glyph glyph-name="oslash" unicode="&#xf8;" 
d="M1036 829q123 -142 123 -352t-153 -358t-364 -148q-210 0 -343 105l-143 -146l-82 84l137 140q-121 140 -121 352t154 359t362 147q209 0 342 -103l144 148l86 -82zM446 233q67 -63 162 -63q157 0 232 95t77 216q1 120 -43 187zM639 819q-155 0 -231 -100t-76 -220
t45 -180l424 437q-72 63 -162 63z" />
    <glyph glyph-name="ugrave" unicode="&#xf9;" horiz-adv-x="1191" 
d="M743 1155h-192l-289 295h279zM385 438q0 -262 184 -262q110 0 169 78t61 188v541h245v-983h-233v158h-4q-33 -74 -114 -130t-184 -56q-186 -1 -285 122q-83 103 -85 275v614h246v-545z" />
    <glyph glyph-name="uacute" unicode="&#xfa;" horiz-adv-x="1191" 
d="M664 1450h278l-289 -295h-192zM385 438q0 -262 184 -262q110 0 169 78t61 188v541h245v-983h-233v158h-4q-33 -74 -114 -130t-184 -56q-186 -1 -285 122q-83 103 -85 275v614h246v-545z" />
    <glyph glyph-name="ucircumflex" unicode="&#xfb;" horiz-adv-x="1191" 
d="M739 1155l-141 184l-141 -184h-230l236 295h276l234 -295h-234zM385 438q0 -262 184 -262q110 0 169 78t61 188v541h245v-983h-233v158h-4q-33 -74 -114 -130t-184 -56q-186 -1 -285 122q-83 103 -85 275v614h246v-545z" />
    <glyph glyph-name="udieresis" unicode="&#xfc;" horiz-adv-x="1191" 
d="M651 1319q0 57 41 100q40 43 104 43t107 -41t43 -102t-43 -102t-106 -41t-105 43q-41 43 -41 100zM250 1319q0 57 41 100t104 43t107 -41t43 -102q0 -61 -43 -102q-42 -41 -106 -41t-105 43t-41 100zM385 438q0 -262 184 -262q110 0 169 78t61 188v541h245v-983h-233v158
h-4q-33 -74 -114 -130t-184 -56q-186 -1 -285 122q-83 103 -85 275v614h246v-545z" />
    <glyph glyph-name="yacute" unicode="&#xfd;" horiz-adv-x="1050" 
d="M623 1450h278l-289 -295h-192zM106 -264q38 -12 85 -14t73 8q47 17 78 77q14 29 31 68l49 125l-422 983h272l275 -715h4l244 715h256l-465 -1194q-58 -145 -137 -212t-236 -69q-65 0 -127 15z" />
    <glyph glyph-name="thorn" unicode="&#xfe;" horiz-adv-x="1300" 
d="M961 494q0 125 -74 221t-203 96q-130 0 -211 -95t-83 -221q-1 -126 80 -222q81 -97 211 -97t205 96t75 222zM397 1548v-690h6q110 152 348 154q87 0 175 -40q176 -80 250 -274q34 -94 34 -202q-1 -224 -133 -375q-132 -150 -350 -150q-102 0 -193 44t-133 120h-4v-602
h-245v2015h245z" />
    <glyph glyph-name="ydieresis" unicode="&#xff;" horiz-adv-x="1050" 
d="M602 1319q0 57 41 100t105 43t106 -41q43 -41 43 -102t-43 -102t-106 -41t-105 43q-41 43 -41 100zM201 1319q0 57 41 100t104 43q62 0 106 -41t44 -102t-43 -102t-107 -41t-104 43q-41 43 -41 100zM106 -264q38 -12 85 -14t73 8q47 17 78 77q14 29 31 68l49 125
l-422 983h272l275 -715h4l244 715h256l-465 -1194q-58 -145 -137 -212t-236 -69q-65 0 -127 15z" />
    <glyph glyph-name="Amacron" unicode="&#x100;" horiz-adv-x="1445" 
d="M1055 1628h-656v160h656v-160zM942 553l-223 590l-227 -590h450zM614 1450h224l624 -1450h-295l-135 332h-629l-131 -332h-288z" />
    <glyph glyph-name="amacron" unicode="&#x101;" horiz-adv-x="1126" 
d="M909 1219h-655v159h655v-159zM698 449q-377 0 -374 -164q0 -123 172 -123q126 0 192 68t66 184v35h-56zM133 856q167 156 425 156q122 0 207 -37q222 -97 222 -377v-598h-229v125h-6q-37 -66 -119 -108t-164 -42q-164 0 -265 67q-126 84 -126 239q0 199 223 276
q160 57 453 57v25q0 92 -67 136t-152 44t-157 -33t-118 -79z" />
    <glyph glyph-name="Abreve" unicode="&#x102;" horiz-adv-x="1445" 
d="M514 1860q24 -136 211 -136q88 0 139 25t74 111h135q-16 -152 -109 -224q-92 -72 -240 -72t-243 71q-94 71 -104 225h137zM942 553l-223 590l-227 -590h450zM614 1450h224l624 -1450h-295l-135 332h-629l-131 -332h-288z" />
    <glyph glyph-name="abreve" unicode="&#x103;" horiz-adv-x="1126" 
d="M570 1155q-148 0 -242 71t-105 224h137q25 -137 211 -135q88 0 140 24q51 25 73 111h136q-16 -152 -110 -224q-92 -72 -240 -71zM698 449q-377 0 -374 -164q0 -123 172 -123q126 0 192 68t66 184v35h-56zM133 856q167 156 425 156q122 0 207 -37q222 -97 222 -377v-598
h-229v125h-6q-37 -66 -119 -108t-164 -42q-164 0 -265 67q-126 84 -126 239q0 199 223 276q160 57 453 57v25q0 92 -67 136t-152 44t-157 -33t-118 -79z" />
    <glyph glyph-name="Aogonek" unicode="&#x104;" horiz-adv-x="1445" 
d="M942 553l-223 590l-227 -590h450zM973 -298q0 78 61 163t131 137l-133 330h-629l-131 -332h-288l630 1450h224l624 -1450h-174q-99 -91 -140 -184q-15 -35 -15 -70q-1 -34 27 -62t78 -28t99 43l52 -100q-98 -80 -205 -78q-141 0 -194 103q-17 34 -17 78z" />
    <glyph glyph-name="aogonek" unicode="&#x105;" horiz-adv-x="1126" 
d="M698 449q-377 0 -374 -164q0 -123 172 -123q126 0 192 68t66 184v35h-56zM133 856q167 156 425 156q122 0 207 -37q222 -97 222 -377v-598h-121q-99 -91 -140 -184q-15 -35 -15 -70q-1 -34 27 -62t78 -28t99 43l52 -100q-98 -80 -205 -78q-141 0 -194 103q-17 34 -17 78
q0 110 136 250q36 36 69 60h2v113h-6q-37 -66 -119 -108t-164 -42q-164 0 -265 67q-126 84 -126 239q0 199 223 276q160 57 453 57v25q0 92 -67 136t-152 44t-157 -33t-118 -79z" />
    <glyph glyph-name="Cacute" unicode="&#x106;" horiz-adv-x="1425" 
d="M879 1860h278l-289 -295h-192zM90 729q0 174 61 314q120 281 414 391q143 53 312 53q238 0 421 -123q61 -41 105 -98l-197 -156q-57 78 -149 114q-93 36 -193 36t-192 -41q-189 -84 -261 -281q-36 -96 -36 -212q0 -234 136 -384q136 -149 355 -147q117 0 207 46t146 121
l206 -145q-202 -254 -552 -254t-566 214q-217 215 -217 552z" />
    <glyph glyph-name="cacute" unicode="&#x107;" horiz-adv-x="999" 
d="M672 1450h278l-288 -295h-193zM612 807q-122 0 -194 -94t-72 -220q0 -125 74 -221t205 -96q57 0 114 23t92 65l154 -155q-61 -66 -157 -102t-204 -36q-110 0 -207 35q-199 72 -285 266q-42 96 -42 218q0 235 153 378q153 144 373 144q109 0 210 -41t161 -113l-168 -147
q-29 41 -86 69t-121 27z" />
    <glyph glyph-name="Ccircumflex" unicode="&#x108;" horiz-adv-x="1425" 
d="M1018 1565l-141 184l-142 -184h-229l235 295h277l233 -295h-233zM90 729q0 174 61 314q120 281 414 391q143 53 312 53q238 0 421 -123q61 -41 105 -98l-197 -156q-57 78 -149 114q-93 36 -193 36t-192 -41q-189 -84 -261 -281q-36 -96 -36 -212q0 -234 136 -384
q136 -149 355 -147q117 0 207 46t146 121l206 -145q-202 -254 -552 -254t-566 214q-217 215 -217 552z" />
    <glyph glyph-name="ccircumflex" unicode="&#x109;" horiz-adv-x="999" 
d="M756 1155l-142 184l-141 -184h-229l235 295h277l233 -295h-233zM612 807q-122 0 -194 -94t-72 -220q0 -125 74 -221t205 -96q57 0 114 23t92 65l154 -155q-61 -66 -157 -102t-204 -36q-110 0 -207 35q-199 72 -285 266q-42 96 -42 218q0 235 153 378q153 144 373 144
q109 0 210 -41t161 -113l-168 -147q-29 41 -86 69t-121 27z" />
    <glyph glyph-name="Cdotaccent" unicode="&#x10a;" horiz-adv-x="1425" 
d="M715 1726q0 60 44 104q43 44 111 44t114 -42t46 -106t-46 -105q-46 -42 -114 -42t-112 44t-43 103zM90 729q0 174 61 314q120 281 414 391q143 53 312 53q238 0 421 -123q61 -41 105 -98l-197 -156q-57 78 -149 114q-93 36 -193 36t-192 -41q-189 -84 -261 -281
q-36 -96 -36 -212q0 -234 136 -384q136 -149 355 -147q117 0 207 46t146 121l206 -145q-202 -254 -552 -254t-566 214q-217 215 -217 552z" />
    <glyph glyph-name="cdotaccent" unicode="&#x10b;" horiz-adv-x="999" 
d="M455 1317q0 59 44 103q43 44 111 44t114 -42t46 -105t-46 -105t-114 -43q-68 1 -112 45t-43 103zM612 807q-122 0 -194 -94t-72 -220q0 -125 74 -221t205 -96q57 0 114 23t92 65l154 -155q-61 -66 -157 -102t-204 -36q-110 0 -207 35q-199 72 -285 266q-42 96 -42 218
q0 235 153 378q153 144 373 144q109 0 210 -41t161 -113l-168 -147q-29 41 -86 69t-121 27z" />
    <glyph glyph-name="Ccaron" unicode="&#x10c;" horiz-adv-x="1425" 
d="M731 1860l141 -185l142 185h225l-235 -295h-273l-233 295h233zM90 729q0 174 61 314q120 281 414 391q143 53 312 53q238 0 421 -123q61 -41 105 -98l-197 -156q-57 78 -149 114q-93 36 -193 36t-192 -41q-189 -84 -261 -281q-36 -96 -36 -212q0 -234 136 -384
q136 -149 355 -147q117 0 207 46t146 121l206 -145q-202 -254 -552 -254t-566 214q-217 215 -217 552z" />
    <glyph glyph-name="ccaron" unicode="&#x10d;" horiz-adv-x="999" 
d="M481 1450l142 -184l141 184h225l-235 -295h-273l-233 295h233zM612 807q-122 0 -194 -94t-72 -220q0 -125 74 -221t205 -96q57 0 114 23t92 65l154 -155q-61 -66 -157 -102t-204 -36q-110 0 -207 35q-199 72 -285 266q-42 96 -42 218q0 235 153 378q153 144 373 144
q109 0 210 -41t161 -113l-168 -147q-29 41 -86 69t-121 27z" />
    <glyph glyph-name="Dcaron" unicode="&#x10e;" horiz-adv-x="1564" 
d="M567 1860l142 -185l141 185h225l-235 -295h-273l-233 295h233zM633 225q378 0 514 256q51 96 51 248q0 277 -183 404q-138 94 -382 96h-215v-1004h215zM160 1450h514q326 0 543 -159q258 -191 258 -566q0 -189 -72 -327q-139 -266 -445 -356q-143 -42 -284 -42h-514v1450
z" />
    <glyph glyph-name="dcaron" unicode="&#x10f;" horiz-adv-x="1298" 
d="M1335 1450h217l-163 -399h-187zM833 276q76 90 76 216t-81 222q-81 97 -211 97t-204 -95q-75 -95 -75 -222t75 -223q75 -95 203 -95t217 100zM1147 0h-234v147h-4q-51 -86 -142 -131t-200 -45q-211 0 -345 152t-134 372t134 368q134 149 343 149q168 0 283 -103
q29 -27 47 -51h6v690h246v-1548z" />
    <glyph glyph-name="Dcroat" unicode="&#x110;" horiz-adv-x="1564" 
d="M612 233q261 0 416 114q172 125 172 377q0 253 -154 379q-143 114 -391 114h-235v-381h442v-172h-442v-431h192zM162 664h-135v172h135v614h571q310 0 512 -178q225 -199 225 -547q0 -187 -70 -323t-182 -225t-248 -133t-268 -44h-540v664z" />
    <glyph glyph-name="dcroat" unicode="&#x111;" horiz-adv-x="1298" 
d="M833 276q76 90 76 216t-81 222q-81 97 -211 97t-204 -95q-75 -95 -75 -222t75 -223q75 -95 203 -95t217 100zM1257 1167h-110v-1167h-234v147h-4q-51 -86 -142 -131t-200 -45q-211 0 -345 152t-134 372t134 368q134 149 343 149q168 0 283 -103q29 -27 47 -51h6v309h-348
v154h348v227h246v-227h110v-154z" />
    <glyph glyph-name="Emacron" unicode="&#x112;" 
d="M977 1628h-655v160h655v-160zM160 1450h960v-225h-702v-369h665v-217h-665v-410h739v-229h-997v1450z" />
    <glyph glyph-name="emacron" unicode="&#x113;" horiz-adv-x="1175" 
d="M940 1219h-655v159h655v-159zM616 172q171 0 261 127l163 -131q-145 -197 -422 -197q-229 0 -378 139q-150 139 -150 374t149 382q149 146 366 146t349 -139q131 -139 131 -394v-33q0 -16 -2 -32h-747q8 -106 91 -174t189 -68zM840 590q0 161 -128 218q-44 19 -104 19
q-112 -1 -188 -67t-84 -170h504z" />
    <glyph glyph-name="Ebreve" unicode="&#x114;" 
d="M647 1724q88 0 139 25t74 111h135q-16 -152 -109 -224q-92 -72 -240 -72t-243 71q-94 71 -104 225h137q24 -136 211 -136zM160 1450h960v-225h-702v-369h665v-217h-665v-410h739v-229h-997v1450z" />
    <glyph glyph-name="ebreve" unicode="&#x115;" horiz-adv-x="1175" 
d="M614 1155q-148 0 -241 71q-94 71 -105 224h138q25 -137 210 -135q88 0 140 24q51 25 73 111h136q-15 -152 -109 -224t-242 -71zM616 172q171 0 261 127l163 -131q-145 -197 -422 -197q-229 0 -378 139q-150 139 -150 374t149 382q149 146 366 146t349 -139
q131 -139 131 -394v-33q0 -16 -2 -32h-747q8 -106 91 -174t189 -68zM840 590q0 161 -128 218q-44 19 -104 19q-112 -1 -188 -67t-84 -170h504z" />
    <glyph glyph-name="Edotaccent" unicode="&#x116;" 
d="M500 1726q0 60 44 104t112 44t113 -42q46 -42 46 -106t-46 -105q-46 -42 -114 -42q-67 0 -111 44t-44 103zM160 1450h960v-225h-702v-369h665v-217h-665v-410h739v-229h-997v1450z" />
    <glyph glyph-name="edotaccent" unicode="&#x117;" horiz-adv-x="1175" 
d="M455 1317q0 59 44 103q43 44 111 44t114 -42t46 -105t-46 -105t-114 -43q-68 1 -112 45t-43 103zM616 172q171 0 261 127l163 -131q-145 -197 -422 -197q-229 0 -378 139q-150 139 -150 374t149 382q149 146 366 146t349 -139q131 -139 131 -394v-33q0 -16 -2 -32h-747
q8 -106 91 -174t189 -68zM840 590q0 161 -128 218q-44 19 -104 19q-112 -1 -188 -67t-84 -170h504z" />
    <glyph glyph-name="Eogonek" unicode="&#x118;" 
d="M160 0v1450h960v-225h-702v-369h665v-217h-665v-410h739v-229h-53q-152 -140 -156 -250q0 -38 28 -66t78 -28t99 43l51 -100q-98 -80 -205 -78q-140 0 -193 103q-67 134 105 316q33 34 66 60h-817z" />
    <glyph glyph-name="eogonek" unicode="&#x119;" horiz-adv-x="1175" 
d="M840 590q0 161 -128 218q-44 19 -104 19q-112 -1 -188 -67t-84 -170h504zM600 -29q-223 4 -366 143q-144 139 -144 372t149 380q149 146 366 146t349 -140t131 -393v-33q0 -16 -2 -32h-747q8 -106 91 -174t189 -68q171 0 261 127l163 -131q-111 -150 -299 -184
q-90 -90 -125 -173q-12 -32 -12 -66q0 -33 28 -61t78 -28t99 43l51 -100q-98 -80 -205 -78q-140 0 -193 103q-17 34 -18 79q0 123 156 268z" />
    <glyph glyph-name="Ecaron" unicode="&#x11a;" 
d="M510 1860l141 -185l142 185h225l-236 -295h-272l-234 295h234zM160 1450h960v-225h-702v-369h665v-217h-665v-410h739v-229h-997v1450z" />
    <glyph glyph-name="ecaron" unicode="&#x11b;" horiz-adv-x="1175" 
d="M479 1450l142 -184l141 184h225l-235 -295h-273l-233 295h233zM616 172q171 0 261 127l163 -131q-145 -197 -422 -197q-229 0 -378 139q-150 139 -150 374t149 382q149 146 366 146t349 -139q131 -139 131 -394v-33q0 -16 -2 -32h-747q8 -106 91 -174t189 -68zM840 590
q0 161 -128 218q-44 19 -104 19q-112 -1 -188 -67t-84 -170h504z" />
    <glyph glyph-name="Gcircumflex" unicode="&#x11c;" horiz-adv-x="1583" 
d="M1022 1565l-141 184l-142 -184h-229l235 295h277l233 -295h-233zM90 729q0 174 61 314q120 281 414 391q143 53 315 53t315 -50q144 -50 232 -132l-178 -193q-55 60 -154 104t-215 44t-209 -41q-188 -83 -260 -281q-36 -96 -36 -211q0 -230 140 -382t376 -150
q166 0 289 51v368h-306v213h556v-751q-237 -113 -547 -113q-352 0 -572 214q-221 215 -221 552z" />
    <glyph glyph-name="gcircumflex" unicode="&#x11d;" horiz-adv-x="1294" 
d="M805 1155l-141 184l-142 -184h-229l235 295h277l233 -295h-233zM340 503q0 -130 78 -223q78 -94 204 -94q127 0 209 92t82 221q0 130 -80 221t-209 91t-207 -89q-77 -89 -77 -219zM222 135q-132 149 -132 364t132 364t349 149q105 0 195 -43t143 -133h4v147h234v-895
q0 -418 -307 -539q-104 -41 -248 -41q-283 0 -488 162l142 191q148 -140 344 -140q311 0 311 338v72h-4q-108 -147 -323 -147q-214 0 -352 151z" />
    <glyph glyph-name="Gbreve" unicode="&#x11e;" horiz-adv-x="1583" 
d="M670 1860q24 -136 211 -136q88 0 139 25t74 111h135q-15 -152 -109 -224t-241 -72t-242 71q-94 71 -105 225h138zM90 729q0 174 61 314q120 281 414 391q143 53 315 53t315 -50q144 -50 232 -132l-178 -193q-55 60 -154 104t-215 44t-209 -41q-188 -83 -260 -281
q-36 -96 -36 -211q0 -230 140 -382t376 -150q166 0 289 51v368h-306v213h556v-751q-237 -113 -547 -113q-352 0 -572 214q-221 215 -221 552z" />
    <glyph glyph-name="gbreve" unicode="&#x11f;" horiz-adv-x="1294" 
d="M640 1155q-148 0 -243 71q-94 71 -104 224h137q25 -137 211 -135q88 1 139 25t74 110h135q-16 -152 -109 -224q-92 -72 -240 -71zM340 503q0 -130 78 -223q78 -94 204 -94q127 0 209 92t82 221q0 130 -80 221t-209 91t-207 -89q-77 -89 -77 -219zM222 135
q-132 149 -132 364t132 364t349 149q105 0 195 -43t143 -133h4v147h234v-895q0 -418 -307 -539q-104 -41 -248 -41q-283 0 -488 162l142 191q148 -140 344 -140q311 0 311 338v72h-4q-108 -147 -323 -147q-214 0 -352 151z" />
    <glyph glyph-name="Gdotaccent" unicode="&#x120;" horiz-adv-x="1583" 
d="M725 1726q0 60 44 104t112 44q67 0 113 -42t46 -106t-46 -105q-46 -42 -114 -42t-111 44q-44 44 -44 103zM90 729q0 174 61 314q120 281 414 391q143 53 315 53t315 -50q144 -50 232 -132l-178 -193q-55 60 -154 104t-215 44t-209 -41q-188 -83 -260 -281
q-36 -96 -36 -211q0 -230 140 -382t376 -150q166 0 289 51v368h-306v213h556v-751q-237 -113 -547 -113q-352 0 -572 214q-221 215 -221 552z" />
    <glyph glyph-name="gdotaccent" unicode="&#x121;" horiz-adv-x="1294" 
d="M489 1317q1 59 45 103t112 44t113 -42q46 -42 46 -105t-46 -105t-114 -43q-68 1 -112 45t-44 103zM340 503q0 -130 78 -223q78 -94 204 -94q127 0 209 92t82 221q0 130 -80 221t-209 91t-207 -89q-77 -89 -77 -219zM222 135q-132 149 -132 364t132 364t349 149
q105 0 195 -43t143 -133h4v147h234v-895q0 -418 -307 -539q-104 -41 -248 -41q-283 0 -488 162l142 191q148 -140 344 -140q311 0 311 338v72h-4q-108 -147 -323 -147q-214 0 -352 151z" />
    <glyph glyph-name="Gcommaaccent" unicode="&#x122;" horiz-adv-x="1583" 
d="M791 -92h217l-164 -400h-187zM90 729q0 174 61 314q120 281 414 391q143 53 315 53t315 -50q144 -50 232 -132l-178 -193q-55 60 -154 104t-215 44t-209 -41q-188 -83 -260 -281q-36 -96 -36 -211q0 -230 140 -382t376 -150q166 0 289 51v368h-306v213h556v-751
q-237 -113 -547 -113q-352 0 -572 214q-221 215 -221 552z" />
    <glyph glyph-name="gcommaaccent" unicode="&#x123;" horiz-adv-x="1294" 
d="M686 1155h-217l164 399h186zM340 503q0 -130 78 -223q78 -94 204 -94q127 0 209 92t82 221q0 130 -80 221t-209 91t-207 -89q-77 -89 -77 -219zM222 135q-132 149 -132 364t132 364t349 149q105 0 195 -43t143 -133h4v147h234v-895q0 -418 -307 -539q-104 -41 -248 -41
q-283 0 -488 162l142 191q148 -140 344 -140q311 0 311 338v72h-4q-108 -147 -323 -147q-214 0 -352 151z" />
    <glyph glyph-name="Hcircumflex" unicode="&#x124;" horiz-adv-x="1513" 
d="M899 1565l-141 184l-142 -184h-229l236 295h276l234 -295h-234zM160 1450h258v-586h678v586h258v-1450h-258v643h-678v-643h-258v1450z" />
    <glyph glyph-name="hcircumflex" unicode="&#x125;" horiz-adv-x="1196" 
d="M741 1630l-141 185l-141 -185h-230l236 295h276l234 -295h-234zM811 541q0 260 -182 260q-111 0 -170 -78t-62 -186v-537h-245v1548h245v-702h4q29 65 109 115q80 51 180 51q184 0 282 -123q83 -103 85 -275v-614h-246v541z" />
    <glyph glyph-name="Hbar" unicode="&#x126;" horiz-adv-x="1513" 
d="M1096 864v160h-678v-160h678zM160 1450h258v-272h678v272h258v-1450h-258v643h-678v-643h-258v1450z" />
    <glyph glyph-name="hbar" unicode="&#x127;" horiz-adv-x="1196" 
d="M811 541q0 260 -182 260q-111 0 -170 -78t-62 -186v-537h-245v1167h-111v154h111v227h245v-227h348v-154h-348v-321h4q29 65 107 114q78 50 180 51q185 2 284 -122q83 -103 85 -275v-614h-246v541z" />
    <glyph glyph-name="Itilde" unicode="&#x128;" horiz-adv-x="577" 
d="M141 1833q81 0 162 -37q100 -39 133 -39q71 0 94 86h136q-42 -260 -230 -260q-74 0 -164 39t-131 39q-68 0 -94 -88h-135q42 260 229 260zM160 1450h258v-1450h-258v1450z" />
    <glyph glyph-name="itilde" unicode="&#x129;" horiz-adv-x="548" 
d="M131 1251q-69 0 -94 -88h-135q20 120 56 168q72 94 163 93t172 -38q97 -38 133 -38q69 0 94 86h135q-43 -263 -229 -260q-71 0 -163 38t-132 39zM152 983h245v-983h-245v983z" />
    <glyph glyph-name="Imacron" unicode="&#x12a;" horiz-adv-x="577" 
d="M616 1628h-655v160h655v-160zM160 1450h258v-1450h-258v1450z" />
    <glyph glyph-name="imacron" unicode="&#x12b;" horiz-adv-x="548" 
d="M606 1219h-655v159h655v-159zM152 983h245v-983h-245v983z" />
    <glyph glyph-name="Ibreve" unicode="&#x12c;" horiz-adv-x="577" 
d="M289 1763q88 0 139 25t74 110h135q-15 -152 -109 -224t-241 -70q-147 0 -242 70q-94 71 -104 224h137q24 -135 211 -135zM160 1450h258v-1450h-258v1450z" />
    <glyph glyph-name="ibreve" unicode="&#x12d;" horiz-adv-x="548" 
d="M274 1298q88 0 140 25q51 25 73 111h136q-15 -152 -109 -224t-242 -72t-241 72q-94 70 -105 224h137q24 -136 211 -136zM152 983h245v-983h-245v983z" />
    <glyph glyph-name="Iogonek" unicode="&#x12e;" horiz-adv-x="577" 
d="M76 -299q0 80 57 160t131 139h-104v1450h258v-1450h-27q-99 -91 -140 -184q-15 -35 -15 -70q0 -34 28 -62t77 -28q50 0 99 43l52 -100q-98 -80 -205 -78q-141 0 -194 103q-17 34 -17 77z" />
    <glyph glyph-name="iogonek" unicode="&#x12f;" horiz-adv-x="548" 
d="M117 1317q0 59 44 103q43 44 111 44t114 -42t46 -105t-46 -105t-114 -43q-68 1 -112 45t-43 103zM43 -299q0 80 57 160t131 139h-79v983h245v-983h-39q-99 -91 -140 -184q-15 -35 -15 -70q-1 -34 27 -62t77 -28t101 43l51 -100q-98 -80 -205 -78q-138 0 -194 103
q-17 34 -17 77z" />
    <glyph glyph-name="Idotaccent" unicode="&#x130;" horiz-adv-x="577" 
d="M129 1726q0 60 44 104t112 44q67 0 113 -42t46 -106t-46 -105q-46 -42 -114 -42t-111 44q-44 44 -44 103zM160 1450h258v-1450h-258v1450z" />
    <glyph glyph-name="dotlessi" unicode="&#x131;" horiz-adv-x="548" 
d="M152 983h245v-983h-245v983z" />
    <glyph glyph-name="Jcircumflex" unicode="&#x134;" horiz-adv-x="1019" 
d="M881 1565l-142 184l-141 -184h-229l235 295h277l233 -295h-233zM872 469q0 -336 -215 -457q-85 -49 -241 -49t-261 88t-145 232l238 67q18 -72 67 -114t111 -41q112 0 150 74t38 208v973h258v-981z" />
    <glyph glyph-name="jcircumflex" unicode="&#x135;" horiz-adv-x="548" 
d="M414 1155l-142 184l-141 -184h-229l235 295h277l233 -295h-233zM152 983h245v-1042q0 -205 -68 -305q-88 -128 -288 -128q-49 0 -111 13l21 209q24 -6 67 -7q115 -4 129 126q4 38 5 81v1053z" />
    <glyph glyph-name="Kcommaaccent" unicode="&#x136;" horiz-adv-x="1411" 
d="M643 -92h217l-164 -400h-186zM160 1450h258v-627h6l606 627h348l-678 -670l723 -780h-362l-637 727h-6v-727h-258v1450z" />
    <glyph glyph-name="kcommaaccent" unicode="&#x137;" horiz-adv-x="1112" 
d="M504 -92h217l-164 -400h-186zM152 1548h245v-979h6l373 414h316l-426 -444l452 -539h-325l-390 504h-6v-504h-245v1548z" />
    <glyph glyph-name="Lacute" unicode="&#x139;" horiz-adv-x="1046" 
d="M393 1860h279l-289 -295h-193zM160 1450h258v-1221h616v-229h-874v1450z" />
    <glyph glyph-name="lacute" unicode="&#x13a;" horiz-adv-x="548" 
d="M354 1917h279l-289 -295h-192zM152 1548h245v-1548h-245v1548z" />
    <glyph glyph-name="Lcommaaccent" unicode="&#x13b;" horiz-adv-x="1046" 
d="M516 -92h217l-164 -400h-186zM160 1450h258v-1221h616v-229h-874v1450z" />
    <glyph glyph-name="lcommaaccent" unicode="&#x13c;" horiz-adv-x="548" 
d="M193 -92h217l-164 -400h-187zM152 1548h245v-1548h-245v1548z" />
    <glyph glyph-name="Lcaron" unicode="&#x13d;" horiz-adv-x="1046" 
d="M678 1450h217l-164 -399h-186zM160 1450h258v-1221h616v-229h-874v1450z" />
    <glyph glyph-name="lcaron" unicode="&#x13e;" horiz-adv-x="548" 
d="M582 1450h217l-164 -399h-186zM152 1548h245v-1548h-245v1548z" />
    <glyph glyph-name="Ldot" unicode="&#x13f;" horiz-adv-x="1046" 
d="M649 702q0 60 44 104t112 44t114 -42t46 -106t-46 -105q-46 -42 -114 -42t-112 44t-44 103zM160 1450h258v-1221h616v-229h-874v1450z" />
    <glyph glyph-name="ldot" unicode="&#x140;" horiz-adv-x="800" 
d="M514 702q0 60 44 104t112 44t114 -42t45 -106q0 -64 -46 -105q-45 -42 -113 -42t-112 44t-44 103zM152 1548h245v-1548h-245v1548z" />
    <glyph glyph-name="Lslash" unicode="&#x141;" horiz-adv-x="1046" 
d="M160 1450h258v-614l422 370v-223l-422 -373v-381h616v-229h-874v412l-144 -127v225l144 127v813z" />
    <glyph glyph-name="lslash" unicode="&#x142;" horiz-adv-x="548" 
d="M152 1548h245v-522l142 141v-219l-142 -139v-809h-245v610l-142 -141v223l142 142v714z" />
    <glyph glyph-name="Nacute" unicode="&#x143;" horiz-adv-x="1597" 
d="M836 1860h278l-289 -295h-192zM160 1450h342l674 -1085h4v1085h258v-1450h-328l-688 1120h-4v-1120h-258v1450z" />
    <glyph glyph-name="nacute" unicode="&#x144;" horiz-adv-x="1191" 
d="M647 1450h279l-289 -295h-193zM807 545q0 262 -184 262q-110 0 -169 -78t-61 -188v-541h-246v983h234v-158h4q33 74 114 130q81 57 184 57q186 1 285 -123q83 -103 85 -275v-614h-246v545z" />
    <glyph glyph-name="Ncommaaccent" unicode="&#x145;" horiz-adv-x="1597" 
d="M725 -92h217l-164 -400h-186zM160 1450h342l674 -1085h4v1085h258v-1450h-328l-688 1120h-4v-1120h-258v1450z" />
    <glyph glyph-name="ncommaaccent" unicode="&#x146;" horiz-adv-x="1191" 
d="M520 -92h217l-164 -400h-186zM807 545q0 262 -184 262q-110 0 -169 -78t-61 -188v-541h-246v983h234v-158h4q33 74 114 130q81 57 184 57q186 1 285 -123q83 -103 85 -275v-614h-246v545z" />
    <glyph glyph-name="Ncaron" unicode="&#x147;" horiz-adv-x="1597" 
d="M659 1860l142 -185l141 185h225l-235 -295h-273l-233 295h233zM160 1450h342l674 -1085h4v1085h258v-1450h-328l-688 1120h-4v-1120h-258v1450z" />
    <glyph glyph-name="ncaron" unicode="&#x148;" horiz-adv-x="1191" 
d="M453 1450l141 -184l141 184h226l-236 -295h-272l-234 295h234zM807 545q0 262 -184 262q-110 0 -169 -78t-61 -188v-541h-246v983h234v-158h4q33 74 114 130q81 57 184 57q186 1 285 -123q83 -103 85 -275v-614h-246v545z" />
    <glyph glyph-name="Omacron" unicode="&#x14c;" horiz-adv-x="1738" 
d="M1198 1628h-655v160h655v-160zM371 727q0 -230 140 -382t359 -151t359 151q139 150 139 379q0 230 -139 383t-361 153q-113 0 -203 -41q-185 -84 -259 -281q-36 -96 -35 -211zM90 733q0 340 218 547t561 207t560 -206q218 -206 219 -547t-220 -556t-561 -215
q-339 0 -558 215t-219 555z" />
    <glyph glyph-name="omacron" unicode="&#x14d;" 
d="M952 1219h-655v159h655v-159zM625 176q135 0 209 96q75 96 75 222t-73 222q-73 95 -210 95q-136 0 -211 -95t-75 -222t70 -215q80 -103 215 -103zM625 1012q229 0 381 -144q153 -144 153 -372q0 -227 -154 -376t-380 -149t-380 148q-155 148 -155 377t153 372
q153 144 382 144z" />
    <glyph glyph-name="Obreve" unicode="&#x14e;" horiz-adv-x="1738" 
d="M659 1860q24 -136 211 -136q88 0 140 25q51 25 73 111h136q-15 -152 -109 -224t-242 -72t-241 72q-94 70 -105 224h137zM371 727q0 -230 140 -382t359 -151t359 151q139 150 139 379q0 230 -139 383t-361 153q-113 0 -203 -41q-185 -84 -259 -281q-36 -96 -35 -211z
M90 733q0 340 218 547t561 207t560 -206q218 -206 219 -547t-220 -556t-561 -215q-339 0 -558 215t-219 555z" />
    <glyph glyph-name="obreve" unicode="&#x14f;" 
d="M623 1155q-147 0 -242 71q-94 71 -105 224h138q25 -137 211 -135q88 1 139 25t74 110h135q-15 -152 -109 -224t-241 -71zM625 176q135 0 209 96q75 96 75 222t-73 222q-73 95 -210 95q-136 0 -211 -95t-75 -222t70 -215q80 -103 215 -103zM625 1012q229 0 381 -144
q153 -144 153 -372q0 -227 -154 -376t-380 -149t-380 148q-155 148 -155 377t153 372q153 144 382 144z" />
    <glyph glyph-name="Ohungarumlaut" unicode="&#x150;" horiz-adv-x="1738" 
d="M1180 1860h278l-289 -295h-192zM760 1860h278l-288 -295h-193zM371 727q0 -230 140 -382t359 -151t359 151q139 150 139 379q0 230 -139 383t-361 153q-113 0 -203 -41q-185 -84 -259 -281q-36 -96 -35 -211zM90 733q0 340 218 547t561 207t560 -206q218 -206 219 -547
t-220 -556t-561 -215q-339 0 -558 215t-219 555z" />
    <glyph glyph-name="ohungarumlaut" unicode="&#x151;" 
d="M948 1450h279l-289 -295h-193zM528 1450h279l-289 -295h-192zM625 176q135 0 209 96q75 96 75 222t-73 222q-73 95 -210 95q-136 0 -211 -95t-75 -222t70 -215q80 -103 215 -103zM625 1012q229 0 381 -144q153 -144 153 -372q0 -227 -154 -376t-380 -149t-380 148
q-155 148 -155 377t153 372q153 144 382 144z" />
    <glyph glyph-name="OE" unicode="&#x152;" horiz-adv-x="2103" 
d="M1974 1450v-225h-671v-369h634v-217h-634v-410h708v-229h-1120q-141 0 -285 42q-307 90 -444 355q-72 137 -72 335t72 336q139 266 444 345q143 37 285 37h1083zM1044 229v996h-112q-245 0 -382 -95q-183 -124 -183 -398t183 -401q148 -102 382 -102h112z" />
    <glyph glyph-name="oe" unicode="&#x153;" horiz-adv-x="1964" 
d="M1628 590q0 163 -128 218q-44 19 -103 19q-111 -1 -188 -67t-85 -170h504zM625 176q135 0 209 96q75 96 75 222t-73 222q-73 95 -210 95q-136 0 -211 -95t-75 -222t70 -215q80 -103 215 -103zM1405 -29q-131 1 -235 51t-164 136q-60 -84 -162 -135t-220 -51t-214 38
q-96 39 -167 108q-153 149 -153 378t151 373q151 143 375 143q126 0 230 -52t166 -139q64 83 162 137t212 54q223 0 353 -134q135 -144 135 -399v-33q0 -16 -2 -32h-748q12 -108 93 -175t188 -67q170 0 260 129l162 -133q-145 -197 -422 -197z" />
    <glyph glyph-name="Racute" unicode="&#x154;" horiz-adv-x="1288" 
d="M662 1860h278l-289 -295h-192zM629 825q311 0 311 211q0 106 -94 158q-70 39 -195 39h-233v-408h211zM160 1450h504q365 0 489 -221q45 -80 45 -195q0 -158 -89 -257t-243 -134l387 -643h-311l-336 614h-188v-614h-258v1450z" />
    <glyph glyph-name="racute" unicode="&#x155;" horiz-adv-x="745" 
d="M414 1450h278l-289 -295h-192zM393 526v-526h-246v983h236v-164h4q41 86 115 139t172 54q41 0 59 -6v-226q-36 9 -98 10t-113 -30t-90 -89t-39 -145z" />
    <glyph glyph-name="Rcommaaccent" unicode="&#x156;" horiz-adv-x="1288" 
d="M567 -92h217l-163 -400h-187zM629 825q311 0 311 211q0 106 -94 158q-70 39 -195 39h-233v-408h211zM160 1450h504q365 0 489 -221q45 -80 45 -195q0 -158 -89 -257t-243 -134l387 -643h-311l-336 614h-188v-614h-258v1450z" />
    <glyph glyph-name="rcommaaccent" unicode="&#x157;" horiz-adv-x="745" 
d="M190 -92h218l-164 -400h-187zM393 526v-526h-246v983h236v-164h4q41 86 115 139t172 54q41 0 59 -6v-226q-36 9 -98 10t-113 -30t-90 -89t-39 -145z" />
    <glyph glyph-name="Rcaron" unicode="&#x158;" horiz-adv-x="1288" 
d="M487 1860l142 -185l141 185h225l-235 -295h-273l-233 295h233zM629 825q311 0 311 211q0 106 -94 158q-70 39 -195 39h-233v-408h211zM160 1450h504q365 0 489 -221q45 -80 45 -195q0 -158 -89 -257t-243 -134l387 -643h-311l-336 614h-188v-614h-258v1450z" />
    <glyph glyph-name="rcaron" unicode="&#x159;" horiz-adv-x="745" 
d="M293 1450l141 -184l141 184h226l-236 -295h-272l-234 295h234zM393 526v-526h-246v983h236v-164h4q41 86 115 139t172 54q41 0 59 -6v-226q-36 9 -98 10t-113 -30t-90 -89t-39 -145z" />
    <glyph glyph-name="Sacute" unicode="&#x15a;" horiz-adv-x="1175" 
d="M680 1860h278l-288 -295h-193zM648 1272q-116 0 -194 -51t-78 -146q1 -95 78 -145q47 -33 158 -68q111 -36 186 -64t137 -75q142 -108 142 -297q0 -222 -151 -342q-151 -121 -377 -121q-141 0 -277 52t-221 155l185 172q53 -74 142 -117q88 -43 154 -43q190 0 260 116
q24 40 24 98q-1 144 -206 210l-129 43q-167 50 -249 125q-119 107 -117 287q1 206 159 316t371 110q111 0 225 -39t197 -117l-168 -184q-41 53 -116 89t-135 36z" />
    <glyph glyph-name="sacute" unicode="&#x15b;" horiz-adv-x="909" 
d="M526 1450h279l-289 -295h-192zM313 721q1 -57 55 -81t134 -42q162 -37 238 -93q104 -77 104 -206q0 -168 -124 -254q-103 -72 -286 -74q-116 0 -224 42t-179 120l162 152q41 -53 107 -88t135 -35q70 0 105 19q62 35 62 97t-56 89t-140 46t-136 39q-184 68 -184 246
q0 154 114 233t249 80q278 2 397 -149l-160 -141q-33 43 -90 75q-56 32 -120 32t-114 -25q-49 -25 -49 -82z" />
    <glyph glyph-name="Scircumflex" unicode="&#x15c;" horiz-adv-x="1175" 
d="M778 1565l-141 184l-141 -184h-230l236 295h276l234 -295h-234zM648 1272q-116 0 -194 -51t-78 -146q1 -95 78 -145q47 -33 158 -68q111 -36 186 -64t137 -75q142 -108 142 -297q0 -222 -151 -342q-151 -121 -377 -121q-141 0 -277 52t-221 155l185 172q53 -74 142 -117
q88 -43 154 -43q190 0 260 116q24 40 24 98q-1 144 -206 210l-129 43q-167 50 -249 125q-119 107 -117 287q1 206 159 316t371 110q111 0 225 -39t197 -117l-168 -184q-41 53 -116 89t-135 36z" />
    <glyph glyph-name="scircumflex" unicode="&#x15d;" horiz-adv-x="909" 
d="M623 1155l-142 184l-141 -184h-229l235 295h277l233 -295h-233zM313 721q1 -57 55 -81t134 -42q162 -37 238 -93q104 -77 104 -206q0 -168 -124 -254q-103 -72 -286 -74q-116 0 -224 42t-179 120l162 152q41 -53 107 -88t135 -35q70 0 105 19q62 35 62 97t-56 89t-140 46
t-136 39q-184 68 -184 246q0 154 114 233t249 80q278 2 397 -149l-160 -141q-33 43 -90 75q-56 32 -120 32t-114 -25q-49 -25 -49 -82z" />
    <glyph glyph-name="Scedilla" unicode="&#x15e;" horiz-adv-x="1175" 
d="M505 -223q-32 0 -65 -13l-47 52l103 149q-129 9 -248 61t-197 144l185 172q53 -74 142 -117q88 -43 154 -43q190 0 260 116q24 40 24 98q-1 144 -206 210l-129 43q-167 50 -249 125q-119 107 -117 287q1 206 159 316t371 110q111 0 225 -39t197 -117l-168 -184
q-41 53 -116 89t-135 36q-116 0 -194 -51t-78 -146q1 -95 78 -145q47 -33 158 -68q111 -36 186 -64t137 -75q142 -108 142 -306t-131 -316t-332 -134l-67 -98q12 2 22 2h17q212 0 215 -170q0 -101 -93 -153q-68 -37 -188 -39t-223 53l47 98q78 -41 168 -41q114 0 117 84
q0 74 -124 74z" />
    <glyph glyph-name="scedilla" unicode="&#x15f;" horiz-adv-x="909" 
d="M378 -223q-32 0 -65 -13l-47 52l109 159q-224 22 -344 158l162 152q41 -53 107 -88t135 -35q70 0 105 19q62 35 62 97t-56 89t-140 46t-136 39q-184 68 -184 246q0 154 114 233t249 80q278 2 397 -149l-160 -141q-33 43 -90 75q-56 32 -120 32t-114 -25q-49 -25 -49 -82
q1 -57 55 -81t134 -42q162 -37 238 -93q104 -77 104 -217t-98 -221t-252 -94l-74 -104q12 2 22 2h17q212 0 215 -170q0 -101 -93 -153q-68 -37 -188 -39t-223 53l47 98q78 -41 168 -41q114 0 117 84q0 74 -124 74z" />
    <glyph glyph-name="Scaron" unicode="&#x160;" horiz-adv-x="1175" 
d="M496 1860l141 -185l141 185h226l-236 -295h-272l-234 295h234zM648 1272q-116 0 -194 -51t-78 -146q1 -95 78 -145q47 -33 158 -68q111 -36 186 -64t137 -75q142 -108 142 -297q0 -222 -151 -342q-151 -121 -377 -121q-141 0 -277 52t-221 155l185 172q53 -74 142 -117
q88 -43 154 -43q190 0 260 116q24 40 24 98q-1 144 -206 210l-129 43q-167 50 -249 125q-119 107 -117 287q1 206 159 316t371 110q111 0 225 -39t197 -117l-168 -184q-41 53 -116 89t-135 36z" />
    <glyph glyph-name="scaron" unicode="&#x161;" horiz-adv-x="909" 
d="M330 1450l141 -184l141 184h226l-236 -295h-272l-234 295h234zM313 721q1 -57 55 -81t134 -42q162 -37 238 -93q104 -77 104 -206q0 -168 -124 -254q-103 -72 -286 -74q-116 0 -224 42t-179 120l162 152q41 -53 107 -88t135 -35q70 0 105 19q62 35 62 97t-56 89t-140 46
t-136 39q-184 68 -184 246q0 154 114 233t249 80q278 2 397 -149l-160 -141q-33 43 -90 75q-56 32 -120 32t-114 -25q-49 -25 -49 -82z" />
    <glyph glyph-name="Tcommaaccent" unicode="&#x162;" horiz-adv-x="1163" 
d="M647 -297q0 74 -123 74q-31 0 -65 -13l-47 52l127 184h-86v1225h-445v225h1147v-225h-444v-1225h-54l-92 -131q12 2 21 2h18q215 0 215 -170q0 -102 -93 -153q-68 -37 -187 -39t-224 53l47 98q78 -41 160 -41q125 0 125 84z" />
    <glyph glyph-name="tcommaaccent" unicode="&#x163;" horiz-adv-x="696" 
d="M420 330q0 -66 24 -109t95 -43q72 0 114 21l9 -193q-56 -20 -135 -26l-78 -111q12 2 22 2h16q215 0 215 -170q0 -102 -93 -153q-68 -37 -157 -39q-150 -2 -253 53l47 98q78 -41 159 -41t113 41q12 16 12 41t-11 39q-29 37 -86 37t-91 -13l-47 52l117 170
q-234 39 -234 342v458h-172v197h172v285h242v-285h246v-197h-246v-456z" />
    <glyph glyph-name="Tcaron" unicode="&#x164;" horiz-adv-x="1163" 
d="M449 1860l141 -185l141 185h225l-235 -295h-272l-234 295h234zM453 1225h-445v225h1147v-225h-444v-1225h-258v1225z" />
    <glyph glyph-name="tcaron" unicode="&#x165;" horiz-adv-x="696" 
d="M608 1497h217l-163 -399h-187zM495 -20q-257 0 -304 214q-13 62 -13 134v458h-172v197h172v285h242v-285h246v-197h-246v-456q0 -66 24 -109t95 -43q72 0 114 21l9 -193q-72 -26 -167 -26z" />
    <glyph glyph-name="Tbar" unicode="&#x166;" horiz-adv-x="1163" 
d="M1036 885h-325v-885h-258v885h-306v153h306v187h-445v225h1147v-225h-444v-187h325v-153z" />
    <glyph glyph-name="tbar" unicode="&#x167;" horiz-adv-x="696" 
d="M495 -20q-257 0 -304 214q-13 62 -13 134v121h-153v153h153v184h-172v197h172v285h242v-285h246v-197h-246v-184h205v-153h-205v-119q0 -66 24 -109t95 -43q72 0 114 21l9 -193q-72 -26 -167 -26z" />
    <glyph glyph-name="Utilde" unicode="&#x168;" horiz-adv-x="1462" 
d="M592 1833q81 0 162 -37q100 -39 133 -39q69 0 94 86h135q-42 -260 -229 -260q-74 0 -164 39t-131 39q-71 0 -94 -88h-136q42 260 230 260zM1315 532q0 -256 -165 -412q-165 -157 -417 -157t-419 155t-167 414v918h259v-907q0 -234 171 -318q62 -31 154 -31q93 0 155 32
q168 82 171 317v907h258v-918z" />
    <glyph glyph-name="utilde" unicode="&#x169;" horiz-adv-x="1191" 
d="M449 1251q-70 0 -95 -88h-135q19 119 56 167t77 71q95 55 260 -15q91 -38 131 -38q70 0 95 86h135q-43 -263 -230 -260q-70 0 -163 38q-92 38 -131 39zM385 438q0 -262 184 -262q110 0 169 78t61 188v541h245v-983h-233v158h-4q-33 -74 -114 -130t-184 -56
q-186 -1 -285 122q-83 103 -85 275v614h246v-545z" />
    <glyph glyph-name="Umacron" unicode="&#x16a;" horiz-adv-x="1462" 
d="M1067 1628h-655v160h655v-160zM1315 532q0 -256 -165 -412q-165 -157 -417 -157t-419 155t-167 414v918h259v-907q0 -234 171 -318q62 -31 154 -31q93 0 155 32q168 82 171 317v907h258v-918z" />
    <glyph glyph-name="umacron" unicode="&#x16b;" horiz-adv-x="1191" 
d="M922 1219h-656v159h656v-159zM385 438q0 -262 184 -262q110 0 169 78t61 188v541h245v-983h-233v158h-4q-33 -74 -114 -130t-184 -56q-186 -1 -285 122q-83 103 -85 275v614h246v-545z" />
    <glyph glyph-name="Ubreve" unicode="&#x16c;" horiz-adv-x="1462" 
d="M518 1860q24 -136 211 -136q88 0 139 25t74 111h135q-16 -152 -109 -224q-92 -72 -240 -72t-243 71q-94 71 -104 225h137zM1315 532q0 -256 -165 -412q-165 -157 -417 -157t-419 155t-167 414v918h259v-907q0 -234 171 -318q62 -31 154 -31q93 0 155 32q168 82 171 317
v907h258v-918z" />
    <glyph glyph-name="ubreve" unicode="&#x16d;" horiz-adv-x="1191" 
d="M590 1155q-147 0 -242 71q-94 71 -104 224h137q25 -137 211 -135q88 1 139 25t74 110h135q-16 -152 -110 -224t-240 -71zM385 438q0 -262 184 -262q110 0 169 78t61 188v541h245v-983h-233v158h-4q-33 -74 -114 -130t-184 -56q-186 -1 -285 122q-83 103 -85 275v614h246
v-545z" />
    <glyph glyph-name="Uring" unicode="&#x16e;" horiz-adv-x="1462" 
d="M860 1751q0 51 -35 84t-87 33t-86 -34t-34 -84t35 -83t86 -33t86 33t35 84zM954 1751q0 -92 -61 -150q-61 -59 -153 -59t-154 58t-62 150q0 91 62 150q62 60 154 60q91 0 153 -58q61 -59 61 -151zM1315 532q0 -256 -165 -412q-165 -157 -417 -157t-419 155t-167 414v918
h259v-907q0 -234 171 -318q62 -31 154 -31q93 0 155 32q168 82 171 317v907h258v-918z" />
    <glyph glyph-name="uring" unicode="&#x16f;" horiz-adv-x="1191" 
d="M711 1341q0 51 -35 84t-87 33t-86 -34t-34 -84t35 -83t86 -33t86 34q35 32 35 83zM805 1341q1 -92 -61 -150t-154 -58t-154 58q-61 58 -61 149t62 151q62 59 153 59q92 0 154 -58t61 -151zM385 438q0 -262 184 -262q110 0 169 78t61 188v541h245v-983h-233v158h-4
q-33 -74 -114 -130t-184 -56q-186 -1 -285 122q-83 103 -85 275v614h246v-545z" />
    <glyph glyph-name="Uhungarumlaut" unicode="&#x170;" horiz-adv-x="1462" 
d="M1038 1860h279l-289 -295h-192zM618 1860h279l-289 -295h-192zM1315 532q0 -256 -165 -412q-165 -157 -417 -157t-419 155t-167 414v918h259v-907q0 -234 171 -318q62 -31 154 -31q93 0 155 32q168 82 171 317v907h258v-918z" />
    <glyph glyph-name="uhungarumlaut" unicode="&#x171;" horiz-adv-x="1191" 
d="M897 1450h279l-289 -295h-193zM477 1450h279l-289 -295h-193zM385 438q0 -262 184 -262q110 0 169 78t61 188v541h245v-983h-233v158h-4q-33 -74 -114 -130t-184 -56q-186 -1 -285 122q-83 103 -85 275v614h246v-545z" />
    <glyph glyph-name="Uogonek" unicode="&#x172;" horiz-adv-x="1462" 
d="M551 -284q0 58 45 126q45 70 102 123q-243 12 -397 166t-154 401v918h259v-907q0 -234 171 -318q62 -31 154 -31q93 0 155 32q168 82 171 317v907h258v-918q0 -230 -132 -380t-347 -181q-125 -125 -125 -227q-1 -32 27 -60t78 -28t99 43l52 -100q-98 -80 -205 -78
q-141 0 -194 103q-17 34 -17 92z" />
    <glyph glyph-name="uogonek" unicode="&#x173;" horiz-adv-x="1191" 
d="M928 0q-156 -144 -156 -254q0 -34 28 -62t78 -28t99 43l51 -100q-98 -80 -205 -78q-140 0 -193 103q-69 138 113 325q35 35 68 59v150h-4q-33 -74 -114 -130t-184 -56q-186 -1 -285 122q-83 103 -85 275v614h246v-545q0 -262 184 -262q110 0 169 78t61 188v541h245v-983
h-116z" />
    <glyph glyph-name="Wcircumflex" unicode="&#x174;" horiz-adv-x="2056" 
d="M1169 1565l-141 184l-141 -184h-230l236 295h276l234 -295h-234zM12 1450h283l280 -1065h5l319 1065h266l314 -1065h4l286 1065h275l-424 -1450h-250l-340 1087h-4l-340 -1087h-250z" />
    <glyph glyph-name="wcircumflex" unicode="&#x175;" horiz-adv-x="1646" 
d="M967 1155l-142 184l-141 -184h-229l235 295h277l233 -295h-233zM8 983h266l205 -704h4l211 704h262l213 -704h5l208 704h256l-340 -983h-249l-224 688h-4l-221 -688h-250z" />
    <glyph glyph-name="Ycircumflex" unicode="&#x176;" horiz-adv-x="1273" 
d="M784 1565l-141 184l-141 -184h-230l236 295h276l234 -295h-234zM768 0h-258v629l-545 821h316l364 -610l369 610h299l-545 -821v-629z" />
    <glyph glyph-name="ycircumflex" unicode="&#x177;" horiz-adv-x="1050" 
d="M684 1155l-141 184l-142 -184h-229l236 295h276l234 -295h-234zM106 -264q38 -12 85 -14t73 8q47 17 78 77q14 29 31 68l49 125l-422 983h272l275 -715h4l244 715h256l-465 -1194q-58 -145 -137 -212t-236 -69q-65 0 -127 15z" />
    <glyph glyph-name="Ydieresis" unicode="&#x178;" horiz-adv-x="1273" 
d="M698 1729q0 57 41 100t105 43t106 -41q43 -41 43 -102t-43 -103t-106 -41q-63 0 -105 43q-41 44 -41 101zM297 1729q0 57 41 100t104 43q62 0 106 -41t44 -102t-43 -103t-107 -41q-64 -1 -104 43q-41 44 -41 101zM768 0h-258v629l-545 821h316l364 -610l369 610h299
l-545 -821v-629z" />
    <glyph glyph-name="Zacute" unicode="&#x179;" horiz-adv-x="1251" 
d="M682 1860h279l-289 -295h-193zM84 1225v225h1083v-233l-792 -988h805v-229h-1108v233l788 992h-776z" />
    <glyph glyph-name="zacute" unicode="&#x17a;" horiz-adv-x="987" 
d="M559 1450h279l-289 -295h-193zM94 786v197h799v-217l-533 -565h558v-201h-848v217l530 569h-506z" />
    <glyph glyph-name="Zdotaccent" unicode="&#x17b;" horiz-adv-x="1251" 
d="M475 1726q0 60 44 104t112 44q67 0 113 -42t46 -106t-46 -105q-46 -42 -114 -42t-111 44q-44 44 -44 103zM84 1225v225h1083v-233l-792 -988h805v-229h-1108v233l788 992h-776z" />
    <glyph glyph-name="zdotaccent" unicode="&#x17c;" horiz-adv-x="987" 
d="M340 1317q0 59 44 103t112 44t114 -42t45 -105q0 -63 -46 -105q-45 -42 -113 -43q-68 1 -112 45t-44 103zM94 786v197h799v-217l-533 -565h558v-201h-848v217l530 569h-506z" />
    <glyph glyph-name="Zcaron" unicode="&#x17d;" horiz-adv-x="1251" 
d="M492 1860l141 -185l141 185h225l-235 -295h-272l-234 295h234zM84 1225v225h1083v-233l-792 -988h805v-229h-1108v233l788 992h-776z" />
    <glyph glyph-name="zcaron" unicode="&#x17e;" horiz-adv-x="987" 
d="M367 1450l141 -184l141 184h225l-235 -295h-272l-234 295h234zM94 786v197h799v-217l-533 -565h558v-201h-848v217l530 569h-506z" />
    <glyph glyph-name="florin" unicode="&#x192;" 
d="M193 -76q67 0 100 60t51 153l109 551h-232v184h268l46 228q49 265 216 345q62 30 140 30q132 0 252 -64l-94 -190q-55 33 -107 33q-119 -1 -155 -136q-9 -37 -17 -74l-37 -172h250v-184h-283l-116 -590q-39 -198 -131 -290t-252 -93q-113 0 -209 49l92 189
q42 -29 109 -29z" />
    <glyph glyph-name="Ohorn" unicode="&#x1a0;" horiz-adv-x="1738" 
d="M371 727q0 -230 140 -382t359 -151t359 151q139 150 139 379q0 230 -139 383t-361 153q-113 0 -203 -41q-185 -84 -259 -281q-36 -96 -35 -211zM1733 1518q0 -121 -71 -195t-200 -78q185 -206 186 -529t-220 -538t-561 -215q-339 0 -558 215t-219 555t218 547t558 207
q168 0 314 -53q55 -20 98 -36q42 -16 108 -18q134 -1 134 156q0 72 -35 125l211 53q37 -75 37 -196z" />
    <glyph glyph-name="ohorn" unicode="&#x1a1;" horiz-adv-x="1277" 
d="M625 176q135 0 209 96q75 96 75 222t-73 222q-73 95 -210 95q-136 0 -211 -95t-75 -222t70 -215q80 -103 215 -103zM1313 1093q0 -120 -69 -193t-195 -81q110 -137 110 -323q0 -227 -154 -376t-380 -149t-380 148q-155 148 -155 377t153 372q153 144 382 144
q99 0 163 -22t92 -30q28 -10 56 -10q92 0 128 42t36 118t-35 125l211 53q37 -75 37 -195z" />
    <glyph glyph-name="Uhorn" unicode="&#x1af;" horiz-adv-x="1482" 
d="M1579 1590q0 -123 -71 -195t-193 -76v-787q0 -256 -165 -412q-165 -157 -417 -157t-419 155t-167 414v918h259v-907q0 -234 171 -318q62 -31 154 -31q93 0 155 32q168 82 171 317v907h145q92 0 128 42t36 117t-35 126l211 53q37 -75 37 -198z" />
    <glyph glyph-name="uhorn" unicode="&#x1b0;" horiz-adv-x="1232" 
d="M1044 0h-233v158h-4q-33 -74 -114 -130t-184 -56q-186 -1 -285 122q-83 103 -85 275v614h246v-545q0 -262 184 -262q110 0 169 78t61 188v541h133q92 0 128 42t36 115t-35 128l211 53q35 -72 36 -196q1 -125 -70 -197t-194 -76v-852z" />
    <glyph glyph-name="clickdental" unicode="&#x1c0;" horiz-adv-x="454" 
d="M332 1536v-2048h-209v2048h209z" />
    <glyph glyph-name="clicklateral" unicode="&#x1c1;" horiz-adv-x="909" 
d="M786 1536v-2048h-208v2048h208zM332 1536v-2048h-209v2048h209z" />
    <glyph glyph-name="clickretroflex" unicode="&#x1c3;" horiz-adv-x="696" 
d="M347 303q67 0 116 -45t49 -111q0 -67 -48 -113t-115 -46t-116 44t-49 110q0 67 48 114t115 47zM471 455h-246v995h246v-995z" />
    <glyph glyph-name="DZcaron" unicode="&#x1c4;" horiz-adv-x="2879" 
d="M2052 1898l141 -184l142 184h225l-236 -294h-272l-233 294h233zM1649 1225v225h1083v-233l-793 -988h805v-229h-1108v233l789 992h-776zM633 225q378 0 514 256q51 96 51 248q0 277 -183 404q-138 94 -382 96h-215v-1004h215zM160 1450h514q326 0 543 -159
q258 -191 258 -566q0 -189 -72 -327q-139 -266 -445 -356q-143 -42 -284 -42h-514v1450z" />
    <glyph glyph-name="Dzcaron" unicode="&#x1c5;" horiz-adv-x="2588" 
d="M1921 1434l141 -185l142 185h225l-236 -295h-272l-233 295h233zM1659 786v197h799v-217l-533 -565h557v-201h-848v217l531 569h-506zM633 225q378 0 514 256q51 96 51 248q0 277 -183 404q-138 94 -382 96h-215v-1004h215zM160 1450h514q326 0 543 -159
q258 -191 258 -566q0 -189 -72 -327q-139 -266 -445 -356q-143 -42 -284 -42h-514v1450z" />
    <glyph glyph-name="dzcaron" unicode="&#x1c6;" horiz-adv-x="2306" 
d="M1655 1434l141 -185l141 185h226l-236 -295h-272l-234 295h234zM1393 786v197h798v-217l-532 -565h557v-201h-848v217l530 569h-505zM833 276q76 90 76 216t-81 222q-81 97 -211 97t-204 -95q-75 -95 -75 -222t75 -223q75 -95 203 -95t217 100zM1147 0h-234v147h-4
q-51 -86 -142 -131t-200 -45q-211 0 -345 152t-134 372t134 368q134 149 343 149q168 0 283 -103q29 -27 47 -51h6v690h246v-1548z" />
    <glyph glyph-name="LJ" unicode="&#x1c7;" horiz-adv-x="2066" 
d="M1919 469q0 -334 -215 -457q-86 -49 -242 -49t-261 88t-144 232l237 67q18 -72 68 -114t110 -41q62 0 98 20q91 51 91 262v973h258v-981zM160 1450h258v-1221h616v-229h-874v1450z" />
    <glyph glyph-name="Lj" unicode="&#x1c8;" horiz-adv-x="1595" 
d="M1163 1317q0 59 44 103t112 44t114 -42t46 -105t-46 -105t-114 -43q-68 1 -112 45t-44 103zM1198 -70v1053h246v-1042q0 -206 -69 -305q-88 -128 -288 -128q-52 0 -110 13l20 209q24 -6 68 -8q115 -4 129 127q4 38 4 81zM160 1450h258v-1221h616v-229h-874v1450z" />
    <glyph glyph-name="lj" unicode="&#x1c9;" horiz-adv-x="1097" 
d="M666 1317q0 59 44 103t112 44t113 -42q46 -42 46 -105t-46 -105t-114 -43q-67 1 -111 45t-44 103zM700 -70v1053h246v-1042q0 -205 -68 -305q-88 -128 -288 -128q-52 0 -111 13l21 209q24 -6 67 -7q115 -4 129 126q4 38 4 81zM152 1548h245v-1548h-245v1548z" />
    <glyph glyph-name="NJ" unicode="&#x1ca;" horiz-adv-x="2617" 
d="M2470 469q0 -334 -215 -457q-85 -49 -241 -49t-262 88q-105 88 -144 232l237 67q17 -72 67 -114t112 -41q62 0 97 20q91 51 91 262v973h258v-981zM160 1450h342l674 -1085h4v1085h258v-1450h-328l-688 1120h-4v-1120h-258v1450z" />
    <glyph glyph-name="Nj" unicode="&#x1cb;" horiz-adv-x="2146" 
d="M1714 1317q0 59 44 103t112 44t114 -42t46 -105t-46 -105t-114 -43q-68 1 -112 45t-44 103zM1749 -70v1053h246v-1042q0 -203 -69 -305q-88 -128 -288 -128q-52 0 -110 13l20 209q175 -44 197 119q4 38 4 81zM160 1450h342l674 -1085h4v1085h258v-1450h-328l-688 1120h-4
v-1120h-258v1450z" />
    <glyph glyph-name="nj" unicode="&#x1cc;" horiz-adv-x="1740" 
d="M1309 1317q0 59 44 103q43 44 111 44t114 -42t46 -105t-46 -105t-114 -43q-68 1 -112 45t-43 103zM1343 -70v1053h246v-1042q0 -205 -68 -305q-88 -128 -288 -128q-53 0 -111 13l21 209q24 -6 67 -7q115 -4 129 126q4 38 4 81zM807 545q0 262 -184 262q-110 0 -169 -78
t-61 -188v-541h-246v983h234v-158h4q33 74 114 130q81 57 184 57q186 1 285 -123q83 -103 85 -275v-614h-246v545z" />
    <glyph glyph-name="Acaron" unicode="&#x1cd;" horiz-adv-x="1445" 
d="M586 1898l141 -184l141 184h226l-236 -294h-272l-234 294h234zM942 553l-223 590l-227 -590h450zM614 1450h224l624 -1450h-295l-135 332h-629l-131 -332h-288z" />
    <glyph glyph-name="acaron" unicode="&#x1ce;" horiz-adv-x="1126" 
d="M395 1460l142 -184l141 184h225l-235 -295h-273l-233 295h233zM698 449q-377 0 -374 -164q0 -123 172 -123q126 0 192 68t66 184v35h-56zM133 856q167 156 425 156q122 0 207 -37q222 -97 222 -377v-598h-229v125h-6q-37 -66 -119 -108t-164 -42q-164 0 -265 67
q-126 84 -126 239q0 199 223 276q160 57 453 57v25q0 92 -67 136t-152 44t-157 -33t-118 -79z" />
    <glyph glyph-name="Icaron" unicode="&#x1cf;" horiz-adv-x="577" 
d="M152 1898l141 -184l141 184h225l-235 -294h-272l-234 294h234zM160 1450h258v-1450h-258v1450z" />
    <glyph glyph-name="icaron" unicode="&#x1d0;" horiz-adv-x="548" 
d="M137 1434l142 -185l141 185h225l-235 -295h-273l-233 295h233zM152 983h245v-983h-245v983z" />
    <glyph glyph-name="Ocaron" unicode="&#x1d1;" horiz-adv-x="1738" 
d="M731 1935l141 -184l142 184h225l-235 -295h-273l-233 295h233zM371 727q0 -230 140 -382t359 -151t359 151q139 150 139 379q0 230 -139 383t-361 153q-113 0 -203 -41q-185 -84 -259 -281q-36 -96 -35 -211zM90 733q0 340 218 547t561 207t560 -206q218 -206 219 -547
t-220 -556t-561 -215q-339 0 -558 215t-219 555z" />
    <glyph glyph-name="ocaron" unicode="&#x1d2;" 
d="M487 1460l142 -184l141 184h225l-235 -295h-273l-233 295h233zM625 176q135 0 209 96q75 96 75 222t-73 222q-73 95 -210 95q-136 0 -211 -95t-75 -222t70 -215q80 -103 215 -103zM625 1012q229 0 381 -144q153 -144 153 -372q0 -227 -154 -376t-380 -149t-380 148
q-155 148 -155 377t153 372q153 144 382 144z" />
    <glyph glyph-name="Ucaron" unicode="&#x1d3;" horiz-adv-x="1462" 
d="M594 1898l141 -184l142 184h225l-236 -294h-272l-234 294h234zM1315 532q0 -256 -165 -412q-165 -157 -417 -157t-419 155t-167 414v918h259v-907q0 -234 171 -318q62 -31 154 -31q93 0 155 32q168 82 171 317v907h258v-918z" />
    <glyph glyph-name="ucaron" unicode="&#x1d4;" horiz-adv-x="1191" 
d="M455 1434l141 -185l141 185h226l-236 -295h-272l-234 295h234zM385 438q0 -262 184 -262q110 0 169 78t61 188v541h245v-983h-233v158h-4q-33 -74 -114 -130t-184 -56q-186 -1 -285 122q-83 103 -85 275v614h246v-545z" />
    <glyph glyph-name="Udieresismacron" unicode="&#x1d5;" horiz-adv-x="1462" 
d="M1059 2044h-656v160h656v-160zM784 1747q0 57 41 100t105 43t106 -41q43 -41 43 -102t-43 -102t-106 -41t-105 43q-41 43 -41 100zM383 1747q0 57 41 100t104 43q62 0 106 -41t44 -102t-43 -102t-107 -41t-104 43q-41 43 -41 100zM1315 532q0 -256 -165 -412
q-165 -157 -417 -157t-419 155t-167 414v918h259v-907q0 -234 171 -318q62 -31 154 -31q93 0 155 32q168 82 171 317v907h258v-918z" />
    <glyph glyph-name="udieresismacron" unicode="&#x1d6;" horiz-adv-x="1191" 
d="M920 1577h-656v160h656v-160zM645 1282q0 57 41 100q40 43 104 43t107 -41t43 -102t-43 -102t-106 -41t-105 43q-41 43 -41 100zM244 1282q0 57 41 100t104 43t107 -41t43 -102q0 -61 -43 -102q-42 -41 -106 -41t-105 43t-41 100zM385 438q0 -262 184 -262q110 0 169 78
t61 188v541h245v-983h-233v158h-4q-33 -74 -114 -130t-184 -56q-186 -1 -285 122q-83 103 -85 275v614h246v-545z" />
    <glyph glyph-name="Udieresisacute" unicode="&#x1d7;" horiz-adv-x="1462" 
d="M694 2339h279l-289 -295h-192zM784 1747q0 57 41 100t105 43t106 -41q43 -41 43 -102t-43 -102t-106 -41t-105 43q-41 43 -41 100zM383 1747q0 57 41 100t104 43q62 0 106 -41t44 -102t-43 -102t-107 -41t-104 43q-41 43 -41 100zM1315 532q0 -256 -165 -412
q-165 -157 -417 -157t-419 155t-167 414v918h259v-907q0 -234 171 -318q62 -31 154 -31q93 0 155 32q168 82 171 317v907h258v-918z" />
    <glyph glyph-name="udieresisacute" unicode="&#x1d8;" horiz-adv-x="1191" 
d="M555 1872h279l-289 -295h-193zM645 1282q0 57 41 100q40 43 104 43t107 -41t43 -102t-43 -102t-106 -41t-105 43q-41 43 -41 100zM244 1282q0 57 41 100t104 43t107 -41t43 -102q0 -61 -43 -102q-42 -41 -106 -41t-105 43t-41 100zM385 438q0 -262 184 -262q110 0 169 78
t61 188v541h245v-983h-233v158h-4q-33 -74 -114 -130t-184 -56q-186 -1 -285 122q-83 103 -85 275v614h246v-545z" />
    <glyph glyph-name="Udieresiscaron" unicode="&#x1d9;" horiz-adv-x="1462" 
d="M594 2339l141 -185l142 185h225l-236 -295h-272l-234 295h234zM784 1747q0 57 41 100t105 43t106 -41q43 -41 43 -102t-43 -102t-106 -41t-105 43q-41 43 -41 100zM383 1747q0 57 41 100t104 43q62 0 106 -41t44 -102t-43 -102t-107 -41t-104 43q-41 43 -41 100z
M1315 532q0 -256 -165 -412q-165 -157 -417 -157t-419 155t-167 414v918h259v-907q0 -234 171 -318q62 -31 154 -31q93 0 155 32q168 82 171 317v907h258v-918z" />
    <glyph glyph-name="udieresiscaron" unicode="&#x1da;" horiz-adv-x="1191" 
d="M455 1872l141 -184l141 184h226l-236 -295h-272l-234 295h234zM645 1282q0 57 41 100q40 43 104 43t107 -41t43 -102t-43 -102t-106 -41t-105 43q-41 43 -41 100zM244 1282q0 57 41 100t104 43t107 -41t43 -102q0 -61 -43 -102q-42 -41 -106 -41t-105 43t-41 100z
M385 438q0 -262 184 -262q110 0 169 78t61 188v541h245v-983h-233v158h-4q-33 -74 -114 -130t-184 -56q-186 -1 -285 122q-83 103 -85 275v614h246v-545z" />
    <glyph glyph-name="Udieresisgrave" unicode="&#x1db;" horiz-adv-x="1462" 
d="M973 2044h-193l-288 295h278zM784 1747q0 57 41 100t105 43t106 -41q43 -41 43 -102t-43 -102t-106 -41t-105 43q-41 43 -41 100zM383 1747q0 57 41 100t104 43q62 0 106 -41t44 -102t-43 -102t-107 -41t-104 43q-41 43 -41 100zM1315 532q0 -256 -165 -412
q-165 -157 -417 -157t-419 155t-167 414v918h259v-907q0 -234 171 -318q62 -31 154 -31q93 0 155 32q168 82 171 317v907h258v-918z" />
    <glyph glyph-name="udieresisgrave" unicode="&#x1dc;" horiz-adv-x="1191" 
d="M834 1577h-193l-289 295h279zM645 1282q0 57 41 100q40 43 104 43t107 -41t43 -102t-43 -102t-106 -41t-105 43q-41 43 -41 100zM244 1282q0 57 41 100t104 43t107 -41t43 -102q0 -61 -43 -102q-42 -41 -106 -41t-105 43t-41 100zM385 438q0 -262 184 -262q110 0 169 78
t61 188v541h245v-983h-233v158h-4q-33 -74 -114 -130t-184 -56q-186 -1 -285 122q-83 103 -85 275v614h246v-545z" />
    <glyph glyph-name="Adieresismacron" unicode="&#x1de;" horiz-adv-x="1445" 
d="M1051 2044h-656v160h656v-160zM776 1747q0 57 41 100t105 43t106 -41q43 -41 43 -102t-43 -102t-106 -41t-105 43q-41 43 -41 100zM375 1747q0 57 41 100t104 43q62 0 106 -41t44 -102t-43 -102t-107 -41t-104 43q-41 43 -41 100zM942 553l-223 590l-227 -590h450z
M614 1450h224l624 -1450h-295l-135 332h-629l-131 -332h-288z" />
    <glyph glyph-name="adieresismacron" unicode="&#x1df;" horiz-adv-x="1126" 
d="M860 1606h-655v159h655v-159zM586 1311q0 57 41 100t104 43t107 -41t43 -102q0 -61 -43 -103q-42 -42 -106 -41q-64 -1 -105 43t-41 101zM184 1311q0 57 41 100t105 43t106 -41q43 -41 43 -102t-43 -103t-106 -41q-63 0 -105 43q-41 44 -41 101zM698 449
q-377 0 -374 -164q0 -123 172 -123q126 0 192 68t66 184v35h-56zM133 856q167 156 425 156q122 0 207 -37q222 -97 222 -377v-598h-229v125h-6q-37 -66 -119 -108t-164 -42q-164 0 -265 67q-126 84 -126 239q0 199 223 276q160 57 453 57v25q0 92 -67 136t-152 44t-157 -33
t-118 -79z" />
    <glyph glyph-name="Adotmacron" unicode="&#x1e0;" horiz-adv-x="1445" 
d="M1051 2052h-656v160h656v-160zM565 1751q0 59 44 103t112 44t114 -42t46 -104q0 -64 -46 -106t-114 -42t-112 44t-44 103zM942 553l-223 590l-227 -590h450zM614 1450h224l624 -1450h-295l-135 332h-629l-131 -332h-288z" />
    <glyph glyph-name="adotmacron" unicode="&#x1e1;" horiz-adv-x="1126" 
d="M860 1614h-655v160h655v-160zM375 1315q0 59 44 103q43 44 111 44t114 -42t46 -105t-46 -105t-114 -43q-68 1 -112 45t-43 103zM698 449q-377 0 -374 -164q0 -123 172 -123q126 0 192 68t66 184v35h-56zM133 856q167 156 425 156q122 0 207 -37q222 -97 222 -377v-598
h-229v125h-6q-37 -66 -119 -108t-164 -42q-164 0 -265 67q-126 84 -126 239q0 199 223 276q160 57 453 57v25q0 92 -67 136t-152 44t-157 -33t-118 -79z" />
    <glyph glyph-name="AEmacron" unicode="&#x1e2;" horiz-adv-x="2142" 
d="M1346 1604h-656v159h656v-159zM1083 602v623h-30l-383 -623h413zM1083 381h-548l-234 -381h-313l927 1450h1098v-225h-672v-369h635v-217h-635v-410h709v-229h-967v381z" />
    <glyph glyph-name="aemacron" unicode="&#x1e3;" horiz-adv-x="1816" 
d="M1229 1167h-656v160h656v-160zM1481 590q0 161 -128 218q-44 19 -104 19q-111 -1 -187 -67t-85 -170h504zM754 414h-56q-174 0 -274 -24t-100 -105q0 -123 172 -123q126 0 192 57t66 162v33zM135 856q165 156 423 156q120 0 202 -51t123 -117q53 74 146 121t209 47
q341 0 453 -300q36 -99 35 -233v-33q0 -16 -2 -32h-747q12 -107 92 -175q80 -67 188 -67q169 0 261 129l161 -133q-145 -197 -415 -197t-396 197q-43 -80 -140 -136t-258 -56t-265 69q-127 85 -127 236q0 265 418 299q123 10 258 10v20q0 209 -224 209q-74 0 -148 -33
t-122 -79z" />
    <glyph glyph-name="Gcaron" unicode="&#x1e6;" horiz-adv-x="1583" 
d="M623 1935l141 -184l141 184h225l-235 -295h-272l-234 295h234zM90 729q0 174 61 314q120 281 414 391q143 53 315 53t315 -50q144 -50 232 -132l-178 -193q-55 60 -154 104t-215 44t-209 -41q-188 -83 -260 -281q-36 -96 -36 -211q0 -230 140 -382t376 -150q166 0 289 51
v368h-306v213h556v-751q-237 -113 -547 -113q-352 0 -572 214q-221 215 -221 552z" />
    <glyph glyph-name="gcaron" unicode="&#x1e7;" horiz-adv-x="1294" 
d="M481 1460l142 -184l141 184h225l-235 -295h-273l-233 295h233zM340 503q0 -130 78 -223q78 -94 204 -94q127 0 209 92t82 221q0 130 -80 221t-209 91t-207 -89q-77 -89 -77 -219zM222 135q-132 149 -132 364t132 364t349 149q105 0 195 -43t143 -133h4v147h234v-895
q0 -418 -307 -539q-104 -41 -248 -41q-283 0 -488 162l142 191q148 -140 344 -140q311 0 311 338v72h-4q-108 -147 -323 -147q-214 0 -352 151z" />
    <glyph glyph-name="Kcaron" unicode="&#x1e8;" horiz-adv-x="1411" 
d="M653 1898l142 -184l141 184h225l-235 -294h-273l-233 294h233zM160 1450h258v-627h6l606 627h348l-678 -670l723 -780h-362l-637 727h-6v-727h-258v1450z" />
    <glyph glyph-name="kcaron" unicode="&#x1e9;" horiz-adv-x="1112" 
d="M498 1997l141 -185l141 185h226l-236 -295h-272l-234 295h234zM152 1548h245v-979h6l373 414h316l-426 -444l452 -539h-325l-390 504h-6v-504h-245v1548z" />
    <glyph glyph-name="Oogonek" unicode="&#x1ea;" horiz-adv-x="1738" 
d="M662 -345q0 114 136 250q34 34 66 58q-336 0 -555 215t-219 555t218 547t561 207t560 -206q218 -206 219 -547t-221 -557q-200 -194 -497 -212h61q-54 -43 -111 -121t-58 -129t27 -79t78 -28t99 44l51 -101q-97 -79 -205 -77q-140 0 -193 103q-17 34 -17 78zM371 727
q0 -230 140 -382t359 -151t359 151q139 150 139 379q0 230 -139 383t-361 153q-113 0 -203 -41q-185 -84 -259 -281q-36 -96 -35 -211z" />
    <glyph glyph-name="oogonek" unicode="&#x1eb;" 
d="M418 -337q0 114 136 250q34 34 66 58q-223 2 -376 149q-154 147 -154 376t153 372q153 144 382 144t381 -144q153 -144 153 -372q0 -227 -155 -378q-134 -129 -329 -145h73q-54 -44 -112 -121q-58 -78 -58 -129t28 -79t77 -27q50 0 99 43l52 -100q-98 -80 -205 -78
q-141 0 -194 103q-17 34 -17 78zM625 176q135 0 209 96q75 96 75 222t-73 222q-73 95 -210 95q-136 0 -211 -95t-75 -222t70 -215q80 -103 215 -103z" />
    <glyph glyph-name="Oogonekmacron" unicode="&#x1ec;" horiz-adv-x="1738" 
d="M1196 1640h-655v160h655v-160zM662 -345q0 114 136 250q34 34 66 58q-336 0 -555 215t-219 555t218 547t561 207t560 -206q218 -206 219 -547t-221 -557q-200 -194 -497 -212h61q-54 -43 -111 -121t-58 -129t27 -79t78 -28t99 44l51 -101q-97 -79 -205 -77
q-140 0 -193 103q-17 34 -17 78zM371 727q0 -230 140 -382t359 -151t359 151q139 150 139 379q0 230 -139 383t-361 153q-113 0 -203 -41q-185 -84 -259 -281q-36 -96 -35 -211z" />
    <glyph glyph-name="oogonekmacron" unicode="&#x1ed;" 
d="M952 1167h-655v160h655v-160zM418 -337q0 114 136 250q34 34 66 58q-223 2 -376 149q-154 147 -154 376t153 372q153 144 382 144t381 -144q153 -144 153 -372q0 -227 -155 -378q-134 -129 -329 -145h73q-54 -44 -112 -121q-58 -78 -58 -129t28 -79t77 -27q50 0 99 43
l52 -100q-98 -80 -205 -78q-141 0 -194 103q-17 34 -17 78zM625 176q135 0 209 96q75 96 75 222t-73 222q-73 95 -210 95q-136 0 -211 -95t-75 -222t70 -215q80 -103 215 -103z" />
    <glyph glyph-name="DZ" unicode="&#x1f1;" horiz-adv-x="2816" 
d="M1649 1225v225h1083v-233l-793 -988h805v-229h-1108v233l789 992h-776zM633 225q378 0 514 256q51 96 51 248q0 277 -183 404q-138 94 -382 96h-215v-1004h215zM160 1450h514q326 0 543 -159q258 -191 258 -566q0 -189 -72 -327q-139 -266 -445 -356q-143 -42 -284 -42
h-514v1450z" />
    <glyph glyph-name="Dz" unicode="&#x1f2;" horiz-adv-x="2551" 
d="M1659 786v197h799v-217l-533 -565h557v-201h-848v217l531 569h-506zM633 225q378 0 514 256q51 96 51 248q0 277 -183 404q-138 94 -382 96h-215v-1004h215zM160 1450h514q326 0 543 -159q258 -191 258 -566q0 -189 -72 -327q-139 -266 -445 -356q-143 -42 -284 -42h-514
v1450z" />
    <glyph glyph-name="dz" unicode="&#x1f3;" horiz-adv-x="2285" 
d="M1393 786v197h798v-217l-532 -565h557v-201h-848v217l530 569h-505zM833 276q76 90 76 216t-81 222q-81 97 -211 97t-204 -95q-75 -95 -75 -222t75 -223q75 -95 203 -95t217 100zM1147 0h-234v147h-4q-51 -86 -142 -131t-200 -45q-211 0 -345 152t-134 372t134 368
q134 149 343 149q168 0 283 -103q29 -27 47 -51h6v690h246v-1548z" />
    <glyph glyph-name="Gacute" unicode="&#x1f4;" horiz-adv-x="1583" 
d="M723 1935h278l-288 -295h-193zM90 729q0 174 61 314q120 281 414 391q143 53 315 53t315 -50q144 -50 232 -132l-178 -193q-55 60 -154 104t-215 44t-209 -41q-188 -83 -260 -281q-36 -96 -36 -211q0 -230 140 -382t376 -150q166 0 289 51v368h-306v213h556v-751
q-237 -113 -547 -113q-352 0 -572 214q-221 215 -221 552z" />
    <glyph glyph-name="gacute" unicode="&#x1f5;" horiz-adv-x="1294" 
d="M582 1460h278l-289 -295h-192zM340 503q0 -130 78 -223q78 -94 204 -94q127 0 209 92t82 221q0 130 -80 221t-209 91t-207 -89q-77 -89 -77 -219zM222 135q-132 149 -132 364t132 364t349 149q105 0 195 -43t143 -133h4v147h234v-895q0 -418 -307 -539q-104 -41 -248 -41
q-283 0 -488 162l142 191q148 -140 344 -140q311 0 311 338v72h-4q-108 -147 -323 -147q-214 0 -352 151z" />
    <glyph glyph-name="Ngrave" unicode="&#x1f8;" horiz-adv-x="1597" 
d="M1040 1604h-192l-289 294h279zM160 1450h342l674 -1085h4v1085h258v-1450h-328l-688 1120h-4v-1120h-258v1450z" />
    <glyph glyph-name="ngrave" unicode="&#x1f9;" horiz-adv-x="1191" 
d="M842 1165h-193l-289 295h279zM807 545q0 262 -184 262q-110 0 -169 -78t-61 -188v-541h-246v983h234v-158h4q33 74 114 130q81 57 184 57q186 1 285 -123q83 -103 85 -275v-614h-246v545z" />
    <glyph glyph-name="Aringacute" unicode="&#x1fa;" horiz-adv-x="1445" 
d="M686 2470h279l-289 -295h-193zM844 1812q0 51 -35 84t-87 33t-86 -34t-34 -84q0 -51 35 -83t86 -32t86 32t35 84zM938 1812q0 -92 -61 -150t-153 -58t-155 58q-61 58 -61 149t62 151q62 59 153 59q92 0 154 -58q61 -59 61 -151zM942 553l-223 590l-227 -590h450z
M614 1450h224l624 -1450h-295l-135 332h-629l-131 -332h-288z" />
    <glyph glyph-name="aringacute" unicode="&#x1fb;" horiz-adv-x="1126" 
d="M496 2032h278l-289 -295h-192zM653 1374q0 51 -35 84t-87 33t-86 -34q-33 -34 -33 -84t34 -83t86 -33q51 0 86 33t35 84zM748 1374q0 -92 -62 -150t-154 -58t-153 58t-61 149t61 150q62 60 154 60q91 -1 153 -59t62 -150zM698 449q-377 0 -374 -164q0 -123 172 -123
q126 0 192 68t66 184v35h-56zM133 856q167 156 425 156q122 0 207 -37q222 -97 222 -377v-598h-229v125h-6q-37 -66 -119 -108t-164 -42q-164 0 -265 67q-126 84 -126 239q0 199 223 276q160 57 453 57v25q0 92 -67 136t-152 44t-157 -33t-118 -79z" />
    <glyph glyph-name="AEacute" unicode="&#x1fc;" horiz-adv-x="2142" 
d="M981 1898h279l-289 -294h-193zM1083 602v623h-30l-383 -623h413zM1083 381h-548l-234 -381h-313l927 1450h1098v-225h-672v-369h635v-217h-635v-410h709v-229h-967v381z" />
    <glyph glyph-name="aeacute" unicode="&#x1fd;" horiz-adv-x="1816" 
d="M864 1460h279l-289 -295h-192zM1481 590q0 161 -128 218q-44 19 -104 19q-111 -1 -187 -67t-85 -170h504zM754 414h-56q-174 0 -274 -24t-100 -105q0 -123 172 -123q126 0 192 57t66 162v33zM135 856q165 156 423 156q120 0 202 -51t123 -117q53 74 146 121t209 47
q341 0 453 -300q36 -99 35 -233v-33q0 -16 -2 -32h-747q12 -107 92 -175q80 -67 188 -67q169 0 261 129l161 -133q-145 -197 -415 -197t-396 197q-43 -80 -140 -136t-258 -56t-265 69q-127 85 -127 236q0 265 418 299q123 10 258 10v20q0 209 -224 209q-74 0 -148 -33
t-122 -79z" />
    <glyph glyph-name="Oslashacute" unicode="&#x1fe;" horiz-adv-x="1738" 
d="M831 1999h279l-289 -295h-192zM868 1266q-230 0 -370 -152t-140 -366q0 -215 93 -345l714 775q-114 88 -297 88zM1380 722q0 224 -116 363l-721 -784q123 -113 337 -113t357 152q68 72 105 171q38 99 38 211zM276 213q-186 194 -186 527t218 540t558 207q265 0 461 -127
l174 190l101 -88l-170 -186q215 -207 216 -545t-220 -550t-562 -218q-292 0 -491 158l-174 -189l-103 88z" />
    <glyph glyph-name="oslashacute" unicode="&#x1ff;" 
d="M588 1505h278l-288 -295h-193zM1036 829q123 -142 123 -352t-153 -358t-364 -148q-210 0 -343 105l-143 -146l-82 84l137 140q-121 140 -121 352t154 359t362 147q209 0 342 -103l144 148l86 -82zM446 233q67 -63 162 -63q157 0 232 95t77 216q1 120 -43 187zM639 819
q-155 0 -231 -100t-76 -220t45 -180l424 437q-72 63 -162 63z" />
    <glyph glyph-name="Adblgrave" unicode="&#x200;" horiz-adv-x="1445" 
d="M756 1604h-193l-289 294h279zM1171 1604h-192l-289 294h279zM942 553l-223 590l-227 -590h450zM614 1450h224l624 -1450h-295l-135 332h-629l-131 -332h-288z" />
    <glyph glyph-name="adblgrave" unicode="&#x201;" horiz-adv-x="1126" 
d="M565 1165h-192l-289 295h278zM981 1165h-193l-288 295h278zM698 449q-377 0 -374 -164q0 -123 172 -123q126 0 192 68t66 184v35h-56zM133 856q167 156 425 156q122 0 207 -37q222 -97 222 -377v-598h-229v125h-6q-37 -66 -119 -108t-164 -42q-164 0 -265 67
q-126 84 -126 239q0 199 223 276q160 57 453 57v25q0 92 -67 136t-152 44t-157 -33t-118 -79z" />
    <glyph glyph-name="Ainvertedbreve" unicode="&#x202;" horiz-adv-x="1445" 
d="M512 1898q24 -135 211 -135q88 0 139 25t74 110h135q-16 -152 -109 -224q-92 -72 -240 -70q-148 0 -243 70q-94 71 -104 224h137zM942 553l-223 590l-227 -590h450zM614 1450h224l624 -1450h-295l-135 332h-629l-131 -332h-288z" />
    <glyph glyph-name="ainvertedbreve" unicode="&#x203;" horiz-adv-x="1126" 
d="M532 1325q88 0 140 25q51 25 73 110h136q-15 -152 -109 -224t-242 -71q-148 0 -241 71q-94 71 -105 224h138q24 -135 210 -135zM698 449q-377 0 -374 -164q0 -123 172 -123q126 0 192 68t66 184v35h-56zM133 856q167 156 425 156q122 0 207 -37q222 -97 222 -377v-598
h-229v125h-6q-37 -66 -119 -108t-164 -42q-164 0 -265 67q-126 84 -126 239q0 199 223 276q160 57 453 57v25q0 92 -67 136t-152 44t-157 -33t-118 -79z" />
    <glyph glyph-name="Edblgrave" unicode="&#x204;" 
d="M690 1604h-192l-289 294h278zM1106 1604h-193l-288 294h278zM160 1450h960v-225h-702v-369h665v-217h-665v-410h739v-229h-997v1450z" />
    <glyph glyph-name="edblgrave" unicode="&#x205;" horiz-adv-x="1175" 
d="M621 1165h-193l-289 295h279zM1036 1165h-192l-289 295h279zM616 172q171 0 261 127l163 -131q-145 -197 -422 -197q-229 0 -378 139q-150 139 -150 374t149 382q149 146 366 146t349 -139q131 -139 131 -394v-33q0 -16 -2 -32h-747q8 -106 91 -174t189 -68zM840 590
q0 161 -128 218q-44 19 -104 19q-112 -1 -188 -67t-84 -170h504z" />
    <glyph glyph-name="Einvertedbreve" unicode="&#x206;" 
d="M446 1898q24 -135 211 -135q88 0 140 25q51 25 73 110h136q-16 -152 -110 -224t-240 -70q-148 0 -242 70t-105 224h137zM160 1450h960v-225h-702v-369h665v-217h-665v-410h739v-229h-997v1450z" />
    <glyph glyph-name="einvertedbreve" unicode="&#x207;" horiz-adv-x="1175" 
d="M586 1165q-147 0 -242 71q-94 71 -104 224h137q24 -135 211 -135q88 0 139 25t74 110h135q-16 -152 -110 -224t-240 -71zM616 172q171 0 261 127l163 -131q-145 -197 -422 -197q-229 0 -378 139q-150 139 -150 374t149 382q149 146 366 146t349 -139q131 -139 131 -394
v-33q0 -16 -2 -32h-747q8 -106 91 -174t189 -68zM840 590q0 161 -128 218q-44 19 -104 19q-112 -1 -188 -67t-84 -170h504z" />
    <glyph glyph-name="Idblgrave" unicode="&#x208;" horiz-adv-x="577" 
d="M322 1604h-193l-289 294h279zM737 1604h-192l-289 294h279zM160 1450h258v-1450h-258v1450z" />
    <glyph glyph-name="idblgrave" unicode="&#x209;" horiz-adv-x="548" 
d="M307 1139h-192l-289 295h278zM723 1139h-193l-288 295h278zM152 983h245v-983h-245v983z" />
    <glyph glyph-name="Iinvertedbreve" unicode="&#x20a;" horiz-adv-x="577" 
d="M289 1763q88 0 139 25t74 110h135q-15 -152 -109 -224t-241 -70q-147 0 -242 70q-94 71 -104 224h137q24 -135 211 -135zM160 1450h258v-1450h-258v1450z" />
    <glyph glyph-name="iinvertedbreve" unicode="&#x20b;" horiz-adv-x="548" 
d="M274 1298q88 0 140 25q51 25 73 111h136q-15 -152 -109 -224t-242 -72t-241 72q-94 70 -105 224h137q24 -136 211 -136zM152 983h245v-983h-245v983z" />
    <glyph glyph-name="Odblgrave" unicode="&#x20c;" horiz-adv-x="1738" 
d="M901 1640h-192l-289 295h278zM1317 1640h-193l-288 295h278zM371 727q0 -230 140 -382t359 -151t359 151q139 150 139 379q0 230 -139 383t-361 153q-113 0 -203 -41q-185 -84 -259 -281q-36 -96 -35 -211zM90 733q0 340 218 547t561 207t560 -206q218 -206 219 -547
t-220 -556t-561 -215q-339 0 -558 215t-219 555z" />
    <glyph glyph-name="odblgrave" unicode="&#x20d;" 
d="M657 1165h-192l-289 295h279zM1073 1165h-192l-289 295h278zM625 176q135 0 209 96q75 96 75 222t-73 222q-73 95 -210 95q-136 0 -211 -95t-75 -222t70 -215q80 -103 215 -103zM625 1012q229 0 381 -144q153 -144 153 -372q0 -227 -154 -376t-380 -149t-380 148
q-155 148 -155 377t153 372q153 144 382 144z" />
    <glyph glyph-name="Oinvertedbreve" unicode="&#x20e;" horiz-adv-x="1738" 
d="M866 1640q-148 0 -241 71q-94 71 -105 224h137q24 -135 211 -135q88 0 140 25q51 25 73 110h136q-15 -151 -109 -223t-242 -72zM371 727q0 -230 140 -382t359 -151t359 151q139 150 139 379q0 230 -139 383t-361 153q-113 0 -203 -41q-185 -84 -259 -281
q-36 -96 -35 -211zM90 733q0 340 218 547t561 207t560 -206q218 -206 219 -547t-220 -556t-561 -215q-339 0 -558 215t-219 555z" />
    <glyph glyph-name="oinvertedbreve" unicode="&#x20f;" 
d="M625 1325q88 0 139 25t74 110h135q-15 -152 -109 -224t-241 -71q-147 0 -242 71q-94 71 -105 224h138q24 -135 211 -135zM625 176q135 0 209 96q75 96 75 222t-73 222q-73 95 -210 95q-136 0 -211 -95t-75 -222t70 -215q80 -103 215 -103zM625 1012q229 0 381 -144
q153 -144 153 -372q0 -227 -154 -376t-380 -149t-380 148q-155 148 -155 377t153 372q153 144 382 144z" />
    <glyph glyph-name="Rdblgrave" unicode="&#x210;" horiz-adv-x="1288" 
d="M739 1604h-192l-289 294h279zM1155 1604h-192l-289 294h278zM629 825q311 0 311 211q0 106 -94 158q-70 39 -195 39h-233v-408h211zM160 1450h504q365 0 489 -221q45 -80 45 -195q0 -158 -89 -257t-243 -134l387 -643h-311l-336 614h-188v-614h-258v1450z" />
    <glyph glyph-name="rdblgrave" unicode="&#x211;" horiz-adv-x="745" 
d="M473 1165h-192l-289 295h278zM889 1165h-193l-288 295h278zM393 526v-526h-246v983h236v-164h4q41 86 115 139t172 54q41 0 59 -6v-226q-36 9 -98 10t-113 -30t-90 -89t-39 -145z" />
    <glyph glyph-name="Rinvertedbreve" unicode="&#x212;" horiz-adv-x="1288" 
d="M496 1898q24 -135 211 -135q88 0 139 25t74 110h135q-15 -152 -109 -224t-241 -70q-147 0 -242 70q-94 71 -105 224h138zM629 825q311 0 311 211q0 106 -94 158q-70 39 -195 39h-233v-408h211zM160 1450h504q365 0 489 -221q45 -80 45 -195q0 -158 -89 -257t-243 -134
l387 -643h-311l-336 614h-188v-614h-258v1450z" />
    <glyph glyph-name="rinvertedbreve" unicode="&#x213;" horiz-adv-x="745" 
d="M438 1165q-148 0 -241 71q-94 71 -105 224h137q24 -135 211 -135q88 0 140 25q51 25 73 110h135q-16 -152 -109 -224t-241 -71zM393 526v-526h-246v983h236v-164h4q41 86 115 139t172 54q41 0 59 -6v-226q-36 9 -98 10t-113 -30t-90 -89t-39 -145z" />
    <glyph glyph-name="Udblgrave" unicode="&#x214;" horiz-adv-x="1462" 
d="M764 1604h-193l-288 294h278zM1180 1604h-193l-289 294h279zM1315 532q0 -256 -165 -412q-165 -157 -417 -157t-419 155t-167 414v918h259v-907q0 -234 171 -318q62 -31 154 -31q93 0 155 32q168 82 171 317v907h258v-918z" />
    <glyph glyph-name="udblgrave" unicode="&#x215;" horiz-adv-x="1191" 
d="M625 1139h-193l-289 295h279zM1040 1139h-192l-289 295h279zM385 438q0 -262 184 -262q110 0 169 78t61 188v541h245v-983h-233v158h-4q-33 -74 -114 -130t-184 -56q-186 -1 -285 122q-83 103 -85 275v614h246v-545z" />
    <glyph glyph-name="Uinvertedbreve" unicode="&#x216;" horiz-adv-x="1462" 
d="M520 1898q24 -135 211 -135q88 0 139 25t74 110h135q-16 -152 -109 -224q-92 -72 -240 -70q-148 0 -243 70q-94 71 -104 224h137zM1315 532q0 -256 -165 -412q-165 -157 -417 -157t-419 155t-167 414v918h259v-907q0 -234 171 -318q62 -31 154 -31q93 0 155 32
q168 82 171 317v907h258v-918z" />
    <glyph glyph-name="uinvertedbreve" unicode="&#x217;" horiz-adv-x="1191" 
d="M381 1434q24 -136 211 -136q88 0 139 25t74 111h135q-16 -152 -110 -224t-240 -72q-147 0 -242 71q-94 71 -104 225h137zM385 438q0 -262 184 -262q110 0 169 78t61 188v541h245v-983h-233v158h-4q-33 -74 -114 -130t-184 -56q-186 -1 -285 122q-83 103 -85 275v614h246
v-545z" />
    <glyph glyph-name="Scommaaccent" unicode="&#x218;" horiz-adv-x="1175" 
d="M496 -92h217l-164 -400h-187zM648 1272q-116 0 -194 -51t-78 -146q1 -95 78 -145q47 -33 158 -68q111 -36 186 -64t137 -75q142 -108 142 -297q0 -222 -151 -342q-151 -121 -377 -121q-141 0 -277 52t-221 155l185 172q53 -74 142 -117q88 -43 154 -43q190 0 260 116
q24 40 24 98q-1 144 -206 210l-129 43q-167 50 -249 125q-119 107 -117 287q1 206 159 316t371 110q111 0 225 -39t197 -117l-168 -184q-41 53 -116 89t-135 36z" />
    <glyph glyph-name="scommaaccent" unicode="&#x219;" horiz-adv-x="909" 
d="M373 -92h217l-164 -400h-186zM313 721q1 -57 55 -81t134 -42q162 -37 238 -93q104 -77 104 -206q0 -168 -124 -254q-103 -72 -286 -74q-116 0 -224 42t-179 120l162 152q41 -53 107 -88t135 -35q70 0 105 19q62 35 62 97t-56 89t-140 46t-136 39q-184 68 -184 246
q0 154 114 233t249 80q278 2 397 -149l-160 -141q-33 43 -90 75q-56 32 -120 32t-114 -25q-49 -25 -49 -82z" />
    <glyph glyph-name="uni021A" unicode="&#x21a;" horiz-adv-x="1163" 
d="M500 -92h217l-164 -400h-186zM453 1225h-445v225h1147v-225h-444v-1225h-258v1225z" />
    <glyph glyph-name="uni021B" unicode="&#x21b;" horiz-adv-x="696" 
d="M334 -92h217l-164 -400h-186zM495 -20q-257 0 -304 214q-13 62 -13 134v458h-172v197h172v285h242v-285h246v-197h-246v-456q0 -66 24 -109t95 -43q72 0 114 21l9 -193q-72 -26 -167 -26z" />
    <glyph glyph-name="Hcaron" unicode="&#x21e;" horiz-adv-x="1513" 
d="M618 1898l142 -184l141 184h225l-235 -294h-273l-233 294h233zM160 1450h258v-586h678v586h258v-1450h-258v643h-678v-643h-258v1450z" />
    <glyph glyph-name="hcaron" unicode="&#x21f;" horiz-adv-x="1196" 
d="M467 1997l141 -185l142 185h225l-236 -295h-272l-234 295h234zM811 541q0 260 -182 260q-111 0 -170 -78t-62 -186v-537h-245v1548h245v-702h4q29 65 109 115q80 51 180 51q184 0 282 -123q83 -103 85 -275v-614h-246v541z" />
    <glyph glyph-name="Adotaccent" unicode="&#x226;" horiz-adv-x="1445" 
d="M565 1751q0 59 44 103t112 44t114 -42t46 -104q0 -64 -46 -106t-114 -42t-112 44t-44 103zM942 553l-223 590l-227 -590h450zM614 1450h224l624 -1450h-295l-135 332h-629l-131 -332h-288z" />
    <glyph glyph-name="adotaccent" unicode="&#x227;" horiz-adv-x="1126" 
d="M375 1315q0 59 44 103q43 44 111 44t114 -42t46 -105t-46 -105t-114 -43q-68 1 -112 45t-43 103zM698 449q-377 0 -374 -164q0 -123 172 -123q126 0 192 68t66 184v35h-56zM133 856q167 156 425 156q122 0 207 -37q222 -97 222 -377v-598h-229v125h-6q-37 -66 -119 -108
t-164 -42q-164 0 -265 67q-126 84 -126 239q0 199 223 276q160 57 453 57v25q0 92 -67 136t-152 44t-157 -33t-118 -79z" />
    <glyph glyph-name="Ecedilla" unicode="&#x228;" 
d="M737 -297q0 74 -123 74q-32 0 -65 -13l-47 52l127 184h-469v1450h960v-225h-702v-369h665v-217h-665v-410h739v-229h-409l-93 -131q12 2 21 2h18q215 0 215 -170q0 -102 -93 -153q-68 -37 -157 -39q-150 -2 -253 53l47 98q78 -41 159 -41q125 0 125 84z" />
    <glyph glyph-name="ecedilla" unicode="&#x229;" horiz-adv-x="1175" 
d="M616 172q171 0 261 127l163 -131q-130 -176 -362 -195l-92 -131q12 2 20 2h19q212 0 215 -170q0 -103 -94 -152q-73 -40 -159 -40q-152 0 -251 53l47 98q78 -41 160 -41t112 41q12 16 13 48t-33 51q-34 18 -77 18t-79 -12l-47 51l127 184h6q-195 16 -324 136
q-151 140 -151 375t149 382q149 146 366 146t349 -140t131 -393v-33q0 -16 -2 -32h-747q8 -106 91 -174t189 -68zM840 590q0 161 -128 218q-44 19 -104 19q-112 -1 -188 -67t-84 -170h504z" />
    <glyph glyph-name="Odieresismacron" unicode="&#x22a;" horiz-adv-x="1738" 
d="M1196 2081h-655v160h655v-160zM922 1784q0 57 41 100t104 43t107 -41t43 -102q0 -60 -43 -102q-42 -42 -106 -42t-105 44t-41 100zM520 1784q0 57 41 100t105 43t106 -41q43 -41 43 -102q0 -60 -43 -102t-106 -42t-105 43q-41 44 -41 101zM371 727q0 -230 140 -382
t359 -151t359 151q139 150 139 379q0 230 -139 383t-361 153q-113 0 -203 -41q-185 -84 -259 -281q-36 -96 -35 -211zM90 733q0 340 218 547t561 207t560 -206q218 -206 219 -547t-220 -556t-561 -215q-339 0 -558 215t-219 555z" />
    <glyph glyph-name="odieresismacron" unicode="&#x22b;" 
d="M952 1606h-655v159h655v-159zM678 1311q0 57 41 100t104 43t107 -41t43 -102q0 -61 -43 -103q-42 -42 -106 -41q-64 -1 -105 43t-41 101zM276 1311q0 57 41 100t105 43t106 -41q43 -41 43 -102t-43 -103t-106 -41q-63 0 -105 43q-41 44 -41 101zM625 176q135 0 209 96
q75 96 75 222t-73 222q-73 95 -210 95q-136 0 -211 -95t-75 -222t70 -215q80 -103 215 -103zM625 1012q229 0 381 -144q153 -144 153 -372q0 -227 -154 -376t-380 -149t-380 148q-155 148 -155 377t153 372q153 144 382 144z" />
    <glyph glyph-name="Otildemacron" unicode="&#x22c;" horiz-adv-x="1738" 
d="M1196 2064h-655v160h655v-160zM492 1640q43 261 229 261q76 0 167 -38t128 -38q69 0 94 86h135q-19 -118 -56 -167q-71 -95 -173 -93q-74 0 -161 38t-134 40q-71 0 -94 -89h-135zM371 727q0 -230 140 -382t359 -151t359 151q139 150 139 379q0 230 -139 383t-361 153
q-113 0 -203 -41q-185 -84 -259 -281q-36 -96 -35 -211zM90 733q0 340 218 547t561 207t560 -206q218 -206 219 -547t-220 -556t-561 -215q-339 0 -558 215t-219 555z" />
    <glyph glyph-name="otildemacron" unicode="&#x22d;" 
d="M952 1589h-655v160h655v-160zM477 1253q-69 0 -94 -88h-135q43 263 229 260q79 1 168 -37q90 -38 127 -38q72 0 94 86h135q-43 -263 -229 -260q-74 0 -162 38q-89 38 -133 39zM625 176q135 0 209 96q75 96 75 222t-73 222q-73 95 -210 95q-136 0 -211 -95t-75 -222
t70 -215q80 -103 215 -103zM625 1012q229 0 381 -144q153 -144 153 -372q0 -227 -154 -376t-380 -149t-380 148q-155 148 -155 377t153 372q153 144 382 144z" />
    <glyph glyph-name="Odotaccent" unicode="&#x22e;" horiz-adv-x="1738" 
d="M711 1788q0 59 44 103q43 44 111 44t114 -42t46 -105q0 -64 -46 -106t-114 -42t-112 44t-43 104zM371 727q0 -230 140 -382t359 -151t359 151q139 150 139 379q0 230 -139 383t-361 153q-113 0 -203 -41q-185 -84 -259 -281q-36 -96 -35 -211zM90 733q0 340 218 547
t561 207t560 -206q218 -206 219 -547t-220 -556t-561 -215q-339 0 -558 215t-219 555z" />
    <glyph glyph-name="odotaccent" unicode="&#x22f;" 
d="M467 1315q0 59 44 103t112 44q67 0 113 -42t46 -105t-46 -105t-114 -43q-68 1 -111 45q-44 44 -44 103zM625 176q135 0 209 96q75 96 75 222t-73 222q-73 95 -210 95q-136 0 -211 -95t-75 -222t70 -215q80 -103 215 -103zM625 1012q229 0 381 -144q153 -144 153 -372
q0 -227 -154 -376t-380 -149t-380 148q-155 148 -155 377t153 372q153 144 382 144z" />
    <glyph glyph-name="Odotaccentmacron" unicode="&#x230;" horiz-adv-x="1738" 
d="M1196 2089h-655v160h655v-160zM711 1788q0 59 44 103q43 44 111 44t114 -42t46 -105q0 -64 -46 -106t-114 -42t-112 44t-43 104zM371 727q0 -230 140 -382t359 -151t359 151q139 150 139 379q0 230 -139 383t-361 153q-113 0 -203 -41q-185 -84 -259 -281
q-36 -96 -35 -211zM90 733q0 340 218 547t561 207t560 -206q218 -206 219 -547t-220 -556t-561 -215q-339 0 -558 215t-219 555z" />
    <glyph glyph-name="odotaccentmacron" unicode="&#x231;" 
d="M952 1614h-655v160h655v-160zM467 1315q0 59 44 103t112 44q67 0 113 -42t46 -105t-46 -105t-114 -43q-68 1 -111 45q-44 44 -44 103zM625 176q135 0 209 96q75 96 75 222t-73 222q-73 95 -210 95q-136 0 -211 -95t-75 -222t70 -215q80 -103 215 -103zM625 1012
q229 0 381 -144q153 -144 153 -372q0 -227 -154 -376t-380 -149t-380 148q-155 148 -155 377t153 372q153 144 382 144z" />
    <glyph glyph-name="Ymacron" unicode="&#x232;" horiz-adv-x="1273" 
d="M967 1604h-656v159h656v-159zM768 0h-258v629l-545 821h316l364 -610l369 610h299l-545 -821v-629z" />
    <glyph glyph-name="ymacron" unicode="&#x233;" horiz-adv-x="1050" 
d="M852 1139h-655v159h655v-159zM106 -264q38 -12 85 -14t73 8q47 17 78 77q14 29 31 68l49 125l-422 983h272l275 -715h4l244 715h256l-465 -1194q-58 -145 -137 -212t-236 -69q-65 0 -127 15z" />
    <glyph glyph-name="commaturnedmod" unicode="&#x2bb;" horiz-adv-x="552" 
d="M324 909h-238l174 541h207z" />
    <glyph glyph-name="afii57929" unicode="&#x2bc;" horiz-adv-x="552" 
d="M229 1450h238l-174 -541h-207z" />
    <glyph glyph-name="circumflex" unicode="&#x2c6;" horiz-adv-x="532" 
d="M406 1155l-142 184l-141 -184h-229l235 295h277l233 -295h-233z" />
    <glyph glyph-name="caron" unicode="&#x2c7;" horiz-adv-x="532" 
d="M129 1450l141 -184l142 184h225l-236 -295h-272l-233 295h233z" />
    <glyph glyph-name="uni02C9" unicode="&#x2c9;" horiz-adv-x="532" 
d="M594 1628h-655v160h655v-160z" />
    <glyph glyph-name="breve" unicode="&#x2d8;" horiz-adv-x="532" 
d="M264 1155q-148 0 -241 71q-94 71 -105 224h137q25 -137 211 -135q88 0 140 24q51 25 73 111h135q-16 -152 -109 -224t-241 -71z" />
    <glyph glyph-name="dotaccent" unicode="&#x2d9;" horiz-adv-x="532" 
d="M111 1317q0 59 44 103q43 44 111 44t114 -42t46 -105t-46 -105t-114 -43q-68 1 -112 45t-43 103z" />
    <glyph glyph-name="ring" unicode="&#x2da;" horiz-adv-x="532" 
d="M387 1341q0 51 -35 84t-87 33t-86 -34t-34 -84t35 -83t86 -33t86 34q35 32 35 83zM481 1341q0 -92 -61 -150q-62 -58 -154 -58t-153 58t-61 149t61 150q62 60 154 60q91 0 153 -58q61 -59 61 -151z" />
    <glyph glyph-name="ogonek" unicode="&#x2db;" horiz-adv-x="532" 
d="M-2 -298q0 110 136 250q36 36 69 60h125q-54 -44 -112 -121q-58 -78 -58 -129q0 -50 28 -78t77 -28q50 0 99 43l52 -100q-98 -80 -205 -78q-141 0 -194 103q-17 34 -17 78z" />
    <glyph glyph-name="tilde" unicode="&#x2dc;" horiz-adv-x="532" 
d="M119 1251q-71 0 -94 -88h-136q19 119 56 167q72 95 164 94t172 -38q97 -38 133 -38q69 0 94 86h135q-43 -263 -229 -260q-71 0 -163 38t-132 39z" />
    <glyph glyph-name="hungarumlaut" unicode="&#x2dd;" horiz-adv-x="532" 
d="M582 1450h278l-289 -295h-192zM162 1450h278l-288 -295h-193z" />
    <glyph glyph-name="uni02EE" unicode="&#x2ee;" horiz-adv-x="952" 
d="M229 1450h238l-174 -541h-207zM629 1450h237l-174 -541h-207z" />
    <glyph glyph-name="gravecmb" unicode="&#x300;" horiz-adv-x="0" 
d="M-51 1155h-193l-288 295h278z" />
    <glyph glyph-name="acutecmb" unicode="&#x301;" horiz-adv-x="0" 
d="M-330 1450h279l-289 -295h-192z" />
    <glyph glyph-name="circumflexcmb" unicode="&#x302;" horiz-adv-x="0" 
d="M-20 1155l-142 184l-141 -184h-229l235 295h277l233 -295h-233z" />
    <glyph glyph-name="tildecmb" unicode="&#x303;" horiz-adv-x="0" 
d="M-303 1251q-71 0 -94 -88h-135q20 120 56 168q72 94 163 93t172 -38q97 -38 133 -38q69 0 94 86h135q-43 -263 -229 -260q-70 0 -163 38q-92 38 -132 39z" />
    <glyph glyph-name="macroncmb" unicode="&#x304;" horiz-adv-x="0" 
d="M123 1219h-655v159h655v-159z" />
    <glyph glyph-name="brevecmb" unicode="&#x306;" horiz-adv-x="0" 
d="M-186 1155q-147 0 -242 71q-94 71 -104 224h137q25 -137 211 -135q88 1 139 25t74 110h135q-16 -152 -110 -224t-240 -71z" />
    <glyph glyph-name="dotaccentcmb" unicode="&#x307;" horiz-adv-x="0" 
d="M-532 1317q0 59 44 103t112 44t113 -42q46 -42 46 -105t-46 -105t-114 -43q-67 1 -111 45t-44 103z" />
    <glyph glyph-name="dieresiscmb" unicode="&#x308;" horiz-adv-x="0" 
d="M-131 1319q0 57 41 100t104 43q62 0 106 -41t44 -102t-43 -102t-107 -41t-104 43q-41 43 -41 100zM-532 1319q0 57 40 100t104 43t107 -41t43 -102t-43 -102t-106 -41t-105 43q-40 43 -40 100z" />
    <glyph glyph-name="hookabovecomb" unicode="&#x309;" horiz-adv-x="532" 
d="M20 1356q32 196 261 196q109 0 170 -52t61 -116t-26 -104q-26 -38 -72 -60t-59 -40t-13 -43h-154q0 53 20 87t80 66q58 32 58 76q0 63 -72 64q-40 0 -62 -22t-30 -73z" />
    <glyph glyph-name="ringcmb" unicode="&#x30a;" horiz-adv-x="0" 
d="M-197 1341q0 51 -34 84q-35 33 -87 33t-86 -34t-34 -84t35 -83t86 -33t86 33q34 33 34 84zM-102 1341q0 -92 -62 -150t-153 -58q-92 0 -154 58q-61 58 -61 149t62 151q62 59 153 59t153 -58t62 -151z" />
    <glyph glyph-name="hungarumlautcmb" unicode="&#x30b;" horiz-adv-x="0" 
d="M90 1450h279l-289 -295h-193zM-330 1450h279l-289 -295h-192z" />
    <glyph glyph-name="caroncmb" unicode="&#x30c;" horiz-adv-x="0" 
d="M-299 1450l141 -184l142 184h225l-236 -295h-272l-233 295h233z" />
    <glyph glyph-name="doublegravecmb" unicode="&#x30f;" horiz-adv-x="0" 
d="M-467 1155h-192l-289 295h278zM-51 1155h-193l-288 295h278z" />
    <glyph glyph-name="invertedbrevecmb" unicode="&#x311;" horiz-adv-x="0" 
d="M-350 1155q-147 0 -242 71q-94 71 -104 224h137q25 -137 211 -135q88 1 139 25t74 110h135q-16 -152 -110 -224t-240 -71z" />
    <glyph glyph-name="horncmb" unicode="&#x31b;" horiz-adv-x="0" 
d="M-131 1123q0 -123 -71 -195q-118 -120 -414 -54q-53 12 -99 29l-12 80h219q92 2 128 43t36 116t-35 126l211 53q37 -75 37 -198z" />
    <glyph glyph-name="dotbelowcmb" unicode="&#x323;" horiz-adv-x="0" 
d="M-370 -143q66 0 116 -45q49 -45 49 -111t-48 -113t-114 -47t-116 44q-49 44 -49 111t48 114t114 47z" />
    <glyph glyph-name="dieresisbelowcmb" unicode="&#x324;" horiz-adv-x="0" 
d="M-131 -287q0 57 41 101t104 43q62 0 106 -41q44 -40 44 -102t-43 -103t-107 -41t-104 43q-41 43 -41 100zM-532 -287q0 57 40 101q40 43 104 43t107 -41q43 -40 43 -102t-43 -103t-106 -41t-105 43q-40 43 -40 100z" />
    <glyph glyph-name="ringbelowcmb" unicode="&#x325;" horiz-adv-x="0" 
d="M-197 -352q0 51 -34 84q-35 32 -87 32t-86 -34t-34 -83q0 -50 35 -83t86 -33t86 33q34 33 34 84zM-102 -352q0 -92 -62 -150t-153 -59q-92 0 -154 58q-61 58 -61 150t61 150t154 59q91 0 153 -58t62 -150z" />
    <glyph glyph-name="commabelowcmb" unicode="&#x326;" horiz-adv-x="0" 
d="M-389 -143h237l-174 -541h-206z" />
    <glyph glyph-name="cedillacmb" unicode="&#x327;" horiz-adv-x="0" 
d="M-201 -297q0 74 -123 74q-32 0 -65 -13l-47 52l127 184h119l-93 -131q12 2 21 2h18q215 0 215 -170q0 -102 -93 -153q-68 -37 -157 -39q-150 -2 -253 53l47 98q78 -41 159 -41q125 0 125 84z" />
    <glyph glyph-name="ogonekcmb" unicode="&#x328;" horiz-adv-x="0" 
d="M-532 -298q0 85 67 171t137 139h125q-52 -42 -110 -119q-58 -78 -59 -130q-1 -51 27 -79t78 -28t99 43l51 -100q-98 -80 -205 -78q-140 0 -193 103q-17 34 -17 78z" />
    <glyph glyph-name="circumflexbelowcmb" unicode="&#x32d;" horiz-adv-x="0" 
d="M-20 -438l-142 184l-141 -184h-229l235 295h277l233 -295h-233z" />
    <glyph glyph-name="brevebelowcmb" unicode="&#x32e;" horiz-adv-x="0" 
d="M-184 -279q88 0 139 25t74 111h135q-16 -152 -110 -224q-94 -71 -240 -71q-147 0 -242 70q-94 71 -104 225h137q24 -136 211 -136z" />
    <glyph glyph-name="tildebelowcmb" unicode="&#x330;" horiz-adv-x="0" 
d="M-8 -229q69 0 94 86h135q-43 -263 -229 -260q-74 1 -162 39q-89 38 -133 38q-71 0 -94 -88h-135q43 263 229 260q79 0 168 -38q90 -38 127 -37z" />
    <glyph glyph-name="macronbelowcmb" unicode="&#x331;" horiz-adv-x="0" 
d="M123 -303h-655v160h655v-160z" />
    <glyph glyph-name="gravetonecmb" unicode="&#x340;" horiz-adv-x="0" 
d="M-51 1155h-193l-288 295h278z" />
    <glyph glyph-name="acutetonecmb" unicode="&#x341;" horiz-adv-x="0" 
d="M-330 1450h279l-289 -295h-192z" />
    <glyph glyph-name="dialytikatonoscmb" unicode="&#x344;" horiz-adv-x="0" 
d="M-221 1911h278l-288 -295h-193zM-131 1319q0 57 41 100t104 43q62 0 106 -41t44 -102t-43 -102t-107 -41t-104 43q-41 43 -41 100zM-532 1319q0 57 40 100t104 43t107 -41t43 -102t-43 -102t-106 -41t-105 43q-40 43 -40 100z" />
    <glyph glyph-name="combininggraphemejoiner" unicode="&#x34f;" horiz-adv-x="1024" 
 />
    <glyph glyph-name="uni037E" unicode="&#x37e;" horiz-adv-x="614" 
d="M306 997q67 0 116 -45q49 -44 49 -110t-48 -113t-115 -47t-116 44t-49 111t48 113t115 47zM225 283h250l-174 -541h-219z" />
    <glyph glyph-name="u0384" unicode="&#x384;" horiz-adv-x="532" 
d="M164 1524h203l-21 -410h-160z" />
    <glyph glyph-name="u0385" unicode="&#x385;" horiz-adv-x="491" 
d="M154 1550h180l-21 -438h-137zM434 1217q0 43 33 77t81 33q48 0 80 -34q32 -35 32 -77t-32 -77t-80 -35t-81 35t-33 78zM-176 1217q0 43 33 77t80 33q47 0 79 -34q32 -35 33 -77q0 -42 -33 -77q-34 -35 -80 -35t-79 35t-33 78z" />
    <glyph glyph-name="u0386" unicode="&#x386;" horiz-adv-x="1492" 
d="M510 543h491l-243 622zM301 0h-281l617 1450h250l612 -1450h-287l-133 330h-649zM123 1561h203l-21 -410h-160z" />
    <glyph glyph-name="anoteleia" unicode="&#x387;" horiz-adv-x="532" 
d="M266 756q66 0 115 -45t49 -111t-48 -113t-114 -47t-116 44t-50 111t48 114q50 47 116 47z" />
    <glyph glyph-name="u0388" unicode="&#x388;" horiz-adv-x="1402" 
d="M592 221h721v-221h-971v1450h940v-221h-690v-377h649v-211h-649v-420zM0 1561h203l-21 -410h-159z" />
    <glyph glyph-name="u0389" unicode="&#x389;" horiz-adv-x="1681" 
d="M328 1450h258v-586h667v586h258v-1450h-258v643h-667v-643h-258v1450zM0 1561h203l-21 -410h-159z" />
    <glyph glyph-name="u038A" unicode="&#x38a;" horiz-adv-x="765" 
d="M596 0h-258v1450h258v-1450zM0 1561h203l-21 -410h-159z" />
    <glyph glyph-name="u038C" unicode="&#x38c;" horiz-adv-x="1873" 
d="M1503 725q0 225 -140 379q-140 153 -361 153q-222 0 -361 -153t-139 -377t138 -378t360 -154t362 152q141 153 141 378zM1776 729q0 -334 -219 -551t-556 -217q-336 0 -553 216t-219 552q0 170 59 310q116 280 406 395q141 55 307 55q167 0 309 -55q289 -111 407 -395
q59 -140 59 -310zM0 1561h203l-21 -410h-159z" />
    <glyph glyph-name="u038E" unicode="&#x38e;" horiz-adv-x="1628" 
d="M1100 0h-256v618l-545 832h313l369 -612l369 612h301l-551 -832v-618zM0 1561h203l-21 -410h-159z" />
    <glyph glyph-name="u038F" unicode="&#x38f;" horiz-adv-x="1767" 
d="M1067 0v395q166 41 259 147t93 296q0 191 -123 305t-327 113q-205 -1 -332 -114t-127 -302q0 -190 100 -304t264 -139v-397h-595v201h387v80q-175 29 -304 185q-128 157 -126 368q0 297 212 474t524 177q311 0 516 -180t206 -469q0 -204 -138 -369q-61 -74 -139 -123
t-155 -63v-80h401v-201h-596zM-2 1487h205l-21 -410h-162z" />
    <glyph glyph-name="u0390" unicode="&#x390;" horiz-adv-x="784" 
d="M512 0h-246v991h246v-991zM305 1571h182l-20 -436h-139zM699 1126q-47 0 -79 35t-32 77t32 77t80 35t79 -35q32 -35 32 -77t-32 -77t-80 -35zM-23 1238q0 42 32 77t80 35t80 -35t32 -77t-32 -77t-80 -35t-80 35t-32 77z" />
    <glyph glyph-name="u0391" unicode="&#x391;" horiz-adv-x="1466" 
d="M483 543h492l-244 622zM274 0h-280l616 1450h250l613 -1450h-287l-133 330h-650z" />
    <glyph glyph-name="u0392" unicode="&#x392;" horiz-adv-x="1335" 
d="M420 211h231q214 0 290 117q28 43 28 106q0 117 -82 167t-223 50h-244v-440zM420 846h237q175 0 234 109q20 38 20 94q0 102 -77 147q-78 45 -203 45h-211v-395zM170 1450h510q322 0 437 -190q44 -72 44 -186q1 -114 -67 -196t-179 -112v-4q136 -21 224 -112t88 -238
q0 -203 -154 -307q-154 -105 -393 -105h-510v1450z" />
    <glyph glyph-name="u0393" unicode="&#x393;" horiz-adv-x="1058" 
d="M428 0h-258v1450h870v-225h-612v-1225z" />
    <glyph glyph-name="u0394" unicode="&#x394;" horiz-adv-x="1515" 
d="M752 1174l-406 -955h809zM82 0v211l547 1239h254l551 -1237v-213h-1352z" />
    <glyph glyph-name="u0395" unicode="&#x395;" horiz-adv-x="1228" 
d="M420 221h721v-221h-971v1450h940v-221h-690v-377h647v-211h-647v-420z" />
    <glyph glyph-name="u0396" unicode="&#x396;" horiz-adv-x="1241" 
d="M1169 223v-223h-1097v221l764 1008h-744v221h1065v-209l-772 -1018h784z" />
    <glyph glyph-name="u0397" unicode="&#x397;" horiz-adv-x="1521" 
d="M170 1450h256v-586h670v586h256v-1450h-256v643h-670v-643h-256v1450z" />
    <glyph glyph-name="u0398" unicode="&#x398;" horiz-adv-x="1742" 
d="M870 1257q-100 -1 -184 -33q-166 -64 -252 -225q-41 -78 -55 -168h983q-33 186 -163 306q-131 120 -329 120zM871 195q200 0 332 125q133 125 161 319h-987q24 -194 159 -319t335 -125zM1645 729q0 -334 -219 -551t-554 -217t-555 215q-219 215 -221 553q0 170 59 310
q116 280 408 395q141 55 307 55t308 -55q289 -111 408 -395q59 -140 59 -310z" />
    <glyph glyph-name="u0399" unicode="&#x399;" horiz-adv-x="595" 
d="M428 0h-258v1450h258v-1450z" />
    <glyph glyph-name="u039A" unicode="&#x39a;" horiz-adv-x="1378" 
d="M422 831h6l596 619h334l-674 -664l713 -786h-346l-625 715h-4v-715h-252v1450h252v-619z" />
    <glyph glyph-name="u039B" unicode="&#x39b;" horiz-adv-x="1466" 
d="M285 0h-277l592 1450h260l598 -1450h-282l-445 1104z" />
    <glyph glyph-name="u039C" unicode="&#x39c;" horiz-adv-x="1890" 
d="M1722 1450v-1450h-254l5 1133h-5l-444 -1133h-168l-440 1133h-4l4 -1133h-246v1450h371l405 -1055h4l396 1055h376z" />
    <glyph glyph-name="u039D" unicode="&#x39d;" horiz-adv-x="1593" 
d="M1423 1450v-1450h-299l-702 1085h-6l4 -1085h-250v1450h299l702 -1079h7l-4 1079h249z" />
    <glyph glyph-name="u039E" unicode="&#x39e;" horiz-adv-x="1210" 
d="M1122 221v-221h-1034v221h1034zM1032 846v-205h-872v205h872zM1108 1450v-221h-1020v221h1020z" />
    <glyph glyph-name="u039F" unicode="&#x39f;" horiz-adv-x="1742" 
d="M1370 728q0 224 -139 377q-139 152 -359 152q-221 0 -361 -151t-140 -377t138 -380t361 -154t364 155q65 72 100 170q36 98 36 208zM1645 729q0 -334 -219 -551t-554 -217t-555 215q-219 215 -221 553q0 170 59 310q116 280 408 395q141 55 307 55t308 -55
q289 -111 408 -395q59 -140 59 -310z" />
    <glyph glyph-name="u03A0" unicode="&#x3a0;" horiz-adv-x="1482" 
d="M1313 1450v-1450h-256v1229h-631v-1229h-256v1450h1143z" />
    <glyph glyph-name="u03A1" unicode="&#x3a1;" horiz-adv-x="1253" 
d="M920 1030q0 209 -295 209h-199v-426h195q216 0 277 119q22 41 22 98zM170 1450h475q378 0 493 -228q40 -79 40 -192q0 -215 -149 -320q-149 -104 -390 -104h-213v-606h-256v1450z" />
    <glyph glyph-name="u03A3" unicode="&#x3a3;" 
d="M117 0v176l555 547v12l-555 537v178h1026v-215h-684l532 -494v-22l-504 -506h674v-213h-1044z" />
    <glyph glyph-name="u03A4" unicode="&#x3a4;" horiz-adv-x="1179" 
d="M719 0h-258v1229h-445v221h1147v-221h-444v-1229z" />
    <glyph glyph-name="u03A5" unicode="&#x3a5;" horiz-adv-x="1306" 
d="M778 0h-256v618l-545 832h314l368 -612l369 612h301l-551 -832v-618z" />
    <glyph glyph-name="u03A6" unicode="&#x3a6;" horiz-adv-x="1839" 
d="M1475 725q0 180 -113 305t-318 158v-926q202 27 317 155q114 128 114 308zM365 724q0 -276 248 -408q81 -42 186 -56v928q-206 -28 -320 -155t-114 -309zM1044 -127h-245v154q-318 33 -513 224q-194 191 -194 476q0 284 195 471q195 188 512 221v144h245v-144
q313 -33 509 -221t196 -475q0 -286 -198 -475t-507 -221v-154z" />
    <glyph glyph-name="u03A7" unicode="&#x3a7;" horiz-adv-x="1388" 
d="M694 938l326 512h301l-469 -686l528 -764h-319l-375 578l-367 -578h-311l520 764l-475 686h312z" />
    <glyph glyph-name="u03A8" unicode="&#x3a8;" horiz-adv-x="1779" 
d="M1018 504h39q147 0 236 86t89 252v608h256v-651q0 -252 -164 -389q-164 -136 -415 -136h-41v-274h-256v274h-51q-249 0 -409 138t-161 387v651h256v-608q0 -166 88 -252t236 -86h41v946h256v-946z" />
    <glyph glyph-name="u03A9" unicode="&#x3a9;" horiz-adv-x="1605" 
d="M905 0v395q166 41 259 147t93 296q0 191 -122 305t-326 113t-333 -114q-128 -113 -128 -303q0 -191 101 -304t264 -138v-397h-596v201h387v80q-175 29 -303 184q-127 155 -127 369q0 297 212 474t525 177q312 0 512 -177q97 -85 153 -205q56 -121 56 -247t-38 -220
q-77 -191 -239 -292q-78 -49 -155 -63v-80h401v-201h-596z" />
    <glyph glyph-name="u03AA" unicode="&#x3aa;" horiz-adv-x="595" 
d="M649 1738q0 -56 -40 -98t-100 -41q-60 -1 -100 41t-40 97t40 97t100 42t100 -41t40 -97zM88 1599q-59 -1 -100 41t-41 97t41 97t100 42t99 -41t40 -97t-40 -98t-99 -41zM428 0h-258v1450h258v-1450z" />
    <glyph glyph-name="u03AB" unicode="&#x3ab;" horiz-adv-x="1306" 
d="M870 1876q60 0 100 -41t40 -97t-40 -98t-100 -41q-60 -1 -99 41q-40 42 -40 97t40 97t99 42zM309 1737q0 55 40 97q39 42 99 42t101 -41t41 -97t-41 -98t-100 -41q-59 0 -100 41q-40 42 -40 97zM778 0h-256v618l-545 832h314l368 -612l369 612h301l-551 -832v-618z" />
    <glyph glyph-name="u03AC" unicode="&#x3ac;" horiz-adv-x="1306" 
d="M332 497q0 -135 80 -227t212 -92q133 0 220 92q86 92 86 225q0 134 -86 229t-219 94q-134 -1 -213 -93q-80 -93 -80 -228zM572 -27q-215 0 -349 153q-135 153 -135 371t134 370q134 151 353 151q111 0 197 -45t139 -117h4v137h246v-993h-231v145h-4q-56 -84 -150 -128
t-204 -44zM573 1548h203l-20 -409h-160z" />
    <glyph glyph-name="u03AD" unicode="&#x3ad;" horiz-adv-x="1085" 
d="M326 291q0 -115 270 -115q123 0 231 53q47 23 76 56l127 -146q-100 -100 -273 -145q-85 -23 -191 -23q-106 1 -194 19q-183 39 -257 144q-39 54 -39 120q0 119 89 187q63 50 157 63v4q-139 32 -193 135q-20 39 -20 99q0 123 130 200q130 78 320 79q191 1 322 -71
q83 -47 120 -108l-143 -129q-27 31 -65 55q-96 55 -178 55q-138 0 -184 -22t-65 -44q-20 -21 -20 -53q-2 -117 264 -118h178v-176h-161q-147 0 -225 -27t-76 -92zM641 1548l-20 -409h-162l-23 409h205z" />
    <glyph glyph-name="u03AE" unicode="&#x3ae;" horiz-adv-x="1247" 
d="M393 840h4q34 71 126 124q91 54 193 54q103 0 174 -33q142 -66 187 -218q23 -75 23 -157v-1102h-244v1037q0 193 -111 250q-41 20 -102 20q-106 0 -174 -78t-68 -213v-524h-245v737q0 132 -4 254h237q4 -74 4 -151zM518 1548h205l-21 -409h-161z" />
    <glyph glyph-name="u03AF" unicode="&#x3af;" horiz-adv-x="526" 
d="M158 1622h204l-20 -410h-162zM381 0h-246v991h246v-991z" />
    <glyph glyph-name="u03B0" unicode="&#x3b0;" horiz-adv-x="1226" 
d="M520 1550h180l-20 -438h-137zM801 1217q0 43 33 77q32 34 80 33q48 0 80 -34q32 -35 32 -77t-32 -77t-80 -35t-80 35t-33 78zM190 1217q0 43 33 77t80 33q47 0 80 -34q33 -35 33 -77t-33 -77t-80 -35t-80 35t-33 78zM147 408v583h246v-538q0 -190 114 -250
q42 -23 105 -23q116 0 169 75t55 198v538h245v-583q0 -182 -107 -299q-125 -136 -365 -136t-358 136q-104 117 -104 299z" />
    <glyph glyph-name="u03B1" unicode="&#x3b1;" horiz-adv-x="1306" 
d="M332 497q0 -135 80 -227t212 -92q133 0 220 92q86 92 86 225q0 134 -86 229t-219 94q-134 -1 -213 -93q-80 -93 -80 -228zM572 -27q-215 0 -349 153q-135 153 -135 371t134 370q134 151 353 151q111 0 197 -45t139 -117h4v137h246v-993h-231v145h-4q-56 -84 -150 -128
t-204 -44z" />
    <glyph glyph-name="u03B2" unicode="&#x3b2;" horiz-adv-x="1325" 
d="M399 -492h-243v1590q0 215 130 337q130 121 332 120t337 -108t135 -284q0 -129 -75 -225t-165 -109v-6q130 -5 236 -91q139 -110 139 -306t-138 -322q-138 -127 -322 -127q-183 0 -292 99q-47 43 -74 98v-666zM399 532q0 -170 77 -257q76 -87 204 -87t206 68t79 192
q0 124 -81 194t-231 71h-110v200h90q88 1 148 55q61 54 61 157t-66 163t-158 60t-155 -65t-64 -210v-541z" />
    <glyph glyph-name="u03B3" unicode="&#x3b3;" horiz-adv-x="1183" 
d="M725 -492h-246v555l-465 928h279l311 -704l297 704h268l-444 -928v-555z" />
    <glyph glyph-name="u03B4" unicode="&#x3b4;" horiz-adv-x="1273" 
d="M854 720q-83 89 -216 89t-214 -89q-82 -89 -82 -227q0 -137 81 -226t213 -89q133 0 217 89q83 89 83 225q0 137 -82 228zM667 1343q-212 0 -212 -92q0 -45 54 -75q53 -30 157 -69q220 -81 348 -212q164 -169 164 -396t-148 -377q-148 -151 -388 -151q-239 0 -392 148
q-152 148 -152 361t125 343t289 152q32 8 51 8l6 10q-13 1 -35 9t-54 19t-79 30l-71 28q-93 36 -140 108q-24 38 -24 96q0 119 142 193t344 74q201 0 352 -43q68 -18 120 -41l-55 -209q-190 86 -402 86z" />
    <glyph glyph-name="u03B5" unicode="&#x3b5;" horiz-adv-x="1085" 
d="M326 291q0 -115 270 -115q123 0 231 53q47 23 76 56l127 -146q-100 -100 -273 -145q-85 -23 -191 -23q-106 1 -194 19q-183 39 -257 144q-39 54 -39 120q0 119 89 187q63 50 157 63v4q-139 32 -193 135q-20 39 -20 99q0 123 130 200q130 78 320 79q191 1 322 -71
q83 -47 120 -108l-143 -129q-27 31 -65 55q-96 55 -178 55q-138 0 -184 -22t-65 -44q-20 -21 -20 -53q-2 -117 264 -118h178v-176h-161q-147 0 -225 -27t-76 -92z" />
    <glyph glyph-name="u03B6" unicode="&#x3b6;" horiz-adv-x="1077" 
d="M799 -164q0 74 -56 108t-149 56q-498 120 -498 562q0 259 187 488q129 157 360 293h-498v203h877v-168q-147 -94 -272 -183q-260 -185 -359 -391q-51 -108 -51 -218t27 -170q53 -120 218 -189q83 -35 197 -69t187 -106q71 -71 71 -170q-1 -168 -124 -275
q-97 -88 -209 -119l-170 125q262 93 262 223z" />
    <glyph glyph-name="u03B7" unicode="&#x3b7;" horiz-adv-x="1243" 
d="M393 840h4q34 71 126 124q91 54 193 54q103 0 174 -33q142 -66 187 -218q23 -75 23 -157v-1102h-244v1037q0 193 -111 250q-41 20 -102 20q-106 0 -174 -78t-68 -213v-524h-245v737q0 132 -4 254h237q4 -74 4 -151z" />
    <glyph glyph-name="u03B8" unicode="&#x3b8;" horiz-adv-x="1302" 
d="M358 666q27 -498 297 -498q140 0 214 135t83 363h-594zM876 1212q-77 146 -220 146q-266 0 -298 -500h594q-9 229 -76 354zM655 1559q137 -1 241 -61q204 -119 272 -422q34 -146 34 -316q0 -556 -300 -734q-102 -60 -246 -60q-271 -1 -415 227q-130 206 -129 566t140 580
q138 220 403 220z" />
    <glyph glyph-name="u03B9" unicode="&#x3b9;" horiz-adv-x="536" 
d="M391 0h-246v991h246v-991z" />
    <glyph glyph-name="u03BA" unicode="&#x3ba;" horiz-adv-x="1177" 
d="M397 569h6l381 422h301l-434 -450l465 -541h-307l-406 496h-6v-496h-243v991h243v-422z" />
    <glyph glyph-name="u03BB" unicode="&#x3bb;" horiz-adv-x="1144" 
d="M213 1325q-67 0 -117 -45l-35 199q35 18 91 40q56 21 142 21q160 -1 241 -85q39 -42 67 -102t57 -139l471 -1214h-260l-286 778h-4l-287 -778h-260l422 1059l-31 80q-40 107 -62 134q-22 28 -52 40t-97 12z" />
    <glyph glyph-name="u03BC" unicode="&#x3bc;" horiz-adv-x="1267" 
d="M391 135v-627h-239v1483h245v-506q-1 -163 51 -231t170 -68q244 0 244 318v487h244v-780q0 -78 10 -211h-248l-6 145h-4q-75 -168 -245 -169t-218 159h-4z" />
    <glyph glyph-name="u03BD" unicode="&#x3bd;" horiz-adv-x="1087" 
d="M678 0h-266l-398 991h273l258 -729h6l260 729h262z" />
    <glyph glyph-name="u03BE" unicode="&#x3be;" horiz-adv-x="1062" 
d="M379 1094q0 -221 344 -226h203v-237h-260q-142 -1 -228 -61t-86 -158q0 -70 27 -111t81 -67t133 -45t201 -53t176 -105q52 -72 52 -156q0 -143 -126 -257q-97 -86 -218 -118l-186 107q91 21 151 60q117 78 117 148t-52 114t-160 62q-108 19 -180 41q-158 49 -232 169
q-40 66 -40 163q0 96 38 164q106 188 407 224q-422 46 -422 313q0 189 200 253q59 19 125 32v10h-43l-149 -2h-129v186h815v-180q-309 -22 -423 -71q-136 -59 -136 -199z" />
    <glyph glyph-name="u03BF" unicode="&#x3bf;" horiz-adv-x="1275" 
d="M855 725q-81 94 -218 93q-136 -1 -216 -94q-81 -93 -81 -227q0 -133 81 -226t216 -93q136 0 218 93q81 93 81 227t-81 227zM96 498q0 117 42 213q85 195 286 271q98 38 213 38q231 0 387 -146t156 -376t-155 -379q-155 -148 -387 -148q-233 0 -387 148q-155 149 -155 379
z" />
    <glyph glyph-name="u03C0" unicode="&#x3c0;" horiz-adv-x="1222" 
d="M397 0h-245v991h919v-991h-246v797h-428v-797z" />
    <glyph glyph-name="u03C1" unicode="&#x3c1;" horiz-adv-x="1323" 
d="M987 497q0 143 -79 232q-79 88 -215 87t-220 -92t-84 -229q0 -139 85 -232q83 -87 214 -87q74 0 129 25q170 77 170 296zM395 -492h-239v971q0 250 153 395q153 146 386 146q232 0 382 -150t150 -378t-150 -373q-150 -146 -377 -146q-96 0 -175 34t-124 87h-6v-586z" />
    <glyph glyph-name="u03C2" unicode="&#x3c2;" horiz-adv-x="1077" 
d="M752 -164q0 107 -125 142q-33 10 -64 16t-78 18q-389 100 -389 490q0 112 43 212q85 197 287 270q96 36 179 36q299 0 423 -164l-151 -158q-31 47 -91 83t-136 36q-218 0 -288 -180q-22 -59 -22 -140q1 -148 100 -227q63 -49 211 -83t215 -82q66 -48 98 -103t32 -137
q-1 -149 -125 -258q-97 -88 -209 -119l-173 125q263 94 263 223z" />
    <glyph glyph-name="u03C3" unicode="&#x3c3;" horiz-adv-x="1325" 
d="M930 494q0 136 -84 231q-84 94 -218 93q-133 -1 -217 -94q-85 -93 -84 -229q1 -135 83 -227q83 -92 218 -92t218 91q84 91 84 227zM1063 788q100 -114 100 -328q0 -82 -40 -176q-41 -94 -111 -165q-70 -70 -168 -110t-215 -40t-214 40t-168 111q-151 151 -151 378
t152 376q152 148 381 148q72 0 175 -14t185 -13h324v-200h-250v-7z" />
    <glyph glyph-name="u03C4" unicode="&#x3c4;" horiz-adv-x="966" 
d="M12 991h944v-194h-350v-797h-246v797h-348v194z" />
    <glyph glyph-name="u03C5" unicode="&#x3c5;" horiz-adv-x="1226" 
d="M1079 408q-1 -292 -253 -398q-90 -38 -217 -37q-242 0 -360 136q-104 117 -104 299v583h246v-538q0 -191 115 -250q43 -23 106 -23q116 0 169 75t55 198v538h243v-583z" />
    <glyph glyph-name="u03C6" unicode="&#x3c6;" horiz-adv-x="1697" 
d="M96 492q0 313 260 457q72 40 144 63l104 -178q-174 -50 -240 -201q-24 -53 -24 -130q0 -152 108 -233t302 -88v815h301q235 0 391 -133q157 -133 157 -372t-196 -386q-175 -131 -426 -131v-467h-227v467q-454 7 -602 293q-52 100 -52 224zM977 795v-613q175 2 277 84
t102 237t-112 232q-84 57 -206 60h-61z" />
    <glyph glyph-name="u03C7" unicode="&#x3c7;" horiz-adv-x="1189" 
d="M319 991l279 -518l279 518h260l-387 -700l428 -780h-267l-317 602l-315 -602h-267l428 784l-387 696h266z" />
    <glyph glyph-name="u03C8" unicode="&#x3c8;" horiz-adv-x="1693" 
d="M1317 584v407h246v-471q0 -270 -167 -412t-425 -147v-453h-246v453q-255 4 -424 147q-168 142 -168 412v471h244v-407q0 -203 89 -298t259 -106v811h246v-811q168 10 257 106t89 298z" />
    <glyph glyph-name="u03C9" unicode="&#x3c9;" horiz-adv-x="1662" 
d="M954 487q0 -299 190 -299q89 0 140 78t51 222t-69 231q-69 86 -217 141l141 150q268 -102 355 -347q32 -91 32 -204t-28 -200q-91 -281 -401 -279q-114 0 -201 68t-111 198h-9q-29 -139 -118 -203q-90 -63 -211 -63q-194 0 -302 126t-108 351q0 226 117 371
q89 113 268 182l145 -150q-154 -60 -221 -145q-67 -84 -67 -227q0 -144 50 -223t137 -79t139 70t53 231v179h245v-179z" />
    <glyph glyph-name="u03CA" unicode="&#x3ca;" horiz-adv-x="563" 
d="M356 1336q0 54 40 96t100 43q60 0 99 -41q40 -42 40 -98t-40 -97t-99 -41t-100 42q-40 42 -40 96zM-66 1336q0 54 40 96t100 43q60 0 100 -41q41 -42 41 -98t-41 -97t-100 -41t-100 42q-40 42 -40 96zM403 0h-245v991h245v-991z" />
    <glyph glyph-name="u03CB" unicode="&#x3cb;" horiz-adv-x="1228" 
d="M207 991h244v-538q0 -190 114 -250q43 -23 107 -23q114 0 168 76q55 76 55 197v538h246v-583q0 -181 -108 -299q-125 -136 -364 -136t-351 127q-113 127 -111 308v583zM737 1336q0 54 40 96q39 42 99 43q60 0 100 -41q40 -42 40 -98t-40 -97t-99 -41t-100 42
q-40 42 -40 96zM315 1336q0 54 40 96q39 42 99 43q60 0 101 -41q41 -42 41 -98t-41 -97t-100 -41t-100 42q-40 42 -40 96z" />
    <glyph glyph-name="u03CC" unicode="&#x3cc;" horiz-adv-x="1275" 
d="M535 1532h202l-20 -410h-160zM855 725q-81 94 -218 93q-136 -1 -216 -94q-81 -93 -81 -227q0 -133 81 -226t216 -93q136 0 218 93q81 93 81 227t-81 227zM96 498q0 117 42 213q85 195 286 271q98 38 213 38q231 0 387 -146t156 -376t-155 -379q-155 -148 -387 -148
q-233 0 -387 148q-155 149 -155 379z" />
    <glyph glyph-name="u03CD" unicode="&#x3cd;" horiz-adv-x="1228" 
d="M147 408v583h246v-538q0 -190 114 -250q42 -23 105 -23q116 0 169 75t55 198v538h245v-583q0 -182 -107 -299q-125 -136 -365 -136t-358 136q-104 117 -104 299zM512 1524h205l-21 -410h-161z" />
    <glyph glyph-name="u03CE" unicode="&#x3ce;" horiz-adv-x="1662" 
d="M954 487q0 -299 190 -299q89 0 140 78t51 222t-69 231q-69 86 -217 141l141 150q268 -102 355 -347q32 -91 32 -204t-28 -200q-91 -281 -401 -279q-114 0 -201 68t-111 198h-9q-29 -139 -118 -203q-90 -63 -211 -63q-194 0 -302 126t-108 351q0 226 117 371
q89 113 268 182l145 -150q-154 -60 -221 -145q-67 -84 -67 -227q0 -144 50 -223t137 -79t139 70t53 231v179h245v-179zM932 1524l-21 -410h-161l-23 410h205z" />
    <glyph glyph-name="u0401" unicode="&#x401;" horiz-adv-x="1228" 
d="M856 1599q-59 -1 -99 41t-40 97t40 97t99 42t100 -41t41 -97t-41 -98t-100 -41zM434 1599q-60 -1 -99 41q-40 42 -40 97t40 97t99 42q58 0 100 -41t42 -97t-41 -98q-41 -41 -101 -41zM420 221h721v-221h-971v1450h940v-221h-690v-377h647v-211h-647v-420z" />
    <glyph glyph-name="u0402" unicode="&#x402;" horiz-adv-x="1480" 
d="M840 723h-199v-723h-256v1229h-369v221h1096v-221h-471v-283h223q259 0 396 -127t137 -340t-133 -344q-141 -135 -394 -135h-63v217h76q111 0 183 66t73 182q0 258 -299 258z" />
    <glyph glyph-name="u0403" unicode="&#x403;" horiz-adv-x="1093" 
d="M428 0h-258v1450h870v-225h-612v-1225zM944 1860l-287 -295h-192l209 295h270z" />
    <glyph glyph-name="u0404" unicode="&#x404;" horiz-adv-x="1462" 
d="M873 1487q173 0 311 -56t215 -163l-176 -181q-47 72 -135 121t-200 49q-305 0 -444 -244q-43 -77 -59 -171h760v-207h-764q27 -200 166 -322q139 -120 325 -118q232 0 377 180l170 -152q-128 -181 -367 -239q-84 -20 -218 -20t-276 56q-288 116 -404 400q-57 139 -58 305
q0 166 58 305q116 282 405 400q141 57 314 57z" />
    <glyph glyph-name="u0405" unicode="&#x405;" horiz-adv-x="1185" 
d="M650 1274q-122 0 -199 -53q-76 -53 -75 -151t78 -145q36 -24 85 -41t115 -39q66 -21 143 -51q78 -30 141 -78q145 -110 145 -300q0 -222 -152 -337q-152 -116 -364 -116q-145 0 -280 53t-224 158l183 170q51 -72 137 -119t184 -47q166 0 234 118q23 40 23 96
q-1 102 -93 162q-59 38 -181 77t-190 69q-241 105 -241 357q0 211 166 328q145 102 350 102q135 0 252 -49t192 -129l-174 -170q-45 61 -118 98t-137 37z" />
    <glyph glyph-name="u0406" unicode="&#x406;" horiz-adv-x="595" 
d="M428 0h-258v1450h258v-1450z" />
    <glyph glyph-name="u0407" unicode="&#x407;" horiz-adv-x="620" 
d="M526 1876q58 0 100 -41t42 -97t-41 -98t-101 -41q-60 -1 -99 41q-40 42 -40 97t40 97t99 42zM104 1876q58 0 100 -41t42 -97t-41 -98t-101 -41q-60 -1 -99 41q-40 42 -40 97t40 97t99 42zM444 0h-258v1450h258v-1450z" />
    <glyph glyph-name="u0408" unicode="&#x408;" horiz-adv-x="1048" 
d="M428 193q169 0 195 165q8 49 8 105v987h258v-989q0 -330 -216 -452q-85 -48 -195 -48q-279 0 -403 192q-38 58 -55 128l230 73q16 -70 64 -116t114 -45z" />
    <glyph glyph-name="u0409" unicode="&#x409;" horiz-adv-x="1988" 
d="M1319 659h-154l178 -444q230 0 305 112q28 41 28 109q-1 183 -221 214q-65 9 -136 9zM1325 874q437 0 565 -242q45 -85 45 -208q-1 -200 -157 -312t-437 -112h-192l-434 1155l-434 -1155h-273l588 1450h250l235 -576h244z" />
    <glyph glyph-name="u040A" unicode="&#x40a;" horiz-adv-x="2088" 
d="M1444 221q295 0 295 217q0 117 -82 168t-215 51h-187v-436h189zM426 1450v-576h573v576h256v-576h205q238 0 388 -112q149 -112 149 -326t-145 -325t-388 -111h-465v653h-573v-653h-256v1450h256z" />
    <glyph glyph-name="u040B" unicode="&#x40b;" horiz-adv-x="1497" 
d="M911 944q480 0 480 -536v-408h-258v326q0 212 -57 296q-69 101 -253 101h-182v-723h-256v1229h-369v221h1096v-221h-471v-285h270z" />
    <glyph glyph-name="u040C" unicode="&#x40c;" horiz-adv-x="1439" 
d="M805 1565h-193l209 295h269zM426 883q72 0 158 -11l491 578h281l-518 -637q219 -86 351 -283t189 -530h-280q-68 357 -220 513q-153 157 -452 149v-662h-256v1450h256v-567z" />
    <glyph glyph-name="u040E" unicode="&#x40e;" horiz-adv-x="1331" 
d="M675 1716q81 0 145 45t93 113l146 -76q-37 -98 -140 -165q-103 -68 -245 -68q-210 0 -333 144q-36 42 -54 89l145 76q30 -68 96 -113t147 -45zM217 250q76 -66 142 -66q67 0 110 36t82 106l-528 1124h284l379 -827l367 827h280l-522 -1135q-78 -169 -185 -259
q-107 -89 -282 -89t-276 94z" />
    <glyph glyph-name="u040F" unicode="&#x40f;" horiz-adv-x="1492" 
d="M1069 221v1229h256v-1450h-451v-285h-223v285h-481v1450h256v-1229h643z" />
    <glyph glyph-name="u0410" unicode="&#x410;" horiz-adv-x="1466" 
d="M483 543h492l-244 622zM274 0h-280l616 1450h250l613 -1450h-287l-133 330h-650z" />
    <glyph glyph-name="u0411" unicode="&#x411;" horiz-adv-x="1316" 
d="M170 0v1450h938v-221h-682v-355h242q377 0 492 -241q40 -82 40 -194q0 -215 -152 -327t-386 -112h-492zM643 221q133 0 217 54t84 164t-81 162t-216 52h-221v-432h217z" />
    <glyph glyph-name="u0412" unicode="&#x412;" horiz-adv-x="1335" 
d="M420 211h231q214 0 290 117q28 43 28 106q0 117 -82 167t-223 50h-244v-440zM420 846h237q175 0 234 109q20 38 20 94q0 102 -77 147q-78 45 -203 45h-211v-395zM170 1450h510q322 0 437 -190q44 -72 44 -186q1 -114 -67 -196t-179 -112v-4q136 -21 224 -112t88 -238
q0 -203 -154 -307q-154 -105 -393 -105h-510v1450z" />
    <glyph glyph-name="u0413" unicode="&#x413;" horiz-adv-x="1093" 
d="M428 0h-258v1450h870v-225h-612v-1225z" />
    <glyph glyph-name="u0414" unicode="&#x414;" horiz-adv-x="1601" 
d="M475 221h639l-319 942zM217 0v-285h-223v506h219l463 1229h250l458 -1229h224v-506h-224v285h-1167z" />
    <glyph glyph-name="u0415" unicode="&#x415;" horiz-adv-x="1228" 
d="M420 221h721v-221h-971v1450h940v-221h-690v-377h647v-211h-647v-420z" />
    <glyph glyph-name="u0416" unicode="&#x416;" horiz-adv-x="2039" 
d="M893 1450h256v-573q78 0 151 -13l396 586h280l-438 -666q367 -190 438 -784h-280q-57 471 -334 610q-94 47 -213 45v-655h-256v655q-233 4 -371 -170t-178 -485h-281q69 594 437 784l-437 666h281l395 -586q74 12 154 13v573z" />
    <glyph glyph-name="u0417" unicode="&#x417;" horiz-adv-x="1273" 
d="M385 846h147q141 0 224 53q82 53 82 157t-67 160t-167 56q-194 0 -256 -185l-221 95q59 145 184 225t320 80t335 -102t140 -295q0 -121 -94 -220q-76 -76 -193 -104v-4q227 -25 314 -196q33 -64 33 -162q-1 -195 -160 -318t-379 -123q-219 0 -357 97q-124 90 -180 249
l227 86q41 -105 113 -161t200 -56t202 62t73 181q0 234 -383 234h-137v191z" />
    <glyph glyph-name="u0418" unicode="&#x418;" horiz-adv-x="1611" 
d="M1442 1450v-1450h-256v1090h-4l-715 -1090h-297v1450h256v-1090h4l713 1090h299z" />
    <glyph glyph-name="u0419" unicode="&#x419;" horiz-adv-x="1609" 
d="M1440 1450v-1450h-256l2 1085h-6l-703 -1085h-307v1450h256l-2 -1079h6l700 1079h310zM806 1716q82 0 146 45t92 113l146 -76q-37 -98 -140 -165q-103 -68 -245 -68q-210 0 -333 144q-36 42 -54 89l145 76q29 -68 95 -113t148 -45z" />
    <glyph glyph-name="u041A" unicode="&#x41a;" horiz-adv-x="1439" 
d="M426 883q72 0 158 -11l491 578h281l-518 -637q219 -86 351 -283t189 -530h-280q-68 357 -220 513q-153 157 -452 149v-662h-256v1450h256v-567z" />
    <glyph glyph-name="u041B" unicode="&#x41b;" horiz-adv-x="1417" 
d="M270 0h-276l592 1450h260l598 -1450h-283l-444 1104z" />
    <glyph glyph-name="u041C" unicode="&#x41c;" horiz-adv-x="1890" 
d="M1722 1450v-1450h-254l5 1133h-5l-444 -1133h-168l-440 1133h-4l4 -1133h-246v1450h371l405 -1055h4l396 1055h376z" />
    <glyph glyph-name="u041D" unicode="&#x41d;" horiz-adv-x="1521" 
d="M170 1450h256v-586h670v586h256v-1450h-256v643h-670v-643h-256v1450z" />
    <glyph glyph-name="u041E" unicode="&#x41e;" horiz-adv-x="1742" 
d="M1370 728q0 224 -139 377q-139 152 -359 152q-221 0 -361 -151t-140 -377t138 -380t361 -154t364 155q65 72 100 170q36 98 36 208zM1645 729q0 -334 -219 -551t-554 -217t-555 215q-219 215 -221 553q0 170 59 310q116 280 408 395q141 55 307 55t308 -55
q289 -111 408 -395q59 -140 59 -310z" />
    <glyph glyph-name="u041F" unicode="&#x41f;" horiz-adv-x="1482" 
d="M1313 1450v-1450h-256v1229h-631v-1229h-256v1450h1143z" />
    <glyph glyph-name="u0420" unicode="&#x420;" horiz-adv-x="1253" 
d="M920 1030q0 209 -295 209h-199v-426h195q216 0 277 119q22 41 22 98zM170 1450h475q378 0 493 -228q40 -79 40 -192q0 -215 -149 -320q-149 -104 -390 -104h-213v-606h-256v1450z" />
    <glyph glyph-name="u0421" unicode="&#x421;" horiz-adv-x="1447" 
d="M878 -39q-347 0 -563 214q-102 101 -160 243q-59 142 -59 310q0 169 60 309q120 284 407 397q141 55 302 55t305 -58t229 -163l-185 -170q-47 70 -137 114q-91 44 -203 45q-218 0 -358 -152q-141 -152 -141 -378t137 -379t362 -153q113 0 207 46t154 132l184 -158
q-86 -111 -224 -183q-139 -72 -317 -71z" />
    <glyph glyph-name="u0422" unicode="&#x422;" horiz-adv-x="1179" 
d="M719 0h-258v1229h-445v221h1147v-221h-444v-1229z" />
    <glyph glyph-name="u0423" unicode="&#x423;" horiz-adv-x="1331" 
d="M217 250q76 -66 142 -66q67 0 110 36t82 106l-528 1124h284l379 -827l367 827h280l-522 -1135q-78 -169 -185 -259q-107 -89 -282 -89t-276 94z" />
    <glyph glyph-name="u0424" unicode="&#x424;" horiz-adv-x="1839" 
d="M1475 725q0 180 -113 305t-318 158v-926q202 27 317 155q114 128 114 308zM365 724q0 -276 248 -408q81 -42 186 -56v928q-206 -28 -320 -155t-114 -309zM1044 -127h-245v154q-318 33 -513 224q-194 191 -194 476q0 284 195 471q195 188 512 221v144h245v-144
q313 -33 509 -221t196 -475q0 -286 -198 -475t-507 -221v-154z" />
    <glyph glyph-name="u0425" unicode="&#x425;" horiz-adv-x="1388" 
d="M694 938l326 512h301l-469 -686l528 -764h-319l-375 578l-367 -578h-311l520 764l-475 686h312z" />
    <glyph glyph-name="u0426" unicode="&#x426;" horiz-adv-x="1546" 
d="M170 0v1450h256v-1229h643v1229h256v-1229h166v-506h-223v285h-1098z" />
    <glyph glyph-name="u0427" unicode="&#x427;" horiz-adv-x="1329" 
d="M905 1450h256v-1450h-254v592h-305q-247 0 -370 137t-121 383v338h256v-264q-1 -199 57 -286t215 -87h266v637z" />
    <glyph glyph-name="u0428" unicode="&#x428;" horiz-adv-x="2045" 
d="M901 221v1229h256v-1229h463v1229h256v-1450h-1706v1450h256v-1229h475z" />
    <glyph glyph-name="u0429" unicode="&#x429;" horiz-adv-x="2144" 
d="M170 0v1450h256v-1229h475v1229h256v-1229h467v1229h254v-1229h211v-506h-223v285h-1696z" />
    <glyph glyph-name="u042A" unicode="&#x42a;" horiz-adv-x="1445" 
d="M635 219h174q151 0 219 67t68 167t-70 160t-217 61h-174v-455zM635 1450v-557h166q246 0 399 -107q154 -107 154 -325t-167 -340q-167 -121 -431 -121h-375v1229h-365v221h619z" />
    <glyph glyph-name="u042B" unicode="&#x42b;" horiz-adv-x="1687" 
d="M1518 1450v-1450h-256v1450h256zM600 219q285 0 285 222q0 108 -69 170t-216 63h-174v-455h174zM426 1450v-557h164q246 0 400 -111t155 -330q0 -218 -157 -335t-402 -117h-416v1450h256z" />
    <glyph glyph-name="u042C" unicode="&#x42c;" horiz-adv-x="1259" 
d="M426 674v-455h197q151 0 219 65t68 168t-70 162t-217 60h-197zM170 1450h256v-557h188q251 0 402 -110t151 -325t-156 -336q-156 -122 -403 -122h-438v1450z" />
    <glyph glyph-name="u042D" unicode="&#x42d;" horiz-adv-x="1466" 
d="M322 635v207h768q-33 196 -163 306t-324 110t-320 -117q-35 -33 -56 -66l-159 168q78 106 223 175t327 69q350 0 550 -213t200 -548q0 -334 -212 -548q-212 -215 -550 -215q-197 -1 -341 69t-222 181l170 154q140 -174 399 -172q190 0 323 120t159 320h-772z" />
    <glyph glyph-name="u042E" unicode="&#x42e;" horiz-adv-x="2308" 
d="M938 729q0 -226 138 -380t362 -154t362 154q139 154 138 378t-139 377t-360 153t-361 -151q-140 -151 -140 -377zM426 1450v-610h244q32 285 245 467t535 182q323 0 542 -210q218 -210 219 -546q1 -337 -219 -557q-104 -102 -246 -158t-302 -57q-313 0 -528 183
q-214 185 -246 472h-244v-616h-256v1450h256z" />
    <glyph glyph-name="u042F" unicode="&#x42f;" horiz-adv-x="1368" 
d="M713 1450h485v-1450h-256v596h-143q-195 0 -318 -141q-125 -148 -157 -455h-279q15 245 124 427t271 259v4q-147 25 -236 110t-89 230q-1 204 155 312t443 108zM737 1229q-350 -1 -350 -201q0 -212 350 -211h205v412h-205z" />
    <glyph glyph-name="u0430" unicode="&#x430;" horiz-adv-x="1128" 
d="M717 461q-174 1 -248 -23q-75 -24 -111 -58t-36 -82t16 -75q43 -73 166 -73q122 0 188 74t66 186v51h-41zM88 283q0 201 212 276q149 55 454 55v25q0 98 -60 145t-157 47q-156 0 -269 -108l-127 141q76 72 186 114t232 42q403 0 422 -381q4 -58 4 -117v-313
q0 -115 8 -209h-225q-6 93 -6 131h-4q-106 -156 -318 -156q-133 1 -243 77q-109 76 -109 231z" />
    <glyph glyph-name="u0431" unicode="&#x431;" horiz-adv-x="1259" 
d="M352 490q0 -142 79 -229t209 -87t207 88t77 218t-79 217t-202 86q-124 -1 -208 -76q-83 -75 -83 -217zM679 985q95 0 185 -35q185 -72 259 -259q38 -93 38 -210q0 -230 -149 -370t-369 -140t-358 127t-162 355q-10 65 -10 159q12 440 179 638t527 198h305v-191h-309
q-309 0 -402 -226q-30 -73 -42 -163q109 117 308 117z" />
    <glyph glyph-name="u0432" unicode="&#x432;" horiz-adv-x="1153" 
d="M152 0v991h495q188 0 286 -71q97 -72 97 -205t-136 -184q-40 -15 -85 -27q187 -14 249 -134q22 -44 21 -106q0 -120 -106 -192t-301 -72h-520zM397 176h150q145 0 190 13q92 27 91 110t-84 109q-57 18 -197 18h-150v-250zM592 578q84 0 137 22t53 96q0 110 -157 117
q-47 2 -101 2h-127v-237h195z" />
    <glyph glyph-name="u0433" unicode="&#x433;" horiz-adv-x="845" 
d="M397 0h-245v991h661v-192h-416v-799z" />
    <glyph glyph-name="u0434" unicode="&#x434;" horiz-adv-x="1230" 
d="M580 635l-160 -438h391l-178 516zM217 -285h-211v482h160l317 794h279l295 -794h170v-482h-211v285h-799v-285z" />
    <glyph glyph-name="u0435" unicode="&#x435;" horiz-adv-x="1198" 
d="M627 -29q-227 0 -379 144t-152 378t150 381q150 146 370 146q221 0 354 -142q134 -142 134 -376v-35q0 -18 -2 -37h-766q4 -112 91 -188t190 -76q186 0 276 133l174 -117q-154 -209 -440 -211zM621 842q-118 0 -196 -72t-87 -178h532q-2 106 -66 178q-65 72 -183 72z" />
    <glyph glyph-name="u0436" unicode="&#x436;" horiz-adv-x="1757" 
d="M756 991h245v-375q59 -4 111 -14l258 389h272l-323 -469q139 -72 227 -200t137 -322h-272q-48 221 -154 319q-94 90 -256 103v-422h-245v422q-166 -13 -264 -108t-146 -314h-272q47 193 135 322t229 200l-323 469h272l258 -389q47 10 111 14v375z" />
    <glyph glyph-name="u0437" unicode="&#x437;" horiz-adv-x="985" 
d="M428 582q211 0 211 120q0 56 -50 102q-49 46 -135 46t-130 -22q-84 -43 -119 -115l-152 108q71 127 230 181q74 26 176 26q200 0 305 -81q106 -81 104 -202q0 -144 -133 -209q-39 -19 -78 -28v-6q165 -15 231 -134q24 -44 24 -112q-1 -138 -124 -212q-122 -75 -343 -76
t-362 130q-28 27 -40 37l131 141q10 -8 32 -27q110 -95 228 -95t177 36t59 100t-64 97t-168 33h-147v162h137z" />
    <glyph glyph-name="u0438" unicode="&#x438;" horiz-adv-x="1310" 
d="M152 0v991h247v-661l512 661h248v-991h-248v678l-512 -678h-247z" />
    <glyph glyph-name="u0439" unicode="&#x439;" horiz-adv-x="1310" 
d="M666 1321q74 0 132 40t83 101l131 -67q-33 -89 -128 -150t-218 -61q-190 0 -299 130q-33 38 -48 81l132 67q25 -61 83 -101t132 -40zM911 0v678l-512 -678h-247v991h247v-661l512 661h248v-991h-248z" />
    <glyph glyph-name="u043A" unicode="&#x43a;" horiz-adv-x="1167" 
d="M397 610q63 0 119 -12l285 393h270l-344 -465q147 -72 231 -202t134 -324h-271q-49 228 -150 318t-274 98v-416h-245v991h245v-381z" />
    <glyph glyph-name="u043B" unicode="&#x43b;" horiz-adv-x="1122" 
d="M831 0l-262 698l-276 -698h-262l405 991h275l383 -991h-263z" />
    <glyph glyph-name="u043C" unicode="&#x43c;" horiz-adv-x="1476" 
d="M1325 991v-991h-246v647l-311 -405h-57l-314 399v-641h-245v991h215l374 -448l369 448h215z" />
    <glyph glyph-name="u043D" unicode="&#x43d;" horiz-adv-x="1230" 
d="M397 0h-245v991h245v-381h437v381h245v-991h-245v418h-437v-418z" />
    <glyph glyph-name="u043E" unicode="&#x43e;" horiz-adv-x="1275" 
d="M855 725q-81 94 -218 93q-136 -1 -216 -94q-81 -93 -81 -227q0 -133 81 -226t216 -93q136 0 218 93q81 93 81 227t-81 227zM96 498q0 117 42 213q85 195 286 271q98 38 213 38q231 0 387 -146t156 -376t-155 -379q-155 -148 -387 -148q-233 0 -387 148q-155 149 -155 379
z" />
    <glyph glyph-name="u043F" unicode="&#x43f;" horiz-adv-x="1214" 
d="M397 0h-245v991h911v-991h-246v797h-420v-797z" />
    <glyph glyph-name="u0440" unicode="&#x440;" horiz-adv-x="1325" 
d="M470 272q87 -94 222 -94t214 93t79 228t-79 227t-214 92q-136 -1 -220 -94q-85 -93 -85 -226q0 -132 83 -226zM401 -492h-245v1483h235v-143h6q53 78 143 124t202 46q217 0 352 -151t135 -370q0 -218 -134 -371t-356 -153q-98 0 -189 42t-144 120h-5v-627z" />
    <glyph glyph-name="u0441" unicode="&#x441;" horiz-adv-x="1028" 
d="M1012 119q-137 -148 -373 -148t-390 145q-153 145 -153 378t152 379q152 147 391 147q103 0 205 -39t164 -111l-156 -157q-31 47 -88 75t-123 27t-120 -25q-108 -49 -151 -168q-22 -58 -22 -125q0 -137 82 -228t218 -91t214 98z" />
    <glyph glyph-name="u0442" unicode="&#x442;" horiz-adv-x="937" 
d="M31 991h876v-194h-321v-797h-246v797h-309v194z" />
    <glyph glyph-name="u0443" unicode="&#x443;" horiz-adv-x="1087" 
d="M379 -465q-63 -27 -146 -27t-163 19l26 211q49 -17 115 -18q67 -1 103 39t65 114l53 137l-418 981h273l272 -725h6l246 725h262l-438 -1118q-78 -193 -135 -252q-58 -59 -121 -86z" />
    <glyph glyph-name="u0444" unicode="&#x444;" horiz-adv-x="1456" 
d="M334 496q0 -223 159 -298q52 -26 119 -28v649q-135 -4 -206 -94q-72 -90 -72 -229zM964 198q158 79 158 295t-158 298q-52 27 -122 28v-649q70 2 122 28zM842 -496h-230v471q-221 4 -369 154q-147 150 -147 369q0 220 147 367t369 151v532h230v-532q228 -4 372 -153
t144 -371q0 -221 -146 -367t-370 -150v-471z" />
    <glyph glyph-name="u0445" unicode="&#x445;" horiz-adv-x="1112" 
d="M406 516l-363 475h293l223 -315l225 315h283l-358 -471l393 -520h-297l-250 352l-256 -352h-287z" />
    <glyph glyph-name="u0446" unicode="&#x446;" horiz-adv-x="1241" 
d="M152 0v991h245v-792h414v792h246v-792h160v-484h-211v285h-854z" />
    <glyph glyph-name="u0447" unicode="&#x447;" horiz-adv-x="1155" 
d="M92 991h246v-137q0 -90 5 -156q10 -127 97 -167q45 -19 125 -19h193v479h246v-991h-246v297l-219 2q-255 0 -358 117q-87 99 -89 327v248z" />
    <glyph glyph-name="u0448" unicode="&#x448;" horiz-adv-x="1730" 
d="M152 0v991h245v-796h344v796h246v-796h346v796h244v-991h-1425z" />
    <glyph glyph-name="u0449" unicode="&#x449;" horiz-adv-x="1722" 
d="M152 0v991h245v-796h324v796h244v-796h325v796h246v-796h162v-480h-213v285h-1333z" />
    <glyph glyph-name="u044A" unicode="&#x44a;" horiz-adv-x="1226" 
d="M541 178h164q92 0 148 34t56 126t-59 124t-152 32h-157v-316zM541 991v-319h209q309 0 379 -203q22 -61 22 -132q0 -145 -98 -239q-107 -98 -295 -98h-463v797h-264v194h510z" />
    <glyph glyph-name="u044B" unicode="&#x44b;" horiz-adv-x="1515" 
d="M1364 991v-991h-246v991h246zM397 178h168q92 0 149 34q56 34 56 126t-59 124t-152 32h-162v-316zM1014 338q0 -338 -473 -338h-389v991h245v-319h152q365 0 440 -190q25 -62 25 -144z" />
    <glyph glyph-name="u044C" unicode="&#x44c;" horiz-adv-x="1107" 
d="M397 178h187q92 0 149 34t58 126q0 124 -128 148q-38 7 -83 8h-183v-316zM397 991v-319h232q311 0 384 -203q49 -135 -4 -264q-54 -127 -200 -178q-74 -27 -172 -27h-485v991h245z" />
    <glyph glyph-name="u044D" unicode="&#x44d;" horiz-adv-x="1132" 
d="M494 1022q144 0 240 -40q198 -82 267 -276q35 -97 35 -210q0 -225 -151 -375t-379 -150q-273 0 -432 211l166 135q36 -57 104 -101t176 -44t186 70q77 70 89 186h-461v160h461q-18 100 -90 167t-195 66q-178 0 -264 -145l-162 139q58 83 162 145t248 62z" />
    <glyph glyph-name="u044E" unicode="&#x44e;" horiz-adv-x="1728" 
d="M1389 498q-1 64 -21 122q-42 120 -154 172q-54 26 -124 26q-135 -1 -216 -94q-81 -92 -81 -225t80 -227t215 -94t218 93t83 227zM397 428v-428h-245v991h245v-368h166q40 179 186 288q147 109 359 109t367 -146t155 -375q0 -230 -154 -379t-377 -149q-222 0 -372 127
t-174 330h-156z" />
    <glyph glyph-name="u044F" unicode="&#x44f;" horiz-adv-x="1093" 
d="M571 784q-111 0 -164 -21t-53 -96t58 -95t161 -21h154v233h-156zM614 354q-126 0 -194 -80t-92 -274h-271q29 196 111 306t186 140v7q-102 10 -171 69t-69 199t122 211q98 59 280 59h457v-991h-246v354h-113z" />
    <glyph glyph-name="u0451" unicode="&#x451;" horiz-adv-x="1171" 
d="M717 1336q0 54 41 96t100 43q59 0 99 -41q40 -42 40 -98t-40 -97t-99 -41t-100 42t-41 96zM295 1336q0 54 41 96t100 43q58 0 100 -41q42 -42 42 -98t-41 -97t-101 -41t-100 42q-41 42 -41 96zM645 -29q-227 0 -378 143q-152 143 -152 378q0 234 149 381t371 147
t354 -142q133 -142 133 -376v-35q0 -18 -2 -37h-766q4 -110 91 -187t191 -77q188 0 275 133l174 -117q-154 -209 -440 -211zM639 842q-118 0 -196 -72t-87 -178h535q-4 106 -69 178t-183 72z" />
    <glyph glyph-name="u0452" unicode="&#x452;" horiz-adv-x="1243" 
d="M844 49v481q0 152 -48 218t-152 66t-168 -78q-65 -77 -64 -224v-512h-246v1171h-176v148h176v229h246v-229h340v-148h-340v-323h4q41 84 125 127t182 43q185 0 276 -117t91 -303v-582q0 -208 -112 -327t-308 -119q-139 0 -254 80l106 153q63 -38 127 -39q104 0 150 71
q45 71 45 214z" />
    <glyph glyph-name="u0453" unicode="&#x453;" horiz-adv-x="864" 
d="M547 1137h-193l209 295h268zM395 0h-243v991h659v-192h-416v-799z" />
    <glyph glyph-name="u0454" unicode="&#x454;" horiz-adv-x="1153" 
d="M629 821q-121 -1 -194 -67t-89 -166h459v-160h-461q14 -116 94 -186t190 -70q182 0 271 145l168 -135q-164 -211 -440 -211q-230 0 -377 149q-146 149 -146 380t140 376q140 146 381 146q165 0 269 -60t163 -147l-162 -139q-86 145 -266 145z" />
    <glyph glyph-name="u0455" unicode="&#x455;" horiz-adv-x="989" 
d="M650 804q-58 32 -127 32t-103 -20q-61 -35 -61 -90q-1 -56 49 -84t138 -46q168 -34 257 -106q90 -72 90 -195q0 -163 -128 -252q-100 -70 -245 -71q-297 -2 -442 169l153 146q41 -55 110 -93t144 -38t110 21q62 38 62 101q0 62 -60 92t-144 50q-85 20 -135 38
q-188 69 -187 251q0 153 123 238q102 71 237 72q274 2 402 -155l-150 -139q-35 47 -93 79z" />
    <glyph glyph-name="u0456" unicode="&#x456;" horiz-adv-x="563" 
d="M133 1337q0 59 44 103q45 44 105 43t104 -43t44 -104t-44 -103t-104 -41t-105 43q-44 43 -44 102zM403 0h-245v991h245v-991z" />
    <glyph glyph-name="u0457" unicode="&#x457;" horiz-adv-x="563" 
d="M356 1336q0 54 40 96t100 43q60 0 99 -41q40 -42 40 -98t-40 -97t-99 -41t-100 42q-40 42 -40 96zM-66 1336q0 54 40 96t100 43q60 0 100 -41q41 -42 41 -98t-41 -97t-100 -41t-100 42q-40 42 -40 96zM403 0h-245v991h245v-991z" />
    <glyph glyph-name="u0458" unicode="&#x458;" horiz-adv-x="567" 
d="M137 1337q0 59 44 103q45 44 105 43t104 -43t44 -104t-44 -103t-104 -41t-105 43q-44 43 -44 102zM40 -283q81 0 105 76q19 55 19 180v1018h244v-1028q0 -211 -54 -310q-78 -145 -291 -145q-72 0 -129 17l21 205q43 -13 85 -13z" />
    <glyph glyph-name="u0459" unicode="&#x459;" horiz-adv-x="1521" 
d="M1012 178q113 0 164 38t51 122t-50 120t-167 36h-160l113 -316h49zM1065 672q217 0 319 -102q87 -85 88 -238q1 -154 -109 -243t-302 -89h-283l-235 698l-250 -698h-248l369 991h264l113 -319h274z" />
    <glyph glyph-name="u045A" unicode="&#x45a;" horiz-adv-x="1775" 
d="M1087 178h164q92 0 150 29q57 29 57 109t-60 111q-60 30 -153 30h-158v-279zM397 991v-356h445v356h245v-356h209q204 0 314 -94q92 -81 92 -219t-101 -228q-109 -94 -296 -94h-463v442h-445v-442h-245v991h245z" />
    <glyph glyph-name="u045B" unicode="&#x45b;" horiz-adv-x="1236" 
d="M718 1018q187 0 286 -121q84 -102 86 -287v-610h-246v543q0 195 -103 250q-39 20 -98 20q-98 0 -165 -76t-66 -213v-524h-246v1171h-176v148h176v229h246v-229h340v-148h-340v-321h4q35 72 118 120t184 48z" />
    <glyph glyph-name="u045C" unicode="&#x45c;" horiz-adv-x="1167" 
d="M659 1137h-192l209 295h270zM397 610q63 0 119 -12l285 393h270l-344 -465q147 -72 231 -202t134 -324h-271q-49 228 -150 318t-274 98v-416h-245v991h245v-381z" />
    <glyph glyph-name="u045E" unicode="&#x45e;" horiz-adv-x="1087" 
d="M379 -465q-63 -27 -146 -27t-163 19l26 211q49 -17 115 -18q67 -1 103 39t65 114l53 137l-418 981h273l272 -725h6l246 725h262l-438 -1118q-78 -193 -135 -252q-58 -59 -121 -86zM543 1321q74 0 132 40t83 101l131 -67q-33 -89 -128 -150t-218 -61q-186 0 -299 130
q-33 38 -47 81l131 67q25 -61 83 -101t132 -40z" />
    <glyph glyph-name="u045F" unicode="&#x45f;" horiz-adv-x="1210" 
d="M717 0v-285h-209v285h-356v991h245v-794h416v794h246v-991h-342z" />
    <glyph glyph-name="u0490" unicode="&#x490;" horiz-adv-x="1085" 
d="M403 0h-258v1450h672v293h201v-518h-615v-1225z" />
    <glyph glyph-name="u0491" unicode="&#x491;" horiz-adv-x="874" 
d="M395 0h-243v991h456v307h213v-501h-426v-797z" />
    <glyph glyph-name="palochkacyrillic" unicode="&#x4c0;" horiz-adv-x="577" 
d="M160 1450h258v-1450h-258v1450z" />
    <glyph glyph-name="Aiecyrillic" unicode="&#x4d4;" horiz-adv-x="2142" 
d="M1083 602v623h-30l-383 -623h413zM1083 381h-548l-234 -381h-313l927 1450h1098v-225h-672v-369h635v-217h-635v-410h709v-229h-967v381z" />
    <glyph glyph-name="aiecyrillic" unicode="&#x4d5;" horiz-adv-x="1816" 
d="M1481 590q0 161 -128 218q-44 19 -104 19q-111 -1 -187 -67t-85 -170h504zM754 414h-56q-174 0 -274 -24t-100 -105q0 -123 172 -123q126 0 192 57t66 162v33zM135 856q165 156 423 156q120 0 202 -51t123 -117q53 74 146 121t209 47q341 0 453 -300q36 -99 35 -233v-33
q0 -16 -2 -32h-747q12 -107 92 -175q80 -67 188 -67q169 0 261 129l161 -133q-145 -197 -415 -197t-396 197q-43 -80 -140 -136t-258 -56t-265 69q-127 85 -127 236q0 265 418 299q123 10 258 10v20q0 209 -224 209q-74 0 -148 -33t-122 -79z" />
    <glyph glyph-name="Aringbelow" unicode="&#x1e00;" horiz-adv-x="1445" 
d="M844 -360q0 51 -35 84q-35 32 -87 32t-86 -34t-34 -84t35 -82q35 -33 86 -33t86 33t35 84zM938 -360q0 -92 -61 -150t-153 -59q-92 0 -155 58q-61 58 -61 149t62 151q62 59 153 59t153 -58t62 -150zM942 553l-223 590l-227 -590h450zM614 1450h224l624 -1450h-295
l-135 332h-629l-131 -332h-288z" />
    <glyph glyph-name="aringbelow" unicode="&#x1e01;" horiz-adv-x="1126" 
d="M653 -385q0 51 -35 84t-87 33t-86 -34q-33 -34 -33 -84t34 -83t86 -33q51 0 86 33t35 84zM748 -385q0 -93 -62 -151t-154 -58t-153 58t-61 150t61 150q62 58 153 59q92 1 154 -57t62 -151zM698 449q-377 0 -374 -164q0 -123 172 -123q126 0 192 68t66 184v35h-56z
M133 856q167 156 425 156q122 0 207 -37q222 -97 222 -377v-598h-229v125h-6q-37 -66 -119 -108t-164 -42q-164 0 -265 67q-126 84 -126 239q0 199 223 276q160 57 453 57v25q0 92 -67 136t-152 44t-157 -33t-118 -79z" />
    <glyph glyph-name="uni1E02" unicode="&#x1e02;" horiz-adv-x="1325" 
d="M485 1726q0 60 44 104t112 44t114 -42t46 -106t-46 -105q-46 -42 -114 -42t-112 44t-44 103zM649 217q324 0 324 217q0 115 -78 160t-236 45h-241v-422h231zM418 860h229q129 0 197 51t68 147t-70 138q-70 41 -217 41h-207v-377zM160 1450h565q295 0 405 -197
q39 -71 39 -181q1 -110 -69 -190t-182 -114v-4q137 -18 225 -106t88 -222q0 -133 -47 -214q-129 -222 -502 -222h-522v1450z" />
    <glyph glyph-name="uni1E03" unicode="&#x1e03;" horiz-adv-x="1300" 
d="M500 1726q0 60 44 104t112 44t113 -42q46 -42 46 -106t-46 -105q-46 -42 -114 -42q-67 0 -111 44t-44 103zM961 494q0 125 -74 221t-203 96q-130 0 -211 -95t-83 -221q-1 -126 80 -222q81 -97 211 -97t205 96t75 222zM397 1548v-690h6q110 152 348 154q87 0 175 -40
q176 -80 250 -274q34 -94 34 -202q-1 -224 -133 -375q-132 -150 -350 -150q-103 0 -195 45t-143 131h-4v-147h-233v1548h245z" />
    <glyph glyph-name="Bdotbelow" unicode="&#x1e04;" horiz-adv-x="1325" 
d="M537 -299q0 59 44 103q43 44 111 44t114 -42t46 -105t-46 -105t-114 -42t-112 44t-43 103zM649 217q324 0 324 217q0 115 -78 160t-236 45h-241v-422h231zM418 860h229q129 0 197 51t68 147t-70 138q-70 41 -217 41h-207v-377zM160 1450h565q295 0 405 -197
q39 -71 39 -181q1 -110 -69 -190t-182 -114v-4q137 -18 225 -106t88 -222q0 -133 -47 -214q-129 -222 -502 -222h-522v1450z" />
    <glyph glyph-name="bdotbelow" unicode="&#x1e05;" horiz-adv-x="1300" 
d="M522 -328q0 60 44 104t112 44t114 -42t46 -106t-46 -105q-46 -42 -114 -42t-112 44t-44 103zM961 494q0 125 -74 221t-203 96q-130 0 -211 -95t-83 -221q-1 -126 80 -222q81 -97 211 -97t205 96t75 222zM397 1548v-690h6q110 152 348 154q87 0 175 -40q176 -80 250 -274
q34 -94 34 -202q-1 -224 -133 -375q-132 -150 -350 -150q-103 0 -195 45t-143 131h-4v-147h-233v1548h245z" />
    <glyph glyph-name="Blinebelow" unicode="&#x1e06;" horiz-adv-x="1325" 
d="M1022 -311h-655v159h655v-159zM649 217q324 0 324 217q0 115 -78 160t-236 45h-241v-422h231zM418 860h229q129 0 197 51t68 147t-70 138q-70 41 -217 41h-207v-377zM160 1450h565q295 0 405 -197q39 -71 39 -181q1 -110 -69 -190t-182 -114v-4q137 -18 225 -106t88 -222
q0 -133 -47 -214q-129 -222 -502 -222h-522v1450z" />
    <glyph glyph-name="blinebelow" unicode="&#x1e07;" horiz-adv-x="1300" 
d="M1008 -340h-656v160h656v-160zM961 494q0 125 -74 221t-203 96q-130 0 -211 -95t-83 -221q-1 -126 80 -222q81 -97 211 -97t205 96t75 222zM397 1548v-690h6q110 152 348 154q87 0 175 -40q176 -80 250 -274q34 -94 34 -202q-1 -224 -133 -375q-132 -150 -350 -150
q-103 0 -195 45t-143 131h-4v-147h-233v1548h245z" />
    <glyph glyph-name="Ccedillaacute" unicode="&#x1e08;" horiz-adv-x="1425" 
d="M721 1935h278l-288 -295h-193zM913 -297q0 74 -123 74q-32 0 -65 -13l-47 52l104 151q-305 24 -498 233q-194 209 -194 529q0 174 61 314q120 281 414 391q143 53 312 53q238 0 421 -123q61 -41 105 -98l-197 -156q-57 78 -149 114q-93 36 -193 36t-192 -41
q-189 -84 -261 -281q-36 -96 -36 -212q0 -234 136 -384q136 -149 355 -147q117 0 207 46t146 121l206 -145q-189 -240 -528 -252l-66 -96q12 2 21 2h18q215 0 215 -170q0 -102 -93 -153q-68 -37 -157 -39q-150 -2 -253 53l47 98q78 -41 159 -41q125 0 125 84z" />
    <glyph glyph-name="ccedillaacute" unicode="&#x1e09;" horiz-adv-x="999" 
d="M502 1460h278l-288 -295h-193zM657 -297q0 74 -123 74q-32 0 -65 -13l-47 52l110 161q-192 25 -317 163q-125 139 -125 362t153 366q153 144 373 144q109 0 210 -41t161 -113l-168 -147q-29 41 -86 69t-121 27q-122 0 -194 -94t-72 -220q0 -125 74 -221t205 -96
q57 0 114 23t92 65l154 -155q-121 -130 -338 -138l-72 -102q12 2 21 2h18q215 0 215 -170q0 -102 -93 -153q-68 -37 -157 -39q-150 -2 -253 53l47 98q78 -41 159 -41q125 0 125 84z" />
    <glyph glyph-name="uni1E0A" unicode="&#x1e0a;" horiz-adv-x="1564" 
d="M547 1726q0 60 44 104q43 44 111 44t114 -42t46 -106t-46 -105q-46 -42 -114 -42t-112 44t-43 103zM633 225q378 0 514 256q51 96 51 248q0 277 -183 404q-138 94 -382 96h-215v-1004h215zM160 1450h514q326 0 543 -159q258 -191 258 -566q0 -189 -72 -327
q-139 -266 -445 -356q-143 -42 -284 -42h-514v1450z" />
    <glyph glyph-name="uni1E0B" unicode="&#x1e0b;" horiz-adv-x="1298" 
d="M459 1726q0 60 44 104q43 44 111 44t114 -42t46 -106t-46 -105q-46 -42 -114 -42t-112 44t-43 103zM833 276q76 90 76 216t-81 222q-81 97 -211 97t-204 -95q-75 -95 -75 -222t75 -223q75 -95 203 -95t217 100zM1147 0h-234v147h-4q-51 -86 -142 -131t-200 -45
q-211 0 -345 152t-134 372t134 368q134 149 343 149q168 0 283 -103q29 -27 47 -51h6v690h246v-1548z" />
    <glyph glyph-name="Ddotbelow" unicode="&#x1e0c;" horiz-adv-x="1564" 
d="M659 -299q0 59 44 103t112 44t114 -42t46 -105t-46 -105t-114 -42t-112 44t-44 103zM633 225q378 0 514 256q51 96 51 248q0 277 -183 404q-138 94 -382 96h-215v-1004h215zM160 1450h514q326 0 543 -159q258 -191 258 -566q0 -189 -72 -327q-139 -266 -445 -356
q-143 -42 -284 -42h-514v1450z" />
    <glyph glyph-name="ddotbelow" unicode="&#x1e0d;" horiz-adv-x="1298" 
d="M459 -328q0 60 44 104q43 44 111 44t114 -42t46 -106t-46 -105q-46 -42 -114 -42t-112 44t-43 103zM833 276q76 90 76 216t-81 222q-81 97 -211 97t-204 -95q-75 -95 -75 -222t75 -223q75 -95 203 -95t217 100zM1147 0h-234v147h-4q-51 -86 -142 -131t-200 -45
q-211 0 -345 152t-134 372t134 368q134 149 343 149q168 0 283 -103q29 -27 47 -51h6v690h246v-1548z" />
    <glyph glyph-name="Dlinebelow" unicode="&#x1e0e;" horiz-adv-x="1564" 
d="M1145 -311h-656v159h656v-159zM633 225q378 0 514 256q51 96 51 248q0 277 -183 404q-138 94 -382 96h-215v-1004h215zM160 1450h514q326 0 543 -159q258 -191 258 -566q0 -189 -72 -327q-139 -266 -445 -356q-143 -42 -284 -42h-514v1450z" />
    <glyph glyph-name="dlinebelow" unicode="&#x1e0f;" horiz-adv-x="1298" 
d="M944 -340h-655v160h655v-160zM833 276q76 90 76 216t-81 222q-81 97 -211 97t-204 -95q-75 -95 -75 -222t75 -223q75 -95 203 -95t217 100zM1147 0h-234v147h-4q-51 -86 -142 -131t-200 -45q-211 0 -345 152t-134 372t134 368q134 149 343 149q168 0 283 -103
q29 -27 47 -51h6v690h246v-1548z" />
    <glyph glyph-name="Dcommaaccent" unicode="&#x1e10;" horiz-adv-x="1564" 
d="M770 -152h238l-174 -540h-207zM633 225q378 0 514 256q51 96 51 248q0 277 -183 404q-138 94 -382 96h-215v-1004h215zM160 1450h514q326 0 543 -159q258 -191 258 -566q0 -189 -72 -327q-139 -266 -445 -356q-143 -42 -284 -42h-514v1450z" />
    <glyph glyph-name="dcommaaccent" unicode="&#x1e11;" horiz-adv-x="1298" 
d="M569 -180h238l-174 -541h-207zM833 276q76 90 76 216t-81 222q-81 97 -211 97t-204 -95q-75 -95 -75 -222t75 -223q75 -95 203 -95t217 100zM1147 0h-234v147h-4q-51 -86 -142 -131t-200 -45q-211 0 -345 152t-134 372t134 368q134 149 343 149q168 0 283 -103
q29 -27 47 -51h6v690h246v-1548z" />
    <glyph glyph-name="Dcircumflexbelow" unicode="&#x1e12;" horiz-adv-x="1564" 
d="M956 -446l-141 184l-141 -184h-230l236 294h276l234 -294h-234zM633 225q378 0 514 256q51 96 51 248q0 277 -183 404q-138 94 -382 96h-215v-1004h215zM160 1450h514q326 0 543 -159q258 -191 258 -566q0 -189 -72 -327q-139 -266 -445 -356q-143 -42 -284 -42h-514
v1450z" />
    <glyph glyph-name="dcircumflexbelow" unicode="&#x1e13;" horiz-adv-x="1298" 
d="M756 -475l-142 184l-141 -184h-229l235 295h277l233 -295h-233zM833 276q76 90 76 216t-81 222q-81 97 -211 97t-204 -95q-75 -95 -75 -222t75 -223q75 -95 203 -95t217 100zM1147 0h-234v147h-4q-51 -86 -142 -131t-200 -45q-211 0 -345 152t-134 372t134 368
q134 149 343 149q168 0 283 -103q29 -27 47 -51h6v690h246v-1548z" />
    <glyph glyph-name="Emacrongrave" unicode="&#x1e14;" 
d="M899 1917h-192l-289 295h278zM985 1604h-655v159h655v-159zM160 1450h960v-225h-702v-369h665v-217h-665v-410h739v-229h-997v1450z" />
    <glyph glyph-name="emacrongrave" unicode="&#x1e15;" horiz-adv-x="1175" 
d="M829 1479h-192l-289 295h279zM915 1167h-655v160h655v-160zM616 172q171 0 261 127l163 -131q-145 -197 -422 -197q-229 0 -378 139q-150 139 -150 374t149 382q149 146 366 146t349 -139q131 -139 131 -394v-33q0 -16 -2 -32h-747q8 -106 91 -174t189 -68zM840 590
q0 161 -128 218q-44 19 -104 19q-112 -1 -188 -67t-84 -170h504z" />
    <glyph glyph-name="Emacronacute" unicode="&#x1e16;" 
d="M621 2212h278l-289 -295h-192zM985 1604h-655v159h655v-159zM160 1450h960v-225h-702v-369h665v-217h-665v-410h739v-229h-997v1450z" />
    <glyph glyph-name="emacronacute" unicode="&#x1e17;" horiz-adv-x="1175" 
d="M551 1774h278l-288 -295h-193zM915 1167h-655v160h655v-160zM616 172q171 0 261 127l163 -131q-145 -197 -422 -197q-229 0 -378 139q-150 139 -150 374t149 382q149 146 366 146t349 -139q131 -139 131 -394v-33q0 -16 -2 -32h-747q8 -106 91 -174t189 -68zM840 590
q0 161 -128 218q-44 19 -104 19q-112 -1 -188 -67t-84 -170h504z" />
    <glyph glyph-name="Ecircumflexbelow" unicode="&#x1e18;" 
d="M797 -446l-142 184l-141 -184h-229l235 294h277l233 -294h-233zM160 1450h960v-225h-702v-369h665v-217h-665v-410h739v-229h-997v1450z" />
    <glyph glyph-name="ecircumflexbelow" unicode="&#x1e19;" horiz-adv-x="1175" 
d="M727 -475l-141 184l-142 -184h-229l236 295h276l234 -295h-234zM616 172q171 0 261 127l163 -131q-145 -197 -422 -197q-229 0 -378 139q-150 139 -150 374t149 382q149 146 366 146t349 -139q131 -139 131 -394v-33q0 -16 -2 -32h-747q8 -106 91 -174t189 -68zM840 590
q0 161 -128 218q-44 19 -104 19q-112 -1 -188 -67t-84 -170h504z" />
    <glyph glyph-name="Etildebelow" unicode="&#x1e1a;" 
d="M510 -334q-71 0 -94 -88h-135q19 118 56 167q71 95 163 94t172 -38q96 -38 133 -39q69 0 94 86h135q-42 -260 -229 -260q-68 0 -162 39q-93 39 -133 39zM160 1450h960v-225h-702v-369h665v-217h-665v-410h739v-229h-997v1450z" />
    <glyph glyph-name="etildebelow" unicode="&#x1e1b;" horiz-adv-x="1175" 
d="M735 -266q72 0 94 86h136q-19 -116 -56 -166q-72 -96 -160 -95t-176 39q-87 38 -133 40q-69 0 -94 -89h-135q43 261 229 261q76 0 167 -38t128 -38zM616 172q171 0 261 127l163 -131q-145 -197 -422 -197q-229 0 -378 139q-150 139 -150 374t149 382q149 146 366 146
t349 -139q131 -139 131 -394v-33q0 -16 -2 -32h-747q8 -106 91 -174t189 -68zM840 590q0 161 -128 218q-44 19 -104 19q-112 -1 -188 -67t-84 -170h504z" />
    <glyph glyph-name="Ecedillabreve" unicode="&#x1e1c;" 
d="M737 -297q0 74 -123 74q-32 0 -65 -13l-47 52l127 184h-469v1450h960v-225h-702v-369h665v-217h-665v-410h739v-229h-409l-93 -131q12 2 21 2h18q215 0 215 -170q0 -102 -93 -153q-68 -37 -157 -39q-150 -2 -253 53l47 98q78 -41 159 -41q125 0 125 84zM446 1898
q24 -135 211 -135q88 0 140 25q51 25 73 110h136q-16 -152 -110 -224t-240 -70q-148 0 -242 70t-105 224h137z" />
    <glyph glyph-name="ecedillabreve" unicode="&#x1e1d;" horiz-adv-x="1175" 
d="M616 172q171 0 261 127l163 -131q-130 -176 -362 -195l-92 -131q12 2 20 2h19q212 0 215 -170q0 -103 -94 -152q-73 -40 -159 -40q-152 0 -251 53l47 98q78 -41 160 -41t112 41q12 16 13 48t-33 51q-34 18 -77 18t-79 -12l-47 51l127 184h6q-195 16 -324 136
q-151 140 -151 375t149 382q149 146 366 146t349 -140t131 -393v-33q0 -16 -2 -32h-747q8 -106 91 -174t189 -68zM586 1165q-147 0 -242 71q-94 71 -104 224h137q24 -135 211 -135q88 0 139 25t74 110h135q-16 -152 -110 -224t-240 -71zM840 590q0 161 -128 218
q-44 19 -104 19q-112 -1 -188 -67t-84 -170h504z" />
    <glyph glyph-name="uni1E1E" unicode="&#x1e1e;" horiz-adv-x="1173" 
d="M469 1726q0 60 44 104t112 44q67 0 113 -42t46 -106t-46 -105q-46 -42 -114 -42t-111 44q-44 44 -44 103zM160 1450h936v-225h-678v-398h639v-217h-639v-610h-258v1450z" />
    <glyph glyph-name="uni1E1F" unicode="&#x1e1f;" horiz-adv-x="663" 
d="M180 1808q0 60 44 104t112 44t114 -42t46 -106t-46 -105q-46 -42 -114 -42t-112 44t-44 103zM598 1364q-166 0 -166 -221v-160h227v-197h-227v-786h-246v786h-186v197h186v145q0 311 207 409q76 36 171 36t145 -14l-17 -209q-47 14 -94 14z" />
    <glyph glyph-name="Gmacron" unicode="&#x1e20;" horiz-adv-x="1583" 
d="M1087 1640h-655v160h655v-160zM90 729q0 174 61 314q120 281 414 391q143 53 315 53t315 -50q144 -50 232 -132l-178 -193q-55 60 -154 104t-215 44t-209 -41q-188 -83 -260 -281q-36 -96 -36 -211q0 -230 140 -382t376 -150q166 0 289 51v368h-306v213h556v-751
q-237 -113 -547 -113q-352 0 -572 214q-221 215 -221 552z" />
    <glyph glyph-name="gmacron" unicode="&#x1e21;" horiz-adv-x="1294" 
d="M946 1167h-655v160h655v-160zM340 503q0 -130 78 -223q78 -94 204 -94q127 0 209 92t82 221q0 130 -80 221t-209 91t-207 -89q-77 -89 -77 -219zM222 135q-132 149 -132 364t132 364t349 149q105 0 195 -43t143 -133h4v147h234v-895q0 -418 -307 -539q-104 -41 -248 -41
q-283 0 -488 162l142 191q148 -140 344 -140q311 0 311 338v72h-4q-108 -147 -323 -147q-214 0 -352 151z" />
    <glyph glyph-name="uni1E22" unicode="&#x1e22;" horiz-adv-x="1513" 
d="M600 1726q0 60 44 104t112 44t114 -42t45 -106q0 -64 -46 -105q-45 -42 -113 -42t-112 44t-44 103zM160 1450h258v-586h678v586h258v-1450h-258v643h-678v-643h-258v1450z" />
    <glyph glyph-name="uni1E23" unicode="&#x1e23;" horiz-adv-x="1196" 
d="M500 1726q0 60 44 104t112 44t113 -42q46 -42 46 -106t-46 -105q-46 -42 -114 -42q-67 0 -111 44t-44 103zM811 541q0 260 -182 260q-111 0 -170 -78t-62 -186v-537h-245v1548h245v-702h4q29 65 109 115q80 51 180 51q184 0 282 -123q83 -103 85 -275v-614h-246v541z" />
    <glyph glyph-name="Hdotbelow" unicode="&#x1e24;" horiz-adv-x="1513" 
d="M598 -299q0 59 44 103t112 44t114 -42t45 -105q0 -63 -46 -105q-45 -42 -113 -42t-112 44t-44 103zM160 1450h258v-586h678v586h258v-1450h-258v643h-678v-643h-258v1450z" />
    <glyph glyph-name="hdotbelow" unicode="&#x1e25;" horiz-adv-x="1196" 
d="M446 -299q0 59 44 103t112 44t114 -42t46 -105t-46 -105t-114 -42t-112 44t-44 103zM811 541q0 260 -182 260q-111 0 -170 -78t-62 -186v-537h-245v1548h245v-702h4q29 65 109 115q80 51 180 51q184 0 282 -123q83 -103 85 -275v-614h-246v541z" />
    <glyph glyph-name="Hdieresis" unicode="&#x1e26;" horiz-adv-x="1513" 
d="M809 1747q0 57 41 100t104 43q62 0 106 -41t44 -102t-43 -102t-107 -41t-104 43q-41 43 -41 100zM408 1747q0 57 41 100t104 43t106 -41t43 -102t-43 -102t-106 -41t-104 43t-41 100zM160 1450h258v-586h678v586h258v-1450h-258v643h-678v-643h-258v1450z" />
    <glyph glyph-name="hdieresis" unicode="&#x1e27;" horiz-adv-x="1196" 
d="M657 1845q0 57 41 101q40 44 104 43q64 0 107 -41q43 -40 43 -102t-43 -103t-106 -41t-105 43q-41 43 -41 100zM256 1845q0 57 41 101t104 43q63 0 107 -41q44 -40 43 -102q0 -62 -43 -103q-42 -41 -106 -41t-105 43t-41 100zM811 541q0 260 -182 260q-111 0 -170 -78
t-62 -186v-537h-245v1548h245v-702h4q29 65 109 115q80 51 180 51q184 0 282 -123q83 -103 85 -275v-614h-246v541z" />
    <glyph glyph-name="Hcedilla" unicode="&#x1e28;" horiz-adv-x="1513" 
d="M354 -297q0 74 -123 74q-32 0 -65 -13l-47 52l127 184h-86v1450h258v-586h678v586h258v-1450h-258v643h-678v-643h-53l-93 -131q12 2 21 2h18q215 0 215 -170q0 -102 -93 -153q-68 -37 -157 -39q-150 -2 -253 53l47 98q78 -41 159 -41q125 0 125 84z" />
    <glyph glyph-name="hcedilla" unicode="&#x1e29;" horiz-adv-x="1196" 
d="M354 -299q0 76 -123 76q-32 0 -65 -13l-47 52l127 184h-94v1548h245v-702h4q29 65 107 114q78 50 180 51q185 2 284 -122q83 -103 85 -275v-614h-246v541q0 260 -182 260q-111 0 -170 -78t-62 -186v-537h-32l-93 -131q12 2 23 2h16q215 0 215 -170q0 -102 -93 -153
q-68 -37 -157 -39q-150 -2 -253 53l47 98q78 -41 159 -41t113 41q12 16 12 41z" />
    <glyph glyph-name="Hbrevebelow" unicode="&#x1e2a;" horiz-adv-x="1513" 
d="M545 -152q24 -135 211 -135q88 0 139 25t74 110h135q-16 -152 -110 -224t-240 -70q-147 0 -242 70q-94 71 -104 224h137zM160 1450h258v-586h678v586h258v-1450h-258v643h-678v-643h-258v1450z" />
    <glyph glyph-name="hbrevebelow" unicode="&#x1e2b;" horiz-adv-x="1196" 
d="M604 -287q88 0 139 25t74 110h135q-16 -152 -109 -224t-241 -70q-148 0 -242 70q-94 71 -104 224h137q24 -135 211 -135zM811 541q0 260 -182 260q-111 0 -170 -78t-62 -186v-537h-245v1548h245v-702h4q29 65 109 115q80 51 180 51q184 0 282 -123q83 -103 85 -275v-614
h-246v541z" />
    <glyph glyph-name="Itildebelow" unicode="&#x1e2c;" horiz-adv-x="577" 
d="M141 -334q-69 0 -94 -88h-135q19 118 56 167q71 95 163 94t172 -38q96 -37 133 -39q71 0 94 86h136q-42 -260 -230 -260q-68 0 -162 39q-93 39 -133 39zM160 1450h258v-1450h-258v1450z" />
    <glyph glyph-name="itildebelow" unicode="&#x1e2d;" horiz-adv-x="548" 
d="M127 -334q-69 0 -94 -88h-135q19 118 56 167q71 95 163 94t172 -38q96 -37 133 -39q69 0 94 86h135q-42 -260 -229 -260q-68 0 -162 39q-93 39 -133 39zM117 1317q0 59 44 103q43 44 111 44t114 -42t46 -105t-46 -105t-114 -43q-68 1 -112 45t-43 103zM152 983h245v-983
h-245v983z" />
    <glyph glyph-name="Idieresisacute" unicode="&#x1e2e;" horiz-adv-x="577" 
d="M254 2339h278l-288 -295h-193zM342 1747q0 57 41 100t104 43t107 -41t43 -102q0 -61 -43 -102q-42 -41 -106 -41t-105 43t-41 100zM-59 1747q0 57 41 100t104 43q62 0 106 -41t44 -102t-43 -102t-107 -41t-104 43q-41 43 -41 100zM160 1450h258v-1450h-258v1450z" />
    <glyph glyph-name="idieresisacute" unicode="&#x1e2f;" horiz-adv-x="548" 
d="M240 1872h278l-289 -295h-192zM328 1282q0 57 41 100t104 43t107 -41t43 -102q0 -61 -43 -102q-42 -41 -106 -41t-105 43t-41 100zM-74 1282q0 57 41 100t105 43t106 -41q43 -41 43 -102t-43 -102t-106 -41t-105 43q-41 43 -41 100zM152 983h245v-983h-245v983z" />
    <glyph glyph-name="Kacute" unicode="&#x1e30;" horiz-adv-x="1411" 
d="M754 1898h278l-289 -294h-192zM160 1450h258v-627h6l606 627h348l-678 -670l723 -780h-362l-637 727h-6v-727h-258v1450z" />
    <glyph glyph-name="kacute" unicode="&#x1e31;" horiz-adv-x="1112" 
d="M598 1997h279l-289 -295h-193zM152 1548h245v-979h6l373 414h316l-426 -444l452 -539h-325l-390 504h-6v-504h-245v1548z" />
    <glyph glyph-name="Kdotbelow" unicode="&#x1e32;" horiz-adv-x="1411" 
d="M633 -299q0 59 44 103q43 44 111 44t114 -42t46 -105t-46 -105t-114 -42t-112 44t-43 103zM160 1450h258v-627h6l606 627h348l-678 -670l723 -780h-362l-637 727h-6v-727h-258v1450z" />
    <glyph glyph-name="kdotbelow" unicode="&#x1e33;" horiz-adv-x="1112" 
d="M477 -299q0 59 44 103t112 44q67 0 113 -42t46 -105t-46 -105t-114 -42t-111 44q-44 44 -44 103zM152 1548h245v-979h6l373 414h316l-426 -444l452 -539h-325l-390 504h-6v-504h-245v1548z" />
    <glyph glyph-name="Klinebelow" unicode="&#x1e34;" horiz-adv-x="1411" 
d="M1118 -311h-655v159h655v-159zM160 1450h258v-627h6l606 627h348l-678 -670l723 -780h-362l-637 727h-6v-727h-258v1450z" />
    <glyph glyph-name="klinebelow" unicode="&#x1e35;" horiz-adv-x="1112" 
d="M963 -311h-656v159h656v-159zM152 1548h245v-979h6l373 414h316l-426 -444l452 -539h-325l-390 504h-6v-504h-245v1548z" />
    <glyph glyph-name="Ldotbelow" unicode="&#x1e36;" horiz-adv-x="1046" 
d="M438 -299q0 59 44 103t112 44t114 -42t46 -105t-46 -105t-114 -42t-112 44t-44 103zM160 1450h258v-1221h616v-229h-874v1450z" />
    <glyph glyph-name="ldotbelow" unicode="&#x1e37;" horiz-adv-x="548" 
d="M117 -299q0 59 44 103q43 44 111 44t114 -42t46 -105t-46 -105t-114 -42t-112 44t-43 103zM152 1548h245v-1548h-245v1548z" />
    <glyph glyph-name="Ldotbelowmacron" unicode="&#x1e38;" horiz-adv-x="1046" 
d="M924 1604h-656v159h656v-159zM438 -299q0 59 44 103t112 44t114 -42t46 -105t-46 -105t-114 -42t-112 44t-44 103zM160 1450h258v-1221h616v-229h-874v1450z" />
    <glyph glyph-name="ldotbelowmacron" unicode="&#x1e39;" horiz-adv-x="548" 
d="M602 1702h-655v160h655v-160zM117 -299q0 59 44 103q43 44 111 44t114 -42t46 -105t-46 -105t-114 -42t-112 44t-43 103zM152 1548h245v-1548h-245v1548z" />
    <glyph glyph-name="Llinebelow" unicode="&#x1e3a;" horiz-adv-x="1046" 
d="M924 -311h-656v159h656v-159zM160 1450h258v-1221h616v-229h-874v1450z" />
    <glyph glyph-name="llinebelow" unicode="&#x1e3b;" horiz-adv-x="548" 
d="M602 -311h-655v159h655v-159zM152 1548h245v-1548h-245v1548z" />
    <glyph glyph-name="Lcircumflexbelow" unicode="&#x1e3c;" horiz-adv-x="1046" 
d="M735 -446l-141 184l-141 -184h-230l236 294h276l234 -294h-234zM160 1450h258v-1221h616v-229h-874v1450z" />
    <glyph glyph-name="lcircumflexbelow" unicode="&#x1e3d;" horiz-adv-x="548" 
d="M414 -446l-142 184l-141 -184h-229l235 294h277l233 -294h-233zM152 1548h245v-1548h-245v1548z" />
    <glyph glyph-name="Macute" unicode="&#x1e3e;" horiz-adv-x="1884" 
d="M905 1898h279l-289 -294h-193zM160 1450h403l377 -1030h6l373 1030h405v-1450h-256v1165h-4l-440 -1165h-180l-434 1165h-4v-1165h-246v1450z" />
    <glyph glyph-name="macute" unicode="&#x1e3f;" horiz-adv-x="1822" 
d="M879 1460h278l-289 -295h-192zM1321 1012q181 0 277 -123q85 -106 85 -275v-614h-245v545q0 262 -185 262q-103 0 -159 -79t-58 -191v-537h-245v594q-1 92 -45 152t-142 60t-154 -76q-55 -77 -57 -189v-541h-246v983h234v-158h4q33 76 111 131q78 54 194 56
q219 0 307 -187q102 187 324 187z" />
    <glyph glyph-name="Mdotaccent" unicode="&#x1e40;" horiz-adv-x="1884" 
d="M784 1751q0 59 44 103t112 44t114 -42t46 -104q0 -64 -46 -106t-114 -42t-112 44t-44 103zM160 1450h403l377 -1030h6l373 1030h405v-1450h-256v1165h-4l-440 -1165h-180l-434 1165h-4v-1165h-246v1450z" />
    <glyph glyph-name="mdotaccent" unicode="&#x1e41;" horiz-adv-x="1822" 
d="M758 1315q0 59 44 103t112 44t113 -42q46 -42 46 -105t-46 -105t-114 -43q-67 1 -111 45t-44 103zM1321 1012q181 0 277 -123q85 -106 85 -275v-614h-245v545q0 262 -185 262q-103 0 -159 -79t-58 -191v-537h-245v594q-1 92 -45 152t-142 60t-154 -76q-55 -77 -57 -189
v-541h-246v983h234v-158h4q33 76 111 131q78 54 194 56q219 0 307 -187q102 187 324 187z" />
    <glyph glyph-name="Mdotbelow" unicode="&#x1e42;" horiz-adv-x="1884" 
d="M784 -299q0 59 44 103t112 44t114 -42t46 -105t-46 -105t-114 -42t-112 44t-44 103zM160 1450h403l377 -1030h6l373 1030h405v-1450h-256v1165h-4l-440 -1165h-180l-434 1165h-4v-1165h-246v1450z" />
    <glyph glyph-name="mdotbelow" unicode="&#x1e43;" horiz-adv-x="1822" 
d="M758 -299q0 59 44 103t112 44t113 -42q46 -42 46 -105t-46 -105t-114 -42q-67 0 -111 44t-44 103zM1321 1012q181 0 277 -123q85 -106 85 -275v-614h-245v545q0 262 -185 262q-103 0 -159 -79t-58 -191v-537h-245v594q-1 92 -45 152t-142 60t-154 -76q-55 -77 -57 -189
v-541h-246v983h234v-158h4q33 76 111 131q78 54 194 56q219 0 307 -187q102 187 324 187z" />
    <glyph glyph-name="Ndotaccent" unicode="&#x1e44;" horiz-adv-x="1597" 
d="M641 1751q0 59 44 103t112 44q67 0 113 -42t46 -104q0 -64 -46 -106t-114 -42t-111 44q-44 44 -44 103zM160 1450h342l674 -1085h4v1085h258v-1450h-328l-688 1120h-4v-1120h-258v1450z" />
    <glyph glyph-name="ndotaccent" unicode="&#x1e45;" horiz-adv-x="1191" 
d="M442 1315q0 59 44 103t112 44t114 -42t46 -105t-46 -105t-114 -43q-68 1 -112 45t-44 103zM807 545q0 262 -184 262q-110 0 -169 -78t-61 -188v-541h-246v983h234v-158h4q33 74 114 130q81 57 184 57q186 1 285 -123q83 -103 85 -275v-614h-246v545z" />
    <glyph glyph-name="Ndotbelow" unicode="&#x1e46;" horiz-adv-x="1597" 
d="M641 -299q0 59 44 103t112 44q67 0 113 -42t46 -105t-46 -105t-114 -42t-111 44q-44 44 -44 103zM160 1450h342l674 -1085h4v1085h258v-1450h-328l-688 1120h-4v-1120h-258v1450z" />
    <glyph glyph-name="ndotbelow" unicode="&#x1e47;" horiz-adv-x="1191" 
d="M442 -299q0 59 44 103t112 44t114 -42t46 -105t-46 -105t-114 -42t-112 44t-44 103zM807 545q0 262 -184 262q-110 0 -169 -78t-61 -188v-541h-246v983h234v-158h4q33 74 114 130q81 57 184 57q186 1 285 -123q83 -103 85 -275v-614h-246v545z" />
    </font>
</defs>
</svg>
