<?xml version="1.0" standalone="no"?>
<!DOCTYPE svg PUBLIC "-//W3C//DTD SVG 1.1//EN" "http://www.w3.org/Graphics/SVG/1.1/DTD/svg11.dtd" >
<svg xmlns="http://www.w3.org/2000/svg">
<metadata>
Created by FontPrep 20130207 at Mon Apr 20 11:10:32 2015
 By Admin
Copyright (URW)++,Copyright 2009 by (URW)++ Design &#38; Development
</metadata>
<defs>
<font id="0384d57193cf3a7489970e049e00830e" horiz-adv-x='1024' >
  <font-face 
    font-family="LPBambus-Regular"
    font-weight="400"
    font-stretch="normal"
    units-per-em="2048"
    panose-1="0 0 5 0 0 0 0 0 0 0"
    ascent="1479"
    descent="-569"
    x-height="858"
    cap-height="1501"
    bbox="-401 -984 1901 1916"
    underline-thickness="129"
    underline-position="-129"
    unicode-range="U+0020-FB02"
  />
<missing-glyph horiz-adv-x="436" 
 />
    <glyph glyph-name="fi" unicode="fi" horiz-adv-x="747" 
d="M1198 1119q0 -70 -78 -70q-38 -1 -70 27q-34 28 -34 60t20 55t56 23t71 -30t35 -65zM672 -8q-43 0 -72 39t-29 98q0 109 66 264q58 148 120 260q63 113 72 144q16 61 56 61q33 0 63 -27t31 -55q0 -28 -34 -82q-35 -53 -103 -197q-68 -145 -102 -239t-35 -184l8 -35
q-1 -15 -15 -31t-26 -16zM782 907q35 0 35 -30q0 -23 -11 -33q-42 -38 -314 -107l-246 -581q-84 -197 -114 -288l-50 -149q0 -3 -3 -23l-5 -32q-4 -16 -18 -32t-29 -15q-57 0 -58 88q0 89 64 267t295 741h-17q-104 0 -104 82q0 29 13 48t34 19l82 -6l55 2q143 296 214 410
t129 170t110 55q52 0 81 -44t29 -124q0 -79 -66 -187t-118 -108q-31 0 -31 31q0 16 26 51q27 36 49 100t22 107t-15 43q-20 0 -105 -156t-165 -338l72 13q45 8 71 11t52 9t36 6z" />
    <glyph glyph-name="fl" unicode="fl" horiz-adv-x="819" 
d="M1121 1413q40 0 68 -30q28 -31 28 -61t-41 -102q-40 -72 -132 -272q-92 -201 -143 -338q-129 -332 -129 -442q0 -63 27 -102q10 -18 10 -27q0 -47 -53 -47t-86 51t-33 153t54 258q54 158 214 522t168 406q8 31 48 31zM778 907q35 0 35 -30q0 -23 -11 -33
q-41 -38 -315 -107l-245 -581q-84 -197 -114 -288l-50 -149q0 -3 -3 -23l-5 -32q-4 -16 -18 -32t-29 -15q-57 0 -58 88q0 89 64 267t295 741h-17q-104 0 -104 82q0 29 13 48t34 19l82 -6l55 2q143 296 214 410t129 170t110 55q52 0 81 -44t29 -124q0 -79 -66 -187t-118 -108
q-31 0 -31 31q0 16 26 51q27 36 49 100t22 107t-15 43q-20 0 -105 -156t-165 -338l71 13q45 8 71 11q27 3 53 9t36 6z" />
    <glyph glyph-name=".notdef" horiz-adv-x="436" 
 />
    <glyph glyph-name=".null" horiz-adv-x="0" 
 />
    <glyph glyph-name="nonmarkingreturn" horiz-adv-x="681" 
 />
    <glyph glyph-name="space" unicode=" " horiz-adv-x="436" 
 />
    <glyph glyph-name="exclam" unicode="!" horiz-adv-x="327" 
d="M197 131q82 0 82 -62q0 -30 -39 -56q-38 -25 -80 -25t-53 8t-19 24t-8 23q0 35 39 61t78 27zM691 1440q42 0 70 -26q27 -26 27 -54t-88 -160q-258 -387 -370 -756q-14 -49 -49 -49q-21 -1 -37 15t-17 34q0 117 66 279q115 289 214 441t106 172t21 62t57 42z" />
    <glyph glyph-name="quotedbl" unicode="&#x22;" horiz-adv-x="458" 
d="M1061 1585q0 -20 -23 -86q-8 -23 -61 -91t-83 -96q-30 -26 -78 -26t-48 37q0 18 19 39t69 100q51 78 57 115q19 70 60 72q35 2 61 -21t27 -43zM852 1587q0 -20 -23 -86q-8 -23 -61 -91t-83 -96q-30 -26 -78 -26t-48 37q0 18 19 39t69 100q51 78 58 115q18 70 59 72
q36 2 62 -21t26 -43z" />
    <glyph glyph-name="numbersign" unicode="#" horiz-adv-x="1288" 
d="M915 776h89q35 96 79 211l-168 4l-86 -217q61 2 86 2zM1481 780q29 0 29 -44t-22 -72q-20 -28 -36 -32q-16 -5 -44 -5t-99 8q-72 8 -226 12l-18 -49q-55 -135 -81 -234t-64 -323q-8 -57 -43 -57q-51 0 -52 98q0 59 36 229t97 340l-178 4q-10 -29 -44 -113t-58 -180
q-25 -98 -64 -323q-8 -57 -45 -57q-49 0 -49 83t33 245t102 343q-139 1 -223 -25t-90 -26q-35 0 -35 39q1 53 101 87t288 44q12 34 22 60t60 159q-115 0 -165 -7q-50 -8 -108 -26t-65 -18q-35 0 -34 39q0 112 417 131q111 289 136 364q26 75 57 193q6 39 37 39t61 -38
t31 -70t-75 -220t-107 -266q31 2 77 2t90 -2l29 82q3 6 69 180t93 295q8 39 38 39q31 0 61 -37t30 -65t-23 -90q-23 -61 -159 -406q132 -4 190 -4t86 6t35 6q29 0 29 -43t-22 -73t-36 -34q-16 -5 -44 -5t-96 8q-66 8 -193 12l-82 -209l211 -4q66 0 97 5t38 5z" />
    <glyph glyph-name="dollar" unicode="$" horiz-adv-x="612" 
d="M725 852h-27q-16 0 -16 38t-18 38t-31 -58q-37 -166 -37 -309t32 -252t32 -147t-36 -65q-36 -28 -96 -27q-137 0 -256 84l-10 -9q-18 -31 -45 -63q-29 -41 -33 -53q-29 -61 -57 -62q-15 1 -27 17t-12 40t35 92q35 67 78 117q-25 47 -25 107t45 119q18 23 46 23t45 -20
q17 -19 6 -49t-11 -53q0 -53 55 -96t123 -43q23 1 23 13t-16 56t-35 164q-18 120 -19 189q0 179 67 323t161 144q20 0 32 -4q160 168 167 186t26 18t37 -28q18 -30 18 -64t-14 -59t-58 -65l-88 -90q6 -27 6 -57q0 -31 -27 -63q-28 -32 -40 -32z" />
    <glyph glyph-name="percent" unicode="%" horiz-adv-x="1114" 
d="M866 148q0 -28 17 -27q31 0 80 50t69 100t29 132q-55 -39 -87 -73t-67 -94q-41 -60 -41 -88zM1118 436q33 0 57 -28t23 -66q0 -113 -119 -245t-219 -132q-57 0 -97 55q-40 54 -40 140t92 211q51 67 131 137t100 70t38 -12q42 -28 42 -83q0 -14 -16 -47h8zM676 1032
q-66 -48 -100 -120q-58 -124 -11 -121q33 -1 70 79t41 162zM707 1198q41 0 71 -47t31 -105q0 -58 -28 -143q-29 -86 -65 -144t-83 -95t-99 -37t-98 57q-45 57 -45 141q0 33 7 53t38 86q31 64 83 126q53 62 75 69q22 8 47 8q25 31 66 31zM291 -66q-14 0 -44 18t-30 57
q-1 39 63 143q171 279 598 626q261 213 453 309q79 39 103 41t38 -12t16 -39q1 -25 -38 -43q-152 -74 -372 -246t-388 -354t-238 -277q-71 -95 -100 -182q-16 -41 -61 -41z" />
    <glyph glyph-name="ampersand" unicode="&#x26;" horiz-adv-x="1107" 
d="M242 162q0 -35 45 -35q127 0 350 195q-66 158 -76 253q-125 -119 -183 -188t-97 -134t-39 -91zM983 1191q0 24 -35 26q-58 0 -124 -76t-109 -254q39 41 103 99t114 119q51 62 51 86zM963 1356q55 0 110 -51q39 -39 39 -95q0 -90 -115 -213q-43 -45 -129 -127t-172 -168
q6 -131 54 -270q12 12 23 24t22 19l133 159q23 30 39 58q16 41 29 53q12 13 32 13t34 -18t13 -40q0 -47 -82 -168t-184 -221q121 -203 240 -237q39 -16 39 -40t-26 -41t-58 -18q-66 0 -153 67t-151 163q-240 -213 -407 -213q-80 0 -131 48t-51 132t92 204t348 359l18 150
q9 89 71 199t149 191t174 81z" />
    <glyph glyph-name="quotesingle" unicode="'" horiz-adv-x="305" 
d="M852 1587q0 -20 -23 -86q-8 -23 -61 -91t-83 -96q-30 -26 -78 -26t-48 37q0 18 19 39t69 100q51 78 58 115q18 70 59 72q36 2 62 -21t26 -43z" />
    <glyph glyph-name="parenleft" unicode="(" horiz-adv-x="458" 
d="M209 31q0 504 227 968q184 385 359 543q23 20 65 20t82 -22q41 -23 41 -42t-20 -32q-168 -100 -355 -452q-128 -240 -204 -508t-76 -469l8 -266q0 -55 -45 -56q-82 0 -82 316z" />
    <glyph glyph-name="parenright" unicode=")" horiz-adv-x="397" 
d="M470 1565q64 0 95 -23q74 -68 74 -401q0 -221 -80 -495t-205 -474q-72 -116 -192 -270t-146 -162q-24 -12 -53 -12t-29 24t19 43q53 49 169 239t193 351q170 352 170 735q0 100 -9 148q-10 48 -40 146q-30 99 -30 108q0 43 64 43z" />
    <glyph glyph-name="asterisk" unicode="*" horiz-adv-x="727" 
d="M1178 1250q0 -36 -48 -64t-169 -56q123 -125 122 -172q-1 -28 -27 -54q-56 -53 -109 4q-28 30 -103 143q-16 -23 -32 -47t-30 -46q-14 -20 -16 -24q-35 -57 -73 -57q-39 -1 -63 23t-24 54t26 65q26 36 97 111q-131 29 -173 52q-42 24 -42 62t23 60t57 22t180 -62
q-4 106 -4 143q0 100 78 100q72 1 72 -77t-7 -166q150 70 184 70q33 0 57 -24t24 -60z" />
    <glyph glyph-name="plus" unicode="+" horiz-adv-x="733" 
d="M234 481q16 0 44 -7t92 -7q62 0 101 2q39 100 121 240q55 88 90 88q34 0 62 -25t28 -48q0 -24 -42 -74t-55 -80t-36 -76q27 6 33 6q181 51 198 51q35 0 35 -33q0 -84 -327 -153q-84 -203 -103 -318q-8 -55 -59 -55q-23 0 -38 24t-16 56q0 94 60 268l-100 -4
q-133 0 -134 86q0 16 14 38q16 22 32 21z" />
    <glyph glyph-name="comma" unicode="," horiz-adv-x="280" 
d="M4 -90l33 49q57 83 75 137t29 68q12 14 41 16t58 -24q28 -26 26 -58q-2 -31 -39 -93t-93 -125q-56 -62 -104 -62t-55 18q-8 29 13 51q2 0 16 23z" />
    <glyph glyph-name="hyphen" unicode="-" horiz-adv-x="524" 
d="M580 418h18q31 0 31 -35q0 -45 -108 -86q-109 -41 -231 -41t-122 70v18q0 59 51 59q5 0 35 -9t94 -11q124 11 168 23t64 12z" />
    <glyph glyph-name="period" unicode="." horiz-adv-x="272" 
d="M256 49q0 -59 -82 -59t-114 33q-6 7 -6 38t22 51t63 21q41 0 79 -27t38 -57z" />
    <glyph glyph-name="slash" unicode="/" horiz-adv-x="700" 
d="M37 39q0 73 127 265t258 356t391 464q259 302 311 376t65 86t35 13q22 0 50 -45q12 -18 12 -57t-33 -82t-235 -263t-417 -472t-279 -341t-189 -308q-23 -43 -55 -43q-41 0 -41 51z" />
    <glyph glyph-name="zero" unicode="0" horiz-adv-x="839" 
d="M385 352q1 -216 125 -215q58 0 134 65t147 175q170 272 170 586q0 57 -16 96q-15 39 -38 39q-6 0 -18 -11q-20 -12 -37 -12q-27 0 -27 41t34 77t76 36t78 -24q87 -59 87 -241t-58 -368q-114 -363 -347 -525q-112 -79 -212 -79t-175 101t-75 249q0 213 116 473t290 436
q99 99 195 159t159 60q29 0 47 -18t18 -54t-16 -57q-10 -10 -114 -43q-66 -24 -159 -116q-214 -213 -326 -544q-58 -176 -58 -286z" />
    <glyph glyph-name="one" unicode="1" horiz-adv-x="626" 
d="M904 1468q34 0 63 -38t29 -70q0 -33 -58 -143q-457 -918 -508 -1168q-16 -59 -44 -59t-46 35t-18 88q0 225 446 1087q-55 -46 -92 -86t-80 -84t-45 -51l-19 -27q-16 -24 -40 -24t-41 22q-16 22 -17 45q0 66 103 172q43 47 189 174q144 127 178 127z" />
    <glyph glyph-name="two" unicode="2" horiz-adv-x="909" 
d="M494 934q-41 0 -69 27t-28 65q1 115 103 210q102 96 218 154t207 58t148 -59t57 -158q0 -131 -124 -302t-431 -454q-178 -165 -303 -315q195 39 323 39t209 -38t81 -95q0 -39 -39 -39q-28 1 -80 19t-129 17q-215 0 -346 -45q-57 -20 -72 -20q-47 0 -90 45t-43 95t41 102
q27 29 270 264q465 453 543 594q47 88 47 132q0 81 -63 83q-100 -1 -238 -101t-139 -172l12 -65q0 -41 -65 -41z" />
    <glyph glyph-name="three" unicode="3" horiz-adv-x="921" 
d="M498 131q114 -1 244 63t130 132q0 36 -43 68t-161 80t-157 68q-40 20 -76 55q-36 34 -36 73q1 39 21 58t86 53t187 132q280 225 282 349q0 35 -45 34q-156 0 -373 -168q-79 -63 -101 -87t-42 -68q-10 -20 -41 -21q-55 0 -55 73t85 155q119 114 275 190t250 76t143 -48
t49 -126q0 -123 -135 -283q-80 -95 -160 -161t-225 -160q225 -98 305 -158q106 -84 107 -186q0 -60 -42 -120t-116 -106q-162 -102 -426 -102q-143 0 -237 48q-93 48 -93 124q0 57 72 123q28 20 66 20t38 -26l-10 -64q0 -39 60 -65t174 -25z" />
    <glyph glyph-name="four" unicode="4" horiz-adv-x="851" 
d="M938 1309q36 0 62 -23q26 -24 26 -60t-82 -198t-96 -194q49 8 100 8t73 -9t21 -36q0 -51 -94 -60q-41 -2 -164 -32q-225 -475 -227 -644q-2 -74 -47 -73q-39 0 -63 39t-23 98q0 156 172 528q-146 -37 -238 -37t-141 29q-86 49 -86 123q0 39 66 113q211 249 301 373
t92 182q8 41 43 41t57 -22t21 -52q0 -125 -273 -461q-82 -102 -103 -127q-20 -25 -20 -39q0 -27 54 -26q109 0 295 47q43 79 61 116l59 117q92 170 103 211q14 68 51 68z" />
    <glyph glyph-name="five" unicode="5" horiz-adv-x="831" 
d="M1165 1399q0 -51 -69 -96q-104 -70 -422 -72q-45 -113 -133 -291q26 10 60 27q34 18 120 18q121 0 200 -90q79 -89 79 -239t-105 -313t-247 -256t-270 -93t-198 57t-69 148q0 63 32 106q33 43 80 43t47 -53q0 -8 -10 -32t-10 -44q0 -94 125 -94q102 0 216 88t189 221
q76 133 76 252q0 55 -31 100t-114 45t-163 -43t-118 -93q-37 -50 -47 -59t-35 -9q-24 0 -50 37t-26 73t17 58q49 66 98 159q4 10 37 88l74 168q43 100 75 135q33 34 93 33l151 -10q125 0 254 51q55 25 81 3q13 -11 13 -23z" />
    <glyph glyph-name="six" unicode="6" horiz-adv-x="811" 
d="M956 1311q-76 0 -176 -111q-182 -199 -301 -458t-119 -459q0 -158 76 -158q84 0 181 95q97 96 164 236t67 244t-53 105q-63 0 -129 -92q-45 -59 -64 -164q-2 -23 -21 -38t-47 -15t-51 26t-22 62q0 113 104 237q109 123 230 123q92 0 150 -66q117 -134 2 -416
q-56 -138 -140 -241q-188 -229 -393 -229q-92 0 -148 83q-55 83 -55 243t97 404q97 245 247 441q215 279 428 279q70 0 120 -62t50 -138q0 -77 -32 -121t-81 -44q-41 0 -41 45l13 68q0 29 -19 90q-8 31 -37 31z" />
    <glyph glyph-name="seven" unicode="7" horiz-adv-x="753" 
d="M414 -8q-66 0 -68 96q0 225 256 647q172 279 412 561q-390 -69 -533 -2q-68 33 -67 88q0 29 20 55q20 25 38 25t44 -12q86 -43 256 -43t284 28q114 27 137 27t55 -37t32 -69t-25 -47q-111 -90 -253 -258t-234 -318q-178 -276 -252 -469q-17 -43 -33 -137l-16 -86
q-10 -49 -53 -49z" />
    <glyph glyph-name="eight" unicode="8" horiz-adv-x="792" 
d="M272 246q0 -45 63 -88t156 -43q93 1 149 27t56 60t-34 142t-68 248l-232 -211q-90 -90 -90 -135zM901 1051q39 0 39 -71q0 -36 -48 -98t-175 -182q41 -180 84 -320t43 -181q0 -91 -106 -153t-250 -62q-146 0 -248 76t-103 176q0 55 33 113t117 153q37 37 274 248
q-16 104 -16 159q0 219 123 400q53 78 130 123q78 45 160 45q82 1 138 -57t57 -139q0 -81 -41 -132t-95 -51t-54 47q-1 14 31 57t32 92t-37 49q-115 -1 -206 -123t-91 -276q0 -18 4 -84l27 23q103 90 113 102t14 19q33 47 51 47z" />
    <glyph glyph-name="nine" unicode="9" horiz-adv-x="704" 
d="M854 1086q0 11 26 39t72 94q45 65 45 81t-24 17q-45 0 -279 -191q-114 -92 -200 -206t-86 -172q0 -31 28 -31q66 0 215 114q66 51 104 89t122 135q-23 20 -23 31zM1092 1217q8 -40 8 -43q0 -25 -146 -275q-143 -254 -255 -512t-115 -342q-8 -45 -33 -53q-31 -8 -55 20
t-23 94q0 199 229 625q-200 -149 -280 -149t-122 45t-42 116q0 141 170 330q138 156 328 272t307 115q37 0 61 -24t25 -68q0 -45 -57 -151z" />
    <glyph glyph-name="colon" unicode=":" horiz-adv-x="313" 
d="M233 260q-67 0 -67 62q0 36 32 60t73 24q42 0 66 -16q23 -16 23 -45t-41 -57t-86 -28zM151 129q37 0 72 -26q35 -27 35 -63t-31 -44q-37 -12 -75 -12t-69 22q-32 22 -26 48t6 36q3 14 27 26t61 13z" />
    <glyph glyph-name="semicolon" unicode=";" horiz-adv-x="286" 
d="M250 57q0 -20 -23 -86q-8 -23 -61 -91t-83 -96q-30 -26 -78 -26t-48 37q0 18 19 40t69 99q51 78 57 115q19 70 60 72q36 2 62 -21t26 -43zM268 330q26 0 50 -16t24 -45t-39 -57t-76 -28t-57 16t-20 38q-1 92 118 92z" />
    <glyph glyph-name="less" unicode="&#x3c;" horiz-adv-x="702" 
d="M758 262q-26 0 -198 35t-230 42t-86 29t-27 74q0 52 32 78q32 27 197 68q165 40 223 60t83 20q53 0 53 -56q0 -51 -78 -68q-77 -17 -151 -40t-109 -31q277 -48 324 -65q33 -14 33 -56t-21 -66q-19 -24 -45 -24z" />
    <glyph glyph-name="equal" unicode="=" horiz-adv-x="653" 
d="M383 391q-178 0 -178 77q0 36 18 57t60 12l14 -7l14 -2q6 0 22 -4t64 -4q188 0 340 49q21 4 35 4t26 -9q12 -8 10 -32q-8 -61 -215 -112q-116 -29 -210 -29zM696 346h15q31 0 31 -32t-35 -62q-37 -28 -139 -54t-185 -26q-182 0 -182 78q0 68 47 67h20l13 -6h12
q8 -2 14 -5t98 -8q91 -4 181 22t110 26z" />
    <glyph glyph-name="greater" unicode="&#x3e;" horiz-adv-x="702" 
d="M823 441q1 -51 -27 -73t-104 -33t-307 -59q-83 -14 -105 -14t-42 24t-20 66t41 58q42 16 126 30t188 33q-37 9 -126 35t-144 39q-68 14 -67 65q0 55 53 56q25 0 83 -20t223 -60q165 -41 197 -68t31 -79z" />
    <glyph glyph-name="question" unicode="?" horiz-adv-x="606" 
d="M309 58q-1 32 23 54t63 23q39 -1 78 -27t39 -59q0 -57 -84 -57q-43 0 -55 2t-38 17t-26 47zM682 504q0 -31 -45 -64q-45 -32 -99 -32t-108 41q-53 41 -53 90q0 133 268 360q289 250 289 381q0 45 -53 49t-117 -30q-128 -68 -186 -205q-8 -20 -28 -34t-38 -16
q-43 0 -43 62q0 116 134 230t271 114q84 0 148 -55q39 -35 39 -111q0 -115 -127 -272q-38 -46 -234 -238t-196 -218t39 -26q4 0 53 7l45 6q41 0 41 -39z" />
    <glyph glyph-name="at" unicode="@" horiz-adv-x="1253" 
d="M985 797q-51 -27 -118 -118t-74 -144q63 47 118 121t68 128zM1036 539q0 -45 76 -45q121 0 193 70t71 190q0 154 -115 257q-116 103 -288 103q-207 0 -349 -142t-143 -347q0 -283 250 -394q143 -63 303 -63q74 0 126 18t74 17q20 0 36 -22t16 -48q0 -88 -250 -88
q-322 0 -507 156t-185 421t183 447t429 182t399 -142t152 -355q0 -160 -106 -262t-273 -103q-72 0 -124 26q-71 36 -76 107q-92 -102 -156 -102q-43 0 -70 31q-73 84 62 271q135 188 242 187q42 -1 70 -29t28 -64t-17 -62v-13q-3 -8 -27 -80t-24 -122z" />
    <glyph glyph-name="A" unicode="A" horiz-adv-x="958" 
d="M928 1118l-342 -477q72 18 227 53q13 58 24 96q11 39 13 48l24 98q2 10 8 30zM1039 1450q32 0 72 -34t40 -59t-42 -149q-43 -124 -79 -270q-36 -147 -49 -197q45 11 73 21t42 10t24 -10t10 -22t-12 -32q-12 -22 -36 -34t-70 -26t-60 -21q-56 -234 -75 -409t-15 -224
t4 -60q0 -10 -12 -24t-29 -14q-47 0 -67 68q-52 175 26 609l-73 -20q-153 -43 -181 -48q-29 -5 -43 -9q-110 -169 -196 -310l-68 -112q-16 -31 -28 -56q-12 -34 -41 -34t-63 28t-34 55t26 69t117 178t95 143q-33 -4 -67 -9q-34 -6 -63 -6q-31 0 -53 26t-22 68t37 42h8l60 -5
q20 0 206 33l267 365q90 125 168 233t111 155q34 48 36 50q8 27 16 34t40 7z" />
    <glyph glyph-name="B" unicode="B" horiz-adv-x="1136" 
d="M621 1055q-1 -41 -61 -41t-95 26t-35 63q0 38 36 88t89 85q145 88 258 135q-4 20 -4 23q0 55 51 55q45 0 66 -33q126 35 236 35t188 -56t78 -162t-117 -229q-57 -61 -178 -147q188 -78 188 -256q0 -236 -252 -426q-307 -231 -688 -231q-133 0 -197 49q-47 41 -47 88
t41 47q14 0 47 -16q80 -46 210 -46t283 60t273 164q180 156 180 311q0 70 -42 109t-117 38l-135 -20q-33 0 -55 27t-22 61t16 44q14 11 86 38t162 87t158 126q68 65 68 135t-155 70q-106 0 -187 -33q-76 -247 -229 -603t-184 -446t-53 -122t-52 -31q-30 -1 -54 25t-24 50
t90 234q233 570 280 686q46 115 56 139q-217 -117 -213 -151v-2l25 -15q31 -12 31 -32z" />
    <glyph glyph-name="C" unicode="C" horiz-adv-x="935" 
d="M436 117q72 -1 195 65t229 162q35 31 113 117l31 31q16 16 28 16q41 0 41 -53q0 -86 -164 -240q-248 -231 -468 -231q-107 0 -179 88t-72 227q0 250 261 655q141 221 293 353q153 131 268 131q41 0 83 -23t58 -55q27 -40 27 -106t-24 -105t-51 -39q-52 0 -52 47l2 31
l6 39q-1 25 -21 49t-43 22q-23 0 -77 -34t-99 -76q-104 -94 -219 -274q-252 -396 -254 -660q0 -137 88 -137z" />
    <glyph glyph-name="D" unicode="D" horiz-adv-x="1200" 
d="M343 850q-44 0 -84 28t-40 66q0 78 77 186t193 191q229 166 482 166q10 0 76 -4q6 51 47 51q53 0 77 -82q123 -47 187 -109q150 -151 150 -351t-125 -400q-124 -200 -353 -367q-338 -246 -647 -245q-145 0 -236 52q-90 52 -90 136q0 57 39 57q14 0 22 -8t36 -49
q39 -59 194 -59q156 -1 334 73t343 207t262 297t97 322t-116 258q-41 35 -123 61q-137 -319 -254 -563t-157 -336t-68 -195q-10 -47 -41 -47q-23 0 -40 20t-18 46q0 147 224 629q100 215 147 331t61 146h-20q-211 0 -408 -148q-98 -74 -160 -144t-63 -105q0 -8 8 -19
q9 -10 15 -10l49 4q6 0 17 -10t11 -24t-30 -34q-31 -18 -75 -18z" />
    <glyph glyph-name="E" unicode="E" horiz-adv-x="995" 
d="M742 1489q32 0 59 -53q98 12 216 12q117 0 229 -30t112 -75q0 -39 -39 -38q-10 0 -96 13q-87 13 -179 13t-253 -26q-43 -133 -66 -189t-113 -250q104 16 164 17q254 0 254 -97q0 -37 -47 -36q-9 0 -45 8t-107 8t-286 -35q-17 -43 -67 -141t-87 -176q-35 -66 -77 -157
t-56 -116q174 55 344 55t280 -35q110 -36 109 -93q0 -27 -30 -27q-8 1 -83 15q-74 14 -172 14t-223 -18t-193 -43q-68 -24 -93 -23q-49 0 -79 45t-30 67q0 70 287 619q-33 33 -33 67q0 51 74 54h14q113 213 201 426q-46 -11 -62 -21l-57 -37q-46 -28 -66 -28t-44 28t-23 64
q0 43 65 65q45 18 73 27q29 10 61 24t102 31q10 47 20 59t42 13z" />
    <glyph glyph-name="F" unicode="F" horiz-adv-x="860" 
d="M1107 928q26 0 26 -30t-41 -64t-318 -142q-118 -278 -150 -358t-55 -133q-45 -121 -79 -167t-78 -46t-45 49q0 49 45 146t127 306l55 144q-29 -8 -37 -8q-121 -33 -173 -33t-88 22t-36 52q0 29 13 45t25 16t34 -6t65 -6q43 1 121 25t135 38q23 50 65 150t83 195t80 188
q-162 -39 -362 -123q-201 -84 -243 -84t-72 24t-30 58q0 33 45 49q469 162 766 220t434 58q47 0 80 -17t33 -43t-23 -35t-97 -10t-355 -52q-74 -174 -226 -522q250 94 276 94z" />
    <glyph glyph-name="G" unicode="G" horiz-adv-x="1007" 
d="M357 -8q-77 0 -131 68t-54 190t91 342t235 428q295 422 524 422q82 0 129 -74q35 -53 35 -102t-21 -105q-23 -45 -67 -45q-18 0 -31 14q-12 14 -12 30t2 20l8 57q-1 20 -21 42t-38 21q-58 0 -162 -95t-226 -265t-216 -382t-93 -333q-1 -33 17 -59t41 -25q53 0 178 88
q125 87 235 199t166 207q-260 -70 -315 -70q-68 0 -68 74t68 78q83 3 241 33t164 30q33 0 63 -36q29 -36 29 -66t-24 -73q-24 -44 -99 -211t-75 -322q0 -66 9 -102t9 -48t-11 -24t-28 -13q-45 0 -78 72t-33 153t19 181q-203 -183 -293 -241t-167 -58z" />
    <glyph glyph-name="H" unicode="H" horiz-adv-x="894" 
d="M1126 713q-16 0 -94 6q-168 -383 -223 -527t-76 -258q-8 -78 -43 -77q-27 0 -43 37q-16 38 -16 102t35 194q26 113 149 394l57 127q-178 -23 -387 -84l-135 -324q-43 -106 -54 -138q-10 -32 -26 -108t-53 -75q-23 0 -39 28t-16 66q0 135 108 411l31 82q-133 -34 -160 -34
q-28 1 -51 25t-22 63q0 61 61 61h47q34 0 68 10t48 14t38 8q23 5 39 9l90 197q59 128 114 288t62 217q12 57 53 57t66 -30q24 -31 24 -79q0 -49 -58 -199t-71 -175l-100 -231q209 49 373 53q143 332 163 473q8 55 54 56q33 0 57 -29t25 -68q0 -78 -146 -440q119 -25 119 -63
t-68 -39z" />
    <glyph glyph-name="I" unicode="I" horiz-adv-x="335" 
d="M651 1501q31 -1 56 -29t24 -65q0 -80 -72 -266t-315 -746q-86 -189 -106 -297t-99 -108q-51 0 -51 72t46 200q46 127 196 467t204 480q52 140 66 233q10 59 51 59z" />
    <glyph glyph-name="J" unicode="J" horiz-adv-x="675" 
d="M791 1370q-250 0 -250 -33q0 -6 8 -14q41 -27 41 -51q0 -39 -45 -39q-68 0 -142 47t-73 92q0 56 73 72t217 30t222 15q248 0 248 -68q0 -20 -20 -58t-64 -155l-99 -288q-289 -838 -475 -1215q-131 -258 -254 -391q-76 -82 -142 -82t-104 80q-39 80 -38 221q0 319 321 748
q88 121 163 195q74 74 104 73q30 0 30 -31q0 -18 -16 -40t-98 -117t-164 -247q-205 -376 -203 -636q0 -86 32 -86q43 0 183 256q63 119 99 204q37 84 267 672t253 674t23 116t-20 43t-77 13z" />
    <glyph glyph-name="K" unicode="K" horiz-adv-x="1019" 
d="M146 -12q-24 0 -48 26t-24 72q0 48 49 150t86 202t137 332q205 473 217 582q14 80 68 80q27 0 49 -27t22 -57q0 -115 -225 -639q-23 -49 -110 -265q311 371 526 570q322 293 440 293q29 1 48 -15t19 -41t-46 -47q-225 -115 -596 -518q0 -266 77 -472t193 -253
q49 -27 49 -47t-19 -34t-62 -15q-43 0 -112 48t-116 120q-133 206 -156 493l-104 -120q-176 -219 -254 -322l-31 -37q-29 -39 -41 -49t-36 -10z" />
    <glyph glyph-name="L" unicode="L" 
d="M684 1382q0 -227 -438 -1245q117 23 245 23t214 -35t86 -96q0 -31 -37 -31q-14 0 -66 16t-178 16q-125 0 -248 -32q-66 -14 -76 -14q-43 0 -81 39q-37 39 -37 73t59 168l362 905q20 45 38 127q17 82 19 136t52 55q38 0 62 -29t24 -76z" />
    <glyph glyph-name="M" unicode="M" horiz-adv-x="1300" 
d="M905 1532q37 0 73 -35t36 -67t-34 -118t-239 -589q-25 -57 -55 -177t0 -120q43 0 219 274t375 650q25 45 61 45q37 0 67 -31q30 -32 30 -60t-21 -83q-35 -111 -107 -458t-73 -502q0 -155 41 -294q6 -25 6 -39q0 -32 -38 -32t-66 47q-88 147 -88 403q0 118 18 230t78 350
q-262 -457 -336 -541q-41 -47 -101 -80t-106 -33q-129 0 -129 177q0 94 68 292q-274 -475 -348 -610l-17 -43l-14 -55q-12 -43 -49 -43t-64 24t-26 54q0 90 383 692q165 264 249 414l90 165q42 73 70 158q10 35 47 35z" />
    <glyph glyph-name="N" unicode="N" horiz-adv-x="886" 
d="M281 82v-47q0 -49 -52 -49q-92 0 -92 131q0 161 196 644q245 605 257 621t45 16t69 -33q36 -34 35 -73l-6 -264q0 -502 43 -782q22 52 62 170t153 381q35 90 76 180l100 258q39 98 61 175t36 94q14 18 43 18t53 -27t22 -67q-1 -64 -241 -647q-241 -582 -256 -675
q-9 -45 -21 -111t-63 -67q-57 0 -93 68t-65 218t-35 268t-10 538q-207 -518 -236 -607t-55 -197t-26 -134z" />
    <glyph glyph-name="O" unicode="O" horiz-adv-x="774" 
d="M340 209q0 -88 53 -88q59 0 144 67q83 68 175 200t154 316q62 182 64 326q0 144 -29 232q-29 90 -70 90q-33 0 -63 -94t-31 -182q1 -89 17 -145q16 -57 16 -69t-13 -23t-30 -12q-88 0 -113 162q-274 -514 -274 -780zM823 1493q111 0 175 -120q64 -121 65 -333
q0 -212 -84 -440t-227 -393q-193 -221 -367 -221q-90 0 -148 68q-59 68 -59 169q0 103 54 281t126 307l209 377q17 31 25 38t35 19q39 248 196 248z" />
    <glyph glyph-name="P" unicode="P" horiz-adv-x="755" 
d="M1061 1227q1 80 -59 134t-144 54q-14 0 -55 -4q-127 -317 -285 -643q94 18 140 36t116 64q287 193 287 359zM137 776q13 0 23 -7t10 -17q0 -29 -36 -53q-36 -23 -90 -23t-104 42q-48 42 -48 114t85 195q85 124 215 225q130 102 233 158t232 95q4 55 56 56q51 0 63 -29
q111 0 152 -6t80 -27q190 -94 190 -291q0 -86 -39 -160t-129 -159q-118 -106 -270 -177t-268 -71q-2 0 -35 4q-227 -520 -228 -569q-6 -52 -17 -72t-40 -20q-30 0 -56 34t-26 86q0 50 106 310t233 516q126 256 157 330t49 106q-176 -70 -299 -166t-221 -213t-99 -170
q0 -41 121 -41z" />
    <glyph glyph-name="Q" unicode="Q" horiz-adv-x="839" 
d="M927 -102q-125 0 -225 188q-129 -98 -228 -98t-171 93t-72 225t68 346t144 344q77 130 171 262q94 134 134 172t72 38t66 -19t34 -37t-18 -39q-18 -22 -97 -101q-156 -160 -292 -473t-136 -514q-1 -72 25 -116t71 -44q70 0 172 92l-20 64q-6 18 -14 41q-7 23 -16 53
q-9 29 -31 75t-21 70q0 24 19 39q19 16 56 16q65 0 76 -56t49 -191q90 135 137 229q46 93 92 247t46 276t-43 122q-33 0 -82 -59t-73 -119t-50 -61q-39 0 -39 61q0 92 100 227q45 59 77 81t71 22q70 0 112 -69t42 -183q0 -250 -99 -522q-78 -211 -237 -402q41 -94 63 -126
t62 -66q41 -34 41 -48q1 -16 -13 -28t-23 -12z" />
    <glyph glyph-name="R" unicode="R" horiz-adv-x="944" 
d="M848 1274h-14q-74 -184 -91 -219q-12 -37 -58 -143t-56 -136q-25 -53 -47 -100q197 29 372 145q203 131 203 260q0 85 -86 139t-223 54zM210 -12q-25 0 -43 15q-17 15 -17 33t14 54q377 846 495 1151q-139 -53 -222 -106t-161 -133t-77 -107q0 -10 4 -13q5 -2 29 -14
t24 -39q0 -39 -57 -39t-99 38q-41 38 -41 85q0 90 179 232q201 156 462 235q18 50 58 50t73 -35q45 4 50 4q139 0 264 -68q147 -80 147 -248t-158 -306t-442 -218q47 -203 139 -386t170 -224q51 -27 52 -55q-1 -18 -17 -32q-52 -43 -156 34q-67 47 -120 120
q-126 181 -230 541l-157 -352q-53 -123 -69 -150t-42 -47q-27 -20 -52 -20z" />
    <glyph glyph-name="S" unicode="S" horiz-adv-x="724" 
d="M344 733q55 0 55 -47q1 -28 -59 -54t-86 -52q-59 -59 -59 -136q0 -129 101 -226t212 -97q66 0 94 37t27 127q0 89 -30 421t-30 451q0 381 185 381q84 0 142 -71t58 -173q0 -51 -28 -91t-60 -40q-33 -1 -41 15t-8 77q0 115 -41 115q-27 0 -34 -39t-21 -272q-3 -31 23 -363
t26 -413q0 -139 -70 -218t-194 -79q-182 0 -315 137q-132 137 -132 326q0 145 166 247q64 37 119 37z" />
    <glyph glyph-name="T" unicode="T" horiz-adv-x="718" 
d="M100 1159q0 35 58 61q144 64 796 224q313 76 533 76q145 0 145 -60q0 -37 -73 -43q-215 -17 -328 -33t-303 -61q14 -6 29 -32q15 -27 15 -49t-50 -130q-365 -823 -404 -1018q-10 -59 -28 -84q-18 -24 -47 -24q-30 0 -50 26t-20 84q0 121 157 486t225 527q69 162 81 189
q-238 -70 -320 -106t-94 -44q-12 -9 -14 -30q0 -4 -30 -19q-108 -54 -161 -53q-53 2 -85 40t-32 73z" />
    <glyph glyph-name="U" unicode="U" horiz-adv-x="978" 
d="M319 -6q-71 0 -111 56t-40 128q0 144 58 294q58 149 302 687q41 94 72 205q18 70 62 70q40 0 74 -27t34 -50t-27 -85t-145 -320q-118 -256 -140 -312t-74 -213t-52 -216t28 -59q41 0 146 104q104 104 198 238t147 227q55 95 171 339t132 289t32 65q18 20 48 22
q30 0 60 -27t29 -48q0 -21 -34 -94t-238 -495q-150 -309 -150 -528q0 -131 53 -236q18 -32 -2 -49q-20 -16 -41 -16q-65 0 -113 81t-48 275q0 39 6 66q-285 -371 -437 -371z" />
    <glyph glyph-name="V" unicode="V" horiz-adv-x="516" 
d="M410 1356q0 25 13 42t30 17q109 0 108 -180q0 -127 -39 -358t-96 -453q256 473 569 831q141 162 208 215q67 54 125 54t58 -41q0 -29 -43 -53q-141 -90 -373 -406t-448 -713q-162 -309 -184 -323q-10 -8 -42 -8t-74 40t-42 68q0 30 34 138t116 481t82 557q0 50 -2 79v13z
" />
    <glyph glyph-name="W" unicode="W" horiz-adv-x="1144" 
d="M315 -6q-125 0 -125 160q0 116 65 328t153 395q260 530 294 579q25 31 58 31q34 0 62 -28t28 -60q0 -15 -95 -153t-164 -295t-152 -426t-83 -307t23 -38q10 0 18 8t115 173t145 231q92 155 158 371q23 72 68 71q33 0 55 -26t20 -59q0 -32 -26 -138q-70 -262 -70 -528
q0 -182 56 -183q45 0 101 96t101 246q80 264 80 525q0 75 -7 107t-50 155q-4 20 -4 26q0 35 36 71t72 36q96 0 96 -416t-176 -756q-117 -221 -256 -221q-96 0 -151 90t-55 246q0 27 4 109q-184 -302 -282 -378q-54 -42 -112 -42z" />
    <glyph glyph-name="X" unicode="X" horiz-adv-x="841" 
d="M543 1405q1 31 57 31t88 -62q23 -39 24 -131q1 -91 4 -161t7 -177q199 207 272 278q74 71 176 150q184 143 244 144q39 0 39 -33q0 -14 -22 -36t-105 -87q-152 -113 -590 -614q51 -537 103 -738v-12q0 -43 -43 -43q-35 0 -57 28t-48 105q-57 170 -86 488
q-92 -111 -191 -276t-112 -226q-8 -39 -49 -39t-73 29q-31 29 -31 65t104 200t332 453l-43 648v16z" />
    <glyph glyph-name="Y" unicode="Y" horiz-adv-x="514" 
d="M1168 1460q30 0 59 -26t29 -50t-26 -53t-116 -107t-236 -286q-146 -207 -264 -425t-150 -299q-34 -81 -93 -282q-12 -39 -41 -38q-20 0 -40 27q-19 28 -20 59q0 86 82 319q32 84 146 309q-51 90 -68 167q-16 77 -16 199t19 256q19 136 19 187t50 51q37 0 75 -30
q37 -30 37 -61q0 -30 -14 -101q-15 -49 -29 -213t-14 -208t12 -128q72 135 149 243t209 263t171 191q40 36 70 36z" />
    <glyph glyph-name="Z" unicode="Z" horiz-adv-x="876" 
d="M1196 1354q0 -104 -172 -316q-23 -28 -255 -280t-390 -428t-162 -185q150 37 285 37q134 0 242 -38t108 -89q0 -18 -22 -36t-91 6t-195 24t-306 -51q-49 -12 -64 -12q-43 0 -83 48t-40 93t55 126t429 469t481 544q33 45 33 54q-1 9 -11 9t-140 -40t-223 -40t-143 34
q-49 34 -49 87t49 53l142 -20q35 0 175 28q141 27 211 27t103 -28t33 -76z" />
    <glyph glyph-name="bracketleft" unicode="[" horiz-adv-x="757" 
d="M507 164q95 0 176 -36t81 -89q0 -31 -37 -31q-2 0 -27 6q-74 27 -171 27t-261 -41q-16 -4 -30 -4q-45 0 -82 38t-37 70q1 32 25 86q24 56 52 119t128 283q101 220 194 489q92 270 90 355q2 59 70 59q44 1 136 -23t195 -24t173 27q25 6 28 6q35 0 35 -31q0 -53 -79 -89
t-177 -36t-252 29q-36 -275 -448 -1215q123 25 218 25z" />
    <glyph glyph-name="backslash" unicode="\" horiz-adv-x="1738" 
d="M510 1128q28 0 204 -98q175 -98 437 -323t416 -420t157 -279q0 -39 -30 -56q-62 -36 -88 -3q-12 14 -43 91q-31 76 -199 270t-297 308q-137 125 -308 248t-267 168q-39 18 -39 42q-1 52 57 52z" />
    <glyph glyph-name="bracketright" unicode="]" horiz-adv-x="706" 
d="M635 -4q-41 0 -135 24t-197 23q-104 0 -172 -25q-25 -6 -29 -6q-35 0 -34 31q0 53 79 88t177 35t251 -29q35 272 449 1217q-122 -25 -218 -25t-176 35t-81 88q0 31 37 31q2 0 26 -6q80 -25 178 -25t254 39q20 4 31 4q45 0 83 -38q38 -37 38 -69t-24 -84t-54 -118
t-67 -154l-56 -123q-109 -229 -199 -500t-89 -354q-6 -59 -72 -59z" />
    <glyph glyph-name="asciicircum" unicode="^" horiz-adv-x="516" 
d="M503 889q-24 0 -40 16q-34 34 6 119q12 27 141 350q39 94 65 124t78 30t73 -18q22 -18 30 -70q8 -53 15 -174q7 -120 15 -182t9 -95q0 -33 -23 -57q-24 -24 -62 -25q-38 0 -56 25t-20 68t-10 108q-7 65 -15 174q-37 -92 -97 -226t-72 -150q-13 -16 -37 -17z" />
    <glyph glyph-name="grave" unicode="`" horiz-adv-x="397" 
d="M743 981q-55 0 -114 68q-113 125 -113 192q0 25 24 45t54 20t44 -12q14 -14 24 -44t22 -50l31 -55q29 -39 56 -73t27 -48q0 -16 -16 -30t-39 -13z" />
    <glyph glyph-name="a" unicode="a" 
d="M727 743q-79 0 -195 -133t-187 -255t-71 -179q0 -31 31 -31q19 1 83 55t122 117q98 117 134 181t71 161q12 33 49 39q0 45 -37 45zM276 -6q-70 0 -112 51t-43 131q0 124 134 312t262 291t207 103t124 -46q45 -47 45 -115q0 -33 -37 -98q6 -15 6 -23t-8 -25
q-94 -236 -94 -393q0 -47 33 -135q4 -17 4 -31q1 -14 -17 -30q-46 -42 -106 16q-60 59 -62 182q0 37 2 66q-209 -256 -338 -256z" />
    <glyph glyph-name="b" unicode="b" horiz-adv-x="585" 
d="M641 813q59 0 98 -44t39 -126t-57 -210t-154 -243q-170 -203 -297 -202q-72 0 -114 62t-43 163q0 211 178 594q20 43 131 251q112 208 128 232t42 23q26 0 54 -29q26 -29 26 -56t-25 -71q-174 -269 -288 -545t-113 -428q0 -59 47 -59q29 0 92 54t121 132t100 173
q41 95 41 155q0 25 -18 25q-27 0 -67 -72t-56 -160q-6 -24 -32 -24t-42 11t-30 42q-13 31 -8 67t47 113q41 78 91 125t109 47z" />
    <glyph glyph-name="c" unicode="c" horiz-adv-x="604" 
d="M600 250q16 0 28 -16t11 -33q-1 -41 -101 -126t-201 -85t-159 60t-59 154q0 94 95 249q94 155 232 279t218 124q106 0 106 -84q0 -72 -51 -72q-19 0 -29 14t-22 13q-46 0 -152 -112q-106 -111 -176 -233t-70 -191t58 -68q102 0 233 106q23 21 39 21z" />
    <glyph glyph-name="d" unicode="d" horiz-adv-x="815" 
d="M672 625q-6 78 -47 77q-33 0 -131 -110t-160 -226q-61 -116 -62 -188q0 -25 17 -24q72 0 383 471zM1098 1425q28 1 54 -25t26 -56t-50 -117q-135 -219 -256 -559q-90 -262 -90 -490q0 -63 14 -96t13 -44q0 -10 -16 -26t-40 -16t-51 20t-45 58t-18 120q0 80 10 166
q-119 -168 -227 -268t-169 -100q-60 0 -98 46t-38 126t59 209t160 256q184 229 313 229q39 0 63 -20q23 -21 48 -74q29 63 63 138q35 75 121 251t86 203q16 39 28 54t40 15z" />
    <glyph glyph-name="e" unicode="e" horiz-adv-x="634" 
d="M657 702q0 30 -25 31q-12 0 -62 -45t-88 -91t-126 -179h41q74 -2 203 162q20 24 38 66t19 56zM264 200q0 -46 12 -60t67 -13q55 0 111 29t110 79t70 50q18 1 30 -13t12 -28q0 -78 -126 -164t-222 -86t-154 61q-59 61 -59 142q0 145 159 358q104 137 208 221t169 84
q66 0 102 -37t35 -102q0 -100 -96 -229q-162 -207 -323 -207q-33 0 -80 12q-25 -51 -25 -97z" />
    <glyph glyph-name="f" unicode="f" horiz-adv-x="358" 
d="M772 907q35 0 35 -30q0 -23 -11 -33q-41 -38 -315 -107l-245 -581q-84 -197 -114 -288l-50 -149q0 -60 -20 -81t-36 -21q-57 0 -57 88q-1 89 63 267t295 741h-16q-104 0 -104 82q0 29 13 48t34 19l82 -6l55 2q143 296 214 410t129 170t110 55q52 0 80 -44q30 -44 30 -124
q0 -79 -66 -187t-118 -108q-31 0 -31 31q0 16 26 51q27 36 49 100t22 107t-15 43q-20 0 -105 -156t-165 -338l71 13q45 8 71 11q27 3 53 9t36 6z" />
    <glyph glyph-name="g" unicode="g" horiz-adv-x="636" 
d="M571 603q0 25 31 53t31 51q-107 -55 -277 -269t-170 -293q0 -16 16 -16t87 64q121 106 260 282q6 6 59 72q-37 31 -37 56zM45 115q1 119 139 315t284 315t243 119q35 0 61 -26t27 -78q0 -52 -49 -127q51 -16 51 -43q0 -16 -27 -58l-12 -24q-39 -102 -138 -372
q-100 -270 -154 -414t-135 -288q-224 -399 -415 -399q-66 1 -102 49t-37 139q0 91 54 214t147 231q158 184 225 185q43 0 43 -35q0 -12 -9 -24t-65 -71q-56 -60 -160 -225t-104 -286q0 -59 22 -60q27 0 84 53q113 104 281 463q112 238 225 588q-70 -84 -144 -150t-120 -90
q-45 -24 -97 -22q-52 0 -85 32t-33 89z" />
    <glyph glyph-name="h" unicode="h" horiz-adv-x="829" 
d="M200 -6q-40 0 -73 35t-33 88q0 111 124 369t248 461q124 204 145 244q22 40 40 91q13 45 55 45q42 1 70 -23t29 -51q0 -27 -41 -97q-42 -70 -264 -438q-222 -366 -242 -513q72 76 195 227q164 209 244 295q81 86 114 86t59 -31q26 -30 27 -68q0 -38 -27 -112
q-109 -272 -108 -434q0 -76 49 -137q20 -27 20 -43q0 -54 -60 -54t-99 50q-51 59 -51 180t59 358q-8 -10 -20 -24t-15 -19l-29 -37q-203 -258 -346 -415q-30 -33 -70 -33z" />
    <glyph glyph-name="i" unicode="i" horiz-adv-x="372" 
d="M668 1049q-37 -1 -71 27t-34 60q1 32 21 55t56 23t71 -30t35 -65q0 -34 -21 -52q-20 -18 -57 -18zM217 -8q-41 0 -70 40t-28 99q0 106 65 262q59 151 120 263t71 141q16 59 53 63q33 2 65 -26q31 -28 31 -57q0 -30 -35 -86t-103 -199q-68 -142 -100 -234
q-34 -92 -34 -182l8 -51q0 -13 -13 -23t-30 -10z" />
    <glyph glyph-name="j" unicode="j" horiz-adv-x="571" 
d="M733 1196q66 0 68 -49q0 -25 -35 -69t-48 -53t-38 -9t-44 20q-20 20 -20 55t41 70t76 35zM-401 -750q0 221 182 453q137 174 203 174q35 0 34 -29q0 -8 -14 -30q-144 -180 -204 -318t-60 -291q0 -57 27 -57q18 0 34 18t74 97q127 178 465 1040q63 164 86 234t66 245
q6 33 42 33q36 -1 69 -25q32 -24 32 -57q1 -33 -51 -189t-109 -290l-280 -666q-162 -389 -371 -553q-29 -23 -82 -23t-98 71q-45 70 -45 163z" />
    <glyph glyph-name="k" unicode="k" horiz-adv-x="806" 
d="M881 854q18 0 30 -14q13 -14 13 -38t-18 -43t-114 -87q-98 -68 -134 -100q-36 -30 -74 -76q-8 -115 43 -244t121 -168q40 -29 40 -52q0 -24 -18 -36t-45 -12q-84 0 -174 106q-25 34 -61 108t-48 156q-88 -98 -118 -141t-66 -96q-34 -53 -59 -90q-15 -33 -51 -33t-60 20
t-22 50q0 30 154 434t236 600q83 197 96 216t40 19q28 -1 56 -31t28 -50t-71 -174q-71 -153 -135 -317q-64 -165 -84 -211t-44 -108q114 115 180 174q66 58 194 148t165 90z" />
    <glyph glyph-name="l" unicode="l" horiz-adv-x="339" 
d="M652 1413q24 0 52 -30q28 -31 27 -61q0 -30 -39 -98t-129 -269q-274 -609 -274 -787q0 -60 17 -90t18 -39q0 -47 -54 -47t-85 52q-79 128 45 475q6 13 10 27t11 32t12 31t18 41q12 28 20 48q7 20 27 64t34 77q14 35 44 101q170 370 182 442q2 12 20 22q20 9 44 9z" />
    <glyph glyph-name="m" unicode="m" horiz-adv-x="1099" 
d="M1063 -9q0 -38 -64 -38q-34 0 -79 45q-120 108 2 459q-162 -182 -312 -383q-33 -52 -52 -68t-49 -16q-31 0 -57 30t-26 64q0 68 133 344q33 66 55 121q-194 -205 -286 -326t-117 -203q-12 -36 -48 -36t-67 32q-30 32 -30 65q0 31 40 109t136 310t107 274q11 44 23 60
t29 16q46 0 71 -43t26 -68q0 -53 -105 -221q-2 -2 -35 -72q238 258 307 326t97 68t54 -33q24 -33 24 -70t-25 -93t-127 -261q234 244 302 333q68 88 92 110t48 22t44 -31q32 -53 32 -76t-39 -97t-101 -220q-62 -145 -62 -242q0 -45 6 -65q6 -21 30 -65t23 -61z" />
    <glyph glyph-name="n" unicode="n" horiz-adv-x="800" 
d="M152 -12q-36 0 -63 34q-26 34 -26 70t38 120q39 83 139 286q100 204 112 234t16 62q7 63 56 62q35 0 68 -31q32 -31 32 -63t-21 -79q-21 -48 -169 -304q207 188 344 344q72 80 92 98q20 19 48 19t48 -33q43 -71 -8 -191q-117 -274 -117 -448q1 -36 7 -58t29 -63t23 -58
t-14 -27q-16 -10 -48 -11q-32 0 -83 45q-57 56 -57 156t12 159t60 224l-275 -285q-131 -138 -146 -160t-24 -41q-37 -61 -73 -61z" />
    <glyph glyph-name="o" unicode="o" horiz-adv-x="649" 
d="M262 197q0 -76 45 -76q29 0 78 38t96 99q133 172 133 346q0 129 -49 129q-10 0 -16 -6l-25 -43q-10 -27 -35 -47q-70 -61 -127 -160q-100 -172 -100 -280zM762 641q0 -86 -40 -200t-108 -216t-158 -169q-91 -66 -172 -66t-129 54t-49 140q0 195 168 412q39 52 64 72
t84 55q0 2 12 36t62 67q49 33 94 32q74 0 123 -66t49 -151z" />
    <glyph glyph-name="p" unicode="p" horiz-adv-x="692" 
d="M690 672q-20 0 -40 -24t-95 -99q-74 -75 -120 -139t-128 -220q10 -72 51 -71q68 0 155 86t147 208t61 216q0 43 -31 43zM729 811q31 0 62 -17q71 -39 70 -146t-51 -233t-126 -212q-186 -211 -354 -211q-53 0 -111 49q-74 -151 -157 -357t-99 -280q-10 -41 -38 -41
q-29 0 -51 33t-22 79t46 170q44 123 234 573t199 516t18 81q9 16 32 16q80 0 80 -88q0 -59 -23 -135q82 94 119 123q96 80 172 80z" />
    <glyph glyph-name="q" unicode="q" horiz-adv-x="720" 
d="M590 227q-254 -235 -352 -235q-62 0 -99 40t-37 101q0 182 291 467q258 258 387 258q51 0 87 -32t36 -76q0 -82 -61 -82q-14 0 -19 7q-4 7 -8 32q-4 20 -33 20q-63 0 -252 -188q-114 -113 -198 -228t-84 -145t22 -31q55 0 280 208q224 208 257 290q14 31 41 31
q28 0 52 -27t24 -61t-148 -291q-41 -61 -171 -353t-165 -405q-43 -119 -51 -229q0 -66 -47 -66q-25 0 -45 28t-21 91q0 121 84 357q85 236 230 519z" />
    <glyph glyph-name="r" unicode="r" horiz-adv-x="532" 
d="M850 812q0 -20 -13 -32q-13 -10 -96 -37q-153 -90 -289 -267t-241 -421q-29 -63 -68 -63t-59 19t-20 46t49 123q94 215 149 390t47 227q0 43 33 43q32 0 60 -44t28 -84t-2 -61q102 104 154 142q104 74 196 73q28 0 50 -17t22 -37z" />
    <glyph glyph-name="s" unicode="s" horiz-adv-x="491" 
d="M180 322l-14 -64q0 -51 51 -90t117 -39q23 0 22 14q0 4 -15 45t-33 151q-17 110 -17 171q0 154 63 291q63 127 152 127q51 0 87 -39t36 -88t-27 -77t-39 -28h-24q-17 0 -17 18t2 25v9q0 18 -16 18q-22 0 -44 -100t-22 -228t30 -230q30 -100 30 -134t-34 -58
q-34 -25 -93 -24q-150 0 -262 90q-72 59 -72 133t43 127q20 20 44 20t38 -14t14 -26z" />
    <glyph glyph-name="t" unicode="t" horiz-adv-x="321" 
d="M269 723q-95 0 -95 61q0 35 18 57t52 21l78 -4q61 6 79 8q93 183 193 396q2 8 16 41q10 31 44 31t65 -30t31 -54t-25 -68q-115 -201 -160 -289l92 18q43 6 58 15q43 12 49 12q29 0 29 -37q0 -29 -88 -71t-115 -50q-27 -10 -92 -24q-28 -57 -46 -101t-48 -109
q-152 -329 -152 -442l14 -63q0 -49 -41 -49q-96 0 -96 149q0 84 28 171q28 88 96 238t79 177q-20 -4 -63 -4z" />
    <glyph glyph-name="u" unicode="u" horiz-adv-x="843" 
d="M125 129q0 166 187 550q73 149 90 167q18 18 52 18t56 -19q38 -32 12 -83q-70 -100 -160 -308t-90 -264q0 -84 174 123t260 351t102 166t44 22t60 -31t32 -59t-55 -114q-55 -85 -96 -213q-41 -129 -41 -197t12 -99t40 -65t27 -50q0 -16 -17 -32q-52 -45 -127 37t-75 217
q0 37 6 94q-209 -263 -292 -320q-45 -31 -90 -30q-111 0 -111 139z" />
    <glyph glyph-name="v" unicode="v" horiz-adv-x="503" 
d="M220 -8q-38 0 -70 39t-33 67q0 28 22 130q22 100 45 292t6 283q-4 21 -4 33t20 26t52 14q33 0 62 -29q55 -57 2 -435q-3 -17 -13 -76q121 180 194 268t168 171t133 105t66 22q53 -1 56 -38q0 -10 -8 -24q-2 -2 -117 -95q-137 -139 -231 -267t-253 -390q-59 -96 -97 -96z
" />
    <glyph glyph-name="w" unicode="w" horiz-adv-x="1015" 
d="M117 133q0 145 157 430q76 143 172 271q18 24 43 24t49 -29t24 -52t-25 -50q-59 -61 -167 -296t-108 -261t19 -25q35 0 129 110t159 214q20 35 41 117q12 51 54 51t78 -35q34 -35 34 -65t-26 -95t-52 -158q-47 -173 -2 -171q37 0 88 51q92 94 150 230q57 136 57 234
t-35 199q-6 16 -6 25q0 63 90 63q25 -1 62 -21t37 -173q0 -293 -195 -555q-125 -170 -266 -170t-141 168q0 38 2 69q-168 -242 -299 -241q-76 0 -107 63q-16 39 -16 78z" />
    <glyph glyph-name="x" unicode="x" horiz-adv-x="663" 
d="M554 -51q-120 0 -187 338l-43 -51q-100 -118 -120 -168t-34 -63q-16 -13 -44 -13t-52 24t-23 52q0 106 301 403q0 180 43 301q31 84 88 84q15 0 27 -12t12 -28t-13 -84t-13 -134q66 57 168 138t225 141q25 12 51 12t39 -15l10 -20q0 -14 -12 -24t-82 -59
q-70 -48 -196 -158t-203 -193q14 -141 42 -224t83 -149q16 -23 16 -41t-24 -38q-25 -19 -59 -19z" />
    <glyph glyph-name="y" unicode="y" horiz-adv-x="768" 
d="M305 -182q35 0 35 -25q0 -16 -16 -39q-154 -205 -222 -349t-69 -186q0 -42 24 -42q43 0 224 307q115 193 225 420q111 227 151 356q8 27 19 51q-223 -197 -311 -258q-89 -61 -143 -61t-86 36t-32 110t40 155t188 293t156 237q16 45 46 45t56 -28t24 -59q0 -32 -53 -107
q-297 -424 -297 -498q0 -18 19 -18q11 0 33 16t139 115q260 217 368 368q59 83 75 101t40 18t46 -34t22 -68t-58 -140q-58 -104 -82 -155l-32 -78q-10 -25 -31 -78q-131 -322 -306 -644q-236 -434 -394 -519q-38 -20 -89 -20t-83 40q-32 41 -31 111q0 174 221 459
q129 168 184 168z" />
    <glyph glyph-name="z" unicode="z" horiz-adv-x="696" 
d="M664 -16q-16 0 -68 24t-154 25q-102 0 -270 -37q-6 -2 -26 -2t-53 29q-34 29 -34 67q1 38 55 95q54 56 275 243q88 78 124 113t88 96t59 70t24 41q-4 -4 -91 -36t-135 -32t-72 29q-26 29 -26 65t19 47q18 18 35 19l98 -15l127 33q51 14 88 14t68 -34t31 -90
q-1 -116 -263 -340q-105 -84 -177 -150t-103 -90l-21 -21q96 14 164 15q141 0 244 -72q30 -27 30 -53q0 -25 -10 -39t-26 -14z" />
    <glyph glyph-name="braceleft" unicode="{" horiz-adv-x="974" 
d="M700 1290v-293q0 -77 -6 -107q-18 -89 -119 -142q125 -80 125 -256v-293q0 -59 29 -85t87 -26t87 9q30 9 39 9q35 0 35 -28q0 -33 -45 -60q-25 -12 -76 -25t-80 -13q-109 0 -171 58t-62 161v268q0 121 -24 162t-105 63q-53 18 -54 58q0 55 66 65q53 8 94 53q12 18 16 38
t7 116v268q0 219 256 219q80 1 133 -25t53 -63q0 -29 -37 -28l-67 10q-23 0 -85 -8t-78 -31q-18 -23 -18 -74z" />
    <glyph glyph-name="braceright" unicode="}" horiz-adv-x="839" 
d="M455 1421q0 37 53 63t133 25q256 0 256 -219v-268l4 -78q-2 -51 28 -86q31 -35 91 -44t59 -64q0 -25 -17 -38q-16 -14 -70 -28t-74 -61t-21 -156v-268q0 -103 -62 -161t-171 -58q-31 0 -85 13q-116 28 -116 85q0 29 35 28q8 0 38 -9t62 -9q90 0 123 33q18 21 18 78v293
q0 176 125 256q-98 53 -119 142q-6 30 -6 107v293q0 51 -17 75t-58 28l-105 10l-67 -10q-37 0 -37 28z" />
    <glyph glyph-name="uni00A0" unicode="&#xa0;" horiz-adv-x="436" 
 />
    <glyph glyph-name="exclamdown" unicode="&#xa1;" horiz-adv-x="413" 
d="M536 1024q42 0 52 -8t18 -24t8 -23q0 -35 -39 -62t-78 -27t-61 17q-22 16 -20 46q0 29 39 55t81 26zM414 616q20 0 36 -15t17 -34q-1 -117 -89 -337t-189 -376t-108 -178t-21 -63t-57 -41q-42 0 -70 26q-27 26 -27 54t88 160q264 393 371 755q16 49 49 49z" />
    <glyph glyph-name="cent" unicode="&#xa2;" horiz-adv-x="880" 
d="M111 -33q0 27 84 162q-41 53 -41 126t68 189t197 250q128 133 274 219t259 86q14 0 49 -6q129 133 144 158q13 18 31 18q18 1 35 -27t18 -61q0 -61 -70 -116q-39 -35 -53 -47q10 -20 10 -52t-24 -58t-62 -26q-39 0 -39 33q0 8 8 35v4q0 20 -18 36t-41 17q-54 0 -164 -68
q-110 -69 -222 -187q-245 -259 -247 -429q0 -94 84 -94q115 0 309 92q106 51 226 141q31 23 47 23q39 0 39 -35q0 -57 -162 -157q-236 -152 -449 -152q-70 0 -125 25l-12 -13q-17 -35 -59 -86q-29 -57 -55 -57q-14 0 -27 15q-12 15 -12 42z" />
    <glyph glyph-name="sterling" unicode="&#xa3;" horiz-adv-x="989" 
d="M637 156q319 0 319 -136q0 -35 -28 -34q-6 0 -29 8q-68 24 -213 24t-299 -41q-25 -4 -33 -4q-40 0 -76 41t-36 78q0 36 30 100t50 116t30 79t17 41l-37 -4q-14 -2 -66 -2t-83 20q-29 20 -29 76t26 57q4 0 40 -12t71 -8h4l125 4q111 270 198 453q123 256 240 338
q82 57 153 57t121 -59t50 -130t-18 -104t-44 -33q-33 0 -35 76q-4 100 -90 100t-198 -212t-217 -482l79 4q82 2 146 13h16q31 0 31 -34t-32 -56t-158 -35l-134 -13q-21 -62 -58 -148q-36 -85 -69 -165q125 27 236 27z" />
    <glyph glyph-name="currency" unicode="&#xa4;" horiz-adv-x="866" 
d="M1139 690q-1 -32 -19 -54t-51 -22t-102 72q-78 -47 -162 -47t-152 39q-67 -70 -91 -70t-56 30t-31 52t27 50q26 26 39 42q-49 72 -49 163t49 169q-68 60 -68 96t22 58q21 22 51 20q30 0 103 -71q76 39 162 39t156 -42q41 42 60 54t46 12t53 -25t25 -59q0 -34 -70 -96
q39 -72 39 -154t-43 -155l29 -33q33 -35 33 -68zM806 1130q-77 0 -131 -53t-54 -129t54 -129t131 -53t131 53t54 129t-54 129t-131 53z" />
    <glyph glyph-name="yen" unicode="&#xa5;" horiz-adv-x="796" 
d="M981 715q29 0 29 -31q0 -63 -97 -76l-202 -26l-49 -95h22l221 15q8 2 21 2l37 4q6 2 18 2q29 0 29 -31q0 -63 -97 -76l-303 -41h-10q-24 -50 -44 -104l-28 -79q-16 -52 -47 -156q-12 -39 -41 -39q-20 0 -40 27q-19 28 -19 59q0 74 68 280l-93 4q-72 4 -91 27t-19 57
q0 68 30 68l17 -2q43 -14 96 -19l113 -4l39 80h-187q-14 -6 -46 2q-62 16 -62 82t30 66q4 0 40 -10t73 -11h215l4 8q-51 88 -68 165q-38 174 11 534q10 59 10 110t49 52q37 0 75 -31t38 -61t-14 -101q-13 -46 -23 -160t-15 -166t-5 -95q0 -44 12 -128q74 135 150 243
q78 108 210 264t170 190q38 36 70 36t60 -26t28 -50t-26 -53t-109 -104q-82 -70 -210 -244t-245 -375l129 9l58 6q6 2 18 2z" />
    <glyph glyph-name="section" unicode="&#xa7;" horiz-adv-x="708" 
d="M649 866q-79 -8 -109 -87t-40 -302q-17 -120 -25 -254q78 8 108 86t42 305q0 23 6 78t10 99t8 75zM188 -295q-80 0 -128 50q-48 49 -48 123t38 124t84 49q46 0 46 -37q0 -12 -11 -46t-11 -54t11 -38q11 -17 26 -17q51 1 87 159t68 521q16 237 83 331t231 121
q59 395 272 395q80 0 128 -51t48 -125t-38 -122q-38 -50 -84 -50t-46 35q0 4 10 45q6 43 6 79t-30 36q-53 0 -88 -155t-68 -527q-16 -236 -82 -331t-231 -120q-35 -182 -76 -260q-72 -135 -197 -135z" />
    <glyph glyph-name="dieresis" unicode="&#xa8;" horiz-adv-x="471" 
d="M440 1055q0 39 38 71t78 31t62 -23t23 -60q0 -38 -33 -72t-75 -34q-41 0 -67 24t-26 63zM800 1145q38 0 62 -27q24 -26 25 -60q0 -34 -36 -69t-74 -35q-39 0 -65 23t-26 61t38 73q38 34 76 34z" />
    <glyph glyph-name="copyright" unicode="&#xa9;" horiz-adv-x="1658" 
d="M1021 1073q-261 0 -445 -187q-184 -186 -185 -454t185 -456t447 -187q261 0 444 189q183 188 183 454t-184 454t-445 187zM1022 1182q305 0 521 -220t216 -532t-217 -531q-217 -218 -523 -218t-521 222t-215 530q0 309 217 529t522 220zM1162 870q60 0 90 -34t30 -79
q0 -46 -16 -72t-41 -26q-33 0 -33 33q0 16 3 34t-8 34q-11 14 -30 14t-74 -49t-104 -113q-197 -270 -197 -456q0 -76 47 -76q68 0 187 82q61 45 137 127q23 23 35 22q31 0 31 -45t-101 -141q-152 -139 -282 -139q-72 0 -117 55t-45 141q0 150 157 396q87 136 179 214t152 78
z" />
    <glyph glyph-name="ordfeminine" unicode="&#xaa;" horiz-adv-x="657" 
d="M906 829q42 1 42 -37q0 -20 -38 -52t-168 -63q-130 -32 -227 -32t-135 23q-38 24 -38 54t16 52t30 23t34 -7q18 -8 64 -13t134 1t134 13t90 23t62 15zM539 1000q0 -22 10 -23q10 0 49 33q97 82 145 166q25 41 48 106q8 21 28 27q0 12 -14 12q-43 -2 -113 -78
q-70 -77 -111 -149q-42 -72 -42 -94zM852 891q0 -9 -13 -21t-31 -12t-39 22q-22 22 -31 48t-9 86q-119 -141 -194 -142q-45 0 -73 33t-28 84q0 109 140 269t235 161q41 1 71 -29t30 -62t-21 -71q4 -12 4 -14l-4 -18q-57 -135 -58 -232q1 -29 11 -61t10 -41z" />
    <glyph glyph-name="guillemotleft" unicode="&#xab;" horiz-adv-x="749" 
d="M506 192q0 -32 -20 -54t-45 -22q-24 0 -42 27q-35 49 -176 129q-69 37 -69 73t51 67q180 115 276 206q25 23 43 23t32 -15t13 -38q0 -64 -231 -244q94 -53 131 -87t37 -65zM797 194q-1 -32 -21 -54t-44 -22t-44 27q-31 45 -176 129q-70 37 -70 73t52 67q180 115 276 207
q44 40 75 7q13 -15 13 -38q0 -66 -229 -244q96 -53 132 -87t36 -65z" />
    <glyph glyph-name="logicalnot" unicode="&#xac;" horiz-adv-x="1073" 
d="M1034 473q41 0 75 -38t34 -79t-43 -104q-70 -119 -68 -217q0 -51 -31 -51t-51 34t-20 86q0 115 55 211q-77 -4 -201 -13t-254 -9t-256 16q-78 14 -77 78q0 61 71 62l191 -9q111 0 338 16t237 17z" />
    <glyph glyph-name="uni00AD" unicode="&#xad;" horiz-adv-x="524" 
d="M580 418h18q31 0 31 -35q0 -45 -108 -86q-109 -41 -231 -41t-122 70v18q0 59 51 59q5 0 35 -9t94 -11q124 11 168 23t64 12z" />
    <glyph glyph-name="registered" unicode="&#xae;" horiz-adv-x="1658" 
d="M1021 1073q-261 0 -445 -187q-184 -186 -185 -454t185 -456t447 -187q261 0 444 189q183 188 183 454t-184 454t-445 187zM1022 1182q305 0 521 -220t216 -532t-217 -531q-217 -218 -523 -218t-521 222t-215 530q0 309 217 529t522 220zM1284 647q0 105 -182 109
q-90 -215 -144 -342q123 23 225 94q101 72 101 139zM680 20q0 12 10 37q223 504 291 674q-135 -51 -217 -139q-41 -45 -41 -52t14 -14q20 -6 21 -28q0 -31 -39 -31t-66 25t-26 57q0 63 118 151q119 88 267 134q14 30 41 30t45 -20q14 2 28 2q82 0 160 -41q92 -47 92 -153
t-95 -190q-95 -85 -263 -132q31 -131 91 -241t108 -124q6 -2 12 -12t6 -20q0 -11 -12 -21t-37 -10t-67 30q-126 89 -206 381l-88 -194q-41 -88 -58 -111q-17 -22 -41 -22t-36 11t-12 23z" />
    <glyph glyph-name="macron" unicode="&#xaf;" horiz-adv-x="491" 
d="M492 1108q14 0 36 -9t106 -9q82 0 206 32q20 4 32 4q29 0 29 -24q1 -43 -107 -83t-226 -40t-117 70q0 59 41 59z" />
    <glyph glyph-name="degree" unicode="&#xb0;" horiz-adv-x="706" 
d="M788 1274q-76 0 -128 -52t-52 -128t54 -128t128 -52t126 52q52 54 52 129t-52 127t-128 52zM788 1382q121 0 205 -85t84 -205t-85 -203q-85 -84 -205 -84q-119 0 -203 85t-84 204q0 120 84 204t204 84z" />
    <glyph glyph-name="plusminus" unicode="&#xb1;" horiz-adv-x="808" 
d="M721 158q33 0 33 -33t-37 -59q-53 -35 -153 -59t-189 -23q-162 0 -162 77q0 29 13 47q12 18 26 19q14 0 52 -10q38 -11 134 -11t254 46q19 6 29 6zM414 211q0 94 61 291q-80 -6 -106 -6q-133 0 -133 77q0 29 14 47t30 17q16 0 38 -7q24 -7 88 -7t116 4q86 190 132 261
q46 70 79 70t61 -26q53 -49 3 -92q-37 -41 -53 -67t-64 -124l240 60q35 0 34 -27q0 -88 -329 -156q-82 -201 -109 -329q-12 -51 -41 -51t-45 18t-16 47z" />
    <glyph glyph-name="twosuperior" unicode="&#xb2;" horiz-adv-x="581" 
d="M631 1217v-9q6 -20 6 -24q0 -27 -36 -27q-71 0 -73 53q0 63 64 109q139 109 258 108q59 1 95 -31t36 -92t-77 -147t-214 -193t-211 -178q212 35 304 -4q50 -20 51 -53q0 -27 -31 -27q-18 0 -47 10t-114 9q-86 -1 -146 -17t-80 -16t-48 25t-28 51t24 52q24 24 196 162
t247 216q76 78 76 115t-31 37q-57 0 -139 -48t-82 -81z" />
    <glyph glyph-name="threesuperior" unicode="&#xb3;" horiz-adv-x="600" 
d="M596 770q64 0 140 30t77 60t-107 65t-142 57t-34 47t14 37t61 32q48 21 126 77q146 105 146 154q0 10 -21 10q-92 0 -219 -84q-47 -33 -59 -43t-27 -32q-6 -14 -29 -15q-41 0 -41 39q0 64 136 144t247 79q49 -1 81 -27t32 -67q0 -135 -301 -301q131 -49 168 -76
q68 -41 67 -96q0 -74 -103 -123t-224 -49t-177 26q-57 26 -57 64t47 68q18 12 45 12t27 -20l-6 -29q0 -15 35 -27q34 -12 98 -12z" />
    <glyph glyph-name="acute" unicode="&#xb4;" horiz-adv-x="436" 
d="M758 1223q26 0 50 -25t23 -51q1 -57 -115 -115t-154 -59q-38 0 -62 19q-24 20 -25 40q0 20 15 30t88 44q66 49 90 57q10 10 36 35t54 25z" />
    <glyph glyph-name="mu" unicode="&#xb5;" horiz-adv-x="776" 
d="M752 90q30 0 30 -33t-24 -55t-68 -22q-45 0 -79 48q-54 77 -19 240q-240 -289 -359 -288q-23 0 -53 16q-143 -305 -171 -356q-47 -86 -109 -27q-27 25 -27 53t46 109q46 82 164 344q119 261 201 429t115 267q17 45 55 45t60 -19t23 -46q-1 -51 -135 -311t-134 -318
q0 -29 11 -29q37 0 161 144q221 250 381 565q18 35 49 35q31 -1 54 -21q22 -20 22 -44t-64 -143q-64 -120 -120 -287q-57 -166 -57 -232t24 -66q6 0 12 2h11z" />
    <glyph glyph-name="paragraph" unicode="&#xb6;" horiz-adv-x="888" 
d="M643 1174q0 -150 141 -218l18 37q68 136 171 414q-133 -4 -164 -12q-70 -14 -118 -79t-48 -142zM1521 1376q-11 -14 -29 -14t-128 20q-10 -113 -268 -700q-229 -535 -236 -612q-4 -35 -31 -62t-53 -26q-55 0 -55 68t53 215q54 147 194 465t184 431t79 236q-20 2 -49 2
l-80 4q-39 -158 -166 -453q-33 -78 -128 -298q-94 -220 -160 -377t-66 -207q-4 -33 -31 -61t-55 -27q-55 0 -56 61q0 104 105 358l14 35q93 220 137 318l35 79q-119 76 -169 152t-50 178q0 101 56 189t144 127t249 39q301 0 436 -25t135 -82q0 -19 -11 -33z" />
    <glyph glyph-name="cedilla" unicode="&#xb8;" horiz-adv-x="356" 
d="M195 135q66 0 65 -63q0 -20 -38 -60t-38 -59q0 -20 35 -54t35 -94q0 -92 -100 -149q-48 -29 -96 -29q-48 -1 -83 17t-37 40t10 30q11 8 53 7q42 0 73 24q30 25 30 61t-32 64t-33 54q0 45 92 164q35 47 64 47z" />
    <glyph glyph-name="onesuperior" unicode="&#xb9;" horiz-adv-x="325" 
d="M552 1155q-18 0 -31 12q-11 12 -11 29q0 60 196 192q75 50 94 50q18 0 38 -20t20 -40t-37 -78q-270 -457 -303 -581q-10 -35 -33 -35q-45 0 -45 70q0 109 252 518q-14 -10 -39 -33l-45 -39l-16 -16l-12 -15q-10 -14 -28 -14z" />
    <glyph glyph-name="ordmasculine" unicode="&#xba;" horiz-adv-x="630" 
d="M882 829q17 0 29 -9q13 -8 13 -28t-39 -52t-168 -63q-129 -32 -225 -32t-136 23q-39 24 -39 54q1 30 17 52t30 23t34 -7q18 -8 64 -13t133 1t134 13t91 23t62 15zM612 992q0 -46 21 -46q35 0 105 91t69 177q0 86 -21 86q-6 0 -12 -14q-4 -4 -9 -17t-20 -26
q-51 -43 -92 -124t-41 -127zM806 1389q40 0 72 -41t31 -105q0 -109 -84 -235q-98 -154 -209 -154q-48 0 -80 35t-32 88q0 119 102 252q31 43 86 76q10 35 42 59t72 25z" />
    <glyph glyph-name="guillemotright" unicode="&#xbb;" horiz-adv-x="749" 
d="M541 558q0 30 20 52t44 23q24 0 44 -27q31 -47 176 -129q70 -37 70 -72t-51 -65q-127 -82 -172 -116q-46 -34 -88 -74t-61 -40t-33 16q-13 15 -13 38q1 64 232 244q-96 53 -132 86q-36 34 -36 64zM252 555q0 31 20 53t44 23q24 0 50 -38t169 -118q69 -37 69 -73t-51 -66
q-180 -115 -277 -207q-25 -23 -43 -23t-31 16t-14 38q1 61 230 243q-94 53 -130 87t-36 65z" />
    <glyph glyph-name="onequarter" unicode="&#xbc;" horiz-adv-x="1015" 
d="M1318 1538q16 0 32 -15t26 -31t10 -56q0 -39 -32 -82t-230 -256q-535 -586 -718 -846q-63 -86 -173 -281q-23 -43 -55 -43q-41 0 -41 63t129 255t259 356t460 543q203 238 247 303q44 66 57 78t29 12zM490 1155q-18 0 -28 12q-11 12 -11 29q0 62 197 192q75 50 94 50
q18 0 38 -20t20 -40t-36 -78q-276 -461 -303 -581q-12 -35 -35 -35q-45 0 -45 70q0 115 252 518q-12 -10 -37 -34t-47 -38l-17 -16q-6 -6 -10 -15q-14 -14 -32 -14zM798 301q-56 0 -99 22q-42 23 -42 53t41 68q233 231 234 275q6 27 30 27t40 -14q15 -13 16 -30
q0 -68 -164 -235q-37 -37 -42 -44t-17 -18q-13 -11 -13 -17t46 -7q46 0 151 25q41 61 70 112q51 74 59 101t16 35t28 8t37 -14t17 -36q0 -23 -100 -186q16 2 63 2t48 -29q0 -35 -64 -37q-27 -2 -94 -16q-131 -236 -131 -315q-2 -43 -37 -43q-25 0 -41 20t-16 53q0 80 96 256
q-76 -16 -132 -16z" />
    <glyph glyph-name="onehalf" unicode="&#xbd;" horiz-adv-x="1128" 
d="M938 96q76 0 125 -20t49 -53q0 -27 -31 -27q-18 0 -47 9t-119 9t-144 -16q-55 -16 -75 -16t-48 24q-56 49 -4 104q24 24 195 162t247 216t75 114q0 37 -31 37q-57 0 -139 -48t-82 -81q0 -4 2 -8l7 -25q0 -27 -38 -27q-74 1 -73 54q0 63 63 108q139 109 258 109
q60 0 96 -32q36 -31 36 -91t-77 -148t-218 -197q-141 -110 -207 -173q104 16 180 16zM1316 1538q16 0 32 -15t26 -31t10 -56q0 -39 -32 -82t-230 -256q-548 -601 -753 -893q-55 -86 -138 -234q-23 -43 -55 -43q-41 0 -41 63t129 255t259 356t460 543q203 238 247 303
q44 66 57 78t29 12zM498 1155q-18 0 -30 12q-11 12 -11 29q0 59 195 192q75 50 94 50q18 0 38 -20t20 -40t-36 -78q-270 -457 -303 -581q-10 -35 -33 -35q-45 0 -45 70q0 109 252 518q-14 -10 -39 -33l-45 -39l-16 -16l-13 -15q-10 -14 -28 -14z" />
    <glyph glyph-name="threequarters" unicode="&#xbe;" horiz-adv-x="1409" 
d="M598 770q64 0 140 30t77 60q0 30 -107 65q-107 36 -142 57q-34 22 -34 47t14 37t62 32q47 21 125 77q146 105 146 154q0 10 -21 10q-92 0 -219 -84q-47 -33 -59 -43t-27 -32q-6 -14 -29 -15q-41 0 -41 39q1 64 137 144t246 79q49 -1 81 -27t32 -67q0 -135 -301 -301
q131 -49 168 -76q68 -41 67 -96q0 -74 -103 -123t-224 -49t-177 26q-57 26 -57 64t47 68q17 12 45 12t27 -20l-6 -29q0 -15 35 -27q34 -12 98 -12zM1666 1538q16 0 41 -24q26 -24 27 -70q1 -47 -32 -90t-229 -256q-535 -586 -719 -846q-44 -53 -90 -136q-46 -84 -76 -136
t-62 -52q-41 0 -41 63t129 255t259 356t460 543q203 238 247 303q44 66 57 78t29 12zM1237 -12q-25 0 -41 20t-16 53q0 80 94 256q-76 -16 -115 -16q-158 0 -158 82q0 23 41 61q236 227 236 275q6 27 30 27t40 -14q16 -13 16 -30q0 -68 -166 -235q-37 -37 -41 -45
q-30 -30 -31 -36q0 -5 46 -5t153 25q29 43 35 55l35 57q55 84 61 106t14 30t28 8t37 -14t17 -34q0 -21 -36 -82t-64 -106q16 2 63 2t48 -29q0 -35 -64 -37q-26 -2 -94 -16l-21 -39q-111 -203 -110 -276q-4 -43 -37 -43z" />
    <glyph glyph-name="questiondown" unicode="&#xbf;" horiz-adv-x="643" 
d="M524 969q0 63 95 63q44 0 76 -22t32 -54q0 -33 -24 -53q-23 -20 -65 -20q-42 -1 -78 27t-36 59zM393 473q-39 0 -39 41q0 35 45 67q45 31 103 31t108 -42t49 -102q0 -60 -48 -128q-48 -70 -208 -214q-161 -144 -229 -231t-68 -161q0 -45 54 -45q115 0 225 114
q43 49 70 111t69 63q18 0 30 -18t13 -45q0 -120 -130 -234t-267 -114q-90 0 -143 44t-54 118q0 152 197 360q88 94 139 140t139 132t87 110q-1 22 -29 22t-58 -10t-55 -9z" />
    <glyph glyph-name="Agrave" unicode="&#xc0;" horiz-adv-x="958" 
d="M928 1118l-342 -477q72 18 227 53q13 58 24 96q11 39 13 48l24 98q2 10 8 30zM1039 1450q32 0 72 -34t40 -59t-42 -149q-43 -124 -79 -270q-36 -147 -49 -197q45 11 73 21t42 10t24 -10t10 -22t-12 -32q-12 -22 -36 -34t-70 -26t-60 -21q-56 -234 -75 -409t-15 -224
t4 -60q0 -10 -12 -24t-29 -14q-47 0 -67 68q-52 175 26 609l-73 -20q-153 -43 -181 -48q-29 -5 -43 -9q-110 -169 -196 -310l-68 -112q-16 -31 -28 -56q-12 -34 -41 -34t-63 28t-34 55t26 69t117 178t95 143q-33 -4 -67 -9q-34 -6 -63 -6q-31 0 -53 26t-22 68t37 42h8l60 -5
q20 0 206 33l267 365q90 125 168 233t111 155q34 48 36 50q8 27 16 34t40 7zM1251 1632q0 -14 -16 -27t-39 -14q-55 0 -117 68q-113 125 -112 192q0 25 23 45q24 20 54 20t44 -12q16 -13 24 -42t23 -52l32 -55q6 -10 45 -59q39 -50 39 -64z" />
    <glyph glyph-name="Aacute" unicode="&#xc1;" horiz-adv-x="958" 
d="M928 1118l-342 -477q72 18 227 53q13 58 24 96q11 39 13 48l24 98q2 10 8 30zM1039 1450q32 0 72 -34t40 -59t-42 -149q-43 -124 -79 -270q-36 -147 -49 -197q45 11 73 21t42 10t24 -10t10 -22t-12 -32q-12 -22 -36 -34t-70 -26t-60 -21q-56 -234 -75 -409t-15 -224
t4 -60q0 -10 -12 -24t-29 -14q-47 0 -67 68q-52 175 26 609l-73 -20q-153 -43 -181 -48q-29 -5 -43 -9q-110 -169 -196 -310l-68 -112q-16 -31 -28 -56q-12 -34 -41 -34t-63 28t-34 55t26 69t117 178t95 143q-33 -4 -67 -9q-34 -6 -63 -6q-31 0 -53 26t-22 68t37 42h8l60 -5
q20 0 206 33l267 365q90 125 168 233t111 155q34 48 36 50q8 27 16 34t40 7zM1347 1855q25 -1 49 -25t23 -48q0 -58 -116 -116q-115 -58 -153 -58t-63 19t-25 39t15 30q14 10 88 45q61 41 90 55l43 39q23 20 49 20z" />
    <glyph glyph-name="Acircumflex" unicode="&#xc2;" horiz-adv-x="958" 
d="M928 1118l-342 -477q72 18 227 53q13 58 24 96q11 39 13 48l24 98q2 10 8 30zM1039 1450q32 0 72 -34t40 -59t-42 -149q-43 -124 -79 -270q-36 -147 -49 -197q45 11 73 21t42 10t24 -10t10 -22t-12 -32q-12 -22 -36 -34t-70 -26t-60 -21q-56 -234 -75 -409t-15 -224
t4 -60q0 -10 -12 -24t-29 -14q-47 0 -67 68q-52 175 26 609l-73 -20q-153 -43 -181 -48q-29 -5 -43 -9q-110 -169 -196 -310l-68 -112q-16 -31 -28 -56q-12 -34 -41 -34t-63 28t-34 55t26 69t117 178t95 143q-33 -4 -67 -9q-34 -6 -63 -6q-31 0 -53 26t-22 68t37 42h8l60 -5
q20 0 206 33l267 365q90 125 168 233t111 155q34 48 36 50q8 27 16 34t40 7zM912 1661q0 23 55 47q70 41 161 123q35 37 80 37q44 0 56 -22t24 -72t64 -142q12 -14 12 -30q0 -27 -31 -27q-59 0 -104 47l-15 14l-14 15q-18 18 -21 25q-3 8 -5 10t-3 4l-20 -13
q-102 -63 -170 -63t-69 47z" />
    <glyph glyph-name="Atilde" unicode="&#xc3;" horiz-adv-x="958" 
d="M928 1118l-342 -477q72 18 227 53q13 58 24 96q11 39 13 48l24 98q2 10 8 30zM1039 1450q32 0 72 -34t40 -59t-42 -149q-43 -124 -79 -270q-36 -147 -49 -197q45 11 73 21t42 10t24 -10t10 -22t-12 -32q-12 -22 -36 -34t-70 -26t-60 -21q-56 -234 -75 -409t-15 -224
t4 -60q0 -10 -12 -24t-29 -14q-47 0 -67 68q-52 175 26 609l-73 -20q-153 -43 -181 -48q-29 -5 -43 -9q-110 -169 -196 -310l-68 -112q-16 -31 -28 -56q-12 -34 -41 -34t-63 28t-34 55t26 69t117 178t95 143q-33 -4 -67 -9q-34 -6 -63 -6q-31 0 -53 26t-22 68t37 42h8l60 -5
q20 0 206 33l267 365q90 125 168 233t111 155q34 48 36 50q8 27 16 34t40 7zM1044 1663q-40 0 -80 -34t-55 -34q-47 1 -47 57t82 109q60 41 120 41t100 -24t59 -49q31 -31 53 -31t60 26q39 26 57 27q18 0 32 -16t15 -39q0 -47 -58 -94q-132 -106 -260 22q-38 39 -78 39z" />
    <glyph glyph-name="Adieresis" unicode="&#xc4;" horiz-adv-x="958" 
d="M928 1118l-342 -477q72 18 227 53q13 58 24 96q11 39 13 48l24 98q2 10 8 30zM1039 1450q32 0 72 -34t40 -59t-42 -149q-43 -124 -79 -270q-36 -147 -49 -197q45 11 73 21t42 10t24 -10t10 -22t-12 -32q-12 -22 -36 -34t-70 -26t-60 -21q-56 -234 -75 -409t-15 -224
t4 -60q0 -10 -12 -24t-29 -14q-47 0 -67 68q-52 175 26 609l-73 -20q-153 -43 -181 -48q-29 -5 -43 -9q-110 -169 -196 -310l-68 -112q-16 -31 -28 -56q-12 -34 -41 -34t-63 28t-34 55t26 69t117 178t95 143q-33 -4 -67 -9q-34 -6 -63 -6q-31 0 -53 26t-22 68t37 42h8l60 -5
q20 0 206 33l267 365q90 125 168 233t111 155q34 48 36 50q8 27 16 34t40 7zM1167 1534q0 31 63 114q64 83 130 83t65 -58q0 -33 -61 -84q-8 -4 -14 -22q-37 -68 -42 -76t-27 -18q-23 -11 -47 -11t-46 20t-21 52zM1022 1526q-41 0 -66 22t-22 58q2 57 80 125q78 67 112 67
q72 -1 72 -55q0 -20 -54 -85t-60 -77q-5 -12 -9 -22q-12 -33 -53 -33z" />
    <glyph glyph-name="Aring" unicode="&#xc5;" horiz-adv-x="958" 
d="M928 1118l-342 -477q72 18 227 53q13 58 24 96q11 39 13 48l24 98q2 10 8 30zM1039 1450q32 0 72 -34t40 -59t-42 -149q-43 -124 -79 -270q-36 -147 -49 -197q45 11 73 21t42 10t24 -10t10 -22t-12 -32q-12 -22 -36 -34t-70 -26t-60 -21q-56 -234 -75 -409t-15 -224
t4 -60q0 -10 -12 -24t-29 -14q-47 0 -67 68q-52 175 26 609l-73 -20q-153 -43 -181 -48q-29 -5 -43 -9q-110 -169 -196 -310l-68 -112q-16 -31 -28 -56q-12 -34 -41 -34t-63 28t-34 55t26 69t117 178t95 143q-33 -4 -67 -9q-34 -6 -63 -6q-31 0 -53 26t-22 68t37 42h8l60 -5
q20 0 206 33l267 365q90 125 168 233t111 155q34 48 36 50q8 27 16 34t40 7zM1223 1790q-84 0 -84 -70q0 -39 53 -39q67 1 96 95q-43 14 -65 14zM1368 1745q0 -74 -60 -124t-140 -50t-120 39q-42 38 -42 106t68 127q69 59 153 60q47 0 80 -22t32 -52l-4 -25q33 -23 33 -59z
" />
    <glyph glyph-name="AE" unicode="&#xc6;" horiz-adv-x="1587" 
d="M715 705q72 20 229 69q53 123 154 391q-90 -100 -196 -233t-187 -227zM1168 152q162 0 319 -56q66 -27 65 -67q0 -31 -59 -31q-6 0 -49 7t-82 7q-328 0 -528 -45q-25 -4 -39 -4q-45 0 -82 37t-37 74q0 38 32 114t92 228q61 152 89 221q-145 -49 -309 -100
q-154 -196 -262 -347q-109 -150 -114 -168q-6 -18 -14 -25t-36 -7t-57 30t-29 58q0 29 43 86q186 232 200 250t54 63h-17q-88 0 -88 90q0 27 11 33t71 12t162 31q14 18 31 40q16 22 25 32t11 14l234 270q37 47 110 138l111 125q84 94 107 134t37 52t36 12t34 -9t32 -40
q170 33 293 33t199 -23t75 -61q0 -38 -41 -37h-18q-57 6 -138 6q-168 0 -366 -53q-25 -111 -156 -455q154 35 307 35q102 0 103 -61q0 -27 -18 -35t-76 -10q-217 -10 -367 -60q-68 -178 -78 -203l-104 -256q-14 -37 -39 -104q158 25 320 25z" />
    <glyph glyph-name="Ccedilla" unicode="&#xc7;" horiz-adv-x="935" 
d="M498 -32q0 -6 34 -56q34 -51 33 -94q0 -66 -62 -120t-125 -54q-62 0 -96 17t-34 40q0 37 52 37t84 24t32 57t-34 65t-34 56t21 56q-84 30 -131 110t-48 195q0 115 71 294t190 359q143 223 294 354q152 130 267 130q41 0 83 -23t58 -55q27 -40 27 -106t-24 -105t-51 -39
q-52 0 -52 47l2 31l6 39q-1 25 -21 49t-43 22q-23 0 -77 -34t-99 -76q-104 -94 -219 -274q-252 -396 -254 -660q0 -137 88 -137q72 1 194 65t230 160q35 31 113 117l31 30q16 16 28 17q41 0 41 -53q0 -84 -164 -238q-100 -94 -192 -146t-215 -83q-4 -12 -4 -18z" />
    <glyph glyph-name="Egrave" unicode="&#xc8;" horiz-adv-x="995" 
d="M742 1489q32 0 59 -53q98 12 216 12q117 0 229 -30t112 -75q0 -39 -39 -38q-10 0 -96 13q-87 13 -179 13t-253 -26q-43 -133 -66 -189t-113 -250q104 16 164 17q254 0 254 -97q0 -37 -47 -36q-9 0 -45 8t-107 8t-286 -35q-17 -43 -67 -141t-87 -176q-35 -66 -77 -157
t-56 -116q174 55 344 55t280 -35q110 -36 109 -93q0 -27 -30 -27q-8 1 -83 15q-74 14 -172 14t-223 -18t-193 -43q-68 -24 -93 -23q-49 0 -79 45t-30 67q0 70 287 619q-33 33 -33 67q0 51 74 54h14q113 213 201 426q-46 -11 -62 -21l-57 -37q-46 -28 -66 -28t-44 28t-23 64
q0 43 65 65q45 18 73 27q29 10 61 24t102 31q10 47 20 59t42 13zM856 1827q0 25 24 45t53 20q30 0 45 -13q14 -13 24 -43t34 -70q24 -41 29 -52q66 -80 70 -86t4 -20q1 -14 -15 -28q-16 -13 -41 -13q-53 0 -114 67q-113 125 -113 193z" />
    <glyph glyph-name="Eacute" unicode="&#xc9;" horiz-adv-x="995" 
d="M742 1489q32 0 59 -53q98 12 216 12q117 0 229 -30t112 -75q0 -39 -39 -38q-10 0 -96 13q-87 13 -179 13t-253 -26q-43 -133 -66 -189t-113 -250q104 16 164 17q254 0 254 -97q0 -37 -47 -36q-9 0 -45 8t-107 8t-286 -35q-17 -43 -67 -141t-87 -176q-35 -66 -77 -157
t-56 -116q174 55 344 55t280 -35q110 -36 109 -93q0 -27 -30 -27q-8 1 -83 15q-74 14 -172 14t-223 -18t-193 -43q-68 -24 -93 -23q-49 0 -79 45t-30 67q0 70 287 619q-33 33 -33 67q0 51 74 54h14q113 213 201 426q-46 -11 -62 -21l-57 -37q-46 -28 -66 -28t-44 28t-23 64
q0 43 65 65q45 18 73 27q29 10 61 24t102 31q10 47 20 59t42 13zM1121 1825q30 0 53 -24t22 -48q0 -61 -119 -121q-115 -55 -149 -55t-62 19q-26 20 -26 40t13 28t63 32t97 57q46 33 62 53t46 19z" />
    <glyph glyph-name="Ecircumflex" unicode="&#xca;" horiz-adv-x="995" 
d="M742 1489q32 0 59 -53q98 12 216 12q117 0 229 -30t112 -75q0 -39 -39 -38q-10 0 -96 13q-87 13 -179 13t-253 -26q-43 -133 -66 -189t-113 -250q104 16 164 17q254 0 254 -97q0 -37 -47 -36q-9 0 -45 8t-107 8t-286 -35q-17 -43 -67 -141t-87 -176q-35 -66 -77 -157
t-56 -116q174 55 344 55t280 -35q110 -36 109 -93q0 -27 -30 -27q-8 1 -83 15q-74 14 -172 14t-223 -18t-193 -43q-68 -24 -93 -23q-49 0 -79 45t-30 67q0 70 287 619q-33 33 -33 67q0 51 74 54h14q113 213 201 426q-46 -11 -62 -21l-57 -37q-46 -28 -66 -28t-44 28t-23 64
q0 43 65 65q45 18 73 27q29 10 61 24t102 31q10 47 20 59t42 13zM1182 1563q-86 0 -162 114q-16 -8 -40 -22q-24 -13 -50 -23q-24 -10 -46 -20t-54 -10q-34 0 -53 12t-19 28q0 27 55 54q10 2 86 55l76 68q37 37 83 37t56 -22q10 -20 22 -72t44 -104t32 -69q0 -27 -30 -26z
" />
    <glyph glyph-name="Edieresis" unicode="&#xcb;" horiz-adv-x="995" 
d="M742 1489q32 0 59 -53q98 12 216 12q117 0 229 -30t112 -75q0 -39 -39 -38q-10 0 -96 13q-87 13 -179 13t-253 -26q-43 -133 -66 -189t-113 -250q104 16 164 17q254 0 254 -97q0 -37 -47 -36q-9 0 -45 8t-107 8t-286 -35q-17 -43 -67 -141t-87 -176q-35 -66 -77 -157
t-56 -116q174 55 344 55t280 -35q110 -36 109 -93q0 -27 -30 -27q-8 1 -83 15q-74 14 -172 14t-223 -18t-193 -43q-68 -24 -93 -23q-49 0 -79 45t-30 67q0 70 287 619q-33 33 -33 67q0 51 74 54h14q113 213 201 426q-46 -11 -62 -21l-57 -37q-46 -28 -66 -28t-44 28t-23 64
q0 43 65 65q45 18 73 27q29 10 61 24t102 31q10 47 20 59t42 13zM864 1753q39 1 62 -23q22 -24 22 -61t-33 -71t-73 -34t-67 24q-26 24 -25 63q0 39 38 71t76 31zM1108 1741q40 0 64 -28q24 -27 24 -59t-38 -68t-75 -36t-63 23t-27 61q0 38 38 73q38 34 77 34z" />
    <glyph glyph-name="Igrave" unicode="&#xcc;" horiz-adv-x="335" 
d="M651 1501q31 -1 56 -29t24 -65q0 -80 -72 -266t-315 -746q-86 -189 -106 -297t-99 -108q-51 0 -51 72t46 200q46 127 196 467t204 480q52 140 66 233q10 59 51 59zM481 1847q-1 25 23 45t61 19q37 0 49 -31q8 -16 34 -77t100 -142q12 -14 12 -35q0 -41 -42 -41t-62 12
t-62 56q-113 125 -113 194z" />
    <glyph glyph-name="Iacute" unicode="&#xcd;" horiz-adv-x="335" 
d="M651 1501q31 -1 56 -29t24 -65q0 -80 -72 -266t-315 -746q-86 -189 -106 -297t-99 -108q-51 0 -51 72t46 200q46 127 196 467t204 480q52 140 66 233q10 59 51 59zM939 1831q31 0 53 -25t22 -47q0 -61 -115 -119t-152 -59t-63 19t-27 40q1 20 15 30t90 44q88 53 118 85
t59 32z" />
    <glyph glyph-name="Icircumflex" unicode="&#xce;" horiz-adv-x="335" 
d="M651 1501q31 -1 56 -29t24 -65q0 -80 -72 -266t-315 -746q-86 -189 -106 -297t-99 -108q-51 0 -51 72t46 200q46 127 196 467t204 480q52 140 66 233q10 59 51 59zM549 1606q-70 0 -70 45q0 23 56 49q70 41 161 123q35 37 80 37q44 0 56 -22t24 -74t44 -103t32 -68
q0 -27 -31 -26q-59 0 -104 47l-29 28q-16 16 -29 39q-120 -75 -190 -75z" />
    <glyph glyph-name="Idieresis" unicode="&#xcf;" horiz-adv-x="335" 
d="M651 1501q31 -1 56 -29t24 -65q0 -80 -72 -266t-315 -746q-86 -189 -106 -297t-99 -108q-51 0 -51 72t46 200q46 127 196 467t204 480q52 140 66 233q10 59 51 59zM620 1776q40 0 64 -25t23 -59q0 -34 -37 -70q-37 -35 -76 -35t-65 23q-25 24 -25 62t38 71t78 33z
M868 1761q35 -1 60 -25q24 -24 24 -60t-34 -70t-75 -33q-40 1 -68 25q-27 24 -27 62t42 70t78 31z" />
    <glyph glyph-name="Eth" unicode="&#xd0;" horiz-adv-x="1200" 
d="M625 186q-23 0 -40 20t-18 46q0 125 148 461q-24 -2 -49 -2h-7q-59 1 -100 25t-41 54t14 47t28 17t40 -9q28 -9 54 -9t122 12q129 283 171 387t52 123h-20q-209 0 -410 -148q-98 -74 -159 -144q-62 -70 -62 -102q0 -33 31 -32h6l33 4q8 0 19 -10q30 -28 -19 -58
q-31 -18 -75 -18t-84 28t-40 66q0 78 77 186t193 191q229 166 482 166q10 0 76 -4q6 51 47 51q53 0 77 -82q123 -47 187 -109q150 -151 150 -351t-125 -400q-124 -200 -353 -367q-338 -246 -647 -245q-145 0 -236 52q-90 52 -90 136q0 57 39 57q14 0 22 -8t36 -49
q39 -59 194 -59q156 -1 334 73t343 207t262 297t97 322t-116 258q-41 35 -123 61q-14 -37 -121 -280q-61 -131 -80 -173l156 37q30 1 30 -33t-45 -57q-76 -43 -200 -76q-68 -153 -126 -271t-93 -241q-10 -47 -41 -47z" />
    <glyph glyph-name="Ntilde" unicode="&#xd1;" horiz-adv-x="886" 
d="M281 82v-47q0 -49 -52 -49q-92 0 -92 131q0 161 196 644q245 605 257 621t45 16t69 -33q36 -34 35 -73l-6 -264q0 -502 43 -782q22 52 62 170t153 381q35 90 76 180l100 258q39 98 61 175t36 94q14 18 43 18t53 -27t22 -67q-1 -64 -241 -647q-241 -582 -256 -675
q-9 -45 -21 -111t-63 -67q-57 0 -93 68t-65 218t-35 268t-10 538q-207 -518 -236 -607t-55 -197t-26 -134zM899 1653q-41 0 -98 -51q-15 -14 -37 -14t-34 12q-12 14 -11 34q0 49 61 103q68 55 154 55t145 -74q29 -30 55 -30t60 26q61 45 89 9q13 -17 13 -52t-58 -81
t-124 -46t-135 70q-39 39 -80 39z" />
    <glyph glyph-name="Ograve" unicode="&#xd2;" horiz-adv-x="774" 
d="M340 209q0 -88 53 -88q59 0 144 67q83 68 175 200t154 316q62 182 64 326q0 144 -29 232q-29 90 -70 90q-33 0 -63 -94t-31 -182q1 -89 17 -145q16 -57 16 -69t-13 -23t-30 -12q-88 0 -113 162q-274 -514 -274 -780zM823 1493q111 0 175 -120q64 -121 65 -333
q0 -212 -84 -440t-227 -393q-193 -221 -367 -221q-90 0 -148 68q-59 68 -59 169q0 103 54 281t126 307l209 377q17 31 25 38t35 19q39 248 196 248z" />
    <glyph glyph-name="Oacute" unicode="&#xd3;" horiz-adv-x="774" 
d="M340 209q0 -88 53 -88q59 0 144 67q83 68 175 200t154 316q62 182 64 326q0 144 -29 232q-29 90 -70 90q-33 0 -63 -94t-31 -182q1 -89 17 -145q16 -57 16 -69t-13 -23t-30 -12q-88 0 -113 162q-274 -514 -274 -780zM823 1493q111 0 175 -120q64 -121 65 -333
q0 -212 -84 -440t-227 -393q-193 -221 -367 -221q-90 0 -148 68q-59 68 -59 169q0 103 54 281t126 307l209 377q17 31 25 38t35 19q39 248 196 248zM1047 1855q27 -1 51 -25t22 -50q0 -53 -119 -117q-31 -19 -83 -37t-78 -18q-25 0 -52 18q-26 18 -26 42t33 38
q121 51 204 129q21 20 48 20z" />
    <glyph glyph-name="Ocircumflex" unicode="&#xd4;" horiz-adv-x="774" 
d="M340 209q0 -88 53 -88q59 0 144 67q83 68 175 200t154 316q62 182 64 326q0 144 -29 232q-29 90 -70 90q-33 0 -63 -94t-31 -182q1 -89 17 -145q16 -57 16 -69t-13 -23t-30 -12q-88 0 -113 162q-274 -514 -274 -780zM823 1493q111 0 175 -120q64 -121 65 -333
q0 -212 -84 -440t-227 -393q-193 -221 -367 -221q-90 0 -148 68q-59 68 -59 169q0 103 54 281t126 307l209 377q17 31 25 38t35 19q39 248 196 248zM676 1644q0 16 8 24q8 7 63 36t115 90q30 24 39 33q30 30 70 31q63 0 73 -70q6 -50 45 -116t39 -83q0 -27 -43 -27t-90 48
q-47 47 -51 54t-10 13q-128 -77 -193 -78q-25 1 -45 15t-20 30z" />
    <glyph glyph-name="Otilde" unicode="&#xd5;" horiz-adv-x="774" 
d="M340 209q0 -88 53 -88q59 0 144 67q83 68 175 200t154 316q62 182 64 326q0 144 -29 232q-29 90 -70 90q-33 0 -63 -94t-31 -182q1 -89 17 -145q16 -57 16 -69t-13 -23t-30 -12q-88 0 -113 162q-274 -514 -274 -780zM823 1493q111 0 175 -120q64 -121 65 -333
q0 -212 -84 -440t-227 -393q-193 -221 -367 -221q-90 0 -148 68q-59 68 -59 169q0 103 54 281t126 307l209 377q17 31 25 38t35 19q39 248 196 248zM816 1675q-40 0 -79 -34t-55 -33q-47 0 -47 56t82 110q59 41 119 41t101 -25q40 -25 58 -49q31 -31 53 -31t60 26
q39 26 57 27q19 0 33 -16t14 -39q0 -47 -58 -94t-124 -47t-135 69q-39 39 -79 39z" />
    <glyph glyph-name="Odieresis" unicode="&#xd6;" horiz-adv-x="774" 
d="M340 209q0 -88 53 -88q59 0 144 67q83 68 175 200t154 316q62 182 64 326q0 144 -29 232q-29 90 -70 90q-33 0 -63 -94t-31 -182q1 -89 17 -145q16 -57 16 -69t-13 -23t-30 -12q-88 0 -113 162q-274 -514 -274 -780zM823 1493q111 0 175 -120q64 -121 65 -333
q0 -212 -84 -440t-227 -393q-193 -221 -367 -221q-90 0 -148 68q-59 68 -59 169q0 103 54 281t126 307l209 377q17 31 25 38t35 19q39 248 196 248zM1022 1518q-24 0 -46 20t-22 50t63 113t129 83t64 -58q0 -31 -61 -81q-6 -5 -12 -17q-12 -22 -17 -35q-6 -6 -10 -14
l-14 -31q-4 -10 -27 -20t-47 -10zM914 1853q71 0 71 -55q0 -25 -53 -85t-62 -75l-2 -2q0 -2 -1 -5t-2 -8q-9 -44 -54 -44t-70 23t-22 57q2 57 81 125t114 69z" />
    <glyph glyph-name="multiply" unicode="&#xd7;" horiz-adv-x="819" 
d="M868 627q34 0 52 -26t18 -62q0 -37 -16 -47t-81 -22t-114 -36l-49 -22q16 -8 19 -10t8 -5l2 -2q84 -37 141 -65t57 -51q0 -39 -53 -39q-94 0 -305 112q-182 -92 -283 -178q-25 -20 -44 -20t-35 15q-15 15 -15 32q0 57 86 118q113 88 158 115q-86 59 -117 92t-31 65
q0 31 23 55t47 24t63 -56q59 -65 133 -112q94 47 198 86t138 39z" />
    <glyph glyph-name="Oslash" unicode="&#xd8;" horiz-adv-x="843" 
d="M848 1354q-37 0 -76 -84q-16 -32 -44 -86t-54 -103l-47 -92q-84 -164 -112 -225t-66 -170q78 90 163 180l281 289q6 6 43 47q-8 140 -37 192t-51 52zM348 213q0 -86 64 -86q55 0 142 72t163 182q162 233 217 561l-94 -92q-258 -252 -461 -473q-31 -119 -31 -164z
M1077 1026q0 -166 -59 -356q-60 -190 -158 -340t-225 -245t-232 -95q-154 0 -206 166q-5 -14 -13 -22t-18 -23q-18 -18 -62 -97q-18 -34 -38 -34t-31 14q-12 14 -12 34q0 49 178 281q37 240 239 658q55 111 90 165t101 128q23 114 79 178t132 63q96 0 159 -102
q33 -53 60 -166q59 71 110 125q4 6 25 35q18 20 36 20t35 -27q17 -26 17 -56t-18 -53t-133 -138l-58 -52q2 -27 2 -61z" />
    <glyph glyph-name="Ugrave" unicode="&#xd9;" horiz-adv-x="978" 
d="M319 -6q-71 0 -111 56t-40 128q0 144 58 294q58 149 302 687q41 94 72 205q18 70 62 70q40 0 74 -27t34 -50t-27 -85t-145 -320q-118 -256 -140 -312t-74 -213t-52 -216t28 -59q41 0 146 104q104 104 198 238t147 227q55 95 171 339t132 289t32 65q18 20 48 22
q30 0 60 -27t29 -48q0 -21 -34 -94t-238 -495q-150 -309 -150 -528q0 -131 53 -236q18 -32 -2 -49q-20 -16 -41 -16q-65 0 -113 81t-48 275q0 39 6 66q-285 -371 -437 -371zM916 1898q53 0 69 -54q8 -28 36 -77q27 -49 45 -68t21 -28q35 -37 35 -53t-16 -30t-39 -15
q-55 0 -115 67q-113 125 -112 193q0 27 23 46t53 19z" />
    <glyph glyph-name="Uacute" unicode="&#xda;" horiz-adv-x="978" 
d="M319 -6q-71 0 -111 56t-40 128q0 144 58 294q58 149 302 687q41 94 72 205q18 70 62 70q40 0 74 -27t34 -50t-27 -85t-145 -320q-118 -256 -140 -312t-74 -213t-52 -216t28 -59q41 0 146 104q104 104 198 238t147 227q55 95 171 339t132 289t32 65q18 20 48 22
q30 0 60 -27t29 -48q0 -21 -34 -94t-238 -495q-150 -309 -150 -528q0 -131 53 -236q18 -32 -2 -49q-20 -16 -41 -16q-65 0 -113 81t-48 275q0 39 6 66q-285 -371 -437 -371zM1193 1810q31 0 53 -22t22 -49q0 -57 -117 -121q-31 -16 -85 -36t-83 -19q-58 0 -72 67
q-1 12 17 22l96 46q6 4 18 11t19 13l43 31q23 12 26 21l17 16q16 20 46 20z" />
    <glyph glyph-name="Ucircumflex" unicode="&#xdb;" horiz-adv-x="978" 
d="M319 -6q-71 0 -111 56t-40 128q0 144 58 294q58 149 302 687q41 94 72 205q18 70 62 70q40 0 74 -27t34 -50t-27 -85t-145 -320q-118 -256 -140 -312t-74 -213t-52 -216t28 -59q41 0 146 104q104 104 198 238t147 227q55 95 171 339t132 289t32 65q18 20 48 22
q30 0 60 -27t29 -48q0 -21 -34 -94t-238 -495q-150 -309 -150 -528q0 -131 53 -236q18 -32 -2 -49q-20 -16 -41 -16q-65 0 -113 81t-48 275q0 39 6 66q-285 -371 -437 -371zM852 1593q-32 1 -52 15q-22 14 -22 34t29 31q89 50 137 94q47 44 49 45q39 39 78 39q39 1 55 -21
t27 -74t45 -103q35 -51 35 -64q-1 -33 -45 -33t-103 58l-28 33q-10 10 -19 22q-154 -76 -186 -76z" />
    <glyph glyph-name="Udieresis" unicode="&#xdc;" horiz-adv-x="978" 
d="M319 -6q-71 0 -111 56t-40 128q0 144 58 294q58 149 302 687q41 94 72 205q18 70 62 70q40 0 74 -27t34 -50t-27 -85t-145 -320q-118 -256 -140 -312t-74 -213t-52 -216t28 -59q41 0 146 104q104 104 198 238t147 227q55 95 171 339t132 289t32 65q18 20 48 22
q30 0 60 -27t29 -48q0 -21 -34 -94t-238 -495q-150 -309 -150 -528q0 -131 53 -236q18 -32 -2 -49q-20 -16 -41 -16q-65 0 -113 81t-48 275q0 39 6 66q-285 -371 -437 -371zM1229 1769q31 0 51 -16t20 -39q0 -22 -42 -62t-66 -100q-23 -49 -76 -49q-72 0 -72 86q0 23 52 90
q65 90 133 90zM1038 1839q62 0 64 -55q0 -35 -47 -80q-68 -72 -74 -109q-4 -10 -26 -20q-23 -10 -47 -10t-47 24q-62 65 35 160q58 57 84 73t58 17z" />
    <glyph glyph-name="Yacute" unicode="&#xdd;" horiz-adv-x="514" 
d="M1168 1460q30 0 59 -26t29 -50t-26 -53t-116 -107t-236 -286q-146 -207 -264 -425t-150 -299q-34 -81 -93 -282q-12 -39 -41 -38q-20 0 -40 27q-19 28 -20 59q0 86 82 319q32 84 146 309q-51 90 -68 167q-16 77 -16 199t19 256q19 136 19 187t50 51q37 0 75 -30
q37 -30 37 -61q0 -30 -14 -101q-15 -49 -29 -213t-14 -208t12 -128q72 135 149 243t209 263t171 191q40 36 70 36zM993 1843q27 -1 51 -25t23 -51q0 -57 -116 -115q-115 -58 -153 -58t-63 18q-25 20 -25 40t16 31q15 10 87 43q66 49 90 58q11 10 37 34t53 25z" />
    <glyph glyph-name="Thorn" unicode="&#xde;" horiz-adv-x="757" 
d="M135 2q-53 0 -53 66q0 104 102 352q8 23 87 201t145 331q-133 -86 -264 -230t-132 -206q0 -43 117 -43q37 0 37 -27q0 -26 -36 -50t-90 -24t-104 43q-48 43 -48 115t87 196t229 236t286 183q76 197 94 307q10 59 51 59q31 -1 55 -29t25 -80q0 -52 -49 -196q94 25 123 25
q156 0 215 -33q190 -94 190 -291q0 -85 -39 -159t-129 -160q-176 -160 -372 -217q-104 -31 -152 -31t-82 19q-33 19 -33 41t26 34q27 14 117 34t130 36t110 63q287 190 287 359q0 80 -58 134t-156 54t-237 -57q-208 -493 -284 -663t-101 -288q-18 -104 -94 -104z" />
    <glyph glyph-name="germandbls" unicode="&#xdf;" horiz-adv-x="806" 
d="M854 1068q0 36 -14 36q-33 0 -122 -114t-198 -294q61 37 193 154q61 54 101 118t40 100zM-10 -708q0 -22 -14 -42t-31 -20q-68 0 -68 165t64 372q127 420 465 989q113 190 195 293q83 102 179 163q29 14 58 15q57 0 96 -51q39 -52 39 -118t-50 -146t-130 -144
q71 -20 105 -77t34 -169q0 -174 -103 -336q-123 -193 -282 -192q-94 0 -155 65q-60 66 -60 150t22 128q23 44 57 44q33 0 33 -73t29 -126t74 -53q78 0 164 122t86 269q0 121 -82 121q-17 0 -29 -6t-82 -53t-84 -47q-51 -1 -76 34q-204 -389 -332 -734t-124 -501q2 -20 2 -42
z" />
    <glyph glyph-name="agrave" unicode="&#xe0;" 
d="M727 743q-79 0 -195 -133t-187 -255t-71 -179q0 -31 31 -31q19 1 83 55t122 117q98 117 134 181t71 161q12 33 49 39q0 45 -37 45zM276 -6q-70 0 -112 51t-43 131q0 124 134 312t262 291t207 103t124 -46q45 -47 45 -115q0 -33 -37 -98q6 -15 6 -23t-8 -25
q-94 -236 -94 -393q0 -47 33 -135q4 -17 4 -31q1 -14 -17 -30q-46 -42 -106 16q-60 59 -62 182q0 37 2 66q-209 -256 -338 -256zM655 1270q-1 33 21 53t65 20t56 -45q6 -33 45 -96q40 -64 68 -94t28 -48t-17 -30q-17 -14 -36 -14q-61 0 -117 67q-113 133 -113 187z" />
    <glyph glyph-name="aacute" unicode="&#xe1;" 
d="M727 743q-79 0 -195 -133t-187 -255t-71 -179q0 -31 31 -31q19 1 83 55t122 117q98 117 134 181t71 161q12 33 49 39q0 45 -37 45zM276 -6q-70 0 -112 51t-43 131q0 124 134 312t262 291t207 103t124 -46q45 -47 45 -115q0 -33 -37 -98q6 -15 6 -23t-8 -25
q-94 -236 -94 -393q0 -47 33 -135q4 -17 4 -31q1 -14 -17 -30q-46 -42 -106 16q-60 59 -62 182q0 37 2 66q-209 -256 -338 -256zM958 1257q26 -1 50 -23q25 -22 24 -54q0 -51 -119 -117q-106 -53 -146 -53t-68 19q-27 19 -27 42t33 37q119 49 215 137q12 12 38 12z" />
    <glyph glyph-name="acircumflex" unicode="&#xe2;" 
d="M727 743q-79 0 -195 -133t-187 -255t-71 -179q0 -31 31 -31q19 1 83 55t122 117q98 117 134 181t71 161q12 33 49 39q0 45 -37 45zM276 -6q-70 0 -112 51t-43 131q0 124 134 312t262 291t207 103t124 -46q45 -47 45 -115q0 -33 -37 -98q6 -15 6 -23t-8 -25
q-94 -236 -94 -393q0 -47 33 -135q4 -17 4 -31q1 -14 -17 -30q-46 -42 -106 16q-60 59 -62 182q0 37 2 66q-209 -256 -338 -256zM638 1006q-32 0 -54 13t-21 36q0 23 29 30q8 2 47 29l25 16q41 32 61 47q21 15 56 49t73 35q39 1 64 -22q10 -11 20 -59t18 -61t16 -36
q9 -23 23 -34q6 -12 15 -21q10 -20 10 -30t-13 -20q-13 -9 -31 -9t-47 14q-30 15 -37 25q-6 10 -16 17t-18 19l-14 15q-10 10 -19 22q-8 -4 -47 -20l-4 -4q-6 -3 -55 -27t-81 -24z" />
    <glyph glyph-name="atilde" unicode="&#xe3;" 
d="M727 743q-79 0 -195 -133t-187 -255t-71 -179q0 -31 31 -31q19 1 83 55t122 117q98 117 134 181t71 161q12 33 49 39q0 45 -37 45zM276 -6q-70 0 -112 51t-43 131q0 124 134 312t262 291t207 103t124 -46q45 -47 45 -115q0 -33 -37 -98q6 -15 6 -23t-8 -25
q-94 -236 -94 -393q0 -47 33 -135q4 -17 4 -31q1 -14 -17 -30q-46 -42 -106 16q-60 59 -62 182q0 37 2 66q-209 -256 -338 -256zM732 1102q-40 0 -79 -34t-55 -34q-47 0 -47 56t82 110q59 41 119 41q93 0 159 -74q29 -33 52 -33t61 27t57 27t33 -16t14 -39q0 -47 -58 -95
t-124 -47q-66 0 -135 72q-39 39 -79 39z" />
    <glyph glyph-name="adieresis" unicode="&#xe4;" 
d="M727 743q-79 0 -195 -133t-187 -255t-71 -179q0 -31 31 -31q19 1 83 55t122 117q98 117 134 181t71 161q12 33 49 39q0 45 -37 45zM276 -6q-70 0 -112 51t-43 131q0 124 134 312t262 291t207 103t124 -46q45 -47 45 -115q0 -33 -37 -98q6 -15 6 -23t-8 -25
q-94 -236 -94 -393q0 -47 33 -135q4 -17 4 -31q1 -14 -17 -30q-46 -42 -106 16q-60 59 -62 182q0 37 2 66q-209 -256 -338 -256zM1028 1178q64 0 66 -35q0 -20 -39 -57t-66 -82q-23 -45 -69 -46q-20 0 -36 18t-18 40q0 51 92 131q38 31 70 31zM844 1231q12 0 26 -12t14 -32
t-46 -67t-54 -60t-14 -24q-16 -32 -45 -32t-48 18t-17 42t6 32t30 41q80 92 148 94z" />
    <glyph glyph-name="aring" unicode="&#xe5;" horiz-adv-x="825" 
d="M727 743q-79 0 -195 -133t-187 -255t-71 -179q0 -31 31 -31q19 1 83 55t122 117q98 117 134 181t71 161q12 33 49 39q0 45 -37 45zM276 -6q-70 0 -112 51t-43 131q0 124 134 312t262 291t207 103t124 -46q45 -47 45 -115q0 -33 -37 -98q6 -15 6 -23t-8 -25
q-94 -236 -94 -393q0 -47 33 -135q4 -17 4 -31q1 -14 -17 -30q-46 -42 -106 16q-60 59 -62 182q0 37 2 66q-209 -256 -338 -256zM885 1192q-82 0 -82 -68q0 -39 53 -39q67 1 96 95q-39 12 -67 12zM1030 1149q0 -74 -60 -124t-138 -50t-120 38q-42 37 -42 105t67 127
q68 59 152 60q47 0 80 -22t32 -52l-4 -23q33 -23 33 -59z" />
    <glyph glyph-name="ae" unicode="&#xe6;" horiz-adv-x="1062" 
d="M1063 715q0 23 -26 23q-25 0 -105 -91q-80 -90 -166 -221q66 0 108 26t101 95q88 109 88 168zM719 745q-86 0 -250 -198q-80 -96 -140 -207q-61 -111 -61 -152t25 -41q61 0 258 239t197 314q0 45 -29 45zM739 131q47 0 120 35t118 81t70 46q39 0 38 -45q0 -66 -116 -154
q-117 -94 -240 -94q-158 0 -203 162q-4 -6 -10 -11t-9 -9t-8 -9q-5 -4 -7 -6q-76 -78 -125 -107q-49 -28 -112 -28t-105 53t-44 136q0 83 80 220t207 277q195 209 334 209q53 0 95 -32t52 -83q72 58 109 78t87 20t89 -39t39 -98q0 -121 -136 -281t-294 -161q-35 0 -70 8
q-27 -51 -26 -102q0 -66 67 -66z" />
    <glyph glyph-name="ccedilla" unicode="&#xe7;" horiz-adv-x="604" 
d="M111 -305h22q29 -1 55 23t27 49q0 25 -33 57q-32 32 -32 58q0 24 77 132q-45 23 -75 77t-31 108q0 102 94 256q95 155 233 279t218 124q106 0 106 -84q0 -74 -51 -74q-21 0 -29 14t-20 15q-50 0 -154 -112q-104 -113 -175 -235t-71 -191t56 -68q108 0 233 106q47 35 68 5
q10 -15 10 -33q0 -53 -129 -148q-76 -55 -158 -61q-66 -68 -66 -88t42 -62q22 -27 22 -84t-58 -105t-134 -48q-39 0 -68 18q-29 17 -29 35t16 28t34 9z" />
    <glyph glyph-name="egrave" unicode="&#xe8;" horiz-adv-x="622" 
d="M657 702q0 30 -25 31q-12 0 -62 -45t-88 -91t-126 -179h41q74 -2 203 162q20 24 38 66t19 56zM264 200q0 -46 12 -60t67 -13q55 0 111 29t110 79t70 50q18 1 30 -13t12 -28q0 -78 -126 -164t-222 -86t-154 61q-59 61 -59 142q0 145 159 358q104 137 208 221t169 84
q66 0 102 -37t35 -102q0 -100 -96 -229q-162 -207 -323 -207q-33 0 -80 12q-25 -51 -25 -97zM627 1325q33 0 46 -13t23 -52q39 -94 119 -185q37 -37 0 -62q-18 -13 -39 -14q-49 0 -114 68q-111 117 -111 188q0 29 21 50q22 20 55 20z" />
    <glyph glyph-name="eacute" unicode="&#xe9;" horiz-adv-x="626" 
d="M638 733q-12 0 -62 -45t-88 -91t-126 -179h41q74 -2 203 162q20 25 43 76t12 64q-10 13 -23 13zM270 200q0 -46 12 -60t68 -13q54 0 110 29t110 79t70 50q18 1 30 -13t12 -28q0 -78 -126 -164t-222 -86t-154 61q-59 61 -59 142q0 145 160 358q104 137 207 221t169 84
t102 -37t36 -102q0 -100 -97 -229q-162 -207 -323 -207q-33 0 -80 12q-25 -51 -25 -97zM1032 1255q26 -1 50 -23t24 -54q0 -51 -119 -117q-107 -53 -147 -53t-68 19t-27 42q0 23 33 37q129 55 215 137q13 12 39 12z" />
    <glyph glyph-name="ecircumflex" unicode="&#xea;" horiz-adv-x="622" 
d="M657 702q0 30 -25 31q-12 0 -62 -45t-88 -91t-126 -179h41q74 -2 203 162q20 24 38 66t19 56zM264 200q0 -46 12 -60t67 -13q55 0 111 29t110 79t70 50q18 1 30 -13t12 -28q0 -78 -126 -164t-222 -86t-154 61q-59 61 -59 142q0 145 159 358q104 137 208 221t169 84
q66 0 102 -37t35 -102q0 -100 -96 -229q-162 -207 -323 -207q-33 0 -80 12q-25 -51 -25 -97zM821 1253q39 0 56 -30q2 -3 4 -15q18 -104 63 -164t13 -76q-13 -7 -29 -7q-43 0 -92 49l-15 14q-23 20 -45 49q-58 -28 -76 -35q-103 -64 -162 -26q-24 14 -24 28q0 27 31 37
q34 17 100 68l43 33q20 16 44 40t37 30t52 5z" />
    <glyph glyph-name="edieresis" unicode="&#xeb;" horiz-adv-x="622" 
d="M657 702q0 30 -25 31q-12 0 -62 -45t-88 -91t-126 -179h41q74 -2 203 162q20 24 38 66t19 56zM264 200q0 -46 12 -60t67 -13q55 0 111 29t110 79t70 50q18 1 30 -13t12 -28q0 -78 -126 -164t-222 -86t-154 61q-59 61 -59 142q0 145 159 358q104 137 208 221t169 84
q66 0 102 -37t35 -102q0 -100 -96 -229q-162 -207 -323 -207q-33 0 -80 12q-25 -51 -25 -97zM734 1208q40 0 66 -24t26 -60t-36 -70t-74 -34t-67 24t-29 60q0 37 37 71q37 33 77 33zM963 983q-43 0 -71 26q-28 27 -28 61t39 66t79 33q40 -1 64 -25t24 -50t-36 -76
q-27 -35 -71 -35z" />
    <glyph glyph-name="igrave" unicode="&#xec;" horiz-adv-x="337" 
d="M193 -8q-41 0 -70 40t-29 122t66 239q60 151 120 263t70 141q16 59 53 63q33 2 65 -26t32 -57q0 -30 -35 -86t-103 -199q-68 -142 -102 -234t-33 -182l9 -51q0 -13 -14 -23t-29 -10zM398 1339q32 0 46 -14t23 -51q57 -106 97 -154t40 -64t-17 -28q-17 -14 -40 -14
q-51 0 -113 67q-111 117 -110 189q0 31 21 50t53 19z" />
    <glyph glyph-name="iacute" unicode="&#xed;" horiz-adv-x="337" 
d="M193 -8q-41 0 -70 40t-29 122t66 239q60 151 120 263t70 141q16 59 53 63q33 2 65 -26t32 -57q0 -30 -35 -86t-103 -199q-68 -142 -102 -234t-33 -182l9 -51q0 -13 -14 -23t-29 -10zM764 1255q28 1 52 -23t24 -48q0 -60 -115 -118t-152 -58t-63 19t-27 39t13 30
q14 8 92 45q104 66 126 90t50 24z" />
    <glyph glyph-name="icircumflex" unicode="&#xee;" horiz-adv-x="337" 
d="M193 -8q-41 0 -70 40t-29 122t66 239q60 151 120 263t70 141q16 59 53 63q33 2 65 -26t32 -57q0 -30 -35 -86t-103 -199q-68 -142 -102 -234t-33 -182l9 -51q0 -13 -14 -23t-29 -10zM743 1018v-10q0 -31 -43 -31t-106 63l-14 15q-4 6 -27 35q-10 -4 -83 -40
q-74 -36 -104 -36t-53 14t-23 34t32 32q94 49 204 157q20 21 56 21t54 -16q19 -16 21 -35l2 -4q0 -6 4 -21t7 -29q14 -63 65 -131q8 -10 8 -18z" />
    <glyph glyph-name="idieresis" unicode="&#xef;" horiz-adv-x="337" 
d="M193 -8q-41 0 -70 40t-29 122t66 239q60 151 120 263t70 141q16 59 53 63q33 2 65 -26t32 -57q0 -30 -35 -86t-103 -199q-68 -142 -102 -234t-33 -182l9 -51q0 -13 -14 -23t-29 -10zM455 1198q82 0 82 -88q0 -41 -36 -70q-36 -28 -75 -28t-65 26q-25 26 -25 61t38 67
t81 32zM693 1161q40 -1 65 -25q24 -24 24 -61t-37 -69t-75 -33t-65 25t-27 62t38 68t77 33z" />
    <glyph glyph-name="eth" unicode="&#xf0;" horiz-adv-x="651" 
d="M299 212q0 -91 45 -91q29 0 78 38t96 99q133 172 133 346q0 129 -49 129q-10 0 -16 -6l-25 -43q-10 -27 -35 -47q-70 -61 -127 -160q-100 -174 -100 -265zM510 1104q0 30 14 48q14 17 28 17t40 -10q27 -10 49 -10t45 2l37 4q-6 58 -17 90q-10 31 -26 83t-26 82t-9 38
q0 43 78 43t110 -60t46 -253q85 12 182 43q25 4 31 4q30 0 30 -32t-39 -54q-20 -14 -89 -41t-111 -37q-6 -283 -125 -621q-64 -188 -192 -319t-247 -131q-79 0 -127 54t-49 140q0 195 168 412q39 52 64 72t84 55v2q2 4 5 13q3 8 7 20t28 37q23 25 53 45t75 18q45 0 84 -24
q16 115 16 200l-70 -10q-63 0 -105 25t-42 55z" />
    <glyph glyph-name="ntilde" unicode="&#xf1;" horiz-adv-x="800" 
d="M152 -12q-36 0 -63 34q-26 34 -26 70t38 120q39 83 139 286q100 204 112 234t16 62q7 63 56 62q35 0 68 -31q32 -31 32 -63t-21 -79q-21 -48 -169 -304q207 188 344 344q72 80 92 98q20 19 48 19t48 -33q43 -71 -8 -191q-117 -274 -117 -448q1 -36 7 -58t29 -63t23 -58
t-14 -27q-16 -10 -48 -11q-32 0 -83 45q-57 56 -57 156t12 159t60 224l-275 -285q-131 -138 -146 -160t-24 -41q-37 -61 -73 -61zM868 1106h15q20 0 53 22t48 21q16 0 30 -14t14 -42t-27 -55q-68 -63 -131 -63t-92 29q-72 68 -77 72t-11 5q-6 0 -35 2t-80 -41
q-20 -14 -35 -14t-29 14q-13 14 -13 43t37 60q83 67 153 67t115 -47q25 -25 35 -33t18 -16q8 -10 12 -10z" />
    <glyph glyph-name="ograve" unicode="&#xf2;" horiz-adv-x="636" 
d="M287 197q0 -76 45 -76q29 0 78 38t96 99q133 172 133 346q0 129 -49 129q-10 0 -16 -6l-25 -43q-10 -27 -35 -47q-70 -61 -127 -160q-100 -172 -100 -280zM786 641q0 -86 -40 -200t-108 -216t-158 -169q-91 -66 -172 -66t-129 54t-48 140q0 195 168 412q39 51 63 72
q25 20 84 55q0 2 13 38t62 67t93 30q74 0 123 -66t49 -151zM570 1329q32 0 47 -13q15 -12 32 -66t113 -171q16 -18 16 -33q0 -14 -16 -28t-39 -14q-55 0 -115 67q-113 125 -112 184q0 33 21 53t53 21z" />
    <glyph glyph-name="oacute" unicode="&#xf3;" horiz-adv-x="638" 
d="M287 197q0 -76 45 -76q29 0 78 38t96 99q133 172 133 346q0 129 -49 129q-10 0 -16 -6l-25 -43q-10 -27 -35 -47q-70 -61 -127 -160q-100 -172 -100 -280zM786 641q0 -86 -40 -200t-108 -216t-158 -169q-91 -66 -172 -66t-129 54t-48 140q0 195 168 412q39 51 63 72
q25 20 84 55q0 2 13 38t62 67t93 30q74 0 123 -66t49 -151zM895 1253q33 1 55 -23t23 -50q0 -60 -114 -118t-152 -58q-39 0 -65 19t-26 39t18 32t69 35q52 23 70 39q19 16 27 21t17 11q10 6 21 17q24 36 57 36z" />
    <glyph glyph-name="ocircumflex" unicode="&#xf4;" horiz-adv-x="638" 
d="M287 197q0 -76 45 -76q29 0 78 38t96 99q133 172 133 346q0 129 -49 129q-10 0 -16 -6l-25 -43q-10 -27 -35 -47q-70 -61 -127 -160q-100 -172 -100 -280zM786 641q0 -86 -40 -200t-108 -216t-158 -169q-91 -66 -172 -66t-129 54t-48 140q0 195 168 412q39 51 63 72
q25 20 84 55q0 2 13 38t62 67t93 30q74 0 123 -66t49 -151zM751 1264q65 0 70 -70q23 -86 60 -141q29 -37 29 -51t-14 -24q-13 -9 -30 -9q-45 0 -102 57q-37 39 -49 55q-9 -3 -23 -10q-121 -66 -172 -65q-24 0 -46 14t-22 32t29 33q78 39 187 140q39 39 83 39z" />
    <glyph glyph-name="otilde" unicode="&#xf5;" horiz-adv-x="638" 
d="M287 197q0 -76 45 -76q29 0 78 38t96 99q133 172 133 346q0 129 -49 129q-10 0 -16 -6l-25 -43q-10 -27 -35 -47q-70 -61 -127 -160q-100 -172 -100 -280zM786 641q0 -86 -40 -200t-108 -216t-158 -169q-91 -66 -172 -66t-129 54t-48 140q0 195 168 412q39 51 63 72
q25 20 84 55q0 2 13 38t62 67t93 30q74 0 123 -66t49 -151zM593 1090q-40 0 -79 -34t-55 -34q-47 0 -47 56t72 104t132 47q60 0 96 -23q36 -22 64 -52t50 -30t60 26t57 28q19 0 33 -16t15 -40q0 -47 -58 -94t-125 -47t-136 70q-39 39 -79 39z" />
    <glyph glyph-name="odieresis" unicode="&#xf6;" horiz-adv-x="638" 
d="M287 197q0 -76 45 -76q29 0 78 38t96 99q133 172 133 346q0 129 -49 129q-10 0 -16 -6l-25 -43q-10 -27 -35 -47q-70 -61 -127 -160q-100 -172 -100 -280zM786 641q0 -86 -40 -200t-108 -216t-158 -169q-91 -66 -172 -66t-129 54t-48 140q0 195 168 412q39 51 63 72
q25 20 84 55q0 2 13 38t62 67t93 30q74 0 123 -66t49 -151zM920 1153q64 0 65 -35q0 -20 -41 -60q-40 -40 -64 -80q-24 -42 -67 -42q-20 0 -37 17q-16 17 -16 40q0 49 92 129q36 31 68 31zM776 1162q0 -20 -48 -66t-54 -60t-12 -24q-16 -33 -46 -33t-53 23q-24 23 -6 68
q4 9 31 42q79 92 147 94q13 0 27 -12t14 -32z" />
    <glyph glyph-name="divide" unicode="&#xf7;" horiz-adv-x="722" 
d="M535 563q-68 0 -68 65q0 32 32 56t74 25q41 -1 65 -17t24 -44t-41 -56t-86 -29zM555 125q-35 1 -67 23t-26 48t7 35q3 15 27 27t62 12t79 -26q10 -8 27 -64q0 -55 -109 -55zM188 422q0 12 14 36t32 23q16 0 46 -7t150 -7q119 0 267 42t173 42q35 0 35 -33q0 -47 -103 -88
q-102 -41 -238 -68q-136 -26 -256 -26t-120 86z" />
    <glyph glyph-name="oslash" unicode="&#xf8;" horiz-adv-x="675" 
d="M569 684q0 -23 -34 -43q-123 -111 -189 -281q127 104 309 242q4 28 4 52t-13 52q-12 28 -30 27q-18 0 -22 -5t-21 -34l-4 -4v-6zM303 190q0 -61 41 -61q61 0 158 117q49 57 73 101q25 44 62 140q-164 -121 -196 -147t-101 -80l-31 -24q-6 -35 -6 -46zM926 813
q32 0 32 -58q0 -27 -26 -51t-131 -96q-25 -158 -70 -259t-139 -206q-135 -154 -268 -153q-111 -1 -162 114q-52 -54 -68 -76t-30 -22t-23 9q-8 9 -8 20q0 39 94 133l20 18q-1 144 103 324t211 215q53 139 176 139q59 0 95 -36t65 -119q47 37 56 46l17 17l9 6l2 4q6 6 13 12
t12 12q6 7 20 7z" />
    <glyph glyph-name="ugrave" unicode="&#xf9;" horiz-adv-x="843" 
d="M125 129q0 166 187 550q73 149 90 167q18 18 52 18t56 -19q38 -32 12 -83q-70 -100 -160 -308t-90 -264q0 -84 174 123t260 351t102 166t44 22t60 -31t32 -59t-55 -114q-55 -85 -96 -213q-41 -129 -41 -197t12 -99t40 -65t27 -50q0 -16 -17 -32q-52 -45 -127 37t-75 217
q0 37 6 94q-209 -263 -292 -320q-45 -31 -90 -30q-111 0 -111 139zM520 1251q0 29 22 49t62 21q41 0 55 -45q43 -117 127 -205q14 -15 14 -33t-16 -30t-43 -12t-49 12q-22 14 -64 58t-75 100t-33 85z" />
    <glyph glyph-name="uacute" unicode="&#xfa;" horiz-adv-x="843" 
d="M125 129q0 166 187 550q73 149 90 167q18 18 52 18t56 -19q38 -32 12 -83q-70 -100 -160 -308t-90 -264q0 -84 174 123t260 351t102 166t44 22t60 -31t32 -59t-55 -114q-55 -85 -96 -213q-41 -129 -41 -197t12 -99t40 -65t27 -50q0 -16 -17 -32q-52 -45 -127 37t-75 217
q0 37 6 94q-209 -263 -292 -320q-45 -31 -90 -30q-111 0 -111 139zM975 1155q0 -61 -117 -121q-43 -23 -94 -40t-64 -15q-51 11 -64 25t-13 20l-5 23q14 23 24 27t22 10t38 16t66 39l43 30q23 12 27 21l16 16q16 20 46 20t52 -23q22 -24 23 -48z" />
    <glyph glyph-name="ucircumflex" unicode="&#xfb;" horiz-adv-x="843" 
d="M125 129q0 166 187 550q73 149 90 167q18 18 52 18t56 -19q38 -32 12 -83q-70 -100 -160 -308t-90 -264q0 -84 174 123t260 351t102 166t44 22t60 -31t32 -59t-55 -114q-55 -85 -96 -213q-41 -129 -41 -197t12 -99t40 -65t27 -50q0 -16 -17 -32q-52 -45 -127 37t-75 217
q0 37 6 94q-209 -263 -292 -320q-45 -31 -90 -30q-111 0 -111 139zM512 1044q0 16 8 24t59 37q51 30 169 134q16 20 59 21q68 0 74 -70q16 -77 50 -128q33 -52 33 -75t-43 -22q-44 1 -120 77l-15 17q-3 0 -16 20q-128 -77 -192 -78q-22 -1 -44 13t-22 30z" />
    <glyph glyph-name="udieresis" unicode="&#xfc;" horiz-adv-x="843" 
d="M125 129q0 166 187 550q73 149 90 167q18 18 52 18t56 -19q38 -32 12 -83q-70 -100 -160 -308t-90 -264q0 -84 174 123t260 351t102 166t44 22t60 -31t32 -59t-55 -114q-55 -85 -96 -213q-41 -129 -41 -197t12 -99t40 -65t27 -50q0 -16 -17 -32q-52 -45 -127 37t-75 217
q0 37 6 94q-209 -263 -292 -320q-45 -31 -90 -30q-111 0 -111 139zM940 1229q64 0 66 -35q0 -20 -39 -56t-66 -81q-23 -45 -70 -45q-20 0 -36 17t-17 40q0 49 92 129q38 31 70 31zM754 1282q12 0 26 -12t14 -32t-46 -68q-48 -48 -55 -60t-13 -23q-16 -33 -45 -33t-48 19
q-19 18 -17 42t5 32q4 8 31 41q80 92 148 94z" />
    <glyph glyph-name="yacute" unicode="&#xfd;" horiz-adv-x="768" 
d="M305 -182q35 0 35 -25q0 -16 -16 -39q-154 -205 -222 -349t-69 -186q0 -42 24 -42q43 0 224 307q115 193 225 420q111 227 151 356q8 27 19 51q-223 -197 -311 -258q-89 -61 -143 -61t-86 36t-32 110t40 155t188 293t156 237q16 45 46 45t56 -28t24 -59q0 -32 -53 -107
q-297 -424 -297 -498q0 -18 19 -18q11 0 33 16t139 115q260 217 368 368q59 83 75 101t40 18t46 -34t22 -68t-58 -140q-58 -104 -82 -155l-32 -78q-10 -25 -31 -78q-131 -322 -306 -644q-236 -434 -394 -519q-38 -20 -89 -20t-83 40q-32 41 -31 111q0 174 221 459
q129 168 184 168zM997 1235q27 0 51 -25t23 -51q0 -57 -116 -115q-115 -58 -153 -59t-63 19t-25 40t16 31q15 10 87 43q66 49 90 58q10 10 43 38q20 21 47 21z" />
    <glyph glyph-name="thorn" unicode="&#xfe;" horiz-adv-x="663" 
d="M715 627q0 45 -29 45q-23 0 -43 -24t-94 -98t-119 -138t-129 -222q10 -72 51 -71q104 0 234 181q129 181 129 327zM762 1342q0 -32 -33 -87q-84 -160 -181 -384q-96 -224 -100 -231t-7 -15t-5 -13q59 68 94 103q106 96 193 96q31 0 61 -17q70 -39 70 -146t-50 -233
t-126 -212q-186 -211 -354 -211q-53 0 -111 49q-74 -151 -157 -357t-99 -280q-10 -41 -37 -41q-26 0 -50 32q-24 31 -24 77t45 172t169 412q124 288 226 545q103 257 175 416q71 158 109 249t40 95q2 5 8 40q4 10 22 20q50 29 94 -18q28 -29 28 -61z" />
    <glyph glyph-name="ydieresis" unicode="&#xff;" horiz-adv-x="768" 
d="M305 -182q35 0 35 -25q0 -16 -16 -39q-154 -205 -222 -349t-69 -186q0 -42 24 -42q43 0 224 307q115 193 225 420q111 227 151 356q8 27 19 51q-223 -197 -311 -258q-89 -61 -143 -61t-86 36t-32 110t40 155t188 293t156 237q16 45 46 45t56 -28t24 -59q0 -32 -53 -107
q-297 -424 -297 -498q0 -18 19 -18q11 0 33 16t139 115q260 217 368 368q59 83 75 101t40 18t46 -34t22 -68t-58 -140q-58 -104 -82 -155l-32 -78q-10 -25 -31 -78q-131 -322 -306 -644q-236 -434 -394 -519q-38 -20 -89 -20t-83 40q-32 41 -31 111q0 174 221 459
q129 168 184 168zM616 1108q0 38 38 70t78 32t63 -22t23 -60t-34 -72q-32 -34 -74 -34t-68 24t-26 62zM977 1196q39 0 63 -27t25 -61q0 -34 -36 -68t-75 -34q-40 0 -66 22t-26 62q0 38 38 72t77 34z" />
    <glyph glyph-name="Amacron" unicode="&#x100;" horiz-adv-x="958" 
d="M928 1118l-342 -477q72 18 227 53q13 58 24 96q11 39 13 48l24 98q2 10 8 30zM1039 1450q32 0 72 -34t40 -59t-42 -149q-43 -124 -79 -270q-36 -147 -49 -197q45 11 73 21t42 10t24 -10t10 -22t-12 -32q-12 -22 -36 -34t-70 -26t-60 -21q-56 -234 -75 -409t-15 -224
t4 -60q0 -10 -12 -24t-29 -14q-47 0 -67 68q-52 175 26 609l-73 -20q-153 -43 -181 -48q-29 -5 -43 -9q-110 -169 -196 -310l-68 -112q-16 -31 -28 -56q-12 -34 -41 -34t-63 28t-34 55t26 69t117 178t95 143q-33 -4 -67 -9q-34 -6 -63 -6q-31 0 -53 26t-22 68t37 42h8l60 -5
q20 0 206 33l267 365q90 125 168 233t111 155q34 48 36 50q8 27 16 34t40 7zM961 1726q15 0 37 -9t106 -9t205 35q20 4 32 4q29 0 29 -25q0 -45 -106 -85t-226 -40t-118 70q0 59 41 59z" />
    <glyph glyph-name="amacron" unicode="&#x101;" 
d="M727 743q-79 0 -195 -133t-187 -255t-71 -179q0 -31 31 -31q19 1 83 55t122 117q98 117 134 181t71 161q12 33 49 39q0 45 -37 45zM276 -6q-70 0 -112 51t-43 131q0 124 134 312t262 291t207 103t124 -46q45 -47 45 -115q0 -33 -37 -98q6 -15 6 -23t-8 -25
q-94 -236 -94 -393q0 -47 33 -135q4 -17 4 -31q1 -14 -17 -30q-46 -42 -106 16q-60 59 -62 182q0 37 2 66q-209 -256 -338 -256zM586 1141q14 0 40 -10q26 -11 105 -11q80 0 203 35q20 4 33 4q29 0 28 -24q0 -45 -106 -85t-225 -40t-119 71q0 60 41 60z" />
    <glyph glyph-name="Abreve" unicode="&#x102;" horiz-adv-x="958" 
d="M928 1118l-342 -477q72 18 227 53q13 58 24 96q11 39 13 48l24 98q2 10 8 30zM1039 1450q32 0 72 -34t40 -59t-42 -149q-43 -124 -79 -270q-36 -147 -49 -197q45 11 73 21t42 10t24 -10t10 -22t-12 -32q-12 -22 -36 -34t-70 -26t-60 -21q-56 -234 -75 -409t-15 -224
t4 -60q0 -10 -12 -24t-29 -14q-47 0 -67 68q-52 175 26 609l-73 -20q-153 -43 -181 -48q-29 -5 -43 -9q-110 -169 -196 -310l-68 -112q-16 -31 -28 -56q-12 -34 -41 -34t-63 28t-34 55t26 69t117 178t95 143q-33 -4 -67 -9q-34 -6 -63 -6q-31 0 -53 26t-22 68t37 42h8l60 -5
q20 0 206 33l267 365q90 125 168 233t111 155q34 48 36 50q8 27 16 34t40 7zM950 1798q0 29 33 29t55 -11q22 -12 57 -46t63 -34t88 26q60 24 97 24q68 0 68 -47q0 -15 -12 -23t-55 -34t-84 -57q-42 -32 -62 -42t-55 -10t-67 29q-32 30 -79 108t-47 88z" />
    <glyph glyph-name="abreve" unicode="&#x103;" 
d="M727 743q-79 0 -195 -133t-187 -255t-71 -179q0 -31 31 -31q19 1 83 55t122 117q98 117 134 181t71 161q12 33 49 39q0 45 -37 45zM276 -6q-70 0 -112 51t-43 131q0 124 134 312t262 291t207 103t124 -46q45 -47 45 -115q0 -33 -37 -98q6 -15 6 -23t-8 -25
q-94 -236 -94 -393q0 -47 33 -135q4 -17 4 -31q1 -14 -17 -30q-46 -42 -106 16q-60 59 -62 182q0 37 2 66q-209 -256 -338 -256zM592 1223q0 28 33 28t55 -11t56 -44t63 -33q29 1 90 25t96 24q68 0 68 -47q1 -14 -11 -22q-12 -7 -56 -33t-85 -58t-61 -42t-55 -10t-67 28
q-32 29 -79 106t-47 89z" />
    <glyph glyph-name="Aogonek" unicode="&#x104;" horiz-adv-x="958" 
d="M928 1118l-342 -477q72 18 227 53q13 58 24 96q11 39 13 48l24 98q2 10 8 30zM1038 1450q31 0 72 -34t41 -62t-36 -126q-36 -96 -109 -394q-10 -29 -25 -93q16 3 58 17q43 14 57 14t24 -9t10 -19t-10 -35q-14 -23 -39 -35t-69 -26t-60 -21q-90 -395 -90 -578q0 -8 4 -49
q-16 -55 -16 -98q0 -44 26 -72t91 -55q20 -8 20 -31q-1 -43 -73 -43t-122 52q-50 53 -50 115t16 134q-20 76 -20 186t46 385l-73 -20q-153 -43 -181 -48q-29 -5 -43 -9q-111 -168 -196 -310l-68 -112q-16 -31 -28 -56q-12 -34 -41 -34t-63 28t-34 55t26 69t117 178t95 143
q-33 -4 -67 -9q-34 -6 -63 -6q-31 0 -53 26t-22 68t37 42h8q55 -6 71 -6t195 34l267 365q303 420 313 438q10 27 18 34t39 7z" />
    <glyph glyph-name="aogonek" unicode="&#x105;" 
d="M727 743q-79 0 -195 -133t-187 -255t-71 -179q0 -31 31 -31q19 -1 83 53q165 139 274 332q18 33 53 129q12 33 49 39q0 45 -37 45zM862 600q0 -8 -24 -64t-53 -170q-27 -114 -27 -174t20 -109q20 -48 19 -59q0 -11 -31 -50q-31 -38 -31 -80t22 -64t87 -49q20 -8 20 -31
q0 -43 -72 -43t-124 56q-54 57 -54 129t50 126q-51 59 -52 166q0 37 2 66q-209 -256 -338 -256q-68 0 -112 51t-43 129q0 125 145 332q123 170 251 273q127 103 205 103t124 -46q46 -48 47 -100q0 -52 -37 -113q6 -15 6 -23z" />
    <glyph glyph-name="Cacute" unicode="&#x106;" horiz-adv-x="935" 
d="M436 117q72 -1 195 65t229 162q35 31 113 117l31 31q16 16 28 16q41 0 41 -53q0 -86 -164 -240q-248 -231 -468 -231q-107 0 -179 88t-72 227q0 250 261 655q141 221 293 353q153 131 268 131q41 0 83 -23t58 -55q27 -40 27 -106t-24 -105t-51 -39q-52 0 -52 47l2 31
l6 39q-1 25 -21 49t-43 22q-23 0 -77 -34t-99 -76q-104 -94 -219 -274q-252 -396 -254 -660q0 -137 88 -137zM1174 1817q26 0 50 -25t23 -51q0 -57 -116 -115q-115 -58 -153 -59q-38 0 -63 19q-25 20 -25 40t16 30q15 10 87 44q66 49 90 57q10 10 37 35t54 25z" />
    <glyph glyph-name="cacute" unicode="&#x107;" horiz-adv-x="604" 
d="M600 250q16 0 28 -16t11 -33q-1 -41 -101 -126t-201 -85t-159 60t-59 154q0 94 95 249q94 155 232 279t218 124q106 0 106 -84q0 -72 -51 -72q-19 0 -29 14t-22 13q-46 0 -152 -112q-106 -111 -176 -233t-70 -191t58 -68q102 0 233 106q23 21 39 21zM937 1266
q25 0 49 -24t24 -50q0 -58 -115 -116t-153 -58t-62 19t-25 39t15 32q16 10 88 43q30 20 65 43q35 22 61 47t53 25z" />
    <glyph glyph-name="Ccaron" unicode="&#x10c;" horiz-adv-x="935" 
d="M436 117q72 -1 195 65t229 162q35 31 113 117l31 31q16 16 28 16q41 0 41 -53q0 -86 -164 -240q-248 -231 -468 -231q-107 0 -179 88t-72 227q0 250 261 655q141 221 293 353q153 131 268 131q41 0 83 -23t58 -55q27 -40 27 -106t-24 -105t-51 -39q-52 0 -52 47l2 31
l6 39q-1 25 -21 49t-43 22q-23 0 -77 -34t-99 -76q-104 -94 -219 -274q-252 -396 -254 -660q0 -137 88 -137zM1362 1788q0 -23 -55 -49q-75 -45 -137 -103t-107 -57q-45 -1 -57 21t-15 49q-25 84 -71 166q-12 14 -13 30q0 27 31 27q59 0 104 -47l29 -29q17 -14 29 -41
q123 77 193 77q69 1 69 -44z" />
    <glyph glyph-name="ccaron" unicode="&#x10d;" horiz-adv-x="604" 
d="M600 250q16 0 28 -16t11 -33q-1 -41 -101 -126t-201 -85t-159 60t-59 154q0 94 95 249q94 155 232 279t218 124q106 0 106 -84q0 -72 -51 -72q-19 0 -29 14t-22 13q-46 0 -152 -112q-106 -111 -176 -233t-70 -191t58 -68q102 0 233 106q23 21 39 21zM974 1280
q67 0 66 -45q0 -23 -55 -49q-75 -44 -137 -102t-107 -58t-56 22t-15 48q-25 84 -72 166q-12 14 -12 30q0 27 30 27q60 0 105 -47l29 -29q16 -14 28 -41q129 78 196 78z" />
    <glyph glyph-name="Dcaron" unicode="&#x10e;" horiz-adv-x="1200" 
d="M343 850q-44 0 -84 28t-40 66q0 78 77 186t193 191q229 166 482 166q10 0 76 -4q6 51 47 51q53 0 77 -82q123 -47 187 -109q150 -151 150 -351t-125 -400q-124 -200 -353 -367q-338 -246 -647 -245q-145 0 -236 52q-90 52 -90 136q0 57 39 57q14 0 22 -8t36 -49
q39 -59 194 -59q156 -1 334 73t343 207t262 297t97 322t-116 258q-41 35 -123 61q-137 -319 -254 -563t-157 -336t-68 -195q-10 -47 -41 -47q-23 0 -40 20t-18 46q0 147 224 629q100 215 147 331t61 146h-20q-211 0 -408 -148q-98 -74 -160 -144t-63 -105q0 -8 8 -19
q9 -10 15 -10l49 4q6 0 17 -10t11 -24t-30 -34q-31 -18 -75 -18zM1479 1845q68 0 67 -45q0 -23 -55 -49q-75 -45 -137 -103t-107 -57q-45 -1 -56 21t-15 49q-25 84 -72 166q-12 14 -12 31q0 27 30 26q58 0 104 -46t58 -69q49 29 82 42q32 13 56 23t57 11z" />
    <glyph glyph-name="dcaron" unicode="&#x10f;" horiz-adv-x="815" 
d="M672 625q-6 78 -47 77q-33 0 -131 -110t-160 -226q-61 -116 -62 -188q0 -25 17 -24q72 0 383 471zM1098 1425q28 1 54 -25t26 -56t-50 -117q-135 -219 -256 -559q-90 -262 -90 -490q0 -63 14 -96t13 -44q0 -10 -16 -26t-40 -16t-51 20t-45 58t-18 120q0 80 10 166
q-119 -168 -227 -268t-169 -100q-60 0 -98 46t-38 126t59 209t160 256q184 229 313 229q39 0 63 -20q23 -21 48 -74q29 63 63 138q35 75 121 251t86 203q16 39 28 54t40 15zM1303 1395q33 0 57 -22t20 -46q-4 -72 -123 -211q-61 -72 -108 -72t-47 29q0 12 33 53
q90 121 122 228q13 41 46 41z" />
    <glyph glyph-name="Dcroat" unicode="&#x110;" horiz-adv-x="1200" 
d="M625 186q-23 0 -40 20t-18 46q0 125 148 461q-24 -2 -49 -2h-7q-59 1 -100 25t-41 54t14 47t28 17t40 -9q28 -9 54 -9t122 12q129 283 171 387t52 123h-20q-209 0 -410 -148q-98 -74 -159 -144q-62 -70 -62 -102q0 -33 31 -32h6l33 4q8 0 19 -10q30 -28 -19 -58
q-31 -18 -75 -18t-84 28t-40 66q0 78 77 186t193 191q229 166 482 166q10 0 76 -4q6 51 47 51q53 0 77 -82q123 -47 187 -109q150 -151 150 -351t-125 -400q-124 -200 -353 -367q-338 -246 -647 -245q-145 0 -236 52q-90 52 -90 136q0 57 39 57q14 0 22 -8t36 -49
q39 -59 194 -59q156 -1 334 73t343 207t262 297t97 322t-116 258q-41 35 -123 61q-14 -37 -121 -280q-61 -131 -80 -173l156 37q30 1 30 -33t-45 -57q-76 -43 -200 -76q-68 -153 -126 -271t-93 -241q-10 -47 -41 -47z" />
    <glyph glyph-name="dcroat" unicode="&#x111;" horiz-adv-x="817" 
d="M672 625q-6 78 -45 77q-33 0 -131 -109t-161 -226q-62 -117 -63 -187q0 -27 17 -26q70 0 383 471zM676 1125q0 31 14 47t28 18q14 0 41 -9q61 -20 199 7q57 126 79 182t53 55q32 1 60 -25t28 -60t-52 -111q-4 -8 -8 -15q6 0 22 4q98 28 117 29q31 1 31 -33t-45 -57
q-86 -47 -196 -76q-265 -517 -265 -903q0 -63 14 -96t13 -44q0 -10 -16 -26t-40 -16t-51 20t-45 58t-18 120q0 80 10 166q-119 -168 -227 -268t-169 -100q-60 0 -98 46t-38 126t59 209t160 256q184 229 313 229q39 0 63 -20q23 -21 48 -74l135 291l-72 -8q-67 -1 -107 23
t-40 55z" />
    <glyph glyph-name="Emacron" unicode="&#x112;" horiz-adv-x="995" 
d="M742 1489q32 0 59 -53q98 12 216 12q117 0 229 -30t112 -75q0 -39 -39 -38q-10 0 -96 13q-87 13 -179 13t-253 -26q-43 -133 -66 -189t-113 -250q104 16 164 17q254 0 254 -97q0 -37 -47 -36q-9 0 -45 8t-107 8t-286 -35q-17 -43 -67 -141t-87 -176q-35 -66 -77 -157
t-56 -116q174 55 344 55t280 -35q110 -36 109 -93q0 -27 -30 -27q-8 1 -83 15q-74 14 -172 14t-223 -18t-193 -43q-68 -24 -93 -23q-49 0 -79 45t-30 67q0 70 287 619q-33 33 -33 67q0 51 74 54h14q113 213 201 426q-46 -11 -62 -21l-57 -37q-46 -28 -66 -28t-44 28t-23 64
q0 43 65 65q45 18 73 27q29 10 61 24t102 31q10 47 20 59t42 13zM827 1722q14 0 37 -9q22 -9 104 -9t206 33q20 4 32 4q29 0 29 -25q-1 -43 -107 -83t-224 -40t-118 70q0 59 41 59z" />
    <glyph glyph-name="emacron" unicode="&#x113;" horiz-adv-x="622" 
d="M657 702q0 30 -25 31q-12 0 -62 -45t-88 -91t-126 -179h41q74 -2 203 162q20 24 38 66t19 56zM264 200q0 -46 12 -60t67 -13q55 0 111 29t110 79t70 50q18 1 30 -13t12 -28q0 -78 -126 -164t-222 -86t-154 61q-59 61 -59 142q0 145 159 358q104 137 208 221t169 84
q66 0 102 -37t35 -102q0 -100 -96 -229q-162 -207 -323 -207q-33 0 -80 12q-25 -51 -25 -97zM578 1137q14 1 36 -9t106 -10q82 0 206 35q20 4 32 4q29 0 29 -24q-1 -45 -109 -85t-194 -40t-117 18t-30 51q0 60 41 60z" />
    <glyph glyph-name="Edotaccent" unicode="&#x116;" horiz-adv-x="995" 
d="M742 1489q32 0 59 -53q98 12 216 12q117 0 229 -30t112 -75q0 -39 -39 -38q-10 0 -96 13q-87 13 -179 13t-253 -26q-43 -133 -66 -189t-113 -250q104 16 164 17q254 0 254 -97q0 -37 -47 -36q-9 0 -45 8t-107 8t-286 -35q-17 -43 -67 -141t-87 -176q-35 -66 -77 -157
t-56 -116q174 55 344 55t280 -35q110 -36 109 -93q0 -27 -30 -27q-8 1 -83 15q-74 14 -172 14t-223 -18t-193 -43q-68 -24 -93 -23q-49 0 -79 45t-30 67q0 70 287 619q-33 33 -33 67q0 51 74 54h14q113 213 201 426q-46 -11 -62 -21l-57 -37q-46 -28 -66 -28t-44 28t-23 64
q0 43 65 65q45 18 73 27q29 10 61 24t102 31q10 47 20 59t42 13zM1012 1765q39 -1 77 -33q37 -32 37 -70t-22 -58t-64 -20q-40 0 -76 29q-36 31 -36 67t22 61q23 24 62 24z" />
    <glyph glyph-name="edotaccent" unicode="&#x117;" horiz-adv-x="622" 
d="M657 702q0 30 -25 31q-12 0 -62 -45t-88 -91t-126 -179h41q74 -2 203 162q20 24 38 66t19 56zM264 200q0 -46 12 -60t67 -13q55 0 111 29t110 79t70 50q18 1 30 -13t12 -28q0 -78 -126 -164t-222 -86t-154 61q-59 61 -59 142q0 145 159 358q104 137 208 221t169 84
q66 0 102 -37t35 -102q0 -100 -96 -229q-162 -207 -323 -207q-33 0 -80 12q-25 -51 -25 -97zM897 1092q-1 -78 -87 -78q-40 0 -76 30t-36 66q0 38 22 62t62 24q39 0 77 -33t38 -71z" />
    <glyph glyph-name="Eogonek" unicode="&#x118;" horiz-adv-x="995" 
d="M742 1489q32 0 59 -53q98 12 216 12q117 0 229 -30t112 -75q0 -39 -39 -38q-10 0 -96 13q-87 13 -179 13t-253 -26q-43 -133 -66 -189t-113 -250q104 16 164 17q254 0 254 -97q0 -37 -47 -36q-9 0 -45 8t-107 8t-286 -35q-17 -43 -67 -141t-87 -176q-35 -66 -77 -157
t-56 -116q174 55 344 55t280 -35q110 -36 109 -93q0 -18 -20 -27q-39 -53 -39 -93t22 -62t88 -50q20 -8 21 -31q0 -43 -72 -43t-126 56t-54 124t37 115q-157 25 -323 1q-167 -25 -235 -49t-93 -23q-49 0 -79 45t-30 67q0 70 287 619q-33 33 -33 67q0 51 74 54h14
q113 213 201 426q-46 -11 -62 -21l-57 -37q-46 -28 -66 -28t-44 28t-23 64q0 43 65 65q45 18 73 27q29 10 61 24t102 31q10 47 20 59t42 13z" />
    <glyph glyph-name="eogonek" unicode="&#x119;" horiz-adv-x="622" 
d="M657 702q0 30 -25 31q-12 0 -62 -45t-88 -91t-126 -179h41q74 -2 203 162q20 24 38 66t19 56zM160 -129q0 76 67 143q-113 63 -112 181q0 150 159 360q102 137 206 221t169 84q66 0 103 -37t36 -102q0 -100 -96 -229q-162 -207 -323 -207q-33 0 -80 12q-25 -51 -25 -96
t12 -59t66 -15q54 0 111 29t111 79t70 50q18 1 30 -13t12 -28q0 -82 -158 -185q-76 -47 -170 -63q-68 -78 -68 -123t22 -67t87 -50q20 -8 21 -30q0 -43 -71 -43t-125 56t-54 132z" />
    <glyph glyph-name="Ecaron" unicode="&#x11a;" horiz-adv-x="995" 
d="M742 1489q32 0 59 -53q98 12 216 12q117 0 229 -30t112 -75q0 -39 -39 -38q-10 0 -96 13q-87 13 -179 13t-253 -26q-43 -133 -66 -189t-113 -250q104 16 164 17q254 0 254 -97q0 -37 -47 -36q-9 0 -45 8t-107 8t-286 -35q-17 -43 -67 -141t-87 -176q-35 -66 -77 -157
t-56 -116q174 55 344 55t280 -35q110 -36 109 -93q0 -27 -30 -27q-8 1 -83 15q-74 14 -172 14t-223 -18t-193 -43q-68 -24 -93 -23q-49 0 -79 45t-30 67q0 70 287 619q-33 33 -33 67q0 51 74 54h14q113 213 201 426q-46 -11 -62 -21l-57 -37q-46 -28 -66 -28t-44 28t-23 64
q0 43 65 65q45 18 73 27q29 10 61 24t102 31q10 47 20 59t42 13zM1210 1839q66 0 66 -45q0 -23 -55 -49q-70 -41 -162 -123q-35 -37 -80 -37q-45 -1 -56 21t-23 74t-64 141q-12 14 -13 30q0 27 31 27q58 0 104 -46t56 -69q55 33 85 44q29 11 55 21t56 11z" />
    <glyph glyph-name="ecaron" unicode="&#x11b;" horiz-adv-x="622" 
d="M657 702q0 30 -25 31q-12 0 -62 -45t-88 -91t-126 -179h41q74 -2 203 162q20 24 38 66t19 56zM264 200q0 -46 12 -60t67 -13q55 0 111 29t110 79t70 50q18 1 30 -13t12 -28q0 -78 -126 -164t-222 -86t-154 61q-59 61 -59 142q0 145 159 358q104 137 208 221t169 84
q66 0 102 -37t35 -102q0 -100 -96 -229q-162 -207 -323 -207q-33 0 -80 12q-25 -51 -25 -97zM992 1257q68 0 69 -45q0 -23 -55 -49q-70 -41 -162 -123q-35 -36 -80 -36q-44 0 -56 21t-24 73t-63 141q-12 14 -13 31q0 27 31 26q57 0 104 -47q46 -42 56 -67q125 75 193 75z
" />
    <glyph glyph-name="Gbreve" unicode="&#x11e;" horiz-adv-x="1007" 
d="M357 -8q-77 0 -131 68t-54 190t91 342t235 428q295 422 524 422q82 0 129 -74q35 -53 35 -102t-21 -105q-23 -45 -67 -45q-18 0 -31 14q-12 14 -12 30t2 20l8 57q-1 20 -21 42t-38 21q-58 0 -162 -95t-226 -265t-216 -382t-93 -333q-1 -33 17 -59t41 -25q53 0 178 88
q125 87 235 199t166 207q-260 -70 -315 -70q-68 0 -68 74t68 78q83 3 241 33t164 30q33 0 63 -36q29 -36 29 -66t-24 -73q-24 -44 -99 -211t-75 -322q0 -66 9 -102t9 -48t-11 -24t-28 -13q-45 0 -78 72t-33 153t19 181q-203 -183 -293 -241t-167 -58zM909 1845q33 0 56 -11
t57 -44t62 -33q28 1 88 25t98 24q68 0 67 -47q0 -14 -12 -22q-12 -7 -55 -33t-84 -58q-42 -32 -62 -42t-55 -10t-67 28q-32 29 -78 106t-47 89q-1 28 32 28z" />
    <glyph glyph-name="gbreve" unicode="&#x11f;" horiz-adv-x="686" 
d="M236 145q0 -16 16 -16t86 64q121 106 260 282q6 6 59 72q-37 31 -37 56t32 53q30 28 30 51q-106 -55 -276 -269t-170 -293zM94 115q0 119 138 315t285 315q146 119 243 119q36 0 62 -26t26 -78t-49 -127q51 -16 51 -43q0 -16 -27 -58l-12 -24q-39 -102 -138 -372
t-153 -414t-136 -288q-224 -399 -415 -399q-67 1 -103 49t-36 139t54 214t147 231q158 184 225 185q43 0 43 -35q0 -12 -9 -24q-10 -12 -66 -71q-56 -60 -160 -225t-103 -286q0 -59 23 -60q27 0 84 53q113 104 280 463q112 238 225 588q-71 -84 -145 -150t-119 -90t-97 -22
q-52 0 -85 32t-33 89zM663 1274q33 0 56 -11t57 -45t62 -34q29 0 89 24t97 25q68 0 68 -47q0 -14 -12 -22t-56 -34q-43 -26 -84 -58t-61 -42q-19 -10 -55 -10t-68 29t-78 107q-47 78 -47 89q-1 29 32 29z" />
    <glyph glyph-name="Gcommaaccent" unicode="&#x122;" horiz-adv-x="1007" 
d="M357 -8q-77 0 -131 68t-54 190t91 342t235 428q295 422 524 422q82 0 129 -74q35 -53 35 -102t-21 -105q-23 -45 -67 -45q-18 0 -31 14q-12 14 -12 30t2 20l8 57q-1 20 -21 42t-38 21q-58 0 -162 -95t-226 -265t-216 -382t-93 -333q-1 -33 17 -59t41 -25q53 0 178 88
q125 87 235 199t166 207q-260 -70 -315 -70q-68 0 -68 74t68 78q83 3 241 33t164 30q33 0 63 -36q29 -36 29 -66t-24 -73q-24 -44 -99 -211t-75 -322q0 -66 9 -102t9 -48t-11 -24t-28 -13q-45 0 -78 72t-33 153t19 181q-203 -183 -293 -241t-167 -58zM512 -143q32 0 56 -22
t22 -46q-4 -72 -123 -211q-61 -72 -109 -72t-47 29q0 12 33 53q90 121 123 228q12 41 45 41z" />
    <glyph glyph-name="gcommaaccent" unicode="&#x123;" horiz-adv-x="686" 
d="M236 145q0 -16 16 -16t86 64q121 106 260 282q6 6 59 72q-37 31 -37 56t32 53q30 28 30 51q-106 -55 -276 -269t-170 -293zM94 115q0 119 138 315t285 315q146 119 243 119q36 0 62 -26t26 -78t-49 -127q51 -16 51 -43q0 -16 -27 -58l-12 -24q-39 -102 -138 -372
t-153 -414t-136 -288q-224 -399 -415 -399q-67 1 -103 49t-36 139t54 214t147 231q158 184 225 185q43 0 43 -35q0 -12 -9 -24q-10 -12 -66 -71q-56 -60 -160 -225t-103 -286q0 -59 23 -60q27 0 84 53q113 104 280 463q112 238 225 588q-71 -84 -145 -150t-119 -90t-97 -22
q-52 0 -85 32t-33 89zM987 1370q47 0 47 -29q0 -12 -62 -96t-93 -186q-11 -41 -45 -41t-58 22t-20 45q4 72 123 211q61 74 108 74z" />
    <glyph glyph-name="Imacron" unicode="&#x12a;" horiz-adv-x="335" 
d="M651 1501q31 -1 56 -29t24 -65q0 -80 -72 -266t-315 -746q-86 -189 -106 -297t-99 -108q-51 0 -51 72t46 200q46 127 196 467t204 480q52 140 66 233q10 59 51 59zM532 1733q14 -1 40 -11t106 -10t203 35q20 4 32 4q29 0 29 -25q0 -45 -106 -85q-106 -39 -226 -39
t-118 71q-1 60 40 60z" />
    <glyph glyph-name="imacron" unicode="&#x12b;" horiz-adv-x="337" 
d="M193 -8q-41 0 -70 40t-29 122t66 239q60 151 120 263t70 141q16 59 53 63q33 2 65 -26t32 -57q0 -30 -35 -86t-103 -199q-68 -142 -102 -234t-33 -182l9 -51q0 -13 -14 -23t-29 -10zM340 1137q14 1 37 -9t105 -10t206 33q20 4 33 4q29 0 29 -25q0 -42 -108 -82t-226 -40
t-117 69q0 60 41 60z" />
    <glyph glyph-name="Iogonek" unicode="&#x12e;" horiz-adv-x="335" 
d="M88 61q0 68 53 224q39 107 237 551t222 606q10 59 51 59q31 -1 56 -29t24 -65q1 -88 -67 -260t-236 -555t-183 -462t-49 -121t-34 -84q0 -41 22 -63t86 -50q20 -8 21 -31q0 -43 -71 -43t-125 55t-54 126t47 128v14z" />
    <glyph glyph-name="iogonek" unicode="&#x12f;" horiz-adv-x="337" 
d="M612 1214q37 0 72 -30t35 -63q-1 -34 -21 -53t-57 -19q-37 1 -71 27t-34 60t20 56q19 22 56 22zM166 -104q0 -44 22 -66t86 -49q20 -8 21 -31q0 -43 -71 -43t-125 56q-54 57 -54 133t70 143q-23 37 -23 92q0 106 66 262q45 115 114 254q66 115 78 150q16 63 52 63t67 -26
t31 -56q0 -29 -34 -85t-104 -200q-70 -145 -104 -239t-33 -174l11 -55q0 -19 -23 -29q-47 -56 -47 -100z" />
    <glyph glyph-name="Idotaccent" unicode="&#x130;" horiz-adv-x="335" 
d="M651 1501q31 -1 56 -29t24 -65q0 -80 -72 -266t-315 -746q-86 -189 -106 -297t-99 -108q-51 0 -51 72t46 200q46 127 196 467t204 480q52 140 66 233q10 59 51 59zM706 1767q39 -1 77 -33t38 -70q-1 -38 -23 -58t-63 -20t-77 29q-36 31 -36 67t23 60q22 24 61 25z" />
    <glyph glyph-name="dotlessi" unicode="&#x131;" horiz-adv-x="337" 
d="M193 -8q-41 0 -70 40t-29 122t66 239q60 151 120 263t70 141q16 59 53 63q33 2 65 -26t32 -57q0 -30 -35 -86t-103 -199q-68 -142 -102 -234t-33 -182l9 -51q0 -13 -14 -23t-29 -10z" />
    <glyph glyph-name="Kcommaaccent" unicode="&#x136;" horiz-adv-x="1019" 
d="M146 -12q-24 0 -48 26t-24 72q0 48 49 150t86 202t137 332q205 473 217 582q14 80 68 80q27 0 49 -27t22 -57q0 -115 -225 -639q-23 -49 -110 -265q311 371 526 570q322 293 440 293q29 1 48 -15t19 -41t-46 -47q-225 -115 -596 -518q0 -266 77 -472t193 -253
q49 -27 49 -47t-19 -34t-62 -15q-43 0 -112 48t-116 120q-133 206 -156 493l-104 -120q-176 -219 -254 -322l-31 -37q-29 -39 -41 -49t-36 -10zM278 -496q-50 0 -49 29q-1 12 61 95t95 188q14 41 47 41q34 0 58 -24t18 -51t-8 -50v-17q-56 -63 -114 -137t-108 -74z" />
    <glyph glyph-name="kcommaaccent" unicode="&#x137;" horiz-adv-x="806" 
d="M881 854q18 0 30 -14q13 -14 13 -38t-18 -43t-114 -87q-98 -68 -134 -100q-36 -30 -74 -76q-8 -115 43 -244t121 -168q40 -29 40 -52q0 -24 -18 -36t-45 -12q-84 0 -174 106q-25 34 -61 108t-48 156q-88 -98 -118 -141t-66 -96q-34 -53 -59 -90q-15 -33 -51 -33t-60 20
t-22 50q0 30 154 434t236 600q83 197 96 216t40 19q28 -1 56 -31t28 -50t-71 -174q-71 -153 -135 -317q-64 -165 -84 -211t-44 -108q114 115 180 174q66 58 194 148t165 90zM321 -143q31 0 55 -22t21 -46q-4 -72 -123 -211q-63 -72 -110 -72t-47 29q0 12 33 53
q92 125 122 228q17 41 49 41z" />
    <glyph glyph-name="Lacute" unicode="&#x139;" 
d="M684 1382q0 -227 -438 -1245q117 23 245 23t214 -35t86 -96q0 -31 -37 -31q-14 0 -66 16t-178 16q-125 0 -248 -32q-66 -14 -76 -14q-43 0 -81 39q-37 39 -37 73t59 168l362 905q20 45 38 127q17 82 19 136t52 55q38 0 62 -29t24 -76zM922 1837q28 0 50 -25
q24 -25 23 -51q0 -59 -118 -117q-117 -58 -153 -57q-36 -1 -60 19t-25 40q0 20 14 29q14 10 88 45l90 58q6 6 19 16q12 10 28 26t44 17z" />
    <glyph glyph-name="lacute" unicode="&#x13a;" horiz-adv-x="339" 
d="M652 1413q24 0 52 -30q28 -31 27 -61q0 -30 -39 -98t-129 -269q-274 -609 -274 -787q0 -60 17 -90t18 -39q0 -47 -54 -47t-85 52q-79 128 45 475q6 13 10 27t11 32t12 31t18 41q12 28 20 48q7 20 27 64t34 77q14 35 44 101q170 370 182 442q2 12 20 22q20 9 44 9z
M945 1739q25 0 49 -25t24 -51q0 -55 -119 -119q-115 -55 -151 -55t-60 19q-24 20 -24 40t15 30t87 44q45 35 88 57q33 29 49 45t42 15z" />
    <glyph glyph-name="Lcommaaccent" unicode="&#x13b;" 
d="M684 1382q0 -227 -438 -1245q117 23 245 23t214 -35t86 -96q0 -31 -37 -31q-14 0 -66 16t-178 16q-125 0 -248 -32q-66 -14 -76 -14q-43 0 -81 39q-37 39 -37 73t59 168l362 905q20 45 38 127q17 82 19 136t52 55q38 0 62 -29t24 -76zM381 -162q33 0 57 -22t21 -45
q-4 -72 -123 -211q-37 -44 -60 -58q-24 -14 -60 -14t-36 29q0 15 28 47t71 105q41 73 55 121t47 48z" />
    <glyph glyph-name="lcommaaccent" unicode="&#x13c;" horiz-adv-x="339" 
d="M636 1413q40 0 68 -30q28 -31 27 -61q0 -30 -41 -102t-132 -272q-91 -201 -142 -338q-129 -332 -129 -442q0 -63 26 -102q10 -18 11 -27q0 -47 -54 -47t-86 51q-78 121 33 442q43 127 203 491t168 406q8 31 48 31zM117 -143q33 0 57 -22t21 -46q-4 -72 -123 -211
q-60 -72 -108 -72t-48 29q0 12 33 53q90 121 123 228q12 41 45 41z" />
    <glyph glyph-name="Lcaron" unicode="&#x13d;" horiz-adv-x="833" 
d="M503 160q128 0 214 -35t86 -96q0 -31 -37 -31q-14 0 -66 16t-178 16q-124 0 -248 -32q-66 -14 -75 -14q-43 0 -81 39t-38 73t59 168l363 905q20 45 38 127q17 82 18 136t52 55q39 0 63 -29t23 -76q0 -227 -438 -1245q117 23 245 23zM956 1505q34 -1 56 -23t20 -44
q-4 -74 -123 -213q-63 -72 -109 -72t-46 29q0 14 10 24q104 127 145 258q13 41 47 41z" />
    <glyph glyph-name="lcaron" unicode="&#x13e;" horiz-adv-x="339" 
d="M652 1413q24 0 52 -30q28 -31 27 -61q0 -30 -39 -98t-129 -269q-274 -609 -274 -787q0 -60 17 -90t18 -39q0 -47 -54 -47t-85 52q-79 128 45 475q6 13 10 27t11 32t12 31t18 41q12 28 20 48q7 20 27 64t34 77q14 35 44 101q170 370 182 442q2 12 20 22q20 9 44 9z
M930 1393q32 0 56 -22t22 -46q-4 -76 -123 -211q-61 -74 -109 -74t-47 29q1 12 63 96t93 187q12 41 45 41z" />
    <glyph glyph-name="Lslash" unicode="&#x141;" horiz-adv-x="831" 
d="M92 414q-102 0 -100 69q0 27 13 38t48 11q74 2 232 101l8 6l213 539q14 24 32 114t18 142q1 52 52 53q37 0 62 -29t24 -72q0 -158 -174 -602q34 21 125 84t105 64q31 0 30 -47q0 -59 -334 -291q-98 -244 -190 -457q117 23 245 23t214 -35t86 -96q0 -31 -35 -31
q-16 0 -70 16t-178 16q-126 0 -246 -32q-63 -14 -75 -14q-43 0 -81 39t-38 71t9 53t60 123l72 185q-78 -41 -127 -41z" />
    <glyph glyph-name="lslash" unicode="&#x142;" horiz-adv-x="339" 
d="M649 1413q25 0 53 -29q28 -28 27 -60q0 -32 -38 -96t-165 -349q28 17 104 71t91 54q31 0 31 -46q0 -18 -20 -40q-96 -106 -281 -218q-164 -401 -164 -528q0 -68 17 -96t18 -37q0 -47 -54 -47t-85 51q-32 51 -31 133q0 145 98 402q-31 -18 -43 -27q-59 -39 -109 -39
q-100 0 -100 68q0 29 14 40t49 11q72 0 222 100l41 25q172 387 214 488t48 138q4 10 21 20t42 11z" />
    <glyph glyph-name="Nacute" unicode="&#x143;" horiz-adv-x="884" 
d="M281 82v-47q0 -49 -52 -49q-92 0 -92 131q0 161 196 644q245 605 257 621t45 16t69 -33q36 -34 35 -73l-6 -264q0 -502 43 -782q22 52 62 170t153 381q35 90 76 180l100 258q39 98 61 175t36 94q14 18 43 18t53 -27t22 -67q-1 -64 -241 -647q-241 -582 -256 -675
q-9 -45 -21 -111t-63 -67q-57 0 -93 68t-65 218t-35 268t-10 538q-207 -518 -236 -607t-55 -197t-26 -134zM941 1581q-39 -1 -63 19t-24 40t14 29q14 10 88 45l91 58q3 2 33 29q59 54 107 4q24 -24 23 -50q0 -59 -116 -117t-153 -57z" />
    <glyph glyph-name="nacute" unicode="&#x144;" horiz-adv-x="800" 
d="M152 -12q-36 0 -63 34q-26 34 -26 70t38 120q39 83 139 286q100 204 112 234t16 62q7 63 56 62q35 0 68 -31q32 -31 32 -63t-21 -79q-21 -48 -169 -304q207 188 344 344q72 80 92 98q20 19 48 19t48 -33q43 -71 -8 -191q-117 -274 -117 -448q1 -36 7 -58t29 -63t23 -58
t-14 -27q-16 -10 -48 -11q-32 0 -83 45q-57 56 -57 156t12 159t60 224l-275 -285q-131 -138 -146 -160t-24 -41q-37 -61 -73 -61zM827 1225q27 0 51 -25t23 -51q0 -57 -116 -115q-115 -58 -153 -59q-38 0 -63 19q-25 20 -25 40t16 30q15 10 87 44q66 49 90 57q11 10 37 35
t53 25z" />
    <glyph glyph-name="Ncommaaccent" unicode="&#x145;" horiz-adv-x="886" 
d="M281 82v-47q0 -49 -52 -49q-92 0 -92 131q0 161 196 644q245 605 257 621t45 16t69 -33q36 -34 35 -73l-6 -264q0 -502 43 -782q22 52 62 170t153 381q35 90 76 180l100 258q39 98 61 175t36 94q14 18 43 18t53 -27t22 -67q-1 -64 -241 -647q-241 -582 -256 -675
q-9 -45 -21 -111t-63 -67q-57 0 -93 68t-65 218t-35 268t-10 538q-207 -518 -236 -607t-55 -197t-26 -134zM426 -143q32 0 56 -22t22 -46q-4 -72 -123 -211q-63 -74 -111 -74t-47 29q0 12 33 53q94 127 123 230q14 41 47 41z" />
    <glyph glyph-name="ncommaaccent" unicode="&#x146;" horiz-adv-x="800" 
d="M152 -12q-36 0 -63 34q-26 34 -26 70t38 120q39 83 139 286q100 204 112 234t16 62q7 63 56 62q35 0 68 -31q32 -31 32 -63t-21 -79q-21 -48 -169 -304q207 188 344 344q72 80 92 98q20 19 48 19t48 -33q43 -71 -8 -191q-117 -274 -117 -448q1 -36 7 -58t29 -63t23 -58
t-14 -27q-16 -10 -48 -11q-32 0 -83 45q-57 56 -57 156t12 159t60 224l-275 -285q-131 -138 -146 -160t-24 -41q-37 -61 -73 -61zM334 -141q32 0 56 -22t22 -46q-4 -72 -123 -211q-61 -72 -109 -72t-47 29q0 12 33 53q90 121 123 228q12 41 45 41z" />
    <glyph glyph-name="Ncaron" unicode="&#x147;" horiz-adv-x="886" 
d="M281 82v-47q0 -49 -52 -49q-92 0 -92 131q0 161 196 644q245 605 257 621t45 16t69 -33q36 -34 35 -73l-6 -264q0 -502 43 -782q22 52 62 170t153 381q35 90 76 180l100 258q39 98 61 175t36 94q14 18 43 18t53 -27t22 -67q-1 -64 -241 -647q-241 -582 -256 -675
q-9 -45 -21 -111t-63 -67q-57 0 -93 68t-65 218t-35 268t-10 538q-207 -518 -236 -607t-55 -197t-26 -134zM1270 1772q0 -23 -56 -50q-70 -41 -161 -123q-35 -37 -80 -37t-57 22t-23 74q-12 52 -44 103t-32 68q0 27 31 26q57 0 104 -47q6 -4 26 -24t32 -43q58 35 86 45
t52 20t56 11q66 0 66 -45z" />
    <glyph glyph-name="ncaron" unicode="&#x148;" horiz-adv-x="800" 
d="M152 -12q-36 0 -63 34q-26 34 -26 70t38 120q39 83 139 286q100 204 112 234t16 62q7 63 56 62q35 0 68 -31q32 -31 32 -63t-21 -79q-21 -48 -169 -304q207 188 344 344q72 80 92 98q20 19 48 19t48 -33q43 -71 -8 -191q-117 -274 -117 -448q1 -36 7 -58t29 -63t23 -58
t-14 -27q-16 -10 -48 -11q-32 0 -83 45q-57 56 -57 156t12 159t60 224l-275 -285q-131 -138 -146 -160t-24 -41q-37 -61 -73 -61zM975 1182q0 -23 -55 -49q-70 -41 -162 -123q-35 -37 -80 -37q-44 0 -56 21q-12 22 -24 74t-63 140q-12 14 -13 31q0 27 31 27q57 0 104 -47
l29 -29q14 -14 29 -41q16 12 20 14q106 63 173 63t67 -44z" />
    <glyph glyph-name="Omacron" unicode="&#x14c;" horiz-adv-x="774" 
d="M340 209q0 -88 53 -88q59 0 144 67q83 68 175 200t154 316q62 182 64 326q0 144 -29 232q-29 90 -70 90q-33 0 -63 -94t-31 -182q1 -89 17 -145q16 -57 16 -69t-13 -23t-30 -12q-88 0 -113 162q-274 -514 -274 -780zM823 1493q111 0 175 -120q64 -121 65 -333
q0 -212 -84 -440t-227 -393q-193 -221 -367 -221q-90 0 -148 68q-59 68 -59 169q0 103 54 281t126 307l209 377q17 31 25 38t35 19q39 248 196 248zM616 1722q14 0 37 -9t105 -9t207 33q20 4 32 4q29 0 29 -25q0 -43 -108 -83t-225 -40q-118 0 -118 70q0 59 41 59z" />
    <glyph glyph-name="omacron" unicode="&#x14d;" horiz-adv-x="638" 
d="M287 197q0 -76 45 -76q29 0 78 38t96 99q133 172 133 346q0 129 -49 129q-10 0 -16 -6l-25 -43q-10 -27 -35 -47q-70 -61 -127 -160q-100 -172 -100 -280zM786 641q0 -86 -40 -200t-108 -216t-158 -169q-91 -66 -172 -66t-129 54t-48 140q0 195 168 412q39 51 63 72
q25 20 84 55q0 2 13 38t62 67t93 30q74 0 123 -66t49 -151zM500 1126q14 0 36 -9t106 -9q82 0 206 33q20 4 33 4q29 0 28 -25q1 -43 -107 -83t-226 -40t-117 70q0 59 41 59z" />
    <glyph glyph-name="Ohungarumlaut" unicode="&#x150;" horiz-adv-x="774" 
d="M340 209q0 -88 53 -88q59 0 144 67q83 68 175 200t154 316q62 182 64 326q0 144 -29 232q-29 90 -70 90q-33 0 -63 -94t-31 -182q1 -89 17 -145q16 -57 16 -69t-13 -23t-30 -12q-88 0 -113 162q-274 -514 -274 -780zM823 1493q111 0 175 -120q64 -121 65 -333
q0 -212 -84 -440t-227 -393q-193 -221 -367 -221q-90 0 -148 68q-59 68 -59 169q0 103 54 281t126 307l209 377q17 31 25 38t35 19q39 248 196 248zM920 1888q28 0 50 -24t21 -52q0 -59 -94 -147q-29 -27 -41 -33t-55 -12q-27 0 -47 15q-46 35 6 89q8 10 21 22t30 38l20 24
q6 14 8 19q1 4 3 8q15 53 78 53zM1157 1823q16 1 42 -21t26 -62t-56 -98q-85 -92 -145 -92t-59 54q0 45 45 82t52 49t15 43q12 45 80 45z" />
    <glyph glyph-name="ohungarumlaut" unicode="&#x151;" horiz-adv-x="638" 
d="M287 197q0 -76 45 -76q29 0 78 38t96 99q133 172 133 346q0 129 -49 129q-10 0 -16 -6l-25 -43q-10 -27 -35 -47q-70 -61 -127 -160q-100 -172 -100 -280zM786 641q0 -86 -40 -200t-108 -216t-158 -169q-91 -66 -172 -66t-129 54t-48 140q0 195 168 412q39 51 63 72
q25 20 84 55q0 2 13 38t62 67t93 30q74 0 123 -66t49 -151zM955 1243q28 1 57 -23t28 -49q0 -57 -122 -143q-64 -49 -100 -49t-62 15t-25 36q0 10 78 70q12 10 72 71l28 46q18 26 46 26zM701 1247q28 1 57 -23t28 -48q0 -57 -122 -146q-64 -49 -100 -49t-62 15t-25 36
q0 12 78 70q12 10 72 74q29 43 28 45q18 26 46 26z" />
    <glyph glyph-name="OE" unicode="&#x152;" horiz-adv-x="1572" 
d="M309 190q0 -70 71 -69q71 0 174 84t204 225q223 313 223 666q0 88 -22 148t-54 61q-37 0 -77 -110t-40 -212q0 -31 10 -86t9 -67q0 -12 -12 -26t-27 -13q-74 0 -102 129q-2 4 -4 18t-5 25q-27 -45 -103 -172t-161 -329q-84 -202 -84 -272zM1142 164q168 0 282 -39
t114 -86q0 -35 -49 -35q-12 0 -84 14t-139 15q-262 0 -445 -62q-61 -20 -88 -20q-84 0 -110 131q-131 -98 -239 -98t-167 61t-59 177t164 464q96 201 235 395q49 70 129 148q31 80 53 119q57 104 165 104t171 -133q31 -66 41 -207l14 33q16 37 41 93t43 127t27 75
q11 22 33 22t42 -18t23 -37q121 10 231 10t221 -31q110 -31 110 -71q-1 -19 -13 -31t-26 -12t-72 12q-59 12 -181 12t-278 -24q-37 -113 -61 -171t-115 -263q143 14 195 14t111 -14q110 -26 110 -90q0 -33 -43 -33q-12 0 -56 7t-86 7t-251 -27l-48 -6q-61 -123 -99 -201
q-38 -77 -56 -115t-29 -61l-10 -20q-84 -158 -92 -182q173 47 341 47z" />
    <glyph glyph-name="oe" unicode="&#x153;" horiz-adv-x="1058" 
d="M805 422q51 0 131 80q125 125 125 207q0 25 -19 24q-32 0 -110 -89t-166 -222h39zM727 127q55 0 127 32t121 80t74 48q35 0 34 -43q-1 -70 -119 -160t-237 -90q-59 0 -98 24t-82 82q-127 -110 -221 -110q-186 1 -187 213q0 91 44 199t120 196t150 88q29 0 46 -14t17 -30
t-47 -60q-47 -43 -109 -163q-63 -120 -63 -229q0 -63 43 -63q76 0 194 163t117 345q0 98 -51 98q-14 0 -21 -6t-26 -35q-8 -8 -20 -8t-29 26q-43 69 21 123q39 31 101 31t107 -46t58 -128q174 176 272 176q57 0 96 -41t39 -97t-35 -130t-92 -139q-145 -172 -307 -172
q-37 0 -68 10q-25 -66 -24 -98q0 -72 55 -72z" />
    <glyph glyph-name="Racute" unicode="&#x154;" horiz-adv-x="944" 
d="M848 1274h-14q-74 -184 -91 -219q-12 -37 -58 -143t-56 -136q-25 -53 -47 -100q197 29 372 145q203 131 203 260q0 85 -86 139t-223 54zM210 -12q-25 0 -43 15q-17 15 -17 33t14 54q377 846 495 1151q-139 -53 -222 -106t-161 -133t-77 -107q0 -10 4 -13q5 -2 29 -14
t24 -39q0 -39 -57 -39t-99 38q-41 38 -41 85q0 90 179 232q201 156 462 235q18 50 58 50t73 -35q45 4 50 4q139 0 264 -68q147 -80 147 -248t-158 -306t-442 -218q47 -203 139 -386t170 -224q51 -27 52 -55q-1 -18 -17 -32q-52 -43 -156 34q-67 47 -120 120
q-126 181 -230 541l-157 -352q-53 -123 -69 -150t-42 -47q-27 -20 -52 -20zM1159 1794q27 0 51 -25t23 -51q0 -58 -116 -116t-154 -58q-39 0 -63 20t-24 40t16 30t68 34t73 46q21 20 39 30t40 30q20 20 47 20z" />
    <glyph glyph-name="racute" unicode="&#x155;" horiz-adv-x="532" 
d="M850 812q0 -20 -13 -32q-13 -10 -96 -37q-153 -90 -289 -267t-241 -421q-29 -63 -68 -63t-59 19t-20 46t49 123q94 215 149 390t47 227q0 43 33 43q32 0 60 -44t28 -84t-2 -61q102 104 154 142q104 74 196 73q28 0 50 -17t22 -37zM778 1223q26 0 50 -25t24 -51
q0 -57 -116 -115t-154 -59q-38 0 -62 19q-24 20 -24 40t15 30t87 44q66 49 90 57q10 10 36 35t54 25z" />
    <glyph glyph-name="Rcommaaccent" unicode="&#x156;" horiz-adv-x="944" 
d="M848 1274h-14q-74 -184 -91 -219q-12 -37 -58 -143t-56 -136q-25 -53 -47 -100q197 29 372 145q203 131 203 260q0 85 -86 139t-223 54zM210 -12q-25 0 -43 15q-17 15 -17 33t14 54q377 846 495 1151q-139 -53 -222 -106t-161 -133t-77 -107q0 -10 4 -13q5 -2 29 -14
t24 -39q0 -39 -57 -39t-99 38q-41 38 -41 85q0 90 179 232q201 156 462 235q18 50 58 50t73 -35q45 4 50 4q139 0 264 -68q147 -80 147 -248t-158 -306t-442 -218q47 -203 139 -386t170 -224q51 -27 52 -55q-1 -18 -17 -32q-52 -43 -156 34q-67 47 -120 120
q-126 181 -230 541l-157 -352q-53 -123 -69 -150t-42 -47q-27 -20 -52 -20zM483 -143q33 0 57 -22t21 -46q-4 -72 -123 -211q-61 -72 -108 -72t-47 29q0 12 32 53q90 121 123 228q12 41 45 41z" />
    <glyph glyph-name="rcommaaccent" unicode="&#x157;" horiz-adv-x="532" 
d="M850 812q0 -20 -13 -32q-13 -10 -96 -37q-153 -90 -289 -267t-241 -421q-29 -63 -68 -63t-59 19t-20 46t49 123q94 215 149 390t47 227q0 43 33 43q32 0 60 -44t28 -84t-2 -61q102 104 154 142q104 74 196 73q28 0 50 -17t22 -37zM8 -141q33 0 57 -22t21 -46
q-4 -76 -123 -211q-61 -74 -109 -74t-47 29q1 12 63 96t93 187q12 41 45 41z" />
    <glyph glyph-name="Rcaron" unicode="&#x158;" horiz-adv-x="944" 
d="M848 1274h-14q-74 -184 -91 -219q-12 -37 -58 -143t-56 -136q-25 -53 -47 -100q197 29 372 145q203 131 203 260q0 85 -86 139t-223 54zM210 -12q-25 0 -43 15q-17 15 -17 33t14 54q377 846 495 1151q-139 -53 -222 -106t-161 -133t-77 -107q0 -10 4 -13q5 -2 29 -14
t24 -39q0 -39 -57 -39t-99 38q-41 38 -41 85q0 90 179 232q201 156 462 235q18 50 58 50t73 -35q45 4 50 4q139 0 264 -68q147 -80 147 -248t-158 -306t-442 -218q47 -203 139 -386t170 -224q51 -27 52 -55q-1 -18 -17 -32q-52 -43 -156 34q-67 47 -120 120
q-126 181 -230 541l-157 -352q-53 -123 -69 -150t-42 -47q-27 -20 -52 -20zM1280 1769q0 -23 -55 -49q-70 -41 -162 -123q-35 -37 -80 -37t-56 22t-23 74t-64 140q-12 14 -13 31q0 27 31 26q58 0 105 -47q16 -16 18 -19t11 -9t26 -41q10 6 22 14q104 63 172 63t68 -45z" />
    <glyph glyph-name="rcaron" unicode="&#x159;" horiz-adv-x="532" 
d="M850 812q0 -20 -13 -32q-13 -10 -96 -37q-153 -90 -289 -267t-241 -421q-29 -63 -68 -63t-59 19t-20 46t49 123q94 215 149 390t47 227q0 43 33 43q32 0 60 -44t28 -84t-2 -61q102 104 154 142q104 74 196 73q28 0 50 -17t22 -37zM804 1245q64 0 64 -37q0 -8 -11 -16
t-63 -40t-86 -64q-36 -32 -53 -46q-47 -50 -107 -26q-20 8 -24 19t-16 63t-44 102q-32 48 -32 66t21 18q57 0 98 -41q61 -61 61 -78q27 16 29 19q99 61 163 61z" />
    <glyph glyph-name="Sacute" unicode="&#x15a;" horiz-adv-x="724" 
d="M344 733q55 0 55 -47q1 -28 -59 -54t-86 -52q-59 -59 -59 -136q0 -129 101 -226t212 -97q66 0 94 37t27 127q0 89 -30 421t-30 451q0 381 185 381q84 0 142 -71t58 -173q0 -51 -28 -91t-60 -40q-33 -1 -41 15t-8 77q0 115 -41 115q-27 0 -34 -39t-21 -272q-3 -31 23 -363
t26 -413q0 -139 -70 -218t-194 -79q-182 0 -315 137q-132 137 -132 326q0 145 166 247q64 37 119 37zM1026 1866q26 0 50 -25t24 -51q0 -58 -116 -116t-154 -58t-62 19t-25 39t15 32q16 10 88 43q66 49 90 57q10 10 36 35t54 25z" />
    <glyph glyph-name="sacute" unicode="&#x15b;" horiz-adv-x="491" 
d="M180 322l-14 -64q0 -51 51 -90t117 -39q23 0 22 14q0 4 -15 45t-33 151q-17 110 -17 171q0 154 63 291q63 127 152 127q51 0 87 -39t36 -88t-27 -77t-39 -28h-24q-17 0 -17 18t2 25v9q0 18 -16 18q-22 0 -44 -100t-22 -228t30 -230q30 -100 30 -134t-34 -58
q-34 -25 -93 -24q-150 0 -262 90q-72 59 -72 133t43 127q20 20 44 20t38 -14t14 -26zM838 1257q26 -1 50 -25t23 -50q1 -58 -115 -116t-154 -58t-62 19t-25 39q0 20 15 32q15 10 87 43q66 49 91 57q10 10 36 34t54 25z" />
    <glyph glyph-name="Scedilla" unicode="&#x15e;" horiz-adv-x="724" 
d="M59 450q0 146 166 246q59 37 117 37t57 -47q-1 -26 -59 -52q-146 -63 -145 -191q0 -128 101 -225t212 -97q63 0 92 36q29 35 29 117t-30 425t-30 458q0 381 185 381q84 0 142 -71t58 -173q0 -51 -28 -91t-59 -40q-32 1 -41 15t-9 103t-41 89q-27 0 -34 -45t-23 -317
q0 -20 8 -86q7 -66 25 -328t18 -311q0 -197 -131 -265q-59 -33 -131 -32q-12 0 -23 2l-4 -6q-33 -38 -33 -54t25 -41q47 -47 47 -111t-61 -117q-61 -54 -125 -54t-98 17t-33 40q0 37 53 37q53 1 84 23t31 60t-34 64t-34 56t49 102l8 8q-133 47 -217 170q-84 122 -84 268z
" />
    <glyph glyph-name="scedilla" unicode="&#x15f;" horiz-adv-x="491" 
d="M565 696h-24q-17 0 -17 20t2 23v9q0 18 -15 18t-28 -35q-39 -117 -39 -273t30 -254q30 -96 30 -130t-41 -62q-41 -29 -127 -18q-20 -29 -20 -41t24 -37q53 -53 53 -123t-106 -131q-49 -29 -99 -29q-50 -1 -84 17q-35 18 -34 41q0 37 52 37t83 24t31 60t-33 64t-33 56
t43 88l2 5q-172 72 -172 200q0 63 43 117q20 20 44 20t38 -14t14 -26t-7 -30t-7 -36q0 -49 51 -88t117 -39q23 0 22 14q0 2 -15 44t-33 152q-17 110 -17 171q0 154 63 291q63 127 152 127q51 0 87 -39t36 -88t-27 -77t-39 -28z" />
    <glyph glyph-name="Scaron" unicode="&#x160;" horiz-adv-x="724" 
d="M344 733q55 0 55 -47q1 -28 -59 -54t-86 -52q-59 -59 -59 -136q0 -129 101 -226t212 -97q66 0 94 37t27 127q0 89 -30 421t-30 451q0 381 185 381q84 0 142 -71t58 -173q0 -51 -28 -91t-60 -40q-33 -1 -41 15t-8 77q0 115 -41 115q-27 0 -34 -39t-21 -272q-3 -31 23 -363
t26 -413q0 -139 -70 -218t-194 -79q-182 0 -315 137q-132 137 -132 326q0 145 166 247q64 37 119 37zM770 1608q-45 0 -56 21t-26 77t-61 137q-12 14 -13 31q0 27 31 27q60 -1 105 -48l30 -28q14 -14 27 -41q115 77 189 77q74 1 73 -44q0 -23 -55 -50q-74 -45 -162 -122
q-37 -37 -82 -37z" />
    <glyph glyph-name="scaron" unicode="&#x161;" horiz-adv-x="491" 
d="M180 322l-14 -64q0 -51 51 -90t117 -39q23 0 22 14q0 4 -15 45t-33 151q-17 110 -17 171q0 154 63 291q63 127 152 127q51 0 87 -39t36 -88t-27 -77t-39 -28h-24q-17 0 -17 18t2 25v9q0 18 -16 18q-22 0 -44 -100t-22 -228t30 -230q30 -100 30 -134t-34 -58
q-34 -25 -93 -24q-150 0 -262 90q-72 59 -72 133t43 127q20 20 44 20t38 -14t14 -26zM883 1223q0 -23 -56 -49q-74 -44 -136 -102t-107 -58q-44 0 -56 21t-16 48q-25 84 -72 166q-12 14 -12 31q0 27 31 27q59 0 104 -47q6 -4 16 -15t21 -21q11 -9 21 -32q57 35 85 45t54 20
q25 10 57 11q66 0 66 -45z" />
    <glyph glyph-name="Tcommaaccent" unicode="&#x162;" horiz-adv-x="718" 
d="M100 1159q0 35 58 61q144 64 796 224q313 76 533 76q145 0 145 -60q0 -37 -73 -43q-215 -17 -328 -33t-303 -61q14 -6 29 -32q15 -27 15 -49t-50 -130q-365 -823 -404 -1018q-10 -59 -28 -84q-18 -24 -47 -24q-30 0 -50 26t-20 84q0 121 157 486t225 527q69 162 81 189
q-238 -70 -320 -106t-94 -44q-12 -9 -14 -30q0 -4 -30 -19q-108 -54 -161 -53q-53 2 -85 40t-32 73zM363 -137q33 0 57 -22t20 -46q-4 -72 -123 -211q-61 -72 -108 -72t-47 29q0 12 33 53q90 121 122 228q13 41 46 41z" />
    <glyph glyph-name="tcommaaccent" unicode="&#x163;" horiz-adv-x="321" 
d="M266 723q-94 0 -94 61q0 35 18 57t52 21l77 -4q61 6 80 8q73 141 193 396l16 41q10 31 44 31t65 -30t31 -54t-25 -68q-98 -172 -158 -289q29 6 80 15t68 18q43 12 49 12q29 0 29 -37q0 -29 -88 -71t-115 -50q-27 -10 -90 -24q-28 -58 -54 -118t-109 -244t-83 -290l12 -63
q0 -49 -41 -49q-94 0 -94 149q0 82 28 170t84 212t91 204q-24 -4 -66 -4zM72 -143q32 0 56 -22t22 -46q-4 -72 -123 -211q-61 -72 -109 -72t-47 29q0 12 33 53q90 121 123 228q12 41 45 41z" />
    <glyph glyph-name="Tcaron" unicode="&#x164;" horiz-adv-x="718" 
d="M100 1159q0 35 58 61q144 64 796 224q313 76 533 76q145 0 145 -60q0 -37 -73 -43q-215 -17 -328 -33t-303 -61q14 -6 29 -32q15 -27 15 -49t-50 -130q-365 -823 -404 -1018q-10 -59 -28 -84q-18 -24 -47 -24q-30 0 -50 26t-20 84q0 121 157 486t225 527q69 162 81 189
q-238 -70 -320 -106t-94 -44q-12 -9 -14 -30q0 -4 -30 -19q-108 -54 -161 -53q-53 2 -85 40t-32 73zM1229 1729q0 -23 -55 -50q-74 -45 -136 -103t-108 -56q-44 0 -56 21t-16 48q-25 84 -72 166q-12 14 -12 31q0 27 31 26q59 0 104 -47l29 -28q14 -12 29 -39q16 8 22 12
q104 64 172 64t68 -45z" />
    <glyph glyph-name="tcaron" unicode="&#x165;" horiz-adv-x="321" 
d="M269 723q-95 0 -95 61q0 35 18 57t52 21l78 -4q61 6 79 8q93 183 193 396q2 8 16 41q10 31 44 31t65 -30t31 -54t-25 -68q-115 -201 -160 -289l92 18q43 6 58 15q43 12 49 12q29 0 29 -37q0 -29 -88 -71t-115 -50q-27 -10 -92 -24q-28 -57 -46 -101t-48 -109
q-152 -329 -152 -442l14 -63q0 -49 -41 -49q-96 0 -96 149q0 84 28 171q28 88 96 238t79 177q-20 -4 -63 -4zM988 1442q32 0 56 -22t21 -46q-4 -72 -123 -211q-62 -71 -110 -71t-48 28q0 12 62 96t94 185q16 41 48 41z" />
    <glyph glyph-name="Umacron" unicode="&#x16a;" horiz-adv-x="978" 
d="M319 -6q-71 0 -111 56t-40 128q0 144 58 294q58 149 302 687q41 94 72 205q18 70 62 70q40 0 74 -27t34 -50t-27 -85t-145 -320q-118 -256 -140 -312t-74 -213t-52 -216t28 -59q41 0 146 104q104 104 198 238t147 227q55 95 171 339t132 289t32 65q18 20 48 22
q30 0 60 -27t29 -48q0 -21 -34 -94t-238 -495q-150 -309 -150 -528q0 -131 53 -236q18 -32 -2 -49q-20 -16 -41 -16q-65 0 -113 81t-48 275q0 39 6 66q-285 -371 -437 -371zM848 1712q14 0 40 -10t105 -10q80 0 203 34q20 4 33 5q29 0 28 -25q0 -45 -106 -85t-225 -40
t-119 72q0 59 41 59z" />
    <glyph glyph-name="umacron" unicode="&#x16b;" horiz-adv-x="843" 
d="M125 129q0 166 187 550q73 149 90 167q18 18 52 18t56 -19q38 -32 12 -83q-70 -100 -160 -308t-90 -264q0 -84 174 123t260 351t102 166t44 22t60 -31t32 -59t-55 -114q-55 -85 -96 -213q-41 -129 -41 -197t12 -99t40 -65t27 -50q0 -16 -17 -32q-52 -45 -127 37t-75 217
q0 37 6 94q-209 -263 -292 -320q-45 -31 -90 -30q-111 0 -111 139zM573 1130q14 0 37 -9q24 -9 106 -9t206 35q20 4 32 4q29 0 29 -25q0 -45 -106 -85q-105 -40 -225 -40t-120 70q0 59 41 59z" />
    <glyph glyph-name="Uring" unicode="&#x16e;" horiz-adv-x="978" 
d="M319 -6q-71 0 -111 56t-40 128q0 144 58 294q58 149 302 687q41 94 72 205q18 70 62 70q40 0 74 -27t34 -50t-27 -85t-145 -320q-118 -256 -140 -312t-74 -213t-52 -216t28 -59q41 0 146 104q104 104 198 238t147 227q55 95 171 339t132 289t32 65q18 20 48 22
q30 0 60 -27t29 -48q0 -21 -34 -94t-238 -495q-150 -309 -150 -528q0 -131 53 -236q18 -32 -2 -49q-20 -16 -41 -16q-65 0 -113 81t-48 275q0 39 6 66q-285 -371 -437 -371zM1081 1753q-84 0 -84 -70q0 -39 54 -38q69 0 96 94q-41 14 -66 14zM1227 1708q-1 -74 -61 -124
t-139 -50t-121 39t-42 107t69 126q69 60 134 60t98 -22t33 -52l-4 -25q33 -23 33 -59z" />
    <glyph glyph-name="uring" unicode="&#x16f;" horiz-adv-x="843" 
d="M125 129q0 166 187 550q73 149 90 167q18 18 52 18t56 -19q38 -32 12 -83q-70 -100 -160 -308t-90 -264q0 -84 174 123t260 351t102 166t44 22t60 -31t32 -59t-55 -114q-55 -85 -96 -213q-41 -129 -41 -197t12 -99t40 -65t27 -50q0 -16 -17 -32q-52 -45 -127 37t-75 217
q0 37 6 94q-209 -263 -292 -320q-45 -31 -90 -30q-111 0 -111 139zM813 1233q-84 0 -84 -70q0 -39 53 -39q70 1 97 95q-43 14 -66 14zM759 1014q-79 0 -121 39t-42 107t69 126q69 60 134 60t98 -22t33 -52l-4 -25q33 -23 32 -59q0 -74 -60 -124t-139 -50z" />
    <glyph glyph-name="Uhungarumlaut" unicode="&#x170;" horiz-adv-x="978" 
d="M319 -6q-71 0 -111 56t-40 128q0 144 58 294q58 149 302 687q41 94 72 205q18 70 62 70q40 0 74 -27t34 -50t-27 -85t-145 -320q-118 -256 -140 -312t-74 -213t-52 -216t28 -59q41 0 146 104q104 104 198 238t147 227q55 95 171 339t132 289t32 65q18 20 48 22
q30 0 60 -27t29 -48q0 -21 -34 -94t-238 -495q-150 -309 -150 -528q0 -131 53 -236q18 -32 -2 -49q-20 -16 -41 -16q-65 0 -113 81t-48 275q0 39 6 66q-285 -371 -437 -371zM1308 1841q28 1 56 -23t29 -49q0 -57 -123 -145q-64 -49 -100 -49t-62 15t-25 36q0 12 78 70
q12 10 72 73q25 37 36 55t39 17zM1054 1843q28 1 56 -23t29 -48q0 -57 -123 -144q-63 -49 -99 -49t-62 15t-26 36q0 10 78 70q12 10 72 72l29 45q18 26 46 26z" />
    <glyph glyph-name="uhungarumlaut" unicode="&#x171;" horiz-adv-x="843" 
d="M125 129q0 166 187 550q73 149 90 167q18 18 52 18t56 -19q38 -32 12 -83q-70 -100 -160 -308t-90 -264q0 -84 174 123t260 351t102 166t44 22t60 -31t32 -59t-55 -114q-55 -85 -96 -213q-41 -129 -41 -197t12 -99t40 -65t27 -50q0 -16 -17 -32q-52 -45 -127 37t-75 217
q0 37 6 94q-209 -263 -292 -320q-45 -31 -90 -30q-111 0 -111 139zM1043 1251q28 1 57 -23t28 -48q0 -57 -122 -146q-64 -49 -100 -49t-62 15t-25 36q0 12 78 70q12 10 72 74q25 37 35 54t39 17zM789 1253q28 1 57 -23t28 -48q0 -57 -122 -144q-64 -49 -100 -49
q-36 -1 -62 15t-25 36q0 10 78 70q12 10 72 72l28 45q18 26 46 26z" />
    <glyph glyph-name="Uogonek" unicode="&#x172;" horiz-adv-x="978" 
d="M319 -6q-67 0 -109 56t-42 164t58 258t302 687q41 94 72 205q18 70 62 70q40 0 74 -26t34 -50t-27 -86t-145 -320t-142 -314q-22 -56 -73 -212t-51 -215t26 -59q41 0 147 104q105 104 199 236t146 224t170 340t134 293t32 65q18 20 48 22q30 0 60 -27t29 -48
q0 -21 -34 -94t-238 -495q-68 -136 -109 -282t-41 -234t10 -134q11 -46 31 -87t20 -57t-31 -32q-32 -14 -32 -74t49 -89q10 -6 62 -27q20 -8 20 -30q0 -43 -72 -43t-127 56q-53 56 -53 124t47 125q-76 84 -75 307q0 41 6 70q-285 -371 -437 -371z" />
    <glyph glyph-name="uogonek" unicode="&#x173;" horiz-adv-x="843" 
d="M125 127q0 168 187 552q73 149 90 167q18 18 52 18t56 -19q38 -32 12 -83q-70 -102 -160 -308t-90 -264q0 -27 19 -26q20 0 53 33q100 111 217 263t174 250t73 120t44 22t60 -31t32 -59t-55 -114q-55 -85 -96 -214q-41 -128 -41 -196t12 -99t40 -67t27 -48q0 -12 -23 -44
q-24 -30 -24 -66t23 -62q23 -24 88 -51q20 -8 20 -30q1 -43 -71 -43t-125 55t-53 119t32 114q-86 82 -86 230q0 37 6 94q-209 -263 -292 -320q-45 -31 -90 -30q-111 0 -111 137z" />
    <glyph glyph-name="Ydieresis" unicode="&#x178;" horiz-adv-x="514" 
d="M1168 1460q30 0 59 -26t29 -50t-26 -53t-116 -107t-236 -286q-146 -207 -264 -425t-150 -299q-34 -81 -93 -282q-12 -39 -41 -38q-20 0 -40 27q-19 28 -20 59q0 86 82 319q32 84 146 309q-51 90 -68 167q-16 77 -16 199t19 256q19 136 19 187t50 51q37 0 75 -30
q37 -30 37 -61q0 -30 -14 -101q-15 -49 -29 -213t-14 -208t12 -128q72 135 149 243t209 263t171 191q40 36 70 36zM694 1696q0 38 38 70t78 32t62 -22t23 -62q0 -39 -33 -73q-33 -33 -74 -33q-42 0 -68 24t-26 64zM1054 1784q38 0 62 -27t25 -61q0 -34 -36 -68
q-36 -35 -74 -35q-39 0 -65 23q-26 24 -26 62t38 72t76 34z" />
    <glyph glyph-name="Zacute" unicode="&#x179;" horiz-adv-x="876" 
d="M1196 1354q0 -104 -172 -316q-23 -28 -255 -280t-390 -428t-162 -185q150 37 285 37q134 0 242 -38t108 -89q0 -18 -22 -36t-91 6t-195 24t-306 -51q-49 -12 -64 -12q-43 0 -83 48t-40 93t55 126t429 469t481 544q33 45 33 54q-1 9 -11 9t-140 -40t-223 -40t-143 34
q-49 34 -49 87t49 53l142 -20q35 0 175 28q141 27 211 27t103 -28t33 -76zM1034 1835q26 0 50 -25t24 -51q0 -57 -116 -115t-154 -59t-62 19t-24 40t15 31q15 10 87 43q66 49 90 58q10 10 36 34t54 25z" />
    <glyph glyph-name="zacute" unicode="&#x17a;" horiz-adv-x="696" 
d="M664 -16q-16 0 -68 24t-154 25q-102 0 -270 -37q-6 -2 -26 -2t-53 29q-34 29 -34 67q1 38 55 95q54 56 275 243q88 78 124 113t88 96t59 70t24 41q-4 -4 -91 -36t-135 -32t-72 29q-26 29 -26 65t19 47q18 18 35 19l98 -15l127 33q51 14 88 14t68 -34t31 -90
q-1 -116 -263 -340q-105 -84 -177 -150t-103 -90l-21 -21q96 14 164 15q141 0 244 -72q30 -27 30 -53q0 -25 -10 -39t-26 -14zM803 1245q27 1 51 -23t23 -51q0 -57 -116 -115t-154 -58q-39 0 -63 18q-24 20 -24 40t14 29q14 10 89 45l90 58q3 2 33 30t57 27z" />
    <glyph glyph-name="Zdotaccent" unicode="&#x17b;" horiz-adv-x="876" 
d="M1196 1354q0 -104 -172 -316q-23 -28 -255 -280t-390 -428t-162 -185q150 37 285 37q134 0 242 -38t108 -89q0 -18 -22 -36t-91 6t-195 24t-306 -51q-49 -12 -64 -12q-43 0 -83 48t-40 93t55 126t429 469t481 544q33 45 33 54q-1 9 -11 9t-140 -40t-223 -40t-143 34
q-49 34 -49 87t49 53l142 -20q35 0 175 28q141 27 211 27t103 -28t33 -76zM870 1608q-40 0 -76 30t-36 66q0 38 22 62t62 24q39 0 77 -33q37 -33 37 -71t-22 -58q-24 -20 -64 -20z" />
    <glyph glyph-name="zdotaccent" unicode="&#x17c;" horiz-adv-x="696" 
d="M664 -16q-16 0 -68 24t-154 25q-102 0 -270 -37q-6 -2 -26 -2t-53 29q-34 29 -34 67q1 38 55 95q54 56 275 243q88 78 124 113t88 96t59 70t24 41q-4 -4 -91 -36t-135 -32t-72 29q-26 29 -26 65t19 47q18 18 35 19l98 -15l127 33q51 14 88 14t68 -34t31 -90
q-1 -116 -263 -340q-105 -84 -177 -150t-103 -90l-21 -21q96 14 164 15q141 0 244 -72q30 -27 30 -53q0 -25 -10 -39t-26 -14zM719 1088q-1 -78 -87 -78q-40 0 -76 30t-36 66q0 38 22 62t62 24q39 0 77 -33t38 -71z" />
    <glyph glyph-name="Zcaron" unicode="&#x17d;" horiz-adv-x="876" 
d="M1196 1354q0 -104 -172 -316q-23 -28 -255 -280t-390 -428t-162 -185q150 37 285 37q134 0 242 -38t108 -89q0 -18 -22 -36t-91 6t-195 24t-306 -51q-49 -12 -64 -12q-43 0 -83 48t-40 93t55 126t429 469t481 544q33 45 33 54q-1 9 -11 9t-140 -40t-223 -40t-143 34
q-49 34 -49 87t49 53l142 -20q35 0 175 28q141 27 211 27t103 -28t33 -76zM1081 1837q66 0 66 -45q0 -23 -55 -49q-70 -41 -162 -123q-35 -37 -80 -37q-44 -1 -56 21t-24 74t-63 141q-12 14 -13 30q0 27 31 27q59 0 104 -47l29 -29q14 -12 29 -39q57 35 86 45t53 20t55 11z
" />
    <glyph glyph-name="zcaron" unicode="&#x17e;" horiz-adv-x="696" 
d="M664 -16q-16 0 -68 24t-154 25q-102 0 -270 -37q-6 -2 -26 -2t-53 29q-34 29 -34 67q1 38 55 95q54 56 275 243q88 78 124 113t88 96t59 70t24 41q-4 -4 -91 -36t-135 -32t-72 29q-26 29 -26 65t19 47q18 18 35 19l98 -15l127 33q51 14 88 14t68 -34t31 -90
q-1 -116 -263 -340q-105 -84 -177 -150t-103 -90l-21 -21q96 14 164 15q141 0 244 -72q30 -27 30 -53q0 -25 -10 -39t-26 -14zM821 1255q66 0 66 -45q0 -23 -56 -49q-74 -45 -136 -103t-107 -57q-44 -1 -56 21t-16 49q-25 84 -72 166q-12 14 -12 31q0 27 31 26q59 0 104 -47
q44 -35 58 -67q55 33 85 44t55 21q26 10 56 10z" />
    <glyph glyph-name="florin" unicode="&#x192;" horiz-adv-x="512" 
d="M952 1493q51 0 81 -44t30 -124q0 -79 -66 -187t-120 -108q-31 0 -31 31q0 18 26 51q26 32 49 98t23 109t-17 43t-103 -157t-167 -337l74 13q39 8 67 11t54 9t35 6q37 0 37 -30q0 -23 -12 -33q-44 -38 -314 -107q-281 -723 -436 -973q-82 -131 -140 -186t-110 -55t-81 44
q-30 44 -30 123q0 78 66 186t119 108q31 0 30 -31q0 -16 -26 -51q-26 -34 -48 -98t-22 -107t17 -43q12 0 67 94q184 313 432 965h-16q-106 0 -107 82q-1 29 13 48t34 19l84 -6l54 2q144 298 214 410t130 168t110 57z" />
    <glyph glyph-name="uni01D3" unicode="&#x1d3;" horiz-adv-x="978" 
d="M319 -6q-71 0 -111 56t-40 128q0 144 58 294q58 149 302 687q41 94 72 205q18 70 62 70q40 0 74 -27t34 -50t-27 -85t-145 -320q-118 -256 -140 -312t-74 -213t-52 -216t28 -59q41 0 146 104q104 104 198 238t147 227q55 95 171 339t132 289t32 65q18 20 48 22
q30 0 60 -27t29 -48q0 -21 -34 -94t-238 -495q-150 -309 -150 -528q0 -131 53 -236q18 -32 -2 -49q-20 -16 -41 -16q-65 0 -113 81t-48 275q0 39 6 66q-285 -371 -437 -371zM1002 1556q-44 0 -56 22t-24 72t-44 102t-32 69q0 27 31 26q59 0 104 -45l29 -28q14 -14 26 -41
q125 77 194 77t68 -45q0 -23 -55 -49q-70 -41 -162 -123q-35 -37 -79 -37z" />
    <glyph glyph-name="Scommaaccent" unicode="&#x218;" horiz-adv-x="915" 
d="M629 -143q33 0 57 -22t21 -46q-4 -72 -123 -211q-60 -72 -108 -72t-48 29q0 12 33 53q90 121 123 228q12 41 45 41zM508 733q55 0 55 -47q1 -28 -59 -54t-86 -52q-59 -59 -60 -136q0 -129 102 -226t212 -97q66 0 94 37t27 127q0 89 -30 421t-30 451q0 381 185 381
q84 0 142 -71t58 -173q0 -51 -28 -91t-60 -40q-33 -1 -41 15t-8 77q0 115 -41 115q-27 0 -34 -39t-21 -272q-2 -31 23 -363t26 -413q0 -139 -70 -218t-194 -79q-182 0 -315 137q-132 137 -132 326q0 145 166 247q64 37 119 37z" />
    <glyph glyph-name="scommaaccent" unicode="&#x219;" horiz-adv-x="491" 
d="M180 322l-14 -64q0 -51 51 -90t117 -39q23 0 22 14q0 4 -14 46t-32 151q-17 109 -17 170q0 160 62 289t153 129q51 0 86 -39t35 -88t-27 -77t-39 -28h-22q-18 0 -19 31q0 6 2 12v9q0 18 -14 18q-22 0 -44 -100t-22 -232t28 -228q28 -98 30 -132q0 -34 -34 -58
q-34 -25 -93 -24q-150 0 -262 90q-72 59 -72 133t43 127q20 20 44 20t38 -14t14 -26zM168 -143q32 0 56 -22t22 -46q-4 -72 -123 -211q-61 -72 -109 -72t-47 29q1 12 61 93t95 188q12 41 45 41z" />
    <glyph glyph-name="uni021A" unicode="&#x21a;" horiz-adv-x="718" 
d="M100 1159q0 35 58 61q144 64 796 224q313 76 533 76q145 0 145 -60q0 -37 -73 -43q-215 -17 -328 -33t-303 -61q14 -6 29 -32q15 -27 15 -49t-50 -130q-365 -823 -404 -1018q-10 -59 -28 -84q-18 -24 -47 -24q-30 0 -50 26t-20 84q0 121 157 486t225 527q69 162 81 189
q-238 -70 -320 -106t-94 -44q-12 -9 -14 -30q0 -4 -30 -19q-108 -54 -161 -53q-53 2 -85 40t-32 73zM363 -137q33 0 57 -22t20 -46q-4 -72 -123 -211q-61 -72 -108 -72t-47 29q0 12 33 53q90 121 122 228q13 41 46 41z" />
    <glyph glyph-name="uni021B" unicode="&#x21b;" horiz-adv-x="321" 
d="M266 723q-94 0 -94 61q0 35 18 57t52 21l77 -4q61 6 80 8q73 141 193 396l16 41q10 31 44 31t65 -30t31 -54t-25 -68q-98 -172 -158 -289q29 6 80 15t68 18q43 12 49 12q29 0 29 -37q0 -29 -88 -71t-115 -50q-27 -10 -90 -24q-28 -58 -54 -118t-109 -244t-83 -290l12 -63
q0 -49 -41 -49q-94 0 -94 149q0 82 28 170t84 212t91 204q-24 -4 -66 -4zM72 -143q32 0 56 -22t22 -46q-4 -72 -123 -211q-61 -72 -109 -72t-47 29q0 12 33 53q90 121 123 228q12 41 45 41z" />
    <glyph glyph-name="afii57929" unicode="&#x2bc;" horiz-adv-x="305" 
d="M852 1587q0 -20 -23 -86q-8 -23 -61 -91t-83 -96q-30 -26 -78 -26t-48 37q0 18 19 39t69 100q51 78 58 115q18 70 59 72q36 2 62 -21t26 -43z" />
    <glyph glyph-name="circumflex" unicode="&#x2c6;" horiz-adv-x="503" 
d="M513 1008q-69 0 -69 45q0 23 56 49q70 41 162 123q36 37 80 37t56 -22t23 -74q12 -52 44 -103t32 -68q0 -27 -31 -26q-57 0 -104 47l-29 28q-16 16 -26 39q-18 -10 -23 -12q-102 -63 -171 -63z" />
    <glyph glyph-name="caron" unicode="&#x2c7;" horiz-adv-x="503" 
d="M680 971q-44 0 -56 21q-12 22 -24 72t-63 140q-12 14 -13 31q0 27 31 27q59 0 105 -46t55 -69q16 8 22 12q98 63 174 64q29 -1 47 -13t19 -30q0 -27 -55 -50q-20 -10 -84 -57q-74 -61 -78 -65q-35 -37 -80 -37z" />
    <glyph glyph-name="uni02C9" unicode="&#x2c9;" horiz-adv-x="491" 
d="M492 1108q14 0 36 -9t106 -9q82 0 206 32q20 4 32 4q29 0 29 -24q1 -43 -107 -83t-226 -40t-117 70q0 59 41 59z" />
    <glyph glyph-name="breve" unicode="&#x2d8;" horiz-adv-x="503" 
d="M530 1223q33 1 56 -11q22 -12 56 -45t64 -33t90 24t95 24q68 0 67 -47q0 -13 -12 -23t-60 -36t-84 -56q-36 -29 -56 -39t-56 -10q-34 1 -66 29t-79 105t-47 89q-1 29 32 29z" />
    <glyph glyph-name="dotaccent" unicode="&#x2d9;" horiz-adv-x="270" 
d="M475 1080q1 36 23 60t61 25q39 -1 76 -33t37 -70t-22 -58t-62 -20t-77 29q-36 31 -36 67z" />
    <glyph glyph-name="ring" unicode="&#x2da;" horiz-adv-x="401" 
d="M604 1108q0 -39 53 -39q68 0 97 94q-39 12 -66 13q-84 0 -84 -68zM834 1133q0 -74 -60 -124q-60 -51 -140 -51q-79 0 -121 38t-42 106t69 127t152 59q47 0 80 -22t33 -52q0 -4 -6 -22q35 -23 35 -59z" />
    <glyph glyph-name="ogonek" unicode="&#x2db;" horiz-adv-x="315" 
d="M154 -104q0 -44 22 -66t86 -49q20 -8 21 -31q0 -43 -71 -43t-125 56t-54 119t21 99q22 36 79 87l84 -50l-8 -12q-55 -66 -55 -110z" />
    <glyph glyph-name="tilde" unicode="&#x2dc;" horiz-adv-x="643" 
d="M646 1090q-40 0 -79 -34t-55 -34q-47 0 -47 56q-1 56 71 104t132 47q60 0 97 -23q35 -22 63 -52t50 -30t61 26q38 26 57 28q20 0 34 -16t14 -40q0 -47 -58 -94t-125 -47t-136 70q-39 39 -79 39z" />
    <glyph glyph-name="hungarumlaut" unicode="&#x2dd;" horiz-adv-x="643" 
d="M909 1243q29 1 58 -23t28 -49q0 -57 -121 -143q-63 -49 -99 -49q-35 0 -61 15t-26 36q0 10 78 70q12 12 70 71q12 16 28 44t45 28zM656 1247q28 1 57 -23t28 -48q0 -57 -123 -146q-63 -49 -99 -49q-35 0 -61 15t-26 36q0 12 78 70q12 10 72 74q29 41 28 45q18 26 46 26z
" />
    <glyph glyph-name="uni2011" unicode="&#x2011;" horiz-adv-x="524" 
d="M580 418h18q31 0 31 -35q0 -45 -108 -86q-109 -41 -231 -41t-122 70v18q0 59 51 59q5 0 35 -9t94 -11q124 11 168 23t64 12z" />
    <glyph glyph-name="figuredash" unicode="&#x2012;" horiz-adv-x="647" 
d="M742 446q42 0 42 -38q0 -20 -38 -50q-38 -32 -168 -64q-128 -32 -226 -32t-136 23t-38 53t16 54q16 22 31 22t33 -8t64 -12q46 -5 134 1q88 5 134 13t90 23t62 15z" />
    <glyph glyph-name="endash" unicode="&#x2013;" horiz-adv-x="647" 
d="M742 446q42 0 42 -38q0 -20 -38 -50q-38 -32 -168 -64q-128 -32 -226 -32t-136 23t-38 53t16 54q16 22 31 22t33 -8t64 -12q46 -5 134 1q88 5 134 13t90 23t62 15z" />
    <glyph glyph-name="emdash" unicode="&#x2014;" horiz-adv-x="819" 
d="M898 451q42 1 42 -41q0 -22 -31 -41q-147 -106 -571 -107q-96 0 -133 23t-37 53t16 54q16 22 28 22t49 -12q36 -12 145 -13q295 0 460 55q15 7 32 7z" />
    <glyph glyph-name="afii00208" unicode="&#x2015;" horiz-adv-x="819" 
d="M898 451q42 1 42 -41q0 -22 -31 -41q-147 -106 -571 -107q-96 0 -133 23t-37 53t16 54q16 22 28 22t49 -12q36 -12 145 -13q295 0 460 55q15 7 32 7z" />
    <glyph glyph-name="quoteleft" unicode="&#x2018;" horiz-adv-x="280" 
d="M815 1649q49 0 49 -37q0 -18 -19 -39t-70 -101q-52 -79 -56 -114q-20 -72 -62 -72q-37 0 -63 22t-25 42q0 20 23 86q8 22 61 90t83 96t79 27z" />
    <glyph glyph-name="quoteright" unicode="&#x2019;" horiz-adv-x="290" 
d="M670 1335q32 1 56 -21t22 -46q-4 -72 -123 -211q-61 -72 -109 -72t-47 29q0 12 33 53q90 121 123 227q12 41 45 41z" />
    <glyph glyph-name="quotesinglbase" unicode="&#x201a;" horiz-adv-x="290" 
d="M184 168q33 0 57 -22t21 -46q-4 -76 -123 -211q-61 -73 -108 -73t-47 28q0 12 32 54q92 127 123 229q12 41 45 41z" />
    <glyph glyph-name="quotedblleft" unicode="&#x201c;" horiz-adv-x="516" 
d="M711 1313h-27q-37 0 -46 17q-9 18 -17 26t-9 28q0 49 103 189q76 102 141 102q20 0 36 -10q16 -9 15 -25q0 -16 -37 -61q-84 -123 -107 -195t-52 -71zM961 1313h-29q-31 0 -58 26q-6 6 -14 56q-4 25 49 104q115 176 193 176q23 0 39 -11q16 -10 16 -22t-12 -24v-8
q-1 -8 -21 -28t-38 -53q-18 -35 -36 -65q-20 -30 -26 -41q-10 -31 -14 -41q-20 -69 -49 -69z" />
    <glyph glyph-name="quotedblright" unicode="&#x201d;" horiz-adv-x="497" 
d="M1090 1597q0 -20 -23 -86q-8 -23 -61 -91t-83 -96q-30 -26 -78 -26t-48 37q0 18 19 39t69 100q51 78 57 115q18 70 59 72q35 2 62 -21t27 -43zM850 1595q0 -20 -23 -86q-8 -23 -61 -91t-83 -96q-30 -26 -78 -26t-48 37q0 18 19 39t69 100q51 78 57 115q19 70 60 72
q36 2 62 -21t26 -43z" />
    <glyph glyph-name="quotedblbase" unicode="&#x201e;" horiz-adv-x="538" 
d="M434 168h27q39 0 47 -17t16 -25t8 -30q0 -49 -102 -188q-78 -102 -141 -103q-19 1 -35 11t-16 25t36 61q86 130 108 198t52 68zM184 168h29q31 0 57 -27q6 -6 15 -55q4 -25 -49 -104q-115 -176 -193 -177q-23 -1 -39 11t-16 23t12 24v8q4 11 20 25t33 45q16 31 45 77
t43 98t43 52z" />
    <glyph glyph-name="dagger" unicode="&#x2020;" horiz-adv-x="911" 
d="M918 1286q29 0 48 -20t19 -44t-15 -54q-15 -32 -44 -107q160 -7 224 -19t107 -45q27 -18 27 -43q0 -31 -37 -30q-13 0 -89 14t-106 14t-69 -4h-35q-36 0 -74 -4q-82 -217 -154 -379t-109 -265q-38 -103 -62 -216q-16 -106 -68 -107q-27 0 -46 26t-19 87t40 175
q40 113 152 383t117 280q-74 -8 -105 -30t-49 -32t-85 -10q-66 0 -85 18q-31 36 -31 82t15 60q45 37 393 41l27 69q37 94 60 127q24 33 53 33z" />
    <glyph glyph-name="daggerdbl" unicode="&#x2021;" horiz-adv-x="942" 
d="M655 403q177 1 275 -27t98 -77q0 -31 -37 -31q-13 0 -89 14t-114 15q-38 0 -96 -6q-47 0 -92 -4q-47 -143 -57 -203q-20 -106 -70 -107q-27 0 -46 26t-19 79t43 188q-53 -6 -85 -30t-52 -32q-19 -9 -84 -9q-66 0 -85 18q-31 35 -31 81t15 60q39 33 363 43l14 35
q199 465 209 490q-74 -8 -104 -32t-52 -32t-85 -8q-62 0 -81 18q-31 34 -31 82t15 58q43 39 391 43l29 69q37 94 60 127q25 33 53 33t47 -20q34 -36 6 -99q-6 -12 -48 -106q160 -7 225 -19t107 -45q27 -18 27 -43q0 -31 -37 -30q-12 0 -89 14q-76 14 -106 14t-69 -4h-33
l-74 -4q-70 -166 -221 -539h10z" />
    <glyph glyph-name="ellipsis" unicode="&#x2026;" horiz-adv-x="751" 
d="M373 131q41 0 79 -27t37 -57q0 -59 -86 -59q-76 0 -109 33q-7 7 -7 38t22 52q23 20 64 20zM727 45q0 -59 -79 -59q-78 0 -116 34q-6 6 -8 36q0 30 24 52t63 23q40 0 78 -28t38 -58zM258 49q0 -59 -82 -59t-114 33q-6 7 -6 38t22 51t63 21q41 0 79 -27t38 -57z" />
    <glyph glyph-name="perthousand" unicode="&#x2030;" horiz-adv-x="1576" 
d="M1339 142q0 -24 17 -23q33 0 81 50q49 50 69 100t28 132q-55 -39 -87 -73t-70 -97q-38 -65 -38 -89zM1591 434q31 0 56 -28t24 -66q0 -113 -119 -245t-219 -132q-57 0 -97 55q-40 54 -40 140t92 211q51 71 129 139t107 67q14 0 32 -12q41 -27 41 -82q0 -14 -16 -47h10z
M850 150q0 -28 16 -27q31 0 80 50q50 51 70 101t28 134q-94 -68 -153 -168q-41 -62 -41 -90zM1102 440q32 0 56 -28t24 -66q0 -113 -118 -246t-220 -133q-58 -1 -98 55q-102 140 53 351q51 67 131 137t99 70t39 -12q42 -27 42 -83q0 -16 -16 -45h8zM526 818q0 -24 23 -23
q33 -1 69 79t41 162q-65 -46 -99 -120t-34 -98zM690 1202q40 0 72 -47q31 -47 31 -105t-28 -143q-28 -86 -65 -144t-84 -95t-99 -37t-97 57t-45 141q0 33 7 53q42 116 108 194q66 79 86 86t49 7q25 33 65 33zM1315 1092q79 39 103 41q24 1 38 -13t16 -39t-38 -43
q-152 -74 -372 -246t-389 -354q-169 -184 -240 -279t-97 -182q-16 -41 -62 -40q-14 0 -44 17t-30 57q0 39 64 143q166 274 597 627q261 214 454 311z" />
    <glyph glyph-name="guilsinglleft" unicode="&#x2039;" horiz-adv-x="491" 
d="M510 182q0 -32 -20 -54t-45 -22t-51 38t-167 118q-69 37 -69 73t51 66q180 115 276 207q25 23 43 23q18 1 32 -15t13 -38q0 -66 -231 -244q94 -53 131 -87t37 -65z" />
    <glyph glyph-name="guilsinglright" unicode="&#x203a;" horiz-adv-x="483" 
d="M242 556q0 30 20 52t44 23q24 0 52 -39t166 -117q70 -37 70 -72t-51 -65q-176 -113 -277 -207q-42 -42 -75 -7q-13 15 -13 38q1 62 230 244q-94 53 -130 87q-36 33 -36 63z" />
    <glyph glyph-name="fraction" unicode="&#x2044;" horiz-adv-x="1114" 
d="M291 -66q-14 0 -44 18t-30 57q-1 39 63 143q171 279 598 626q261 213 453 309q79 39 103 41t38 -12t16 -39q1 -25 -38 -43q-152 -74 -372 -246t-388 -354t-238 -277q-71 -95 -100 -182q-16 -41 -61 -41z" />
    <glyph glyph-name="Euro" unicode="&#x20ac;" horiz-adv-x="1101" 
d="M291 592h10q37 -4 55 -4t88 10q14 37 25 55l-78 -8q-41 -6 -63 -6t-42 25q-22 26 -22 70t27 44h10q20 -2 53 -2t187 25q154 283 335 460t318 177q41 0 83 -23t58 -55q27 -42 27 -106t-25 -104t-52 -40q-52 0 -52 47q0 14 4 31l6 39q0 25 -20 49t-48 22q-28 0 -124 -71
q-133 -96 -310 -383l164 41q3 2 17 5t33 10t32 7q27 0 27 -37q0 -53 -82 -82l-266 -83q-2 -6 -35 -74l274 65l56 17q14 6 24 6q27 0 27 -37q0 -57 -82 -80l-359 -113q-41 -117 -41 -245t91 -127q73 -1 195 65t226 162q35 31 113 117l31 31q16 16 28 16q41 0 41 -53
q0 -86 -163 -240q-117 -109 -239 -170q-121 -61 -229 -61t-180 88t-71 229q0 70 22 156h-6q-41 -6 -47 -6q-34 -1 -56 25t-22 71t27 45z" />
    <glyph glyph-name="trademark" unicode="&#x2122;" horiz-adv-x="1306" 
d="M840 438q-20 0 -36 14t-18 33q0 51 207 379q193 299 221 396q6 22 30 22t46 -20t21 -42q0 -22 -148 -384q-37 -92 -37 -148q0 -4 2 -4q20 0 119 157q98 157 195 339q14 28 36 28t42 -18q18 -18 18 -32t-15 -65t-53 -237t-38 -263t12 -128t12 -53q0 -25 -26 -25
q-37 0 -63 73t-26 174t41 275q-125 -215 -161 -256q-53 -63 -115 -63q-76 0 -76 102q1 48 19 105q-139 -241 -149 -263t-28 -67q-6 -29 -32 -29zM340 1008q-23 0 -42 22t-19 43q0 22 32 38q33 15 164 54q387 111 557 111q86 0 86 -39q0 -27 -47 -29q-170 -12 -326 -47
q17 -31 17 -43t-29 -69q-199 -449 -217 -549q-12 -63 -45 -64q-17 0 -31 16t-14 50t18 92t226 547q-100 -29 -152 -51t-55 -25q-4 -4 -6 -13q-2 -8 -48 -26t-69 -18z" />
    <glyph glyph-name="minus" unicode="&#x2212;" horiz-adv-x="704" 
d="M184 422q0 12 14 36t32 23q16 0 46 -7t150 -7q119 0 267 42t173 42q35 0 35 -33q0 -47 -103 -88q-102 -41 -238 -68q-136 -26 -256 -26t-120 86z" />
    <glyph glyph-name="commaaccent" unicode="&#xf6c3;" horiz-adv-x="290" 
d="M60 -143q32 0 56 -22t21 -46q-4 -72 -123 -211q-61 -72 -108 -72t-47 29q0 12 32 53q90 121 123 228q13 41 46 41z" />
    <glyph glyph-name="Acute" unicode="&#xf6c9;" horiz-adv-x="436" 
d="M983 1729q27 0 51 -25t23 -51q0 -57 -116 -115t-154 -59q-39 0 -63 19q-24 20 -24 40t16 30t87 44q66 49 90 57q11 10 37 35t53 25z" />
    <glyph glyph-name="Caron" unicode="&#xf6ca;" horiz-adv-x="503" 
d="M1186 1688q0 -23 -56 -50q-70 -41 -161 -122q-35 -37 -80 -37t-57 21q-12 22 -23 74q-12 52 -44 103t-32 68q0 27 31 27q57 0 104 -48q2 -2 12 -10t17 -18q15 -14 27 -41q115 77 189 77q73 1 73 -44z" />
    <glyph glyph-name="Dieresis" unicode="&#xf6cb;" horiz-adv-x="471" 
d="M653 1567q0 39 38 71t78 31q41 -1 63 -23t22 -60t-33 -72t-75 -34t-68 24t-25 63zM1013 1657q39 0 63 -27q24 -26 24 -60t-36 -69t-74 -35t-64 23t-27 61q0 38 38 73q38 34 76 34z" />
    <glyph glyph-name="Grave" unicode="&#xf6ce;" horiz-adv-x="423" 
d="M958 1473q-55 0 -114 67q-113 125 -113 193q0 25 24 45q23 20 53 20t45 -13t25 -43t21 -50l31 -56q29 -38 56 -72q28 -34 28 -49t-16 -29t-40 -13z" />
    <glyph glyph-name="Hungarumlaut" unicode="&#xf6cf;" horiz-adv-x="643" 
d="M1118 1726q29 0 58 -24t28 -47q0 -55 -121 -146q-63 -49 -99 -49t-62 16t-25 35q0 10 78 70q12 12 69 74q28 37 36 54q9 17 38 17zM865 1729q28 0 57 -24t28 -48q0 -57 -123 -146q-63 -49 -99 -49t-62 16t-25 35q0 12 78 70q12 10 72 74q29 41 28 45q18 27 46 27z" />
    <glyph glyph-name="Macron" unicode="&#xf6d0;" horiz-adv-x="491" 
d="M692 1612q14 0 37 -9t105 -9t206 32q20 4 33 4q29 0 29 -24q0 -43 -108 -83t-226 -40t-117 69q0 60 41 60z" />
    <glyph glyph-name="Dotaccent" horiz-adv-x="339" 
d="M889 1561q-1 -78 -85 -78q-40 -1 -76 29t-36 67t22 61t62 25q39 0 76 -33t37 -71z" />
    <glyph glyph-name="Ring" horiz-adv-x="442" 
d="M831 1630q0 -39 54 -39q67 0 96 92q-41 14 -66 15q-84 0 -84 -68zM1061 1655q-1 -74 -61 -124t-139 -50t-121 38q-42 37 -42 105t69 127t153 59q48 0 80 -22t32 -51q0 -7 -6 -25q35 -23 35 -57z" />
    <glyph glyph-name="Circumflex" horiz-adv-x="505" 
d="M698 1481q-29 0 -47 12t-18 31q0 27 55 49q20 10 84 57q74 61 78 66q35 37 80 37q45 1 56 -21t23 -72t44 -103q32 -52 32 -69q0 -27 -30 -26q-57 0 -105 45q-2 4 -22 24t-33 45q-125 -75 -197 -75z" />
    <glyph glyph-name="Breve" horiz-adv-x="503" 
d="M725 1749q0 29 33 29q34 0 56 -12t56 -44t62 -32t89 24q60 24 97 25q68 0 68 -47q0 -14 -11 -24t-55 -34t-86 -56t-61 -42q-20 -10 -55 -10t-67 28t-79 106q-47 77 -47 89z" />
    <glyph glyph-name="Tilde" horiz-adv-x="643" 
d="M841 1579q-40 0 -79 -34t-55 -34q-47 1 -47 57t81 109q61 41 123 41t96 -22q35 -22 63 -52q29 -30 51 -30t60 26t57 27q19 0 33 -16t15 -39q0 -47 -58 -94q-133 -108 -261 22q-39 39 -79 39z" />
    <glyph glyph-name="Cedilla" horiz-adv-x="372" 
d="M209 135q66 0 65 -63q0 -20 -38 -60t-37 -59q1 -20 35 -54t34 -94q0 -92 -100 -149q-49 -29 -96 -29q-47 -1 -82 17t-37 40t9 30t53 7q42 0 73 24q31 25 31 61t-33 64t-33 54q0 45 92 164q35 47 64 47z" />
    <glyph glyph-name="Ogonek" horiz-adv-x="417" 
d="M197 -104q-1 -44 21 -66t87 -49q20 -8 21 -31q0 -43 -71 -43t-125 56t-54 119t21 99q22 36 79 87l84 -50l-8 -12q-55 -66 -55 -110z" />
    <glyph glyph-name="commaaccent.sc" horiz-adv-x="309" 
d="M115 -143q33 0 57 -22t21 -46q-4 -72 -123 -211q-60 -72 -108 -72t-48 29q0 12 33 53q90 121 123 228q12 41 45 41z" />
    <glyph glyph-name="Comma.high" horiz-adv-x="491" 
d="M866 1636q33 0 57 -22t21 -45q-4 -72 -123 -211q-61 -72 -108 -72t-47 29q0 12 32 53q90 121 123 227q12 41 45 41z" />
    <glyph glyph-name="Dieresis.alt" horiz-adv-x="471" 
d="M657 1567q0 39 38 71t78 31t63 -23q22 -22 22 -60t-33 -72t-75 -34t-67 24q-26 24 -26 63zM1017 1657q39 0 63 -27q24 -26 24 -60t-36 -69t-74 -35t-64 23t-27 61q0 38 38 73q38 34 76 34z" />
    <glyph glyph-name="comma.high" horiz-adv-x="327" 
d="M778 1636q33 0 57 -22t21 -45q-4 -72 -123 -211q-61 -72 -109 -72t-46 29q0 12 32 53q90 121 123 227q12 41 45 41z" />
    <glyph glyph-name="dieresis.alt" horiz-adv-x="471" 
d="M446 1055q0 39 38 71t78 31t63 -23t23 -60t-34 -72q-32 -34 -74 -34t-68 24t-26 63zM806 1145q38 0 62 -27q24 -26 25 -60q0 -34 -36 -69t-74 -35q-39 0 -65 23t-26 61t38 73q38 34 76 34z" />
    <glyph glyph-name="commareversed" horiz-adv-x="491" 
d="M918 1636q47 0 47 -28q0 -12 -33 -54q-90 -121 -123 -227q-12 -41 -45 -41q-32 0 -56 22t-22 46q4 72 123 211q62 71 109 71z" />
    <glyph glyph-name="a.salt" horiz-adv-x="948" 
d="M676 678q0 35 -21 35q-51 1 -143 -101t-164 -231t-72 -187t27 -57q39 1 109 73t190 236q-22 12 -22 34t48 92q48 71 48 106zM299 -6q-76 0 -125 53t-49 138t65 210q66 125 181 252q193 219 319 219q72 0 113 -110q33 63 44 75q11 13 35 13t50 -31t24 -67q0 -36 -36 -113
q-140 -303 -140 -426t43 -123q16 0 41 24t41 25q15 0 27 -14t12 -35q0 -47 -48 -85t-117 -38t-103 57t-33 183q0 49 10 112q-98 -135 -129 -172q-115 -147 -225 -147z" />
    <glyph glyph-name="c.salt" horiz-adv-x="624" 
d="M884 575q17 0 29 -11t13 -27q0 -70 -157 -243t-261 -242q-199 -131 -326 -7q-61 61 -61 139q0 115 93 269t241 282q131 117 204 117q115 0 115 -84q0 -30 -16 -52t-30 -22t-34 14q-18 14 -30 15q-70 0 -199 -170q-188 -248 -195 -367q-4 -68 58 -67q96 0 336 227
q102 96 182 201q21 28 38 28z" />
    <glyph glyph-name="e.salt" horiz-adv-x="765" 
d="M393 416q93 0 183 121t90 168q0 27 -19 26q-37 0 -117 -91t-165 -224h28zM272 209q0 -86 62 -86q82 0 234 84t223 170q23 31 45 31q38 0 38 -46t-97 -142q-97 -97 -229 -163q-132 -65 -219 -65t-147 59q-59 59 -59 143t62 208t171 245q190 213 310 213q55 0 93 -42
t38 -116q1 -74 -83 -191q-164 -228 -337 -228q-33 0 -80 12q-25 -51 -25 -86z" />
    <glyph glyph-name="l.salt" horiz-adv-x="321" 
d="M311 49q0 -55 -59 -55q-47 0 -79 55q-31 55 -31 160t59 244l211 518q86 205 93 235t20 43q13 15 44 15t59 -26t28 -58t-31 -86q-123 -220 -235 -530t-114 -394q0 -84 31 -104q4 -4 4 -17z" />
    <glyph glyph-name="m.salt" horiz-adv-x="1163" 
d="M171 -8q-36 0 -67 33q-30 33 -30 65t49 125q43 95 134 313t101 256q20 71 52 72q46 0 70 -43q25 -43 26 -65q0 -51 -105 -224l-34 -69q239 259 307 325t96 66t54 -33q24 -33 24 -70t-25 -93t-127 -261q252 266 314 350q61 75 84 95q24 20 46 20t36 -25q38 -53 38 -79
t-34 -95q-74 -139 -123 -271t-49 -180q0 -95 49 -93q25 0 53 18q29 14 40 14t21 -14q11 -14 11 -47t-45 -68q-45 -34 -115 -34t-114 57t-44 155t54 235q10 28 12 36q-152 -166 -312 -381q-33 -52 -52 -68t-49 -16q-31 0 -57 29t-26 63q0 72 133 344q17 37 56 121
q-358 -375 -404 -526q-12 -37 -48 -37z" />
    <glyph glyph-name="n.salt" horiz-adv-x="989" 
d="M780 807q28 0 61 -36q31 -36 31 -69t-20 -86q-54 -131 -80 -267t-27 -154q0 -82 41 -82q23 0 77 48q55 49 97 103t60 54t32 -17q14 -16 15 -47q0 -31 -59 -102q-150 -180 -267 -181q-137 0 -137 211q0 68 10 118t58 214l-70 -82q-35 -42 -136 -164t-181 -200t-123 -78
t-66 24t-22 60q0 72 69 221q10 25 84 159q73 134 105 182t42 66q9 18 16 56q8 38 16 47q8 10 42 10t68 -27q35 -28 35 -60t-100 -190t-166 -276q86 80 222 239t218 273q27 33 55 33z" />
    <glyph glyph-name="r.salt" horiz-adv-x="507" 
d="M950 790q0 -47 -39 -49l-73 13q-127 0 -306 -189q-123 -129 -217 -305q-18 -31 -104 -209q-31 -63 -70 -63q-76 0 -78 78q1 29 53 126t127 319t66 257q0 72 39 72q28 0 54 -62t26 -133q221 221 381 219q55 0 98 -24q43 -26 43 -50z" />
    <glyph glyph-name="t.salt" horiz-adv-x="411" 
d="M256 580q0 40 24 62t62 28t61 12q82 172 159 322t73 163q23 66 67 66q29 0 59 -31t30 -55t-27 -72q-78 -127 -178 -336q83 41 118 59q34 19 48 19q34 0 34 -45t-96 -104q-98 -55 -186 -95q-59 -133 -94 -221q4 -37 4 -73q0 -127 -42 -210t-107 -83t-65 107t72 302
q-4 54 -4 56l-10 75q-2 14 -2 54z" />
    <glyph glyph-name="u.salt" horiz-adv-x="770" 
d="M741 106q33 0 33 -34q0 -25 -20 -52q-16 -18 -28 -23t-54 -5q-43 0 -76 48t-33 106t10 116q-137 -154 -213 -212t-129 -58t-90 43t-37 98t26 119t116 245q90 183 106 223t26 78q19 66 75 66q33 0 55 -18t20 -47q0 -55 -131 -310t-131 -286t19 -31q43 0 186 172
q66 78 184 258q119 180 148 246q16 37 50 37q33 0 57 -23q24 -24 24 -52t-58 -128t-119 -278q-60 -178 -61 -263q0 -37 21 -37q8 0 18 2h6z" />
    <glyph glyph-name="aacute.salt" horiz-adv-x="948" 
d="M676 678q0 35 -21 35q-51 1 -143 -101t-164 -231t-72 -187t27 -57q39 1 109 73t190 236q-22 12 -22 34t48 92q48 71 48 106zM299 -6q-76 0 -125 53t-49 138t65 210q66 125 181 252q193 219 319 219q72 0 113 -110q33 63 44 75q11 13 35 13t50 -31t24 -67q0 -36 -36 -113
q-140 -303 -140 -426t43 -123q16 0 41 24t41 25q15 0 27 -14t12 -35q0 -47 -48 -85t-117 -38t-103 57t-33 183q0 49 10 112q-98 -135 -129 -172q-115 -147 -225 -147zM688 1030q0 31 48 48q48 18 104 54q55 36 79 62q23 26 51 27q28 0 52 -22t22 -52q0 -57 -110 -115
t-152 -59q-42 0 -68 18t-26 39z" />
    <glyph glyph-name="agrave.salt" horiz-adv-x="948" 
d="M676 678q0 35 -21 35q-51 1 -143 -101t-164 -231t-72 -187t27 -57q39 1 109 73t190 236q-22 12 -22 34t48 92q48 71 48 106zM299 -6q-76 0 -125 53t-49 138t65 210q66 125 181 252q193 219 319 219q72 0 113 -110q33 63 44 75q11 13 35 13t50 -31t24 -67q0 -36 -36 -113
q-140 -303 -140 -426t43 -123q16 0 41 24t41 25q15 0 27 -14t12 -35q0 -47 -48 -85t-117 -38t-103 57t-33 183q0 49 10 112q-98 -135 -129 -172q-115 -147 -225 -147zM692 1192q0 34 22 54t53 20q32 0 46 -14t38 -78t107 -158q34 -34 -2 -62q-18 -14 -34 -14q-57 0 -117 68
q-113 125 -113 184z" />
    <glyph glyph-name="acircumflex.salt" horiz-adv-x="948" 
d="M676 678q0 35 -21 35q-51 1 -143 -101t-164 -231t-72 -187t27 -57q39 1 109 73t190 236q-22 12 -22 34t48 92q48 71 48 106zM299 -6q-76 0 -125 53t-49 138t65 210q66 125 181 252q193 219 319 219q72 0 113 -110q33 63 44 75q11 13 35 13t50 -31t24 -67q0 -36 -36 -113
q-140 -303 -140 -426t43 -123q16 0 41 24t41 25q15 0 27 -14t12 -35q0 -47 -48 -85t-117 -38t-103 57t-33 183q0 49 10 112q-98 -135 -129 -172q-115 -147 -225 -147zM567 1032q1 18 49 44t72 45t77 69q54 50 98 51q44 0 65 -31q6 -10 8 -36q20 -92 54 -136t34 -63
q-4 -27 -46 -27t-91 49l-15 15q-20 18 -45 49q-133 -74 -174 -75t-63 14q-22 14 -23 32z" />
    <glyph glyph-name="aring.salt" horiz-adv-x="948" 
d="M676 678q0 35 -21 35q-51 1 -143 -101t-164 -231t-72 -187t27 -57q39 1 109 73t190 236q-22 12 -22 34t48 92q48 71 48 106zM299 -6q-76 0 -125 53t-49 138t65 210q66 125 181 252q193 219 319 219q72 0 113 -110q33 63 44 75q11 13 35 13t50 -31t24 -67q0 -36 -36 -113
q-140 -303 -140 -426t43 -123q16 0 41 24t41 25q15 0 27 -14t12 -35q0 -47 -48 -85t-117 -38t-103 57t-33 183q0 49 10 112q-98 -135 -129 -172q-115 -147 -225 -147zM973 1200q-2 0 -12 6l-7 -2q-6 2 -13 6t-21 4q-74 0 -91 -63q-1 -17 15 -31t45 -14t59 27t31 61q0 4 4 6
h-10zM1061 1174q1 -72 -59 -124t-137 -52t-123 35t-46 103t67 128t155 59q50 0 82 -20t32 -54q0 -8 -6 -22l12 -6q23 -14 23 -47z" />
    <glyph glyph-name="edieresis.salt" horiz-adv-x="763" 
d="M393 416q93 0 183 121t90 168q0 27 -19 26q-37 0 -117 -91t-165 -224h28zM272 209q0 -86 62 -86q82 0 234 84t223 170q23 31 45 31q38 0 38 -46t-97 -142q-97 -97 -229 -163q-132 -65 -219 -65t-147 59q-59 59 -59 143t62 208t171 245q190 213 310 213q55 0 93 -42
t38 -116q1 -74 -83 -191q-164 -228 -337 -228q-33 0 -80 12q-25 -51 -25 -86zM620 1210q40 0 66 -26t25 -60q0 -36 -36 -70t-74 -34q-39 0 -67 24t-28 61t37 71t77 34zM867 1171q40 -1 64 -25q52 -53 -11 -126q-31 -35 -74 -35t-70 26q-26 25 -26 61t38 68q39 31 79 31z" />
    <glyph glyph-name="eacute.salt" horiz-adv-x="765" 
d="M393 416q93 0 183 121t90 168q0 27 -19 26q-37 0 -117 -91t-165 -224h28zM272 209q0 -86 62 -86q82 0 234 84t223 170q23 31 45 31q38 0 38 -46t-97 -142q-97 -97 -229 -163q-132 -65 -219 -65t-147 59q-59 59 -59 143t62 208t171 245q190 213 310 213q55 0 93 -42
t38 -116q1 -74 -83 -191q-164 -228 -337 -228q-33 0 -80 12q-25 -51 -25 -86zM914 1217q28 0 52 -22t23 -52q0 -53 -96 -113q-29 -16 -95 -39t-90 -23t-50 19q-26 18 -25 39q0 31 59 53q37 12 92 48t79 63q23 27 51 27z" />
    <glyph glyph-name="egrave.salt" horiz-adv-x="763" 
d="M393 416q93 0 183 121t90 168q0 27 -19 26q-37 0 -117 -91t-165 -224h28zM272 209q0 -86 62 -86q82 0 234 84t223 170q23 31 45 31q38 0 38 -46t-97 -142q-97 -97 -229 -163q-132 -65 -219 -65t-147 59q-59 59 -59 143t62 208t171 245q190 213 310 213q55 0 93 -42
t38 -116q1 -74 -83 -191q-164 -228 -337 -228q-33 0 -80 12q-25 -51 -25 -86zM565 1197q-1 33 21 51t62 18t57 -45q47 -111 106 -183q35 -35 35 -53q0 -17 -18 -31t-42 -14q-26 0 -46 11t-64 57q-45 46 -78 101q-33 56 -33 88z" />
    <glyph glyph-name="ecircumflex.salt" horiz-adv-x="765" 
d="M393 416q93 0 183 121t90 168q0 27 -19 26q-37 0 -117 -91t-165 -224h28zM272 209q0 -86 62 -86q82 0 234 84t223 170q23 31 45 31q38 0 38 -46t-97 -142q-97 -97 -229 -163q-132 -65 -219 -65t-147 59q-59 59 -59 143t62 208t171 245q190 213 310 213q55 0 93 -42
t38 -116q1 -74 -83 -191q-164 -228 -337 -228q-33 0 -80 12q-25 -51 -25 -86zM584 1018q-30 0 -53 14q-21 14 -21 34t27 32q68 33 208 157q16 18 58 19q70 0 76 -68q2 -49 71 -164q12 -16 13 -34q0 -25 -43 -25q-42 0 -90 47q-48 46 -52 54t-8 12q-16 -10 -45 -23l-29 -14
q-82 -41 -112 -41z" />
    <glyph glyph-name="ntilde.salt" horiz-adv-x="989" 
d="M780 807q28 0 61 -36q31 -36 31 -69t-20 -86q-54 -131 -80 -267t-27 -154q0 -82 41 -82q23 0 77 48q55 49 97 103t60 54t32 -17q14 -16 15 -47q0 -31 -59 -102q-150 -180 -267 -181q-137 0 -137 211q0 68 10 118t58 214l-70 -82q-35 -42 -136 -164t-181 -200t-123 -78
t-66 24t-22 60q0 72 69 221q10 25 84 159q73 134 105 182t42 66q9 18 16 56q8 38 16 47q8 10 42 10t68 -27q35 -28 35 -60t-100 -190t-166 -276q86 80 222 239t218 273q27 33 55 33zM493 1020q-17 0 -30 14q-12 14 -12 44t32 59q83 67 145 67t89 -16t90 -84q7 -6 29 -6
t63 28t67 0q13 -14 13 -42t-25 -54q-62 -63 -126 -63t-99 30q-74 66 -78 71t-11 5t-38 4q-10 0 -37 -15q-27 -14 -41 -28t-31 -14z" />
    <glyph glyph-name="uacute.salt" horiz-adv-x="770" 
d="M741 106q33 0 33 -34q0 -25 -20 -52q-16 -18 -28 -23t-54 -5q-43 0 -76 48t-33 106t10 116q-137 -154 -213 -212t-129 -58t-90 43t-37 98t26 119t116 245q90 183 106 223t26 78q19 66 75 66q33 0 55 -18t20 -47q0 -55 -131 -310t-131 -286t19 -31q43 0 186 172
q66 78 184 258q119 180 148 246q16 37 50 37q33 0 57 -23q24 -24 24 -52t-58 -128t-119 -278q-60 -178 -61 -263q0 -37 21 -37q8 0 18 2h6zM638 1300q40 0 54 -45q35 -98 109 -182q33 -41 33 -57t-16 -28t-45 -13q-28 0 -45 10t-63 57q-46 48 -79 104t-33 87t22 49
q23 18 63 18z" />
    <glyph glyph-name="ucircumflex.salt" horiz-adv-x="770" 
d="M741 106q33 0 33 -34q0 -25 -20 -52q-16 -18 -28 -23t-54 -5q-43 0 -76 48t-33 106t10 116q-137 -154 -213 -212t-129 -58t-90 43t-37 98t26 119t116 245q90 183 106 223t26 78q19 66 75 66q33 0 55 -18t20 -47q0 -55 -131 -310t-131 -286t19 -31q43 0 186 172
q66 78 184 258q119 180 148 246q16 37 50 37q33 0 57 -23q24 -24 24 -52t-58 -128t-119 -278q-60 -178 -61 -263q0 -37 21 -37q8 0 18 2h6zM575 1022q-23 0 -45 13t-20 29q0 16 8 24t47 28q63 39 180 144q16 20 60 20q68 0 74 -70q10 -48 21 -74t50 -92q12 -14 13 -32
q0 -27 -43 -27t-121 78q-13 12 -15 14t-16 23q-130 -78 -193 -78z" />
    <glyph glyph-name="e.salt1" 
d="M688 712q0 22 -14 21q-23 0 -77 -48t-202 -236q35 -16 56 -17q53 0 137 96q36 42 68 102t32 82zM287 197q0 -76 63 -76q111 0 295 137q185 137 251 221q66 83 84 99t36 16q20 0 32 -16t13 -39q0 -59 -213 -267q-293 -280 -504 -278q-104 0 -157 53q-52 53 -52 141
q0 207 215 439q207 229 346 229q121 0 121 -135q0 -100 -95 -218t-161 -161t-125 -43t-108 35q-41 -90 -41 -137z" />
    <glyph glyph-name="l.salt1" horiz-adv-x="561" 
d="M562 246q16 0 26 -18t10 -46q0 -30 -66 -112t-155 -82q-90 0 -139 68q-50 68 -50 170q0 104 32 218t115 313q83 201 176 379t85 191q14 53 55 53t69 -34t28 -54q0 -21 -27 -65q-180 -313 -320 -672q-77 -199 -77 -327t59 -128q66 0 149 125q15 21 30 21z" />
    <glyph glyph-name="edieresis.salt1" 
d="M688 712q0 22 -14 21q-23 0 -77 -48t-202 -236q35 -16 56 -17q53 0 137 96q36 42 68 102t32 82zM287 197q0 -76 63 -76q111 0 295 137q185 137 251 221q66 83 84 99t36 16q20 0 32 -16t13 -39q0 -59 -213 -267q-293 -280 -504 -278q-104 0 -157 53q-52 53 -52 141
q0 207 215 439q207 229 346 229q121 0 121 -135q0 -100 -95 -218t-161 -161t-125 -43t-108 35q-41 -90 -41 -137zM663 1221q39 0 65 -25q26 -26 26 -60t-36 -69t-74 -35t-66 24t-29 60q0 36 37 71q37 34 77 34zM910 1184q40 0 64 -25q50 -53 -11 -127q-31 -35 -75 -35
t-71 26q-27 25 -27 61t39 68q40 32 81 32z" />
    <glyph glyph-name="egrave.salt1" 
d="M688 712q0 22 -14 21q-23 0 -77 -48t-202 -236q35 -16 56 -17q53 0 137 96q36 42 68 102t32 82zM287 197q0 -76 63 -76q111 0 295 137q185 137 251 221q66 83 84 99t36 16q20 0 32 -16t13 -39q0 -59 -213 -267q-293 -280 -504 -278q-104 0 -157 53q-52 53 -52 141
q0 207 215 439q207 229 346 229q121 0 121 -135q0 -100 -95 -218t-161 -161t-125 -43t-108 35q-41 -90 -41 -137zM604 1234q0 69 84 69q41 0 53 -46q51 -115 97 -168t45 -69q1 -16 -17 -30t-44 -13q-26 0 -44 11t-63 56q-45 46 -78 102t-33 88z" />
    <glyph glyph-name="ecircumflex.salt1" 
d="M688 712q0 22 -14 21q-23 0 -77 -48t-202 -236q35 -16 56 -17q53 0 137 96q36 42 68 102t32 82zM287 197q0 -76 63 -76q111 0 295 137q185 137 251 221q66 83 84 99t36 16q20 0 32 -16t13 -39q0 -59 -213 -267q-293 -280 -504 -278q-104 0 -157 53q-52 53 -52 141
q0 207 215 439q207 229 346 229q121 0 121 -135q0 -100 -95 -218t-161 -161t-125 -43t-108 35q-41 -90 -41 -137zM590 999q-30 1 -52 15t-22 32t27 33q68 33 209 158q16 18 57 18q70 0 76 -67q2 -49 71 -166q12 -16 13 -35q0 -25 -43 -25t-87 45q-43 44 -51 55t-12 15
q-10 -8 -28 -16t-23 -10q-4 -2 -11 -5l-50 -25t-74 -22z" />
    </font>
</defs>
</svg>
