<?xml version="1.0" standalone="no"?>
<!DOCTYPE svg PUBLIC "-//W3C//DTD SVG 1.1//EN" "http://www.w3.org/Graphics/SVG/1.1/DTD/svg11.dtd" >
<svg xmlns="http://www.w3.org/2000/svg">
<metadata>
Created by FontPrep 20130207 at Mon Apr 20 11:10:30 2015
 By Admin
Copyright (URW)++,Copyright 2008 by (URW)++ Design &#38; Development
</metadata>
<defs>
<font id="53238d6cc0a0c77d2fa2e7ca442f4046" horiz-adv-x='1024' >
  <font-face 
    font-family="LPBambus-Light"
    font-weight="300"
    font-style="italic"
    font-stretch="normal"
    units-per-em="2048"
    panose-1="0 0 4 0 0 0 0 0 0 0"
    ascent="1487"
    descent="-561"
    x-height="842"
    cap-height="1493"
    bbox="-399 -983 1911 1905"
    underline-thickness="129"
    underline-position="-129"
    slope="-22"
    unicode-range="U+0020-FB02"
  />
<missing-glyph horiz-adv-x="436" 
 />
    <glyph glyph-name="fi" unicode="fi" horiz-adv-x="694" 
d="M1079 1024q-37 0 -65 23t-27 49t17 44q16 17 44 17q28 -1 57 -25q30 -24 30 -55q0 -53 -56 -53zM635 82l6 -64q0 -24 -31 -24q-32 0 -54 34t-22 104t63 238q62 168 132 290t66 131q14 45 39 49q26 2 52 -21t26 -47t-36 -78q-34 -55 -104 -205q-136 -295 -137 -407z
M350 874h53q157 344 263 495t188 151q41 0 66 -38q24 -38 24 -103t-36 -143t-78 -115q-42 -36 -55 -36q-13 1 -13 13t49 94t49 157t-31 74q-31 0 -101 -123t-206 -415q120 11 182 25t80 14t19 -16q0 -16 -23 -25q-119 -57 -303 -99q-178 -410 -301 -720t-123 -355
q-12 -63 -39 -63q-37 0 -37 78q-1 78 41 198q42 121 336 844q-18 -2 -43 -2q-92 0 -92 63q0 51 41 52l49 -2q10 -3 41 -3z" />
    <glyph glyph-name="fl" unicode="fl" horiz-adv-x="759" 
d="M1060 1405q22 0 48 -25t25 -45q0 -19 -48 -107q-47 -88 -153 -330t-179 -438t-73 -308q0 -57 18 -90t17 -41q1 -7 -11 -17t-28 -10q-43 0 -71 48q-71 121 41 439q69 195 209 505q141 310 153 354q12 45 20 55q10 10 32 10zM295 770q-92 0 -92 64q0 51 41 51l49 -2
q20 -2 78 -2h16q158 343 263 493t188 150q38 0 64 -38t26 -102t-36 -142q-36 -79 -90 -125t-57 -13q-1 12 49 92t50 156t-31 75q-59 0 -307 -538q127 13 185 27t77 14t18 -17q0 -23 -93 -57t-232 -65q-180 -410 -302 -720t-122 -356q-12 -63 -39 -63q-37 0 -37 78t53 237
q29 82 324 803h-43z" />
    <glyph glyph-name=".notdef" horiz-adv-x="436" 
 />
    <glyph glyph-name=".null" horiz-adv-x="0" 
 />
    <glyph glyph-name="nonmarkingreturn" horiz-adv-x="681" 
 />
    <glyph glyph-name="space" unicode=" " horiz-adv-x="436" 
 />
    <glyph glyph-name="exclam" unicode="!" horiz-adv-x="419" 
d="M162 38q0 22 34 43t82 21q49 0 50 -41q0 -27 -36 -49t-68 -20q-62 0 -62 46zM770 1434q32 0 54 -20t22 -40t-137 -237t-176 -298t-72 -173t-53 -148q-20 -57 -27 -74q-12 -37 -37 -36q-14 0 -25 12q-10 12 -10 29q0 223 307 745q94 160 108 200t46 40z" />
    <glyph glyph-name="quotedbl" unicode="&#x22;" horiz-adv-x="497" 
d="M977 1640q29 0 49 -18q63 -57 -102 -246q-58 -70 -100 -70t-42 21q0 8 31 47q100 135 125 232q10 34 39 34zM770 1636q29 0 49 -18q64 -57 -102 -246q-59 -70 -101 -70t-41 21q0 8 31 47q100 135 125 232q10 34 39 34z" />
    <glyph glyph-name="numbersign" unicode="#" horiz-adv-x="1253" 
d="M903 1006l-98 -244h205q16 41 20 59q45 119 70 180q-17 3 -197 5zM530 74q0 190 140 596q-111 -2 -162 -10l-170 -44q-20 0 -21 25q0 100 385 117q16 40 22 60t33 86q26 67 38 104q-133 -2 -185 -10t-159 -42l-15 -2q-20 0 -20 25q0 100 413 119q113 299 140 375t55 192
q6 27 28 27t48 -34t26 -63t-56 -169l-87 -218q-31 -78 -43 -108h197q2 8 14 40t19 51t71 188q65 169 90 288q6 27 28 27q23 0 49 -34t26 -62t-189 -500l193 -6q72 0 102 7t35 7q16 0 16 -36t-26 -66q-16 -27 -76 -27q-14 0 -106 9t-179 11l-94 -237l229 -6q73 0 103 7t35 7
q16 0 16 -36t-27 -66q-16 -27 -75 -27q-14 0 -87 8t-233 15q-69 -168 -101 -286t-67 -333q-6 -45 -31 -45q-36 0 -36 74t53 325q16 76 86 269l-207 4q-74 -182 -102 -290t-68 -339q-8 -45 -31 -45q-37 0 -37 78z" />
    <glyph glyph-name="dollar" unicode="$" horiz-adv-x="798" 
d="M70 -43q-10 0 -21 11q-10 11 -10 33t61 126q31 41 72 98q-61 67 -61 137t110 123q92 41 156 41q21 0 33 -6t10 -14q0 -10 -33 -17q-70 -10 -123 -48t-53 -76q0 -81 103 -145q104 -64 240 -64t136 108q0 47 -32 253t-32 302q0 95 50 145q48 50 104 50t101 -13
q96 99 129 141t39 49t19 7t30 -24q16 -25 16 -50q0 -49 -74 -114q-10 -10 -34 -32t-39 -42q16 -26 16 -58t-21 -52q-22 -19 -53 -19t-30 16v8q4 12 4 29q0 74 -68 74t-67 -164q0 -104 26 -286t25 -220q0 -80 -67 -125t-183 -45q-178 0 -309 78l-37 -37l-10 -20
q-13 -18 -27 -39t-47 -72q-23 -47 -49 -47z" />
    <glyph glyph-name="percent" unicode="%" horiz-adv-x="1054" 
d="M1036 391q18 0 35 -22q16 -23 16 -50q0 -91 -99 -205t-179 -114q-45 0 -78 44t-33 103q0 102 99 218q53 61 108 106t73 45t33 -21q13 -21 13 -45t-7 -31t-58 -38t-109 -119t-59 -139q0 -23 22 -23q59 0 131 105q31 43 39 67t11 72q3 47 42 47zM459 811q0 -31 26 -31
q16 0 43 29q26 29 54 87t28 142q-49 -16 -94 -73q-57 -82 -57 -154zM616 1149q35 0 57 -34t21 -85q0 -120 -74 -240t-145 -120q-47 0 -83 47t-36 108q0 94 99 215q68 86 90 83t26 -5q10 31 45 31zM1380 1114q31 0 31 -29q0 -20 -29 -34q-180 -92 -384 -251t-380 -345
q-328 -346 -362 -490q-8 -33 -35 -33t-46 18t-19 38q0 59 124 227t261 297q518 483 813 596q12 6 26 6z" />
    <glyph glyph-name="ampersand" unicode="&#x26;" horiz-adv-x="1103" 
d="M238 150q0 -29 14 -41t49 -13q133 0 377 211q-66 147 -84 301q-356 -340 -356 -458zM1028 1196q0 41 -47 41q-96 0 -180 -131q-65 -98 -92 -270q176 166 223 217q96 102 96 143zM981 1343q59 1 100 -41t41 -102t-89 -166q-89 -104 -335 -329q4 -154 68 -314
q193 188 256 320q16 29 35 28q29 0 29 -44q0 -43 -82 -157q-80 -114 -195 -235q55 -102 127 -173t135 -87q25 -9 25 -23t-22 -27t-46 -13q-59 0 -145 63q-84 66 -158 178q-252 -227 -422 -227q-70 0 -117 45t-47 124t100 206q99 127 347 354q0 4 4 47q16 197 119 356
q63 100 138 158t134 59z" />
    <glyph glyph-name="quotesingle" unicode="'" horiz-adv-x="305" 
d="M778 1624q29 0 49 -18q62 -56 -102 -248q-59 -70 -101 -70t-40 21q0 10 30 47q100 135 125 233q10 35 39 35z" />
    <glyph glyph-name="parenleft" unicode="(" horiz-adv-x="397" 
d="M262 -281q-63 0 -63 328q0 406 143 752q62 153 156 331t155 263q115 166 183 166q36 1 74 -17t38 -35q0 -10 -12 -16q-160 -82 -384 -500q-114 -213 -192 -489t-79 -500l8 -246q0 -37 -27 -37z" />
    <glyph glyph-name="parenright" unicode=")" horiz-adv-x="481" 
d="M561 1538q0 29 50 29t83 -21q68 -40 68 -402t-193 -779q-89 -187 -203 -357t-208 -250q-34 -26 -54 -26t-20 11t173 251t281 553t107 588q0 104 -10 153q-10 50 -42 146t-32 104z" />
    <glyph glyph-name="asterisk" unicode="*" horiz-adv-x="731" 
d="M1100 1319q31 1 50 -19t19 -51t-49 -57t-180 -53q137 -137 137 -181q-1 -22 -23 -44t-44 -22t-51 33q-28 32 -107 148q-61 -86 -91 -134t-62 -48t-52 19t-20 46t27 63q28 36 108 120q-137 27 -182 49t-45 56q0 32 18 49t48 17t196 -67q-6 92 -6 172t65 80q57 0 57 -65
q0 -32 -3 -96t-3 -91q162 76 193 76z" />
    <glyph glyph-name="plus" unicode="+" horiz-adv-x="675" 
d="M662 776q20 0 44 -22q45 -41 3 -72q-55 -63 -131 -221q86 15 172 39t92 24q20 0 20 -14q0 -35 -89 -75t-236 -66q-88 -217 -113 -338q-8 -41 -33 -41q-18 0 -31 15q-12 15 -12 38q0 111 68 305q-90 -8 -125 -8q-119 0 -119 63q0 49 37 50q7 0 29 -7q22 -8 99 -8t116 6
q55 141 127 250q29 46 46 64q16 18 36 18z" />
    <glyph glyph-name="comma" unicode="," horiz-adv-x="315" 
d="M211 162q29 0 49 -18t19 -42q-4 -68 -121 -204q-58 -70 -100 -70t-42 20q0 8 31 48q90 121 125 231q10 35 39 35z" />
    <glyph glyph-name="hyphen" unicode="-" horiz-adv-x="540" 
d="M231 383q14 0 35 -9q22 -9 106 -9t210 32q25 4 30 4q20 0 21 -16q1 -39 -105 -77t-218 -38t-111 62q-1 51 32 51z" />
    <glyph glyph-name="period" unicode="." horiz-adv-x="229" 
d="M101 104q34 0 66 -22t32 -49q0 -39 -84 -39t-84 53q0 25 18 41t52 16z" />
    <glyph glyph-name="slash" unicode="/" horiz-adv-x="651" 
d="M1241 1604q17 0 33 -29t16 -61t-37 -80t-223 -250q-473 -528 -635 -733t-276 -420q-17 -33 -33 -33q-30 0 -31 33q6 152 428 671q182 223 423 501t308 382q11 19 27 19z" />
    <glyph glyph-name="zero" unicode="0" horiz-adv-x="833" 
d="M973 958q1 74 -19 116t-50 42t-37 -12t-19 -12t-12 32t27 61q28 30 69 29q68 0 106 -72t39 -220q0 -148 -55 -331q-54 -183 -146 -315t-198 -208t-204 -76t-169 97q-72 97 -72 239q0 219 115 477t282 427t306 214q43 14 59 14q39 0 39 -57q0 -33 -11 -44t-110 -40
q-68 -23 -168 -122t-187 -241t-146 -320q-60 -179 -60 -297t37 -177t94 -60q111 0 226 130t189 332q75 202 75 394z" />
    <glyph glyph-name="one" unicode="1" horiz-adv-x="421" 
d="M322 1004q0 91 298 343q134 113 160 113t50 -33q22 -33 22 -63t-55 -131q-473 -946 -518 -1196q-8 -43 -31 -43q-18 0 -32 29q-13 29 -13 67q-1 234 491 1182q-178 -133 -307 -303q-13 -21 -29 -21t-26 16t-10 40z" />
    <glyph glyph-name="two" unicode="2" horiz-adv-x="882" 
d="M480 944q-40 0 -64 25t-25 61q0 131 195 273q190 133 329 133q81 0 133 -58t52 -166q0 -106 -117 -273t-397 -425t-379 -403q207 49 385 49t242 -74q20 -22 20 -44t-29 -22q-15 0 -67 20t-146 19q-193 0 -350 -47q-63 -20 -74 -20q-34 0 -72 42t-38 84t58 110t259 258
q201 188 353 353t198 251t45 140q0 103 -82 101q-106 0 -254 -109q-147 -110 -147 -188l12 -65q0 -25 -40 -25z" />
    <glyph glyph-name="three" unicode="3" horiz-adv-x="880" 
d="M975 1266q0 53 -62 53q-85 0 -207 -59q-122 -58 -216 -142t-112 -118q-17 -34 -32 -33q-39 0 -39 55q0 102 197 244q106 76 223 124t193 48t120 -44t45 -116q0 -188 -276 -422q-100 -86 -272 -199q176 -75 227 -101t108 -71q102 -80 103 -176q0 -129 -168 -222t-399 -93
q-137 0 -232 44q-94 44 -94 109q0 47 40 91t73 45q33 0 32 -17q0 -14 -10 -30t-10 -29q1 -45 69 -77t192 -32t262 68t138 143q0 47 -42 81t-128 70t-247 115q-61 39 -62 95q0 27 13 38q14 11 96 58t194 137t174 162q109 123 109 201z" />
    <glyph glyph-name="four" unicode="4" horiz-adv-x="878" 
d="M480 631q-94 0 -160 39t-66 84t61 116q219 252 312 382q92 130 96 190q5 31 27 31q22 1 40 -17t19 -39q0 -63 -60 -165q-61 -102 -203 -280q-142 -180 -142 -210t83 -29q84 0 267 41q2 0 8 2t14 3t17 3q23 41 67 134q44 92 100 188t65 146t38 50t47 -19t18 -50
q0 -34 -168 -371q-16 -31 -24 -49q72 12 140 12t69 -26q0 -41 -80 -43q-41 0 -176 -35q-242 -510 -236 -672q1 -55 -29 -55t-50 35q-19 35 -19 86q0 168 188 565q-170 -47 -263 -47z" />
    <glyph glyph-name="five" unicode="5" horiz-adv-x="815" 
d="M1132 1425q18 -1 19 -21q0 -20 -27 -48q-67 -68 -216 -87q-85 -12 -253 -16q-68 -172 -168 -360q121 78 232 78t185 -86t75 -226q0 -211 -182 -426q-96 -113 -215 -176q-120 -63 -228 -63t-175 55t-66 139q0 51 28 92q29 40 64 40t35 -29q0 -8 -12 -35q-12 -28 -11 -64
q0 -36 36 -66t99 -30q199 0 371 219q147 189 147 361t-174 172q-168 0 -299 -160q-41 -47 -59 -47t-39 32q-20 33 -20 63t50 102q49 72 125 258t111 230t90 44l154 -8q139 0 270 51q35 12 53 12z" />
    <glyph glyph-name="six" unicode="6" horiz-adv-x="763" 
d="M969 1339q-86 -1 -200 -111t-226 -304q-213 -369 -213 -654q0 -82 24 -127t68 -45q147 0 285 201q70 98 112 211q43 112 43 212t-71 99q-66 0 -134 -82t-75 -172q-6 -55 -52 -55q-25 0 -43 18t-18 56t30 105t74 120q103 121 220 121q84 0 138 -62t54 -166t-53 -238
t-141 -243q-182 -227 -392 -227q-84 0 -134 81t-50 237t100 405q100 250 248 440q217 276 420 277q66 0 110 -56t44 -126t-28 -112t-67 -42q-25 0 -24 35l12 69q0 51 -19 93t-42 42z" />
    <glyph glyph-name="seven" unicode="7" horiz-adv-x="677" 
d="M633 1288q-246 0 -246 103q0 27 15 46q14 19 30 19t31 -8q66 -47 285 -47q170 1 281 29q112 28 118 28q29 0 57 -32t29 -54q0 -22 -5 -30q-4 -8 -112 -100q-108 -93 -272 -313t-258 -399q-174 -311 -185 -499q-1 -35 -27 -35t-42 22t-17 58q0 197 201 552t510 703
q-252 -43 -393 -43z" />
    <glyph glyph-name="eight" unicode="8" horiz-adv-x="763" 
d="M213 238q0 -53 68 -97q70 -49 175 -49t181 41q41 19 41 63t-42 182t-69 247q-162 -141 -258 -237t-96 -150zM793 188q-1 -82 -103 -140t-242 -58t-238 72q-99 72 -99 174q0 103 178 280q78 80 254 227q-16 113 -17 172q0 229 118 395t282 165q78 -1 129 -55t51 -128
t-36 -120q-36 -48 -78 -48t-42 25q0 12 15 31q47 66 47 130t-60 64q-102 0 -190 -98q-119 -139 -119 -336q0 -29 4 -111q113 94 144 123t48 58t31 28q18 0 18 -44t-47 -106q-48 -62 -177 -179q31 -141 80 -314t49 -207z" />
    <glyph glyph-name="nine" unicode="9" horiz-adv-x="610" 
d="M860 1090q0 10 42 54t73 97t31 77t-31 25q-31 0 -123 -57q-92 -58 -204 -156t-195 -212q-84 -114 -84 -170q0 -54 39 -54q80 0 215 104t270 269q-33 0 -33 23zM1071 1184q0 -16 -145 -279q-350 -645 -379 -872q-6 -41 -31 -41q-45 0 -45 105t61 261t218 455
q-227 -221 -369 -221q-55 0 -92 41t-37 104q0 137 154 311t342 288t303 114q70 0 69 -66q0 -55 -61 -161q12 -23 12 -39z" />
    <glyph glyph-name="colon" unicode=":" horiz-adv-x="278" 
d="M264 377q63 0 64 -41q0 -24 -37 -48t-76 -24q-45 0 -45 49q0 27 28 45t66 19zM125 98q35 0 67 -22t31 -49q1 -41 -83 -41t-85 53q0 59 70 59z" />
    <glyph glyph-name="semicolon" unicode=";" horiz-adv-x="497" 
d="M293 111q29 -1 49 -19q63 -58 -102 -246q-58 -70 -100 -70t-42 21q0 8 31 47q100 135 125 232q10 35 39 35zM387 324q66 0 66 -39q0 -27 -37 -51t-76 -23q-45 0 -45 49q1 28 27 46t65 18z" />
    <glyph glyph-name="less" unicode="&#x3c;" horiz-adv-x="612" 
d="M768 348q0 -74 -59 -74q-19 0 -191 35t-226 42t-80 25q-24 18 -24 65q0 48 32 71q32 22 207 68t222 61t60 14q41 0 41 -41t-58 -54q-58 -12 -138 -36t-122 -36q-56 -15 -65 -19q363 -63 389 -83q12 -9 12 -38z" />
    <glyph glyph-name="equal" unicode="=" horiz-adv-x="608" 
d="M743 532q23 0 23 -16q0 -33 -74 -65q-178 -72 -366 -72q-137 0 -138 63q0 23 13 42t52 6q38 -12 101 -13q219 0 363 49q24 6 26 6zM678 334q20 0 20 -24q0 -57 -178 -98q-98 -24 -188 -24q-147 0 -148 64q0 53 35 53q6 0 12 -4l11 -2q56 -16 150 -16q95 0 261 47l20 4h5z
" />
    <glyph glyph-name="greater" unicode="&#x3e;" horiz-adv-x="612" 
d="M205 614q0 41 41 41q14 0 62 -14q48 -15 222 -61t206 -68t32 -71q0 -48 -25 -65q-25 -18 -105 -30t-224 -42t-166 -30q-59 0 -60 74q0 31 14 40q32 22 388 81q-205 66 -328 92q-57 12 -57 53z" />
    <glyph glyph-name="question" unicode="?" horiz-adv-x="497" 
d="M297 100q35 0 67 -22t31 -47q-1 -41 -85 -41t-85 51q0 59 72 59zM293 544q0 54 59 132t216 216t224 230t66 174q0 58 -82 58t-176 -71t-123 -147t-63 -75q-27 0 -27 49q0 110 130 220t261 110q80 0 127 -39t47 -105q0 -197 -370 -528q-195 -174 -195 -233q0 -29 70 -29
q23 0 57 8l29 4q25 0 25 -24t-39 -53q-37 -27 -87 -27t-100 38t-49 92z" />
    <glyph glyph-name="at" unicode="@" horiz-adv-x="1253" 
d="M991 788q-47 0 -136 -114t-89 -174q0 -8 12 -8t66 53q96 94 137 207q7 20 25 22q-2 14 -15 14zM1063 717q1 -7 -25 -75t-26 -132q0 -57 92 -57q123 -1 199 75t75 197q0 161 -118 269t-314 108t-344 -146t-147 -358q0 -291 258 -408q147 -66 303 -65q88 -1 137 17t65 18
t30 -16q13 -16 14 -40q0 -74 -238 -73q-315 0 -497 151q-181 152 -181 412t179 438t438 178q223 0 371 -139t149 -346q-1 -154 -103 -252t-246 -98t-188 63q-18 27 -18 88q-104 -121 -166 -120q-37 0 -61 26q-23 26 -23 80q0 53 74 162q141 195 241 194q35 0 60 -24t25 -60
q0 -35 -17 -55q2 -4 2 -12z" />
    <glyph glyph-name="A" unicode="A" horiz-adv-x="1019" 
d="M864 682q49 205 146 530q-180 -229 -432 -598q177 39 286 68zM885 -72q0 -29 -27 -28q-68 0 -67 270q0 162 55 430q-143 -43 -340 -92q-279 -418 -303 -496q-8 -20 -31 -20q-24 0 -50 24t-26 46q0 24 33 67q0 2 12 17t63 96q52 81 158 235l-114 -14q-39 -4 -47 -4
q-68 0 -70 73q0 27 21 27h8q40 -4 66 -4t167 25l49 8q214 295 404 552t190 275q10 23 16 28t28 5t58 -30t36 -51t-24 -89t-74 -248q-50 -182 -57 -208t-11 -43t-7 -21l-8 -41l62 18q68 21 82 21t14 -17q0 -35 -80 -63l-98 -35q-92 -426 -92 -618v-29l4 -57v-9z" />
    <glyph glyph-name="B" unicode="B" horiz-adv-x="1232" 
d="M846 864q0 26 10 34t74 28t168 88t159 127q88 90 89 164q0 90 -175 90q-78 0 -213 -37q8 -51 -278 -737q-96 -219 -134 -323t-56 -134q-18 -31 -38 -31q-22 1 -42 21t-20 40t209 524q210 505 237 589q-111 -53 -188 -109t-77 -82q0 -14 29 -26t29 -23q1 -25 -49 -25
t-80 22t-29 54q0 66 102 146t285 155q-4 16 -4 33q0 41 35 41t57 -41q128 43 240 43t186 -51t74 -139q0 -195 -326 -404q219 -53 219 -254q0 -268 -327 -477q-288 -178 -564 -178t-276 127q0 29 23 28q8 0 38 -16q76 -45 216 -45q141 0 301 62t284 169q190 162 191 330
q0 76 -48 122t-130 46l-142 -22q-25 1 -42 23t-17 48z" />
    <glyph glyph-name="C" unicode="C" horiz-adv-x="1021" 
d="M311 262q0 -170 103 -170q110 0 282 110t297 257q23 29 37 28q20 0 21 -28q0 -84 -162 -236q-111 -102 -235 -167q-124 -64 -228 -64t-172 80q-66 80 -66 221q0 188 162 493q125 238 324 454t342 198q66 -8 104 -56t39 -109q0 -62 -20 -99t-48 -37t-28 30l8 64
q0 43 -21 71q-22 28 -53 27q-82 0 -220 -142t-263 -353q-203 -336 -203 -572z" />
    <glyph glyph-name="D" unicode="D" horiz-adv-x="1302" 
d="M444 928h9q9 2 25 2t16 -13t-24 -25t-62 -13q-38 1 -74 23q-35 22 -35 56q0 72 78 178t190 189q225 166 475 166q27 0 93 -6q4 16 4 18q9 37 31 37t40 -24t21 -56q121 -45 182 -102q158 -139 158 -343t-126 -408t-349 -365q-342 -248 -662 -248q-127 0 -214 49t-87 123
q0 41 21 41q8 0 14 -6t33 -45q45 -66 208 -66t344 76t351 211q379 303 379 641q0 90 -39 169t-109 128q-37 27 -123 55q-121 -287 -227 -506q-254 -532 -266 -624q-6 -35 -29 -35q-37 0 -37 59q0 141 305 801q80 172 83 183t20 51l26 65q8 15 11 27q-20 4 -45 4
q-217 0 -428 -152q-92 -67 -164 -153t-72 -127q0 -35 55 -35z" />
    <glyph glyph-name="E" unicode="E" horiz-adv-x="970" 
d="M420 1208q-20 0 -39 22t-19 48t12 33t87 39q76 32 209 63v4l2 6q7 66 40 66q34 0 50 -59q128 16 232 16t216 -28t113 -60q0 -23 -25 -23q-8 1 -70 13t-194 12t-286 -27q-29 -131 -193 -481q137 18 221 18t150 -22t65 -55q0 -23 -28 -23q-4 0 -40 7q-35 7 -133 7t-286 -36
q-6 -10 -41 -83t-150 -301q-116 -229 -120 -255q205 63 369 63t279 -35q116 -35 115 -76q0 -14 -22 -14q-6 -1 -73 13t-183 14q-256 0 -485 -76q-20 -4 -29 -4q-35 0 -66 34q-30 34 -30 68t36 112q37 79 258 521q-37 27 -36 59q0 35 47 35q4 2 10 2l12 2l19 2
q158 319 219 476q-123 -35 -158 -66t-55 -31z" />
    <glyph glyph-name="F" unicode="F" horiz-adv-x="974" 
d="M1587 1511q39 0 65 -14t25 -35q0 -20 -45 -22q-221 -13 -436 -58v-4q0 -4 -4 -12v-4l-240 -553l305 109q16 0 17 -15q0 -31 -53 -59q-113 -59 -310 -133q-119 -276 -233 -576q-26 -67 -58 -105t-62 -38t-30 33q0 23 103 282l143 357q-172 -56 -230 -56t-88 18
q-32 18 -32 40t9 35t20 14l65 -15q78 0 299 66q84 195 248 588q-175 -45 -397 -135q-222 -91 -254 -91t-56 20q-25 20 -24 50q0 18 52 38t259 87q612 188 942 188z" />
    <glyph glyph-name="G" unicode="G" horiz-adv-x="993" 
d="M1006 1327q-84 0 -228 -145t-274 -367q-100 -164 -165 -333q-65 -170 -65 -240t23 -101t59 -30q66 -1 222 117t265 241t109 151t-15 28t-125 -36t-191 -37q-23 1 -38 17t-16 43q0 63 49 63h23q76 0 350 60q25 4 47 4t46 -28t24 -60t-28 -79q-28 -48 -100 -219t-73 -333
q-1 -53 9 -85t10 -42q0 -29 -23 -29q-39 0 -66 68q-28 68 -28 162t39 229q-344 -352 -504 -352q-74 0 -122 68t-48 169q0 163 127 433t303 483q240 289 410 289q66 0 108 -50t43 -111q0 -62 -19 -100t-47 -38t-28 37l6 55q0 39 -20 69t-49 29z" />
    <glyph glyph-name="H" unicode="H" horiz-adv-x="944" 
d="M678 -137q-16 0 -28 34q-11 34 -11 85q0 167 186 593l70 158q-156 -12 -434 -92q-133 -307 -170 -404t-55 -172t-34 -75q-17 0 -29 24q-11 25 -11 60q0 145 157 524q-145 -47 -180 -47t-53 20t-18 52q0 45 43 45h51q37 4 207 43q139 311 196 461t80 264q6 45 36 45
q29 0 51 -28t22 -79q0 -50 -100 -284t-117 -279q-25 -51 -31 -66q246 59 424 66q59 133 108 269q48 136 56 186t17 65t32 15t41 -25t18 -57q0 -99 -155 -461q8 0 10 -1t59 -11t58 -37q0 -23 -28 -23t-40 2l-55 4h-31l-72 -159q-133 -307 -175 -423t-58 -204t-37 -88z" />
    <glyph glyph-name="I" unicode="I" horiz-adv-x="331" 
d="M665 1493q26 0 45 -27q19 -28 19 -76q0 -96 -268 -710q-143 -330 -189 -446t-48 -154t-26 -64q-24 -25 -46 -24q-41 0 -41 53q0 123 245 678q146 327 202 477t73 248q8 45 34 45z" />
    <glyph glyph-name="J" unicode="J" horiz-adv-x="759" 
d="M571 528q13 0 13 -12t-21 -35q-227 -269 -350 -541t-123 -466q0 -125 43 -125q23 0 61 40t112 168q76 129 106 195t475 1204q109 274 108 375q-1 68 -107 68t-226 -17q-47 -6 -48 -26q0 -27 24 -46q24 -20 24 -34t-37 -14t-111 34q-82 41 -82 89t98 63q211 37 424 37
t213 -49q0 -12 -20 -60q-37 -74 -60 -155q-113 -375 -161 -510t-207 -515q-160 -380 -195 -450q-92 -190 -190 -330t-168 -180q-18 -12 -49 -12q-59 0 -94 76t-35 216t89 352q125 298 367 555q80 85 105 99q18 6 22 6z" />
    <glyph glyph-name="K" unicode="K" horiz-adv-x="954" 
d="M1059 -102q0 -29 -40 -29t-89 25t-84 59q-199 193 -228 612q-162 -176 -389 -475q-55 -72 -67 -85t-31 -13t-37 24t-18 48t95 266t201 486t146 349q39 104 60 217q6 43 40 43q23 0 40 -19t18 -46q0 -72 -43 -196t-123 -313t-217 -513q256 305 412 470t301 284
q250 205 329 204q21 0 37 -10q45 -27 -22 -63q-225 -109 -617 -531q4 -287 84 -501t201 -257q41 -18 41 -36z" />
    <glyph glyph-name="L" unicode="L" horiz-adv-x="796" 
d="M489 137q129 0 215 -31t87 -81q0 -18 -23 -19q-4 0 -23 6q-80 27 -219 27t-303 -41q-16 -4 -26 -4q-39 0 -73 34t-34 66t27 83q27 52 409 1023q49 147 54 244q2 41 34 41t50 -25q20 -25 20 -65q0 -104 -116 -433t-224 -575t-119 -281q135 31 264 31z" />
    <glyph glyph-name="M" unicode="M" horiz-adv-x="1277" 
d="M115 -8q-27 0 -49 18t-21 41q0 93 387 703t416 749q6 23 35 23t59 -32t29 -75q0 -43 -82 -201t-173 -425q-91 -266 -91 -355q0 -41 26 -41q37 0 116 106q79 107 237 363t212 368t70 132t43 20t51 -24t23 -50q1 -26 -17 -79t-90 -388t-86 -417q-12 -82 -12 -212t43 -269
q6 -18 6 -25q0 -25 -20 -24q-51 0 -95 136t-45 298q0 279 146 760q-129 -256 -255 -460t-203 -278t-157 -73q-116 1 -116 151t145 496q-19 -35 -169 -280q-150 -246 -231 -396t-97 -227q-8 -33 -35 -33z" />
    <glyph glyph-name="N" unicode="N" horiz-adv-x="983" 
d="M1319 1520q25 0 43 -22t18 -56t-45 -155q-45 -120 -221 -544q-254 -606 -262 -761q-6 -48 -43 -48t-61 29t-58 135q-35 106 -52 314q-17 209 -22 704q-240 -606 -298 -786t-58 -252v-39q0 -47 -39 -47q-33 0 -52 30t-19 76q0 172 150 540t220 540q70 174 81 196t39 21
q28 0 58 -30t29 -69l-8 -286q0 -304 13 -492q14 -188 22 -235t30 -105q56 194 264 692t230 613q8 37 41 37z" />
    <glyph glyph-name="O" unicode="O" horiz-adv-x="808" 
d="M332 201q0 -45 18 -75t47 -30q86 0 194 98t202 263q174 301 174 618q0 131 -34 220t-80 89t-81 -96t-35 -194t27 -201q4 -20 4 -23q0 -23 -23 -22q-81 0 -104 207q-147 -270 -215 -463q-94 -254 -94 -391zM846 1493q98 0 160 -117t61 -305q0 -188 -57 -384
q-56 -195 -158 -351t-226 -249t-229 -93q-55 0 -100 31q-92 57 -92 194q0 193 141 508q59 133 157 304t140 214q2 4 4 5t4 3q51 240 195 240z" />
    <glyph glyph-name="P" unicode="P" horiz-adv-x="813" 
d="M1188 1239q0 89 -65 149t-160 60q-16 0 -70 -4q-45 -135 -80 -218t-107 -232t-85 -181l-33 -65q129 20 227 66t203 138q170 145 170 287zM92 820q0 -58 141 -58q15 0 15 -15t-31 -33t-82 -18t-92 38t-41 97q0 95 115 235t293 263q96 68 172 104t198 74q2 51 45 52
q31 0 49 -33q49 6 87 6q141 0 236 -91t95 -219t-106 -254t-288 -218t-292 -93q-31 0 -55 11q-236 -496 -250 -645q-2 -31 -28 -31q-27 0 -49 30t-21 62q0 127 366 891q172 360 199 438q-119 -45 -201 -93q-81 -48 -197 -141t-197 -197t-81 -162z" />
    <glyph glyph-name="Q" unicode="Q" horiz-adv-x="897" 
d="M1051 1100q0 131 -62 131q-31 1 -84 -61t-96 -154q-11 -29 -29 -29t-18 49t53 146q92 166 184 166q63 0 99 -70t35 -197q0 -264 -127 -565q-78 -180 -218 -344q72 -170 146 -219q27 -19 27 -35t-29 -16q-111 0 -211 202q-131 -110 -232 -110t-168 91t-67 253t99 410
t265 485q160 231 215 231q27 0 55 -16t27 -31q0 -6 -145 -162q-66 -67 -156 -229t-170 -366t-79 -382q0 -177 120 -178q82 0 193 103q-20 57 -50 153t-44 119q-28 47 2 70q16 12 44 12t41 -13t21 -48t13 -58l24 -90q10 -35 21 -65q139 186 220 405t81 412z" />
    <glyph glyph-name="R" unicode="R" horiz-adv-x="968" 
d="M866 1300h-45q-117 -291 -270 -647q236 33 418 156q213 143 213 281q0 90 -89 150q-90 60 -227 60zM198 -8q-38 0 -38 44t70 172t372 849q49 123 86 221q-294 -88 -473 -302q-47 -56 -47 -79q0 -29 41 -39q20 -6 20 -20q1 -27 -43 -27t-81 33q-36 33 -35 78q0 82 170 217
q104 82 210 136t269 107q16 48 52 48t52 -37l51 2q182 0 296 -84t114 -219q0 -201 -248 -365q-143 -94 -364 -156q49 -223 144 -412t183 -237q41 -26 41 -48t-43 -22t-106 48q-63 47 -113 114q-137 193 -246 596q-26 -63 -75 -172l-105 -233q-53 -125 -84 -169
q-32 -44 -70 -44z" />
    <glyph glyph-name="S" unicode="S" horiz-adv-x="817" 
d="M930 1212v13q4 25 4 47q0 127 -67 127t-66 -309q1 -126 25 -444t24 -376q0 -131 -67 -207t-183 -75q-184 0 -311 133t-127 325q0 109 101 188t155 79t53 -33q0 -20 -35 -29q-72 -17 -124 -81t-52 -132q0 -137 104 -242t240 -106q137 0 137 182q-1 118 -31 436t-30 449
q0 375 168 375q80 0 133 -66t53 -163q0 -51 -22 -85t-52 -34t-30 28z" />
    <glyph glyph-name="T" unicode="T" horiz-adv-x="1107" 
d="M274 1159q0 23 58 47q179 72 780 226q311 76 530 75q50 0 88 -12t37 -29q0 -20 -53 -24q-305 -23 -616 -99q24 -31 24 -47t-8 -32t-40 -94q-32 -76 -56 -130q-303 -672 -361 -954q-16 -94 -55 -94q-20 0 -36 20q-15 20 -15 60t11 86t45 154q35 106 139 354t178 432
t100 225q-436 -127 -461 -176q-27 -29 -39 -36t-70 -28t-93 -21q-34 0 -58 34q-29 35 -29 63z" />
    <glyph glyph-name="U" unicode="U" 
d="M291 -8q-59 0 -94 51t-35 144t52 243t217 511t181 454q6 29 38 29t62 -24t27 -48q-6 -104 -139 -320q-28 -50 -126 -268q-184 -413 -185 -582q0 -66 37 -65q78 0 240 183t300 429q49 88 156 308q106 221 133 289t38 84t36 15q25 1 47 -21t22 -48q0 -54 -78 -186
q-148 -254 -272 -588q-78 -210 -78 -356t52 -234q10 -16 10 -27q0 -23 -27 -22q-69 0 -111 85q-42 84 -42 188t20 208q-313 -432 -481 -432z" />
    <glyph glyph-name="V" unicode="V" horiz-adv-x="714" 
d="M506 1417q84 0 84 -180q0 -276 -172 -942q354 649 667 997q121 134 186 186t111 52t48 -25q0 -16 -35 -41q-133 -78 -379 -412t-463 -730q-164 -310 -176 -320t-36 -10q-23 0 -61 36t-38 64t31 128t115 480t85 572l-2 102q0 43 35 43z" />
    <glyph glyph-name="W" unicode="W" horiz-adv-x="1230" 
d="M274 -6q-106 0 -106 151q0 109 58 305t159 416q205 455 301 586q16 27 42 27t48 -23t23 -44q0 -21 -11 -34q-250 -328 -434 -936q-57 -197 -57 -257t22 -60q27 1 107 109t203 329t170 395q16 60 45 60q28 0 50 -25t22 -43t-37 -153q-66 -244 -66 -487t74 -242
q67 0 139 135t119 341t47 391t-55 304q-19 37 18 74t61 37t33 -21q51 -115 51 -364q0 -438 -176 -779q-117 -217 -243 -217q-92 0 -143 92q-50 92 -50 261q0 57 14 174q-126 -240 -238 -371t-190 -131z" />
    <glyph glyph-name="X" unicode="X" horiz-adv-x="739" 
d="M733 -70q0 -20 -20 -20q-59 0 -95 123q-63 236 -90 538q-301 -389 -338 -553q-6 -28 -36 -28t-59 24q-28 24 -27 45q0 49 133 250t311 420q-12 283 -28 439t-17 227q0 27 34 27t68 -46q29 -32 32 -114q11 -293 20 -408q265 302 461 456t251 154q25 0 25 -11t-11 -21
t-81 -66q-279 -230 -635 -664q35 -449 84 -679q18 -82 18 -93z" />
    <glyph glyph-name="Y" unicode="Y" horiz-adv-x="542" 
d="M154 -29q0 195 233 641q-53 92 -72 164q-18 72 -18 206q1 134 21 274t20 176v12q0 26 31 26t65 -24t33 -42q1 -18 -29 -198t-30 -311t22 -207q186 322 406 574q104 120 147 160t67 40t46 -24q39 -41 8 -74q-248 -200 -529 -654t-356 -780q-6 -26 -21 -26t-30 20
q-14 20 -14 47z" />
    <glyph glyph-name="Z" unicode="Z" horiz-adv-x="894" 
d="M542 160q142 0 242 -34t101 -79q0 -25 -35 -24q-12 0 -37 8q-93 31 -233 31t-304 -54q-45 -14 -55 -14q-37 0 -74 43t-37 92t70 135t316 340q629 653 628 733q0 25 -32 25q-10 0 -64 -19q-190 -63 -321 -63q-66 0 -111 30t-45 70t37 41q6 0 42 -10t87 -10t191 28t218 27
q109 0 109 -90q0 -104 -186 -328q-53 -66 -195 -218t-231 -242q-370 -371 -390 -465q167 47 309 47z" />
    <glyph glyph-name="bracketleft" unicode="[" horiz-adv-x="749" 
d="M448 135q98 0 175 -32q78 -32 77 -78q0 -18 -22 -19q-4 0 -23 6q-74 27 -173 27t-267 -41q-16 -4 -27 -4q-38 0 -72 35t-34 65t29 88l89 206q52 120 120 266t160 428q93 282 91 362q3 49 55 49q52 1 137 -23t189 -24t154 15q49 15 53 16q23 0 23 -19q0 -47 -77 -79
q-77 -31 -171 -31t-260 30q-12 -238 -410 -1159q-35 -78 -47 -113q133 29 231 29z" />
    <glyph glyph-name="backslash" unicode="\" horiz-adv-x="1212" 
d="M1206 -16q0 -33 -29 -33q-15 0 -34 33q-115 214 -278 420t-632 731q-186 203 -223 251t-37 79q0 33 17 61t33 28t26 -18q71 -116 347 -432t464 -551q340 -432 346 -569z" />
    <glyph glyph-name="bracketright" unicode="]" horiz-adv-x="698" 
d="M559 1460q0 18 23 19q4 0 22 -6q74 -27 176 -27t264 43q16 4 27 4q39 0 73 -35t34 -66t-18 -63t-39 -87q-20 -55 -134 -306q-113 -250 -207 -532t-92 -361q-2 -49 -54 -49t-138 24t-194 23q-109 0 -179 -27q-18 -6 -23 -6q-23 0 -22 19q0 47 77 79t173 33q96 0 258 -33
q12 240 409 1160q35 77 47 112q-259 -56 -405 3q-78 32 -78 79z" />
    <glyph glyph-name="asciicircum" unicode="^" horiz-adv-x="471" 
d="M768 922q-66 0 -68 90q0 32 -9 118t-17 207q-16 -27 -32 -69t-130 -310q-25 -57 -55 -57q-16 0 -29 13q-12 13 -12 34q0 20 14 52t150 370q39 92 61 120t61 23h15q57 -2 71 -43t22 -187q8 -147 17 -209t9 -87t-18 -45t-50 -20z" />
    <glyph glyph-name="grave" unicode="`" horiz-adv-x="411" 
d="M528 1223q0 21 20 37t44 16q25 0 37 -12t20 -45q29 -66 46 -92q17 -25 54 -71t37 -56t-12 -18q-12 -9 -29 -9q-45 0 -106 63q-111 127 -111 187z" />
    <glyph glyph-name="a" unicode="a" horiz-adv-x="759" 
d="M760 708q0 18 -16 33q-16 16 -42 17q-108 0 -292 -240t-185 -364q0 -43 41 -43q30 0 94 51q64 52 147 148t144 204q23 35 58 133q8 27 30 27q11 0 19 -4v18q2 2 2 20zM244 -6q-63 0 -102 45q-38 45 -38 121q0 123 136 310q136 188 259 290q124 102 210 102q59 0 100 -41
t41 -109t-39 -89q8 -19 8 -31t-22 -70q-82 -213 -82 -368q0 -60 19 -98t20 -52q0 -35 -43 -35q-43 -1 -76 63t-33 139t12 128q-240 -305 -370 -305z" />
    <glyph glyph-name="b" unicode="b" horiz-adv-x="548" 
d="M570 1309q20 0 39 -26q38 -52 1 -103q-145 -208 -278 -528t-133 -462q0 -92 59 -92q41 0 107 54t129 137q147 199 147 356q0 47 -25 47q-35 0 -86 -83t-65 -158q-3 -29 -23 -29t-40 24q-19 25 -19 54q0 74 78 186t160 113q53 0 86 -40t32 -108q0 -117 -85 -275
q-86 -158 -204 -270q-118 -113 -206 -112q-66 0 -104 55t-38 150q0 185 119 463t277 552q33 57 32 62q20 33 40 33z" />
    <glyph glyph-name="c" unicode="c" horiz-adv-x="587" 
d="M666 735q-72 0 -217 -176q-203 -252 -203 -391q0 -36 22 -58t58 -22q113 0 247 111q17 16 33 16t16 -31t-55 -84q-123 -113 -245 -112q-78 0 -135 55q-56 55 -56 144t90 240q89 151 229 279t224 128t84 -70q0 -53 -31 -53q-12 0 -25 12t-36 12z" />
    <glyph glyph-name="d" unicode="d" horiz-adv-x="792" 
d="M225 154q0 -41 25 -41q47 0 160 135t260 364q-8 64 -20 84t-41 20q-30 0 -90 -53q-60 -54 -124 -139q-170 -227 -170 -370zM215 -6q-49 0 -80 43t-31 119t60 202q59 127 158 252q182 229 305 230q37 0 65 -34t43 -91q141 307 207 437t82 182t26 66q10 13 32 13t42 -19
t20 -47q0 -27 -66 -133t-164 -343t-134 -394q-37 -157 -37 -265t23 -169q4 -12 4 -18q0 -29 -39 -29t-69 54t-29 144q0 90 31 246q-142 -214 -260 -330t-189 -116z" />
    <glyph glyph-name="e" unicode="e" horiz-adv-x="606" 
d="M378 389q83 0 182 122t99 178t-36 56q-41 0 -136 -105q-94 -106 -180 -245q31 -6 71 -6zM227 178q0 -88 84 -88q129 0 279 141q20 20 35 21q20 0 20 -36t-74 -99q-135 -123 -272 -123q-78 0 -133 56t-55 147t97 250t228 275q130 116 194 118q64 0 96 -33t32 -90
q0 -111 -123 -256q-135 -168 -293 -168q-31 0 -82 10q-33 -68 -33 -125z" />
    <glyph glyph-name="f" unicode="f" horiz-adv-x="329" 
d="M313 770q-92 0 -92 64q0 51 41 51l49 -2q20 -2 78 -2h17q158 343 263 493t187 150q41 0 66 -38q24 -38 24 -102t-36 -142q-36 -79 -78 -115q-42 -35 -55 -35t-13 12t49 92t49 156t-31 75q-59 0 -307 -538q128 13 186 27t76 14t19 -17q0 -23 -93 -57t-233 -65
q-180 -410 -302 -720t-122 -356q-12 -63 -39 -63q-36 0 -36 78t40 198q40 121 336 842h-43z" />
    <glyph glyph-name="g" unicode="g" horiz-adv-x="649" 
d="M680 698q0 22 -16 23q-27 0 -107 -74t-168 -178q-199 -240 -199 -344q0 -29 19 -29q51 0 174 122t281 331q-45 16 -46 51q0 14 31 45t31 53zM735 844q76 0 76 -90q0 -50 -59 -140q61 -10 61 -32q0 -6 -14 -26q-13 -20 -67 -166q-54 -144 -255 -689q-47 -127 -131 -275
t-168 -249q-129 -160 -246 -160q-55 0 -88 43t-32 119q0 238 256 516q109 121 159 121q25 0 25 -14t-69 -91q-69 -76 -156 -211q-117 -193 -117 -321q0 -76 45 -76t117 81q72 82 162 244t172 361q81 199 194 539q-154 -184 -246 -259t-166 -75q-106 0 -106 114t140 308
t282 311t231 117z" />
    <glyph glyph-name="h" unicode="h" horiz-adv-x="776" 
d="M195 -6q-37 0 -66 33t-29 73q0 211 461 979q78 125 107 205q10 35 41 35t55 -22q24 -23 24 -49t-59 -130t-152 -234t-219 -379t-127 -302q0 -29 21 -29q14 0 26 18t343 420q35 43 135 150q34 29 58 29t46 -29t21 -60q0 -31 -19 -75q-121 -317 -121 -467q0 -86 56 -154
q20 -23 20 -37q0 -33 -53 -33t-91 61q-38 60 -38 186t82 392q-98 -96 -248 -294q-217 -287 -274 -287z" />
    <glyph glyph-name="i" unicode="i" horiz-adv-x="317" 
d="M630 1157q28 -1 58 -25t29 -55q0 -53 -55 -53q-37 0 -65 23t-28 49t17 44q16 17 44 17zM494 772q0 -24 -35 -78q-35 -55 -105 -205q-137 -294 -137 -407l6 -64q-1 -24 -31 -24t-53 34t-23 104t63 238q62 168 132 290t66 131q14 45 39 49q26 2 52 -21t26 -47z" />
    <glyph glyph-name="j" unicode="j" horiz-adv-x="501" 
d="M635 1114q1 30 35 60t60 30t40 -9t14 -19t-28 -52q-28 -41 -40 -55t-32 -14t-35 15q-14 15 -14 44zM537 821q29 0 55 -20t26 -47q0 -56 -74 -270t-205 -498q-130 -284 -167 -387q-162 -397 -373 -555q-20 -18 -70 -18t-89 65t-39 173t61 238q60 130 164 246
q104 115 145 115q19 0 19 -9t-60 -85q-221 -281 -221 -535q0 -115 41 -115q61 0 230 322q84 162 210 461q127 300 198 498t118 401q2 20 31 20z" />
    <glyph glyph-name="k" unicode="k" horiz-adv-x="774" 
d="M895 834q27 0 27 -33q0 -21 -14 -37t-60 -45q-121 -74 -273 -221q1 -136 51 -266t124 -179q35 -25 34 -41q0 -29 -47 -28q-79 0 -163 110t-107 291q-172 -188 -272 -358q-18 -33 -43 -33t-46 18q-20 18 -20 32t202 542t238 609q37 81 41 93q10 35 35 35q26 0 48 -26
t22 -45t-46 -111t-333 -805q161 190 357 344t245 154z" />
    <glyph glyph-name="l" unicode="l" horiz-adv-x="294" 
d="M624 1405q22 0 48 -25t24 -45q0 -21 -48 -109t-152 -330t-177 -438q-73 -198 -73 -306q0 -57 17 -90t17 -41q0 -7 -10 -17q-12 -10 -28 -10q-43 0 -71 48t-28 146t69 294t206 497t151 353t23 63q10 10 32 10z" />
    <glyph glyph-name="m" unicode="m" horiz-adv-x="1003" 
d="M279 354q421 471 465 471q22 1 41 -27q38 -55 -1 -140q-20 -46 -88 -188t-73 -171q301 315 381 426q84 106 108 106q24 1 45 -29t21 -56t-48 -116t-114 -263q-43 -123 -43 -211t45 -150q16 -23 16 -33q0 -25 -37 -25t-85 48t-50 152q0 104 18 165q17 61 89 236
q-219 -231 -391 -473q-44 -58 -54 -68t-34 -10t-47 26q-24 26 -23 54q0 52 110 290t121 265q-434 -446 -483 -617q-8 -24 -32 -24t-52 26t-29 46q0 20 47 131q228 519 242 581t39 62t49 -32t25 -59q0 -27 -41 -106q-70 -125 -137 -287z" />
    <glyph glyph-name="n" unicode="n" horiz-adv-x="745" 
d="M122 -14q-22 0 -44 30t-23 73q0 44 217 474q61 121 74 150q12 29 17 75t39 48q34 0 60 -28t26 -62t-93 -193q-92 -158 -127 -246q47 33 181 162q133 129 216 223t99 108t37 15q21 0 38 -30q17 -29 17 -61t-31 -110q-119 -285 -118 -464q0 -80 45 -142q16 -25 16 -33
q0 -25 -38 -25t-77 40q-55 53 -55 187t96 417q-8 -10 -28 -31t-31 -33l-80 -79q-347 -355 -373 -403t-32 -55t-28 -7z" />
    <glyph glyph-name="o" unicode="o" horiz-adv-x="573" 
d="M250 190q0 -98 59 -98q98 0 216 178t118 328q0 70 -18 110t-44 40t-37 -11t-30 -47q0 -23 -25 -43q-95 -74 -167 -217q-72 -142 -72 -240zM606 842q62 0 105 -60t43 -157q0 -178 -133 -383q-76 -117 -164 -183q-88 -65 -165 -65t-121 50t-44 142t53 211t128 205t136 105
q0 47 50 91t112 44z" />
    <glyph glyph-name="p" unicode="p" horiz-adv-x="626" 
d="M317 88q72 0 164 89t157 216t64 223q0 33 -9 59t-21 25q-35 0 -150 -118q-172 -183 -278 -402q14 -92 73 -92zM684 793q62 0 92 -41q31 -41 31 -107q0 -145 -79 -298t-201 -253t-236 -100q-80 0 -121 67q-70 -131 -159 -352t-115 -330q-6 -25 -23 -24q-18 0 -37 29
q-18 29 -18 57q0 90 186 524t232 553q45 119 77 246q6 49 31 49q25 1 42 -23t17 -53q1 -77 -67 -245q96 141 191 221t157 80z" />
    <glyph glyph-name="q" unicode="q" horiz-adv-x="673" 
d="M78 123q0 96 107 249q108 154 290 312t281 158q42 0 72 -28t30 -60t-12 -52t-29 -20q-10 0 -12 20q-3 20 -19 30q-16 11 -32 11q-45 0 -157 -93t-228 -226q-176 -199 -176 -289q0 -14 9 -23t21 -10q70 0 288 200t282 321q10 20 29 20t37 -22q17 -23 17 -49t-145 -287
q-163 -301 -281 -605t-114 -415q-2 -41 -29 -41q-51 0 -51 92q0 287 362 983q-186 -174 -278 -240q-92 -65 -144 -65t-84 38q-34 38 -34 91z" />
    <glyph glyph-name="r" unicode="r" horiz-adv-x="507" 
d="M782 850q18 0 34 -13t15 -31q0 -18 -22 -24q-147 -29 -327 -237q-179 -209 -298 -494q-25 -57 -61 -57q-20 0 -38 17q-17 17 -17 33t47 118q221 498 204 635q0 29 17 28q20 0 43 -34q50 -65 12 -203q133 146 220 204t171 58z" />
    <glyph glyph-name="s" unicode="s" horiz-adv-x="456" 
d="M176 246q0 -60 53 -104t131 -44q43 0 43 29q0 4 -10 47q-53 182 -53 335t62 277t143 125q43 1 71 -33t27 -77q0 -43 -17 -68t-40 -24q-12 0 -13 26q0 57 -26 58q-33 -1 -62 -103q-65 -228 13 -530q16 -63 16 -93t-27 -52t-73 -21q-133 0 -232 65q-98 66 -98 154
q0 47 25 85t53 38t26 -25q-12 -60 -12 -65z" />
    <glyph glyph-name="t" unicode="t" horiz-adv-x="305" 
d="M183 -6q-70 0 -70 148q0 78 43 201q43 122 176 402q-51 -6 -94 -6q-42 -1 -62 9t-20 36t15 46q15 19 36 18l72 -6q39 0 104 8q68 144 125 252q58 108 74 164t45 57q29 0 58 -32t11 -66q-77 -134 -190 -357l33 6q88 18 136 34t60 16t13 -13q0 -29 -82 -69t-209 -74
q-256 -541 -256 -682q0 -20 7 -36t7 -27q0 -29 -32 -29z" />
    <glyph glyph-name="u" unicode="u" horiz-adv-x="815" 
d="M129 115q0 121 84 336q31 76 103 220q74 143 90 161t38 18t48 -21q25 -21 6 -55q-106 -182 -182 -359t-74 -235q0 -58 22 -57q41 0 212 204q170 203 250 337t94 152q33 42 79 -7q25 -25 25 -48t-54 -111t-96 -219q-43 -131 -43 -229t64 -163q14 -12 14 -27q0 -33 -37 -32
q-25 0 -43 16q-104 82 -104 250q-1 64 22 162q-162 -205 -213 -263q-131 -152 -213 -151q-92 0 -92 121z" />
    <glyph glyph-name="v" unicode="v" horiz-adv-x="548" 
d="M909 883q39 0 39 -23q0 -8 -15 -21t-106 -83q-121 -118 -229 -266t-291 -445q-18 -35 -27 -43t-34 -8q-26 0 -54 33t-28 63t29 148q53 250 53 467q0 53 -6 79t-7 37q0 37 48 37q82 0 81 -125q0 -180 -51 -489q178 291 361 469q170 170 237 170z" />
    <glyph glyph-name="w" unicode="w" horiz-adv-x="894" 
d="M211 -6q-104 0 -105 129q0 172 218 528q74 119 100 155q27 36 44 36q18 0 36 -23t17 -41t-33 -59t-100 -167q-168 -313 -167 -421q0 -29 23 -29q35 0 126 96t157 201q67 104 81 176q8 41 39 41t63 -28t32 -50t-11 -53q-96 -260 -96 -350q0 -51 37 -51q68 0 146 92
t129 230q52 138 52 260q0 40 -5 62q-4 22 -22 74t-18 63t20 23t54 13q33 0 51 -18q31 -27 31 -156q0 -261 -145 -495t-310 -234q-123 0 -123 168q1 33 13 129q-195 -301 -334 -301z" />
    <glyph glyph-name="x" unicode="x" horiz-adv-x="647" 
d="M462 838q28 0 27 -23q-1 -8 -15 -87t-13 -175q182 160 373 276q70 41 100 41t31 -18q0 -8 -71 -57t-214 -173t-217 -202q23 -287 133 -402q12 -12 12 -26t-20 -28t-47 -15q-47 0 -84 69q-70 125 -92 297q-178 -190 -211 -290q-12 -31 -40 -31t-46 17t-18 53t84 148
q85 112 222 243v41q2 78 21 176q18 98 39 131q18 35 46 35z" />
    <glyph glyph-name="y" unicode="y" horiz-adv-x="729" 
d="M186 -6q-46 0 -72 33t-26 99t50 164q50 96 186 288t157 247q8 23 30 23t41 -22t19 -46q-1 -24 -39 -79q-38 -54 -150 -232q-112 -177 -140 -233t-29 -90q0 -34 25 -33q28 1 204 153t312 301q41 47 139 176q8 15 24 15q15 0 33 -29q33 -55 6 -109q-12 -26 -67 -122
q-28 -37 -150 -334q-123 -296 -287 -604t-296 -439q-58 -59 -94 -79t-80 -20t-72 37q-29 38 -29 97q0 137 135 344q84 123 157 202t106 79q18 0 18 -9q1 -10 -69 -96t-160 -266t-91 -252q0 -35 31 -35q94 0 338 465q212 398 294 628q40 112 58 157q-397 -379 -512 -379z" />
    <glyph glyph-name="z" unicode="z" horiz-adv-x="612" 
d="M402 131q88 0 172 -36t83 -83q0 -29 -26 -28q-8 0 -27 10q-70 39 -198 39q-128 1 -197 -19q-67 -20 -91 -20t-48 29t-25 57q0 28 30 58q29 32 185 164t289 269t133 177q0 12 -13 12t-91 -35t-132 -35t-76 22t-22 54q0 49 41 49q1 0 27 -5t54 -5q28 -1 116 23t120 24
t57 -27q24 -27 23 -69q0 -82 -93 -186t-283 -260q-190 -158 -217 -193l-11 -11q132 25 220 25z" />
    <glyph glyph-name="braceleft" unicode="{" horiz-adv-x="878" 
d="M596 1290v-293q0 -75 -5 -103t-30 -66t-106 -78q77 -44 109 -104t32 -154v-293q0 -67 32 -95t94 -28t89 8q28 8 45 8q16 0 16 -20q-1 -38 -109 -66q-50 -12 -79 -12q-102 0 -161 54q-58 54 -58 151v268q0 125 -26 169t-113 71q-18 4 -31 16q-12 12 -12 25q0 45 58 54
t101 60q12 18 17 41q4 23 6 119v268q0 205 242 205q75 1 123 -21t51 -53q0 -14 -23 -14l-65 10q-4 0 -111 -10q-86 -13 -86 -117z" />
    <glyph glyph-name="braceright" unicode="}" horiz-adv-x="591" 
d="M625 1290v-268l4 -78q-1 -57 31 -95t90 -47t57 -54q0 -18 -14 -28q-13 -10 -67 -24q-54 -16 -78 -66t-23 -163v-268q-1 -97 -59 -151t-160 -54q-29 0 -81 13q-108 27 -108 71q1 14 17 14t44 -8t64 -8q35 0 75 11q41 11 59 32t18 80v293q0 94 32 153q33 59 109 105
q-120 57 -136 145q-5 29 -5 102v293q0 109 -86 117l-111 10l-66 -10q-23 0 -22 14q2 31 51 53t123 21q242 0 242 -205z" />
    <glyph glyph-name="uni00A0" unicode="&#xa0;" horiz-adv-x="436" 
 />
    <glyph glyph-name="exclamdown" unicode="&#xa1;" horiz-adv-x="337" 
d="M555 1016q47 0 47 -41q0 -27 -34 -47t-82 -20t-50 38q0 26 36 48t83 22zM418 600q14 0 24 -12t11 -29q0 -223 -306 -745q-94 -160 -108 -205q-12 -35 -45 -35q-32 0 -54 19t-22 40t142 247t192 335l18 37q33 86 62 175t45 131t41 42z" />
    <glyph glyph-name="cent" unicode="&#xa2;" horiz-adv-x="901" 
d="M287 276q0 -112 100 -112q106 0 271 66t294 159q25 18 37 19q18 0 19 -19q0 -49 -160 -145q-238 -141 -451 -142q-53 0 -102 17q-4 -5 -7 -11q-4 -6 -34 -46t-46 -74t-44 -33q-10 0 -21 10q-10 11 -10 25t31 71t61 95q-59 55 -59 129q0 73 68 185t197 236
q128 124 278 205q150 80 264 80q18 0 28 -4q111 111 144 151t46 40t29 -23t17 -49t-17 -48t-122 -120q18 -26 18 -56t-19 -53t-47 -23t-28 19l6 39q0 25 -19 42t-48 18q-92 0 -248 -106t-291 -269q-135 -161 -135 -273z" />
    <glyph glyph-name="sterling" unicode="&#xa3;" horiz-adv-x="901" 
d="M592 137q129 0 215 -31t86 -81q0 -18 -23 -19q-4 0 -22 6q-80 27 -220 27t-302 -41q-16 -4 -27 -4q-39 0 -73 35t-34 65t25 81q24 50 113 274l-58 -7l-41 -2q-71 0 -99 16t-28 58q0 41 23 41q6 0 12 -2q80 -29 94 -18l7 2l127 2q109 271 217 495q170 352 368 352
q70 0 118 -52t48 -116q0 -119 -55 -116q-27 0 -27 54t-26 87q-27 33 -68 33q-78 0 -175 -164t-261 -567l98 2q80 4 112 9t52 5t20 -16q0 -25 -50 -45t-134 -27l-133 -12q-16 -41 -44 -111t-52 -131l-39 -92q-4 0 -8 -21q135 31 264 31z" />
    <glyph glyph-name="currency" unicode="&#xa4;" horiz-adv-x="866" 
d="M788 653q-92 0 -159 41q-72 -74 -89 -74t-46 28q-29 26 -27 42q1 16 19 34t31 34t20 22l-9 13q-45 61 -45 157t52 164l2 2q-72 64 -72 94t17 46t42 18q25 0 101 -76l4 4q67 41 157 41t156 -43l4 -4q70 72 99 72t51 -22t20 -50q0 -28 -74 -94l2 -4v-2q41 -54 41 -146
t-41 -149l-4 -8l-2 -5q66 -70 66 -98t-15 -45q-15 -18 -37 -18t-41 14q-20 14 -63 61l-4 -2q-64 -47 -156 -47zM784 1143q-82 1 -140 -57t-58 -139t58 -138t141 -57t141 58q57 58 57 138q-1 80 -59 138t-140 57z" />
    <glyph glyph-name="yen" unicode="&#xa5;" horiz-adv-x="798" 
d="M406 383q-96 0 -97 72q0 41 23 41q6 0 12 -2q68 -23 197 -23h16q35 81 64 135l-164 -12q-50 -13 -80 16q-25 18 -25 56t21 39q8 0 14 -3q59 -20 234 -20h38l11 20q-53 92 -72 164q-18 72 -18 216t20 273q20 130 21 165v12q1 27 31 27t64 -25t34 -42q0 -18 -30 -192
t-30 -310t23 -212q186 322 405 574q104 120 148 160t66 40q24 0 46 -24t23 -41q0 -18 -15 -33q-286 -240 -595 -766l153 8l23 2q37 6 55 6t18 -16q0 -18 -27 -34q-28 -15 -63 -19l-200 -17l-74 -141l227 10q12 0 23 2l45 5q27 0 27 -16t-28 -35q-28 -17 -63 -19l-266 -23
q-111 -240 -139 -381q-6 -27 -21 -26q-16 0 -30 20t-15 45q0 106 88 334l-110 -10h-8z" />
    <glyph glyph-name="section" unicode="&#xa7;" horiz-adv-x="587" 
d="M436 199l27 6q88 12 121 93t45 314q6 63 26 279q-106 -10 -143 -89t-49 -325q-9 -85 -17 -167t-10 -111zM174 -276q-72 0 -114 45t-42 110t32 109t63 45q31 0 30 -17q0 -8 -11 -44t-11 -62q0 -28 17 -50t43 -22q51 0 81 113q48 180 58 247t36 339q16 237 78 325t232 111
q57 393 252 393q72 0 114 -44t41 -110q0 -66 -32 -109q-33 -44 -63 -44t-30 14q0 2 8 38t8 88t-48 52q-50 0 -78 -73q-40 -104 -58 -215t-45 -410q-15 -239 -77 -325t-232 -111q-8 -43 -8 -47q-63 -346 -244 -346z" />
    <glyph glyph-name="dieresis" unicode="&#xa8;" horiz-adv-x="493" 
d="M555 1141q37 0 57 -22q20 -21 20 -55t-31 -67q-32 -33 -71 -33q-38 0 -62 24q-24 22 -24 58t37 66q37 29 74 29zM778 950q-36 0 -60 20t-24 56t36 68t72 32t58 -24t23 -54q0 -30 -35 -64t-70 -34z" />
    <glyph glyph-name="copyright" unicode="&#xa9;" horiz-adv-x="1622" 
d="M971 1087q-267 0 -455 -191q-188 -192 -188 -462t187 -465t453 -195t456 192q190 190 190 464t-188 466t-455 191zM796 -10q-168 0 -167 200q0 100 95 281q95 179 212 293t197 106q41 -4 67 -34t25 -72q1 -41 -13 -65t-36 -23q-23 0 -23 24l4 39q0 51 -39 52
q-45 0 -127 -85t-155 -208q-119 -203 -119 -340q0 -94 55 -95q62 1 162 63t178 153q18 20 29 20q18 0 18 -25q0 -72 -139 -178q-140 -106 -224 -106zM971 1167q299 0 512 -216t213 -522t-213 -521t-513 -215t-512 218t-212 521t213 519t512 216z" />
    <glyph glyph-name="ordfeminine" unicode="&#xaa;" horiz-adv-x="630" 
d="M905 823q23 0 23 -16q0 -31 -74 -66q-164 -72 -375 -71q-127 0 -127 65q0 51 35 51q10 0 38 -9t93 -9q219 0 361 49q20 6 26 6zM815 1323q-59 0 -169 -139t-109 -215q0 -18 18 -19q37 0 127 104t131 214q6 20 25 20q2 0 4 -2l2 8q0 29 -29 29zM541 866q-41 0 -66 30
t-24 77q0 78 82 190q173 236 286 238q39 0 66 -27q27 -26 27 -68t-23 -59q4 -6 4 -16q-1 -10 -31 -90q-30 -79 -30 -143t14 -93q8 -23 8 -28q0 -27 -30 -27t-52 39t-22 94l2 47q-133 -164 -211 -164z" />
    <glyph glyph-name="guillemotleft" unicode="&#xab;" horiz-adv-x="698" 
d="M479 184q0 -26 -16 -44q-15 -18 -33 -19q-18 0 -33 22q-41 53 -182 133q-61 31 -61 62q0 23 45 53q127 82 170 114q43 33 85 73t58 40q31 0 31 -32t-45 -80q-101 -104 -199 -172q180 -96 180 -150zM768 188q0 -26 -16 -44t-34 -19q-18 0 -32 22q-39 53 -182 132
q-62 33 -62 59t45 55q129 84 171 115q42 32 86 72t57 41q31 0 31 -33q0 -32 -66 -102q-65 -70 -176 -150q178 -96 178 -148z" />
    <glyph glyph-name="logicalnot" unicode="&#xac;" horiz-adv-x="1073" 
d="M213 387q0 49 55 49l150 -10l620 33q35 0 65 -35t30 -71t-41 -93q-72 -121 -70 -227q0 -35 -22 -35t-38 32t-16 70q0 124 66 230l-416 -23q-218 1 -282 11t-83 28q-18 18 -18 41z" />
    <glyph glyph-name="uni00AD" unicode="&#xad;" horiz-adv-x="540" 
d="M231 383q14 0 35 -9q22 -9 106 -9t210 32q25 4 30 4q20 0 21 -16q1 -39 -105 -77t-218 -38t-111 62q-1 51 32 51z" />
    <glyph glyph-name="registered" unicode="&#xae;" horiz-adv-x="968" 
d="M971 1085q-267 0 -455 -191q-188 -192 -188 -464t189 -464t455 -191q266 -1 454 193t188 464t-188 462t-455 191zM971 1167q299 0 512 -216t213 -522t-213 -521t-513 -215t-512 218t-212 521t213 519t512 216zM1110 774h-20q-68 -170 -158 -375q143 23 254 101t110 153
q0 53 -52 87t-134 34zM680 20q0 23 44 108t137 305t132 323q-145 -45 -245 -152q-48 -51 -48 -64t19 -20q18 -4 18 -18q1 -23 -31 -23t-56 22t-23 52q-1 53 107 138t284 145q10 28 34 28t38 -22q12 2 26 2q114 0 184 -52t70 -144t-96 -177q-96 -84 -270 -133
q28 -127 84 -240t106 -139q29 -17 29 -35t-31 -18t-69 28q-124 89 -214 412l-37 -86q-6 -12 -51 -114t-65 -129q-20 -28 -45 -27q-31 0 -31 30z" />
    <glyph glyph-name="macron" unicode="&#xaf;" horiz-adv-x="489" 
d="M494 1090q14 0 34 -10t106 -9q84 0 210 33q25 4 30 4q20 0 21 -16q0 -39 -105 -77q-106 -38 -218 -38t-111 61q0 52 33 52z" />
    <glyph glyph-name="degree" unicode="&#xb0;" horiz-adv-x="706" 
d="M794 1288q-82 0 -138 -56t-56 -137t57 -137t137 -57q80 0 137 57q56 58 56 138t-56 136t-137 56zM795 1370q115 0 195 -81t79 -195q0 -114 -81 -195q-80 -80 -194 -80t-195 81t-81 195q0 115 81 195t196 80z" />
    <glyph glyph-name="plusminus" unicode="&#xb1;" horiz-adv-x="729" 
d="M725 143q20 1 20 -23q0 -56 -178 -98q-98 -24 -188 -24q-147 0 -148 63q0 51 35 52l4 -2q11 0 33 -9q41 -10 137 -10t260 47l20 4h5zM746 946q19 0 44 -21q45 -41 3 -73q-57 -68 -131 -219q96 17 174 39t94 22t16 -14q0 -35 -89 -74t-239 -67q-55 -139 -73 -195t-37 -143
q-8 -41 -33 -41q-18 0 -31 15q-12 15 -12 40q0 104 68 303q-72 -8 -127 -8q-119 0 -119 65q0 49 37 50q6 0 20 -7q37 -10 111 -10t115 6q55 141 127 250q29 46 46 64t36 18z" />
    <glyph glyph-name="twosuperior" unicode="&#xb2;" horiz-adv-x="583" 
d="M969 1307q0 -121 -336 -379q-146 -113 -189 -166q109 20 194 20t134 -18t49 -47q0 -16 -24 -17q-6 0 -39 10t-122 9q-90 -1 -152 -17t-78 -16t-40 24t-24 48t36 58t192 156q320 251 319 345q0 39 -50 39q-49 0 -137 -53t-88 -89q0 -8 2 -10l5 -24q0 -18 -29 -18t-45 14
t-17 36q0 62 111 136t209 73q53 1 86 -31t33 -83z" />
    <glyph glyph-name="threesuperior" unicode="&#xb3;" horiz-adv-x="612" 
d="M597 754q69 0 151 32t81 66q0 20 -24 36q-25 15 -106 45t-119 48q-37 21 -37 43t8 30t88 44q80 38 167 114t87 117q0 18 -31 19q-68 0 -176 -54t-141 -106q-10 -14 -21 -14q-31 0 -30 34q0 58 135 136t239 77q47 1 76 -23t29 -63q0 -135 -318 -307q137 -47 195 -87
t57 -87q0 -70 -101 -118t-217 -48t-173 24q-58 24 -58 56t26 54q26 24 50 24t25 -17l-13 -28q0 -19 41 -33t110 -14z" />
    <glyph glyph-name="acute" unicode="&#xb4;" horiz-adv-x="446" 
d="M749 1194q19 0 39 -20t21 -41q0 -47 -112 -105q-111 -58 -145 -57q-34 0 -54 15t-21 36q0 10 96 55q82 49 138 101q19 16 38 16z" />
    <glyph glyph-name="mu" unicode="&#xb5;" horiz-adv-x="774" 
d="M731 76q19 0 19 -23t-20 -41t-60 -18q-39 0 -69 45t-30 126t35 167q-274 -338 -391 -338q-35 0 -59 22q-63 -131 -106 -227t-58 -119l-17 -29l-4 -10l-2 -2q-11 -29 -33 -29t-46 21q-24 20 -23 45q0 25 45 104t163 341q119 262 205 441t111 259q12 37 43 37t49 -15
t19 -36q0 -53 -134 -313t-135 -309q0 -50 25 -50q61 0 251 245q189 245 304 472q12 26 38 26t43 -16t17 -36q1 -20 -63 -139q-64 -120 -120 -288q-56 -167 -56 -241t37 -74q8 0 14 2h8z" />
    <glyph glyph-name="paragraph" unicode="&#xb6;" horiz-adv-x="837" 
d="M674 1008q25 -33 102 -72q28 62 67 145q39 82 134 338q-154 -2 -186 -10q-76 -16 -126 -84q-51 -69 -51 -157t60 -160zM719 45q-1 127 235 657t277 709l-64 2q-10 0 -92 4q-23 -98 -51 -177t-98 -242t-165 -383q-95 -219 -151 -355t-58 -178q-3 -42 -27 -66
q-24 -25 -46 -24q-41 0 -41 49q0 100 105 352q2 4 190 445q-223 129 -223 321q0 100 54 183t140 121t234 38q563 0 563 -94q0 -33 -24 -33q-12 0 -82 15l-60 10q1 -90 -249 -669t-255 -658q-1 -27 -25 -52t-46 -24q-41 0 -41 49z" />
    <glyph glyph-name="cedilla" unicode="&#xb8;" horiz-adv-x="385" 
d="M223 -65q0 -17 36 -59t36 -96t-59 -104t-115 -51q-57 1 -87 15t-30 29t8 19t54 5q46 2 78 31q30 30 30 70t-35 68t-35 54t56 100l10 15l88 -29q-35 -51 -35 -67z" />
    <glyph glyph-name="onesuperior" unicode="&#xb9;" horiz-adv-x="458" 
d="M868 1378q0 -18 -34 -69q-279 -469 -310 -596q-6 -27 -21 -27t-26 16q-10 16 -10 39q-1 119 278 570q-106 -80 -157 -135q-12 -12 -23 -13q-29 0 -29 30t52 79q51 49 132 105q81 57 99 57q17 0 33 -18q16 -20 16 -38z" />
    <glyph glyph-name="ordmasculine" unicode="&#xba;" horiz-adv-x="600" 
d="M868 823q23 0 23 -16q0 -31 -74 -66q-164 -72 -375 -71q-127 0 -127 65q0 51 35 51q10 0 38 -9t93 -9q219 0 361 49q22 6 26 6zM586 992q0 -54 28 -54q57 0 126 105t69 189t-33 85q-17 0 -31 -31q-4 -20 -18 -29q-53 -41 -97 -125q-44 -86 -44 -140zM889 1249
q0 -127 -96 -256t-191 -129q-45 0 -74 32t-28 83q0 89 62 195t128 129q2 29 35 57t71 26q38 0 66 -38t27 -99z" />
    <glyph glyph-name="guillemotright" unicode="&#xbb;" horiz-adv-x="729" 
d="M539 557q0 27 16 45q36 42 66 -4q41 -53 182 -133q61 -31 61 -62q0 -23 -45 -53q-127 -82 -170 -114t-85 -72q-42 -41 -58 -41q-31 0 -31 33q-1 32 67 104t177 148q-180 99 -180 149zM250 555q0 27 16 45t34 18t32 -22q41 -53 182 -133q61 -31 61 -62q0 -23 -45 -53
q-127 -82 -170 -114q-44 -32 -86 -72t-57 -41q-31 0 -31 33t45 79q86 95 197 173q-178 96 -178 149z" />
    <glyph glyph-name="onequarter" unicode="&#xbc;" horiz-adv-x="1183" 
d="M1399 1554q16 0 33 -28q16 -29 16 -61q0 -33 -36 -77t-366 -410t-492 -571q-163 -206 -278 -423q-18 -33 -38 -33q-8 0 -17 10q-8 10 -8 23q6 150 428 669q177 219 415 491t316 392q11 18 27 18zM520 1193q0 30 51 79t132 105q81 57 99 57t34 -18t16 -38q0 -18 -35 -69
q-283 -473 -309 -596q-8 -27 -24 -27t-25 16q-10 16 -10 39q-1 115 280 570q-100 -72 -158 -135q-12 -12 -22 -13q-29 0 -29 30zM1224 418q44 0 44 -21q0 -27 -46 -27t-110 -18q-145 -252 -139 -327q-2 -35 -27 -35q-20 0 -34 18q-13 18 -13 47q0 86 107 273
q-170 -39 -245 1q-42 23 -42 49t39 60q139 138 188 196t53 89q5 20 23 20t30 -10t13 -24q0 -61 -166 -236q-76 -82 -76 -91t50 -9t171 24q12 16 36 60t38 59q51 74 64 107q8 35 30 34q45 0 45 -41q0 -20 -90 -170l-20 -32q33 4 77 4z" />
    <glyph glyph-name="onehalf" unicode="&#xbd;" horiz-adv-x="1177" 
d="M893 459q-29 0 -45 14t-17 35q0 63 111 136t209 73q53 0 86 -32t33 -83q0 -121 -336 -379q-138 -103 -191 -166q111 23 196 23t134 -18t49 -48q0 -18 -24 -18q-8 0 -39 10t-117 10t-152 -17t-82 -17q-18 0 -42 24t-23 46q0 24 36 59q35 35 191 157q320 251 320 344
q0 39 -51 39t-137 -52t-87 -89l7 -33q0 -18 -29 -18zM1393 1554q16 0 32 -28q17 -28 17 -61t-36 -77t-366 -410t-492 -571q-163 -206 -278 -423q-18 -33 -34 -33q-30 0 -29 33q6 150 428 669q177 219 415 491t316 392q11 18 27 18zM514 1193q0 30 51 79t132 105q81 57 99 57
t34 -18t16 -38q0 -18 -35 -69q-283 -473 -309 -596q-8 -27 -24 -27t-25 16q-10 16 -11 39q0 115 281 570q-100 -72 -158 -135q-12 -12 -22 -13q-29 0 -29 30z" />
    <glyph glyph-name="threequarters" unicode="&#xbe;" horiz-adv-x="1449" 
d="M593 754q69 0 151 32t81 66q0 20 -24 36q-25 15 -59 27t-167 66q-37 21 -37 43t9 30q8 8 88 44q80 38 167 114t87 117q0 18 -31 19q-68 0 -176 -54t-141 -106q-10 -14 -21 -14q-31 0 -31 34q-1 58 135 136t240 77q47 1 76 -23t29 -63q0 -135 -318 -307q137 -47 195 -87
t57 -87q0 -70 -101 -118t-217 -48t-173 24q-58 24 -58 56t26 54q26 24 50 24t25 -17l-13 -28q0 -19 41 -33t110 -14zM1688 1554q16 0 32 -28t16 -61t-35 -77t-365 -410t-493 -571q-163 -206 -278 -423q-17 -33 -33 -33q-30 0 -30 33q6 150 428 669q178 219 416 491t315 392
q11 18 27 18zM1548 616q0 -18 -52 -104t-58 -98q34 4 76 4t42 -21q0 -27 -42 -27t-113 -18q-143 -250 -137 -327q-2 -35 -27 -35q-20 0 -34 18q-13 18 -13 47q0 82 104 273q-165 -39 -242 1q-42 23 -42 49t39 60q139 138 188 196t53 89q6 20 24 20t29 -10q12 -10 13 -24
q0 -61 -166 -236q-76 -82 -76 -91t50 -9t171 24q70 115 101 160q30 45 34 66q10 35 33 34q45 0 45 -41z" />
    <glyph glyph-name="questiondown" unicode="&#xbf;" horiz-adv-x="698" 
d="M741 977q0 -59 -71 -59q-35 0 -67 22t-32 47q0 41 85 41t85 -51zM399 520q0 29 38 57q38 27 88 27q49 0 99 -38t50 -92t-58 -130t-216 -216t-225 -231t-66 -173q1 -58 81 -58t177 71t123 145t63 75q27 0 27 -49q0 -112 -130 -220t-262 -108q-80 0 -127 38t-47 103
q0 201 371 529q195 174 195 233q0 29 -70 29q-23 0 -57 -8l-29 -4q-25 0 -25 20z" />
    <glyph glyph-name="Agrave" unicode="&#xc0;" horiz-adv-x="1019" 
d="M864 682q49 205 146 530q-180 -229 -432 -598q177 39 286 68zM885 -72q0 -29 -27 -28q-68 0 -67 270q0 162 55 430q-143 -43 -340 -92q-279 -418 -303 -496q-8 -20 -31 -20q-24 0 -50 24t-26 46q0 24 33 67q0 2 12 17t63 96q52 81 158 235l-114 -14q-39 -4 -47 -4
q-68 0 -70 73q0 27 21 27h8q40 -4 66 -4t167 25l49 8q214 295 404 552t190 275q10 23 16 28t28 5t58 -30t36 -51t-24 -89t-74 -248q-50 -182 -57 -208t-11 -43t-7 -21l-8 -41l62 18q68 21 82 21t14 -17q0 -35 -80 -63l-98 -35q-92 -426 -92 -618v-29l4 -57v-9zM1042 1851
q0 20 20 37t44 17q25 -1 37 -13t20 -43q29 -67 45 -91t54 -70t38 -56t-13 -19t-27 -9q-45 0 -107 63q-111 127 -111 184z" />
    <glyph glyph-name="Aacute" unicode="&#xc1;" horiz-adv-x="1019" 
d="M864 682q49 205 146 530q-180 -229 -432 -598q177 39 286 68zM885 -72q0 -29 -27 -28q-68 0 -67 270q0 162 55 430q-143 -43 -340 -92q-279 -418 -303 -496q-8 -20 -31 -20q-24 0 -50 24t-26 46q0 24 33 67q0 2 12 17t63 96q52 81 158 235l-114 -14q-39 -4 -47 -4
q-68 0 -70 73q0 27 21 27h8q40 -4 66 -4t167 25l49 8q214 295 404 552t190 275q10 23 16 28t28 5t58 -30t36 -51t-24 -89t-74 -248q-50 -182 -57 -208t-11 -43t-7 -21l-8 -41l62 18q68 21 82 21t14 -17q0 -35 -80 -63l-98 -35q-92 -426 -92 -618v-29l4 -57v-9zM1338 1845
q20 0 40 -20t21 -41q0 -46 -112 -104q-111 -58 -145 -58t-55 15q-20 15 -20 36q0 10 96 56q82 49 137 100q19 16 38 16z" />
    <glyph glyph-name="Acircumflex" unicode="&#xc2;" horiz-adv-x="1019" 
d="M864 682q49 205 146 530q-180 -229 -432 -598q177 39 286 68zM885 -72q0 -29 -27 -28q-68 0 -67 270q0 162 55 430q-143 -43 -340 -92q-279 -418 -303 -496q-8 -20 -31 -20q-24 0 -50 24t-26 46q0 24 33 67q0 2 12 17t63 96q52 81 158 235l-114 -14q-39 -4 -47 -4
q-68 0 -70 73q0 27 21 27h8q40 -4 66 -4t167 25l49 8q214 295 404 552t190 275q10 23 16 28t28 5t58 -30t36 -51t-24 -89t-74 -248q-50 -182 -57 -208t-11 -43t-7 -21l-8 -41l62 18q68 21 82 21t14 -17q0 -35 -80 -63l-98 -35q-92 -426 -92 -618v-29l4 -57v-9zM1016 1614
q-59 0 -60 35q0 23 52 45q90 53 186 147q25 14 47 14q21 0 41 -8t24 -15q4 -6 14 -56t26 -78t29 -52q13 -26 19 -30t7 -22q0 -18 -23 -19q-53 0 -97 41q-43 42 -51 56t-16 22q-12 -6 -49 -31q-6 0 -92 -39q-25 -10 -57 -10z" />
    <glyph glyph-name="Atilde" unicode="&#xc3;" horiz-adv-x="1019" 
d="M864 682q49 205 146 530q-180 -229 -432 -598q177 39 286 68zM885 -72q0 -29 -27 -28q-68 0 -67 270q0 162 55 430q-143 -43 -340 -92q-279 -418 -303 -496q-8 -20 -31 -20q-24 0 -50 24t-26 46q0 24 33 67q0 2 12 17t63 96q52 81 158 235l-114 -14q-39 -4 -47 -4
q-68 0 -70 73q0 27 21 27h8q40 -4 66 -4t167 25l49 8q214 295 404 552t190 275q10 23 16 28t28 5t58 -30t36 -51t-24 -89t-74 -248q-50 -182 -57 -208t-11 -43t-7 -21l-8 -41l62 18q68 21 82 21t14 -17q0 -35 -80 -63l-98 -35q-92 -426 -92 -618v-29l4 -57v-9zM1300 1567
q-58 0 -116 55q-57 55 -106 55t-109 -55q-16 -16 -37 -9q-20 7 -21 29q1 46 61 96t154 50q63 0 127 -70q37 -39 67 -39t76 37t65 7q9 -13 9 -31q0 -39 -56 -82t-114 -43z" />
    <glyph glyph-name="Adieresis" unicode="&#xc4;" horiz-adv-x="1019" 
d="M864 682q49 205 146 530q-180 -229 -432 -598q177 39 286 68zM885 -72q0 -29 -27 -28q-68 0 -67 270q0 162 55 430q-143 -43 -340 -92q-279 -418 -303 -496q-8 -20 -31 -20q-24 0 -50 24t-26 46q0 24 33 67q0 2 12 17t63 96q52 81 158 235l-114 -14q-39 -4 -47 -4
q-68 0 -70 73q0 27 21 27h8q40 -4 66 -4t167 25l49 8q214 295 404 552t190 275q10 23 16 28t28 5t58 -30t36 -51t-24 -89t-74 -248q-50 -182 -57 -208t-11 -43t-7 -21l-8 -41l62 18q68 21 82 21t14 -17q0 -35 -80 -63l-98 -35q-92 -426 -92 -618v-29l4 -57v-9zM1387 1696
q42 0 43 -29q0 -16 -44 -59t-65 -99q-10 -33 -53 -32q-20 0 -34 13q-13 13 -13 34q0 51 86 133q38 39 80 39zM1041 1542q-60 0 -60 64q1 30 69 96t107 65q39 0 39 -26q0 -20 -56 -85q-56 -66 -63 -90q-6 -24 -36 -24z" />
    <glyph glyph-name="Aring" unicode="&#xc5;" horiz-adv-x="1019" 
d="M864 682q49 205 146 530q-180 -229 -432 -598q177 39 286 68zM885 -72q0 -29 -27 -28q-68 0 -67 270q0 162 55 430q-143 -43 -340 -92q-279 -418 -303 -496q-8 -20 -31 -20q-24 0 -50 24t-26 46q0 24 33 67q0 2 12 17t63 96q52 81 158 235l-114 -14q-39 -4 -47 -4
q-68 0 -70 73q0 27 21 27h8q40 -4 66 -4t167 25l49 8q214 295 404 552t190 275q10 23 16 28t28 5t58 -30t36 -51t-24 -89t-74 -248q-50 -182 -57 -208t-11 -43t-7 -21l-8 -41l62 18q68 21 82 21t14 -17q0 -35 -80 -63l-98 -35q-92 -426 -92 -618v-29l4 -57v-9zM1292 1794
h-20q-6 0 -16 5t-53 5q-44 0 -73 -38q-10 -13 -10 -15v-31q0 -39 64 -39q37 0 59 21q43 43 43 67v5q0 4 6 10v10zM1364 1802q10 0 20 -16t11 -35q1 -70 -59 -118t-136 -48t-116 36q-40 35 -40 101t68 123t130 57t94 -18q30 -20 30 -40t-10 -42h8z" />
    <glyph glyph-name="AE" unicode="&#xc6;" horiz-adv-x="1550" 
d="M623 614l149 33l119 37q8 4 35 10q123 287 233 518q-203 -211 -536 -598zM1303 1483q31 0 45 -53q131 16 234 16t216 -28t113 -60q0 -23 -25 -23q-8 1 -72 13t-212 12q-146 0 -267 -33l-235 -602q115 29 211 29q97 0 161 -25t64 -57q0 -23 -29 -23q-5 0 -37 8
q-32 9 -140 9t-281 -39l-205 -500q162 45 316 45t268 -35t114 -76q0 -14 -22 -14q-6 0 -27 4q-109 25 -227 25q-231 0 -461 -70q-37 -10 -63 -10t-57 33q-30 33 -30 73t230 498q-162 -45 -355 -92q-354 -422 -389 -496q-15 -20 -35 -20t-42 20t-21 45q0 25 43 72
q4 5 112 135t185 213l-117 -14q-41 -4 -47 -4q-59 0 -59 55q0 45 26 45h9l41 -2l6 -2q41 0 190 25l49 8l342 379q329 356 389 436t91 80z" />
    <glyph glyph-name="Ccedilla" unicode="&#xc7;" horiz-adv-x="1021" 
d="M313 262q0 -170 103 -170q110 0 282 110t297 257q23 29 40 29t17 -38t-64 -120q-65 -82 -167 -165t-188 -122t-201 -53q-12 -23 -12 -37t36 -56q36 -41 36 -95t-60 -105t-114 -51q-56 0 -88 14t-31 31q0 14 8 17t55 5t78 31t31 70q0 40 -35 68t-35 50t37 78
q-148 70 -148 270t146 476t335 479q190 203 347 203q57 0 100 -52t43 -113q0 -62 -20 -99t-48 -37t-28 30l8 64q0 43 -21 71q-22 28 -53 27q-82 0 -220 -142t-263 -353q-203 -336 -203 -572z" />
    <glyph glyph-name="Egrave" unicode="&#xc8;" horiz-adv-x="970" 
d="M420 1208q-20 0 -39 22t-19 48t12 33t87 39q76 32 209 63v4l2 6q7 66 40 66q34 0 50 -59q128 16 232 16t216 -28t113 -60q0 -23 -25 -23q-8 1 -70 13t-194 12t-286 -27q-29 -131 -193 -481q137 18 221 18t150 -22t65 -55q0 -23 -28 -23q-4 0 -40 7q-35 7 -133 7t-286 -36
q-6 -10 -41 -83t-150 -301q-116 -229 -120 -255q205 63 369 63t279 -35q116 -35 115 -76q0 -14 -22 -14q-6 -1 -73 13t-183 14q-256 0 -485 -76q-20 -4 -29 -4q-35 0 -66 34q-30 34 -30 68t36 112q37 79 258 521q-37 27 -36 59q0 35 47 35q4 2 10 2l12 2l19 2
q158 319 219 476q-123 -35 -158 -66t-55 -31zM905 1894q45 0 62 -55q6 -23 36 -76t55 -82l32 -36q12 -11 12 -21t-13 -21t-40 -7t-43 12q-16 10 -52 49q-111 125 -110 186q0 19 19 35t42 16z" />
    <glyph glyph-name="Eacute" unicode="&#xc9;" horiz-adv-x="970" 
d="M420 1208q-20 0 -39 22t-19 48t12 33t87 39q76 32 209 63v4l2 6q7 66 40 66q34 0 50 -59q128 16 232 16t216 -28t113 -60q0 -23 -25 -23q-8 1 -70 13t-194 12t-286 -27q-29 -131 -193 -481q137 18 221 18t150 -22t65 -55q0 -23 -28 -23q-4 0 -40 7q-35 7 -133 7t-286 -36
q-6 -10 -41 -83t-150 -301q-116 -229 -120 -255q205 63 369 63t279 -35q116 -35 115 -76q0 -14 -22 -14q-6 -1 -73 13t-183 14q-256 0 -485 -76q-20 -4 -29 -4q-35 0 -66 34q-30 34 -30 68t36 112q37 79 258 521q-37 27 -36 59q0 35 47 35q4 2 10 2l12 2l19 2
q158 319 219 476q-123 -35 -158 -66t-55 -31zM1106 1790l12 12q12 16 36 16t44 -20q18 -20 19 -39q0 -51 -112 -107t-144 -56q-33 0 -55 14t-21 28q0 14 13 24t85 40q41 21 81 53q40 31 42 35z" />
    <glyph glyph-name="Ecircumflex" unicode="&#xca;" horiz-adv-x="970" 
d="M420 1208q-20 0 -39 22t-19 48t12 33t87 39q76 32 209 63v4l2 6q7 66 40 66q34 0 50 -59q128 16 232 16t216 -28t113 -60q0 -23 -25 -23q-8 1 -70 13t-194 12t-286 -27q-29 -131 -193 -481q137 18 221 18t150 -22t65 -55q0 -23 -28 -23q-4 0 -40 7q-35 7 -133 7t-286 -36
q-6 -10 -41 -83t-150 -301q-116 -229 -120 -255q205 63 369 63t279 -35q116 -35 115 -76q0 -14 -22 -14q-6 -1 -73 13t-183 14q-256 0 -485 -76q-20 -4 -29 -4q-35 0 -66 34q-30 34 -30 68t36 112q37 79 258 521q-37 27 -36 59q0 35 47 35q4 2 10 2l12 2l19 2
q158 319 219 476q-123 -35 -158 -66t-55 -31zM840 1614q-47 0 -47 33q0 23 51 47q70 39 168 127q34 35 70 35t50 -14q14 -13 19 -50q23 -80 76 -172q10 -10 10 -28t-23 -17q-57 0 -94 38t-65 81q-16 -8 -40 -22q-25 -14 -57 -28q-32 -12 -52 -21t-66 -9z" />
    <glyph glyph-name="Edieresis" unicode="&#xcb;" horiz-adv-x="970" 
d="M420 1208q-20 0 -39 22t-19 48t12 33t87 39q76 32 209 63v4l2 6q7 66 40 66q34 0 50 -59q128 16 232 16t216 -28t113 -60q0 -23 -25 -23q-8 1 -70 13t-194 12t-286 -27q-29 -131 -193 -481q137 18 221 18t150 -22t65 -55q0 -23 -28 -23q-4 0 -40 7q-35 7 -133 7t-286 -36
q-6 -10 -41 -83t-150 -301q-116 -229 -120 -255q205 63 369 63t279 -35q116 -35 115 -76q0 -14 -22 -14q-6 -1 -73 13t-183 14q-256 0 -485 -76q-20 -4 -29 -4q-35 0 -66 34q-30 34 -30 68t36 112q37 79 258 521q-37 27 -36 59q0 35 47 35q4 2 10 2l12 2l19 2
q158 319 219 476q-123 -35 -158 -66t-55 -31zM858 1573q-38 1 -62 23t-24 59t36 65t73 29q37 0 57 -22q20 -21 20 -55t-30 -66t-70 -33zM1130 1735q36 0 58 -25q50 -56 -12 -118q-35 -34 -70 -34q-36 0 -60 21q-24 20 -24 55t36 68t72 33z" />
    <glyph glyph-name="Igrave" unicode="&#xcc;" horiz-adv-x="331" 
d="M665 1493q26 0 45 -27q19 -28 19 -76q0 -96 -268 -710q-143 -330 -189 -446t-48 -154t-26 -64q-24 -25 -46 -24q-41 0 -41 53q0 123 245 678q146 327 202 477t73 248q8 45 34 45zM598 1894q27 0 36 -11t36 -79q31 -66 110 -159q8 -8 8 -25q0 -27 -34 -27q-34 -1 -54 11
q-18 12 -55 53q-113 123 -113 186q0 19 20 35t46 16z" />
    <glyph glyph-name="Iacute" unicode="&#xcd;" horiz-adv-x="331" 
d="M665 1493q26 0 45 -27q19 -28 19 -76q0 -96 -268 -710q-143 -330 -189 -446t-48 -154t-26 -64q-24 -25 -46 -24q-41 0 -41 53q0 123 245 678q146 327 202 477t73 248q8 45 34 45zM989 1751q-1 -55 -115 -109t-144 -55q-30 1 -52 15t-23 30q0 16 13 21l29 15q82 35 101 50
q19 14 51 37t44 40q11 17 35 14t42 -21t19 -37z" />
    <glyph glyph-name="Icircumflex" unicode="&#xce;" horiz-adv-x="331" 
d="M665 1493q26 0 45 -27q19 -28 19 -76q0 -96 -268 -710q-143 -330 -189 -446t-48 -154t-26 -64q-24 -25 -46 -24q-41 0 -41 53q0 123 245 678q146 327 202 477t73 248q8 45 34 45zM554 1614q-30 0 -46 13t-16 25t26 27q109 57 193 142q29 35 75 35t58 -27q6 -12 8 -37
q20 -90 54 -137t34 -60q0 -20 -40 -20t-99 59q-35 31 -47 60q-16 -8 -42 -24t-54 -26t-50 -20q-24 -10 -54 -10z" />
    <glyph glyph-name="Idieresis" unicode="&#xcf;" horiz-adv-x="331" 
d="M665 1493q26 0 45 -27q19 -28 19 -76q0 -96 -268 -710q-143 -330 -189 -446t-48 -154t-26 -64q-24 -25 -46 -24q-41 0 -41 53q0 123 245 678q146 327 202 477t73 248q8 45 34 45zM618 1753q38 0 58 -20q20 -19 22 -53t-32 -68t-72 -35q-37 0 -62 20q-24 21 -24 57t36 68
t74 31zM874 1739q27 0 49 -22q21 -23 23 -55t-32 -66t-70 -34t-62 24q-50 42 -4 106q39 47 96 47z" />
    <glyph glyph-name="Eth" unicode="&#xd0;" horiz-adv-x="1302" 
d="M1053 1395q-217 0 -428 -152q-90 -67 -163 -153t-73 -124t55 -38h9q9 2 25 2t16 -13t-24 -25t-62 -13q-38 1 -74 23q-35 22 -35 56q0 72 78 178t190 189q229 166 475 166q27 0 93 -6q4 16 4 18q9 37 31 37t40 -24t21 -56q117 -45 182 -102q158 -139 158 -343t-126 -408
t-349 -365q-342 -248 -662 -248q-127 0 -214 49t-87 121q0 43 21 43q8 0 14 -6t33 -45q45 -66 208 -66t344 76t351 211q379 303 379 641q0 90 -39 169t-109 128q-37 27 -123 55q-127 -299 -229 -512q83 16 115 28t41 11q23 0 22 -16q0 -61 -221 -113q-133 -285 -173 -380
t-47 -139t-30 -44q-35 0 -37 57q0 109 162 486l-33 -3q-27 0 -32 -2h-35q-129 0 -129 64q0 53 35 53q9 0 35 -9t78 -9t126 4q193 434 225 514l13 33q-20 2 -45 2z" />
    <glyph glyph-name="Ntilde" unicode="&#xd1;" horiz-adv-x="980" 
d="M1319 1520q25 0 43 -22t18 -56t-45 -155q-45 -120 -221 -544q-254 -606 -262 -761q-6 -48 -43 -48t-61 29t-58 135q-35 106 -52 314q-17 209 -22 704q-240 -606 -298 -786t-58 -252v-39q0 -47 -39 -47q-33 0 -52 30t-19 76q0 172 150 540t220 540q70 174 81 196t39 21
q28 0 58 -30t29 -69l-8 -286q0 -304 13 -492q14 -188 22 -235t30 -105q56 194 264 692t230 613q8 37 41 37zM877 1679q-49 0 -109 -55q-16 -16 -37 -9q-20 7 -20 30q0 47 60 97t155 50q60 0 112 -56t80 -55q28 0 75 37q46 37 65 7q9 -13 10 -31q0 -39 -56 -82t-116 -43
q-58 0 -125 67q-45 43 -94 43z" />
    <glyph glyph-name="Ograve" unicode="&#xd2;" horiz-adv-x="808" 
d="M332 201q0 -45 18 -75t47 -30q86 0 194 98t202 263q174 301 174 618q0 131 -34 220t-80 89t-81 -96t-35 -194t27 -201q4 -20 4 -23q0 -23 -23 -22q-81 0 -104 207q-147 -270 -215 -463q-94 -254 -94 -391zM846 1493q98 0 160 -117t61 -305q0 -188 -57 -384
q-56 -195 -158 -351t-226 -249t-229 -93q-55 0 -100 31q-92 57 -92 194q0 193 141 508q59 133 157 304t140 214q2 4 4 5t4 3q51 240 195 240zM745 1845q1 23 19 38t50 15t44 -34q37 -94 111 -191q33 -35 33 -46t-14 -20q-13 -9 -30 -10q-43 0 -104 64q-109 119 -109 184z
" />
    <glyph glyph-name="Oacute" unicode="&#xd3;" horiz-adv-x="808" 
d="M332 201q0 -45 18 -75t47 -30q86 0 194 98t202 263q174 301 174 618q0 131 -34 220t-80 89t-81 -96t-35 -194t27 -201q4 -20 4 -23q0 -23 -23 -22q-81 0 -104 207q-147 -270 -215 -463q-94 -254 -94 -391zM846 1493q98 0 160 -117t61 -305q0 -188 -57 -384
q-56 -195 -158 -351t-226 -249t-229 -93q-55 0 -100 31q-92 57 -92 194q0 193 141 508q59 133 157 304t140 214q2 4 4 5t4 3q51 240 195 240zM1076 1831q22 -1 42 -21t21 -41q0 -45 -115 -106q-103 -53 -145 -53t-59 17q-18 17 -18 29t25 25l58 25q104 58 137 91
q32 34 54 34z" />
    <glyph glyph-name="Ocircumflex" unicode="&#xd4;" horiz-adv-x="808" 
d="M332 201q0 -45 18 -75t47 -30q86 0 194 98t202 263q174 301 174 618q0 131 -34 220t-80 89t-81 -96t-35 -194t27 -201q4 -20 4 -23q0 -23 -23 -22q-81 0 -104 207q-147 -270 -215 -463q-94 -254 -94 -391zM846 1493q98 0 160 -117t61 -305q0 -188 -57 -384
q-56 -195 -158 -351t-226 -249t-229 -93q-55 0 -100 31q-92 57 -92 194q0 193 141 508q59 133 157 304t140 214q2 4 4 5t4 3q51 240 195 240zM989 1855q61 0 66 -63q5 -48 45 -116t40 -86t-37 -17q-38 0 -99 61l-15 15q-18 18 -24 30l-11 11q-16 -6 -80 -43t-102 -37
q-39 0 -56 12q-18 12 -18 24t8 20q8 7 44 24q61 39 184 147q18 18 55 18z" />
    <glyph glyph-name="Otilde" unicode="&#xd5;" horiz-adv-x="808" 
d="M332 201q0 -45 18 -75t47 -30q86 0 194 98t202 263q174 301 174 618q0 131 -34 220t-80 89t-81 -96t-35 -194t27 -201q4 -20 4 -23q0 -23 -23 -22q-81 0 -104 207q-147 -270 -215 -463q-94 -254 -94 -391zM846 1493q98 0 160 -117t61 -305q0 -188 -57 -384
q-56 -195 -158 -351t-226 -249t-229 -93q-55 0 -100 31q-92 57 -92 194q0 193 141 508q59 133 157 304t140 214q2 4 4 5t4 3q51 240 195 240zM1229 1704q-1 -39 -57 -82t-116 -43q-60 1 -115 57q-56 56 -104 56t-110 -58q-16 -16 -37 -9q-20 7 -20 30q0 47 60 97t155 50
q63 0 113 -55t80 -55t66 28t50 29q16 0 26 -13t9 -32z" />
    <glyph glyph-name="Odieresis" unicode="&#xd6;" horiz-adv-x="808" 
d="M332 201q0 -45 18 -75t47 -30q86 0 194 98t202 263q174 301 174 618q0 131 -34 220t-80 89t-81 -96t-35 -194t27 -201q4 -20 4 -23q0 -23 -23 -22q-81 0 -104 207q-147 -270 -215 -463q-94 -254 -94 -391zM846 1493q98 0 160 -117t61 -305q0 -188 -57 -384
q-56 -195 -158 -351t-226 -249t-229 -93q-55 0 -100 31q-92 57 -92 194q0 193 141 508q59 133 157 304t140 214q2 4 4 5t4 3q51 240 195 240zM1191 1747q42 0 42 -29q0 -16 -44 -59t-65 -98q-10 -33 -53 -33q-20 0 -34 13q-13 13 -13 34q0 51 86 133q39 39 81 39zM840 1593
q-55 0 -56 58q0 37 69 103t108 65q39 0 38 -29q0 -23 -51 -74q-61 -70 -67 -96t-41 -27z" />
    <glyph glyph-name="multiply" unicode="&#xd7;" horiz-adv-x="737" 
d="M408 406q-179 97 -179 149q1 27 17 45t34 18t31 -22q38 -51 183 -133q84 57 192 108t135 51t43 -21q16 -22 17 -52q0 -33 -41 -39q-84 -20 -236 -104q84 -39 227 -89q37 -12 37 -28q0 -9 -13 -17t-30 -8q-109 0 -309 88q-137 -90 -179 -121t-84 -71t-56 -39q-31 0 -31 33
t45 79q86 94 197 173z" />
    <glyph glyph-name="Oslash" unicode="&#xd8;" horiz-adv-x="800" 
d="M313 192q1 -36 19 -66t47 -30q113 0 255 162t232 387q49 134 72 275l-619 -650q-6 -42 -6 -78zM47 -51q-10 0 -20 11q-11 12 -11 26t30 71t50 86t94 121q18 193 141 469q122 276 290 508l4 4q2 4 4 4l4 4q51 240 194 240q81 0 137 -81t78 -226q121 127 140 155
q33 39 39 47t19 7q14 0 30 -25t16 -49q0 -49 -74 -117q-6 -4 -79 -78l-84 -90q-6 -303 -152 -590q-101 -196 -247 -324t-271 -128q-63 0 -115 40t-67 105l-17 -14q-10 -16 -10 -21q-43 -55 -74 -110q-23 -45 -49 -45zM834 1382q-16 0 -37 -20q-68 -70 -226 -398t-211 -513
l588 632q0 123 -34 211t-80 88z" />
    <glyph glyph-name="Ugrave" unicode="&#xd9;" 
d="M291 -8q-59 0 -94 51t-35 144t52 243t217 511t181 454q6 29 38 29t62 -24t27 -48q-6 -104 -139 -320q-28 -50 -126 -268q-184 -413 -185 -582q0 -66 37 -65q78 0 240 183t300 429q49 88 156 308q106 221 133 289t38 84t36 15q25 1 47 -21t22 -48q0 -54 -78 -186
q-148 -254 -272 -588q-78 -210 -78 -356t52 -234q10 -16 10 -27q0 -23 -27 -22q-69 0 -111 85q-42 84 -42 188t20 208q-313 -432 -481 -432zM852 1843q0 17 19 33t45 16t36 -10t20 -40t23 -51t25 -43l18 -33t39 -45t33 -44q-8 -35 -47 -35t-100 64q-111 125 -111 188z" />
    <glyph glyph-name="Uacute" unicode="&#xda;" 
d="M291 -8q-59 0 -94 51t-35 144t52 243t217 511t181 454q6 29 38 29t62 -24t27 -48q-6 -104 -139 -320q-28 -50 -126 -268q-184 -413 -185 -582q0 -66 37 -65q78 0 240 183t300 429q49 88 156 308q106 221 133 289t38 84t36 15q25 1 47 -21t22 -48q0 -54 -78 -186
q-148 -254 -272 -588q-78 -210 -78 -356t52 -234q10 -16 10 -27q0 -23 -27 -22q-69 0 -111 85q-42 84 -42 188t20 208q-313 -432 -481 -432zM1180 1812q24 0 42 -19t17 -40q0 -49 -111 -108q-32 -17 -82 -35t-75 -18t-51 20q-8 8 -13 33q-4 10 101 51q36 20 74 49t44 35
l15 16q15 16 39 16z" />
    <glyph glyph-name="Ucircumflex" unicode="&#xdb;" 
d="M291 -8q-59 0 -94 51t-35 144t52 243t217 511t181 454q6 29 38 29t62 -24t27 -48q-6 -104 -139 -320q-28 -50 -126 -268q-184 -413 -185 -582q0 -66 37 -65q78 0 240 183t300 429q49 88 156 308q106 221 133 289t38 84t36 15q25 1 47 -21t22 -48q0 -54 -78 -186
q-148 -254 -272 -588q-78 -210 -78 -356t52 -234q10 -16 10 -27q0 -23 -27 -22q-69 0 -111 85q-42 84 -42 188t20 208q-313 -432 -481 -432zM870 1595q-34 -1 -52 11t-19 30q0 18 22 25q76 39 195 143q39 37 70 37t48 -13q17 -14 18 -24t7 -30t9 -34q3 -15 10 -34
q39 -74 53 -94t14 -29q0 -25 -35 -24q-67 -1 -151 116q-27 -12 -91 -46t-98 -34z" />
    <glyph glyph-name="Udieresis" unicode="&#xdc;" 
d="M291 -8q-59 0 -94 51t-35 144t52 243t217 511t181 454q6 29 38 29t62 -24t27 -48q-6 -104 -139 -320q-28 -50 -126 -268q-184 -413 -185 -582q0 -66 37 -65q78 0 240 183t300 429q49 88 156 308q106 221 133 289t38 84t36 15q25 1 47 -21t22 -48q0 -54 -78 -186
q-148 -254 -272 -588q-78 -210 -78 -356t52 -234q10 -16 10 -27q0 -23 -27 -22q-69 0 -111 85q-42 84 -42 188t20 208q-313 -432 -481 -432zM1224 1733q42 0 42 -29q0 -16 -46 -59t-61 -99q-14 -33 -53 -33q-47 0 -47 50q0 20 25 59q74 111 140 111zM910 1579q-60 0 -60 64
q0 32 68 97q68 64 108 64t39 -28q0 -12 -18 -39q-95 -100 -101 -129t-36 -29z" />
    <glyph glyph-name="Yacute" unicode="&#xdd;" horiz-adv-x="542" 
d="M154 -29q0 195 233 641q-53 92 -72 164q-18 72 -18 206q1 134 21 274t20 176v12q0 26 31 26t65 -24t33 -42q1 -18 -29 -198t-30 -311t22 -207q186 322 406 574q104 120 147 160t67 40t46 -24q39 -41 8 -74q-248 -200 -529 -654t-356 -780q-6 -26 -21 -26t-30 20
q-14 20 -14 47zM914 1825q20 -1 40 -21t21 -41q0 -47 -112 -104q-111 -57 -145 -57t-54 15t-21 36q0 10 96 55q82 49 119 83t56 34z" />
    <glyph glyph-name="Thorn" unicode="&#xde;" horiz-adv-x="813" 
d="M1087 930q0 98 -64 156q-65 58 -175 58t-252 -61q-29 -73 -214 -501t-194 -514q-2 -27 -26 -52t-45 -24q-41 0 -41 49q0 96 102 352q2 4 262 606q-76 -47 -161 -114q-125 -101 -206 -205t-81 -162t141 -59q14 0 14 -15t-30 -33q-31 -17 -82 -17t-92 37q-41 38 -41 97
q0 96 114 237q115 140 291 261q92 66 193 113q84 211 96 309q6 45 35 45q23 0 42 -27q19 -26 19 -74t-53 -198q115 35 209 35q152 0 248 -89q96 -90 96 -220t-106 -254t-288 -218q-181 -92 -292 -92q-39 0 -72 17t-39 37l4 6q23 18 105 31t120 25t101 46q164 86 263 200
t99 212z" />
    <glyph glyph-name="germandbls" unicode="&#xdf;" horiz-adv-x="753" 
d="M854 1069q0 53 -35 53q-75 1 -360 -456l-15 -25q110 55 203 140q95 87 151 161t56 127zM401 319v-16q-2 -8 -2 -20q0 -72 39 -129t88 -58q86 0 179 127q92 129 92 283q0 66 -24 104q-25 38 -71 39q-46 0 -121 -53t-95 -53t-41 17q-19 17 -23 42q-218 -399 -360 -783
t-125 -538q0 -63 -29 -63q-23 0 -36 41t-13 106q0 211 100 485t205 480q104 207 245 435t247 338q106 109 158 109q54 0 90 -47t36 -112q0 -135 -225 -314q31 6 41 6q63 0 103 -60t40 -157q0 -202 -119 -368t-262 -166q-84 0 -140 62t-56 138t18 117t45 41q16 0 16 -33z" />
    <glyph glyph-name="agrave" unicode="&#xe0;" horiz-adv-x="761" 
d="M760 708q0 18 -16 33q-16 16 -42 17q-108 0 -292 -240t-185 -364q0 -43 41 -43q30 0 94 51q64 52 147 148t144 204q23 35 58 133q8 27 30 27q11 0 19 -4v18q2 2 2 20zM244 -6q-63 0 -102 45q-38 45 -38 121q0 123 136 310q136 188 259 290q124 102 210 102q59 0 100 -41
t41 -109t-39 -89q8 -19 8 -31t-22 -70q-82 -213 -82 -368q0 -60 19 -98t20 -52q0 -35 -43 -35q-43 -1 -76 63t-33 139t12 128q-240 -305 -370 -305zM688 1325q25 0 37 -12t20 -45q29 -66 47 -92t54 -71q36 -46 36 -55q0 -8 -12 -18q-14 -10 -28 -10q-45 0 -107 63
q-111 127 -110 187q0 20 19 36t44 17z" />
    <glyph glyph-name="aacute" unicode="&#xe1;" horiz-adv-x="761" 
d="M760 708q0 18 -16 33q-16 16 -42 17q-108 0 -292 -240t-185 -364q0 -43 41 -43q30 0 94 51q64 52 147 148t144 204q23 35 58 133q8 27 30 27q11 0 19 -4v18q2 2 2 20zM244 -6q-63 0 -102 45q-38 45 -38 121q0 123 136 310q136 188 259 290q124 102 210 102q59 0 100 -41
t41 -109t-39 -89q8 -19 8 -31t-22 -70q-82 -213 -82 -368q0 -60 19 -98t20 -52q0 -35 -43 -35q-43 -1 -76 63t-33 139t12 128q-240 -305 -370 -305zM935 1243q19 0 39 -20t21 -41q0 -47 -112 -107q-111 -55 -145 -55t-54 15t-20 36q0 10 96 55q82 49 137 101q19 16 38 16z
" />
    <glyph glyph-name="acircumflex" unicode="&#xe2;" horiz-adv-x="759" 
d="M760 708q0 18 -16 33q-16 16 -42 17q-108 0 -292 -240t-185 -364q0 -43 41 -43q30 0 94 51q64 52 147 148t144 204q23 35 58 133q8 27 30 27q11 0 19 -4v18q2 2 2 20zM244 -6q-63 0 -102 45q-38 45 -38 121q0 123 136 310q136 188 259 290q124 102 210 102q59 0 100 -41
t41 -109t-39 -89q8 -19 8 -31t-22 -70q-82 -213 -82 -368q0 -60 19 -98t20 -52q0 -35 -43 -35q-43 -1 -76 63t-33 139t12 128q-240 -305 -370 -305zM608 1022q-59 0 -59 35q0 23 51 45q86 53 186 147q38 29 87 6q19 -8 25 -17t9 -38q19 -72 39 -108t26 -50t13 -18
q6 -4 6 -22t-22 -19q-49 0 -97 41q-39 37 -57 68l-10 10q-12 -8 -49 -31q-31 -12 -90 -39q-27 -10 -58 -10z" />
    <glyph glyph-name="atilde" unicode="&#xe3;" horiz-adv-x="759" 
d="M760 708q0 18 -16 33q-16 16 -42 17q-108 0 -292 -240t-185 -364q0 -43 41 -43q30 0 94 51q64 52 147 148t144 204q23 35 58 133q8 27 30 27q11 0 19 -4v18q2 2 2 20zM244 -6q-63 0 -102 45q-38 45 -38 121q0 123 136 310q136 188 259 290q124 102 210 102q59 0 100 -41
t41 -109t-39 -89q8 -19 8 -31t-22 -70q-82 -213 -82 -368q0 -60 19 -98t20 -52q0 -35 -43 -35q-43 -1 -76 63t-33 139t12 128q-240 -305 -370 -305zM715 1106q-49 0 -109 -55q-16 -16 -37 -10q-20 7 -20 30q0 47 60 97t155 51q62 1 112 -55t80 -56t64 28q36 28 52 29
q16 0 24 -13q10 -13 10 -32q0 -39 -56 -82t-115 -43t-126 68q-45 43 -94 43z" />
    <glyph glyph-name="adieresis" unicode="&#xe4;" horiz-adv-x="759" 
d="M760 708q0 18 -16 33q-16 16 -42 17q-108 0 -292 -240t-185 -364q0 -43 41 -43q30 0 94 51q64 52 147 148t144 204q23 35 58 133q8 27 30 27q11 0 19 -4v18q2 2 2 20zM244 -6q-63 0 -102 45q-38 45 -38 121q0 123 136 310q136 188 259 290q124 102 210 102q59 0 100 -41
t41 -109t-39 -89q8 -19 8 -31t-22 -70q-82 -213 -82 -368q0 -60 19 -98t20 -52q0 -35 -43 -35q-43 -1 -76 63t-33 139t12 128q-240 -305 -370 -305zM848 1021q0 22 56 86t102 64q47 0 47 -24q0 -14 -43 -54q-44 -40 -58 -71q-25 -54 -54 -48q-30 5 -40 15t-10 32zM721 1071
q0 31 49 78q88 76 109 76q47 -2 47 -27q-1 -8 -21 -37q-86 -86 -94 -115t-37 -28q-53 0 -53 53z" />
    <glyph glyph-name="aring" unicode="&#xe5;" horiz-adv-x="759" 
d="M760 708q0 18 -16 33q-16 16 -42 17q-108 0 -292 -240t-185 -364q0 -43 41 -43q30 0 94 51q64 52 147 148t144 204q23 35 58 133q8 27 30 27q11 0 19 -4v18q2 2 2 20zM244 -6q-63 0 -102 45q-38 45 -38 121q0 123 136 310q136 188 259 290q124 102 210 102q59 0 100 -41
t41 -109t-39 -89q8 -19 8 -31t-22 -70q-82 -213 -82 -368q0 -60 19 -98t20 -52q0 -35 -43 -35q-43 -1 -76 63t-33 139t12 128q-240 -305 -370 -305zM940 1196h-20q-6 0 -16 6t-54 6q-43 0 -72 -39q-10 -14 -10 -16v-31q0 -39 68 -39q34 0 66 30t32 58v5q0 4 6 10v10z
M969 1206q10 0 20 -17t10 -36q0 -70 -59 -118t-135 -48t-116 37q-40 38 -40 102t68 122t130 58t93 -20t31 -49q0 -8 -10 -31h8z" />
    <glyph glyph-name="ae" unicode="&#xe6;" horiz-adv-x="978" 
d="M770 389q39 0 83 28t110 105q90 111 90 167t-39 56q-40 1 -134 -105t-180 -245q31 -6 70 -6zM745 698q0 27 -16 43t-41 17q-106 0 -290 -239t-185 -363q0 -45 42 -45t161 112q100 100 202 254q39 61 78 170q8 27 31 27q10 0 18 -4v28zM228 -6q-60 0 -98 45t-38 121
q0 125 136 311t258 289q124 102 210 102q58 0 98 -38t44 -95q123 111 186 111t95 -32t32 -89q0 -113 -123 -258q-135 -168 -293 -168q-33 0 -84 10q-33 -68 -33 -125q0 -88 82 -88q129 0 283 141q20 20 35 21q20 0 20 -34t-73 -101q-135 -123 -275 -123q-76 0 -130 54
t-58 132q-96 -104 -154 -145q-60 -41 -120 -41z" />
    <glyph glyph-name="ccedilla" unicode="&#xe7;" horiz-adv-x="587" 
d="M133 176q0 102 90 253q89 151 229 278t224 127t84 -68q0 -53 -31 -53q-9 0 -23 11t-38 11q-74 0 -217 -176q-203 -252 -203 -391q0 -36 22 -58t56 -22q115 0 247 113q23 16 33 16q16 0 16 -36q0 -35 -91 -111q-92 -76 -199 -82q-41 -30 16 -94q39 -44 39 -98t-59 -105
q-60 -51 -114 -51t-86 14t-32 30t8 19q8 2 54 4t78 31q30 30 30 70t-35 68t-35 48t40 84q-45 23 -74 71t-29 97z" />
    <glyph glyph-name="egrave" unicode="&#xe8;" horiz-adv-x="606" 
d="M378 389q83 0 182 122t99 178t-36 56q-41 0 -136 -105q-94 -106 -180 -245q31 -6 71 -6zM227 178q0 -88 84 -88q129 0 279 141q20 20 35 21q20 0 20 -36t-74 -99q-135 -123 -272 -123q-78 0 -133 56t-55 147t97 250t228 275q130 116 194 118q64 0 96 -33t32 -90
q0 -111 -123 -256q-135 -168 -293 -168q-31 0 -82 10q-33 -68 -33 -125zM563 1262q-1 20 19 36t45 17q25 0 37 -12t20 -43q29 -66 45 -91t54 -71t38 -56t-13 -19t-28 -9q-45 0 -106 63q-111 127 -111 185z" />
    <glyph glyph-name="eacute" unicode="&#xe9;" horiz-adv-x="606" 
d="M378 389q83 0 182 122t99 178t-36 56q-41 0 -136 -105q-94 -106 -180 -245q31 -6 71 -6zM227 178q0 -88 84 -88q129 0 279 141q20 20 35 21q20 0 20 -36t-74 -99q-135 -123 -272 -123q-78 0 -133 56t-55 147t97 250t228 275q130 116 194 118q64 0 96 -33t32 -90
q0 -111 -123 -256q-135 -168 -293 -168q-31 0 -82 10q-33 -68 -33 -125zM894 1237q20 0 40 -20t20 -41q0 -47 -112 -107q-111 -55 -144 -55t-53 15t-20 36q0 10 94 55q88 53 122 85t53 32z" />
    <glyph glyph-name="ecircumflex" unicode="&#xea;" horiz-adv-x="606" 
d="M378 389q83 0 182 122t99 178t-36 56q-41 0 -136 -105q-94 -106 -180 -245q31 -6 71 -6zM227 178q0 -88 84 -88q129 0 279 141q20 20 35 21q20 0 20 -36t-74 -99q-135 -123 -272 -123q-78 0 -133 56t-55 147t97 250t228 275q130 116 194 118q64 0 96 -33t32 -90
q0 -111 -123 -256q-135 -168 -293 -168q-31 0 -82 10q-33 -68 -33 -125zM547 1012q-59 0 -60 35q0 23 52 45q90 53 186 147q25 14 61 14t52 -26q2 -7 15 -59t34 -87q27 -68 35 -65q10 -8 10 -26t-23 -19q-53 0 -96 40t-57 70q-3 1 -11 9q-12 -6 -45 -26q-32 -20 -80 -36
t-73 -16z" />
    <glyph glyph-name="edieresis" unicode="&#xeb;" horiz-adv-x="606" 
d="M378 389q83 0 182 122t99 178t-36 56q-41 0 -136 -105q-94 -106 -180 -245q31 -6 71 -6zM227 178q0 -88 84 -88q129 0 279 141q20 20 35 21q20 0 20 -36t-74 -99q-135 -123 -272 -123q-78 0 -133 56t-55 147t97 250t228 275q130 116 194 118q64 0 96 -33t32 -90
q0 -111 -123 -256q-135 -168 -293 -168q-31 0 -82 10q-33 -68 -33 -125zM733 1116q0 -34 -31 -66q-32 -32 -70 -32t-62 22t-24 60t37 66q36 28 73 28t57 -22t20 -56zM904 1180q36 0 59 -25t23 -55t-36 -63t-70 -33t-59 20t-25 55t36 68t72 33z" />
    <glyph glyph-name="igrave" unicode="&#xec;" horiz-adv-x="317" 
d="M494 772q0 -24 -35 -78q-35 -55 -105 -205q-137 -294 -137 -407l6 -64q-1 -24 -31 -24t-53 34t-23 104t63 238q62 168 132 290t66 131q14 45 39 49q26 2 52 -21t26 -47zM315 1264q-1 20 19 36t45 17q25 0 37 -12t20 -43q29 -66 45 -91t54 -71t38 -56t-12 -19t-29 -9
q-45 0 -106 63q-111 127 -111 185z" />
    <glyph glyph-name="iacute" unicode="&#xed;" horiz-adv-x="317" 
d="M494 772q0 -24 -35 -78q-35 -55 -105 -205q-137 -294 -137 -407l6 -64q-1 -24 -31 -24t-53 34t-23 104t63 238q62 168 132 290t66 131q14 45 39 49q26 2 52 -21t26 -47zM669 1239q19 0 39 -20t21 -41q0 -46 -112 -104q-113 -58 -145 -58t-52 15t-21 36q0 10 95 55
q88 53 122 85t53 32z" />
    <glyph glyph-name="icircumflex" unicode="&#xee;" horiz-adv-x="317" 
d="M494 772q0 -24 -35 -78q-35 -55 -105 -205q-137 -294 -137 -407l6 -64q-1 -24 -31 -24t-53 34t-23 104t63 238q62 168 132 290t66 131q14 45 39 49q26 2 52 -21t26 -47zM338 1020q-59 0 -59 35q0 23 51 45q90 53 186 147q46 26 89 6q19 -8 23 -15q4 -6 14 -56t26 -77
t29 -53t19 -30t7 -22q0 -18 -23 -19q-49 0 -92 39q-43 40 -53 56t-18 24q-12 -6 -50 -31q-31 -13 -75 -31t-74 -18z" />
    <glyph glyph-name="idieresis" unicode="&#xef;" horiz-adv-x="317" 
d="M494 772q0 -24 -35 -78q-35 -55 -105 -205q-137 -294 -137 -407l6 -64q-1 -24 -31 -24t-53 34t-23 104t63 238q62 168 132 290t66 131q14 45 39 49q26 2 52 -21t26 -47zM436 1190q38 0 58 -22t20 -56t-31 -64q-31 -32 -69 -32t-63 22q-23 22 -23 59t36 65t72 28z
M685 1176q37 0 59 -25t22 -55t-35 -63q-35 -34 -69 -34q-34 1 -60 21q-24 20 -24 55t35 68q36 33 72 33z" />
    <glyph glyph-name="eth" unicode="&#xf0;" horiz-adv-x="593" 
d="M250 190q0 -98 59 -98q98 0 216 178t118 328q0 70 -18 110t-44 40t-37 -11t-30 -47q0 -23 -25 -43q-91 -72 -165 -216q-74 -143 -74 -241zM298 -6q-171 0 -171 191q0 93 53 212t128 205t136 105q2 47 52 91t105 44q56 0 101 -51q23 127 23 262q-61 -6 -94 -6
q-129 0 -129 65q0 53 35 53q9 0 35 -10t74 -10t75 2q-5 61 -17 97t-27 85t-25 79t-11 38q0 29 57 29t84 -27q47 -45 58 -293q125 12 188 39q23 6 27 6q23 0 22 -16q-1 -31 -65 -63t-170 -52v-25q0 -168 -49 -370q-101 -416 -308 -592q-102 -88 -187 -88z" />
    <glyph glyph-name="ntilde" unicode="&#xf1;" horiz-adv-x="745" 
d="M122 -14q-22 0 -44 30t-23 73q0 44 217 474q61 121 74 150q12 29 17 75t39 48q34 0 60 -28t26 -62t-93 -193q-92 -158 -127 -246q47 33 181 162q133 129 216 223t99 108t37 15q21 0 38 -30q17 -29 17 -61t-31 -110q-119 -285 -118 -464q0 -80 45 -142q16 -25 16 -33
q0 -25 -38 -25t-77 40q-55 53 -55 187t96 417q-8 -10 -28 -31t-31 -33l-80 -79q-347 -355 -373 -403t-32 -55t-28 -7zM594 1090q-49 0 -109 -56q-16 -16 -36 -9q-21 7 -21 41t60 84t139 50t127 -54t80 -54q30 0 66 28t51 29q15 0 25 -13t9 -32q0 -39 -56 -82t-115 -43
t-126 68q-45 43 -94 43z" />
    <glyph glyph-name="ograve" unicode="&#xf2;" horiz-adv-x="573" 
d="M250 190q0 -98 59 -98q98 0 216 178t118 328q0 70 -18 110t-44 40t-37 -11t-30 -47q0 -23 -25 -43q-95 -74 -167 -217q-72 -142 -72 -240zM606 842q62 0 105 -60t43 -157q0 -178 -133 -383q-76 -117 -164 -183q-88 -65 -165 -65t-121 50t-44 142t53 211t128 205t136 105
q0 47 50 91t112 44zM477 1262q-1 20 19 36t45 17q25 0 37 -12t20 -43q29 -66 45 -91t54 -71t38 -56t-13 -19t-28 -9q-45 0 -106 63q-111 127 -111 185z" />
    <glyph glyph-name="oacute" unicode="&#xf3;" horiz-adv-x="573" 
d="M250 190q0 -98 59 -98q98 0 216 178t118 328q0 70 -18 110t-44 40t-37 -11t-30 -47q0 -23 -25 -43q-95 -74 -167 -217q-72 -142 -72 -240zM606 842q62 0 105 -60t43 -157q0 -178 -133 -383q-76 -117 -164 -183q-88 -65 -165 -65t-121 50t-44 142t53 211t128 205t136 105
q0 47 50 91t112 44zM880 1235q20 -1 40 -21t20 -40q0 -46 -112 -104t-146 -58t-53 15q-20 15 -21 36q0 10 97 55q82 49 137 101q19 16 38 16z" />
    <glyph glyph-name="ocircumflex" unicode="&#xf4;" horiz-adv-x="573" 
d="M250 190q0 -98 59 -98q98 0 216 178t118 328q0 70 -18 110t-44 40t-37 -11t-30 -47q0 -23 -25 -43q-95 -74 -167 -217q-72 -142 -72 -240zM606 842q62 0 105 -60t43 -157q0 -178 -133 -383q-76 -117 -164 -183q-88 -65 -165 -65t-121 50t-44 142t53 211t128 205t136 105
q0 47 50 91t112 44zM516 1022q-59 0 -59 35q0 23 51 45q86 53 186 147q18 15 58 15t53 -27q6 -11 16 -59q9 -48 31 -86t28 -52t12 -18t7 -22q0 -18 -22 -19q-49 0 -97 41q-37 35 -57 70q-4 4 -10 8q-12 -6 -47 -29q-2 0 -93 -39q-25 -10 -57 -10z" />
    <glyph glyph-name="otilde" unicode="&#xf5;" horiz-adv-x="573" 
d="M250 190q0 -98 59 -98q98 0 216 178t118 328q0 70 -18 110t-44 40t-37 -11t-30 -47q0 -23 -25 -43q-95 -74 -167 -217q-72 -142 -72 -240zM606 842q62 0 105 -60t43 -157q0 -178 -133 -383q-76 -117 -164 -183q-88 -65 -165 -65t-121 50t-44 142t53 211t128 205t136 105
q0 47 50 91t112 44zM971 1112q-1 -39 -57 -82t-114 -43q-58 1 -115 57q-56 56 -104 56t-110 -58q-16 -16 -37 -9q-20 7 -20 30q0 47 60 97t155 50q61 0 127 -69q34 -41 64 -41t66 28t50 29q16 0 26 -13t9 -32z" />
    <glyph glyph-name="odieresis" unicode="&#xf6;" horiz-adv-x="573" 
d="M250 190q0 -98 59 -98q98 0 216 178t118 328q0 70 -18 110t-44 40t-37 -11t-30 -47q0 -23 -25 -43q-95 -74 -167 -217q-72 -142 -72 -240zM606 842q62 0 105 -60t43 -157q0 -178 -133 -383q-76 -117 -164 -183q-88 -65 -165 -65t-121 50t-44 142t53 211t128 205t136 105
q0 47 50 91t112 44zM760 950q-14 0 -28 16t-13 36q-1 22 59 84t101 63q16 0 30 -9q35 -22 -10 -53q-9 -7 -31 -31t-32 -34l-23 -43q-14 -29 -53 -29zM592 1049q0 35 64 94q65 59 104 59q14 0 25 -9t11 -19t-20 -37q-24 -19 -58 -61t-39 -61t-32 -20q-55 0 -55 54z" />
    <glyph glyph-name="divide" unicode="&#xf7;" horiz-adv-x="563" 
d="M471 614q63 0 64 -41q0 -25 -37 -49t-76 -22q-45 0 -45 49q0 27 27 45q28 18 67 18zM424 281q35 0 68 -22t32 -48q0 -41 -84 -41t-86 51q0 60 70 60zM684 483q20 1 20 -23t-30 -42q-50 -33 -148 -57t-188 -23q-147 0 -148 63q0 51 35 52l4 -2q11 0 33 -9q42 -10 138 -10
t259 47l20 4h5z" />
    <glyph glyph-name="oslash" unicode="&#xf8;" horiz-adv-x="602" 
d="M252 178q0 -86 61 -86q80 0 190 141q109 142 136 283l-383 -303q-4 -12 -4 -35zM582 748q-23 0 -34 -11t-30 -47q0 -23 -24 -43q-52 -37 -112 -125t-93 -176l358 285q-12 117 -65 117zM18 8q-27 0 -26 31q0 47 141 176q6 131 116 302t200 190q2 47 51 91t104 44
q109 0 144 -135q61 47 69 55l23 22q12 10 21 20t23 11q14 0 24 -16t10 -42q0 -27 -24 -49t-134 -98l-2 -2q-8 -139 -82 -283t-181 -238q-108 -93 -206 -93q-121 0 -154 127q-52 -44 -75 -79q-23 -34 -42 -34z" />
    <glyph glyph-name="ugrave" unicode="&#xf9;" horiz-adv-x="827" 
d="M129 115q0 121 84 336q31 76 103 220q74 143 90 161t38 18t48 -21q25 -21 6 -55q-106 -182 -182 -359t-74 -235q0 -58 22 -57q41 0 212 204q170 203 250 337t94 152q33 42 79 -7q25 -25 25 -48t-54 -111t-96 -219q-43 -131 -43 -229t64 -163q14 -12 14 -27q0 -33 -37 -32
q-25 0 -43 16q-104 82 -104 250q-1 64 22 162q-162 -205 -213 -263q-131 -152 -213 -151q-92 0 -92 121zM489 1249q-1 20 19 37t45 17q25 -1 37 -13t20 -43q29 -67 45 -91t54 -70q39 -46 39 -56t-14 -19t-27 -10q-45 0 -107 64q-111 127 -111 184z" />
    <glyph glyph-name="uacute" unicode="&#xfa;" horiz-adv-x="827" 
d="M129 115q0 121 84 336q31 76 103 220q74 143 90 161t38 18t48 -21q25 -21 6 -55q-106 -182 -182 -359t-74 -235q0 -58 22 -57q41 0 212 204q170 203 250 337t94 152q33 42 79 -7q25 -25 25 -48t-54 -111t-96 -219q-43 -131 -43 -229t64 -163q14 -12 14 -27q0 -33 -37 -32
q-25 0 -43 16q-104 82 -104 250q-1 64 22 162q-162 -205 -213 -263q-131 -152 -213 -151q-92 0 -92 121zM859 1208q19 0 39 -20t22 -41q0 -47 -112 -105t-146 -57q-34 0 -54 15t-20 36q0 10 96 56q82 49 137 100q19 16 38 16z" />
    <glyph glyph-name="ucircumflex" unicode="&#xfb;" horiz-adv-x="827" 
d="M129 115q0 121 84 336q31 76 103 220q74 143 90 161t38 18t48 -21q25 -21 6 -55q-106 -182 -182 -359t-74 -235q0 -58 22 -57q41 0 212 204q170 203 250 337t94 152q33 42 79 -7q25 -25 25 -48t-54 -111t-96 -219q-43 -131 -43 -229t64 -163q14 -12 14 -27q0 -33 -37 -32
q-25 0 -43 16q-104 82 -104 250q-1 64 22 162q-162 -205 -213 -263q-131 -152 -213 -151q-92 0 -92 121zM514 1053q0 23 51 45q90 53 187 147q46 26 89 6q19 -8 22 -15t15 -62t33 -88q21 -34 28 -48t13 -18t6 -22t-22 -19q-49 0 -93 38t-63 70l-10 11q-120 -80 -188 -80
t-68 35z" />
    <glyph glyph-name="udieresis" unicode="&#xfc;" horiz-adv-x="827" 
d="M129 115q0 121 84 336q31 76 103 220q74 143 90 161t38 18t48 -21q25 -21 6 -55q-106 -182 -182 -359t-74 -235q0 -58 22 -57q41 0 212 204q170 203 250 337t94 152q33 42 79 -7q25 -25 25 -48t-54 -111t-96 -219q-43 -131 -43 -229t64 -163q14 -12 14 -27q0 -33 -37 -32
q-25 0 -43 16q-104 82 -104 250q-1 64 22 162q-162 -205 -213 -263q-131 -152 -213 -151q-92 0 -92 121zM804 999q-54 -1 -54 51q0 24 53 80q59 68 105 68t46 -31q0 -12 -42 -49t-68 -92q-12 -27 -40 -27zM791 1249q37 0 36 -26q0 -19 -54 -75t-62 -83q-4 -21 -32 -21
t-42 16t-14 44q0 29 65 87q66 58 103 58z" />
    <glyph glyph-name="yacute" unicode="&#xfd;" horiz-adv-x="729" 
d="M186 -6q-46 0 -72 33t-26 99t50 164q50 96 186 288t157 247q8 23 30 23t41 -22t19 -46q-1 -24 -39 -79q-38 -54 -150 -232q-112 -177 -140 -233t-29 -90q0 -34 25 -33q28 1 204 153t312 301q41 47 139 176q8 15 24 15q15 0 33 -29q33 -55 6 -109q-12 -26 -67 -122
q-28 -37 -150 -334q-123 -296 -287 -604t-296 -439q-58 -59 -94 -79t-80 -20t-72 37q-29 38 -29 97q0 137 135 344q84 123 157 202t106 79q18 0 18 -9q1 -10 -69 -96t-160 -266t-91 -252q0 -35 31 -35q94 0 338 465q212 398 294 628q40 112 58 157q-397 -379 -512 -379z
M937 1219q19 -1 39 -21t21 -41q1 -47 -111 -104t-146 -57t-54 14q-20 16 -20 37q0 10 96 55q82 49 137 100q19 17 38 17z" />
    <glyph glyph-name="thorn" unicode="&#xfe;" horiz-adv-x="638" 
d="M313 88q72 0 164 89t157 215t64 222q0 35 -9 61t-21 25q-35 0 -150 -118q-172 -183 -278 -402q14 -92 73 -92zM680 793q60 0 92 -41q31 -41 31 -107q0 -145 -79 -298t-201 -253t-236 -100q-35 0 -71 20t-50 47q-72 -135 -160 -354t-115 -328q-6 -25 -20 -24q-20 0 -39 29
q-18 29 -18 57q0 92 229 622q107 247 249 605t206 495t78 187t23 61q9 10 31 10q22 -1 48 -25t24 -44q0 -20 -63 -142t-163 -358t-144 -360q88 133 188 217t160 84z" />
    <glyph glyph-name="ydieresis" unicode="&#xff;" horiz-adv-x="729" 
d="M186 -6q-46 0 -72 33t-26 99t50 164q50 96 186 288t157 247q8 23 30 23t41 -22t19 -46q-1 -24 -39 -79q-38 -54 -150 -232q-112 -177 -140 -233t-29 -90q0 -34 25 -33q28 1 204 153t312 301q41 47 139 176q8 15 24 15q15 0 33 -29q33 -55 6 -109q-12 -26 -67 -122
q-28 -37 -150 -334q-123 -296 -287 -604t-296 -439q-58 -59 -94 -79t-80 -20t-72 37q-29 38 -29 97q0 137 135 344q84 123 157 202t106 79q18 0 18 -9q1 -10 -69 -96t-160 -266t-91 -252q0 -35 31 -35q94 0 338 465q212 398 294 628q40 112 58 157q-397 -379 -512 -379z
M649 1022q-39 0 -63 22t-23 59q0 37 36 65t73 28t57 -22q21 -22 21 -55t-31 -65t-70 -32zM921 1182q37 0 59 -25q50 -56 -13 -118q-35 -33 -70 -33t-59 20t-25 55q0 35 36 68t72 33z" />
    <glyph glyph-name="Amacron" unicode="&#x100;" horiz-adv-x="1019" 
d="M969 1708q15 0 35 -9t106 -9t209 34q19 4 35 4t16 -16q0 -41 -105 -79t-217 -38t-112 62q0 51 33 51zM836 682q49 205 145 530q-180 -229 -432 -598q178 39 287 68zM856 -72q0 -29 -27 -28q-68 0 -67 270q0 162 55 430q-143 -43 -340 -92q-279 -418 -303 -496
q-8 -20 -30 -20t-50 24q-26 24 -26 46q0 24 32 67q0 2 12 17t33 53q83 124 189 278l-115 -14q-39 -4 -47 -4q-68 0 -70 73q0 27 21 27h8q41 -4 67 -4t167 25l49 8q215 295 404 552t190 275q10 23 16 28t28 5t57 -30q36 -30 36 -51q-1 -21 -25 -89t-73 -248
q-49 -182 -57 -208t-11 -43q-4 -17 -6 -21l-8 -41l61 18q68 21 82 21t14 -17q0 -35 -80 -63l-98 -35q-92 -426 -92 -618v-29l4 -57v-9z" />
    <glyph glyph-name="amacron" unicode="&#x101;" horiz-adv-x="759" 
d="M760 708q0 18 -16 33q-16 16 -42 17q-108 0 -292 -240t-185 -364q0 -43 41 -43q30 0 94 51q64 52 147 148t144 204q23 35 58 133q8 27 30 27q11 0 19 -4v18q2 2 2 20zM244 -6q-63 0 -102 45q-38 45 -38 121q0 123 136 310q136 188 259 290q124 102 210 102q59 0 100 -41
t41 -109t-39 -89q8 -19 8 -31t-22 -70q-82 -213 -82 -368q0 -60 19 -98t20 -52q0 -35 -43 -35q-43 -1 -76 63t-33 139t12 128q-240 -305 -370 -305zM530 1130q14 0 35 -9t107 -9t209 35q20 4 30 4q20 0 21 -16q0 -41 -106 -79t-217 -38q-112 0 -111 61q-1 51 32 51z" />
    <glyph glyph-name="Abreve" unicode="&#x102;" horiz-adv-x="1019" 
d="M864 682q49 205 146 530q-180 -229 -432 -598q177 39 286 68zM885 -72q0 -29 -27 -28q-68 0 -67 270q0 162 55 430q-143 -43 -340 -92q-279 -418 -303 -496q-8 -20 -31 -20q-24 0 -50 24t-26 46q0 24 33 67q0 2 12 17t63 96q52 81 158 235l-114 -14q-39 -4 -47 -4
q-68 0 -70 73q0 27 21 27h8q40 -4 66 -4t167 25l49 8q214 295 404 552t190 275q10 23 16 28t28 5t58 -30t36 -51t-24 -89t-74 -248q-50 -182 -57 -208t-11 -43t-7 -21l-8 -41l62 18q68 21 82 21t14 -17q0 -35 -80 -63l-98 -35q-92 -426 -92 -618v-29l4 -57v-9zM985 1796
q0 20 28 20q27 0 49 -10t56 -44t63 -34q30 0 72 15q82 35 117 35q59 0 60 -39q0 -11 -12 -19t-53 -32q-42 -24 -83 -56q-41 -31 -60 -41t-53 -10t-66 33t-93 133l-15 25q-10 16 -10 24z" />
    <glyph glyph-name="abreve" unicode="&#x103;" horiz-adv-x="759" 
d="M760 708q0 18 -16 33q-16 16 -42 17q-108 0 -292 -240t-185 -364q0 -43 41 -43q30 0 94 51q64 52 147 148t144 204q23 35 58 133q8 27 30 27q11 0 19 -4v18q2 2 2 20zM244 -6q-63 0 -102 45q-38 45 -38 121q0 123 136 310q136 188 259 290q124 102 210 102q59 0 100 -41
t41 -109t-39 -89q8 -19 8 -31t-22 -70q-82 -213 -82 -368q0 -60 19 -98t20 -52q0 -35 -43 -35q-43 -1 -76 63t-33 139t12 128q-240 -305 -370 -305zM588 1219q0 20 28 20t49 -10t55 -44t68 -34q34 -1 92 23t93 24q59 0 59 -37q0 -12 -11 -20q-11 -7 -53 -31t-82 -55t-60 -41
t-54 -10t-66 32t-75 101t-43 82z" />
    <glyph glyph-name="Aogonek" unicode="&#x104;" horiz-adv-x="1019" 
d="M864 682q49 205 146 530q-180 -229 -432 -598q177 39 286 68zM881 80q0 -31 6 -86q-21 -53 -21 -99t52 -92q20 -16 77 -39q14 -6 15 -18q0 -35 -66 -35t-118 52t-52 122q0 35 25 113h2q-42 198 45 602q-143 -43 -340 -92q-279 -418 -303 -496q-8 -20 -31 -20
q-24 0 -50 24t-26 46q0 24 33 67q0 2 12 17t63 97q52 81 158 234l-114 -14q-38 -4 -58 -4t-39 19t-19 50t20 31h8q40 -4 64 -4t169 25l49 8q84 117 339 463t255 364q10 23 16 28t28 5t58 -30t36 -56t-24 -88t-74 -244t-57 -208t-11 -43t-7 -21l-8 -41l62 18q68 21 82 21
t14 -17q0 -34 -80 -63l-98 -35q-92 -422 -92 -561z" />
    <glyph glyph-name="aogonek" unicode="&#x105;" horiz-adv-x="759" 
d="M760 708q0 18 -16 33q-16 16 -42 17q-106 0 -291 -239t-186 -363q0 -45 42 -45t161 112q100 100 203 254q39 61 78 170q8 27 30 27q11 0 19 -4v18q2 2 2 20zM602 193q0 53 12 106q-240 -305 -370 -305q-63 0 -102 45q-38 45 -38 121q0 125 136 311q136 187 259 289
q124 102 210 102q59 0 100 -41t41 -109t-39 -89q8 -15 8 -29t-22 -72q-82 -217 -82 -368q0 -58 19 -98q20 -40 20 -53t-34 -53t-34 -85t24 -70t93 -51q16 -8 16 -25q-1 -35 -67 -35t-117 54q-51 53 -51 128t71 138q-53 59 -53 189z" />
    <glyph glyph-name="Cacute" unicode="&#x106;" horiz-adv-x="1021" 
d="M311 262q0 -170 103 -170q110 0 282 110t297 257q23 29 37 28q20 0 21 -28q0 -84 -162 -236q-111 -102 -235 -167q-124 -64 -228 -64t-172 80q-66 80 -66 221q0 188 162 493q125 238 324 454t342 198q66 -8 104 -56t39 -109q0 -62 -20 -99t-48 -37t-28 30l8 64
q0 43 -21 71q-22 28 -53 27q-82 0 -220 -142t-263 -353q-203 -336 -203 -572zM1218 1810q19 0 39 -20t21 -41q0 -47 -112 -105t-146 -57q-34 -1 -53 15q-20 16 -21 36q0 10 96 56q82 49 138 100q19 16 38 16z" />
    <glyph glyph-name="cacute" unicode="&#x107;" horiz-adv-x="587" 
d="M666 735q-72 0 -217 -176q-203 -252 -203 -391q0 -36 22 -58t58 -22q113 0 247 111q17 16 33 16t16 -31t-55 -84q-123 -113 -245 -112q-78 0 -135 55q-56 55 -56 144t90 240q89 151 229 279t224 128t84 -70q0 -53 -31 -53q-12 0 -25 12t-36 12zM927 1249q19 0 39 -20
t21 -41q0 -46 -112 -104q-111 -58 -145 -58t-54 15t-21 36q0 10 97 56q82 49 137 100q19 16 38 16z" />
    <glyph glyph-name="Ccaron" unicode="&#x10c;" horiz-adv-x="1021" 
d="M311 262q0 -170 103 -170q110 0 282 110t297 257q23 29 37 28q20 0 21 -28q0 -84 -162 -236q-111 -102 -235 -167q-124 -64 -228 -64t-172 80q-66 80 -66 221q0 188 162 493q125 238 324 454t342 198q66 -8 104 -56t39 -109q0 -62 -20 -99t-48 -37t-28 30l8 64
q0 43 -21 71q-22 28 -53 27q-82 0 -220 -142t-263 -353q-203 -336 -203 -572zM1292 1831q59 0 60 -35q0 -23 -52 -45q-90 -53 -186 -147q-44 -25 -76 -12t-37 22q-2 6 -13 56q-12 50 -26 73q-14 24 -27 53t-20 33t-8 22q0 18 23 19q53 0 96 -41q40 -35 50 -53t20 -25
q12 5 34 21t54 27q30 11 52 21t56 11z" />
    <glyph glyph-name="ccaron" unicode="&#x10d;" horiz-adv-x="587" 
d="M666 735q-72 0 -217 -176q-203 -252 -203 -391q0 -36 22 -58t58 -22q113 0 247 111q17 16 33 16t16 -31t-55 -84q-123 -113 -245 -112q-78 0 -135 55q-56 55 -56 144t90 240q89 151 229 279t224 128t84 -70q0 -53 -31 -53q-12 0 -25 12t-36 12zM1042 1227q0 -23 -51 -45
q-90 -53 -186 -148q-25 -14 -47 -14t-42 8t-22 16q-4 8 -15 57q-11 48 -33 88t-29 54q-7 15 -13 19t-6 22t23 19q53 0 95 -40t60 -71q4 -4 10 -8q38 23 140 67q25 10 57 11q59 0 59 -35z" />
    <glyph glyph-name="Dcaron" unicode="&#x10e;" horiz-adv-x="1302" 
d="M444 928h9q9 2 25 2t16 -13t-24 -25t-62 -13q-38 1 -74 23q-35 22 -35 56q0 72 78 178t190 189q225 166 475 166q27 0 93 -6q4 16 4 18q9 37 31 37t40 -24t21 -56q121 -45 182 -102q158 -139 158 -343t-126 -408t-349 -365q-342 -248 -662 -248q-127 0 -214 49t-87 123
q0 41 21 41q8 0 14 -6t33 -45q45 -66 208 -66t344 76t351 211q379 303 379 641q0 90 -39 169t-109 128q-37 27 -123 55q-121 -287 -227 -506q-254 -532 -266 -624q-6 -35 -29 -35q-37 0 -37 59q0 141 305 801q80 172 83 183t20 51l26 65q8 15 11 27q-20 4 -45 4
q-217 0 -428 -152q-92 -67 -164 -153t-72 -127q0 -35 55 -35zM1534 1835q59 0 59 -35q0 -23 -51 -45q-90 -53 -186 -147q-25 -14 -62 -14t-51 26q-2 6 -13 54t-36 91l-20 41q-12 25 -18 29q-6 5 -7 23q0 18 22 18q49 0 97 -41q41 -39 59 -70l8 -8q13 5 41 23t51 25t49 19
t58 11z" />
    <glyph glyph-name="dcaron" unicode="&#x10f;" horiz-adv-x="792" 
d="M225 154q0 -41 25 -41q47 0 160 135t260 364q-8 64 -20 84t-41 20q-30 0 -90 -53q-60 -54 -124 -139q-170 -227 -170 -370zM215 -6q-49 0 -80 43t-31 119t60 202q59 127 158 252q182 229 305 230q37 0 65 -34t43 -91q141 307 207 437t82 182t26 66q10 13 32 13t42 -19
t20 -47q0 -27 -66 -133t-164 -343t-134 -394q-37 -157 -37 -265t23 -169q4 -12 4 -18q0 -29 -39 -29t-69 54t-29 144q0 90 31 246q-142 -214 -260 -330t-189 -116zM1366 1391q29 -1 49 -19t19 -41q-4 -68 -121 -205q-59 -70 -101 -70t-41 21q0 8 31 47q90 121 125 232
q10 35 39 35z" />
    <glyph glyph-name="Dcroat" unicode="&#x110;" horiz-adv-x="1302" 
d="M1053 1395q-217 0 -428 -152q-90 -67 -163 -153t-73 -124t55 -38h9q9 2 25 2t16 -13t-24 -25t-62 -13q-38 1 -74 23q-35 22 -35 56q0 72 78 178t190 189q229 166 475 166q27 0 93 -6q4 16 4 18q9 37 31 37t40 -24t21 -56q117 -45 182 -102q158 -139 158 -343t-126 -408
t-349 -365q-342 -248 -662 -248q-127 0 -214 49t-87 121q0 43 21 43q8 0 14 -6t33 -45q45 -66 208 -66t344 76t351 211q379 303 379 641q0 90 -39 169t-109 128q-37 27 -123 55q-127 -299 -229 -512q83 16 115 28t41 11q23 0 22 -16q0 -61 -221 -113q-133 -285 -173 -380
t-47 -139t-30 -44q-35 0 -37 57q0 109 162 486l-33 -3q-27 0 -32 -2h-35q-129 0 -129 64q0 53 35 53q9 0 35 -9t78 -9t126 4q193 434 225 514l13 33q-20 2 -45 2z" />
    <glyph glyph-name="dcroat" unicode="&#x111;" horiz-adv-x="792" 
d="M614 717q-74 0 -219 -193q-76 -102 -123 -203t-47 -155t25 -53q47 0 160 135t260 364q-8 61 -20 83t-36 22zM805 1053q-129 0 -129 65q0 53 35 53q9 0 35 -10t84 -10t118 8q76 156 80 187q23 68 49 67q27 0 47 -19t20 -47q0 -27 -30 -79q-32 -52 -61 -103q99 17 133 29
t43 12q23 0 22 -16q-1 -31 -69 -63t-176 -52q-117 -256 -170 -407q-92 -268 -93 -467q0 -96 23 -158q4 -12 4 -18q0 -29 -38 -29t-68 53t-31 145q0 92 31 246q-142 -214 -260 -330t-189 -116q-49 0 -80 43t-31 119t60 202q59 127 158 252q182 229 305 230q37 0 65 -34
t43 -91l162 344q-57 -6 -92 -6z" />
    <glyph glyph-name="Emacron" unicode="&#x112;" horiz-adv-x="970" 
d="M831 1722q14 0 35 -9q22 -9 106 -9t210 33q25 4 30 4q20 0 21 -17q1 -38 -105 -76t-218 -38t-111 61q-1 51 32 51zM420 1208q-20 0 -39 22t-19 48t12 33t87 39q76 32 209 63v4l2 6q7 66 40 66q34 0 50 -59q128 16 232 16t216 -28t113 -60q0 -23 -25 -23q-8 1 -70 13
t-194 12t-286 -27q-29 -131 -193 -481q137 18 221 18t150 -22t65 -55q0 -23 -28 -23q-4 0 -40 7q-35 7 -133 7t-286 -36q-6 -10 -41 -83t-150 -301q-116 -229 -120 -255q205 63 369 63t279 -35q116 -35 115 -76q0 -14 -22 -14q-6 -1 -73 13t-183 14q-256 0 -485 -76
q-20 -4 -29 -4q-35 0 -66 34q-30 34 -30 68t36 112q37 79 258 521q-37 27 -36 59q0 35 47 35q4 2 10 2l12 2l19 2q158 319 219 476q-123 -35 -158 -66t-55 -31z" />
    <glyph glyph-name="emacron" unicode="&#x113;" horiz-adv-x="606" 
d="M378 389q83 0 182 122t99 178t-36 56q-41 0 -136 -105q-94 -106 -180 -245q31 -6 71 -6zM227 178q0 -88 84 -88q129 0 279 141q20 20 35 21q20 0 20 -36t-74 -99q-135 -123 -272 -123q-78 0 -133 56t-55 147t97 250t228 275q130 116 194 118q64 0 96 -33t32 -90
q0 -111 -123 -256q-135 -168 -293 -168q-31 0 -82 10q-33 -68 -33 -125zM573 1133q14 1 35 -9q22 -10 106 -10t210 33q25 4 30 4q20 0 21 -16q1 -39 -105 -77t-218 -38t-111 61q-1 52 32 52z" />
    <glyph glyph-name="Edotaccent" unicode="&#x116;" horiz-adv-x="970" 
d="M988 1765q36 -1 59 -25t23 -54t-36 -63q-36 -34 -70 -34q-34 1 -59 21t-25 55t36 68q36 32 72 32zM420 1208q-20 0 -39 22t-19 48t12 33t87 39q76 32 209 63v4l2 6q7 66 40 66q34 0 50 -59q128 16 232 16t216 -28t113 -60q0 -23 -25 -23q-8 1 -70 13t-194 12t-286 -27
q-29 -131 -193 -481q137 18 221 18t150 -22t65 -55q0 -23 -28 -23q-4 0 -40 7q-35 7 -133 7t-286 -36q-6 -10 -41 -83t-150 -301q-116 -229 -120 -255q205 63 369 63t279 -35q116 -35 115 -76q0 -14 -22 -14q-6 -1 -73 13t-183 14q-256 0 -485 -76q-20 -4 -29 -4
q-35 0 -66 34q-30 34 -30 68t36 112q37 79 258 521q-37 27 -36 59q0 35 47 35q4 2 10 2l12 2l19 2q158 319 219 476q-123 -35 -158 -66t-55 -31z" />
    <glyph glyph-name="edotaccent" unicode="&#x117;" horiz-adv-x="606" 
d="M378 389q83 0 182 122t99 178t-36 56q-41 0 -136 -105q-94 -106 -180 -245q31 -6 71 -6zM227 178q0 -88 84 -88q129 0 279 141q20 20 35 21q20 0 20 -36t-74 -99q-135 -123 -272 -123q-78 0 -133 56t-55 147t97 250t228 275q130 116 194 118q64 0 96 -33t32 -90
q0 -111 -123 -256q-135 -168 -293 -168q-31 0 -82 10q-33 -68 -33 -125zM764 1018q-36 0 -60 20t-24 56t36 68t72 32t59 -26q51 -56 -13 -116q-36 -34 -70 -34z" />
    <glyph glyph-name="Eogonek" unicode="&#x118;" horiz-adv-x="970" 
d="M420 1208q-20 0 -39 22t-19 48t12 33q12 8 87 40q76 32 209 62v4l2 6q7 66 40 66q34 0 50 -59q128 16 232 16t216 -28t113 -60q0 -23 -25 -23q-8 1 -70 13t-194 12t-286 -27q-29 -131 -193 -481q137 18 221 18t150 -22t65 -55q0 -23 -28 -23q-4 0 -40 7q-35 7 -139 7
t-280 -36q-6 -10 -41 -83t-150 -301q-116 -229 -120 -255q205 63 367 63t280 -34q117 -34 116 -75q0 -33 -43 -32q-45 -57 -45 -101t24 -68t91 -52q16 -8 16 -25q-1 -35 -67 -35t-117 53t-51 126t63 134q-123 14 -157 15q-244 0 -480 -80q-16 -4 -26 -4q-35 0 -66 34
q-30 34 -30 68t36 112q37 79 258 521q-37 27 -36 59q0 35 47 35q4 2 10 2l12 2l19 2q158 319 219 476q-123 -35 -158 -66t-55 -31z" />
    <glyph glyph-name="eogonek" unicode="&#x119;" horiz-adv-x="606" 
d="M376 389q80 0 193 133q90 111 90 167t-36 56q-41 0 -138 -106q-96 -107 -178 -244q31 -6 69 -6zM758 719q0 -113 -123 -258q-135 -168 -293 -168q-35 0 -82 12q-33 -72 -33 -127q0 -88 82 -88q131 0 281 141q20 20 35 21q20 0 20 -29q0 -51 -107 -136t-223 -91
q-59 -78 -59 -122t24 -69t89 -53q16 -6 16 -22q1 -35 -65 -35t-117 53t-51 123t49 125l16 16q-47 25 -77 72t-29 98q0 106 97 265t228 275q130 116 194 118q64 0 96 -32t32 -89z" />
    <glyph glyph-name="Ecaron" unicode="&#x11a;" horiz-adv-x="970" 
d="M1221 1833q59 0 59 -35q0 -23 -51 -45q-90 -53 -187 -147q-44 -25 -76 -12q-32 12 -35 20t-14 58t-31 83q-20 34 -29 53t-15 23t-6 22t22 19q53 0 96 -41q44 -41 52 -55t11 -17q3 -2 5 -6q60 40 90 49q30 10 52 20t57 11zM420 1208q-20 0 -39 22t-19 48t12 33t87 39
q76 32 209 63v4l2 6q7 66 40 66q34 0 50 -59q128 16 232 16t216 -28t113 -60q0 -23 -25 -23q-8 1 -70 13t-194 12t-286 -27q-29 -131 -193 -481q137 18 221 18t150 -22t65 -55q0 -23 -28 -23q-4 0 -40 7q-35 7 -133 7t-286 -36q-6 -10 -41 -83t-150 -301
q-116 -229 -120 -255q205 63 369 63t279 -35q116 -35 115 -76q0 -14 -22 -14q-6 -1 -73 13t-183 14q-256 0 -485 -76q-20 -4 -29 -4q-35 0 -66 34q-30 34 -30 68t36 112q37 79 258 521q-37 27 -36 59q0 35 47 35q4 2 10 2l12 2l19 2q158 319 219 476q-123 -35 -158 -66
t-55 -31z" />
    <glyph glyph-name="ecaron" unicode="&#x11b;" horiz-adv-x="606" 
d="M378 389q83 0 182 122t99 178t-36 56q-41 0 -136 -105q-94 -106 -180 -245q31 -6 71 -6zM227 178q0 -88 84 -88q129 0 279 141q20 20 35 21q20 0 20 -36t-74 -99q-135 -123 -272 -123q-78 0 -133 56t-55 147t97 250t228 275q130 116 194 118q64 0 96 -33t32 -90
q0 -111 -123 -256q-135 -168 -293 -168q-31 0 -82 10q-33 -68 -33 -125zM1040 1212q0 -23 -51 -45q-90 -53 -186 -147q-25 -14 -61 -14t-52 26q-2 6 -13 54q-11 49 -30 83q-19 33 -29 54t-16 25t-6 22t22 18q49 0 97 -41q45 -42 59 -69l8 -9q12 6 49 29q17 6 66 28
q49 21 96 21t47 -35z" />
    <glyph glyph-name="Gbreve" unicode="&#x11e;" horiz-adv-x="991" 
d="M1006 1327q-84 0 -228 -145t-274 -367q-100 -164 -165 -333q-65 -170 -65 -240t23 -101t59 -30q66 -1 222 117t265 241t109 151t-15 28t-125 -36t-191 -37q-23 1 -38 17t-16 43q0 63 49 63h23q76 0 350 60q25 4 47 4t46 -28t24 -60t-28 -79q-28 -48 -100 -219t-73 -333
q-1 -53 9 -85t10 -42q0 -29 -23 -29q-39 0 -66 68q-28 68 -28 162t39 229q-344 -352 -504 -352q-74 0 -122 68t-48 169q0 163 127 433t303 483q240 289 410 289q66 0 108 -50t43 -111q0 -62 -19 -100t-47 -38t-28 37l6 55q0 39 -20 69t-49 29zM1066 1745q30 0 73 14
q82 35 116 35q59 0 60 -39q0 -10 -11 -18q-11 -9 -53 -33t-83 -55q-40 -31 -60 -41t-54 -10t-66 31q-32 32 -93 134l-14 25q-10 16 -11 24q0 20 28 20t50 -9q22 -10 55 -44t63 -34z" />
    <glyph glyph-name="gbreve" unicode="&#x11f;" horiz-adv-x="649" 
d="M680 698q0 22 -16 23q-27 0 -107 -74t-168 -178q-199 -240 -199 -344q0 -29 19 -29q51 0 174 122t281 331q-45 16 -46 51q0 14 31 45t31 53zM735 844q76 0 76 -90q0 -50 -59 -140q61 -10 61 -32q0 -6 -14 -26q-13 -20 -67 -166q-54 -144 -255 -689q-47 -127 -131 -275
t-168 -249q-129 -160 -246 -160q-55 0 -88 43t-32 119q0 238 256 516q109 121 159 121q25 0 25 -14t-69 -91q-69 -76 -156 -211q-117 -193 -117 -321q0 -76 45 -76t117 81q72 82 162 244t172 361q81 199 194 539q-154 -184 -246 -259t-166 -75q-106 0 -106 114t140 308
t282 311t231 117zM604 1239q0 21 28 21t50 -12t54 -45q34 -34 64 -34t72 15q82 35 117 35q59 0 60 -39q1 -10 -11 -18t-54 -34q-42 -24 -83 -55t-60 -41t-53 -10t-67 34t-92 134l-15 24q-10 16 -10 25z" />
    <glyph glyph-name="Gcommaaccent" unicode="&#x122;" horiz-adv-x="993" 
d="M1006 1327q-84 0 -228 -145t-274 -367q-100 -164 -165 -333q-65 -170 -65 -240t23 -101t59 -30q66 -1 222 117t265 241t109 151t-15 28t-125 -36t-191 -37q-23 1 -38 17t-16 43q0 63 49 63h23q76 0 350 60q25 4 47 4t46 -28t24 -60t-28 -79q-28 -48 -100 -219t-73 -333
q-1 -53 9 -85t10 -42q0 -29 -23 -29q-39 0 -66 68q-28 68 -28 162t39 229q-344 -352 -504 -352q-74 0 -122 68t-48 169q0 163 127 433t303 483q240 289 410 289q66 0 108 -50t43 -111q0 -62 -19 -100t-47 -38t-28 37l6 55q0 39 -20 69t-49 29zM477 -152q29 0 49 -18t19 -41
q-4 -68 -121 -205q-58 -70 -100 -70t-41 21q0 8 30 47q90 121 125 232q10 34 39 34z" />
    <glyph glyph-name="gcommaaccent" unicode="&#x123;" horiz-adv-x="649" 
d="M680 698q0 22 -16 23q-27 0 -107 -74t-168 -178q-199 -240 -199 -344q0 -29 19 -29q51 0 174 122t281 331q-45 16 -46 51q0 14 31 45t31 53zM735 844q76 0 76 -90q0 -50 -59 -140q61 -10 61 -32q0 -6 -14 -26q-13 -20 -67 -166q-54 -144 -255 -689q-47 -127 -131 -275
t-168 -249q-129 -160 -246 -160q-55 0 -88 43t-32 119q0 238 256 516q109 121 159 121q25 0 25 -14t-69 -91q-69 -76 -156 -211q-117 -193 -117 -321q0 -76 45 -76t117 81q72 82 162 244t172 361q81 199 194 539q-154 -184 -246 -259t-166 -75q-106 0 -106 114t140 308
t282 311t231 117zM989 1360q41 0 41 -21q0 -10 -31 -47q-92 -123 -125 -231q-12 -35 -41 -35t-49 18q-63 57 103 246q61 70 102 70z" />
    <glyph glyph-name="Imacron" unicode="&#x12a;" horiz-adv-x="331" 
d="M665 1493q26 0 45 -27q19 -28 19 -76q0 -96 -268 -710q-143 -330 -189 -446t-48 -154t-26 -64q-24 -25 -46 -24q-41 0 -41 53q0 123 245 678q146 327 202 477t73 248q8 45 34 45zM549 1720q15 0 35 -9t105 -9t210 33q25 4 31 4q20 0 20 -17q0 -38 -105 -76t-217 -38
t-112 61q0 51 33 51z" />
    <glyph glyph-name="imacron" unicode="&#x12b;" horiz-adv-x="317" 
d="M494 772q0 -24 -35 -78q-35 -55 -105 -205q-137 -294 -137 -407l6 -64q-1 -24 -31 -24t-53 34t-23 104t63 238q62 168 132 290t66 131q14 45 39 49q26 2 52 -21t26 -47zM346 1135q14 1 35 -9t105 -10t210 33q25 4 31 4q20 0 21 -16q0 -39 -106 -77t-217 -38
q-112 0 -112 61q0 52 33 52z" />
    <glyph glyph-name="Iogonek" unicode="&#x12e;" horiz-adv-x="331" 
d="M152 -91q0 -40 24 -64t90 -52q16 -8 17 -24q0 -35 -66 -35t-117 53t-51 126t62 134q1 125 247 678t273 723q8 45 34 45t45 -27t19 -76q0 -99 -268 -710q-141 -324 -187 -442t-51 -157q-4 -40 -10 -46l-41 -55q-20 -31 -20 -71z" />
    <glyph glyph-name="iogonek" unicode="&#x12f;" horiz-adv-x="317" 
d="M642 1157q28 -1 58 -25t29 -55q0 -53 -55 -53q-37 0 -65 23q-27 23 -27 49t16 44q16 17 44 17zM170 -108q0 -46 23 -70t90 -51q16 -8 16 -25q1 -35 -65 -35t-117 53t-51 129t77 146q-16 33 -16 97t60 226t132 290t68 139q16 49 43 49q26 0 50 -20t24 -46q0 -25 -35 -80
t-103 -202t-94 -213q-45 -133 -45 -195l6 -64q0 -16 -16 -24q-47 -58 -47 -104z" />
    <glyph glyph-name="Idotaccent" unicode="&#x130;" horiz-adv-x="331" 
d="M665 1493q26 0 45 -27q19 -28 19 -76q0 -96 -268 -710q-143 -330 -189 -446t-48 -154t-26 -64q-24 -25 -46 -24q-41 0 -41 53q0 123 245 678q146 327 202 477t73 248q8 45 34 45zM739 1589q-35 1 -59 21t-25 55q0 35 36 67t72 33q37 -1 59 -25t22 -54t-35 -63
q-35 -34 -70 -34z" />
    <glyph glyph-name="dotlessi" unicode="&#x131;" horiz-adv-x="317" 
d="M494 772q0 -24 -35 -78q-35 -55 -105 -205q-137 -294 -137 -407l6 -64q-1 -24 -31 -24t-53 34t-23 104t63 238q62 168 132 290t66 131q14 45 39 49q26 2 52 -21t26 -47z" />
    <glyph glyph-name="Kcommaaccent" unicode="&#x136;" horiz-adv-x="954" 
d="M1059 -102q0 -29 -40 -29t-89 25t-84 59q-199 193 -228 612q-162 -176 -389 -475q-55 -72 -67 -85t-31 -13t-37 24t-18 48t95 266t201 486t146 349q39 104 60 217q6 43 40 43q23 0 40 -19t18 -46q0 -72 -43 -196t-123 -313t-217 -513q256 305 412 470t301 284
q250 205 329 204q21 0 37 -10q45 -27 -22 -63q-225 -109 -617 -531q4 -287 84 -501t201 -257q41 -18 41 -36zM434 -150q29 0 49 -18q62 -56 -102 -248q-59 -70 -101 -70t-40 21q0 10 30 47q96 133 125 234q10 34 39 34z" />
    <glyph glyph-name="kcommaaccent" unicode="&#x137;" horiz-adv-x="774" 
d="M870 834q27 0 27 -33q0 -21 -14 -37t-60 -45q-121 -74 -272 -221q0 -136 50 -266t124 -179q35 -25 35 -41q0 -29 -47 -28q-78 0 -158 102q-90 119 -113 299q-172 -188 -272 -358q-18 -33 -43 -33t-45 18t-21 39q0 7 202 535q203 528 239 609t41 93q10 35 35 35
q26 0 48 -26t22 -45t-47 -111q-46 -92 -333 -805q160 190 357 344t245 154zM363 -152q29 0 49 -18q61 -54 -103 -246q-59 -70 -100 -70t-41 21q0 8 31 47q90 121 125 232q10 34 39 34z" />
    <glyph glyph-name="Lacute" unicode="&#x139;" horiz-adv-x="796" 
d="M489 137q129 0 215 -31t87 -81q0 -18 -23 -19q-4 0 -23 6q-80 27 -219 27t-303 -41q-16 -4 -26 -4q-39 0 -73 34t-34 66t27 83q27 52 409 1023q49 147 54 244q2 41 34 41t50 -25q20 -25 20 -65q0 -104 -116 -433t-224 -575t-119 -281q135 31 264 31zM912 1831
q20 -1 40 -21t21 -41q0 -47 -112 -104q-111 -57 -145 -57t-54 15t-21 36q0 10 96 55q82 49 137 101q19 16 38 16z" />
    <glyph glyph-name="lacute" unicode="&#x13a;" horiz-adv-x="294" 
d="M624 1405q22 0 48 -25t24 -45q0 -21 -48 -109t-152 -330t-177 -438q-73 -198 -73 -306q0 -57 17 -90t17 -41q0 -7 -10 -17q-12 -10 -28 -10q-43 0 -71 48t-28 146t69 294t206 497t151 353t23 63q10 10 32 10zM933 1724q19 0 39 -20t21 -41q0 -47 -112 -107
q-111 -55 -144 -55q-33 -1 -53 15t-20 36q0 10 94 56q88 52 122 84t53 32z" />
    <glyph glyph-name="Lcommaaccent" unicode="&#x13b;" horiz-adv-x="796" 
d="M489 137q129 0 215 -31t87 -81q0 -18 -23 -19q-4 0 -23 6q-80 27 -219 27t-303 -41q-16 -4 -26 -4q-39 0 -73 34t-34 66t27 83q27 52 409 1023q49 147 54 244q2 41 34 41t50 -25q20 -25 20 -65q0 -104 -116 -433t-224 -575t-119 -281q135 31 264 31zM383 -152
q29 0 49 -18t19 -41q-4 -68 -121 -205q-58 -70 -100 -70t-42 21q0 8 31 47q90 121 125 232q10 34 39 34z" />
    <glyph glyph-name="lcommaaccent" unicode="&#x13c;" horiz-adv-x="294" 
d="M624 1405q22 0 48 -25t24 -45q0 -21 -48 -109t-152 -330t-177 -438q-73 -198 -73 -306q0 -57 17 -90t17 -41q0 -7 -10 -17q-12 -10 -28 -10q-43 0 -71 48t-28 146t69 294t206 497t151 353t23 63q10 10 32 10zM100 -152q30 0 50 -18q61 -54 -103 -246q-59 -70 -100 -70
t-41 21q0 8 31 47q90 121 124 232q10 34 39 34z" />
    <glyph glyph-name="Lcaron" unicode="&#x13d;" horiz-adv-x="796" 
d="M489 137q129 0 215 -31t87 -81q0 -18 -23 -19q-4 0 -23 6q-80 27 -219 27t-303 -41q-16 -4 -26 -4q-39 0 -73 34t-34 66t27 83q27 52 409 1023q49 147 54 244q2 41 34 41t50 -25q20 -25 20 -65q0 -104 -116 -433t-224 -575t-119 -281q135 31 264 31zM995 1479
q29 -1 49 -19q62 -58 -102 -246q-61 -70 -102 -70t-41 21q0 10 30 47q92 123 125 232q12 35 41 35z" />
    <glyph glyph-name="lcaron" unicode="&#x13e;" horiz-adv-x="294" 
d="M624 1405q22 0 48 -25t24 -45q0 -21 -48 -109t-152 -330t-177 -438q-73 -198 -73 -306q0 -57 17 -90t17 -41q0 -7 -10 -17q-12 -10 -28 -10q-43 0 -71 48t-28 146t69 294t206 497t151 353t23 63q10 10 32 10zM889 1380q29 0 49 -18q61 -55 -102 -248q-58 -70 -100 -70
t-42 21q0 10 31 47q96 133 125 234q10 34 39 34z" />
    <glyph glyph-name="Lslash" unicode="&#x141;" horiz-adv-x="796" 
d="M488 137q128 0 214 -31t86 -81q0 -18 -22 -19q-4 0 -23 6q-80 27 -219 27t-303 -41q-16 -4 -26 -4q-39 0 -73 35t-34 65t24 79q24 48 140 341q-59 -53 -86 -92q-16 -16 -35 -16t-41 22t-20 47q0 90 256 223q88 225 140 350t78 209t34 189q2 41 34 41t50 -24
q20 -24 20 -62q0 -145 -184 -629q106 37 161 37t58 -35q1 -23 -59 -38t-205 -93l-9 -4q-84 -211 -144 -347t-77 -186q137 31 265 31z" />
    <glyph glyph-name="lslash" unicode="&#x142;" horiz-adv-x="294" 
d="M123 492q-19 0 -41 22t-21 47q-1 47 61 99t212 131q2 9 112 251t124 292t22 61q8 10 30 10t49 -25q25 -25 25 -46t-42 -99t-181 -383q127 41 165 41t54 -11q16 -12 16 -28t-44 -29q-84 -18 -250 -114q-98 -242 -134 -361t-36 -187t17 -101t17 -41q0 -7 -10 -17
q-12 -10 -28 -10q-43 0 -71 48t-28 124q0 141 117 440l-20 -12q-49 -43 -80 -86q-16 -16 -35 -16z" />
    <glyph glyph-name="Nacute" unicode="&#x143;" horiz-adv-x="983" 
d="M1319 1520q25 0 43 -22t18 -56t-45 -155q-45 -120 -221 -544q-254 -606 -262 -761q-6 -48 -43 -48t-61 29t-58 135q-35 106 -52 314q-17 209 -22 704q-240 -606 -298 -786t-58 -252v-39q0 -47 -39 -47q-33 0 -52 30t-19 76q0 172 150 540t220 540q70 174 81 196t39 21
q28 0 58 -30t29 -69l-8 -286q0 -304 13 -492q14 -188 22 -235t30 -105q56 194 264 692t230 613q8 37 41 37zM1113 1810q19 0 39 -20t22 -41q0 -47 -112 -105t-146 -57q-34 -1 -54 15t-20 36q0 10 96 56q82 49 137 100q19 16 38 16z" />
    <glyph glyph-name="nacute" unicode="&#x144;" horiz-adv-x="747" 
d="M122 -14q-22 0 -44 30t-23 73q0 44 217 474q61 121 74 150q12 29 17 75t39 48q34 0 60 -28t26 -62t-93 -193q-92 -158 -127 -246q47 33 181 162q133 129 216 223t99 108t37 15q21 0 38 -30q17 -29 17 -61t-31 -110q-119 -285 -118 -464q0 -80 45 -142q16 -25 16 -33
q0 -25 -38 -25t-77 40q-55 53 -55 187t96 417q-8 -10 -28 -31t-31 -33l-80 -79q-347 -355 -373 -403t-32 -55t-28 -7zM896 1221q20 -1 40 -21t20 -41q0 -47 -112 -104t-145 -57q-34 0 -54 14q-20 16 -20 37q0 10 96 55q82 49 137 100q19 17 38 17z" />
    <glyph glyph-name="Ncommaaccent" unicode="&#x145;" horiz-adv-x="983" 
d="M1319 1520q25 0 43 -22t18 -56t-45 -155q-45 -120 -221 -544q-254 -606 -262 -761q-6 -48 -43 -48t-61 29t-58 135q-35 106 -52 314q-17 209 -22 704q-240 -606 -298 -786t-58 -252v-39q0 -47 -39 -47q-33 0 -52 30t-19 76q0 172 150 540t220 540q70 174 81 196t39 21
q28 0 58 -30t29 -69l-8 -286q0 -304 13 -492q14 -188 22 -235t30 -105q56 194 264 692t230 613q8 37 41 37zM377 -152q29 0 49 -18q60 -54 -102 -246q-58 -70 -100 -70t-42 21q0 8 31 47q90 121 125 232q10 34 39 34z" />
    <glyph glyph-name="ncommaaccent" unicode="&#x146;" horiz-adv-x="745" 
d="M122 -14q-22 0 -44 30t-23 73q0 44 217 474q61 121 74 150q12 29 17 75t39 48q34 0 60 -28t26 -62t-93 -193q-92 -158 -127 -246q47 33 181 162q133 129 216 223t99 108t37 15q21 0 38 -30q17 -29 17 -61t-31 -110q-119 -285 -118 -464q0 -80 45 -142q16 -25 16 -33
q0 -25 -38 -25t-77 40q-55 53 -55 187t96 417q-8 -10 -28 -31t-31 -33l-80 -79q-347 -355 -373 -403t-32 -55t-28 -7zM340 -152q29 0 49 -18t19 -41q-4 -68 -121 -205q-59 -70 -101 -70t-41 21q0 8 31 47q90 121 125 232q10 34 39 34z" />
    <glyph glyph-name="Ncaron" unicode="&#x147;" horiz-adv-x="983" 
d="M1319 1520q25 0 43 -22t18 -56t-45 -155q-45 -120 -221 -544q-254 -606 -262 -761q-6 -48 -43 -48t-61 29t-58 135q-35 106 -52 314q-17 209 -22 704q-240 -606 -298 -786t-58 -252v-39q0 -47 -39 -47q-33 0 -52 30t-19 76q0 172 150 540t220 540q70 174 81 196t39 21
q28 0 58 -30t29 -69l-8 -286q0 -304 13 -492q14 -188 22 -235t30 -105q56 194 264 692t230 613q8 37 41 37zM979 1573q-21 0 -41 8t-24 15q-4 6 -14 56q-12 50 -26 76l-21 39l-14 28t-10 13q-10 8 -10 26t23 19q49 0 96 -42t61 -70q5 -4 7 -6q12 8 32 19q20 12 76 36
q58 24 90 25q59 0 60 -35q0 -23 -52 -45q-90 -53 -186 -148q-25 -14 -47 -14z" />
    <glyph glyph-name="ncaron" unicode="&#x148;" horiz-adv-x="745" 
d="M122 -14q-22 0 -44 30t-23 73q0 44 217 474q61 121 74 150q12 29 17 75t39 48q34 0 60 -28t26 -62t-93 -193q-92 -158 -127 -246q47 33 181 162q133 129 216 223t99 108t37 15q21 0 38 -30q17 -29 17 -61t-31 -110q-119 -285 -118 -464q0 -80 45 -142q16 -25 16 -33
q0 -25 -38 -25t-77 40q-55 53 -55 187t96 417q-8 -10 -28 -31t-31 -33l-80 -79q-347 -355 -373 -403t-32 -55t-28 -7zM725 997q-18 -14 -58 -14t-53 27q-6 10 -17 60t-31 86t-27 50t-13 19q-6 4 -6 22t23 19q53 0 95 -40t58 -71l4 -2q3 -4 7 -6q12 6 49 29q105 48 156 48
q50 1 51 -34q0 -23 -52 -45q-86 -53 -186 -148z" />
    <glyph glyph-name="Omacron" unicode="&#x14c;" horiz-adv-x="808" 
d="M332 201q0 -45 18 -75t47 -30q86 0 194 98t202 263q174 301 174 618q0 131 -34 220t-80 89t-81 -96t-35 -194t27 -201q4 -20 4 -23q0 -23 -23 -22q-81 0 -104 207q-147 -270 -215 -463q-94 -254 -94 -391zM846 1493q98 0 160 -117t61 -305q0 -188 -57 -384
q-56 -195 -158 -351t-226 -249t-229 -93q-55 0 -100 31q-92 57 -92 194q0 193 141 508q59 133 157 304t140 214q2 4 4 5t4 3q51 240 195 240zM729 1716q14 0 35 -9q22 -9 106 -9t209 33q25 4 31 4q20 0 20 -17q0 -39 -105 -77q-105 -37 -217 -37t-112 61q0 51 33 51z" />
    <glyph glyph-name="omacron" unicode="&#x14d;" horiz-adv-x="573" 
d="M250 190q0 -98 59 -98q98 0 216 178t118 328q0 70 -18 110t-44 40t-37 -11t-30 -47q0 -23 -25 -43q-95 -74 -167 -217q-72 -142 -72 -240zM606 842q62 0 105 -60t43 -157q0 -178 -133 -383q-76 -117 -164 -183q-88 -65 -165 -65t-121 50t-44 142t53 211t128 205t136 105
q0 47 50 91t112 44zM473 1124q12 0 39 -10t108 -10t203 35q20 4 31 4q20 0 20 -17q0 -40 -105 -78t-217 -38t-112 63q0 51 33 51z" />
    <glyph glyph-name="Ohungarumlaut" unicode="&#x150;" horiz-adv-x="808" 
d="M332 197q0 -47 18 -76t47 -29q86 0 194 98t202 263q174 301 174 620q0 131 -33 220t-80 89t-82 -96t-35 -194t27 -201q4 -20 4 -23q0 -23 -23 -22q-86 0 -104 205q-147 -266 -215 -461q-94 -256 -94 -393zM846 1491q98 0 160 -117q62 -116 61 -306q0 -190 -57 -386
q-56 -196 -158 -350q-102 -156 -226 -249t-229 -93q-55 0 -100 30q-92 57 -92 195q0 190 141 510q59 133 147 285q87 152 148 229q4 8 6 8l4 4q51 240 195 240zM1012 1626q0 8 75 64q74 74 103 120q10 23 37 23t53 -22t25 -44q0 -51 -119 -137q-63 -47 -94 -47h-2
q-78 10 -78 43zM758 1630q0 8 76 64q68 68 100 121q14 23 39 23t51 -22t25 -44q0 -51 -119 -138q-63 -47 -92 -47h-2q-78 10 -78 43z" />
    <glyph glyph-name="ohungarumlaut" unicode="&#x151;" horiz-adv-x="573" 
d="M250 190q0 -98 59 -98q98 0 216 178t118 328q0 70 -18 110t-44 40t-37 -11t-30 -47q0 -23 -25 -43q-95 -74 -167 -217q-72 -142 -72 -240zM606 842q62 0 105 -60t43 -157q0 -178 -133 -383q-76 -117 -164 -183q-88 -65 -165 -65t-121 50t-44 142t53 211t128 205t136 105
q0 47 50 91t112 44zM719 1030q0 8 76 64q74 74 94 108t46 35q25 0 51 -22t26 -44q0 -51 -119 -137q-63 -47 -94 -47h-2q-78 10 -78 43zM465 1034q0 8 76 64q70 68 92 105q39 65 99 15q26 -22 26 -42q0 -51 -119 -138q-63 -47 -94 -47h-2q-78 10 -78 43z" />
    <glyph glyph-name="OE" unicode="&#x152;" horiz-adv-x="1501" 
d="M293 201q0 -45 18 -75t47 -30q86 0 194 98t202 263q174 301 174 618q0 131 -34 220t-80 89t-81 -96t-35 -194t27 -201q4 -20 4 -23q0 -23 -22 -22q-82 0 -105 207q-147 -270 -215 -463q-94 -254 -94 -391zM807 1493q97 0 159 -117t62 -303q0 -45 -2 -76q166 344 178 445
q8 45 35 45q37 0 53 -60q128 17 232 17t217 -28t112 -60q0 -23 -24 -23q-7 1 -69 13t-195 12t-287 -27q-37 -150 -195 -481q137 18 222 18t151 -22t66 -55q0 -23 -29 -23q-3 0 -39 7t-142 7t-278 -37q-52 -103 -102 -205t-128 -256t-81 -178q203 64 367 64t280 -35
q115 -35 115 -76q-1 -14 -15 -14q-14 -1 -82 13t-182 14q-256 0 -485 -76q-20 -4 -27 -4q-36 0 -64 31t-32 71q-129 -100 -240 -100q-53 0 -100 31q-92 57 -92 194q0 193 141 508q59 133 157 304t140 214q2 4 4 5t4 3q51 240 195 240z" />
    <glyph glyph-name="oe" unicode="&#x153;" horiz-adv-x="989" 
d="M792 389q81 0 193 133q90 111 90 167t-39 56q-39 1 -133 -105t-178 -245q27 -6 67 -6zM250 190q0 -98 59 -98q98 0 216 178t118 328q0 70 -18 110t-44 40t-37 -11t-30 -47q0 -23 -25 -43q-91 -72 -165 -216q-74 -143 -74 -241zM1055 840q55 0 87 -32t32 -89
q0 -113 -123 -258q-135 -168 -293 -168q-31 0 -82 10q-33 -68 -33 -125q0 -88 82 -88q131 0 281 141q20 20 34 21q20 0 20 -34t-73 -101q-135 -123 -271 -123t-181 137q-131 -137 -250 -137q-70 0 -114 50t-44 142t53 211t128 205t136 105q2 47 52 91t112 44t104 -62
t42 -159q190 219 301 219z" />
    <glyph glyph-name="Racute" unicode="&#x154;" horiz-adv-x="968" 
d="M866 1300h-45q-117 -291 -270 -647q236 33 418 156q213 143 213 281q0 90 -89 150q-90 60 -227 60zM198 -8q-38 0 -38 44t70 172t372 849q49 123 86 221q-294 -88 -473 -302q-47 -56 -47 -79q0 -29 41 -39q20 -6 20 -20q1 -27 -43 -27t-81 33q-36 33 -35 78q0 82 170 217
q104 82 210 136t269 107q16 48 52 48t52 -37l51 2q182 0 296 -84t114 -219q0 -201 -248 -365q-143 -94 -364 -156q49 -223 144 -412t183 -237q41 -26 41 -48t-43 -22t-106 48q-63 47 -113 114q-137 193 -246 596q-26 -63 -75 -172l-105 -233q-53 -125 -84 -169
q-32 -44 -70 -44zM1144 1794q20 0 40 -20t20 -41q0 -47 -112 -107q-111 -55 -145 -55t-54 15t-21 36q0 10 97 55q82 49 137 101q19 16 38 16z" />
    <glyph glyph-name="racute" unicode="&#x155;" horiz-adv-x="507" 
d="M782 850q18 0 34 -13t15 -31q0 -18 -22 -24q-147 -29 -327 -237q-179 -209 -298 -494q-25 -57 -61 -57q-20 0 -38 17q-17 17 -17 33t47 118q221 498 204 635q0 29 17 28q20 0 43 -34q50 -65 12 -203q133 146 220 204t171 58zM732 1214q20 0 40 -20t21 -41
q0 -47 -112 -104t-146 -57t-54 14q-20 16 -20 36q0 10 96 56q82 49 137 100q19 16 38 16z" />
    <glyph glyph-name="Rcommaaccent" unicode="&#x156;" horiz-adv-x="968" 
d="M866 1300h-45q-117 -291 -270 -647q236 33 418 156q213 143 213 281q0 90 -89 150q-90 60 -227 60zM198 -8q-38 0 -38 44t70 172t372 849q49 123 86 221q-294 -88 -473 -302q-47 -56 -47 -79q0 -29 41 -39q20 -6 20 -20q1 -27 -43 -27t-81 33q-36 33 -35 78q0 82 170 217
q104 82 210 136t269 107q16 48 52 48t52 -37l51 2q182 0 296 -84t114 -219q0 -201 -248 -365q-143 -94 -364 -156q49 -223 144 -412t183 -237q41 -26 41 -48t-43 -22t-106 48q-63 47 -113 114q-137 193 -246 596q-26 -63 -75 -172l-105 -233q-53 -125 -84 -169
q-32 -44 -70 -44zM490 -152q29 0 49 -18q61 -54 -103 -246q-59 -70 -100 -70t-41 21q0 8 31 47q90 121 125 232q10 34 39 34z" />
    <glyph glyph-name="rcommaaccent" unicode="&#x157;" horiz-adv-x="507" 
d="M782 850q18 0 34 -13t15 -31q0 -18 -22 -24q-147 -29 -327 -237q-179 -209 -298 -494q-25 -57 -61 -57q-20 0 -38 17q-17 17 -17 33t47 118q221 498 204 635q0 29 17 28q20 0 43 -34q47 -61 12 -203q133 146 220 204t171 58zM0 -152q29 0 49 -18t19 -41q-4 -68 -121 -205
q-59 -70 -101 -70t-41 21q0 8 31 47q90 121 125 232q10 34 39 34z" />
    <glyph glyph-name="Rcaron" unicode="&#x158;" horiz-adv-x="968" 
d="M977 1577q-21 0 -41 8t-25 17q-2 6 -13 55q-12 49 -26 75t-28 53q-14 28 -17 27q-10 8 -10 26t23 20q53 0 97 -41q43 -41 51 -55t16 -23q12 6 49 28q31 13 75 31t74 19q59 0 60 -35q0 -25 -52 -43q-86 -53 -186 -148q-25 -14 -47 -14zM866 1300h-45q-117 -291 -270 -647
q236 33 418 156q213 143 213 281q0 90 -89 150q-90 60 -227 60zM198 -8q-38 0 -38 44t70 172t372 849q49 123 86 221q-294 -88 -473 -302q-47 -56 -47 -79q0 -29 41 -39q20 -6 20 -20q1 -27 -43 -27t-81 33q-36 33 -35 78q0 82 170 217q104 82 210 136t269 107q16 48 52 48
t52 -37l51 2q182 0 296 -84t114 -219q0 -201 -248 -365q-143 -94 -364 -156q49 -223 144 -412t183 -237q41 -26 41 -48t-43 -22t-106 48q-63 47 -113 114q-137 193 -246 596q-26 -63 -75 -172l-105 -233q-53 -125 -84 -169q-32 -44 -70 -44z" />
    <glyph glyph-name="rcaron" unicode="&#x159;" horiz-adv-x="507" 
d="M782 850q18 0 34 -13t15 -31q0 -18 -22 -24q-147 -29 -327 -237q-179 -209 -298 -494q-25 -57 -61 -57q-20 0 -38 17q-17 17 -17 33t47 118q221 498 204 635q0 29 17 28q20 0 43 -34q50 -65 12 -203q133 146 220 204t171 58zM774 1255q59 0 60 -34q0 -23 -52 -45
q-6 -2 -50 -33t-116 -94q-33 -35 -71 -35q-59 0 -70 63q-19 74 -39 110q-20 35 -26 49t-12 18t-7 22q0 18 23 18q53 0 94 -39t59 -69l11 -10q12 8 49 30q31 12 73 30t74 19z" />
    <glyph glyph-name="Sacute" unicode="&#x15a;" horiz-adv-x="765" 
d="M846 1212v13q4 25 4 47q0 127 -67 127t-66 -309q1 -126 25 -444t24 -376q0 -131 -67 -207t-183 -75q-184 0 -311 133t-127 325q0 109 101 188t155 79t53 -33q0 -20 -35 -29q-72 -17 -124 -81t-52 -132q0 -137 104 -242t240 -106q137 0 137 182q-1 118 -31 436t-30 449
q0 375 168 375q80 0 133 -66t53 -163q0 -51 -22 -85t-52 -34t-30 28zM1031 1839q19 0 39 -20t22 -41q0 -46 -112 -104t-145 -58t-53 15t-20 36q0 10 94 55q88 53 122 85t53 32z" />
    <glyph glyph-name="sacute" unicode="&#x15b;" horiz-adv-x="518" 
d="M373 98q43 0 43 29q0 4 -10 47q-110 377 8 612q61 125 143 125q43 1 71 -33t28 -77t-18 -68q-17 -25 -40 -24q-12 0 -12 26q0 57 -27 58q-33 -1 -61 -103t-29 -236q1 -134 29 -246t28 -141q0 -30 -26 -52t-74 -21q-133 0 -231 66t-99 153q0 47 25 85t53 38t27 -25
l-13 -65q0 -60 54 -104t131 -44zM804 1231q20 -1 40 -21t20 -41q0 -47 -112 -104t-145 -57q-34 0 -54 15t-21 36q0 10 97 55q82 49 137 100q19 17 38 17z" />
    <glyph glyph-name="Scedilla" unicode="&#x15e;" horiz-adv-x="765" 
d="M510 -196q0 -56 -59 -107t-132 -51q-39 0 -71 14t-31 30q0 16 8 18q7 3 55 5t78 31t31 70q0 40 -35 68t-35 50t41 86h-4q-125 57 -190 148q-88 123 -88 278q0 115 101 192t155 77t53 -33q0 -20 -35 -29q-70 -15 -123 -79t-53 -130q0 -136 104 -244t238 -108
q139 0 139 178q1 118 -31 440t-32 451q0 373 170 373q80 0 133 -66t53 -163q0 -53 -22 -86t-52 -33q-31 0 -30 28v13q4 25 4 47q0 127 -68 127t-67 -273q-1 -142 25 -468t26 -386q0 -133 -67 -209t-183 -75q-36 0 -63 6q-13 -13 -14 -33t32 -61q39 -40 39 -96z" />
    <glyph glyph-name="scedilla" unicode="&#x15f;" horiz-adv-x="518" 
d="M373 98q43 0 43 29q0 12 -10 47q-110 375 8 612q61 125 141 125q45 1 73 -33t28 -77t-18 -68q-17 -25 -40 -24q-12 0 -12 26q0 57 -27 58q-33 -1 -61 -103t-29 -236q1 -134 29 -246t28 -134q0 -80 -102 -80h-27q-16 -23 -16 -40t36 -59q36 -41 36 -95q1 -54 -59 -105
t-116 -51t-87 14q-32 14 -31 31q0 16 8 18t55 4t78 31t31 70q0 40 -35 68t-35 50t33 74l4 8q-92 27 -147 81q-56 55 -56 111t25 94t53 38t27 -25l-13 -65q0 -60 54 -104t131 -44z" />
    <glyph glyph-name="Scaron" unicode="&#x160;" horiz-adv-x="765" 
d="M1051 1837q59 0 59 -35q0 -23 -51 -45q-96 -59 -187 -145q-20 -16 -56 -16t-52 20q-6 6 -17 58t-27 79q-16 28 -30 53q-12 25 -18 29q-6 5 -6 23t22 18q49 0 96 -41q44 -43 52 -57q7 -13 16 -21q12 8 49 31q6 0 92 39q27 10 58 10zM846 1212v13q4 25 4 47q0 127 -67 127
t-66 -309q1 -126 25 -444t24 -376q0 -131 -67 -207t-183 -75q-184 0 -311 133t-127 325q0 109 101 188t155 79t53 -33q0 -20 -35 -29q-72 -17 -124 -81t-52 -132q0 -137 104 -242t240 -106q137 0 137 182q-1 118 -31 436t-30 449q0 375 168 375q80 0 133 -66t53 -163
q0 -51 -22 -85t-52 -34t-30 28z" />
    <glyph glyph-name="scaron" unicode="&#x161;" horiz-adv-x="518" 
d="M373 98q43 0 43 29q0 4 -10 47q-110 377 8 612q61 125 143 125q43 1 71 -33t28 -77t-18 -68q-17 -25 -40 -24q-12 0 -12 26q0 57 -27 58q-33 -1 -61 -103t-29 -236q1 -134 29 -246t28 -141q0 -30 -26 -52t-74 -21q-133 0 -231 66t-99 153q0 47 25 85t53 38t27 -25
l-13 -65q0 -60 54 -104t131 -44zM836 1253q59 0 59 -34q0 -23 -51 -45q-90 -53 -187 -148q-25 -14 -47 -14t-42 8t-22 15q-3 7 -14 57q-12 50 -26 74t-28 53t-21 33q-6 4 -6 22t22 18q49 0 97 -43t61 -69l6 -6q12 8 49 30q2 0 92 39q25 10 58 10z" />
    <glyph glyph-name="Tcommaaccent" unicode="&#x162;" horiz-adv-x="1107" 
d="M274 1159q0 23 58 47q179 72 780 226q311 76 530 75q50 0 88 -12t37 -29q0 -20 -53 -24q-305 -23 -616 -99q24 -31 24 -47t-8 -32t-40 -94q-32 -76 -56 -130q-303 -672 -361 -954q-16 -94 -55 -94q-20 0 -36 20q-15 20 -15 60t11 86t45 154q35 106 139 354t178 432
t100 225q-436 -127 -461 -176q-27 -29 -39 -36t-70 -28t-93 -21q-34 0 -58 34q-29 35 -29 63zM537 -152q29 0 49 -18q61 -54 -103 -246q-59 -70 -100 -70t-41 21q0 8 31 47q90 121 125 232q10 34 39 34z" />
    <glyph glyph-name="tcommaaccent" unicode="&#x163;" horiz-adv-x="305" 
d="M183 -6q-70 0 -70 148q0 78 43 201q43 122 176 402q-51 -6 -94 -6q-42 -1 -62 9t-20 36t15 46q15 19 36 18l72 -6q39 0 104 8q68 144 125 252q58 108 74 164t45 57q29 0 58 -32t11 -66q-77 -134 -190 -357l33 6q88 18 136 34t60 16t13 -13q0 -29 -82 -69t-209 -74
q-256 -541 -256 -682q0 -20 7 -36t7 -27q0 -29 -32 -29zM70 -152q29 0 49 -18q61 -54 -103 -246q-59 -70 -100 -70t-41 21q0 8 31 47q90 121 125 232q10 34 39 34z" />
    <glyph glyph-name="Tcaron" unicode="&#x164;" horiz-adv-x="1107" 
d="M274 1159q0 23 58 47q179 72 780 226q311 76 530 75q50 0 88 -12t37 -29q0 -20 -53 -24q-305 -23 -616 -99q24 -31 24 -47t-8 -32t-40 -94q-32 -76 -56 -130q-303 -672 -361 -954q-16 -94 -55 -94q-20 0 -36 20q-15 20 -15 60t11 86t45 154q35 106 139 354t178 432
t100 225q-436 -127 -461 -176q-27 -29 -39 -36t-70 -28t-93 -21q-34 0 -58 34q-29 35 -29 63zM1329 1743q59 0 60 -35q0 -25 -52 -43q-45 -31 -61 -42t-105 -85q-33 -35 -71 -35q-59 0 -70 64q-18 73 -38 109t-27 50t-13 17q-6 4 -6 22t23 19q49 0 96 -41q41 -41 57 -70
q6 -3 11 -8q13 7 39 23t50 24t48 20q26 12 59 11z" />
    <glyph glyph-name="tcaron" unicode="&#x165;" horiz-adv-x="305" 
d="M183 -6q-70 0 -70 148q0 78 43 201q43 122 176 402q-51 -6 -94 -6q-42 -1 -62 9t-20 36t15 46q15 19 36 18l72 -6q39 0 104 8q68 144 125 252q58 108 74 164t45 57q29 0 58 -32t11 -66q-77 -134 -190 -357l33 6q88 18 136 34t60 16t13 -13q0 -29 -82 -69t-209 -74
q-256 -541 -256 -682q0 -20 7 -36t7 -27q0 -29 -32 -29zM950 1436q29 0 49 -18t19 -42q-4 -68 -121 -205q-59 -69 -101 -69t-40 20q0 8 30 47q90 121 125 232q10 35 39 35z" />
    <glyph glyph-name="Umacron" unicode="&#x16a;" 
d="M291 -8q-59 0 -94 51t-35 144t52 243t217 511t181 454q6 29 38 29t62 -24t27 -48q-6 -104 -139 -320q-28 -50 -126 -268q-184 -413 -185 -582q0 -66 37 -65q78 0 240 183t300 429q49 88 156 308q106 221 133 289t38 84t36 15q25 1 47 -21t22 -48q0 -54 -78 -186
q-148 -254 -272 -588q-78 -210 -78 -356t52 -234q10 -16 10 -27q0 -23 -27 -22q-69 0 -111 85q-42 84 -42 188t20 208q-313 -432 -481 -432zM850 1708q14 0 34 -9t106 -9q85 0 210 32q25 4 31 4q20 0 20 -16q0 -39 -105 -77t-217 -38t-112 62q0 51 33 51z" />
    <glyph glyph-name="umacron" unicode="&#x16b;" horiz-adv-x="825" 
d="M129 115q0 121 84 336q31 76 103 220q74 143 90 161t38 18t48 -21q25 -21 6 -55q-106 -182 -182 -359t-74 -235q0 -58 22 -57q41 0 212 204q170 203 250 337t94 152q33 42 79 -7q25 -25 25 -48t-54 -111t-96 -219q-43 -131 -43 -229t64 -163q14 -12 14 -27q0 -33 -37 -32
q-25 0 -43 16q-104 82 -104 250q-1 64 22 162q-162 -205 -213 -263q-131 -152 -213 -151q-92 0 -92 121zM563 1126q12 0 39 -10t108 -10t203 35q20 4 31 4q20 0 21 -17q1 -40 -105 -78t-218 -38t-112 63q0 51 33 51z" />
    <glyph glyph-name="Uring" unicode="&#x16e;" 
d="M291 -8q-59 0 -94 51t-35 144t52 243t217 511t181 454q6 29 38 29t62 -24t27 -48q-6 -104 -139 -320q-28 -50 -126 -268q-184 -413 -185 -582q0 -66 37 -65q78 0 240 183t300 429q49 88 156 308q106 221 133 289t38 84t36 15q25 1 47 -21t22 -48q0 -54 -78 -186
q-148 -254 -272 -588q-78 -210 -78 -356t52 -234q10 -16 10 -27q0 -23 -27 -22q-69 0 -111 85q-42 84 -42 188t20 208q-313 -432 -481 -432zM1159 1749h-20q-5 0 -15 5t-54 5t-73 -38q-10 -13 -10 -15v-31q0 -39 68 -39q29 0 55 21q43 43 43 67v5q0 4 6 10v10zM1188 1757
q10 0 20 -16t11 -35q1 -70 -59 -118t-136 -48t-116 36t-40 102t68 122q68 58 130 58t93 -20t31 -38q0 -20 -10 -43h8z" />
    <glyph glyph-name="uring" unicode="&#x16f;" horiz-adv-x="827" 
d="M129 115q0 121 84 336q31 76 103 220q74 143 90 161t38 18t48 -21q25 -21 6 -55q-106 -182 -182 -359t-74 -235q0 -58 22 -57q41 0 212 204q170 203 250 337t94 152q33 42 79 -7q25 -25 25 -48t-54 -111t-96 -219q-43 -131 -43 -229t64 -163q14 -12 14 -27q0 -33 -37 -32
q-25 0 -43 16q-104 82 -104 250q-1 64 22 162q-162 -205 -213 -263q-131 -152 -213 -151q-92 0 -92 121zM874 1229h-20q-6 0 -15 5t-54 5t-72 -38q-10 -13 -11 -15v-31q0 -41 68 -41q30 0 64 31t34 57v6q0 2 6 11v10zM903 1237q11 0 21 -16t10 -37q0 -68 -60 -117t-135 -49
t-115 37t-40 101t67 123q68 58 148 58q45 0 75 -19t31 -50q0 -8 -10 -31h8z" />
    <glyph glyph-name="Uhungarumlaut" unicode="&#x170;" 
d="M291 -8q-59 0 -94 51t-35 144t52 243t217 511t181 454q6 29 38 29t62 -24t27 -48q-6 -104 -139 -320q-28 -50 -126 -268q-184 -413 -185 -582q0 -66 37 -65q78 0 240 183t300 429q49 88 156 308q106 221 133 289t38 84t36 15q25 1 47 -21t22 -48q0 -54 -78 -186
q-148 -254 -272 -588q-78 -210 -78 -356t52 -234q10 -16 10 -27q0 -23 -27 -22q-69 0 -111 85q-42 84 -42 188t20 208q-313 -432 -481 -432zM1063 1610q0 8 76 63q74 74 94 109t46 35q25 0 51 -22t26 -44q0 -51 -119 -137q-63 -47 -94 -47h-2q-78 10 -78 43zM809 1614
q0 8 76 63q74 74 94 109t46 35q25 0 51 -22t26 -44q0 -51 -119 -137q-63 -47 -94 -47h-2q-78 10 -78 43z" />
    <glyph glyph-name="uhungarumlaut" unicode="&#x171;" horiz-adv-x="827" 
d="M129 115q0 121 84 336q31 76 103 220q74 143 90 161t38 18t48 -21q25 -21 6 -55q-106 -182 -182 -359t-74 -235q0 -58 22 -57q41 0 212 204q170 203 250 337t94 152q33 42 79 -7q25 -25 25 -48t-54 -111t-96 -219q-43 -131 -43 -229t64 -163q14 -12 14 -27q0 -33 -37 -32
q-25 0 -43 16q-104 82 -104 250q-1 64 22 162q-162 -205 -213 -263q-131 -152 -213 -151q-92 0 -92 121zM1002 1231q24 0 50 -22t25 -44q0 -51 -119 -137q-63 -47 -92 -47h-2q-76 11 -78 43q0 8 76 63q68 68 101 121q15 23 39 23zM748 1233q24 0 50 -22t25 -44
q0 -51 -118 -137q-64 -47 -93 -47h-2q-76 11 -78 43q0 8 76 64q68 68 101 120q15 23 39 23z" />
    <glyph glyph-name="Uogonek" unicode="&#x172;" 
d="M291 -8q-59 0 -94 51t-35 144t52 243t217 511t181 454q6 29 38 29t62 -24t27 -48q-6 -104 -139 -320q-28 -50 -126 -268q-184 -413 -185 -582q0 -66 37 -65q78 0 240 183t300 429q49 88 156 308q106 221 133 289t38 84t36 15q25 1 47 -21t22 -48q0 -53 -112 -246
q-41 -72 -117 -240t-121 -288q-78 -208 -78 -354t54 -234q10 -18 10 -32t-14 -19q-18 -8 -34 -44q-39 -86 6 -128q24 -23 91 -52q16 -8 16 -24q-1 -35 -67 -35t-117 54t-51 126t65 135l-4 5h2q-76 82 -75 268q0 72 20 176q-313 -432 -481 -432z" />
    <glyph glyph-name="uogonek" unicode="&#x173;" horiz-adv-x="827" 
d="M625 246q0 63 22 162q-162 -205 -213 -263q-131 -152 -213 -151q-92 0 -92 121t84 336q31 76 103 220q74 143 90 161t38 18t48 -21q25 -21 6 -55q-106 -180 -182 -358t-74 -236q0 -58 22 -57q41 0 212 204q170 203 250 337t94 152q33 42 79 -7q25 -25 25 -48t-54 -111
t-96 -219q-43 -133 -43 -231t64 -161q14 -13 14 -27q1 -14 -23 -48t-24 -73q0 -40 24 -64t91 -52q16 -8 16 -25q0 -35 -66 -35q-67 -1 -117 53t-50 120t42 122l5 4q-82 88 -82 232z" />
    <glyph glyph-name="Ydieresis" unicode="&#x178;" horiz-adv-x="542" 
d="M154 -29q0 195 233 641q-53 92 -72 164q-18 72 -18 206q1 134 21 274t20 176v12q0 26 31 26t65 -24t33 -42q1 -18 -29 -198t-30 -311t22 -207q186 322 406 574q104 120 147 160t67 40t46 -24q39 -41 8 -74q-248 -200 -529 -654t-356 -780q-6 -26 -21 -26t-30 20
q-14 20 -14 47zM565 1688q0 38 37 66t74 28t57 -22q21 -22 21 -56t-32 -66t-71 -32t-63 22t-23 60zM899 1591q-35 1 -59 21t-25 55q0 35 36 67t72 33q37 -1 59 -25t22 -54t-35 -63q-35 -34 -70 -34z" />
    <glyph glyph-name="Zacute" unicode="&#x179;" horiz-adv-x="894" 
d="M542 160q142 0 242 -34t101 -79q0 -25 -35 -24q-12 0 -37 8q-93 31 -233 31t-304 -54q-45 -14 -55 -14q-37 0 -74 43t-37 92t70 135t316 340q629 653 628 733q0 25 -32 25q-10 0 -64 -19q-190 -63 -321 -63q-66 0 -111 30t-45 70t37 41q6 0 42 -10t87 -10t191 28t218 27
q109 0 109 -90q0 -104 -186 -328q-53 -66 -195 -218t-231 -242q-370 -371 -390 -465q167 47 309 47zM1039 1821q19 -1 39 -21t22 -41q0 -47 -112 -104t-146 -57t-54 14q-20 16 -20 37q0 10 96 55q82 49 137 100q19 17 38 17z" />
    <glyph glyph-name="zacute" unicode="&#x17a;" horiz-adv-x="612" 
d="M402 131q88 0 172 -36t83 -83q0 -29 -26 -28q-8 0 -27 10q-70 39 -198 39q-128 1 -197 -19q-67 -20 -91 -20t-48 29t-25 57q0 28 30 58q29 32 185 164t289 269t133 177q0 12 -13 12t-91 -35t-132 -35t-76 22t-22 54q0 49 41 49q1 0 27 -5t54 -5q28 -1 116 23t120 24
t57 -27q24 -27 23 -69q0 -82 -93 -186t-283 -260q-190 -158 -217 -193l-11 -11q132 25 220 25zM755 1223q19 -1 39 -21t21 -41q0 -47 -112 -104q-111 -57 -145 -57t-54 14q-20 16 -21 37q0 10 97 55q82 49 137 100q19 17 38 17z" />
    <glyph glyph-name="Zdotaccent" unicode="&#x17b;" horiz-adv-x="894" 
d="M542 160q142 0 242 -34t101 -79q0 -25 -35 -24q-12 0 -37 8q-93 31 -233 31t-304 -54q-45 -14 -55 -14q-37 0 -74 43t-37 92t70 135t316 340q629 653 628 733q0 25 -32 25q-10 0 -64 -19q-190 -63 -321 -63q-66 0 -111 30t-45 70t37 41q6 0 42 -10t87 -10t191 28t218 27
q109 0 109 -90q0 -104 -186 -328q-53 -66 -195 -218t-231 -242q-370 -371 -390 -465q167 47 309 47zM880 1786q36 0 58 -25t23 -55q0 -30 -35 -62q-35 -34 -70 -34q-36 0 -60 20t-24 55t36 68t72 33z" />
    <glyph glyph-name="zdotaccent" unicode="&#x17c;" horiz-adv-x="612" 
d="M402 131q88 0 172 -36t83 -83q0 -29 -26 -28q-8 0 -27 10q-70 39 -198 39q-128 1 -197 -19q-67 -20 -91 -20t-48 29t-25 57q0 28 30 58q29 32 185 164t289 269t133 177q0 12 -13 12t-91 -35t-132 -35t-76 22t-22 54q0 49 41 49q1 0 27 -5t54 -5q28 -1 116 23t120 24
t57 -27q24 -27 23 -69q0 -82 -93 -186t-283 -260q-190 -158 -217 -193l-11 -11q132 25 220 25zM599 1188q35 0 59 -26t24 -54t-36 -62t-70 -34t-60 20q-24 20 -24 55t35 68q36 33 72 33z" />
    <glyph glyph-name="Zcaron" unicode="&#x17d;" horiz-adv-x="894" 
d="M542 160q142 0 242 -34t101 -79q0 -25 -35 -24q-12 0 -37 8q-93 31 -233 31t-304 -54q-45 -14 -55 -14q-37 0 -74 43t-37 92t70 135t316 340q629 653 628 733q0 25 -32 25q-10 0 -64 -19q-190 -63 -321 -63q-66 0 -111 30t-45 70t37 41q6 0 42 -10t87 -10t191 28t218 27
q109 0 109 -90q0 -104 -186 -328q-53 -66 -195 -218t-231 -242q-370 -371 -390 -465q167 47 309 47zM1104 1833q59 0 59 -35q0 -23 -51 -45q-10 -4 -59 -37q-6 -6 -42 -35t-65 -55t-38 -30q-9 -5 -31 -5q-61 0 -74 64q-16 70 -39 108q-24 60 -34 67t-11 25q0 18 22 19
q49 0 97 -41q39 -37 57 -68l10 -10q12 6 49 29q30 12 74 30t76 19z" />
    <glyph glyph-name="zcaron" unicode="&#x17e;" horiz-adv-x="612" 
d="M402 131q88 0 172 -36t83 -83q0 -29 -26 -28q-8 0 -27 10q-70 39 -198 39q-128 1 -197 -19q-67 -20 -91 -20t-48 29t-25 57q0 28 30 58q29 32 185 164t289 269t133 177q0 12 -13 12t-91 -35t-132 -35t-76 22t-22 54q0 49 41 49q1 0 27 -5t54 -5q28 -1 116 23t120 24
t57 -27q24 -27 23 -69q0 -82 -93 -186t-283 -260q-190 -158 -217 -193l-11 -11q132 25 220 25zM807 1251q59 0 59 -34q0 -23 -51 -46q-92 -57 -186 -145q-16 -16 -54 -16t-61 28q-2 6 -17 69t-51 114q-12 25 -18 29t-6 22t22 18q54 0 96 -38t51 -55t12 -19t5 -7
q62 41 118 61q56 19 81 19z" />
    <glyph glyph-name="florin" unicode="&#x192;" horiz-adv-x="645" 
d="M90 -28q0 -12 -49 -93q-49 -80 -49 -156t31 -75q33 0 117 152t188 393l207 477h-43q-92 0 -93 63q0 51 39 51l51 -2q10 -2 39 -2h56q158 344 263 495t187 150q41 1 66 -37q24 -38 24 -103t-36 -143t-78 -115q-42 -36 -55 -36q-13 1 -13 13t49 92t49 157t-30 76
q-57 0 -308 -541q131 16 236 39l20 2q25 0 25 -16q1 -23 -93 -57t-233 -66l-137 -321q-111 -257 -160 -359q-50 -102 -124 -226t-130 -178t-102 -54q-47 0 -72 37q-24 38 -24 102q0 65 36 143t78 114t55 36t13 -12z" />
    <glyph glyph-name="uni01D3" unicode="&#x1d3;" 
d="M291 -8q-59 0 -94 51t-35 144t52 243t217 511t181 454q6 29 38 29t62 -24t27 -48q-6 -104 -139 -320q-28 -50 -126 -268q-184 -413 -185 -582q0 -66 37 -65q78 0 240 183t300 429q49 88 156 308q106 221 133 289t38 84t36 15q25 1 47 -21t22 -48q0 -54 -78 -186
q-148 -254 -272 -588q-78 -210 -78 -356t52 -234q10 -16 10 -27q0 -23 -27 -22q-69 0 -111 85q-42 84 -42 188t20 208q-313 -432 -481 -432zM1036 1585q-18 -14 -59 -14t-51 26q-6 9 -18 59t-31 87q-21 37 -27 51t-12 18t-7 23q0 18 36 18t83 -41q43 -43 58 -69l4 -2l6 -6
q12 6 49 28q109 49 157 49q49 0 50 -34q0 -23 -51 -45q-86 -53 -187 -148z" />
    <glyph glyph-name="Scommaaccent" unicode="&#x218;" horiz-adv-x="907" 
d="M574 -152q29 0 49 -18q61 -54 -103 -246q-59 -70 -100 -70t-41 21q0 8 31 47q90 121 125 232q10 34 39 34zM987 1212v13q4 25 4 47q-1 127 -67 127t-66 -309q0 -126 24 -444t25 -376q-1 -131 -67 -207t-183 -75q-184 0 -311 133t-127 325q-1 109 101 188t155 79t53 -33
q0 -20 -34 -29q-72 -17 -124 -81t-53 -132q1 -137 105 -242t240 -106q137 0 137 182q0 118 -31 436t-31 449q0 375 168 375q80 0 133 -66t54 -163q0 -51 -22 -85t-52 -34t-31 28z" />
    <glyph glyph-name="scommaaccent" unicode="&#x219;" horiz-adv-x="518" 
d="M373 98q43 0 43 29q0 8 -13 47q-53 180 -53 334t62 278t143 125q43 1 71 -33t28 -77t-18 -68q-16 -25 -34 -25t-18 13t2 31t-7 29t-20 12q-35 -1 -63 -103t-29 -238q0 -136 43 -292q16 -63 16 -93t-28 -52t-74 -21q-133 0 -231 66t-99 153q0 47 26 85t54 38t27 -25
l-15 -65q0 -60 54 -104t133 -44zM225 -152q29 0 49 -18t19 -41q-4 -68 -121 -205q-58 -70 -100 -70t-41 21q0 8 30 47q90 121 125 232q10 34 39 34z" />
    <glyph glyph-name="uni021A" unicode="&#x21a;" horiz-adv-x="1107" 
d="M274 1159q0 23 58 47q179 72 780 226q311 76 530 75q50 0 88 -12t37 -29q0 -20 -53 -24q-305 -23 -616 -99q24 -31 24 -47t-8 -32t-40 -94q-32 -76 -56 -130q-303 -672 -361 -954q-16 -94 -55 -94q-20 0 -36 20q-15 20 -15 60t11 86t45 154q35 106 139 354t178 432
t100 225q-436 -127 -461 -176q-27 -29 -39 -36t-70 -28t-93 -21q-34 0 -58 34q-29 35 -29 63zM537 -152q29 0 49 -18q61 -54 -103 -246q-59 -70 -100 -70t-41 21q0 8 31 47q90 121 125 232q10 34 39 34z" />
    <glyph glyph-name="uni021B" unicode="&#x21b;" horiz-adv-x="305" 
d="M183 -6q-70 0 -70 148q0 78 43 201q43 122 176 402q-51 -6 -94 -6q-42 -1 -62 9t-20 36t15 46q15 19 36 18l72 -6q39 0 104 8q68 144 125 252q58 108 74 164t45 57q29 0 58 -32t11 -66q-77 -134 -190 -357l33 6q88 18 136 34t60 16t13 -13q0 -29 -82 -69t-209 -74
q-256 -541 -256 -682q0 -20 7 -36t7 -27q0 -29 -32 -29zM70 -152q29 0 49 -18q61 -54 -103 -246q-59 -70 -100 -70t-41 21q0 8 31 47q90 121 125 232q10 34 39 34z" />
    <glyph glyph-name="afii57929" unicode="&#x2bc;" horiz-adv-x="497" 
d="M746 1624q29 0 49 -18q62 -55 -103 -248q-59 -70 -100 -70t-41 21q0 10 31 47q100 135 125 233q10 35 39 35z" />
    <glyph glyph-name="circumflex" unicode="&#x2c6;" horiz-adv-x="520" 
d="M530 1004q-59 0 -59 34q0 23 51 45q90 53 187 148q25 14 47 14t42 -8t22 -15q3 -6 14 -56q10 -50 26 -78t30 -53t19 -29q6 -4 6 -22t-22 -19q-53 0 -99 43t-59 69l-6 6q-12 -8 -49 -30q-6 0 -92 -39q-27 -10 -58 -10z" />
    <glyph glyph-name="caron" unicode="&#x2c7;" horiz-adv-x="565" 
d="M924 1208q59 0 59 -34q0 -23 -51 -46q-90 -53 -187 -147q-25 -14 -47 -14t-42 8t-22 15q-3 7 -15 60t-33 88t-28 50q-7 14 -13 18t-6 22t22 19q49 -1 91 -37t63 -71l10 -11q12 8 49 31q31 13 75 31t75 18z" />
    <glyph glyph-name="uni02C9" unicode="&#x2c9;" horiz-adv-x="489" 
d="M494 1090q14 0 34 -10t106 -9q84 0 210 33q25 4 30 4q20 0 21 -16q0 -39 -105 -77q-106 -38 -218 -38t-111 61q0 52 33 52z" />
    <glyph glyph-name="breve" unicode="&#x2d8;" horiz-adv-x="565" 
d="M514 1182q0 20 28 20t50 -11t54 -45q34 -34 64 -34t72 14q82 35 117 35q59 0 59 -39q0 -10 -11 -18t-53 -32t-83 -56q-41 -31 -60 -41t-53 -10t-67 34t-92 134l-15 24q-10 16 -10 25z" />
    <glyph glyph-name="dotaccent" unicode="&#x2d9;" horiz-adv-x="481" 
d="M653 1149q37 0 59 -25q51 -56 -14 -117q-36 -34 -70 -34t-59 20t-25 55t37 68q36 33 72 33z" />
    <glyph glyph-name="ring" unicode="&#x2da;" horiz-adv-x="438" 
d="M764 1165h-21q-6 0 -14 6q-18 6 -59 7t-68 -39q-10 -14 -10 -17v-30q0 -39 67 -39q29 0 56 20q43 43 43 68v4q0 4 6 10v10zM793 1176q10 0 20 -16t10 -38q0 -70 -59 -118t-135 -48t-116 37t-40 102t68 123t147 58q45 0 76 -20q30 -20 30 -39q0 -18 -10 -41h9z" />
    <glyph glyph-name="ogonek" unicode="&#x2db;" horiz-adv-x="403" 
d="M356 -254q0 -35 -66 -35t-116 53q-51 52 -51 112t20 95q21 35 74 82l70 -43q-99 -125 -36 -188q24 -25 89 -53q16 -6 16 -23z" />
    <glyph glyph-name="tilde" unicode="&#x2dc;" horiz-adv-x="632" 
d="M639 1090q-49 0 -109 -56q-16 -16 -36 -9t-20 41t59 84q60 50 139 50q80 0 128 -54t79 -54t67 28t50 29q14 0 24 -13t10 -32q0 -39 -56 -82t-115 -43t-126 68q-45 43 -94 43z" />
    <glyph glyph-name="hungarumlaut" unicode="&#x2dd;" horiz-adv-x="520" 
d="M901 1225q25 0 51 -22t25 -44q0 -51 -119 -137q-63 -47 -92 -47h-2q-76 11 -78 43q0 8 76 63q68 68 100 121q14 23 39 23zM647 1229q25 0 51 -22t25 -44q0 -51 -119 -137q-63 -47 -92 -47h-2q-76 11 -78 43q0 8 76 63q68 68 100 121q14 23 39 23z" />
    <glyph glyph-name="uni2011" unicode="&#x2011;" horiz-adv-x="540" 
d="M231 383q14 0 35 -9q22 -9 106 -9t210 32q25 4 30 4q20 0 21 -16q1 -39 -105 -77t-218 -38t-111 62q-1 51 32 51z" />
    <glyph glyph-name="figuredash" unicode="&#x2012;" horiz-adv-x="657" 
d="M735 424q23 0 23 -16q0 -31 -74 -66q-164 -72 -375 -72q-127 0 -127 66q0 53 35 53q10 0 36 -10t95 -10q219 0 361 49q20 6 26 6z" />
    <glyph glyph-name="endash" unicode="&#x2013;" horiz-adv-x="657" 
d="M735 424q23 0 23 -16q0 -31 -74 -66q-164 -72 -375 -72q-127 0 -127 66q0 53 35 53q10 0 36 -10t95 -10q219 0 361 49q20 6 26 6z" />
    <glyph glyph-name="emdash" unicode="&#x2014;" horiz-adv-x="821" 
d="M922 424q23 0 22 -16q0 -33 -88 -72t-231 -49q-156 -16 -326 -17q-127 0 -127 66q0 53 35 53q9 0 39 -10t161 -10t269 11q138 12 190 28t56 16z" />
    <glyph glyph-name="afii00208" unicode="&#x2015;" horiz-adv-x="821" 
d="M922 424q23 0 22 -16q0 -33 -88 -72t-231 -49q-156 -16 -326 -17q-127 0 -127 66q0 53 35 53q9 0 39 -10t161 -10t269 11q138 12 190 28t56 16z" />
    <glyph glyph-name="quoteleft" unicode="&#x2018;" horiz-adv-x="497" 
d="M802 1632q40 0 40 -20q0 -10 -31 -47q-100 -135 -125 -234q-10 -35 -39 -35t-49 18q-64 59 102 249q62 69 102 69z" />
    <glyph glyph-name="quoteright" unicode="&#x2019;" horiz-adv-x="311" 
d="M690 1329q29 0 49 -18q62 -56 -102 -248q-59 -70 -101 -70t-40 21q0 10 30 47q96 133 125 233q10 35 39 35z" />
    <glyph glyph-name="quotesinglbase" unicode="&#x201a;" horiz-adv-x="315" 
d="M211 162q29 0 49 -18t19 -42q-4 -68 -121 -204q-58 -70 -100 -70t-42 20q0 8 31 48q90 121 125 231q10 35 39 35z" />
    <glyph glyph-name="quotedblleft" unicode="&#x201c;" horiz-adv-x="645" 
d="M876 1653q31 0 31 -21q0 -10 -8 -20q-111 -131 -147 -258q-10 -35 -39 -35t-49 18q-63 56 102 246q37 43 58 57t52 13zM1077 1653q41 0 41 -21q0 -10 -8 -20q-111 -131 -147 -258q-10 -35 -39 -35t-50 18q-62 56 103 246q59 70 100 70z" />
    <glyph glyph-name="quotedblright" unicode="&#x201d;" horiz-adv-x="497" 
d="M977 1640q29 0 49 -18q63 -57 -102 -246q-58 -70 -100 -70t-42 21q0 8 31 47q100 135 125 232q10 34 39 34zM770 1636q29 0 49 -18q64 -57 -102 -246q-59 -70 -101 -70t-41 21q0 8 31 47q100 135 125 232q10 34 39 34z" />
    <glyph glyph-name="quotedblbase" unicode="&#x201e;" horiz-adv-x="557" 
d="M449 154q27 0 47 -18t20 -42q0 -60 -88 -168t-131 -108t-43 20q0 10 8 21q106 135 148 258q12 37 39 37zM238 154q27 0 47 -18t20 -42q0 -56 -86 -166t-139 -110q-37 0 -37 20q0 10 8 21q109 135 148 258q12 37 39 37z" />
    <glyph glyph-name="dagger" unicode="&#x2020;" horiz-adv-x="970" 
d="M515 870q-77 0 -77 92q0 46 27 52q82 25 375 33q12 25 38 94q51 133 99 133q17 0 33 -16t16 -37q0 -22 -68 -172q260 0 345 -60q20 -15 20 -33t-23 -18q-6 0 -80 16t-133 15l-6 -2l-47 -2q-49 0 -114 -7q-88 -228 -158 -388t-109 -266t-63 -218q-16 -94 -55 -94
q-20 0 -36 21q-15 22 -16 48q0 94 76 301q2 2 240 584q-98 -10 -130 -34t-42 -30q-24 -12 -112 -12z" />
    <glyph glyph-name="daggerdbl" unicode="&#x2021;" horiz-adv-x="948" 
d="M777 307q-42 0 -118 -8h-8l-26 -82q-25 -74 -35 -131q-14 -94 -55 -94q-20 0 -36 21q-15 22 -15 70t48 204q-82 -9 -112 -33t-50 -32q-19 -8 -76 -9q-58 0 -77 14q-27 31 -27 90q0 31 27 39q88 27 348 31q8 23 8 27t16 38q71 162 130 303q58 141 80 189q-98 -10 -130 -34
t-53 -34q-21 -8 -77 -8t-74 15q-27 31 -27 90q0 31 27 39q88 27 375 30q6 16 13 32t11 30q50 167 111 168q17 0 33 -16t16 -40t-66 -169q260 0 345 -62q20 -13 20 -31t-23 -18q-10 0 -92 15t-132 13l-75 -3l-70 -5h-11q-100 -240 -234 -567l12 2h19q270 0 344 -65
q14 -12 14 -28t-22 -17q-6 -1 -81 15t-132 15h-9q-12 -4 -54 -4z" />
    <glyph glyph-name="ellipsis" unicode="&#x2026;" horiz-adv-x="677" 
d="M332 104q43 0 74 -20t30 -49q0 -41 -84 -41t-84 53q1 57 64 57zM649 33q0 -39 -85 -39t-85 54t72 54q37 0 67 -20t31 -49zM126 102q36 0 67 -20t30 -49q1 -39 -83 -39t-85 53q0 55 71 55z" />
    <glyph glyph-name="perthousand" unicode="&#x2030;" horiz-adv-x="1417" 
d="M1470 389q18 0 35 -22q16 -23 17 -50q0 -89 -100 -203t-179 -114q-45 0 -78 44t-32 103q0 150 206 322q55 45 73 45t33 -21q13 -23 13 -45t-7 -30t-57 -39t-110 -118t-59 -138q0 -23 22 -23q63 0 131 103q31 45 39 69t11 70q3 47 42 47zM1067 391q18 0 35 -22
q16 -23 16 -50q0 -91 -99 -205t-179 -114q-45 0 -78 44t-33 103q0 100 98 215q53 60 109 106t74 46t31 -22t13 -44t-6 -30q-8 -8 -58 -39t-109 -118t-60 -138q0 -23 23 -23q59 0 131 105q31 43 39 67t11 72q3 47 42 47zM516 780q16 0 43 29t55 87t27 140q-49 -12 -94 -71
q-57 -82 -58 -154q0 -31 27 -31zM647 1149q35 0 57 -34t21 -85q0 -120 -74 -240t-145 -120q-47 0 -83 47t-36 108q0 93 84 197q83 104 105 101t26 -7q10 33 45 33zM1411 1112q31 0 31 -29q0 -20 -29 -34q-180 -92 -384 -251t-380 -345q-328 -346 -362 -490q-8 -33 -35 -33
t-46 18t-20 38q0 59 124 227t261 297q518 483 813 596q13 6 27 6z" />
    <glyph glyph-name="guilsinglleft" unicode="&#x2039;" horiz-adv-x="423" 
d="M473 184q0 -26 -16 -44q-15 -18 -33 -19q-18 0 -33 22q-41 53 -182 133q-61 31 -61 58t45 57q127 82 169 114q42 33 86 73q43 40 58 40q31 0 31 -32t-45 -80q-101 -104 -199 -172q180 -96 180 -150z" />
    <glyph glyph-name="guilsinglright" unicode="&#x203a;" horiz-adv-x="430" 
d="M242 555q0 27 16 45t34 18t32 -22q41 -53 182 -133q61 -31 61 -62q0 -23 -45 -53q-127 -82 -170 -114q-44 -32 -86 -72t-57 -41q-31 0 -31 33t45 79q86 95 197 173q-178 96 -178 149z" />
    <glyph glyph-name="fraction" unicode="&#x2044;" horiz-adv-x="407" 
d="M1262 1554q16 0 32 -28t16 -61t-35 -77t-365 -410t-493 -571q-163 -206 -278 -423q-17 -33 -33 -33q-30 0 -30 33q6 150 428 669q178 219 416 491t315 392q11 18 27 18z" />
    <glyph glyph-name="Euro" unicode="&#x20ac;" horiz-adv-x="1036" 
d="M303 477q-68 0 -70 74q1 29 21 29h8q40 -4 62 -4t94 10q18 47 31 76l-97 -13q-40 -4 -60 -4q-20 -1 -38 19t-18 51t20 30h8q20 -2 54 -2t182 23q55 109 108 188q147 228 298 356t270 128q59 0 101 -52t42 -113q-1 -62 -21 -98t-48 -36t-27 30l8 64q0 41 -22 69t-52 27
q-86 1 -228 -149t-278 -381l221 53l78 22q18 0 19 -16q0 -37 -80 -65l-289 -91l-43 -92l313 76l78 21q18 0 19 -17q0 -39 -80 -63l-367 -115q-49 -137 -49 -250q0 -168 102 -168q109 0 283 111t295 256q23 29 37 28q20 0 20 -28q0 -84 -161 -236q-248 -231 -459 -231
q-108 0 -174 82t-66 217q0 82 33 194l-31 -4q-41 -6 -47 -6z" />
    <glyph glyph-name="trademark" unicode="&#x2122;" horiz-adv-x="1257" 
d="M723 520q0 43 210 320t224 334q5 14 23 14t36 -16t19 -35q0 -18 -41 -90q-49 -78 -98 -197q-49 -118 -49 -144t8 -26q18 0 58 45t128 164t117 168t39 59t26 10q17 0 31 -12t14 -26t-9 -38q-9 -26 -55 -199t-46 -242t13 -105t13 -41q0 -18 -16 -19q-34 0 -58 62t-24 153
q0 92 60 279q-136 -203 -192 -262q-56 -60 -121 -60t-64 74q0 51 47 162q-211 -289 -225 -346q-5 -18 -23 -18t-32 10t-13 22zM293 1016q0 16 24 22q185 58 399 98t305 40t91 -25q0 -12 -37 -16q-166 -3 -330 -39l-4 -2q17 -10 17 -24t-207 -433q-33 -69 -41 -109t-33 -41
q-37 -1 -37 63q0 36 54 144q186 367 198 389q-129 -31 -170 -45t-73 -39q-49 -31 -86 -31t-54 17q-16 15 -16 31z" />
    <glyph glyph-name="minus" unicode="&#x2212;" horiz-adv-x="499" 
d="M664 483q20 1 20 -23t-31 -42q-49 -33 -147 -57t-189 -23q-147 0 -147 63q0 51 35 52l4 -2q10 1 42 -9t128 -10t260 47l19 4h6z" />
    <glyph glyph-name="commaaccent" unicode="&#xf6c3;" horiz-adv-x="348" 
d="M158 -152q29 0 49 -18q61 -54 -103 -246q-59 -70 -100 -70t-41 21q0 8 31 47q90 121 125 232q10 34 39 34z" />
    <glyph glyph-name="Acute" unicode="&#xf6c9;" horiz-adv-x="446" 
d="M972 1702q20 0 40 -20t20 -42q0 -47 -112 -104t-145 -57q-34 0 -54 15t-21 36q0 10 97 55q82 49 137 101q19 16 38 16z" />
    <glyph glyph-name="Caron" unicode="&#xf6ca;" horiz-adv-x="565" 
d="M1126 1722q59 0 60 -34q0 -23 -51 -46q-90 -53 -187 -147q-25 -14 -47 -14q-21 0 -41 8t-23 16q-3 9 -15 57t-36 91l-20 41q-12 24 -18 28t-7 23q0 18 23 18q53 0 93 -38t61 -72l4 -2q2 -4 6 -6q12 6 49 28q31 13 74 31t75 18z" />
    <glyph glyph-name="Dieresis" unicode="&#xf6cb;" horiz-adv-x="493" 
d="M653 1562q0 36 37 64t74 29q37 0 57 -22q21 -21 21 -55t-31 -66t-71 -32t-64 24q-24 22 -23 58zM987 1464q-35 0 -59 20t-25 56q0 36 36 68t72 32q37 0 59 -24t22 -54t-35 -64t-70 -34z" />
    <glyph glyph-name="Grave" unicode="&#xf6ce;" horiz-adv-x="411" 
d="M741 1733q-1 21 19 37t45 16t37 -12t20 -43q29 -66 45 -91q16 -26 54 -72t38 -56t-12 -18q-12 -9 -29 -9q-45 0 -106 63q-111 127 -111 185z" />
    <glyph glyph-name="Hungarumlaut" unicode="&#xf6cf;" horiz-adv-x="542" 
d="M895 1505q0 8 76 64q68 68 100 121q14 22 39 22q24 0 50 -22t26 -43q0 -51 -119 -138q-63 -47 -92 -47h-2q-78 10 -78 43zM641 1507q0 8 76 64q68 68 100 121q14 22 39 22q24 0 50 -22t26 -43q0 -51 -119 -138q-63 -47 -92 -47h-2q-78 11 -78 43z" />
    <glyph glyph-name="Macron" unicode="&#xf6d0;" horiz-adv-x="497" 
d="M684 1589q14 0 35 -9t105 -9t210 33q25 4 31 4q20 0 20 -17q0 -39 -105 -77t-217 -38t-112 62q0 51 33 51z" />
    <glyph glyph-name="Dotaccent" horiz-adv-x="493" 
d="M876 1655q36 0 58 -25q50 -56 -12 -118q-35 -34 -70 -34q-36 0 -60 21q-24 20 -24 55t36 68t72 33z" />
    <glyph glyph-name="Ring" horiz-adv-x="438" 
d="M989 1683h-20q-9 1 -17 7t-51 6t-74 -39q-10 -14 -10 -17v-30q0 -39 68 -39q29 0 55 20q43 43 43 68v4q0 4 6 10v10zM1018 1694q10 0 20 -16t11 -38q1 -70 -59 -118t-136 -47t-116 37t-40 101t68 123t147 58q45 0 76 -20t31 -50q0 -7 -10 -30h8z" />
    <glyph glyph-name="Circumflex" horiz-adv-x="520" 
d="M627 1503q0 23 51 45q90 53 186 148q26 14 48 14t41 -8t23 -15t14 -57t26 -76q16 -28 30 -54t19 -30q6 -4 6 -22t-22 -18q-49 0 -97 40q-45 42 -52 56t-15 22q-11 -6 -35 -21t-55 -27t-53 -21q-22 -11 -69 -11q-46 0 -46 35z" />
    <glyph glyph-name="Breve" horiz-adv-x="565" 
d="M741 1743q0 20 29 20t49 -10q21 -10 55 -44t68 -34t90 24q56 23 104 23t50 -36q0 -12 -11 -20t-53 -32t-82 -55t-60 -41t-54 -10q-35 0 -66 31t-75 103t-44 81z" />
    <glyph glyph-name="Tilde" horiz-adv-x="632" 
d="M1063 1464h-23q-51 16 -65 24t-54 48q-40 39 -87 39t-109 -57q-16 -16 -37 -10q-20 7 -20 30q0 47 60 97t155 51q63 0 111 -54t78 -55t66 27t52 28q32 0 34 -41q0 -41 -56 -84t-105 -43z" />
    <glyph glyph-name="Cedilla" horiz-adv-x="401" 
d="M211 -65q0 -17 36 -59t36 -96q1 -54 -59 -104t-116 -51q-56 1 -86 15t-30 29t7 19t54 5q47 2 78 31q31 30 31 70t-35 68t-35 54t55 100q3 3 11 15l88 -29q-35 -51 -35 -67z" />
    <glyph glyph-name="Ogonek" horiz-adv-x="403" 
d="M309 -250q1 -35 -65 -35q-66 -1 -117 53t-51 132t94 157l70 -41q-60 -74 -60 -120t23 -70t90 -51q16 -8 16 -25z" />
    <glyph glyph-name="commaaccent.sc" horiz-adv-x="335" 
d="M148 -152q29 0 49 -18q61 -54 -103 -246q-59 -70 -100 -70t-41 21q0 8 31 47q90 121 125 232q10 34 39 34z" />
    <glyph glyph-name="Comma.high" horiz-adv-x="448" 
d="M873 1636q29 0 49 -18q61 -54 -103 -246q-59 -70 -100 -70t-41 21q0 8 31 47q90 121 125 232q10 34 39 34z" />
    <glyph glyph-name="Dieresis.alt" horiz-adv-x="493" 
d="M651 1562q0 36 37 64t74 29q37 0 57 -22q21 -21 21 -55t-31 -66t-71 -32t-64 24q-24 22 -23 58zM985 1464q-35 0 -59 20t-25 56q0 36 36 68t72 32q37 0 59 -24t22 -54t-35 -64t-70 -34z" />
    <glyph glyph-name="comma.high" horiz-adv-x="421" 
d="M838 1636q29 0 49 -18q61 -54 -103 -246q-59 -70 -100 -70t-41 21q0 8 31 47q90 121 125 232q10 34 39 34z" />
    <glyph glyph-name="dieresis.alt" horiz-adv-x="493" 
d="M643 1076q0 -34 -31 -66q-30 -32 -70 -31t-64 23t-24 58t38 64q36 28 73 29q37 0 58 -21q20 -22 20 -56zM812 1139q36 0 58 -25q22 -24 23 -54q0 -30 -35 -64q-36 -34 -70 -34t-59 21q-25 20 -25 55t36 68t72 33z" />
    <glyph glyph-name="commareversed" horiz-adv-x="448" 
d="M923 1636q40 0 40 -20q0 -8 -31 -47q-90 -121 -125 -232q-10 -35 -39 -35t-49 19q-64 57 102 246q62 69 102 69z" />
    <glyph glyph-name="a.salt" 
d="M602 472q0 22 30 60q30 36 50 84t20 70t-9 34t-21 11q-60 0 -160 -105q-100 -104 -176 -242t-76 -222q0 -57 47 -58q88 0 330 340q-35 6 -35 28zM305 -6q-72 0 -119 51t-47 140t101 252q100 163 235 286t221 123q41 0 70 -40t37 -104q20 33 53 91q14 29 37 29t39 -28
t16 -61t-50 -129t-88 -225t-38 -227t62 -97q27 1 51 23t35 22q18 0 18 -36t-45 -70t-92 -33q-131 0 -131 213q0 90 18 209q-133 -209 -222 -299t-161 -90z" />
    <glyph glyph-name="c.salt" horiz-adv-x="716" 
d="M659 735q-74 0 -217 -176q-203 -254 -202 -391q0 -36 22 -58t53 -22q111 0 357 234q109 106 188 210q16 18 29 19q20 0 20 -27q0 -51 -151 -225q-272 -311 -449 -311q-74 0 -129 56t-55 145t89 237t227 278q139 130 225 130t86 -70q0 -23 -10 -38t-19 -15q-10 0 -29 12
t-35 12z" />
    <glyph glyph-name="e.salt" horiz-adv-x="690" 
d="M612 689q0 56 -39 56q-39 1 -130 -101t-183 -249q32 -6 70 -6t85 30q45 30 121 122t76 148zM178 180q0 -38 20 -62t54 -24q140 0 357 155q95 69 121 99t42 31q18 0 18 -31q0 -32 -76 -116q-77 -84 -221 -161q-143 -77 -231 -77t-143 56t-55 147t96 250t228 276t210 117
q51 0 82 -34t31 -98q-1 -64 -61 -161q-60 -98 -152 -176t-203 -78q-35 0 -84 10q-33 -84 -33 -123z" />
    <glyph glyph-name="l.salt" horiz-adv-x="327" 
d="M575 1251q27 -1 53 -25t26 -45t-33 -77q-100 -182 -259 -596q-94 -252 -94 -367q0 -59 25 -94q8 -14 8 -20q0 -33 -39 -33q-40 0 -68 49t-28 143t74 310q74 217 177 427t114 269t44 59z" />
    <glyph glyph-name="m.salt" horiz-adv-x="1138" 
d="M395 840q25 0 49 -32t25 -62t-55 -130t-123 -260q164 184 360 387q82 84 105 84q23 -1 42 -29t19 -60t-19 -79t-141 -294q-16 -35 -22 -64q301 315 381 426q84 107 108 107t45 -30t21 -56t-54 -127q-54 -103 -102 -237q-49 -134 -49 -204q0 -100 68 -100q27 0 51 16
t37 17q16 0 16 -34t-39 -66q-38 -31 -100 -31t-103 52t-41 156t87 316q13 27 20 45q-219 -231 -391 -473q-43 -58 -53 -68t-34 -10q-23 0 -47 26t-24 66t109 272t123 271q-434 -451 -484 -617q-8 -24 -32 -24t-53 28q-27 28 -27 46t137 334t151 376q14 62 39 62z" />
    <glyph glyph-name="n.salt" horiz-adv-x="958" 
d="M823 585q-102 -312 -102 -407q0 -43 14 -73t37 -29q78 0 215 186q18 23 31 23q29 0 29 -41t-89 -135q-127 -139 -227 -140q-121 0 -121 207q0 82 92 399q-48 -51 -200 -236t-236 -268t-120 -83t-53 19t-17 48q0 74 64 209q65 135 222 398q35 59 35 104q4 27 36 27t61 -22
q28 -23 28 -49t-135 -243t-164 -301q78 61 252 260t258 322q16 24 42 24q27 0 51 -30t24 -57q0 -29 -27 -112z" />
    <glyph glyph-name="r.salt" horiz-adv-x="520" 
d="M948 764l-76 10q-141 0 -321 -196q-137 -147 -225 -312q-18 -33 -105 -213q-25 -57 -59 -57q-25 0 -41 17t-17 44q0 6 71 161t131 341t50 238q0 31 17 30q27 0 49 -40q38 -70 6 -197q244 264 422 264q47 0 84 -20t37 -46t-23 -24z" />
    <glyph glyph-name="t.salt" horiz-adv-x="462" 
d="M360 228q0 -84 -36 -160t-93 -76q-47 0 -47 110t72 283q-16 143 -16 182t18 59t47 24q29 5 37 7l20 5q12 2 21 4q77 162 151 309t88 187t22 50q9 10 31 10q21 0 45 -23q24 -24 24 -44t-51 -104q-50 -84 -175 -344q130 51 166 71t41 21q18 0 18 -27q1 -67 -282 -188
q-63 -125 -103 -236q2 -35 2 -120z" />
    <glyph glyph-name="u.salt" horiz-adv-x="774" 
d="M227 -10q-47 0 -75 39t-29 107q0 68 84 237q168 340 199 434q12 37 43 37t49 -16t18 -35q0 -49 -134 -309t-134 -312q0 -51 24 -51q59 0 250 245q190 245 305 472q12 26 38 26t43 -16q18 -16 18 -36t-64 -139q-64 -120 -120 -289t-56 -255q0 -27 10 -45t22 -16t16 3
q5 1 11 1q17 0 17 -23t-20 -42t-59 -19q-38 0 -68 45t-30 127t33 168q-268 -338 -391 -338z" />
    <glyph glyph-name="aacute.salt" 
d="M602 472q0 22 30 60q30 36 50 84t20 70t-9 34t-21 11q-60 0 -160 -105q-100 -104 -176 -242t-76 -222q0 -57 47 -58q88 0 330 340q-35 6 -35 28zM305 -6q-72 0 -119 51t-47 140t101 252q100 163 235 286t221 123q41 0 70 -40t37 -104q20 33 53 91q14 29 37 29t39 -28
t16 -61t-50 -129t-88 -225t-38 -227t62 -97q27 1 51 23t35 22q18 0 18 -36t-45 -70t-92 -33q-131 0 -131 213q0 90 18 209q-133 -209 -222 -299t-161 -90zM982 1194q20 0 40 -20t20 -41q0 -47 -112 -107q-111 -55 -145 -55t-54 15t-20 36q0 10 96 55q82 49 137 101
q19 16 38 16z" />
    <glyph glyph-name="agrave.salt" 
d="M602 472q0 22 30 60q30 36 50 84t20 70t-9 34t-21 11q-60 0 -160 -105q-100 -104 -176 -242t-76 -222q0 -57 47 -58q88 0 330 340q-35 6 -35 28zM305 -6q-72 0 -119 51t-47 140t101 252q100 163 235 286t221 123q41 0 70 -40t37 -104q20 33 53 91q14 29 37 29t39 -28
t16 -61t-50 -129t-88 -225t-38 -227t62 -97q27 1 51 23t35 22q18 0 18 -36t-45 -70t-92 -33q-131 0 -131 213q0 90 18 209q-133 -209 -222 -299t-161 -90zM557 1223q1 21 21 37t44 16t36 -12t22 -45q29 -66 44 -91q15 -26 54 -72t39 -56t-13 -18q-13 -9 -28 -9
q-49 0 -106 63q-113 125 -113 187z" />
    <glyph glyph-name="acircumflex.salt" horiz-adv-x="944" 
d="M602 472q0 22 30 60q30 36 50 84t20 70t-9 34t-21 11q-60 0 -160 -105q-100 -104 -176 -242t-76 -222q0 -57 47 -58q88 0 330 340q-35 6 -35 28zM305 -6q-72 0 -119 51t-47 140t101 252q100 163 235 286t221 123q41 0 70 -40t37 -104q20 33 53 91q14 29 37 29t39 -28
t16 -61t-50 -129t-88 -225t-38 -227t62 -97q27 1 51 23t35 22q18 0 18 -36t-45 -70t-92 -33q-131 0 -131 213q0 90 18 209q-133 -209 -222 -299t-161 -90zM600 1004q-59 0 -59 34q0 23 51 45q90 53 186 148q26 14 48 14t41 -8t23 -15q4 -6 14 -56t26 -78t30 -53t19 -29
q6 -4 6 -22t-22 -19q-49 1 -93 39t-61 69l-10 10q-12 -8 -49 -30q-32 -13 -76 -31t-74 -18z" />
    <glyph glyph-name="aring.salt" 
d="M602 472q0 22 30 60q30 36 50 84t20 70t-9 34t-21 11q-60 0 -160 -105q-100 -104 -176 -242t-76 -222q0 -57 47 -58q88 0 330 340q-35 6 -35 28zM305 -6q-72 0 -119 51t-47 140t101 252q100 163 235 286t221 123q41 0 70 -40t37 -104q20 33 53 91q14 29 37 29t39 -28
t16 -61t-50 -129t-88 -225t-38 -227t62 -97q27 1 51 23t35 22q18 0 18 -36t-45 -70t-92 -33q-131 0 -131 213q0 90 18 209q-133 -209 -222 -299t-161 -90zM954 1165h-20q-6 0 -14 6q-18 6 -59 7t-68 -39q-10 -14 -11 -17v-30q0 -39 68 -39q29 0 55 20q43 43 43 68v4
q0 4 6 10v10zM983 1176q11 0 21 -16t10 -38q0 -70 -60 -118t-135 -48q-76 0 -116 37q-39 37 -39 102t67 123q68 58 148 58q45 0 75 -20t31 -50q0 -7 -10 -30h8z" />
    <glyph glyph-name="edieresis.salt" horiz-adv-x="690" 
d="M612 689q0 56 -39 56q-39 1 -130 -101t-183 -249q32 -6 70 -6t85 30q45 30 121 122t76 148zM178 180q0 -38 20 -62t54 -24q140 0 357 155q95 69 121 99t42 31q18 0 18 -31q0 -32 -76 -116q-77 -84 -221 -161q-143 -77 -231 -77t-143 56t-55 147t96 250t228 276t210 117
q51 0 82 -34t31 -98q-1 -64 -61 -161q-60 -98 -152 -176t-203 -78q-35 0 -84 10q-33 -84 -33 -123zM576 1141q37 0 57 -22q20 -21 20 -55q1 -34 -31 -67t-71 -33t-63 24q-24 22 -24 58t38 66q37 29 74 29zM798 950q-34 0 -59 20t-25 56t36 68t72 32t60 -26t24 -54t-37 -62
t-71 -34z" />
    <glyph glyph-name="eacute.salt" horiz-adv-x="749" 
d="M672 689q0 56 -39 56q-39 1 -131 -101t-183 -249q31 -6 70 -6t85 30t122 122t76 148zM311 94q139 0 358 155q95 69 123 99t39 31q19 0 19 -31t-59 -98q-95 -102 -239 -179t-232 -77t-142 56q-55 56 -55 147t96 250t240 284q121 109 198 109q51 0 82 -34t31 -98t-60 -161
q-60 -98 -152 -176t-204 -78q-35 0 -84 10q-32 -84 -32 -123q0 -38 19 -62t54 -24zM886 1194q20 0 40 -20t20 -41q0 -47 -112 -107q-111 -55 -144 -55t-53 15t-21 36q0 10 95 55q88 53 122 85t53 32z" />
    <glyph glyph-name="egrave.salt" horiz-adv-x="749" 
d="M672 689q0 56 -39 56q-39 1 -131 -101t-183 -249q31 -6 70 -6t85 30t122 122t76 148zM311 94q139 0 358 155q95 69 123 99t39 31q19 0 19 -31t-59 -98q-95 -102 -239 -179t-232 -77t-142 56q-55 56 -55 147t96 250t240 284q121 109 198 109q51 0 82 -34t31 -98t-60 -161
q-60 -98 -152 -176t-204 -78q-35 0 -84 10q-32 -84 -32 -123q0 -38 19 -62t54 -24zM496 1223q0 21 19 37t44 16t37 -12t20 -45q28 -66 46 -92q18 -25 54 -71t38 -56q0 -10 -14 -18q-14 -9 -29 -9q-47 0 -119 80q-96 113 -96 170z" />
    <glyph glyph-name="ecircumflex.salt" horiz-adv-x="749" 
d="M672 689q0 56 -39 56q-39 1 -131 -101t-183 -249q31 -6 70 -6t85 30t122 122t76 148zM311 94q139 0 358 155q95 69 123 99t39 31q19 0 19 -31t-59 -98q-95 -102 -239 -179t-232 -77t-142 56q-55 56 -55 147t96 250t240 284q121 109 198 109q51 0 82 -34t31 -98t-60 -161
q-60 -98 -152 -176t-204 -78q-35 0 -84 10q-32 -84 -32 -123q0 -38 19 -62t54 -24zM463 1028q0 23 51 45q86 53 186 148q18 14 58 14t53 -25q6 -10 10 -39q19 -73 39 -109t26 -50t13 -17q6 -4 6 -22t-22 -19q-53 0 -95 39t-59 70l-10 10q-12 -8 -49 -31q-31 -12 -74 -30
t-74 -19q-59 0 -59 35z" />
    <glyph glyph-name="ntilde.salt" horiz-adv-x="819" 
d="M134 -14q-22 0 -44 30t-22 73q0 44 217 474q61 121 73 150t18 75t38 48q34 0 60 -28t26 -62t-92 -193q-92 -158 -127 -246q47 33 180 162t216 223t99 108t37 15q21 0 38 -30q17 -29 17 -61t-30 -110q-119 -285 -119 -464q0 -80 45 -142q16 -25 16 -33q0 -25 -38 -25
t-76 40q-56 53 -56 187t97 417q-8 -10 -29 -31t-31 -33l-80 -79q-348 -354 -379 -412q-24 -39 -28 -46t-26 -7zM594 1090q-49 0 -109 -56q-16 -16 -36 -9q-21 7 -21 41t60 84t139 50t127 -54t80 -54q30 0 66 28t51 29q15 0 25 -13t9 -32q0 -39 -56 -82t-115 -43t-126 68
q-45 43 -94 43z" />
    <glyph glyph-name="uacute.salt" horiz-adv-x="774" 
d="M227 -10q-47 0 -75 39t-29 107q0 68 84 237q168 340 199 434q12 37 43 37t49 -16t18 -35q0 -49 -134 -309t-134 -312q0 -51 24 -51q59 0 250 245q190 245 305 472q12 26 38 26t43 -16q18 -16 18 -36t-64 -139q-64 -120 -120 -289t-56 -255q0 -27 10 -45t22 -16t16 3
q5 1 11 1q17 0 17 -23t-20 -42t-59 -19q-38 0 -68 45t-30 127t33 168q-268 -338 -391 -338zM532 1223q0 21 20 37t44 16q25 0 37 -12t20 -45q29 -66 46 -92q17 -25 54 -71t37 -56t-12 -18q-12 -9 -28 -9q-45 0 -107 63q-111 127 -111 187z" />
    <glyph glyph-name="ucircumflex.salt" horiz-adv-x="774" 
d="M227 -10q-47 0 -75 39t-29 107q0 68 84 237q168 340 199 434q12 37 43 37t49 -16t18 -35q0 -49 -134 -309t-134 -312q0 -51 24 -51q59 0 250 245q190 245 305 472q12 26 38 26t43 -16q18 -16 18 -36t-64 -139q-64 -120 -120 -289t-56 -255q0 -27 10 -45t22 -16t16 3
q5 1 11 1q17 0 17 -23t-20 -42t-59 -19q-38 0 -68 45t-30 127t33 168q-268 -338 -391 -338zM555 1014q-59 0 -59 35q0 23 51 45q90 53 186 147q25 14 61 14t52 -26q2 -7 15 -59t34 -87l20 -41q13 -24 19 -28t6 -22t-22 -19q-54 -1 -96 39t-60 71l-8 9q-12 -6 -49 -29
q-31 -13 -75 -31t-75 -18z" />
    <glyph glyph-name="e.salt1" horiz-adv-x="806" 
d="M748 711q0 35 -37 35t-126 -91q-89 -90 -177 -223l4 -2q2 0 18 -12t55 -12q79 0 171 122t92 183zM305 182q0 -90 76 -90q135 0 328 146q95 70 159 132t166 181q14 18 31 18q25 0 25 -41t-127 -176q-340 -358 -603 -358q-78 0 -126 51t-48 135q0 168 166 375
q102 127 208 204t179 77q102 0 103 -115q0 -73 -70 -181t-148 -171q-143 -115 -268 -21q-51 -106 -51 -166z" />
    <glyph glyph-name="l.salt1" horiz-adv-x="518" 
d="M634 1376q22 0 48 -24t25 -42q-1 -20 -53 -116t-158 -320t-138 -315q-82 -221 -82 -352t80 -131q35 0 81 35q45 35 69 72t36 37t13 -28q0 -27 -16 -59q-82 -139 -208 -139q-65 0 -110 63t-45 170q0 174 119 460q119 287 200 439t95 209q10 27 16 34t28 7z" />
    <glyph glyph-name="edieresis.salt1" horiz-adv-x="806" 
d="M748 711q0 35 -37 35t-126 -91q-89 -90 -177 -223l4 -2q2 0 18 -12t55 -12q79 0 171 122t92 183zM305 182q0 -90 76 -90q135 0 328 146q95 70 159 132t166 181q14 18 31 18q25 0 25 -41t-127 -176q-340 -358 -603 -358q-78 0 -126 51t-48 135q0 168 166 375
q102 127 208 204t179 77q102 0 103 -115q0 -73 -70 -181t-148 -171q-143 -115 -268 -21q-51 -106 -51 -166zM723 1141q37 0 57 -22q20 -21 20 -55t-30 -67q-31 -33 -70 -33q-38 0 -62 24q-24 22 -24 58t36 66q36 29 73 29zM948 950q-36 0 -60 20t-24 56t36 68t72 32t58 -24
t23 -54q0 -30 -35 -64t-70 -34z" />
    <glyph glyph-name="egrave.salt1" horiz-adv-x="806" 
d="M748 711q0 35 -37 35t-126 -91q-89 -90 -177 -223l4 -2q2 0 18 -12t55 -12q79 0 171 122t92 183zM305 182q0 -90 76 -90q135 0 328 146q95 70 159 132t166 181q14 18 31 18q25 0 25 -41t-127 -176q-340 -358 -603 -358q-78 0 -126 51t-48 135q0 168 166 375
q102 127 208 204t179 77q102 0 103 -115q0 -73 -70 -181t-148 -171q-143 -115 -268 -21q-51 -106 -51 -166zM653 1221q-1 21 19 37t45 16t37 -12t20 -43q29 -66 45 -91q16 -26 54 -72t38 -56t-13 -18q-13 -9 -28 -9q-45 0 -106 63q-111 127 -111 185z" />
    <glyph glyph-name="ecircumflex.salt1" horiz-adv-x="806" 
d="M748 711q0 35 -37 35t-126 -91q-89 -90 -177 -223l4 -2q2 0 18 -12t55 -12q79 0 171 122t92 183zM305 182q0 -90 76 -90q135 0 328 146q95 70 159 132t166 181q14 18 31 18q25 0 25 -41t-127 -176q-340 -358 -603 -358q-78 0 -126 51t-48 135q0 168 166 375
q102 127 208 204t179 77q102 0 103 -115q0 -73 -70 -181t-148 -171q-143 -115 -268 -21q-51 -106 -51 -166zM623 1004q-59 0 -60 34q0 23 51 45q90 53 187 148q25 14 47 14t42 -8t22 -15q2 -6 14 -56t28 -78t28 -53q13 -25 19 -29t7 -23q0 -19 -36 -19t-77 35l-39 39
q-16 13 -24 28q-9 15 -11 17q-56 -37 -115 -58t-83 -21z" />
    </font>
</defs>
</svg>
