<?xml version="1.0" encoding="utf-8"?>
<!-- Generator: Adobe Illustrator 15.1.0, SVG Export Plug-In . SVG Version: 6.00 Build 0)  -->
<!DOCTYPE svg PUBLIC "-//W3C//DTD SVG 1.1//EN" "http://www.w3.org/Graphics/SVG/1.1/DTD/svg11.dtd">
<svg version="1.1" id="Layer_1" xmlns="http://www.w3.org/2000/svg" xmlns:xlink="http://www.w3.org/1999/xlink" x="0px" y="0px"
	 width="432.98px" height="247.75px" viewBox="0 0 432.98 247.75" enable-background="new 0 0 432.98 247.75" xml:space="preserve">
<g id="bg" display="none">
	<rect x="-2" y="-0.042" display="inline" fill="#B2B2B2" width="313.001" height="340"/>
</g>
<g id="Sprite_image" display="none">
</g>
<g>
	<path d="M24.595,1.581c-0.13-0.323-0.396-0.516-0.783-0.516h-21.7c-0.323,0-0.654,0.193-0.783,0.516
		C1.2,1.913,1.265,2.235,1.522,2.492l7.673,7.663v13.65c0,0.323,0.193,0.646,0.515,0.783c0.129,0.064,0.194,0.064,0.323,0.064
		c0.203,0,0.46-0.064,0.589-0.267l5.979-5.978c0.128-0.128,0.257-0.386,0.257-0.58v-7.802l7.607-7.535
		C24.659,2.235,24.723,1.913,24.595,1.581z M15.172,9.705v7.802l-4.355,4.347V9.833c0-0.193-0.064-0.451-0.258-0.58L4.064,2.686
		H21.86l-6.43,6.439C15.302,9.317,15.172,9.511,15.172,9.705z"/>
</g>
<g>
	<g>
		<path d="M51.618,23.676c-0.58,0-1.104-0.525-1.104-1.105V2.621c0-0.579,0.525-1.105,1.104-1.105c0.59,0,1.105,0.526,1.105,1.105
			v20.015C52.723,23.216,52.273,23.676,51.618,23.676z"/>
	</g>
	<g>
		<path d="M51.618,24.653l-6.171-6.181c-0.451-0.45-0.451-1.096,0-1.556c0.461-0.452,1.104-0.452,1.557,0l4.614,4.614l4.616-4.614
			c0.46-0.452,1.104-0.452,1.564,0c0.451,0.46,0.451,1.105,0,1.556L51.618,24.653z"/>
	</g>
	<g>
		<path d="M63.574,23.676c-0.581,0-1.096-0.525-1.096-1.105V2.621c0-0.579,0.516-1.105,1.096-1.105c0.589,0,1.104,0.526,1.104,1.105
			v20.015C64.678,23.216,64.163,23.676,63.574,23.676z"/>
	</g>
	<g>
		<path d="M68.972,9.06c-0.26,0-0.591-0.138-0.784-0.332l-4.614-4.614L58.97,8.728c-0.463,0.462-1.105,0.462-1.567,0
			c-0.451-0.451-0.451-1.105,0-1.556L63.574,1l6.18,6.171c0.451,0.451,0.451,1.105,0,1.556C69.487,8.995,69.229,9.06,68.972,9.06z"
			/>
	</g>
</g>
<g>
	<g>
		<path fill="#A7183E" d="M108.475,24.523H95.939c-1.63,0-2.993-1.372-2.993-2.993V6.001h18.521V21.53
			C111.468,23.151,110.17,24.523,108.475,24.523z M94.706,7.752V21.53c0,0.72,0.581,1.235,1.233,1.235h12.536
			c0.718,0,1.232-0.581,1.232-1.235V7.752H94.706z"/>
	</g>
	<g>
		<path fill="#A7183E" d="M107.176,10.027h-1.75V6.389c0-1.815-1.502-3.445-3.251-3.445c-1.694,0-3.253,1.63-3.253,3.445v3.638
			h-1.685V6.389c0-2.855,2.275-5.194,5.001-5.194c2.728,0,5.001,2.403,5.001,5.194v3.638H107.176z"/>
	</g>
</g>
<g>
	<g>
		<path fill="#A7183E" d="M142.813,20.333c-1.634,0-3.205-0.539-4.517-1.517c-1.625-1.202-2.665-2.936-2.934-4.946
			c-0.271-2.01,0.216-3.967,1.418-5.546c1.409-1.903,3.635-2.989,6.032-2.989c1.625,0,3.204,0.547,4.505,1.525
			c3.32,2.497,3.968,7.226,1.526,10.539C147.373,19.192,145.199,20.333,142.813,20.333z M142.813,6.968
			c-1.85,0-3.537,0.87-4.676,2.334c-0.926,1.249-1.303,2.774-1.087,4.352c0.216,1.518,1.031,2.874,2.28,3.852
			c1.031,0.762,2.227,1.147,3.482,1.147c1.849,0,3.527-0.87,4.667-2.341c1.901-2.55,1.417-6.247-1.141-8.15
			C145.308,7.345,144.113,6.968,142.813,6.968z"/>
	</g>
	<g>
		
			<rect x="147.638" y="17.469" transform="matrix(-0.7998 -0.6003 0.6003 -0.7998 259.1867 123.0621)" fill="#A7183E" width="4.952" height="1.684"/>
	</g>
</g>
<g>
	<path fill="#8A8A8A" d="M9.388,50.193H3.991c-1.104,0-1.943-0.848-1.943-1.953v-5.452c0-1.105,0.839-1.953,1.943-1.953h5.397
		c1.104,0,1.951,0.848,1.951,1.953v5.388C11.406,49.281,10.493,50.193,9.388,50.193z M3.991,42.198c-0.322,0-0.581,0.258-0.581,0.59
		v5.388c0,0.322,0.259,0.59,0.581,0.59h5.397c0.321,0,0.579-0.268,0.579-0.59v-5.388c0-0.332-0.258-0.59-0.579-0.59H3.991z
		 M21.933,50.193h-5.461c-1.105,0-1.953-0.848-1.953-1.953v-5.452c0-1.105,0.848-1.953,1.953-1.953h5.461
		c1.096,0,1.942,0.848,1.942,1.953v5.388C23.875,49.281,23.028,50.193,21.933,50.193z M16.472,42.198
		c-0.323,0-0.591,0.258-0.591,0.59v5.388c0,0.322,0.268,0.59,0.591,0.59h5.461c0.321,0,0.58-0.268,0.58-0.59v-5.388
		c0-0.332-0.259-0.59-0.58-0.59H16.472z M9.453,62.342H4.064c-1.104,0-1.952-0.848-1.952-1.944v-5.397
		c0-1.104,0.848-1.952,1.952-1.952h5.389c1.105,0,1.953,0.848,1.953,1.952v5.397C11.406,61.43,10.558,62.342,9.453,62.342z
		 M4.064,54.412c-0.332,0-0.589,0.267-0.589,0.589v5.397c0,0.323,0.258,0.581,0.589,0.581h5.389c0.322,0,0.58-0.257,0.58-0.581
		v-5.397c0-0.322-0.258-0.589-0.58-0.589H4.064z M21.933,62.342h-5.396c-1.104,0-1.953-0.848-1.953-1.944v-5.397
		c0-1.104,0.849-1.952,1.953-1.952h5.396c1.096,0,1.942,0.848,1.942,1.952v5.397C23.941,61.43,23.028,62.342,21.933,62.342z
		 M16.536,54.412c-0.322,0-0.59,0.267-0.59,0.589v5.397c0,0.323,0.268,0.581,0.59,0.581h5.396c0.321,0,0.58-0.257,0.58-0.581v-5.397
		c0-0.322-0.259-0.589-0.58-0.589H16.536z"/>
</g>
<g>
	<path fill="#8A8A8A" d="M64.486,63.06c-0.129,0-0.258,0-0.387-0.128l-6.502-3.446l-6.494,3.446
		c-0.258,0.128-0.655,0.128-0.912-0.065c-0.258-0.202-0.386-0.524-0.322-0.848l1.234-7.276l-5.259-5.139
		c-0.268-0.193-0.332-0.58-0.202-0.838c0.128-0.332,0.396-0.525,0.718-0.59l7.277-1.041l3.25-6.622
		c0.13-0.258,0.451-0.46,0.772-0.46c0.333,0,0.654,0.203,0.784,0.46l3.25,6.622l7.277,1.041c0.32,0.064,0.578,0.258,0.718,0.59
		c0.128,0.322,0,0.645-0.202,0.838l-5.259,5.139l1.232,7.276c0.064,0.323-0.063,0.646-0.321,0.848
		C64.872,62.996,64.678,63.06,64.486,63.06z M47.852,49.539l4.549,4.42c0.194,0.195,0.322,0.525,0.258,0.783l-1.041,6.236
		l5.591-2.92c0.257-0.138,0.59-0.138,0.849,0l5.582,2.92l-1.033-6.236c-0.063-0.257,0.064-0.588,0.26-0.783l4.549-4.42l-6.245-0.903
		c-0.258-0.063-0.515-0.202-0.645-0.46l-2.801-5.646l-2.791,5.646c-0.128,0.258-0.387,0.46-0.646,0.46L47.852,49.539z"/>
</g>
<g>
	<path fill="#8A8A8A" d="M102.239,62.472c-1.693,0-2.726-1.105-2.726-2.986c0-0.718,0.064-1.363,0.193-2.081l0,0
		c0.129-0.979,0.258-2.017,0.258-3.445c0-0.708-0.387-1.04-1.427-1.556c-1.104-0.59-2.598-1.363-2.598-3.704
		c0-0.202,0.129-0.46,0.323-0.524l0.063-0.065v-0.128c0.065-3.38,0.451-6.559,0.451-6.696c0.063-0.322,0.332-0.516,0.59-0.516h9.615
		c0.323,0,0.581,0.258,0.581,0.516c0,0.065,0.396,3.574,0.46,6.696v0.128l0.063,0.065c0.194,0.13,0.323,0.322,0.323,0.524
		c0,2.341-1.492,3.114-2.598,3.704c-0.977,0.516-1.427,0.848-1.427,1.556c0,1.428,0.128,2.534,0.258,3.445
		c0.064,0.783,0.192,1.428,0.192,2.081C104.901,61.301,103.861,62.472,102.239,62.472z M97.237,49.41
		c0.26,0.977,0.978,1.363,1.815,1.824c0.911,0.516,2.018,1.104,2.018,2.663c0,1.491-0.129,2.597-0.258,3.637
		c-0.064,0.719-0.203,1.365-0.203,1.953c0,1.428,0.848,1.75,1.502,1.75c0.708,0,1.491-0.323,1.491-1.75
		c0-0.588-0.063-1.233-0.193-1.953c-0.128-0.976-0.258-2.146-0.258-3.637c0-1.558,1.104-2.147,2.008-2.663
		c0.848-0.461,1.565-0.847,1.823-1.824l0.064-0.194h-9.81L97.237,49.41L97.237,49.41z M106.854,47.982v-0.193
		c-0.064-2.146-0.258-4.55-0.396-5.785v-0.128h-1.096v1.888c0,0.323-0.267,0.581-0.59,0.581c-0.322,0-0.589-0.258-0.589-0.581
		v-1.888h-1.098v2.598c0,0.321-0.267,0.588-0.588,0.588c-0.323,0-0.581-0.267-0.581-0.588v-2.598H98.14v0.128
		c-0.128,1.171-0.323,3.446-0.386,5.785v0.193H106.854z"/>
	<path fill="#8A8A8A" d="M102.239,62.276c-1.556,0-2.532-1.04-2.532-2.791c0-0.653,0.063-1.298,0.193-2.081l0,0
		c0.128-0.977,0.258-2.083,0.258-3.508c0-0.848-0.516-1.17-1.493-1.686c-1.104-0.59-2.469-1.372-2.469-3.575
		c0-0.202,0.065-0.33,0.259-0.396l0.194-0.064v-0.193c0.063-3.38,0.46-6.559,0.46-6.696c0-0.192,0.191-0.388,0.45-0.388h9.422
		c0.193,0,0.388,0.195,0.452,0.388c0,0.065,0.396,3.574,0.461,6.696v0.193l0.191,0.064c0.13,0.065,0.259,0.193,0.259,0.396
		c0,2.275-1.363,2.985-2.469,3.575c-0.976,0.516-1.49,0.838-1.49,1.686c0,1.426,0.128,2.531,0.258,3.508
		c0.064,0.783,0.192,1.428,0.192,2.081C104.771,61.236,103.796,62.276,102.239,62.276z M97.109,49.476
		c0.258,1.04,1.104,1.501,1.943,1.951c0.911,0.518,1.952,1.042,1.952,2.47c0,1.491-0.13,2.597-0.258,3.573
		c-0.063,0.719-0.202,1.363-0.202,2.017c0,1.685,1.04,1.88,1.693,1.88c0.645,0,1.686-0.258,1.686-1.88
		c0-0.653-0.063-1.233-0.192-2.017c-0.13-0.976-0.258-2.082-0.258-3.573c0-1.428,1.04-2.018,1.952-2.47
		c0.838-0.45,1.621-0.911,1.943-1.951l0.128-0.388H97.035L97.109,49.476z M97.817,42.069c-0.128,1.17-0.32,3.445-0.386,5.783v0.323
		h9.615v-0.323c-0.064-2.145-0.258-4.549-0.388-5.783v-0.323h-1.436v2.083c0,0.257-0.195,0.451-0.453,0.451
		c-0.258,0-0.45-0.193-0.45-0.451v-2.083h-1.438v2.792c0,0.258-0.192,0.461-0.45,0.461c-0.258,0-0.452-0.203-0.452-0.461v-2.792
		H97.88L97.817,42.069z"/>
	<path fill="#8A8A8A" d="M102.239,58.768c0.36,0,0.645,0.294,0.645,0.654c0,0.359-0.284,0.645-0.645,0.645
		c-0.359,0-0.654-0.285-0.654-0.645C101.585,59.062,101.88,58.768,102.239,58.768z"/>
	<path fill="#8A8A8A" d="M102.239,58.961c0.25,0,0.452,0.202,0.452,0.461c0,0.249-0.202,0.451-0.452,0.451
		c-0.248,0-0.451-0.203-0.451-0.451C101.788,59.164,101.991,58.961,102.239,58.961z"/>
</g>
<g>
	<path fill="#8A8A8A" d="M145.704,42.917l-5.646,0.709c-0.72,0.063-1.373,0.718-1.502,1.5l-0.708,5.646
		c-0.065,0.653,0.191,1.438,0.645,1.889l9.68,9.68c0.269,0.258,0.653,0.45,1.041,0.45c0.396,0,0.782-0.128,1.04-0.45l7.021-7.02
		c0.259-0.258,0.451-0.644,0.451-1.04c0-0.386-0.129-0.773-0.451-1.031l-9.68-9.69C147.141,43.109,146.357,42.788,145.704,42.917z
		 M146.68,44.474l9.679,9.68c0.063,0.063,0.063,0.128,0,0.192l-7.021,7.02l-0.063,0.063c0,0-0.064,0-0.064-0.063l-9.745-9.68
		c-0.129-0.13-0.257-0.517-0.257-0.709v-0.065l0.708-5.655c0-0.13,0.204-0.332,0.332-0.332l5.656-0.709
		C146.1,44.151,146.487,44.28,146.68,44.474z M141.089,48.7c0,0.71,0.268,1.363,0.782,1.815c0.525,0.526,1.169,0.783,1.825,0.783
		c0.708,0,1.363-0.257,1.813-0.783c0.525-0.515,0.783-1.169,0.783-1.815c0-0.652-0.258-1.363-0.783-1.823
		c-1.039-1.04-2.66-1.04-3.701,0C141.356,47.337,141.089,47.982,141.089,48.7z M144.599,47.789c0.266,0.259,0.396,0.581,0.396,0.911
		c0,0.323-0.13,0.646-0.396,0.903c-0.26,0.268-0.58,0.396-0.902,0.396c-0.332,0-0.655-0.129-0.913-0.396
		c-0.258-0.258-0.387-0.58-0.387-0.903c0-0.33,0.129-0.652,0.387-0.911C143.234,47.337,144.082,47.337,144.599,47.789z"/>
	<g>
		<path fill="#8A8A8A" d="M143.954,48.306c-0.524-1.558-1.17-3.114-2.018-4.542c-0.782-1.233-1.75-2.478-3.177-2.993
			c-0.783-0.322-1.566-0.322-2.34-0.193c-0.333,0.064-0.46,0.451-0.396,0.709c0.063,0.332,0.396,0.46,0.72,0.396
			c0.192,0,0.192-0.064,0.386-0.064c0.13,0,0.322,0,0.452,0c0.072,0,0.072,0,0.139,0c-0.139,0,0,0,0,0c0.063,0,0.13,0,0.193,0.064
			c0.128,0,0.258,0.063,0.386,0.129c0.065,0,0.065,0,0.131,0.064c-0.064-0.064,0,0,0,0c0.063,0,0.128,0.064,0.192,0.064
			c0.14,0.063,0.268,0.129,0.397,0.193c0.258,0.13,0.451,0.322,0.643,0.525c0.979,0.967,1.695,2.201,2.275,3.508
			c0.322,0.775,0.654,1.557,0.913,2.405c0.128,0.258,0.386,0.451,0.718,0.386C143.824,48.895,144.019,48.572,143.954,48.306
			L143.954,48.306z"/>
	</g>
</g>
<g>
	<path fill="#8A8A8A" d="M201.316,51.814c-0.055-0.193-0.055-0.322,0-0.516l0.59-1.888c0.258-0.838-0.074-1.75-0.7-2.275
		l-1.564-1.169c-0.13-0.064-0.275-0.258-0.275-0.386l-0.627-1.89c-0.258-0.838-1.104-1.363-1.952-1.426l-2.025-0.065
		c-0.186,0-0.332-0.064-0.441-0.194l-1.631-1.169c-0.72-0.515-1.694-0.515-2.403,0l-1.632,1.169
		c-0.129,0.065-0.256,0.194-0.449,0.194l-2.018,0.065c-0.84,0-1.688,0.588-1.944,1.426l-0.652,1.89
		c-0.064,0.192-0.193,0.258-0.258,0.386l-1.622,1.169c-0.718,0.525-0.977,1.438-0.718,2.275l0.579,1.888
		c0.074,0.193,0.074,0.322,0,0.516l-0.579,1.888c-0.259,0.848,0.063,1.75,0.718,2.276l1.558,1.17
		c0.129,0.064,0.258,0.257,0.258,0.386l0.654,1.889c0.258,0.838,1.104,1.363,1.943,1.427l2.018,0.064
		c0.192,0,0.321,0.065,0.45,0.195l1.632,1.168c0.385,0.258,0.771,0.388,1.17,0.388c0.387,0,0.838-0.13,1.168-0.388l1.611-1.168
		c0.147-0.065,0.26-0.195,0.461-0.195l2.01-0.064c0.848,0,1.693-0.588,1.952-1.427l0.661-1.889c0.057-0.192,0.188-0.258,0.26-0.386
		l1.547-1.17c0.719-0.525,0.996-1.428,0.719-2.276L201.316,51.814z M200.212,52.21l0.591,1.878c0.071,0.323,0,0.718-0.259,0.912
		l-1.549,1.169c-0.332,0.258-0.591,0.581-0.736,0.978l-0.626,1.878c-0.146,0.332-0.403,0.524-0.793,0.59l-2.008,0.064
		c-0.403,0-0.848,0.129-1.18,0.387l-1.62,1.169c-0.259,0.193-0.646,0.193-0.976,0l-1.621-1.169c-0.322-0.258-0.722-0.387-1.17-0.387
		l-2.02-0.064c-0.322,0-0.646-0.258-0.771-0.59l-0.654-1.878c-0.129-0.397-0.387-0.72-0.709-0.978L182.546,55
		c-0.259-0.194-0.387-0.589-0.259-0.912l0.59-1.878c0.129-0.396,0.129-0.848,0-1.169l-0.59-1.889c-0.063-0.322,0-0.719,0.259-0.912
		l1.565-1.17c0.322-0.257,0.58-0.581,0.709-0.966l0.654-1.889c0.127-0.321,0.387-0.525,0.771-0.588l2.02-0.065
		c0.385,0,0.848-0.129,1.17-0.386l0,0l1.621-1.171c0.127-0.063,0.33-0.192,0.522-0.192c0.193,0,0.322,0.064,0.517,0.192l1.631,1.171
		c0.332,0.257,0.698,0.386,1.18,0.386l1.988,0.065c0.332,0,0.662,0.267,0.793,0.588l0.646,1.889
		c0.146,0.386,0.403,0.709,0.718,0.966l1.565,1.17c0.258,0.193,0.388,0.59,0.258,0.912l-0.59,1.889
		C200.102,51.363,200.102,51.75,200.212,52.21z"/>
	<path fill="#8A8A8A" d="M187.354,56.825c-0.258-0.268-0.58-0.525-0.838-0.783c-0.269-0.258-0.652-0.258-0.849-0.064
		c-0.192,0.192-0.258,0.645-0.063,0.848c0.26,0.322,0.646,0.644,0.978,0.902c0.128,0.065,0.258,0.129,0.389,0.129
		c0.191,0,0.387-0.063,0.516-0.258C187.75,57.405,187.686,57.018,187.354,56.825z"/>
	<path fill="#8A8A8A" d="M197.43,48.7c0.129,0.194,0.313,0.323,0.516,0.323c0.057,0,0.203,0,0.259-0.065
		c0.276-0.192,0.46-0.524,0.276-0.848c-0.223-0.386-0.406-0.773-0.736-1.168c-0.186-0.258-0.571-0.323-0.848-0.129
		c-0.258,0.192-0.313,0.59-0.11,0.847C197.042,47.982,197.229,48.306,197.43,48.7z"/>
	<path fill="#8A8A8A" d="M190.023,45.062c0.063,0,0.063,0,0.129,0c0.322-0.063,0.646-0.063,0.969-0.138c0.063,0,0.138,0,0.202,0
		c0.321,0,0.644-0.258,0.644-0.645c0-0.386-0.258-0.653-0.644-0.653c-0.064,0-0.14,0-0.202,0c-0.389,0-0.71,0.063-1.098,0.137
		c-0.33,0.065-0.525,0.387-0.525,0.71C189.498,44.86,189.758,45.062,190.023,45.062z"/>
	<path fill="#8A8A8A" d="M184.95,52.662c-0.065-0.323-0.388-0.59-0.712-0.516c-0.329,0.064-0.588,0.386-0.523,0.709
		c0.064,0.461,0.194,0.847,0.322,1.299c0.074,0.258,0.332,0.395,0.59,0.395c0.064,0,0.13,0,0.193-0.064
		c0.322-0.138,0.522-0.46,0.396-0.783C185.078,53.444,184.95,53.049,184.95,52.662z"/>
	<path fill="#8A8A8A" d="M187.878,45.256c-0.191-0.258-0.589-0.396-0.847-0.194c-0.387,0.258-0.719,0.518-1.041,0.839
		c-0.258,0.267-0.258,0.654,0,0.847c0.13,0.129,0.258,0.195,0.46,0.195c0.194,0,0.323-0.065,0.388-0.195
		c0.259-0.258,0.58-0.516,0.849-0.718C188.008,45.901,188.073,45.514,187.878,45.256z"/>
	<path fill="#8A8A8A" d="M185.016,48.176c-0.324-0.128-0.646,0-0.841,0.322c-0.202,0.396-0.329,0.848-0.396,1.308
		c-0.063,0.323,0.131,0.645,0.461,0.709c0.064,0,0.064,0,0.13,0c0.258,0,0.518-0.194,0.646-0.515
		c0.063-0.396,0.202-0.719,0.396-1.105C185.475,48.7,185.346,48.306,185.016,48.176z"/>
	<path fill="#8A8A8A" d="M198.073,54.614c-0.259-0.202-0.644-0.065-0.847,0.258c-0.187,0.322-0.389,0.646-0.646,0.976
		c-0.202,0.259-0.202,0.646,0.057,0.839c0.146,0.063,0.258,0.138,0.403,0.138c0.187,0,0.39-0.075,0.517-0.203
		c0.258-0.322,0.517-0.71,0.7-1.104C198.479,55.194,198.404,54.807,198.073,54.614z"/>
	<path fill="#8A8A8A" d="M195.532,44.795c-0.368-0.258-0.773-0.387-1.16-0.581c-0.313-0.128-0.646,0.065-0.771,0.323
		c-0.141,0.322,0.055,0.654,0.313,0.782c0.331,0.13,0.718,0.26,1.05,0.518c0.057,0.063,0.202,0.063,0.313,0.063
		c0.201,0,0.404-0.129,0.516-0.258C195.938,45.384,195.863,44.999,195.532,44.795z"/>
	<path fill="#8A8A8A" d="M190.861,58.188c-0.387-0.065-0.709-0.065-1.104-0.203c-0.32-0.064-0.646,0.138-0.709,0.461
		c-0.064,0.322,0.129,0.645,0.449,0.71c0.388,0.137,0.85,0.202,1.301,0.267h0.063c0.322,0,0.59-0.267,0.654-0.59
		C191.518,58.51,191.186,58.188,190.861,58.188z"/>
	<path fill="#8A8A8A" d="M198.736,51.169l-0.663,0.065c0,0.129,0,0.258,0,0.387c0,0.258,0,0.525-0.072,0.783
		c-0.056,0.322,0.202,0.645,0.534,0.709c0.056,0,0.056,0,0.056,0c0.33,0,0.59-0.258,0.662-0.516
		c0.057-0.259,0.057-0.653,0.057-0.911c0-0.13,0-0.26,0-0.388L198.736,51.169z"/>
	<path fill="#8A8A8A" d="M194.574,57.469c-0.331,0.193-0.719,0.323-1.051,0.451c-0.321,0.138-0.517,0.46-0.387,0.783
		c0.063,0.258,0.321,0.387,0.59,0.387c0.072,0,0.129,0,0.186-0.064c0.404-0.128,0.847-0.322,1.252-0.516
		c0.258-0.193,0.368-0.525,0.258-0.848C195.221,57.405,194.832,57.275,194.574,57.469z"/>
	<path fill="#8A8A8A" d="M193.729,47.403c-0.332-0.138-0.655,0-0.85,0.322l-2.598,6.3l-1.363-1.363
		c-0.269-0.258-0.652-0.258-0.847,0c-0.194,0.258-0.26,0.654,0,0.848l2.016,2.008c0.13,0.128,0.259,0.202,0.453,0.202
		c0.063,0,0.063,0,0.128,0c0.192-0.074,0.389-0.202,0.452-0.396l2.992-7.146C194.169,47.918,194.059,47.531,193.729,47.403z"/>
</g>
<g>
	<g>
		<path fill="#8A8A8A" d="M239.411,62.276c-0.146,0-0.332-0.063-0.461-0.192l-13.466-13.448c-0.11-0.138-0.188-0.266-0.188-0.46
			c0-0.193,0.073-0.323,0.188-0.451l6.834-6.826c0.259-0.257,0.646-0.257,0.849,0l13.446,13.448c0.258,0.268,0.258,0.654,0,0.848
			l-6.834,6.824C239.669,62.214,239.521,62.276,239.411,62.276z M226.793,48.24l12.544,12.545l5.913-5.914l-12.471-12.545
			L226.793,48.24z"/>
	</g>
	<g>
		<g>
			<path fill="#8A8A8A" d="M229.132,49.023c-0.128,0-0.331-0.065-0.438-0.193c-0.258-0.258-0.258-0.654,0-0.848l2.578-2.598
				c0.258-0.258,0.662-0.258,0.854,0c0.258,0.259,0.258,0.646,0,0.848l-2.579,2.598C229.464,48.958,229.262,49.023,229.132,49.023z"
				/>
		</g>
		<g>
			<path fill="#8A8A8A" d="M231.012,50.911c-0.109,0-0.313-0.073-0.441-0.203c-0.258-0.258-0.258-0.645,0-0.837l1.289-1.299
				c0.265-0.267,0.662-0.267,0.853,0c0.263,0.258,0.263,0.644,0,0.838l-1.289,1.298C231.342,50.838,231.214,50.911,231.012,50.911z"
				/>
		</g>
		<g>
			<path fill="#8A8A8A" d="M233.037,52.919c-0.128,0-0.332-0.064-0.46-0.193c-0.259-0.258-0.259-0.654,0-0.848l2.599-2.597
				c0.26-0.258,0.662-0.258,0.848,0c0.265,0.258,0.265,0.654,0,0.848l-2.599,2.597C233.369,52.855,233.223,52.919,233.037,52.919z"
				/>
		</g>
		<g>
			<path fill="#8A8A8A" d="M234.916,54.872c-0.128,0-0.331-0.065-0.439-0.193c-0.26-0.267-0.26-0.654,0-0.847l1.289-1.3
				c0.258-0.258,0.646-0.258,0.849,0c0.263,0.26,0.263,0.645,0,0.848l-1.308,1.299C235.248,54.807,235.102,54.872,234.916,54.872z"
				/>
		</g>
		<g>
			<path fill="#8A8A8A" d="M236.943,56.89c-0.147,0-0.332-0.064-0.461-0.203c-0.276-0.259-0.276-0.645,0-0.839l2.597-2.596
				c0.258-0.268,0.646-0.268,0.849,0c0.26,0.258,0.26,0.645,0,0.837l-2.613,2.598C237.256,56.825,237.126,56.89,236.943,56.89z"/>
		</g>
		<g>
			<path fill="#8A8A8A" d="M238.877,58.768c-0.129,0-0.313-0.064-0.46-0.193c-0.258-0.258-0.258-0.654,0-0.848l1.31-1.299
				c0.258-0.258,0.646-0.258,0.853,0c0.259,0.259,0.259,0.655,0,0.848l-1.313,1.299C239.209,58.704,239.006,58.768,238.877,58.768z"
				/>
		</g>
	</g>
</g>
<g>
	<path fill="#A7183E" d="M9.388,90.213H3.991c-1.104,0-1.943-0.847-1.943-1.943V82.81c0-1.105,0.839-1.953,1.943-1.953h5.397
		c1.104,0,1.951,0.848,1.951,1.953v5.389C11.406,89.302,10.493,90.213,9.388,90.213z M3.991,82.219c-0.322,0-0.581,0.268-0.581,0.59
		v5.389c0,0.331,0.259,0.589,0.581,0.589h5.397c0.321,0,0.579-0.258,0.579-0.589v-5.389c0-0.322-0.258-0.59-0.579-0.59H3.991z
		 M21.933,90.213h-5.461c-1.105,0-1.953-0.847-1.953-1.943V82.81c0-1.105,0.848-1.953,1.953-1.953h5.461
		c1.096,0,1.942,0.848,1.942,1.953v5.389C23.875,89.302,23.028,90.213,21.933,90.213z M16.472,82.219
		c-0.323,0-0.591,0.268-0.591,0.59v5.389c0,0.331,0.268,0.589,0.591,0.589h5.461c0.321,0,0.58-0.258,0.58-0.589v-5.389
		c0-0.322-0.259-0.59-0.58-0.59H16.472z M9.453,102.363H4.064c-1.104,0-1.952-0.84-1.952-1.945v-5.396
		c0-1.104,0.848-1.938,1.952-1.938h5.389c1.105,0,1.953,0.837,1.953,1.938v5.396C11.406,101.523,10.558,102.363,9.453,102.363z
		 M4.064,94.441c-0.332,0-0.589,0.258-0.589,0.58v5.396c0,0.323,0.258,0.581,0.589,0.581h5.389c0.322,0,0.58-0.258,0.58-0.581
		v-5.396c0-0.322-0.258-0.58-0.58-0.58H4.064L4.064,94.441z M21.933,102.363h-5.396c-1.104,0-1.953-0.84-1.953-1.945v-5.396
		c0-1.104,0.849-1.938,1.953-1.938h5.396c1.096,0,1.942,0.837,1.942,1.938v5.396C23.941,101.523,23.028,102.363,21.933,102.363z
		 M16.536,94.441c-0.322,0-0.59,0.258-0.59,0.58v5.396c0,0.323,0.268,0.581,0.59,0.581h5.396c0.321,0,0.58-0.258,0.58-0.581v-5.396
		c0-0.322-0.259-0.58-0.58-0.58H16.536L16.536,94.441z"/>
</g>
<g>
	<path fill="#A7183E" d="M64.486,103.081c-0.129,0-0.258,0-0.387-0.129l-6.502-3.445l-6.494,3.509
		c-0.258,0.131-0.655,0.131-0.912-0.063c-0.258-0.193-0.386-0.525-0.322-0.85l1.234-7.273l-5.259-5.131
		c-0.268-0.193-0.332-0.592-0.202-0.85c0.128-0.322,0.396-0.523,0.718-0.58l7.277-1.042l3.25-6.632
		c0.13-0.258,0.451-0.45,0.772-0.45c0.333,0,0.654,0.192,0.784,0.45l3.25,6.632l7.277,1.042c0.32,0.057,0.578,0.258,0.718,0.58
		c0.128,0.317,0,0.649-0.202,0.85l-5.259,5.131l1.232,7.273c0.064,0.317-0.063,0.649-0.321,0.85
		C64.872,103.081,64.678,103.081,64.486,103.081z M47.852,89.633l4.549,4.413c0.194,0.193,0.322,0.524,0.258,0.783l-1.041,6.233
		l5.591-2.918c0.257-0.129,0.59-0.129,0.849,0l5.582,2.918l-1.033-6.233c-0.063-0.259,0.064-0.59,0.26-0.783l4.549-4.413
		l-6.245-0.91c-0.258-0.063-0.515-0.188-0.645-0.453l-2.801-5.646l-2.791,5.646c-0.128,0.266-0.387,0.453-0.646,0.453L47.852,89.633
		z"/>
</g>
<g>
	<path fill="#A7183E" d="M102.239,102.491c-1.693,0-2.726-1.104-2.726-2.984c0-0.719,0.064-1.362,0.193-2.082l0,0
		c0.129-0.976,0.258-2.016,0.258-3.444c0-0.709-0.387-1.041-1.427-1.557c-1.104-0.581-2.598-1.363-2.598-3.701
		c0-0.195,0.129-0.453,0.323-0.521l0.063-0.063v-0.131c0.065-3.379,0.451-6.558,0.451-6.687c0.063-0.331,0.332-0.525,0.59-0.525
		h9.615c0.323,0,0.581,0.258,0.581,0.525c0,0.064,0.396,3.573,0.46,6.687v0.131l0.063,0.063c0.194,0.128,0.323,0.325,0.323,0.521
		c0,2.338-1.492,3.12-2.598,3.701c-0.977,0.516-1.427,0.848-1.427,1.557c0,1.435,0.128,2.533,0.258,3.444
		c0.064,0.782,0.192,1.429,0.192,2.082C104.901,101.32,103.861,102.491,102.239,102.491z M97.237,89.43
		c0.26,0.979,0.978,1.373,1.815,1.825c0.911,0.517,2.018,1.104,2.018,2.661c0,1.501-0.129,2.598-0.258,3.639
		c-0.064,0.719-0.203,1.363-0.203,1.952c0,1.429,0.848,1.75,1.502,1.75c0.708,0,1.491-0.321,1.491-1.75
		c0-0.589-0.063-1.233-0.193-1.952c-0.128-0.978-0.258-2.138-0.258-3.639c0-1.555,1.104-2.145,2.008-2.661
		c0.848-0.452,1.565-0.848,1.823-1.825l0.064-0.188h-9.81L97.237,89.43L97.237,89.43z M106.854,88.003v-0.192
		c-0.064-2.146-0.258-4.551-0.396-5.784v-0.13h-1.096v1.888c0,0.323-0.267,0.581-0.59,0.581c-0.322,0-0.589-0.258-0.589-0.581
		v-1.888h-1.098v2.598c0,0.331-0.267,0.589-0.588,0.589c-0.323,0-0.581-0.258-0.581-0.589v-2.598H98.14v0.13
		c-0.128,1.169-0.323,3.444-0.386,5.784v0.192H106.854z"/>
	<path fill="#A7183E" d="M102.239,102.299c-1.556,0-2.532-1.042-2.532-2.792c0-0.653,0.063-1.3,0.193-2.082l0,0
		c0.128-0.976,0.258-2.081,0.258-3.509c0-0.837-0.516-1.169-1.493-1.686c-1.104-0.59-2.469-1.362-2.469-3.573
		c0-0.192,0.065-0.332,0.259-0.388l0.194-0.072v-0.194c0.063-3.379,0.46-6.558,0.46-6.687c0-0.193,0.191-0.396,0.45-0.396h9.422
		c0.193,0,0.388,0.202,0.452,0.396c0,0.064,0.396,3.573,0.461,6.687v0.194l0.191,0.072c0.13,0.056,0.259,0.188,0.259,0.388
		c0,2.276-1.363,2.983-2.469,3.573c-0.976,0.517-1.49,0.849-1.49,1.686c0,1.43,0.128,2.534,0.258,3.509
		c0.064,0.782,0.192,1.429,0.192,2.082C104.771,101.257,103.796,102.299,102.239,102.299z M97.109,89.505
		c0.258,1.031,1.104,1.491,1.943,1.944c0.911,0.523,1.952,1.04,1.952,2.467c0,1.493-0.13,2.598-0.258,3.574
		c-0.063,0.718-0.202,1.363-0.202,2.018c0,1.686,1.04,1.879,1.693,1.879c0.645,0,1.686-0.259,1.686-1.879
		c0-0.654-0.063-1.234-0.192-2.018c-0.13-0.977-0.258-2.081-0.258-3.574c0-1.427,1.04-2.018,1.952-2.467
		c0.838-0.453,1.621-0.913,1.943-1.944l0.128-0.396H97.035L97.109,89.505z M97.817,82.091c-0.128,1.168-0.32,3.444-0.386,5.784
		v0.322h9.615v-0.322c-0.064-2.146-0.258-4.551-0.388-5.784v-0.322h-1.436v2.081c0,0.258-0.195,0.452-0.453,0.452
		c-0.258,0-0.45-0.194-0.45-0.452v-2.081h-1.438v2.791c0,0.267-0.192,0.46-0.45,0.46c-0.258,0-0.452-0.193-0.452-0.46v-2.791H97.88
		L97.817,82.091z"/>
	<path fill="#A7183E" d="M102.239,98.854c0.36,0,0.645,0.295,0.645,0.653c0,0.359-0.284,0.646-0.645,0.646
		c-0.359,0-0.654-0.28-0.654-0.646C101.585,99.148,101.88,98.854,102.239,98.854z"/>
	<path fill="#A7183E" d="M102.239,99.046c0.25,0,0.452,0.211,0.452,0.461c0,0.249-0.202,0.451-0.452,0.451
		c-0.248,0-0.451-0.202-0.451-0.451S101.991,99.046,102.239,99.046z"/>
</g>
<g>
	<path fill="#A7183E" d="M145.704,82.938l-5.646,0.718c-0.72,0.065-1.373,0.708-1.502,1.493l-0.708,5.654
		c-0.065,0.646,0.191,1.428,0.645,1.879l9.68,9.688c0.269,0.257,0.653,0.46,1.041,0.46c0.396,0,0.782-0.136,1.04-0.46l7.021-7.021
		c0.259-0.259,0.451-0.646,0.451-1.031c0-0.396-0.129-0.778-0.451-1.039l-9.68-9.684C147.141,83.131,146.357,82.874,145.704,82.938z
		 M146.68,84.495l9.679,9.68c0.063,0.064,0.063,0.138,0,0.202l-7.021,7.01l-0.063,0.073c0,0-0.064,0-0.064-0.073l-9.745-9.68
		c-0.129-0.13-0.257-0.516-0.257-0.711v-0.063l0.708-5.663c0-0.128,0.204-0.322,0.332-0.322l5.656-0.718
		C146.1,84.237,146.487,84.365,146.68,84.495z M141.089,88.723c0,0.709,0.268,1.363,0.782,1.813
		c0.525,0.524,1.169,0.782,1.825,0.782c0.708,0,1.363-0.258,1.813-0.782c0.525-0.515,0.783-1.169,0.783-1.813
		c0-0.72-0.258-1.363-0.783-1.825c-1.039-1.04-2.66-1.04-3.701,0C141.356,87.423,141.089,88.066,141.089,88.723z M144.599,87.811
		c0.266,0.258,0.396,0.59,0.396,0.912s-0.13,0.646-0.396,0.91c-0.26,0.258-0.58,0.389-0.902,0.389c-0.332,0-0.655-0.131-0.913-0.389
		c-0.258-0.267-0.387-0.588-0.387-0.91s0.129-0.654,0.387-0.912C143.234,87.359,144.082,87.359,144.599,87.811z"/>
	<g>
		<path fill="#A7183E" d="M143.954,88.325c-0.524-1.556-1.17-3.113-2.018-4.541c-0.782-1.233-1.75-2.468-3.177-2.993
			c-0.783-0.322-1.566-0.322-2.34-0.193c-0.333,0.065-0.46,0.451-0.396,0.719c0.063,0.322,0.396,0.452,0.72,0.387
			c0.192,0,0.192-0.064,0.386-0.064c0.13,0,0.322,0,0.452,0c0.072,0,0.072,0,0.139,0c-0.139,0,0,0,0,0c0.063,0,0.13,0,0.193,0.064
			c0.128,0,0.258,0.065,0.386,0.13c0.065,0,0.065,0,0.131,0.063c-0.064-0.063,0,0,0,0c0.063,0,0.128,0.064,0.192,0.064
			c0.14,0.065,0.268,0.13,0.397,0.193c0.258,0.129,0.451,0.332,0.643,0.524c0.979,0.979,1.695,2.21,2.275,3.51
			c0.322,0.774,0.654,1.556,0.913,2.404c0.128,0.258,0.386,0.452,0.718,0.389C143.824,88.915,144.019,88.593,143.954,88.325
			L143.954,88.325z"/>
	</g>
</g>
<g>
	<path fill="#A7183E" d="M201.316,91.843c-0.055-0.202-0.055-0.329,0-0.524l0.59-1.889c0.258-0.837-0.074-1.75-0.7-2.265
		l-1.564-1.171c-0.13-0.063-0.275-0.266-0.275-0.395l-0.627-1.879c-0.258-0.847-1.104-1.363-1.952-1.438l-2.025-0.065
		c-0.186,0-0.332-0.064-0.441-0.192l-1.631-1.171c-0.72-0.516-1.694-0.516-2.403,0l-1.632,1.171
		c-0.129,0.064-0.256,0.192-0.449,0.192l-2.018,0.065c-0.84,0-1.688,0.59-1.944,1.438l-0.652,1.879
		c-0.064,0.192-0.193,0.257-0.258,0.395l-1.622,1.171c-0.718,0.515-0.977,1.427-0.718,2.265l0.579,1.889
		c0.074,0.195,0.074,0.322,0,0.524l-0.579,1.88c-0.259,0.848,0.063,1.75,0.718,2.274l1.558,1.169
		c0.129,0.064,0.258,0.258,0.258,0.389l0.654,1.887c0.258,0.854,1.104,1.363,1.943,1.434l2.018,0.063c0.192,0,0.321,0.063,0.45,0.19
		l1.632,1.171c0.385,0.26,0.771,0.396,1.17,0.396c0.387,0,0.838-0.139,1.168-0.396l1.611-1.171c0.147-0.063,0.26-0.19,0.461-0.19
		l2.01-0.063c0.848,0,1.693-0.58,1.952-1.434l0.661-1.887c0.057-0.193,0.188-0.259,0.26-0.389l1.547-1.169
		c0.719-0.524,0.996-1.427,0.719-2.274L201.316,91.843z M200.212,92.23l0.591,1.879c0.071,0.332,0,0.72-0.259,0.912l-1.549,1.17
		c-0.332,0.258-0.591,0.591-0.736,0.976l-0.626,1.879c-0.146,0.332-0.403,0.526-0.793,0.59l-2.008,0.064
		c-0.403,0-0.848,0.129-1.18,0.387l-1.62,1.169c-0.259,0.203-0.646,0.203-0.976,0l-1.621-1.169c-0.322-0.258-0.722-0.387-1.17-0.387
		l-2.02-0.064c-0.322,0-0.646-0.258-0.771-0.59l-0.654-1.879c-0.129-0.385-0.387-0.718-0.709-0.976l-1.565-1.17
		c-0.259-0.192-0.387-0.58-0.259-0.912l0.59-1.879c0.129-0.394,0.129-0.854,0-1.17l-0.59-1.894c-0.063-0.315,0-0.708,0.259-0.897
		l1.565-1.184c0.322-0.258,0.58-0.58,0.709-0.967l0.654-1.888c0.127-0.323,0.387-0.516,0.771-0.581l2.02-0.064
		c0.385,0,0.848-0.138,1.17-0.396l0,0l1.621-1.169c0.127-0.065,0.33-0.193,0.522-0.193c0.193,0,0.322,0.063,0.517,0.193l1.631,1.169
		c0.332,0.258,0.698,0.396,1.18,0.396l1.988,0.064c0.332,0,0.662,0.257,0.793,0.581l0.646,1.888
		c0.146,0.387,0.403,0.709,0.719,0.967l1.564,1.184c0.258,0.189,0.388,0.582,0.258,0.897l-0.59,1.894
		C200.102,91.383,200.102,91.843,200.212,92.23z"/>
	<path fill="#A7183E" d="M187.354,96.846c-0.258-0.268-0.58-0.525-0.838-0.783c-0.269-0.258-0.652-0.258-0.849-0.063
		c-0.258,0.258-0.258,0.652-0.063,0.848c0.26,0.322,0.646,0.646,0.978,0.902c0.128,0.064,0.258,0.141,0.389,0.141
		c0.191,0,0.387-0.074,0.516-0.269C187.75,97.425,187.686,97.104,187.354,96.846z"/>
	<path fill="#A7183E" d="M197.43,88.723c0.129,0.192,0.313,0.322,0.516,0.322c0.057,0,0.203,0,0.259-0.064
		c0.276-0.188,0.46-0.516,0.276-0.848c-0.223-0.388-0.406-0.773-0.736-1.17c-0.186-0.259-0.571-0.323-0.848-0.129
		c-0.258,0.193-0.313,0.589-0.11,0.847C197.042,88.003,197.229,88.325,197.43,88.723z"/>
	<path fill="#A7183E" d="M190.023,85.083c0.063,0,0.063,0,0.129,0c0.322-0.064,0.646-0.064,0.969-0.129c0.063,0,0.138,0,0.202,0
		c0.321,0,0.644-0.258,0.644-0.653c0-0.322-0.258-0.645-0.644-0.645c-0.064,0-0.14,0-0.202,0c-0.389,0-0.71,0.065-1.098,0.128
		c-0.33,0.065-0.525,0.387-0.525,0.71C189.498,84.889,189.758,85.083,190.023,85.083z"/>
	<path fill="#A7183E" d="M184.95,92.747c-0.065-0.322-0.388-0.58-0.712-0.517c-0.329,0.063-0.588,0.389-0.523,0.709
		c0.064,0.461,0.194,0.848,0.322,1.3c0.074,0.267,0.332,0.396,0.59,0.396c0.064,0,0.13,0,0.193-0.063
		c0.322-0.131,0.522-0.463,0.396-0.784C185.078,93.466,184.95,93.079,184.95,92.747z"/>
	<path fill="#A7183E" d="M187.878,85.277c-0.191-0.258-0.589-0.388-0.847-0.193c-0.387,0.259-0.719,0.517-1.041,0.848
		c-0.258,0.258-0.258,0.644,0,0.838c0.13,0.128,0.258,0.193,0.46,0.193c0.194,0,0.323-0.065,0.388-0.193
		c0.259-0.258,0.58-0.515,0.849-0.709C188.008,85.931,188.073,85.535,187.878,85.277z"/>
	<path fill="#A7183E" d="M185.016,88.197c-0.324-0.131-0.646,0-0.841,0.33c-0.202,0.388-0.329,0.839-0.396,1.301
		c-0.063,0.322,0.131,0.643,0.461,0.708c0.064,0,0.064,0,0.13,0c0.258,0,0.518-0.192,0.646-0.515
		c0.063-0.395,0.202-0.725,0.396-1.105C185.475,88.723,185.346,88.325,185.016,88.197z"/>
	<path fill="#A7183E" d="M198.073,94.699c-0.259-0.193-0.644-0.064-0.847,0.258c-0.187,0.322-0.389,0.654-0.646,0.979
		c-0.202,0.258-0.202,0.646,0.057,0.854c0.146,0.063,0.258,0.128,0.403,0.128c0.187,0,0.39-0.063,0.517-0.19
		c0.258-0.33,0.517-0.722,0.7-1.104C198.479,95.215,198.404,94.829,198.073,94.699z"/>
	<path fill="#A7183E" d="M195.532,84.889c-0.368-0.266-0.773-0.395-1.16-0.588c-0.313-0.13-0.646,0.063-0.771,0.322
		c-0.141,0.331,0.055,0.653,0.313,0.783c0.331,0.128,0.718,0.258,1.05,0.524c0.057,0.063,0.202,0.063,0.313,0.063
		c0.201,0,0.404-0.137,0.516-0.266C195.938,85.407,195.863,85.083,195.532,84.889z"/>
	<path fill="#A7183E" d="M190.861,98.208c-0.387-0.063-0.709-0.063-1.104-0.192c-0.32-0.063-0.646,0.131-0.709,0.452
		c-0.064,0.321,0.129,0.653,0.449,0.718c0.388,0.129,0.85,0.193,1.301,0.258h0.063c0.322,0,0.59-0.258,0.654-0.59
		C191.518,98.531,191.186,98.273,190.861,98.208z"/>
	<path fill="#A7183E" d="M198.736,91.191l-0.663,0.063c0,0.128,0,0.26,0,0.387c0,0.258,0,0.524-0.072,0.782
		c-0.056,0.322,0.202,0.654,0.534,0.72c0.056,0,0.056,0,0.056,0c0.33,0,0.59-0.268,0.662-0.521c0.057-0.261,0.057-0.646,0.057-0.912
		c0-0.13,0-0.258,0-0.392L198.736,91.191z"/>
	<path fill="#A7183E" d="M194.574,97.49c-0.331,0.193-0.719,0.322-1.051,0.46c-0.321,0.129-0.517,0.452-0.387,0.774
		c0.063,0.258,0.321,0.396,0.59,0.396c0.072,0,0.129,0,0.186-0.074c0.404-0.128,0.847-0.319,1.252-0.517
		c0.258-0.192,0.368-0.516,0.258-0.848C195.221,97.425,194.832,97.361,194.574,97.49z"/>
	<path fill="#A7183E" d="M193.729,87.487c-0.332-0.128-0.655,0-0.85,0.322l-2.598,6.301l-1.363-1.357
		c-0.269-0.258-0.652-0.258-0.847,0c-0.194,0.257-0.26,0.648,0,0.85l2.016,2.021c0.13,0.129,0.259,0.192,0.453,0.192
		c0.063,0,0.063,0,0.128,0c0.192-0.063,0.389-0.192,0.452-0.396l2.992-7.143C194.169,87.939,194.059,87.617,193.729,87.487z"/>
</g>
<g>
	<g>
		<path fill="#A7183E" d="M239.411,102.299c-0.146,0-0.332-0.064-0.461-0.193l-13.466-13.383c-0.11-0.13-0.188-0.258-0.188-0.453
			c0-0.201,0.073-0.33,0.188-0.459l6.834-6.825c0.259-0.258,0.646-0.258,0.849,0l13.446,13.456c0.258,0.265,0.258,0.646,0,0.844
			l-6.834,6.82C239.669,102.299,239.521,102.299,239.411,102.299z M226.793,88.27l12.544,12.537l5.913-5.914l-12.545-12.534
			L226.793,88.27z"/>
	</g>
	<g>
		<g>
			<path fill="#A7183E" d="M229.132,89.045c-0.128,0-0.331-0.064-0.438-0.193c-0.258-0.259-0.258-0.647,0-0.849l2.578-2.596
				c0.258-0.258,0.662-0.258,0.854,0c0.258,0.258,0.258,0.653,0,0.848l-2.579,2.597C229.464,88.98,229.262,89.045,229.132,89.045z"
				/>
		</g>
		<g>
			<path fill="#A7183E" d="M231.012,90.996c-0.109,0-0.313-0.063-0.441-0.191c-0.258-0.269-0.258-0.654,0-0.848l1.289-1.299
				c0.265-0.258,0.662-0.258,0.853,0c0.263,0.258,0.263,0.645,0,0.848l-1.289,1.299C231.342,90.934,231.214,90.996,231.012,90.996z"
				/>
		</g>
		<g>
			<path fill="#A7183E" d="M233.037,93.004c-0.128,0-0.332-0.063-0.46-0.191c-0.259-0.258-0.259-0.646,0-0.838l2.599-2.604
				c0.26-0.262,0.662-0.262,0.848,0c0.265,0.268,0.265,0.65,0,0.847l-2.599,2.603C233.369,92.939,233.223,93.004,233.037,93.004z"/>
		</g>
		<g>
			<path fill="#A7183E" d="M234.916,94.893c-0.128,0-0.331-0.063-0.439-0.188c-0.26-0.264-0.26-0.653,0-0.854l1.289-1.297
				c0.258-0.26,0.646-0.26,0.849,0c0.263,0.258,0.263,0.651,0,0.848l-1.308,1.303C235.248,94.829,235.102,94.893,234.916,94.893z"/>
		</g>
		<g>
			<path fill="#A7183E" d="M236.943,96.91c-0.147,0-0.332-0.064-0.461-0.193c-0.276-0.267-0.276-0.654,0-0.848l2.597-2.598
				c0.258-0.271,0.646-0.271,0.849,0c0.26,0.258,0.26,0.645,0,0.838l-2.613,2.604C237.256,96.846,237.126,96.91,236.943,96.91z"/>
		</g>
		<g>
			<path fill="#A7183E" d="M238.877,98.789c-0.129,0-0.313-0.063-0.46-0.193c-0.258-0.258-0.258-0.645,0-0.848l1.31-1.298
				c0.258-0.257,0.646-0.257,0.853,0c0.259,0.267,0.259,0.653,0,0.848l-1.313,1.298C239.209,98.725,239.006,98.789,238.877,98.789z"
				/>
		</g>
	</g>
</g>
<g>
	<g>
		<g>
			<g>
				<g>
					<g>
						<g>
							<g>
								<defs>
									<rect id="SVGID_1_" x="-22.775" y="92.991" width="75.478" height="97.675"/>
								</defs>
								<clipPath id="SVGID_2_">
									<use xlink:href="#SVGID_1_"  overflow="visible"/>
								</clipPath>
								<path clip-path="url(#SVGID_2_)" fill="#CCCBCB" d="M21.602,134.314h-1.681c0-3.664-2.003-6.234-4.958-6.234
									c-2.956,0-4.959,2.57-4.959,6.234h-1.68c0-4.539,2.979-8.23,6.639-8.23C18.623,126.084,21.602,129.775,21.602,134.314"/>
							</g>
						</g>
					</g>
				</g>
			</g>
		</g>
	</g>
	<g>
		<g>
			<g>
				<g>
					<g>
						<g>
							<g>
								<polygon fill="#CCCBCB" points="25.613,136.502 4.391,136.502 2.271,158.587 27.654,158.587 								"/>
							</g>
						</g>
					</g>
				</g>
			</g>
		</g>
	</g>
</g>
<g>
	<path fill="#8A8A8A" d="M292.801,40.245c-1.545,0.163-2.688,1.143-3.34,3.102l-0.081,0.164l-20.192,0.163
		c-0.407,0.083-1.543,0.245-2.032,1.144c-0.322,0.571-0.404,1.223-0.16,1.796l3.339,9.207h15.714l-0.082,0.327
		c-0.481,1.534-1.298,2.433-2.354,2.433H270.99c-0.408,0-0.733,0.326-0.733,0.734l0,0c0,0.408,0.325,0.735,0.733,0.735h12.539
		c1.785,0,3.256-1.47,3.908-4l3.258-11.721c0.162-0.654,0.486-1.225,0.896-1.698c0.327-0.424,0.729-0.653,1.22-0.816h0.08v-1.567
		h-0.082L292.801,40.245L292.801,40.245z M271.301,54.35l-2.933-8.146c-0.081-0.164-0.081-0.408,0-0.653
		c0.163-0.245,0.489-0.326,1.146-0.49l19.541-0.081l-2.604,9.273h-15.146L271.301,54.35L271.301,54.35z"/>
	<path fill="#8A8A8A" d="M285.552,61.761c-1.625-0.327-3.013,1.046-2.688,2.677c0.165,0.898,0.897,1.634,1.797,1.796
		c1.625,0.326,3.012-1.062,2.688-2.678C287.184,62.643,286.449,61.925,285.552,61.761z M285.07,65.254
		c-0.652,0-1.229-0.572-1.229-1.225c0-0.636,0.573-1.222,1.229-1.222c0.644,0,1.216,0.586,1.216,1.222
		C286.286,64.683,285.797,65.254,285.07,65.254z"/>
	<path fill="#8A8A8A" d="M278.63,41.551c0.735,0,1.472,0.261,2.204,0.653h2.03l-0.079-0.164c-0.328-0.391-0.734-0.815-1.219-1.143
		c-1.631-1.044-3.664-1.144-5.541-0.163c-0.49,0.326-0.979,0.751-1.381,1.143l-0.162,0.163h2.113
		C277.169,41.714,277.902,41.551,278.63,41.551z"/>
	<path fill="#8A8A8A" d="M272.77,61.761c-1.634-0.327-3.014,1.046-2.77,2.759c0.164,0.899,0.896,1.634,1.787,1.797
		c1.634,0.326,3.021-1.063,2.693-2.695C274.4,62.643,273.667,61.925,272.77,61.761z M273.503,64.52
		c-0.243,0.49-0.649,0.816-1.226,0.816c-0.162,0-0.324,0-0.489-0.082c-0.325-0.164-0.571-0.407-0.726-0.734
		c-0.164-0.326-0.164-0.636,0-0.964c0.231-0.488,0.645-0.815,1.215-0.815c0.164,0,0.328,0,0.492,0.066
		C273.422,63.068,273.748,63.884,273.503,64.52z"/>
</g>
<g>
	<g>
		<path fill="#8A8A8A" d="M332.055,66.398h-5.693c-0.407,0-0.732-0.326-0.732-0.734v-10.76h-4.316c-0.241,0-0.568-0.163-0.649-0.391
			c-0.081-0.261-0.081-0.588,0.165-0.75l13.521-13.518c0.236-0.229,0.729-0.229,0.977,0l5.703,5.714
			c0.241,0.245,0.241,0.718,0,0.979c-0.24,0.229-0.73,0.229-0.979,0l-5.218-5.224l-11.807,11.82h3.34
			c0.405,0,0.729,0.326,0.729,0.718v10.839h4.965c0.408,0,0.732,0.328,0.732,0.735C332.788,66.154,332.464,66.398,332.055,66.398z"
			/>
		<path fill="#8A8A8A" d="M342.804,66.398h-5.206c-0.402,0-0.729-0.326-0.729-0.734v-6.351h-4.154v6.351
			c0,0.409-0.326,0.734-0.731,0.734s-0.73-0.326-0.73-0.734v-7.085c0-0.408,0.325-0.734,0.73-0.734h5.544
			c0.403,0,0.729,0.326,0.729,0.734v6.35h3.826v-10.84c0-0.392,0.327-0.719,0.729-0.719h3.91l-2.354-2.367
			c-0.163-0.163-0.244-0.327-0.244-0.489v-7.821h-2.854v0.817c0,0.408-0.318,0.735-0.729,0.735c-0.408,0-0.733-0.327-0.733-0.735
			v-1.535c0-0.424,0.325-0.75,0.733-0.75h4.23c0.4,0,0.729,0.326,0.729,0.75v8.212l3.342,3.347c0.163,0.163,0.244,0.49,0.163,0.718
			c-0.082,0.261-0.328,0.424-0.646,0.424h-4.893V65.5C343.538,66.154,343.214,66.398,342.804,66.398z"/>
	</g>
</g>
<g>
	<path fill="#8A8A8A" d="M410.361,54.461l-5.935-5.929h-4.333h-0.066V45.56c0-0.782-0.653-1.449-1.45-1.449h-16.271
		c-0.789,0-1.438,0.667-1.438,1.449h-5.21c-0.432,0-0.723,0.377-0.723,0.726c0,0.434,0.362,0.724,0.723,0.724h5.21v2.957h-3.688
		c-0.436,0-0.726,0.376-0.726,0.725c0,0.375,0.363,0.724,0.726,0.724h3.688v2.971h-2.246c-0.427,0-0.718,0.363-0.718,0.726
		c0,0.363,0.358,0.709,0.718,0.709h2.246v2.973h-0.729c-0.435,0-0.724,0.361-0.724,0.723c0,0.436,0.364,0.725,0.724,0.725h0.729
		c0,0.798,0.647,1.451,1.438,1.451h1.522c0.362,1.667,1.806,2.97,3.616,2.97c1.805,0,3.254-1.304,3.604-2.97h7.45h2.313
		c0.361,1.667,1.813,2.97,3.616,2.97c1.813,0,3.254-1.304,3.615-2.97h2.238L410.361,54.461z M387.444,63.361
		c-1.23,0-2.246-1.015-2.246-2.248c0-1.231,1.016-2.246,2.246-2.246c1.225,0,2.234,1.015,2.234,2.246
		C389.61,62.345,388.669,63.361,387.444,63.361z M398.504,60.387h-7.451c-0.354-1.665-1.804-2.97-3.604-2.97
		c-1.813,0-3.254,1.306-3.616,2.97h-1.522v-14.74h16.271l0,0L398.504,60.387z M404.432,63.361c-1.225,0-2.232-1.015-2.232-2.248
		c0-1.231,1.015-2.246,2.232-2.246c1.231,0,2.249,1.015,2.249,2.246C406.605,62.345,405.664,63.361,404.432,63.361z M408.847,60.387
		h-0.797c-0.363-1.665-1.805-2.97-3.617-2.97c-1.804,0-3.254,1.306-3.611,2.97h-0.788V50.054h0.066h3.754l5.066,5.058
		L408.847,60.387z"/>
</g>
<g>
	<path fill="#A7183E" d="M294.368,77.427c-1.569,0.163-2.694,1.144-3.349,3.086l-0.08,0.164l-20.195,0.162
		c-0.407,0.083-1.551,0.246-2.04,1.144c-0.327,0.571-0.409,1.225-0.166,1.778l3.334,9.21h15.737l-0.104,0.325
		c-0.485,1.55-1.305,2.449-2.351,2.449H272.62c-0.431,0-0.752,0.325-0.752,0.735l0,0c0,0.408,0.321,0.729,0.752,0.729h12.536
		c1.795,0,3.266-1.469,3.898-3.979l3.268-11.738c0.146-0.653,0.473-1.224,0.896-1.713c0.325-0.409,0.722-0.654,1.212-0.818h0.096
		v-1.468L294.368,77.427z M272.852,91.434l-2.92-8.162c-0.086-0.164-0.086-0.392,0-0.637c0.159-0.245,0.485-0.326,1.146-0.49
		l19.541-0.083L288,91.335h-15.146v0.099H272.852z"/>
	<path fill="#A7183E" d="M287.021,98.848c-1.633-0.328-3.004,1.045-2.676,2.676c0.155,0.897,0.896,1.64,1.793,1.797
		c1.633,0.326,3.006-1.063,2.678-2.688C288.734,99.826,287.999,99.01,287.021,98.848z M286.63,102.339
		c-0.651,0-1.239-0.571-1.239-1.225c0-0.652,0.588-1.222,1.239-1.222s1.208,0.563,1.208,1.222
		C287.838,101.852,287.281,102.339,286.63,102.339z"/>
	<path fill="#A7183E" d="M280.102,78.733c0.748,0,1.469,0.228,2.2,0.637h2.044l-0.084-0.146c-0.324-0.425-0.734-0.816-1.227-1.144
		c-1.633-1.077-3.656-1.142-5.532-0.163c-0.489,0.327-0.979,0.718-1.39,1.142l-0.161,0.165h2.122
		C278.727,78.896,279.445,78.733,280.102,78.733z"/>
	<path fill="#A7183E" d="M274.255,98.848c-1.631-0.328-3.021,1.045-2.774,2.758c0.164,0.898,0.884,1.64,1.797,1.795
		c1.619,0.328,3.005-1.061,2.683-2.688C275.871,99.826,275.137,99.01,274.255,98.848z M274.973,101.605
		c-0.244,0.484-0.652,0.813-1.207,0.813c-0.162,0-0.326,0-0.49-0.082c-0.321-0.163-0.586-0.404-0.752-0.73
		c-0.162-0.328-0.162-0.65,0-0.979c0.268-0.475,0.656-0.801,1.242-0.801c0.164,0,0.328,0,0.488,0.064
		C274.973,100.218,275.298,100.952,274.973,101.605z"/>
</g>
<g>
	<g>
		<path fill="#A7183E" d="M333.614,103.564H327.9c-0.396,0-0.726-0.326-0.726-0.734V91.99h-4.311c-0.263,0-0.587-0.163-0.651-0.391
			c-0.097-0.269-0.097-0.594,0.164-0.75l13.521-13.521c0.229-0.228,0.72-0.228,0.979,0l5.679,5.715c0.27,0.229,0.27,0.717,0,0.979
			c-0.228,0.229-0.717,0.229-0.979,0l-5.189-5.224l-11.814,11.82h3.33c0.425,0,0.752,0.327,0.752,0.719v10.84h4.962
			c0.4,0,0.729,0.327,0.729,0.735C334.349,103.238,334.021,103.564,333.614,103.564z"/>
		<path fill="#A7183E" d="M344.356,103.564h-5.207c-0.41,0-0.737-0.326-0.737-0.734v-6.35h-4.146v6.35
			c0,0.409-0.321,0.734-0.729,0.734c-0.407,0-0.732-0.326-0.732-0.734v-7.085c0-0.408,0.325-0.734,0.732-0.734h5.535
			c0.401,0,0.729,0.326,0.729,0.734v6.351h3.836v-10.76c0-0.393,0.327-0.719,0.725-0.719h3.917l-2.366-2.367
			c-0.164-0.163-0.245-0.327-0.245-0.49v-7.819h-2.84v0.815c0,0.408-0.327,0.734-0.751,0.734c-0.396,0-0.725-0.327-0.725-0.734
			v-1.534c0-0.425,0.324-0.751,0.725-0.751h4.239c0.408,0,0.732,0.326,0.732,0.751v8.211l3.354,3.346
			c0.158,0.164,0.229,0.49,0.158,0.718c-0.098,0.261-0.321,0.425-0.648,0.425h-4.896v10.824
			C345.093,103.238,344.78,103.564,344.356,103.564z"/>
	</g>
</g>
<g>
	<path fill="#A7183E" d="M411.68,92.387l-5.938-5.93h-4.333h-0.071v-2.971c0-0.782-0.651-1.449-1.451-1.449H383.62
		c-0.797,0-1.449,0.667-1.449,1.449h-5.202c-0.436,0-0.726,0.362-0.726,0.725c0,0.435,0.357,0.725,0.726,0.725h5.202v2.958h-3.682
		c-0.438,0-0.729,0.375-0.729,0.724c0,0.376,0.361,0.725,0.729,0.725h3.682v2.972h-2.23c-0.437,0-0.726,0.362-0.726,0.711
		c0,0.377,0.354,0.729,0.726,0.729h2.23v2.978h-0.725c-0.438,0-0.729,0.357-0.729,0.725c0,0.363,0.377,0.727,0.729,0.727h0.725
		c0,0.799,0.651,1.437,1.449,1.437h1.509c0.375,1.687,1.826,2.975,3.622,2.975c1.813,0,3.248-1.288,3.624-2.975h7.45h2.306
		c0.362,1.687,1.813,2.975,3.607,2.975c1.813,0,3.263-1.288,3.625-2.975h2.229L411.68,92.387z M388.749,101.287
		c-1.219,0-2.231-1.016-2.231-2.246c0-1.232,1.019-2.247,2.231-2.247c1.233,0,2.247,1.015,2.247,2.247
		C390.996,100.271,389.982,101.287,388.749,101.287z M399.881,98.314h-7.449c-0.35-1.666-1.797-2.979-3.604-2.979
		c-1.813,0-3.266,1.313-3.607,2.979H383.7V83.558h16.272l0,0L399.881,98.314z M405.736,101.287c-1.224,0-2.231-1.016-2.231-2.246
		c0-1.232,1.014-2.247,2.231-2.247c1.229,0,2.247,1.015,2.247,2.247C407.983,100.271,406.969,101.287,405.736,101.287z
		 M410.231,98.314h-0.804c-0.357-1.666-1.813-2.979-3.604-2.979c-1.828,0-3.268,1.313-3.624,2.979h-0.798V87.979h0.067h3.771
		l5.044,5.045L410.231,98.314z"/>
</g>
<g>
	<path d="M54.824,148.52c-2.177,0-3.918-1.736-3.918-3.918c0-2.177,1.741-3.918,3.918-3.918c2.177,0,3.917,1.741,3.917,3.918
		C58.741,146.669,57,148.52,54.824,148.52z M54.824,142.098c-1.415,0-2.503,1.09-2.503,2.504s1.089,2.504,2.503,2.504
		c1.414,0,2.503-1.09,2.503-2.504S56.238,142.098,54.824,142.098z"/>
	<path d="M65.38,143.188c-2.177,0-3.917-1.742-3.917-3.918c0-2.178,1.741-3.918,3.917-3.918c2.178,0,3.918,1.74,3.918,3.918
		C69.298,141.445,67.557,143.188,65.38,143.188z M65.38,136.766c-1.415,0-2.503,1.09-2.503,2.504s1.088,2.502,2.503,2.502
		s2.503-1.088,2.503-2.502S66.795,136.766,65.38,136.766z"/>
	<path d="M65.38,153.743c-2.177,0-3.917-1.741-3.917-3.918s1.741-3.918,3.917-3.918c2.178,0,3.918,1.741,3.918,3.918
		S67.557,153.743,65.38,153.743z M65.38,147.322c-1.415,0-2.503,1.088-2.503,2.503c0,1.414,1.088,2.502,2.503,2.502
		s2.503-1.088,2.503-2.502C67.883,148.52,66.795,147.322,65.38,147.322z"/>
	<path d="M62.551,149.172c-0.108,0-0.218,0-0.326-0.107l-4.897-2.396c-0.326-0.218-0.544-0.653-0.326-0.979
		c0.108-0.217,0.326-0.436,0.652-0.436c0.109,0,0.218,0,0.327,0.109l4.896,2.395c0.219,0.108,0.326,0.219,0.326,0.436
		c0,0.222,0,0.326,0,0.543C63.095,148.954,62.768,149.172,62.551,149.172z"/>
	<path d="M57.653,143.839c-0.217,0-0.544-0.108-0.652-0.435c-0.108-0.219-0.108-0.326,0-0.545c0.108-0.108,0.217-0.217,0.326-0.326
		l4.897-2.395c0.108,0,0.218-0.109,0.326-0.109c0.218,0,0.545,0.109,0.652,0.437c0.109,0.218,0.109,0.327,0,0.544
		c-0.107,0.219-0.217,0.326-0.326,0.438l-4.896,2.394C57.871,143.839,57.762,143.839,57.653,143.839z"/>
</g>
<g>
	<path fill="#A71D3F" d="M108.321,150.861c-0.163,0-0.325-0.057-0.488-0.219l-10.63-10.412c-0.271-0.271-0.271-0.651,0-0.922
		c0.271-0.271,0.706-0.271,0.922,0l10.63,10.412c0.272,0.271,0.272,0.65,0,0.922C108.646,150.807,108.483,150.861,108.321,150.861z"
		/>
	<path fill="#A71D3F" d="M97.69,150.861c-0.162,0-0.325-0.057-0.487-0.219c-0.271-0.271-0.271-0.65,0-0.922l10.629-10.412
		c0.271-0.271,0.706-0.271,0.922,0c0.271,0.271,0.271,0.648,0,0.922l-10.631,10.412C98.016,150.807,97.854,150.861,97.69,150.861z"
		/>
</g>
<g>
	<path fill="#A71D3F" d="M145.785,139.648c0.446,0,0.891,0.109,1.337,0.276c1.561,0.726,2.172,2.509,1.447,4.066
		c-0.724,1.502-5.681,5.901-5.681,5.901l0,0l0,0c0,0-4.958-4.346-5.682-5.901c-0.725-1.505-0.056-3.345,1.448-4.066
		c0.446-0.223,0.891-0.276,1.337-0.276c1.169,0,2.283,0.67,2.785,1.727c0.056,0.111,0.112,0.225,0.112,0.391
		c0.056-0.166,0.056-0.279,0.11-0.391C143.556,140.316,144.67,139.648,145.785,139.648 M145.785,138.089
		c-1.059,0-2.117,0.39-2.896,1.003c-0.836-0.668-1.839-1.003-2.896-1.003c-0.669,0-1.337,0.167-2.005,0.446
		c-2.339,1.059-3.342,3.843-2.228,6.126c0.779,1.672,4.846,5.292,6.071,6.405c0.278,0.275,0.667,0.392,1.059,0.392
		c0.223,0,0.39-0.058,0.557-0.112c0.056,0,0.056-0.056,0.112-0.056c0.11-0.058,0.278-0.167,0.39-0.224
		c1.226-1.059,5.292-4.68,6.071-6.405c1.115-2.284,0.111-5.068-2.229-6.126C147.177,138.256,146.508,138.089,145.785,138.089
		L145.785,138.089z"/>
</g>
<path fill="#A71D3F" d="M197.256,137.6l-3.653-3.654c-0.914-0.909-2.319-0.909-3.233-0.067l0,0l0,0l-13.353,13.354l-0.282,0.279
	l-2.318,9.206l9.206-2.317l0.843-0.844l0,0l12.721-12.789l0,0l0,0C198.169,139.919,198.169,138.514,197.256,137.6z M177.719,148.493
	l5.059,5.059l-4.708,1.195l-1.476-1.547L177.719,148.493z M183.693,150.391l-2.882-2.882l9.558-9.558l2.881,2.881L183.693,150.391z"
	/>
<g>
	<path fill="#A71D3F" d="M235.419,152.218c-0.211,0-0.42-0.069-0.631-0.28l-13.772-13.494c-0.354-0.351-0.354-0.844,0-1.192
		c0.352-0.353,0.914-0.353,1.192,0l13.774,13.494c0.353,0.353,0.353,0.844,0,1.192C235.842,152.146,235.63,152.218,235.419,152.218z
		"/>
	<path fill="#A71D3F" d="M221.645,152.218c-0.209,0-0.42-0.069-0.631-0.28c-0.354-0.353-0.354-0.845,0-1.192l13.771-13.494
		c0.354-0.353,0.914-0.353,1.195,0c0.352,0.354,0.352,0.847,0,1.192l-13.775,13.494
		C222.066,152.146,221.855,152.218,221.645,152.218z"/>
</g>
<g>
	<g>
		<path fill="#8A8A8A" d="M274.282,116.827c-1.16,0.122-2.017,0.856-2.509,2.327l-0.063,0.123l-15.146,0.121
			c-0.305,0.063-1.156,0.185-1.524,0.856c-0.24,0.429-0.306,0.916-0.12,1.349l2.505,6.903h11.785l-0.062,0.247
			c-0.362,1.148-0.973,1.825-1.767,1.825h-9.467c-0.308,0-0.552,0.243-0.552,0.549l0,0c0,0.31,0.244,0.556,0.552,0.556h9.403
			c1.34,0,2.44-1.104,2.934-3.002l2.441-8.791c0.123-0.492,0.367-0.923,0.674-1.273c0.246-0.319,0.546-0.489,0.912-0.614h0.063
			v-1.175L274.282,116.827L274.282,116.827L274.282,116.827z M258.152,127.408l-2.198-6.112c-0.062-0.122-0.062-0.305,0-0.489
			c0.122-0.183,0.366-0.244,0.856-0.367l14.657-0.06l-1.95,6.954h-11.365V127.408L258.152,127.408z"/>
		<path fill="#8A8A8A" d="M268.843,132.965c-1.219-0.244-2.26,0.786-2.016,2.01c0.123,0.674,0.673,1.228,1.348,1.35
			c1.222,0.242,2.261-0.799,2.015-2.012C270.066,133.629,269.518,133.09,268.843,132.965z M268.479,135.585
			c-0.485,0-0.918-0.428-0.918-0.916c0-0.479,0.429-0.918,0.918-0.918c0.484,0,0.916,0.438,0.916,0.918
			C269.395,135.159,269.025,135.585,268.479,135.585z"/>
		<path fill="#8A8A8A" d="M263.648,117.809c0.554,0,1.104,0.193,1.656,0.487h1.521l-0.06-0.122
			c-0.246-0.294-0.553-0.611-0.916-0.857c-1.224-0.782-2.746-0.856-4.154-0.121c-0.366,0.244-0.735,0.563-1.035,0.856l-0.121,0.122
			h1.583C262.557,117.93,263.105,117.809,263.648,117.809z"/>
		<path fill="#8A8A8A" d="M259.255,132.965c-1.226-0.244-2.26,0.786-2.073,2.071c0.121,0.675,0.67,1.228,1.338,1.346
			c1.229,0.246,2.269-0.797,2.021-2.021C260.479,133.629,259.93,133.09,259.255,132.965z M259.807,135.036
			c-0.185,0.366-0.488,0.61-0.922,0.61c-0.117,0-0.242,0-0.365-0.063c-0.244-0.122-0.429-0.306-0.547-0.549
			c-0.121-0.243-0.121-0.478,0-0.726c0.178-0.365,0.485-0.609,0.912-0.609c0.127,0,0.247,0,0.369,0.05
			C259.745,133.945,259.988,134.561,259.807,135.036z"/>
	</g>
	<g>
		<g>
			<path fill="#8A8A8A" d="M302.702,136.443h-4.271c-0.309,0-0.553-0.244-0.553-0.551v-8.069h-3.236
				c-0.185,0-0.431-0.122-0.486-0.292c-0.063-0.197-0.063-0.442,0.121-0.563l10.144-10.142c0.179-0.172,0.545-0.172,0.729,0
				l4.276,4.285c0.184,0.184,0.184,0.539,0,0.734c-0.179,0.172-0.548,0.172-0.731,0l-3.915-3.92l-8.854,8.866h2.506
				c0.303,0,0.547,0.242,0.547,0.538v8.129h3.726c0.31,0,0.548,0.248,0.548,0.555C303.25,136.264,303.01,136.443,302.702,136.443z"
				/>
			<path fill="#8A8A8A" d="M310.767,136.443h-3.905c-0.304,0-0.549-0.244-0.549-0.551v-4.768h-3.117v4.768
				c0,0.307-0.243,0.551-0.549,0.551c-0.307,0-0.547-0.244-0.547-0.551v-5.314c0-0.307,0.24-0.551,0.547-0.551h4.155
				c0.308,0,0.547,0.244,0.547,0.551v4.765h2.874v-8.132c0-0.293,0.244-0.54,0.545-0.54h2.934l-1.768-1.772
				c-0.119-0.123-0.181-0.246-0.181-0.369v-5.862h-2.143v0.608c0,0.311-0.24,0.555-0.551,0.555c-0.307,0-0.551-0.244-0.551-0.555
				v-1.148c0-0.314,0.244-0.563,0.551-0.563h3.18c0.3,0,0.547,0.246,0.547,0.563v6.161l2.506,2.511
				c0.121,0.122,0.184,0.368,0.121,0.538c-0.063,0.197-0.245,0.315-0.485,0.315h-3.668v8.119
				C311.315,136.264,311.071,136.443,310.767,136.443z"/>
		</g>
	</g>
	<g>
		<path fill="#8A8A8A" d="M360.42,127.49l-4.452-4.448h-3.248h-0.055v-2.228c0-0.588-0.488-1.09-1.086-1.09h-12.205
			c-0.593,0-1.079,0.502-1.079,1.09h-3.909c-0.317,0-0.54,0.283-0.54,0.543c0,0.326,0.271,0.543,0.54,0.543h3.909v2.22h-2.768
			c-0.326,0-0.546,0.28-0.546,0.542c0,0.281,0.271,0.543,0.546,0.543h2.768v2.229h-1.687c-0.32,0-0.539,0.273-0.539,0.547
			c0,0.271,0.271,0.531,0.539,0.531h1.687v2.229h-0.548c-0.324,0-0.543,0.271-0.543,0.541c0,0.329,0.274,0.545,0.543,0.545h0.548
			c0,0.599,0.486,1.088,1.079,1.088h1.141c0.272,1.251,1.354,2.228,2.716,2.228c1.354,0,2.439-0.978,2.702-2.228h5.592h1.732
			c0.271,1.251,1.358,2.228,2.711,2.228c1.362,0,2.442-0.978,2.714-2.228h1.68L360.42,127.49z M343.228,134.166
			c-0.925,0-1.687-0.762-1.687-1.688c0-0.922,0.762-1.685,1.687-1.685c0.916,0,1.679,0.763,1.679,1.685
			C344.854,133.404,344.144,134.166,343.228,134.166z M351.523,131.936h-5.591c-0.266-1.25-1.354-2.229-2.702-2.229
			c-1.361,0-2.442,0.979-2.715,2.229h-1.145V120.88h12.206l0,0L351.523,131.936z M355.972,134.166c-0.919,0-1.681-0.762-1.681-1.688
			c0-0.922,0.762-1.685,1.681-1.685c0.921,0,1.688,0.763,1.688,1.685C357.6,133.404,356.893,134.166,355.972,134.166z
			 M359.282,131.936h-0.601c-0.271-1.25-1.354-2.229-2.712-2.229c-1.353,0-2.439,0.979-2.711,2.229h-0.591v-7.752h0.05h2.815
			l3.801,3.795L359.282,131.936z"/>
	</g>
	<g>
		<path fill="#A7183E" d="M275.455,149.967c-1.178,0.122-2.021,0.859-2.512,2.315l-0.063,0.122l-15.146,0.121
			c-0.308,0.062-1.162,0.184-1.528,0.856c-0.246,0.431-0.308,0.919-0.124,1.334l2.499,6.908h11.808l-0.078,0.244
			c-0.365,1.161-0.979,1.839-1.766,1.839h-9.4c-0.324,0-0.563,0.243-0.563,0.55l0,0c0,0.308,0.238,0.55,0.563,0.55h9.4
			c1.35,0,2.451-1.104,2.926-2.986l2.45-8.805c0.11-0.49,0.354-0.918,0.672-1.283c0.245-0.312,0.54-0.491,0.91-0.613h0.067v-1.104
			L275.455,149.967z M259.318,160.475l-2.192-6.123c-0.063-0.123-0.063-0.295,0-0.479c0.12-0.182,0.364-0.243,0.858-0.367
			l14.658-0.061l-1.966,6.953h-11.358V160.475L259.318,160.475z"/>
		<path fill="#A7183E" d="M269.947,166.036c-1.227-0.247-2.256,0.78-2.008,2.005c0.117,0.673,0.67,1.229,1.344,1.348
			c1.225,0.248,2.254-0.797,2.009-2.018C271.23,166.77,270.68,166.158,269.947,166.036z M269.65,168.652
			c-0.488,0-0.93-0.428-0.93-0.918c0-0.489,0.438-0.918,0.93-0.918c0.49,0,0.906,0.428,0.906,0.918
			C270.559,168.289,270.143,168.652,269.65,168.652z"/>
		<path fill="#A7183E" d="M264.755,150.943c0.563,0,1.104,0.176,1.649,0.479h1.535l-0.064-0.107
			c-0.243-0.317-0.552-0.608-0.92-0.857c-1.225-0.809-2.74-0.854-4.148-0.121c-0.367,0.245-0.734,0.538-1.039,0.855l-0.121,0.123
			h1.59C263.723,151.07,264.264,150.943,264.755,150.943z"/>
		<path fill="#A7183E" d="M260.369,166.036c-1.225-0.247-2.266,0.78-2.082,2.065c0.122,0.674,0.662,1.228,1.348,1.348
			c1.217,0.246,2.256-0.795,2.012-2.018C261.582,166.77,261.029,166.158,260.369,166.036z M260.907,168.104
			c-0.183,0.365-0.488,0.609-0.904,0.609c-0.121,0-0.246,0-0.366-0.061c-0.244-0.123-0.438-0.305-0.563-0.551
			c-0.122-0.244-0.122-0.488,0-0.734c0.199-0.354,0.49-0.6,0.932-0.6c0.123,0,0.245,0,0.366,0.049
			C260.907,167.063,261.15,167.613,260.907,168.104z"/>
	</g>
	<g>
		<g>
			<path fill="#A7183E" d="M303.872,169.572h-4.286c-0.298,0-0.544-0.244-0.544-0.551v-8.133h-3.229
				c-0.195,0-0.44-0.121-0.488-0.291c-0.074-0.201-0.074-0.443,0.121-0.563l10.144-10.144c0.171-0.174,0.54-0.174,0.731,0
				l4.264,4.283c0.198,0.174,0.198,0.54,0,0.734c-0.171,0.173-0.54,0.173-0.736,0l-3.893-3.917l-8.863,8.864h2.497
				c0.315,0,0.563,0.244,0.563,0.539v8.131h3.725c0.305,0,0.547,0.244,0.547,0.554C304.425,169.328,304.177,169.572,303.872,169.572
				z"/>
			<path fill="#A7183E" d="M311.931,169.572h-3.904c-0.312,0-0.556-0.244-0.556-0.551v-4.765h-3.109v4.765
				c0,0.307-0.241,0.551-0.549,0.551c-0.307,0-0.551-0.244-0.551-0.551v-5.313c0-0.31,0.244-0.554,0.551-0.554h4.151
				c0.302,0,0.548,0.244,0.548,0.554v4.76h2.877v-8.069c0-0.293,0.244-0.537,0.543-0.537h2.938l-1.773-1.774
				c-0.124-0.122-0.185-0.247-0.185-0.369v-5.864h-2.13v0.611c0,0.309-0.246,0.553-0.563,0.553c-0.299,0-0.543-0.246-0.543-0.553
				v-1.148c0-0.316,0.244-0.563,0.543-0.563h3.182c0.309,0,0.551,0.246,0.551,0.563v6.16l2.515,2.508
				c0.12,0.125,0.171,0.369,0.12,0.537c-0.072,0.196-0.241,0.32-0.487,0.32h-3.673v8.116
				C312.479,169.328,312.247,169.572,311.931,169.572z"/>
		</g>
	</g>
	<g>
		<path fill="#A7183E" d="M361.406,161.188l-4.455-4.445h-3.25h-0.058v-2.229c0-0.588-0.484-1.087-1.087-1.087h-12.198
			c-0.597,0-1.091,0.499-1.091,1.087h-3.898c-0.326,0-0.546,0.271-0.546,0.545c0,0.325,0.271,0.545,0.546,0.545h3.898v2.221h-2.759
			c-0.329,0-0.548,0.279-0.548,0.541c0,0.281,0.272,0.541,0.548,0.541h2.759v2.229h-1.673c-0.326,0-0.541,0.273-0.541,0.535
			c0,0.28,0.266,0.545,0.541,0.545h1.673v2.229h-0.543c-0.323,0-0.544,0.271-0.544,0.548c0,0.271,0.283,0.543,0.544,0.543h0.543
			c0,0.6,0.491,1.073,1.091,1.073h1.133c0.28,1.268,1.37,2.232,2.717,2.232c1.36,0,2.438-0.968,2.718-2.232h5.589h1.729
			c0.271,1.268,1.361,2.232,2.708,2.232c1.356,0,2.445-0.968,2.72-2.232h1.67L361.406,161.188z M344.205,167.863
			c-0.911,0-1.673-0.762-1.673-1.684c0-0.927,0.764-1.687,1.673-1.687c0.927,0,1.688,0.76,1.688,1.687
			C345.892,167.102,345.132,167.863,344.205,167.863z M352.557,165.637h-5.589c-0.264-1.25-1.349-2.234-2.704-2.234
			c-1.358,0-2.446,0.984-2.706,2.234h-1.142v-11.068h12.206l0,0L352.557,165.637z M356.948,167.863
			c-0.917,0-1.675-0.762-1.675-1.684c0-0.927,0.76-1.687,1.675-1.687c0.925,0,1.687,0.76,1.687,1.687
			C358.635,167.102,357.873,167.863,356.948,167.863z M360.321,165.637h-0.604c-0.271-1.25-1.358-2.234-2.704-2.234
			c-1.371,0-2.448,0.984-2.719,2.234h-0.6v-7.755h0.052h2.827l3.786,3.783L360.321,165.637z"/>
	</g>
</g>
<g>
	<g>
		<path fill="#A7183E" d="M184.909,20.596h-3.418c-0.235,0-0.433-0.196-0.433-0.445v-6.565h-2.576c-0.156,0-0.352-0.102-0.39-0.238
			c-0.058-0.164-0.058-0.357,0.099-0.455l8.084-8.191c0.137-0.139,0.429-0.139,0.585,0l3.394,3.462c0.162,0.14,0.162,0.435,0,0.594
			c-0.137,0.139-0.427,0.139-0.585,0l-3.101-3.165l-7.066,7.161h1.991c0.254,0,0.45,0.196,0.45,0.435v6.57h2.966
			c0.241,0,0.438,0.195,0.438,0.441C185.35,20.399,185.151,20.596,184.909,20.596z"/>
		<path fill="#A7183E" d="M191.331,20.596h-3.111c-0.243,0-0.442-0.196-0.442-0.445v-3.845H185.3v3.845
			c0,0.249-0.194,0.445-0.44,0.445c-0.241,0-0.437-0.196-0.437-0.445v-4.294c0-0.246,0.196-0.441,0.437-0.441h3.313
			c0.236,0,0.434,0.195,0.434,0.441v3.851h2.292v-6.521c0-0.238,0.198-0.435,0.432-0.435h2.343l-1.414-1.433
			c-0.099-0.102-0.147-0.2-0.147-0.297v-4.74h-1.695v0.495c0,0.246-0.198,0.445-0.448,0.445c-0.236,0-0.432-0.2-0.432-0.445V5.848
			c0-0.258,0.193-0.456,0.432-0.456h2.535c0.242,0,0.437,0.198,0.437,0.456v4.974l2.007,2.028c0.095,0.098,0.135,0.299,0.095,0.436
			c-0.06,0.159-0.193,0.256-0.391,0.256h-2.924v6.562C191.774,20.399,191.585,20.596,191.331,20.596z"/>
	</g>
</g>
<g>
	<path fill="#A7183E" d="M237.389,5.609c-1.08,0.093-1.854,0.654-2.307,1.766l-0.055,0.094l-13.913,0.092
		c-0.28,0.048-1.068,0.141-1.404,0.655c-0.228,0.327-0.283,0.701-0.114,1.017l2.297,5.269h10.842l-0.071,0.186
		c-0.335,0.887-0.897,1.401-1.619,1.401h-8.635c-0.298,0-0.519,0.186-0.519,0.42l0,0c0,0.234,0.221,0.418,0.519,0.418h8.636
		c1.234,0,2.25-0.841,2.688-2.276l2.25-6.714c0.102-0.374,0.326-0.7,0.617-0.98c0.226-0.234,0.498-0.374,0.836-0.468h0.064v-0.84
		L237.389,5.609z M222.568,13.621l-2.012-4.668c-0.061-0.094-0.061-0.225,0-0.365c0.107-0.14,0.334-0.186,0.789-0.28l13.461-0.048
		l-1.806,5.305h-10.437v0.056H222.568z"/>
	<path fill="#A7183E" d="M232.329,17.862c-1.125-0.188-2.069,0.598-1.845,1.53c0.107,0.514,0.617,0.938,1.236,1.028
		c1.125,0.187,2.068-0.608,1.844-1.539C233.509,18.421,233.002,17.955,232.329,17.862z M232.059,19.859
		c-0.449,0-0.854-0.327-0.854-0.7s0.404-0.699,0.854-0.699c0.448,0,0.832,0.323,0.832,0.699
		C232.891,19.58,232.508,19.859,232.059,19.859z"/>
	<path fill="#A7183E" d="M227.563,6.356c0.517,0,1.013,0.131,1.517,0.365h1.407l-0.059-0.083c-0.224-0.243-0.506-0.467-0.846-0.654
		c-1.124-0.616-2.52-0.653-3.811-0.093c-0.338,0.187-0.676,0.41-0.957,0.653l-0.111,0.095h1.462
		C226.615,6.449,227.109,6.356,227.563,6.356z"/>
	<path fill="#A7183E" d="M223.534,17.862c-1.124-0.188-2.081,0.598-1.912,1.577c0.112,0.515,0.608,0.938,1.237,1.027
		c1.115,0.188,2.07-0.607,1.848-1.537C224.646,18.421,224.143,17.955,223.534,17.862z M224.029,19.439
		c-0.168,0.278-0.449,0.465-0.832,0.465c-0.111,0-0.225,0-0.338-0.047c-0.223-0.093-0.402-0.231-0.52-0.418
		c-0.109-0.188-0.109-0.373,0-0.56c0.186-0.271,0.452-0.458,0.854-0.458c0.113,0,0.229,0,0.339,0.037
		C224.029,18.646,224.252,19.066,224.029,19.439z"/>
</g>
<g>
	<path fill="#4C4C4C" d="M254.047,11.742l1.646-1.605l6.604,7.503l-1.649,1.501L254.047,11.742z"/>
	<path fill="#4C4C4C" d="M269.992,6.294l1.533,1.621l-10.784,11.226l-1.534-1.621L269.992,6.294z"/>
</g>
<g>
	<path fill="#FFFFFF" d="M311.596,4.581c-0.13-0.323-0.396-0.516-0.782-0.516h-21.702c-0.321,0-0.652,0.193-0.781,0.516
		c-0.129,0.332-0.063,0.654,0.191,0.911l7.674,7.663v13.65c0,0.323,0.193,0.646,0.516,0.783c0.129,0.064,0.194,0.064,0.323,0.064
		c0.202,0,0.46-0.064,0.589-0.268l5.979-5.978c0.127-0.128,0.256-0.386,0.256-0.58v-7.802l7.608-7.535
		C311.659,5.235,311.723,4.913,311.596,4.581z M302.172,12.705v7.802l-4.355,4.347V12.833c0-0.193-0.063-0.451-0.258-0.58
		l-6.494-6.567h17.796l-6.431,6.439C302.302,12.317,302.172,12.511,302.172,12.705z"/>
</g>
<g>
	<g>
		<path fill="#FFFFFF" d="M338.618,26.676c-0.58,0-1.104-0.525-1.104-1.105V5.621c0-0.579,0.525-1.105,1.104-1.105
			c0.59,0,1.104,0.526,1.104,1.105v20.015C339.723,26.216,339.273,26.676,338.618,26.676z"/>
	</g>
	<g>
		<path fill="#FFFFFF" d="M338.618,27.652l-6.171-6.18c-0.451-0.451-0.451-1.097,0-1.557c0.461-0.452,1.104-0.452,1.557,0
			l4.614,4.613l4.616-4.613c0.459-0.452,1.104-0.452,1.563,0c0.451,0.46,0.451,1.105,0,1.557L338.618,27.652z"/>
	</g>
	<g>
		<path fill="#FFFFFF" d="M350.574,26.676c-0.581,0-1.097-0.525-1.097-1.105V5.621c0-0.579,0.517-1.105,1.097-1.105
			c0.589,0,1.104,0.526,1.104,1.105v20.015C351.678,26.216,351.163,26.676,350.574,26.676z"/>
	</g>
	<g>
		<path fill="#FFFFFF" d="M355.973,12.06c-0.26,0-0.591-0.138-0.785-0.332l-4.611-4.614l-4.604,4.614
			c-0.463,0.462-1.104,0.462-1.567,0c-0.449-0.451-0.449-1.105,0-1.556L350.574,4l6.18,6.171c0.451,0.451,0.451,1.105,0,1.556
			C356.486,11.995,356.229,12.06,355.973,12.06z"/>
	</g>
</g>
<g>
	<path fill="#A9143C" d="M31.166,180.051c2.138-1.498,4.461-2.446,7.022-2.798c8.685-1.198,14.759,4.698,15.534,11.778
		c0.476,4.171-0.774,7.861-3.638,11.008c-0.11,0.128-0.238,0.302-0.238,0.476c-0.476,2.441-1.537,3.4-3.986,3.695
		c-0.056,0-0.056,0.056-0.113,0.056c-0.181,2.559-1.844,4.051-4.167,4.11c0,1.247-0.419,2.381-1.492,3.211
		c-1.012,0.834-2.203,1.074-3.509,0.778c-0.174,1.482-1.126,2.376-2.078,3.272c-0.6,0.532-1.133,1.133-1.733,1.723
		c-1.247,1.25-2.671,1.608-4.28,1.013c-1.609-0.595-2.44-1.848-2.504-3.632c0-0.054,0-0.117-0.057-0.237
		c-1.133,0.056-2.139-0.354-2.98-1.133c-0.824-0.768-1.186-1.784-1.186-2.971c-1.126-0.063-2.142-0.357-2.974-1.195
		c-0.835-0.771-1.126-1.776-1.19-2.91c-0.174,0-0.355-0.064-0.54-0.064c-2.258-0.303-3.63-1.902-3.566-4.162
		c0-0.239-0.125-0.537-0.302-0.657c-2.376-2.203-4.16-4.758-4.938-7.918c-1.126-4.582-0.593-8.869,2.444-12.555
		c4.991-6.134,14.279-6.544,20.168-1.071C31.044,179.924,31.102,179.986,31.166,180.051z M32.53,207.957
		c0.124,0,0.181,0.057,0.238,0.057c1.314,0.064,2.323,0.601,3.097,1.553c0.239,0.295,0.54,0.532,0.888,0.714
		c0.896,0.533,2.028,0.181,2.561-0.714c0.476-0.838,0.362-1.727-0.476-2.559c-2.67-2.68-5.296-5.302-7.975-7.974
		c-0.109-0.128-0.291-0.302-0.412-0.419c-0.354-0.423-0.302-0.952,0.064-1.312c0.348-0.355,0.888-0.411,1.3-0.059
		c0.181,0.123,0.302,0.297,0.419,0.418c2.678,2.678,5.357,5.357,8.031,8.027c0.543,0.54,1.133,0.842,1.908,0.658
		c0.778-0.181,1.254-0.658,1.428-1.426c0.238-0.771-0.064-1.371-0.593-1.902c-2.799-2.743-5.535-5.538-8.333-8.274
		c-0.476-0.475-0.536-1.072-0.117-1.49c0.419-0.42,1.005-0.356,1.481,0.128c1.609,1.601,3.218,3.146,4.827,4.755
		c1.19,1.187,2.377,2.376,3.567,3.567c1.016,0.952,2.44,0.773,3.097-0.353c0.476-0.774,0.303-1.669-0.419-2.447
		c-3.812-3.986-7.673-7.848-11.548-11.722c-0.054-0.058-0.174-0.174-0.348-0.294c-0.125,0.12-0.181,0.236-0.302,0.357
		c-1.431,1.429-2.795,2.86-4.288,4.224c-3.033,2.8-7.68,2.322-10.294-0.952c3.09-3.033,6.188-6.131,9.289-9.168
		c-5.001-5.059-13.871-4.337-17.857,1.488c-2.497,3.63-2.561,7.563-1.069,11.549c0.767,2.086,2.082,3.867,3.804,5.36
		c1.013-1.017,2.028-2.029,3.034-3.038c1.076-1.077,2.323-1.37,3.751-0.951c1.424,0.41,2.383,1.371,2.742,2.798
		c0.118,0.349,0.118,0.768,0.182,1.127c1.125,0,2.139,0.354,2.909,1.197c0.838,0.824,1.133,1.836,1.19,2.91
		C31.166,203.915,32.594,205.875,32.53,207.957z M49.26,198.019c0,0,0.057-0.118,0.11-0.118c0.128-0.181,0.238-0.295,0.366-0.475
		c1.719-2.562,2.498-5.356,2.021-8.45c-0.597-3.813-2.498-6.786-5.953-8.576c-4.405-2.322-10.416-1.544-14.227,1.965
		c-2.852,2.624-5.47,5.42-8.267,8.155c0,0,0,0.063,0,0.121c1.784,1.308,4.462,1.005,6.181-0.657
		c1.609-1.545,3.162-3.146,4.771-4.757c0.828-0.838,1.247-0.838,2.078,0c1.965,1.958,3.985,3.986,5.954,5.943
		C44.561,193.384,46.873,195.696,49.26,198.019z M24.26,201.648c-0.235,0.121-0.657,0.181-0.949,0.42
		c-1.132,1.009-2.205,2.083-3.217,3.212c-0.657,0.775-0.533,1.846,0.238,2.56c0.714,0.715,1.848,0.715,2.562,0.064
		c1.012-0.952,2.027-1.977,2.977-2.981c0.589-0.595,0.714-1.31,0.351-2.083C25.87,202.125,25.269,201.77,24.26,201.648z
		 M30.69,207.84c-0.064,0-0.117-0.063-0.117-0.063c0-0.824-0.423-1.428-1.19-1.721c-0.778-0.365-1.492-0.237-2.084,0.357
		c-0.952,0.888-1.904,1.84-2.8,2.792c-0.831,0.838-0.831,1.971-0.117,2.742c0.832,0.831,1.965,0.831,2.799,0
		c0.948-0.896,1.836-1.784,2.731-2.742C30.206,208.792,30.387,208.253,30.69,207.84z M27.83,214.624
		c0.124,0.832,0.6,1.546,1.314,1.848c0.767,0.299,1.481,0.174,2.085-0.419c0.948-0.952,1.957-1.903,2.909-2.919
		c0.774-0.769,0.713-1.901,0-2.615c-0.771-0.777-1.904-0.838-2.672-0.058c-1.016,0.952-1.975,1.904-2.923,2.91
		C28.25,213.735,28.068,214.214,27.83,214.624z M15.447,202.242c0.127,0.899,0.54,1.491,1.254,1.846
		c0.774,0.36,1.488,0.24,2.085-0.354c1.013-0.952,1.965-1.964,2.917-2.916c0.767-0.778,0.714-1.911,0-2.625
		c-0.771-0.767-1.904-0.824-2.679-0.054c-0.952,0.948-1.968,1.9-2.863,2.917C15.814,201.354,15.632,201.829,15.447,202.242z"/>
</g>
<g>
	<g>
		<path fill="#A9143C" d="M92.654,184.904c-0.366,0.354-0.366,0.895,0,1.25l3.624,3.513l0,0c0.061,0.061,0.181,0.117,0.299,0.175
			l0,0c0.12,0.06,0.184,0.06,0.301,0.06l0,0l0,0l0,0c0.118,0,0.238,0,0.295-0.06l0,0c0.124-0.058,0.181-0.114,0.299-0.175l0,0
			l3.63-3.513c0.359-0.355,0.359-0.896,0-1.25c-0.355-0.358-0.896-0.358-1.25,0l-2.143,2.028V174.9c0-0.475-0.412-0.888-0.888-0.888
			c-0.482,0-0.895,0.413-0.895,0.888v12.032l-2.139-2.028C93.55,184.546,93.002,184.546,92.654,184.904z"/>
		<path fill="#A9143C" d="M87.589,189.185l-2.973,0.061c-0.476,0-0.888,0.422-0.888,0.894c0,0.477,0.412,0.89,0.888,0.89l0,0
			l5.058-0.111c0.117,0,0.181,0,0.302-0.063l0,0c0.238-0.118,0.412-0.238,0.472-0.476l0,0c0.064-0.117,0.064-0.175,0.064-0.299
			l0.113-5.059c0-0.475-0.352-0.888-0.895-0.888c-0.476,0-0.888,0.35-0.888,0.888l-0.064,2.974l-7.609-7.608
			c-0.366-0.367-0.899-0.367-1.254,0c-0.355,0.348-0.355,0.888,0,1.243L87.589,189.185z"/>
		<path fill="#A9143C" d="M84.317,200.264c-0.352,0.347-0.352,0.888,0,1.243c0.182,0.181,0.419,0.238,0.601,0.238
			c0.238,0,0.476-0.118,0.65-0.295l3.513-3.638l0,0c0.061-0.054,0.117-0.175,0.174-0.292l0,0c0.06-0.12,0.06-0.18,0.06-0.294l0,0
			l0,0c0-0.125,0-0.238-0.06-0.302l0,0c-0.057-0.118-0.114-0.175-0.174-0.299l0,0l-3.513-3.631c-0.356-0.357-0.888-0.357-1.251,0
			c-0.352,0.356-0.352,0.895,0,1.25l2.028,2.144h-11.96c-0.476,0-0.895,0.418-0.895,0.894c0,0.477,0.419,0.896,0.895,0.896h12.014
			L84.317,200.264z"/>
		<path fill="#A9143C" d="M88.722,209.539c0,0.482,0.419,0.894,0.896,0.894l0,0c0.476,0,0.895-0.411,0.895-0.894l-0.124-5.051
			c0-0.126,0-0.183-0.057-0.305l0,0c-0.117-0.236-0.238-0.41-0.476-0.475l0,0c-0.124-0.062-0.181-0.062-0.302-0.062l-5.055-0.111
			c-0.476,0-0.896,0.352-0.896,0.888c0,0.475,0.363,0.888,0.896,0.888l2.98,0.064l-7.626,7.615c-0.355,0.366-0.355,0.895,0,1.254
			c0.185,0.173,0.419,0.237,0.657,0.237c0.238,0,0.476-0.064,0.661-0.237l7.495-7.673L88.722,209.539z"/>
		<path fill="#A9143C" d="M100.984,209.783c0.355-0.358,0.355-0.895,0-1.255l-3.63-3.509l0,0c-0.057-0.058-0.181-0.121-0.294-0.181
			l0,0c-0.125-0.058-0.182-0.058-0.299-0.058c-0.12,0-0.245,0-0.302,0.058l0,0c-0.121,0.06-0.181,0.123-0.294,0.181l0,0
			l-3.638,3.509c-0.349,0.36-0.349,0.896,0,1.255c0.181,0.174,0.419,0.299,0.657,0.299c0.238,0,0.419-0.061,0.604-0.239l2.139-2.027
			v11.96c0,0.476,0.412,0.895,0.895,0.895c0.476,0,0.888-0.419,0.888-0.895v-12.013l2.143,2.021
			C100.089,210.139,100.625,210.139,100.984,209.783z"/>
		<path fill="#A9143C" d="M106.04,205.496l2.979-0.057c0.476,0,0.888-0.42,0.888-0.896c0-0.477-0.412-0.896-0.888-0.896
			l-5.061,0.126c-0.114,0-0.178,0-0.295,0.056l0,0c-0.238,0.118-0.419,0.238-0.476,0.477l0,0c-0.064,0.118-0.064,0.183-0.064,0.294
			l-0.117,5.063c0,0.477,0.355,0.895,0.895,0.895l0,0c0.476,0,0.895-0.418,0.895-0.895l0.057-2.979l7.616,7.627
			c0.174,0.173,0.412,0.236,0.65,0.236c0.245,0,0.483-0.063,0.657-0.236c0.366-0.366,0.366-0.896,0-1.254L106.04,205.496z"/>
		<path fill="#A9143C" d="M119.253,196.568h-12.024l2.028-2.143c0.352-0.362,0.352-0.894,0-1.25c-0.362-0.354-0.895-0.354-1.25,0
			l-3.513,3.631l0,0c-0.06,0.058-0.117,0.182-0.174,0.295l0,0c-0.064,0.125-0.064,0.181-0.064,0.299l0,0l0,0
			c0,0.12,0,0.237,0.064,0.302l0,0c0.057,0.11,0.114,0.175,0.174,0.295l0,0l3.513,3.63c0.174,0.175,0.412,0.298,0.65,0.298
			c0.238,0,0.419-0.059,0.6-0.237c0.352-0.362,0.352-0.895,0-1.25l-2.028-2.149h11.96c0.476,0,0.896-0.411,0.896-0.888
			C120.084,196.925,119.729,196.568,119.253,196.568z"/>
		<path fill="#A9143C" d="M104.906,185.142c0-0.476-0.412-0.895-0.888-0.895c-0.472,0-0.896,0.419-0.896,0.895l0.121,5.062
			c0,0.114,0,0.175,0.064,0.296l0,0c0.117,0.236,0.238,0.418,0.472,0.477l0,0c0.121,0.053,0.178,0.053,0.302,0.053l5.051,0.127l0,0
			c0.476,0,0.896-0.42,0.896-0.895c0-0.477-0.359-0.896-0.896-0.896l-2.974-0.057l7.617-7.623c0.366-0.353,0.366-0.889,0-1.246
			c-0.355-0.356-0.895-0.356-1.243,0l-7.563,7.68L104.906,185.142z"/>
		<path fill="#A9143C" d="M107.943,181.629c-2.323-1.666-4.881-2.741-7.673-3.219l-0.302,1.79c2.504,0.477,4.885,1.429,6.97,2.917
			L107.943,181.629z"/>
		<path fill="#A9143C" d="M93.898,180.146l-0.295-1.79c-2.795,0.473-5.413,1.553-7.733,3.155L86.875,183
			C88.96,181.512,91.341,180.56,93.898,180.146z"/>
		<path fill="#A9143C" d="M99.968,214.546l0.302,1.784c2.792-0.483,5.35-1.61,7.673-3.219l-1.005-1.429
			C104.796,213.111,102.473,214.069,99.968,214.546z"/>
		<path fill="#A9143C" d="M85.87,213.176c2.32,1.605,4.938,2.671,7.733,3.154l0.295-1.784c-2.557-0.423-4.881-1.37-7.023-2.863
			L85.87,213.176z"/>
		<path fill="#A9143C" d="M82.531,207.396c-1.489-2.139-2.494-4.461-2.917-7.023l-1.784,0.302c0.476,2.797,1.603,5.413,3.211,7.738
			L82.531,207.396z"/>
		<path fill="#A9143C" d="M82.531,187.28l-1.489-1.006c-1.666,2.32-2.735,4.938-3.211,7.733l1.784,0.296
			C80.09,191.741,81.042,189.365,82.531,187.28z"/>
		<path fill="#A9143C" d="M111.161,207.339l1.481,1.01c1.609-2.324,2.685-4.877,3.161-7.674l-1.79-0.302
			C113.602,202.877,112.643,205.2,111.161,207.339z"/>
		<path fill="#A9143C" d="M111.161,187.344c1.481,2.077,2.441,4.462,2.853,6.96l1.79-0.296c-0.476-2.795-1.552-5.357-3.161-7.68
			L111.161,187.344z"/>
		<path fill="#A9143C" d="M96.821,193.771c1.968,0,3.566,1.594,3.566,3.57c0,1.971-1.598,3.573-3.566,3.573
			c-1.971,0-3.58-1.603-3.58-3.573C93.241,195.364,94.85,193.771,96.821,193.771z"/>
	</g>
</g>
<g>
	<path fill="#A9143C" d="M250.853,196.704c0.713-1.062,0.538-2.614-0.413-3.448l-1.252-1.134c-0.951-0.831-1.607-2.615-1.481-3.869
		l0.174-1.662c0.173-1.253-0.714-2.562-1.967-2.855l-1.606-0.419c-1.246-0.293-2.617-1.553-3.093-2.743l-0.595-1.537
		c-0.476-1.193-1.846-1.908-3.098-1.609l-1.609,0.416c-1.245,0.298-3.028-0.121-3.987-1.017l-1.244-1.126
		c-0.951-0.832-2.56-0.832-3.512,0l-1.253,1.126c-0.949,0.838-2.789,1.314-3.985,1.017l-1.601-0.416
		c-1.261-0.299-2.625,0.416-3.101,1.609l-0.593,1.537c-0.477,1.19-1.848,2.45-3.093,2.743l-1.79,0.419
		c-1.245,0.294-2.139,1.603-1.959,2.855l0.176,1.662c0.174,1.254-0.54,3.038-1.489,3.869l-1.246,1.134
		c-0.952,0.834-1.133,2.442-0.421,3.448l0.952,1.37c0.714,1.077,0.951,2.917,0.476,4.107l-0.595,1.546
		c-0.476,1.188,0.119,2.686,1.252,3.274l1.482,0.774c1.133,0.594,2.202,2.148,2.321,3.393l0.238,1.727
		c0.183,1.254,1.315,2.314,2.616,2.314h1.671c1.31,0,2.917,0.896,3.688,1.912l0.95,1.364c0.714,1.076,2.266,1.431,3.399,0.839
		l1.483-0.778c1.133-0.595,2.979-0.595,4.168,0l1.483,0.778c1.133,0.592,2.686,0.237,3.399-0.839l0.95-1.364
		c0.714-1.074,2.378-1.912,3.694-1.912h1.664c1.307,0,2.435-1.061,2.615-2.314l0.182-1.67c0.177-1.247,1.19-2.799,2.324-3.386
		l1.482-0.778c1.133-0.593,1.664-2.086,1.251-3.27l-0.594-1.547c-0.476-1.189-0.238-3.037,0.476-4.112L250.853,196.704z
		 M228.835,215.21c-9.821,0-17.851-8.027-17.851-17.849c0-9.818,8.029-17.85,17.851-17.85c9.82,0,17.854,8.031,17.854,17.85
		C246.689,207.183,238.655,215.21,228.835,215.21z"/>
	<path fill="#A9143C" d="M239.313,194.444l-11.191,11.193c-0.42,0.413-1.008,0.65-1.609,0.65c-0.596,0-1.133-0.237-1.609-0.65
		l-6.602-6.725c-0.895-0.895-0.895-2.267,0-3.161c0.896-0.896,2.266-0.896,3.154,0l5.121,5.123l9.574-9.584
		c0.896-0.896,2.267-0.896,3.162,0C240.207,192.186,240.207,193.613,239.313,194.444z"/>
</g>
<g>
	<path fill="#A9143C" d="M176.372,193.767c-1.608-3.147-4.28-5.708-7.616-7.132c-1.31-0.605-2.735-0.961-4.162-1.134v-1.73h1.126
		c0.712,0,1.307-0.593,1.307-1.307v-0.715c0-1.726-1.371-3.096-3.092-3.096h-2.266c-1.719,0-3.091,1.37-3.091,3.096v0.715
		c0,0.714,0.593,1.307,1.308,1.307h1.071v1.73c-0.888,0.109-1.721,0.291-2.562,0.528l0,0c-0.585,0.186-1.188,0.424-1.783,0.661
		c-3.631,1.605-6.247,4.28-7.854,7.914c-0.659,1.485-1.071,2.974-1.19,4.519c-0.055,0.597,0.238,1.37,0.833,1.666
		c0.476,0.238,1.014,0.182,1.364,0.064c0.181-0.064,0.3-0.12,0.419-0.174c0.538-0.367,0.714-1.08,0.776-1.435
		c0.595-4.641,3.868-8.512,8.387-9.884c0.721-0.236,1.498-0.351,2.267-0.412c3.154-0.302,6.253,0.658,8.687,2.679
		c2.44,2.081,3.931,4.938,4.225,8.155c0.419,5.118-2.673,10.178-7.373,11.904c-0.3,0.109-0.657,0.237-0.959,0.294
		c-3.574,1.069-7.022,0.53-10.232-1.608c-0.602-0.412-1.133-0.834-1.665-1.37l1.958-0.59c0.295-0.125,0.476-0.362,0.476-0.712
		c0-0.301-0.181-0.603-0.476-0.715l-6.601-2.923c-0.238-0.114-0.54-0.114-0.776-0.056c-0.54,0.181-0.833,0.656-0.778,1.189
		l0.714,7.203c0,0.239,0.126,0.413,0.364,0.529c0.293,0.186,0.714,0.186,1.007-0.116l1.314-1.841c1.189,1.3,2.435,2.323,3.861,3.037
		c3.931,2.075,7.799,2.559,11.61,1.425c1.31-0.419,2.674-1.013,3.933-1.79c3.273-2.021,5.651-5.176,6.658-8.806
		C178.512,201.155,178.1,197.223,176.372,193.767z"/>
	<path fill="#A9143C" d="M171.253,195.852c-0.112-0.058-0.239-0.121-0.35-0.058l-0.183,0.058c-0.181,0.057-0.357,0.116-0.474,0.181
		c-1.667,0.597-3.512,1.309-5.416,2.021c-0.537-0.411-1.188-0.713-1.971-0.713c-1.721,0-3.092,1.363-3.092,3.1
		c0,1.719,1.372,3.091,3.092,3.091c1.735,0,3.098-1.372,3.098-3.091c0-0.063,0-0.063,0-0.128c1.435-1.004,2.861-2.02,4.526-3.211
		c0.237-0.174,0.42-0.355,0.595-0.473c0.064-0.063,0.176-0.176,0.3-0.237c0.057-0.063,0.112-0.185,0.112-0.245
		C171.377,195.968,171.377,195.908,171.253,195.852z"/>
</g>
</svg>
