<?xml version="1.0" encoding="UTF-8" standalone="no"?>
<svg width="421px" height="234px" viewBox="0 0 421 234" version="1.1" xmlns="http://www.w3.org/2000/svg" xmlns:xlink="http://www.w3.org/1999/xlink">
    <!-- Generator: Sketch 42 (36781) - http://www.bohemiancoding.com/sketch -->
    <title>Artboard</title>
    <desc>Created with Sketch.</desc>
    <defs>
        <rect id="path-1" x="0.225" y="0.991" width="75.478" height="97.675"></rect>
    </defs>
    <g id="Page-1" stroke="none" stroke-width="1" fill="none" fill-rule="evenodd">
        <g id="Artboard">
            <g id="spriteExist" transform="translate(-23.000000, 1.000000)">
                <path d="M47.595,0.581 C47.465,0.258 47.199,0.065 46.812,0.065 L25.112,0.065 C24.789,0.065 24.458,0.258 24.329,0.581 C24.2,0.913 24.265,1.235 24.522,1.492 L32.195,9.155 L32.195,22.805 C32.195,23.128 32.388,23.451 32.71,23.588 C32.839,23.652 32.904,23.652 33.033,23.652 C33.236,23.652 33.493,23.588 33.622,23.385 L39.601,17.407 C39.729,17.279 39.858,17.021 39.858,16.827 L39.858,9.025 L47.465,1.49 C47.659,1.235 47.723,0.913 47.595,0.581 Z M38.172,8.705 L38.172,16.507 L33.817,20.854 L33.817,8.833 C33.817,8.64 33.753,8.382 33.559,8.253 L27.064,1.686 L44.86,1.686 L38.43,8.125 C38.302,8.317 38.172,8.511 38.172,8.705 Z" id="Shape" fill="#000000" fill-rule="nonzero"></path>
                <g id="Group" transform="translate(68.000000, 0.000000)" fill-rule="nonzero" fill="#000000">
                    <path d="M6.618,22.676 C6.038,22.676 5.514,22.151 5.514,21.571 L5.514,1.621 C5.514,1.042 6.039,0.516 6.618,0.516 C7.208,0.516 7.723,1.042 7.723,1.621 L7.723,21.636 C7.723,22.216 7.273,22.676 6.618,22.676 Z" id="Shape"></path>
                    <path d="M6.618,23.653 L0.447,17.472 C-0.004,17.022 -0.004,16.376 0.447,15.916 C0.908,15.464 1.551,15.464 2.004,15.916 L6.618,20.53 L11.234,15.916 C11.694,15.464 12.338,15.464 12.798,15.916 C13.249,16.376 13.249,17.021 12.798,17.472 L6.618,23.653 Z" id="Shape"></path>
                    <path d="M18.574,22.676 C17.993,22.676 17.478,22.151 17.478,21.571 L17.478,1.621 C17.478,1.042 17.994,0.516 18.574,0.516 C19.163,0.516 19.678,1.042 19.678,1.621 L19.678,21.636 C19.678,22.216 19.163,22.676 18.574,22.676 Z" id="Shape"></path>
                    <path d="M23.972,8.06 C23.712,8.06 23.381,7.922 23.188,7.728 L18.574,3.114 L13.97,7.728 C13.507,8.19 12.865,8.19 12.403,7.728 C11.952,7.277 11.952,6.623 12.403,6.172 L18.574,0 L24.754,6.171 C25.205,6.622 25.205,7.276 24.754,7.727 C24.487,7.995 24.229,8.06 23.972,8.06 Z" id="Shape"></path>
                </g>
                <g id="Group" transform="translate(115.000000, 0.000000)" fill-rule="nonzero" fill="#A7183E">
                    <path d="M16.475,23.523 L3.939,23.523 C2.309,23.523 0.946,22.151 0.946,20.53 L0.946,5.001 L19.467,5.001 L19.467,20.53 C19.468,22.151 18.17,23.523 16.475,23.523 Z M2.706,6.752 L2.706,20.53 C2.706,21.25 3.287,21.765 3.939,21.765 L16.475,21.765 C17.193,21.765 17.707,21.184 17.707,20.53 L17.707,6.752 L2.706,6.752 Z" id="Shape"></path>
                    <path d="M15.176,9.027 L13.426,9.027 L13.426,5.389 C13.426,3.574 11.924,1.944 10.175,1.944 C8.481,1.944 6.922,3.574 6.922,5.389 L6.922,9.027 L5.237,9.027 L5.237,5.389 C5.237,2.534 7.512,0.195 10.238,0.195 C12.966,0.195 15.239,2.598 15.239,5.389 L15.239,9.027 L15.176,9.027 L15.176,9.027 Z" id="Shape"></path>
                </g>
                <g id="Group" transform="translate(158.000000, 4.000000)" fill-rule="nonzero" fill="#A7183E">
                    <path d="M7.813,15.333 C6.179,15.333 4.608,14.794 3.296,13.816 C1.671,12.614 0.631,10.88 0.362,8.87 C0.091,6.86 0.578,4.903 1.78,3.324 C3.189,1.421 5.415,0.335 7.812,0.335 C9.437,0.335 11.016,0.882 12.317,1.86 C15.637,4.357 16.285,9.086 13.843,12.399 C12.373,14.192 10.199,15.333 7.813,15.333 Z M7.813,1.968 C5.963,1.968 4.276,2.838 3.137,4.302 C2.211,5.551 1.834,7.076 2.05,8.654 C2.266,10.172 3.081,11.528 4.33,12.506 C5.361,13.268 6.557,13.653 7.812,13.653 C9.661,13.653 11.339,12.783 12.479,11.312 C14.38,8.762 13.896,5.065 11.338,3.162 C10.308,2.345 9.113,1.968 7.813,1.968 Z" id="Shape"></path>
                    <rect id="Rectangle-path" transform="translate(15.117616, 13.303528) rotate(-143.109476) translate(-15.117616, -13.303528) " x="12.6415664" y="12.4615111" width="4.95209936" height="1.68403379"></rect>
                </g>
                <g id="Group" transform="translate(389.000000, 4.000000)" fill-rule="nonzero" fill="#FFFFFF">
                    <path d="M7.813,15.333 C6.179,15.333 4.608,14.794 3.296,13.816 C1.671,12.614 0.631,10.88 0.362,8.87 C0.091,6.86 0.578,4.903 1.78,3.324 C3.189,1.421 5.415,0.335 7.812,0.335 C9.437,0.335 11.016,0.882 12.317,1.86 C15.637,4.357 16.285,9.086 13.843,12.399 C12.373,14.192 10.199,15.333 7.813,15.333 Z M7.813,1.968 C5.963,1.968 4.276,2.838 3.137,4.302 C2.211,5.551 1.834,7.076 2.05,8.654 C2.266,10.172 3.081,11.528 4.33,12.506 C5.361,13.268 6.557,13.653 7.812,13.653 C9.661,13.653 11.339,12.783 12.479,11.312 C14.38,8.762 13.896,5.065 11.338,3.162 C10.308,2.345 9.113,1.968 7.813,1.968 Z" id="Shape"></path>
                    <rect id="Rectangle-path" transform="translate(15.117616, 13.303528) rotate(-143.109476) translate(-15.117616, -13.303528) " x="12.6415664" y="12.4615111" width="4.95209936" height="1.68403379"></rect>
                </g>
                <path d="M32.388,49.193 L26.991,49.193 C25.887,49.193 25.048,48.345 25.048,47.24 L25.048,41.788 C25.048,40.683 25.887,39.835 26.991,39.835 L32.388,39.835 C33.492,39.835 34.339,40.683 34.339,41.788 L34.339,47.176 C34.406,48.281 33.493,49.193 32.388,49.193 Z M26.991,41.198 C26.669,41.198 26.41,41.456 26.41,41.788 L26.41,47.176 C26.41,47.498 26.669,47.766 26.991,47.766 L32.388,47.766 C32.709,47.766 32.967,47.498 32.967,47.176 L32.967,41.788 C32.967,41.456 32.709,41.198 32.388,41.198 L26.991,41.198 Z M44.933,49.193 L39.472,49.193 C38.367,49.193 37.519,48.345 37.519,47.24 L37.519,41.788 C37.519,40.683 38.367,39.835 39.472,39.835 L44.933,39.835 C46.029,39.835 46.875,40.683 46.875,41.788 L46.875,47.176 C46.875,48.281 46.028,49.193 44.933,49.193 Z M39.472,41.198 C39.149,41.198 38.881,41.456 38.881,41.788 L38.881,47.176 C38.881,47.498 39.149,47.766 39.472,47.766 L44.933,47.766 C45.254,47.766 45.513,47.498 45.513,47.176 L45.513,41.788 C45.513,41.456 45.254,41.198 44.933,41.198 L39.472,41.198 Z M32.453,61.342 L27.064,61.342 C25.96,61.342 25.112,60.494 25.112,59.398 L25.112,54.001 C25.112,52.897 25.96,52.049 27.064,52.049 L32.453,52.049 C33.558,52.049 34.406,52.897 34.406,54.001 L34.406,59.398 C34.406,60.43 33.558,61.342 32.453,61.342 Z M27.064,53.412 C26.732,53.412 26.475,53.679 26.475,54.001 L26.475,59.398 C26.475,59.721 26.733,59.979 27.064,59.979 L32.453,59.979 C32.775,59.979 33.033,59.722 33.033,59.398 L33.033,54.001 C33.033,53.679 32.775,53.412 32.453,53.412 L27.064,53.412 Z M44.933,61.342 L39.537,61.342 C38.433,61.342 37.584,60.494 37.584,59.398 L37.584,54.001 C37.584,52.897 38.433,52.049 39.537,52.049 L44.933,52.049 C46.029,52.049 46.875,52.897 46.875,54.001 L46.875,59.398 C46.941,60.43 46.028,61.342 44.933,61.342 Z M39.536,53.412 C39.214,53.412 38.946,53.679 38.946,54.001 L38.946,59.398 C38.946,59.721 39.214,59.979 39.536,59.979 L44.932,59.979 C45.253,59.979 45.512,59.722 45.512,59.398 L45.512,54.001 C45.512,53.679 45.253,53.412 44.932,53.412 L39.536,53.412 Z" id="Shape" fill="#8A8A8A" fill-rule="nonzero"></path>
                <path d="M87.486,62.06 C87.357,62.06 87.228,62.06 87.099,61.932 L80.597,58.486 L74.103,61.932 C73.845,62.06 73.448,62.06 73.191,61.867 C72.933,61.665 72.805,61.343 72.869,61.019 L74.103,53.743 L68.844,48.604 C68.576,48.411 68.512,48.024 68.642,47.766 C68.77,47.434 69.038,47.241 69.36,47.176 L76.637,46.135 L79.887,39.513 C80.017,39.255 80.338,39.053 80.659,39.053 C80.992,39.053 81.313,39.256 81.443,39.513 L84.693,46.135 L91.97,47.176 C92.29,47.24 92.548,47.434 92.688,47.766 C92.816,48.088 92.688,48.411 92.486,48.604 L87.227,53.743 L88.459,61.019 C88.523,61.342 88.396,61.665 88.138,61.867 C87.872,61.996 87.678,62.06 87.486,62.06 Z M70.852,48.539 L75.401,52.959 C75.595,53.154 75.723,53.484 75.659,53.742 L74.618,59.978 L80.209,57.058 C80.466,56.92 80.799,56.92 81.058,57.058 L86.64,59.978 L85.607,53.742 C85.544,53.485 85.671,53.154 85.867,52.959 L90.416,48.539 L84.171,47.636 C83.913,47.573 83.656,47.434 83.526,47.176 L80.725,41.53 L77.934,47.176 C77.806,47.434 77.547,47.636 77.288,47.636 L70.852,48.539 Z" id="Shape" fill="#8A8A8A" fill-rule="nonzero"></path>
                <g id="Group" transform="translate(118.000000, 39.000000)" fill-rule="nonzero" fill="#8A8A8A">
                    <path d="M7.239,22.472 C5.546,22.472 4.513,21.367 4.513,19.486 C4.513,18.768 4.577,18.123 4.706,17.405 L4.706,17.405 C4.835,16.426 4.964,15.388 4.964,13.96 C4.964,13.252 4.577,12.92 3.537,12.404 C2.433,11.814 0.939,11.041 0.939,8.7 C0.939,8.498 1.068,8.24 1.262,8.176 L1.325,8.111 L1.325,7.983 C1.39,4.603 1.776,1.424 1.776,1.287 C1.839,0.965 2.108,0.771 2.366,0.771 L11.981,0.771 C12.304,0.771 12.562,1.029 12.562,1.287 C12.562,1.352 12.958,4.861 13.022,7.983 L13.022,8.111 L13.085,8.176 C13.279,8.306 13.408,8.498 13.408,8.7 C13.408,11.041 11.916,11.814 10.81,12.404 C9.833,12.92 9.383,13.252 9.383,13.96 C9.383,15.388 9.511,16.494 9.641,17.405 C9.705,18.188 9.833,18.833 9.833,19.486 C9.901,21.301 8.861,22.472 7.239,22.472 Z M2.237,9.41 C2.497,10.387 3.215,10.773 4.052,11.234 C4.963,11.75 6.07,12.338 6.07,13.897 C6.07,15.388 5.941,16.494 5.812,17.534 C5.748,18.253 5.609,18.899 5.609,19.487 C5.609,20.915 6.457,21.237 7.111,21.237 C7.819,21.237 8.602,20.914 8.602,19.487 C8.602,18.899 8.539,18.254 8.409,17.534 C8.281,16.558 8.151,15.388 8.151,13.897 C8.151,12.339 9.255,11.75 10.159,11.234 C11.007,10.773 11.724,10.387 11.982,9.41 L12.046,9.216 L2.236,9.216 L2.237,9.41 L2.237,9.41 Z M11.854,7.982 L11.854,7.789 C11.79,5.643 11.596,3.239 11.458,2.004 L11.458,1.876 L10.362,1.876 L10.362,3.764 C10.362,4.087 10.095,4.345 9.772,4.345 C9.45,4.345 9.183,4.087 9.183,3.764 L9.183,1.876 L8.085,1.876 L8.085,4.474 C8.085,4.795 7.818,5.062 7.497,5.062 C7.174,5.062 6.916,4.795 6.916,4.474 L6.916,1.876 L3.14,1.876 L3.14,2.004 C3.012,3.175 2.817,5.45 2.754,7.789 L2.754,7.982 L11.854,7.982 Z" id="Shape"></path>
                    <path d="M7.239,22.276 C5.683,22.276 4.707,21.236 4.707,19.485 C4.707,18.832 4.77,18.187 4.9,17.404 L4.9,17.404 C5.028,16.427 5.158,15.321 5.158,13.896 C5.158,13.048 4.642,12.726 3.665,12.21 C2.561,11.62 1.196,10.838 1.196,8.635 C1.196,8.433 1.261,8.305 1.455,8.239 L1.649,8.175 L1.649,7.982 C1.712,4.602 2.109,1.423 2.109,1.286 C2.109,1.094 2.3,0.898 2.559,0.898 L11.981,0.898 C12.174,0.898 12.369,1.093 12.433,1.286 C12.433,1.351 12.829,4.86 12.894,7.982 L12.894,8.175 L13.085,8.239 C13.215,8.304 13.344,8.432 13.344,8.635 C13.344,10.91 11.981,11.62 10.875,12.21 C9.899,12.726 9.385,13.048 9.385,13.896 C9.385,15.322 9.513,16.427 9.643,17.404 C9.707,18.187 9.835,18.832 9.835,19.485 C9.771,21.236 8.796,22.276 7.239,22.276 Z M2.109,9.476 C2.367,10.516 3.213,10.977 4.052,11.427 C4.963,11.945 6.004,12.469 6.004,13.897 C6.004,15.388 5.874,16.494 5.746,17.47 C5.683,18.189 5.544,18.833 5.544,19.487 C5.544,21.172 6.584,21.367 7.237,21.367 C7.882,21.367 8.923,21.109 8.923,19.487 C8.923,18.834 8.86,18.254 8.731,17.47 C8.601,16.494 8.473,15.388 8.473,13.897 C8.473,12.469 9.513,11.879 10.425,11.427 C11.263,10.977 12.046,10.516 12.368,9.476 L12.496,9.088 L2.035,9.088 L2.109,9.476 Z M2.817,2.069 C2.689,3.239 2.497,5.514 2.431,7.852 L2.431,8.175 L12.046,8.175 L12.046,7.852 C11.982,5.707 11.788,3.303 11.658,2.069 L11.658,1.746 L10.222,1.746 L10.222,3.829 C10.222,4.086 10.027,4.28 9.769,4.28 C9.511,4.28 9.319,4.087 9.319,3.829 L9.319,1.746 L7.881,1.746 L7.881,4.538 C7.881,4.796 7.689,4.999 7.431,4.999 C7.173,4.999 6.979,4.796 6.979,4.538 L6.979,1.746 L2.88,1.746 L2.817,2.069 Z" id="Shape"></path>
                    <path d="M7.239,18.768 C7.599,18.768 7.884,19.062 7.884,19.422 C7.884,19.781 7.6,20.067 7.239,20.067 C6.88,20.067 6.585,19.782 6.585,19.422 C6.585,19.062 6.88,18.768 7.239,18.768 Z" id="Shape"></path>
                    <path d="M7.239,18.961 C7.489,18.961 7.691,19.163 7.691,19.422 C7.691,19.671 7.489,19.873 7.239,19.873 C6.991,19.873 6.788,19.67 6.788,19.422 C6.788,19.164 6.991,18.961 7.239,18.961 Z" id="Shape"></path>
                </g>
                <g id="Group" transform="translate(159.000000, 39.000000)" fill-rule="nonzero" fill="#8A8A8A">
                    <path d="M9.704,2.917 L4.058,3.626 C3.338,3.689 2.685,4.344 2.556,5.126 L1.848,10.772 C1.783,11.425 2.039,12.21 2.493,12.661 L12.173,22.341 C12.442,22.599 12.826,22.791 13.214,22.791 C13.61,22.791 13.996,22.663 14.254,22.341 L21.275,15.321 C21.534,15.063 21.726,14.677 21.726,14.281 C21.726,13.895 21.597,13.508 21.275,13.25 L11.595,3.56 C11.141,3.109 10.357,2.788 9.704,2.917 Z M10.68,4.474 L20.359,14.154 C20.422,14.217 20.422,14.282 20.359,14.346 L13.338,21.366 L13.275,21.429 C13.275,21.429 13.211,21.429 13.211,21.366 L3.466,11.686 C3.337,11.556 3.209,11.169 3.209,10.977 L3.209,10.912 L3.917,5.257 C3.917,5.127 4.121,4.925 4.249,4.925 L9.905,4.216 C10.1,4.151 10.487,4.28 10.68,4.474 Z M5.089,8.7 C5.089,9.41 5.357,10.063 5.871,10.515 C6.396,11.041 7.04,11.298 7.696,11.298 C8.404,11.298 9.059,11.041 9.509,10.515 C10.034,10 10.292,9.346 10.292,8.7 C10.292,8.048 10.034,7.337 9.509,6.877 C8.47,5.837 6.849,5.837 5.808,6.877 C5.356,7.337 5.089,7.982 5.089,8.7 Z M8.599,7.789 C8.865,8.048 8.995,8.37 8.995,8.7 C8.995,9.023 8.865,9.346 8.599,9.603 C8.339,9.871 8.019,9.999 7.697,9.999 C7.365,9.999 7.042,9.87 6.784,9.603 C6.526,9.345 6.397,9.023 6.397,8.7 C6.397,8.37 6.526,8.048 6.784,7.789 C7.234,7.337 8.082,7.337 8.599,7.789 Z" id="Shape"></path>
                    <path d="M7.954,8.306 C7.43,6.748 6.784,5.192 5.936,3.764 C5.154,2.531 4.186,1.286 2.759,0.771 C1.976,0.449 1.193,0.449 0.419,0.578 C0.086,0.642 -0.041,1.029 0.023,1.287 C0.086,1.619 0.419,1.747 0.743,1.683 C0.935,1.683 0.935,1.619 1.129,1.619 L1.581,1.619 L1.72,1.619 C1.581,1.619 1.72,1.619 1.72,1.619 C1.783,1.619 1.85,1.619 1.913,1.683 C2.041,1.683 2.171,1.746 2.299,1.812 C2.364,1.812 2.364,1.812 2.43,1.876 C2.366,1.812 2.43,1.876 2.43,1.876 C2.493,1.876 2.558,1.94 2.622,1.94 C2.762,2.003 2.89,2.069 3.019,2.133 C3.277,2.263 3.47,2.455 3.662,2.658 C4.641,3.625 5.357,4.859 5.937,6.166 C6.259,6.941 6.591,7.723 6.85,8.571 C6.978,8.829 7.236,9.022 7.568,8.957 C7.824,8.895 8.019,8.572 7.954,8.306 L7.954,8.306 Z" id="Shape"></path>
                </g>
                <g id="Group" transform="translate(203.000000, 39.000000)" fill-rule="nonzero" fill="#8A8A8A">
                    <path d="M21.316,11.814 C21.261,11.621 21.261,11.492 21.316,11.298 L21.906,9.41 C22.164,8.572 21.832,7.66 21.206,7.135 L19.642,5.966 C19.512,5.902 19.367,5.708 19.367,5.58 L18.74,3.69 C18.482,2.852 17.636,2.327 16.788,2.264 L14.763,2.199 C14.577,2.199 14.431,2.135 14.322,2.005 L12.691,0.836 C11.971,0.321 10.997,0.321 10.288,0.836 L8.656,2.005 C8.527,2.07 8.4,2.199 8.207,2.199 L6.189,2.264 C5.349,2.264 4.501,2.852 4.245,3.69 L3.593,5.58 C3.529,5.772 3.4,5.838 3.335,5.966 L1.713,7.135 C0.995,7.66 0.736,8.573 0.995,9.41 L1.574,11.298 C1.648,11.491 1.648,11.62 1.574,11.814 L0.995,13.702 C0.736,14.55 1.058,15.452 1.713,15.978 L3.271,17.148 C3.4,17.212 3.529,17.405 3.529,17.534 L4.183,19.423 C4.441,20.261 5.287,20.786 6.126,20.85 L8.144,20.914 C8.336,20.914 8.465,20.979 8.594,21.109 L10.226,22.277 C10.611,22.535 10.997,22.665 11.396,22.665 C11.783,22.665 12.234,22.535 12.564,22.277 L14.175,21.109 C14.322,21.044 14.435,20.914 14.636,20.914 L16.646,20.85 C17.494,20.85 18.339,20.262 18.598,19.423 L19.259,17.534 C19.316,17.342 19.447,17.276 19.519,17.148 L21.066,15.978 C21.785,15.453 22.062,14.55 21.785,13.702 L21.316,11.814 Z M20.212,12.21 L20.803,14.088 C20.874,14.411 20.803,14.806 20.544,15 L18.995,16.169 C18.663,16.427 18.404,16.75 18.259,17.147 L17.633,19.025 C17.487,19.357 17.23,19.549 16.84,19.615 L14.832,19.679 C14.429,19.679 13.984,19.808 13.652,20.066 L12.032,21.235 C11.773,21.428 11.386,21.428 11.056,21.235 L9.435,20.066 C9.113,19.808 8.713,19.679 8.265,19.679 L6.245,19.615 C5.923,19.615 5.599,19.357 5.474,19.025 L4.82,17.147 C4.691,16.75 4.433,16.427 4.111,16.169 L2.546,15 C2.287,14.806 2.159,14.411 2.287,14.088 L2.877,12.21 C3.006,11.814 3.006,11.362 2.877,11.041 L2.287,9.152 C2.224,8.83 2.287,8.433 2.546,8.24 L4.111,7.07 C4.433,6.813 4.691,6.489 4.82,6.104 L5.474,4.215 C5.601,3.894 5.861,3.69 6.245,3.627 L8.265,3.562 C8.65,3.562 9.113,3.433 9.435,3.176 L9.435,3.176 L11.056,2.005 C11.183,1.942 11.386,1.813 11.578,1.813 C11.771,1.813 11.9,1.877 12.095,2.005 L13.726,3.176 C14.058,3.433 14.424,3.562 14.906,3.562 L16.894,3.627 C17.226,3.627 17.556,3.894 17.687,4.215 L18.333,6.104 C18.479,6.49 18.736,6.813 19.051,7.07 L20.616,8.24 C20.874,8.433 21.004,8.83 20.874,9.152 L20.284,11.041 C20.102,11.363 20.102,11.75 20.212,12.21 Z" id="Shape"></path>
                    <path d="M7.354,16.825 C7.096,16.557 6.774,16.3 6.516,16.042 C6.247,15.784 5.864,15.784 5.667,15.978 C5.475,16.17 5.409,16.623 5.604,16.826 C5.864,17.148 6.25,17.47 6.582,17.728 C6.71,17.793 6.84,17.857 6.971,17.857 C7.162,17.857 7.358,17.794 7.487,17.599 C7.75,17.405 7.686,17.018 7.354,16.825 Z" id="Shape"></path>
                    <path d="M17.43,8.7 C17.559,8.894 17.743,9.023 17.946,9.023 C18.003,9.023 18.149,9.023 18.205,8.958 C18.481,8.766 18.665,8.434 18.481,8.11 C18.258,7.724 18.075,7.337 17.745,6.942 C17.559,6.684 17.174,6.619 16.897,6.813 C16.639,7.005 16.584,7.403 16.787,7.66 C17.042,7.982 17.229,8.306 17.43,8.7 Z" id="Shape"></path>
                    <path d="M10.023,5.062 L10.152,5.062 C10.474,4.999 10.798,4.999 11.121,4.924 L11.323,4.924 C11.644,4.924 11.967,4.666 11.967,4.279 C11.967,3.893 11.709,3.626 11.323,3.626 L11.121,3.626 C10.732,3.626 10.411,3.689 10.023,3.763 C9.693,3.828 9.498,4.15 9.498,4.473 C9.498,4.86 9.758,5.062 10.023,5.062 Z" id="Shape"></path>
                    <path d="M4.95,12.662 C4.885,12.339 4.562,12.072 4.238,12.146 C3.909,12.21 3.65,12.532 3.715,12.855 C3.779,13.316 3.909,13.702 4.037,14.154 C4.111,14.412 4.369,14.549 4.627,14.549 C4.691,14.549 4.757,14.549 4.82,14.485 C5.142,14.347 5.342,14.025 5.216,13.702 C5.078,13.444 4.95,13.049 4.95,12.662 Z" id="Shape"></path>
                    <path d="M7.878,5.256 C7.687,4.998 7.289,4.86 7.031,5.062 C6.644,5.32 6.312,5.58 5.99,5.901 C5.732,6.168 5.732,6.555 5.99,6.748 C6.12,6.877 6.248,6.943 6.45,6.943 C6.644,6.943 6.773,6.878 6.838,6.748 C7.097,6.49 7.418,6.232 7.687,6.03 C8.008,5.901 8.073,5.514 7.878,5.256 Z" id="Shape"></path>
                    <path d="M5.016,8.176 C4.692,8.048 4.37,8.176 4.175,8.498 C3.973,8.894 3.846,9.346 3.779,9.806 C3.716,10.129 3.91,10.451 4.24,10.515 L4.37,10.515 C4.628,10.515 4.888,10.321 5.016,10 C5.079,9.604 5.218,9.281 5.412,8.895 C5.475,8.7 5.346,8.306 5.016,8.176 Z" id="Shape"></path>
                    <path d="M18.073,14.614 C17.814,14.412 17.429,14.549 17.226,14.872 C17.039,15.194 16.837,15.518 16.58,15.848 C16.378,16.107 16.378,16.494 16.637,16.687 C16.783,16.75 16.895,16.825 17.04,16.825 C17.227,16.825 17.43,16.75 17.557,16.622 C17.815,16.3 18.074,15.912 18.257,15.518 C18.479,15.194 18.404,14.807 18.073,14.614 Z" id="Shape"></path>
                    <path d="M15.532,4.795 C15.164,4.537 14.759,4.408 14.372,4.214 C14.059,4.086 13.726,4.279 13.601,4.537 C13.46,4.859 13.656,5.191 13.914,5.319 C14.245,5.449 14.632,5.579 14.964,5.837 C15.021,5.9 15.166,5.9 15.277,5.9 C15.478,5.9 15.681,5.771 15.793,5.642 C15.938,5.384 15.863,4.999 15.532,4.795 Z" id="Shape"></path>
                    <path d="M10.861,18.188 C10.474,18.123 10.152,18.123 9.757,17.985 C9.437,17.921 9.111,18.123 9.048,18.446 C8.984,18.768 9.177,19.091 9.497,19.156 C9.885,19.293 10.347,19.358 10.798,19.423 L10.861,19.423 C11.183,19.423 11.451,19.156 11.515,18.833 C11.518,18.51 11.186,18.188 10.861,18.188 Z" id="Shape"></path>
                    <path d="M18.736,11.169 L18.073,11.234 L18.073,11.621 C18.073,11.879 18.073,12.146 18.001,12.404 C17.945,12.726 18.203,13.049 18.535,13.113 L18.591,13.113 C18.921,13.113 19.181,12.855 19.253,12.597 C19.31,12.338 19.31,11.944 19.31,11.686 L19.31,11.298 L18.736,11.169 Z" id="Shape"></path>
                    <path d="M14.574,17.469 C14.243,17.662 13.855,17.792 13.523,17.92 C13.202,18.058 13.006,18.38 13.136,18.703 C13.199,18.961 13.457,19.09 13.726,19.09 C13.798,19.09 13.855,19.09 13.912,19.026 C14.316,18.898 14.759,18.704 15.164,18.51 C15.422,18.317 15.532,17.985 15.422,17.662 C15.221,17.405 14.832,17.275 14.574,17.469 Z" id="Shape"></path>
                    <path d="M13.729,7.403 C13.397,7.265 13.074,7.403 12.879,7.725 L10.281,14.025 L8.918,12.662 C8.649,12.404 8.266,12.404 8.071,12.662 C7.877,12.92 7.811,13.316 8.071,13.51 L10.087,15.518 C10.217,15.646 10.346,15.72 10.54,15.72 L10.668,15.72 C10.86,15.646 11.057,15.518 11.12,15.324 L14.112,8.178 C14.169,7.918 14.059,7.531 13.729,7.403 Z" id="Shape"></path>
                </g>
                <g id="Group" transform="translate(248.000000, 39.000000)" fill-rule="nonzero" fill="#8A8A8A">
                    <path d="M14.411,22.276 C14.265,22.276 14.079,22.213 13.95,22.084 L0.484,8.636 C0.374,8.498 0.296,8.37 0.296,8.176 C0.296,7.983 0.369,7.853 0.484,7.725 L7.318,0.899 C7.577,0.642 7.964,0.642 8.167,0.899 L21.613,14.347 C21.871,14.615 21.871,15.001 21.613,15.195 L14.779,22.019 C14.669,22.214 14.521,22.276 14.411,22.276 Z M1.793,8.24 L14.337,20.785 L20.25,14.871 L7.779,2.326 L1.793,8.24 Z" id="Shape"></path>
                    <g transform="translate(3.000000, 5.000000)" id="Shape">
                        <path d="M1.132,4.023 C1.004,4.023 0.801,3.958 0.694,3.83 C0.436,3.572 0.436,3.176 0.694,2.982 L3.272,0.384 C3.53,0.126 3.934,0.126 4.126,0.384 C4.384,0.643 4.384,1.03 4.126,1.232 L1.547,3.83 C1.464,3.958 1.262,4.023 1.132,4.023 Z"></path>
                        <path d="M3.012,5.911 C2.903,5.911 2.699,5.838 2.571,5.708 C2.313,5.45 2.313,5.063 2.571,4.871 L3.86,3.572 C4.125,3.305 4.522,3.305 4.713,3.572 C4.976,3.83 4.976,4.216 4.713,4.41 L3.424,5.708 C3.342,5.838 3.214,5.911 3.012,5.911 Z"></path>
                        <path d="M5.037,7.919 C4.909,7.919 4.705,7.855 4.577,7.726 C4.318,7.468 4.318,7.072 4.577,6.878 L7.176,4.281 C7.436,4.023 7.838,4.023 8.024,4.281 C8.289,4.539 8.289,4.935 8.024,5.129 L5.425,7.726 C5.369,7.855 5.223,7.919 5.037,7.919 Z"></path>
                        <path d="M6.916,9.872 C6.788,9.872 6.585,9.807 6.477,9.679 C6.217,9.412 6.217,9.025 6.477,8.832 L7.766,7.532 C8.024,7.274 8.412,7.274 8.615,7.532 C8.878,7.792 8.878,8.177 8.615,8.38 L7.307,9.679 C7.248,9.807 7.102,9.872 6.916,9.872 Z"></path>
                        <path d="M8.943,11.89 C8.796,11.89 8.611,11.826 8.482,11.687 C8.206,11.428 8.206,11.042 8.482,10.848 L11.079,8.252 C11.337,7.984 11.725,7.984 11.928,8.252 C12.188,8.51 12.188,8.897 11.928,9.089 L9.315,11.687 C9.256,11.825 9.126,11.89 8.943,11.89 Z"></path>
                        <path d="M10.877,13.768 C10.748,13.768 10.564,13.704 10.417,13.575 C10.159,13.317 10.159,12.921 10.417,12.727 L11.727,11.428 C11.985,11.17 12.373,11.17 12.58,11.428 C12.839,11.687 12.839,12.083 12.58,12.276 L11.267,13.575 C11.209,13.704 11.006,13.768 10.877,13.768 Z"></path>
                    </g>
                </g>
                <path d="M32.388,89.213 L26.991,89.213 C25.887,89.213 25.048,88.366 25.048,87.27 L25.048,81.81 C25.048,80.705 25.887,79.857 26.991,79.857 L32.388,79.857 C33.492,79.857 34.339,80.705 34.339,81.81 L34.339,87.199 C34.406,88.302 33.493,89.213 32.388,89.213 Z M26.991,81.219 C26.669,81.219 26.41,81.487 26.41,81.809 L26.41,87.198 C26.41,87.529 26.669,87.787 26.991,87.787 L32.388,87.787 C32.709,87.787 32.967,87.529 32.967,87.198 L32.967,81.809 C32.967,81.487 32.709,81.219 32.388,81.219 L26.991,81.219 Z M44.933,89.213 L39.472,89.213 C38.367,89.213 37.519,88.366 37.519,87.27 L37.519,81.81 C37.519,80.705 38.367,79.857 39.472,79.857 L44.933,79.857 C46.029,79.857 46.875,80.705 46.875,81.81 L46.875,87.199 C46.875,88.302 46.028,89.213 44.933,89.213 Z M39.472,81.219 C39.149,81.219 38.881,81.487 38.881,81.809 L38.881,87.198 C38.881,87.529 39.149,87.787 39.472,87.787 L44.933,87.787 C45.254,87.787 45.513,87.529 45.513,87.198 L45.513,81.809 C45.513,81.487 45.254,81.219 44.933,81.219 L39.472,81.219 Z M32.453,101.363 L27.064,101.363 C25.96,101.363 25.112,100.523 25.112,99.418 L25.112,94.022 C25.112,92.918 25.96,92.084 27.064,92.084 L32.453,92.084 C33.558,92.084 34.406,92.921 34.406,94.022 L34.406,99.418 C34.406,100.523 33.558,101.363 32.453,101.363 Z M27.064,93.441 C26.732,93.441 26.475,93.699 26.475,94.021 L26.475,99.417 C26.475,99.74 26.733,99.998 27.064,99.998 L32.453,99.998 C32.775,99.998 33.033,99.74 33.033,99.417 L33.033,94.021 C33.033,93.699 32.775,93.441 32.453,93.441 L27.064,93.441 L27.064,93.441 Z M44.933,101.363 L39.537,101.363 C38.433,101.363 37.584,100.523 37.584,99.418 L37.584,94.022 C37.584,92.918 38.433,92.084 39.537,92.084 L44.933,92.084 C46.029,92.084 46.875,92.921 46.875,94.022 L46.875,99.418 C46.941,100.523 46.028,101.363 44.933,101.363 Z M39.536,93.441 C39.214,93.441 38.946,93.699 38.946,94.021 L38.946,99.417 C38.946,99.74 39.214,99.998 39.536,99.998 L44.932,99.998 C45.253,99.998 45.512,99.74 45.512,99.417 L45.512,94.021 C45.512,93.699 45.253,93.441 44.932,93.441 L39.536,93.441 L39.536,93.441 Z" id="Shape" fill="#A7183E" fill-rule="nonzero"></path>
                <path d="M87.486,102.081 C87.357,102.081 87.228,102.081 87.099,101.952 L80.597,98.507 L74.103,102.016 C73.845,102.147 73.448,102.147 73.191,101.953 C72.933,101.76 72.805,101.428 72.869,101.103 L74.103,93.83 L68.844,88.699 C68.576,88.506 68.512,88.107 68.642,87.849 C68.77,87.527 69.038,87.326 69.36,87.269 L76.637,86.227 L79.887,79.595 C80.017,79.337 80.338,79.145 80.659,79.145 C80.992,79.145 81.313,79.337 81.443,79.595 L84.693,86.227 L91.97,87.269 C92.29,87.326 92.548,87.527 92.688,87.849 C92.816,88.166 92.688,88.498 92.486,88.699 L87.227,93.83 L88.459,101.103 C88.523,101.42 88.396,101.752 88.138,101.953 C87.872,102.081 87.678,102.081 87.486,102.081 Z M70.852,88.633 L75.401,93.046 C75.595,93.239 75.723,93.57 75.659,93.829 L74.618,100.062 L80.209,97.144 C80.466,97.015 80.799,97.015 81.058,97.144 L86.64,100.062 L85.607,93.829 C85.544,93.57 85.671,93.239 85.867,93.046 L90.416,88.633 L84.171,87.723 C83.913,87.66 83.656,87.535 83.526,87.27 L80.725,81.624 L77.934,87.27 C77.806,87.536 77.547,87.723 77.288,87.723 L70.852,88.633 Z" id="Shape" fill="#A7183E" fill-rule="nonzero"></path>
                <g id="Group" transform="translate(118.000000, 79.000000)" fill-rule="nonzero" fill="#A7183E">
                    <path d="M7.239,22.491 C5.546,22.491 4.513,21.387 4.513,19.507 C4.513,18.788 4.577,18.145 4.706,17.425 L4.706,17.425 C4.835,16.449 4.964,15.409 4.964,13.981 C4.964,13.272 4.577,12.94 3.537,12.424 C2.433,11.843 0.939,11.061 0.939,8.723 C0.939,8.528 1.068,8.27 1.262,8.202 L1.325,8.139 L1.325,8.008 C1.39,4.629 1.776,1.45 1.776,1.321 C1.839,0.99 2.108,0.796 2.366,0.796 L11.981,0.796 C12.304,0.796 12.562,1.054 12.562,1.321 C12.562,1.385 12.958,4.894 13.022,8.008 L13.022,8.139 L13.085,8.202 C13.279,8.33 13.408,8.527 13.408,8.723 C13.408,11.061 11.916,11.843 10.81,12.424 C9.833,12.94 9.383,13.272 9.383,13.981 C9.383,15.416 9.511,16.514 9.641,17.425 C9.705,18.207 9.833,18.854 9.833,19.507 C9.901,21.32 8.861,22.491 7.239,22.491 Z M2.237,9.43 C2.497,10.409 3.215,10.803 4.052,11.255 C4.963,11.772 6.07,12.359 6.07,13.916 C6.07,15.417 5.941,16.514 5.812,17.555 C5.748,18.274 5.609,18.918 5.609,19.507 C5.609,20.936 6.457,21.257 7.111,21.257 C7.819,21.257 8.602,20.936 8.602,19.507 C8.602,18.918 8.539,18.274 8.409,17.555 C8.281,16.577 8.151,15.417 8.151,13.916 C8.151,12.361 9.255,11.771 10.159,11.255 C11.007,10.803 11.724,10.407 11.982,9.43 L12.046,9.242 L2.236,9.242 L2.237,9.43 L2.237,9.43 Z M11.854,8.003 L11.854,7.811 C11.79,5.665 11.596,3.26 11.458,2.027 L11.458,1.897 L10.362,1.897 L10.362,3.785 C10.362,4.108 10.095,4.366 9.772,4.366 C9.45,4.366 9.183,4.108 9.183,3.785 L9.183,1.897 L8.085,1.897 L8.085,4.495 C8.085,4.826 7.818,5.084 7.497,5.084 C7.174,5.084 6.916,4.826 6.916,4.495 L6.916,1.897 L3.14,1.897 L3.14,2.027 C3.012,3.196 2.817,5.471 2.754,7.811 L2.754,8.003 L11.854,8.003 Z" id="Shape"></path>
                    <path d="M7.239,22.299 C5.683,22.299 4.707,21.257 4.707,19.507 C4.707,18.854 4.77,18.207 4.9,17.425 L4.9,17.425 C5.028,16.449 5.158,15.344 5.158,13.916 C5.158,13.079 4.642,12.747 3.665,12.23 C2.561,11.64 1.196,10.868 1.196,8.657 C1.196,8.465 1.261,8.325 1.455,8.269 L1.649,8.197 L1.649,8.003 C1.712,4.624 2.109,1.445 2.109,1.316 C2.109,1.123 2.3,0.92 2.559,0.92 L11.981,0.92 C12.174,0.92 12.369,1.122 12.433,1.316 C12.433,1.38 12.829,4.889 12.894,8.003 L12.894,8.197 L13.085,8.269 C13.215,8.325 13.344,8.457 13.344,8.657 C13.344,10.933 11.981,11.64 10.875,12.23 C9.899,12.747 9.385,13.079 9.385,13.916 C9.385,15.346 9.513,16.45 9.643,17.425 C9.707,18.207 9.835,18.854 9.835,19.507 C9.771,21.257 8.796,22.299 7.239,22.299 Z M2.109,9.505 C2.367,10.536 3.213,10.996 4.052,11.449 C4.963,11.972 6.004,12.489 6.004,13.916 C6.004,15.409 5.874,16.514 5.746,17.49 C5.683,18.208 5.544,18.853 5.544,19.508 C5.544,21.194 6.584,21.387 7.237,21.387 C7.882,21.387 8.923,21.128 8.923,19.508 C8.923,18.854 8.86,18.274 8.731,17.49 C8.601,16.513 8.473,15.409 8.473,13.916 C8.473,12.489 9.513,11.898 10.425,11.449 C11.263,10.996 12.046,10.536 12.368,9.505 L12.496,9.109 L2.035,9.109 L2.109,9.505 Z M2.817,2.091 C2.689,3.259 2.497,5.535 2.431,7.875 L2.431,8.197 L12.046,8.197 L12.046,7.875 C11.982,5.729 11.788,3.324 11.658,2.091 L11.658,1.769 L10.222,1.769 L10.222,3.85 C10.222,4.108 10.027,4.302 9.769,4.302 C9.511,4.302 9.319,4.108 9.319,3.85 L9.319,1.769 L7.881,1.769 L7.881,4.56 C7.881,4.827 7.689,5.02 7.431,5.02 C7.173,5.02 6.979,4.827 6.979,4.56 L6.979,1.769 L2.88,1.769 L2.817,2.091 Z" id="Shape"></path>
                    <path d="M7.239,18.854 C7.599,18.854 7.884,19.149 7.884,19.507 C7.884,19.866 7.6,20.153 7.239,20.153 C6.88,20.153 6.585,19.873 6.585,19.507 C6.585,19.148 6.88,18.854 7.239,18.854 Z" id="Shape"></path>
                    <path d="M7.239,19.046 C7.489,19.046 7.691,19.257 7.691,19.507 C7.691,19.756 7.489,19.958 7.239,19.958 C6.991,19.958 6.788,19.756 6.788,19.507 C6.788,19.258 6.991,19.046 7.239,19.046 Z" id="Shape"></path>
                </g>
                <g id="Group" transform="translate(159.000000, 79.000000)" fill-rule="nonzero" fill="#A7183E">
                    <path d="M9.704,2.938 L4.058,3.656 C3.338,3.721 2.685,4.364 2.556,5.149 L1.848,10.803 C1.783,11.449 2.039,12.231 2.493,12.682 L12.173,22.37 C12.442,22.627 12.826,22.83 13.214,22.83 C13.61,22.83 13.996,22.694 14.254,22.37 L21.275,15.349 C21.534,15.09 21.726,14.703 21.726,14.318 C21.726,13.922 21.597,13.54 21.275,13.279 L11.595,3.595 C11.141,3.131 10.357,2.874 9.704,2.938 Z M10.68,4.495 L20.359,14.175 C20.422,14.239 20.422,14.313 20.359,14.377 L13.338,21.387 L13.275,21.46 C13.275,21.46 13.211,21.46 13.211,21.387 L3.466,11.707 C3.337,11.577 3.209,11.191 3.209,10.996 L3.209,10.933 L3.917,5.27 C3.917,5.142 4.121,4.948 4.249,4.948 L9.905,4.23 C10.1,4.237 10.487,4.365 10.68,4.495 Z M5.089,8.723 C5.089,9.432 5.357,10.086 5.871,10.536 C6.396,11.06 7.04,11.318 7.696,11.318 C8.404,11.318 9.059,11.06 9.509,10.536 C10.034,10.021 10.292,9.367 10.292,8.723 C10.292,8.003 10.034,7.36 9.509,6.898 C8.47,5.858 6.849,5.858 5.808,6.898 C5.356,7.423 5.089,8.066 5.089,8.723 Z M8.599,7.811 C8.865,8.069 8.995,8.401 8.995,8.723 C8.995,9.045 8.865,9.369 8.599,9.633 C8.339,9.891 8.019,10.022 7.697,10.022 C7.365,10.022 7.042,9.891 6.784,9.633 C6.526,9.366 6.397,9.045 6.397,8.723 C6.397,8.401 6.526,8.069 6.784,7.811 C7.234,7.359 8.082,7.359 8.599,7.811 Z" id="Shape"></path>
                    <path d="M7.954,8.325 C7.43,6.769 6.784,5.212 5.936,3.784 C5.154,2.551 4.186,1.316 2.759,0.791 C1.976,0.469 1.193,0.469 0.419,0.598 C0.086,0.663 -0.041,1.049 0.023,1.317 C0.086,1.639 0.419,1.769 0.743,1.704 C0.935,1.704 0.935,1.64 1.129,1.64 L1.581,1.64 L1.72,1.64 C1.581,1.64 1.72,1.64 1.72,1.64 C1.783,1.64 1.85,1.64 1.913,1.704 C2.041,1.704 2.171,1.769 2.299,1.834 C2.364,1.834 2.364,1.834 2.43,1.897 C2.366,1.834 2.43,1.897 2.43,1.897 C2.493,1.897 2.558,1.961 2.622,1.961 C2.762,2.026 2.89,2.091 3.019,2.154 C3.277,2.283 3.47,2.486 3.662,2.678 C4.641,3.657 5.357,4.888 5.937,6.188 C6.259,6.962 6.591,7.744 6.85,8.592 C6.978,8.85 7.236,9.044 7.568,8.981 C7.824,8.915 8.019,8.593 7.954,8.325 L7.954,8.325 Z" id="Shape"></path>
                </g>
                <g id="Group" transform="translate(203.000000, 79.000000)" fill-rule="nonzero" fill="#A7183E">
                    <path d="M21.316,11.843 C21.261,11.641 21.261,11.514 21.316,11.319 L21.906,9.43 C22.164,8.593 21.832,7.68 21.206,7.165 L19.642,5.994 C19.512,5.931 19.367,5.728 19.367,5.599 L18.74,3.72 C18.482,2.873 17.636,2.357 16.788,2.282 L14.763,2.217 C14.577,2.217 14.431,2.153 14.322,2.025 L12.691,0.854 C11.971,0.338 10.997,0.338 10.288,0.854 L8.656,2.025 C8.527,2.089 8.4,2.217 8.207,2.217 L6.189,2.282 C5.349,2.282 4.501,2.872 4.245,3.72 L3.593,5.599 C3.529,5.791 3.4,5.856 3.335,5.994 L1.713,7.165 C0.995,7.68 0.736,8.592 0.995,9.43 L1.574,11.319 C1.648,11.514 1.648,11.641 1.574,11.843 L0.995,13.723 C0.736,14.571 1.058,15.473 1.713,15.997 L3.271,17.166 C3.4,17.23 3.529,17.424 3.529,17.555 L4.183,19.442 C4.441,20.296 5.287,20.805 6.126,20.876 L8.144,20.939 C8.336,20.939 8.465,21.002 8.594,21.129 L10.226,22.3 C10.611,22.56 10.997,22.696 11.396,22.696 C11.783,22.696 12.234,22.557 12.564,22.3 L14.175,21.129 C14.322,21.066 14.435,20.939 14.636,20.939 L16.646,20.876 C17.494,20.876 18.339,20.296 18.598,19.442 L19.259,17.555 C19.316,17.362 19.447,17.296 19.519,17.166 L21.066,15.997 C21.785,15.473 22.062,14.57 21.785,13.723 L21.316,11.843 Z M20.212,12.23 L20.803,14.109 C20.874,14.441 20.803,14.829 20.544,15.021 L18.995,16.191 C18.663,16.449 18.404,16.782 18.259,17.167 L17.633,19.046 C17.487,19.378 17.23,19.572 16.84,19.636 L14.832,19.7 C14.429,19.7 13.984,19.829 13.652,20.087 L12.032,21.256 C11.773,21.459 11.386,21.459 11.056,21.256 L9.435,20.087 C9.113,19.829 8.713,19.7 8.265,19.7 L6.245,19.636 C5.923,19.636 5.599,19.378 5.474,19.046 L4.82,17.167 C4.691,16.782 4.433,16.449 4.111,16.191 L2.546,15.021 C2.287,14.829 2.159,14.441 2.287,14.109 L2.877,12.23 C3.006,11.836 3.006,11.376 2.877,11.06 L2.287,9.166 C2.224,8.851 2.287,8.458 2.546,8.269 L4.111,7.085 C4.433,6.827 4.691,6.505 4.82,6.118 L5.474,4.23 C5.601,3.907 5.861,3.714 6.245,3.649 L8.265,3.585 C8.65,3.585 9.113,3.447 9.435,3.189 L9.435,3.189 L11.056,2.02 C11.183,1.955 11.386,1.827 11.578,1.827 C11.771,1.827 11.9,1.89 12.095,2.02 L13.726,3.189 C14.058,3.447 14.424,3.585 14.906,3.585 L16.894,3.649 C17.226,3.649 17.556,3.906 17.687,4.23 L18.333,6.118 C18.479,6.505 18.736,6.827 19.052,7.085 L20.616,8.269 C20.874,8.458 21.004,8.851 20.874,9.166 L20.284,11.06 C20.102,11.383 20.102,11.843 20.212,12.23 Z" id="Shape"></path>
                    <path d="M7.354,16.846 C7.096,16.578 6.774,16.321 6.516,16.063 C6.247,15.805 5.864,15.805 5.667,16 C5.409,16.258 5.409,16.652 5.604,16.848 C5.864,17.17 6.25,17.494 6.582,17.75 C6.71,17.814 6.84,17.891 6.971,17.891 C7.162,17.891 7.358,17.817 7.487,17.622 C7.75,17.425 7.686,17.104 7.354,16.846 Z" id="Shape"></path>
                    <path d="M17.43,8.723 C17.559,8.915 17.743,9.045 17.946,9.045 C18.003,9.045 18.149,9.045 18.205,8.981 C18.481,8.793 18.665,8.465 18.481,8.133 C18.258,7.745 18.075,7.36 17.745,6.963 C17.559,6.704 17.174,6.64 16.897,6.834 C16.639,7.027 16.584,7.423 16.787,7.681 C17.042,8.003 17.229,8.325 17.43,8.723 Z" id="Shape"></path>
                    <path d="M10.023,5.083 L10.152,5.083 C10.474,5.019 10.798,5.019 11.121,4.954 L11.323,4.954 C11.644,4.954 11.967,4.696 11.967,4.301 C11.967,3.979 11.709,3.656 11.323,3.656 L11.121,3.656 C10.732,3.656 10.411,3.721 10.023,3.784 C9.693,3.849 9.498,4.171 9.498,4.494 C9.498,4.889 9.758,5.083 10.023,5.083 Z" id="Shape"></path>
                    <path d="M4.95,12.747 C4.885,12.425 4.562,12.167 4.238,12.23 C3.909,12.293 3.65,12.619 3.715,12.939 C3.779,13.4 3.909,13.787 4.037,14.239 C4.111,14.506 4.369,14.635 4.627,14.635 C4.691,14.635 4.757,14.635 4.82,14.572 C5.142,14.441 5.342,14.109 5.216,13.788 C5.078,13.466 4.95,13.079 4.95,12.747 Z" id="Shape"></path>
                    <path d="M7.878,5.277 C7.687,5.019 7.289,4.889 7.031,5.084 C6.644,5.343 6.312,5.601 5.99,5.932 C5.732,6.19 5.732,6.576 5.99,6.77 C6.12,6.898 6.248,6.963 6.45,6.963 C6.644,6.963 6.773,6.898 6.838,6.77 C7.097,6.512 7.418,6.255 7.687,6.061 C8.008,5.931 8.073,5.535 7.878,5.277 Z" id="Shape"></path>
                    <path d="M5.016,8.197 C4.692,8.066 4.37,8.197 4.175,8.527 C3.973,8.915 3.846,9.366 3.779,9.828 C3.716,10.15 3.91,10.471 4.24,10.536 L4.37,10.536 C4.628,10.536 4.888,10.344 5.016,10.021 C5.079,9.626 5.218,9.296 5.412,8.916 C5.475,8.723 5.346,8.325 5.016,8.197 Z" id="Shape"></path>
                    <path d="M18.073,14.699 C17.814,14.506 17.429,14.635 17.226,14.957 C17.039,15.279 16.837,15.611 16.58,15.936 C16.378,16.194 16.378,16.582 16.637,16.79 C16.783,16.853 16.895,16.918 17.04,16.918 C17.227,16.918 17.43,16.855 17.557,16.728 C17.815,16.398 18.074,16.006 18.257,15.624 C18.479,15.215 18.404,14.829 18.073,14.699 Z" id="Shape"></path>
                    <path d="M15.532,4.889 C15.164,4.623 14.759,4.494 14.372,4.301 C14.059,4.171 13.726,4.364 13.601,4.623 C13.46,4.954 13.656,5.276 13.914,5.406 C14.245,5.534 14.632,5.664 14.964,5.93 C15.021,5.993 15.166,5.993 15.277,5.993 C15.478,5.993 15.681,5.856 15.793,5.727 C15.938,5.407 15.863,5.083 15.532,4.889 Z" id="Shape"></path>
                    <path d="M10.861,18.208 C10.474,18.145 10.152,18.145 9.757,18.016 C9.437,17.953 9.111,18.147 9.048,18.468 C8.984,18.789 9.177,19.121 9.497,19.186 C9.885,19.315 10.347,19.379 10.798,19.444 L10.861,19.444 C11.183,19.444 11.451,19.186 11.515,18.854 C11.518,18.531 11.186,18.273 10.861,18.208 Z" id="Shape"></path>
                    <path d="M18.736,11.191 L18.073,11.254 L18.073,11.641 C18.073,11.899 18.073,12.165 18.001,12.423 C17.945,12.745 18.203,13.077 18.535,13.143 L18.591,13.143 C18.921,13.143 19.181,12.875 19.253,12.622 C19.31,12.361 19.31,11.976 19.31,11.71 L19.31,11.318 L18.736,11.191 Z" id="Shape"></path>
                    <path d="M14.574,17.49 C14.243,17.683 13.855,17.812 13.523,17.95 C13.202,18.079 13.006,18.402 13.136,18.724 C13.199,18.982 13.457,19.12 13.726,19.12 C13.798,19.12 13.855,19.12 13.912,19.046 C14.316,18.918 14.759,18.727 15.164,18.529 C15.422,18.337 15.532,18.013 15.422,17.681 C15.221,17.425 14.832,17.361 14.574,17.49 Z" id="Shape"></path>
                    <path d="M13.729,7.487 C13.397,7.359 13.074,7.487 12.879,7.809 L10.281,14.11 L8.918,12.753 C8.649,12.495 8.266,12.495 8.071,12.753 C7.877,13.01 7.811,13.401 8.071,13.603 L10.087,15.624 C10.217,15.753 10.346,15.816 10.54,15.816 L10.668,15.816 C10.86,15.753 11.057,15.624 11.12,15.42 L14.112,8.277 C14.169,7.939 14.059,7.617 13.729,7.487 Z" id="Shape"></path>
                </g>
                <g id="Group" transform="translate(248.000000, 79.000000)" fill-rule="nonzero" fill="#A7183E">
                    <path d="M14.411,22.299 C14.265,22.299 14.079,22.235 13.95,22.106 L0.484,8.723 C0.374,8.593 0.296,8.465 0.296,8.27 C0.296,8.069 0.369,7.94 0.484,7.811 L7.318,0.986 C7.577,0.728 7.964,0.728 8.167,0.986 L21.613,14.442 C21.871,14.707 21.871,15.088 21.613,15.286 L14.779,22.106 C14.669,22.299 14.521,22.299 14.411,22.299 Z M1.793,8.27 L14.337,20.807 L20.25,14.893 L7.705,2.359 L1.793,8.27 Z" id="Shape"></path>
                    <g transform="translate(3.000000, 5.000000)" id="Shape">
                        <path d="M1.132,4.045 C1.004,4.045 0.801,3.981 0.694,3.852 C0.436,3.593 0.436,3.205 0.694,3.003 L3.272,0.407 C3.53,0.149 3.934,0.149 4.126,0.407 C4.384,0.665 4.384,1.06 4.126,1.255 L1.547,3.852 C1.464,3.98 1.262,4.045 1.132,4.045 Z"></path>
                        <path d="M3.012,5.996 C2.903,5.996 2.699,5.933 2.571,5.805 C2.313,5.536 2.313,5.151 2.571,4.957 L3.86,3.658 C4.125,3.4 4.522,3.4 4.713,3.658 C4.976,3.916 4.976,4.303 4.713,4.506 L3.424,5.805 C3.342,5.934 3.214,5.996 3.012,5.996 Z"></path>
                        <path d="M5.037,8.004 C4.909,8.004 4.705,7.941 4.577,7.813 C4.318,7.555 4.318,7.167 4.577,6.975 L7.176,4.371 C7.436,4.109 7.838,4.109 8.024,4.371 C8.289,4.639 8.289,5.021 8.024,5.218 L5.425,7.821 C5.369,7.939 5.223,8.004 5.037,8.004 Z"></path>
                        <path d="M6.916,9.893 C6.788,9.893 6.585,9.83 6.477,9.705 C6.217,9.441 6.217,9.052 6.477,8.851 L7.766,7.554 C8.024,7.294 8.412,7.294 8.615,7.554 C8.878,7.812 8.878,8.205 8.615,8.402 L7.307,9.705 C7.248,9.829 7.102,9.893 6.916,9.893 Z"></path>
                        <path d="M8.943,11.91 C8.796,11.91 8.611,11.846 8.482,11.717 C8.206,11.45 8.206,11.063 8.482,10.869 L11.079,8.271 C11.337,8 11.725,8 11.928,8.271 C12.188,8.529 12.188,8.916 11.928,9.109 L9.315,11.713 C9.256,11.846 9.126,11.91 8.943,11.91 Z"></path>
                        <path d="M10.877,13.789 C10.748,13.789 10.564,13.726 10.417,13.596 C10.159,13.338 10.159,12.951 10.417,12.748 L11.727,11.45 C11.985,11.193 12.373,11.193 12.58,11.45 C12.839,11.717 12.839,12.103 12.58,12.298 L11.267,13.596 C11.209,13.725 11.006,13.789 10.877,13.789 Z"></path>
                    </g>
                </g>
                <g id="Group" transform="translate(0.000000, 91.000000)">
                    <g id="Clipped">
                        <mask id="mask-2" fill="white">
                            <use xlink:href="#path-1"></use>
                        </mask>
                        <g id="SVGID_1_"></g>
                        <path d="M44.602,42.314 L42.921,42.314 C42.921,38.65 40.918,36.08 37.963,36.08 C35.007,36.08 33.004,38.65 33.004,42.314 L31.324,42.314 C31.324,37.775 34.303,34.084 37.963,34.084 C41.623,34.084 44.602,37.775 44.602,42.314" id="Shape" fill="#CCCBCB" fill-rule="nonzero" mask="url(#mask-2)"></path>
                    </g>
                    <polygon id="Shape" fill="#CCCBCB" fill-rule="nonzero" points="48.613 44.502 27.391 44.502 25.271 66.587 50.654 66.587"></polygon>
                </g>
                <g id="Group" transform="translate(289.000000, 39.000000)" fill-rule="nonzero" fill="#8A8A8A">
                    <path d="M26.801,0.245 C25.256,0.408 24.113,1.388 23.461,3.347 L23.38,3.511 L3.188,3.674 C2.781,3.757 1.645,3.919 1.156,4.818 C0.834,5.389 0.752,6.041 0.996,6.614 L4.335,15.821 L20.049,15.821 L19.967,16.148 C19.486,17.682 18.669,18.581 17.613,18.581 L4.99,18.581 C4.582,18.581 4.257,18.907 4.257,19.315 L4.257,19.315 C4.257,19.723 4.582,20.05 4.99,20.05 L17.529,20.05 C19.314,20.05 20.785,18.58 21.437,16.05 L24.695,4.329 C24.857,3.675 25.181,3.104 25.591,2.631 C25.918,2.207 26.32,1.978 26.811,1.815 L26.891,1.815 L26.891,0.248 L26.809,0.248 L26.801,0.245 L26.801,0.245 Z M5.301,14.35 L2.368,6.204 C2.287,6.04 2.287,5.796 2.368,5.551 C2.531,5.306 2.857,5.225 3.514,5.061 L23.055,4.98 L20.451,14.253 L5.305,14.253 L5.301,14.35 L5.301,14.35 Z" id="Shape"></path>
                    <path d="M19.552,21.761 C17.927,21.434 16.539,22.807 16.864,24.438 C17.029,25.336 17.761,26.072 18.661,26.234 C20.286,26.56 21.673,25.172 21.349,23.556 C21.184,22.643 20.449,21.925 19.552,21.761 Z M19.07,25.254 C18.418,25.254 17.841,24.682 17.841,24.029 C17.841,23.393 18.414,22.807 19.07,22.807 C19.714,22.807 20.286,23.393 20.286,24.029 C20.286,24.683 19.797,25.254 19.07,25.254 Z" id="Shape"></path>
                    <path d="M12.63,1.551 C13.365,1.551 14.102,1.812 14.834,2.204 L16.864,2.204 L16.785,2.04 C16.457,1.649 16.051,1.225 15.566,0.897 C13.935,-0.147 11.902,-0.247 10.025,0.734 C9.535,1.06 9.046,1.485 8.644,1.877 L8.482,2.04 L10.595,2.04 C11.169,1.714 11.902,1.551 12.63,1.551 Z" id="Shape"></path>
                    <path d="M6.77,21.761 C5.136,21.434 3.756,22.807 4,24.52 C4.164,25.419 4.896,26.154 5.787,26.317 C7.421,26.643 8.808,25.254 8.48,23.622 C8.4,22.643 7.667,21.925 6.77,21.761 Z M7.503,24.52 C7.26,25.01 6.854,25.336 6.277,25.336 C6.115,25.336 5.953,25.336 5.788,25.254 C5.463,25.09 5.217,24.847 5.062,24.52 C4.898,24.194 4.898,23.884 5.062,23.556 C5.293,23.068 5.707,22.741 6.277,22.741 C6.441,22.741 6.605,22.741 6.769,22.807 C7.422,23.068 7.748,23.884 7.503,24.52 Z" id="Shape"></path>
                </g>
                <g id="Group" transform="translate(343.000000, 39.000000)" fill-rule="nonzero" fill="#8A8A8A">
                    <path d="M12.055,26.398 L6.362,26.398 C5.955,26.398 5.63,26.072 5.63,25.664 L5.63,14.904 L1.314,14.904 C1.073,14.904 0.746,14.741 0.665,14.513 C0.584,14.252 0.584,13.925 0.83,13.763 L14.351,0.245 C14.587,0.016 15.08,0.016 15.328,0.245 L21.031,5.959 C21.272,6.204 21.272,6.677 21.031,6.938 C20.791,7.167 20.301,7.167 20.052,6.938 L14.834,1.714 L3.027,13.534 L6.367,13.534 C6.772,13.534 7.096,13.86 7.096,14.252 L7.096,25.091 L12.061,25.091 C12.469,25.091 12.793,25.419 12.793,25.826 C12.788,26.154 12.464,26.398 12.055,26.398 Z" id="Shape"></path>
                    <path d="M22.804,26.398 L17.598,26.398 C17.196,26.398 16.869,26.072 16.869,25.664 L16.869,19.313 L12.715,19.313 L12.715,25.664 C12.715,26.073 12.389,26.398 11.984,26.398 C11.579,26.398 11.254,26.072 11.254,25.664 L11.254,18.579 C11.254,18.171 11.579,17.845 11.984,17.845 L17.528,17.845 C17.931,17.845 18.257,18.171 18.257,18.579 L18.257,24.929 L22.083,24.929 L22.083,14.089 C22.083,13.697 22.41,13.37 22.812,13.37 L26.722,13.37 L24.368,11.003 C24.205,10.84 24.124,10.676 24.124,10.514 L24.124,2.693 L21.27,2.693 L21.27,3.51 C21.27,3.918 20.952,4.245 20.541,4.245 C20.133,4.245 19.808,3.918 19.808,3.51 L19.808,1.975 C19.808,1.551 20.133,1.225 20.541,1.225 L24.771,1.225 C25.171,1.225 25.5,1.551 25.5,1.975 L25.5,10.187 L28.842,13.534 C29.005,13.697 29.086,14.024 29.005,14.252 C28.923,14.513 28.677,14.676 28.359,14.676 L23.466,14.676 L23.466,25.5 C23.538,26.154 23.214,26.398 22.804,26.398 Z" id="Shape"></path>
                </g>
                <path d="M433.361,53.461 L427.426,47.532 L423.093,47.532 L423.027,47.532 L423.027,44.56 C423.027,43.778 422.374,43.111 421.577,43.111 L405.306,43.111 C404.517,43.111 403.868,43.778 403.868,44.56 L398.658,44.56 C398.226,44.56 397.935,44.937 397.935,45.286 C397.935,45.72 398.297,46.01 398.658,46.01 L403.868,46.01 L403.868,48.967 L400.18,48.967 C399.744,48.967 399.454,49.343 399.454,49.692 C399.454,50.067 399.817,50.416 400.18,50.416 L403.868,50.416 L403.868,53.387 L401.622,53.387 C401.195,53.387 400.904,53.75 400.904,54.113 C400.904,54.476 401.262,54.822 401.622,54.822 L403.868,54.822 L403.868,57.795 L403.139,57.795 C402.704,57.795 402.415,58.156 402.415,58.518 C402.415,58.954 402.779,59.243 403.139,59.243 L403.868,59.243 C403.868,60.041 404.515,60.694 405.306,60.694 L406.828,60.694 C407.19,62.361 408.634,63.664 410.444,63.664 C412.249,63.664 413.698,62.36 414.048,60.694 L421.498,60.694 L423.811,60.694 C424.172,62.361 425.624,63.664 427.427,63.664 C429.24,63.664 430.681,62.36 431.042,60.694 L433.28,60.694 L433.361,53.461 Z M410.444,62.361 C409.214,62.361 408.198,61.346 408.198,60.113 C408.198,58.882 409.214,57.867 410.444,57.867 C411.669,57.867 412.678,58.882 412.678,60.113 C412.61,61.345 411.669,62.361 410.444,62.361 Z M421.504,59.387 L414.053,59.387 C413.699,57.722 412.249,56.417 410.449,56.417 C408.636,56.417 407.195,57.723 406.833,59.387 L405.311,59.387 L405.311,44.647 L421.582,44.647 L421.582,44.647 L421.504,59.387 Z M427.432,62.361 C426.207,62.361 425.2,61.346 425.2,60.113 C425.2,58.882 426.215,57.867 427.432,57.867 C428.663,57.867 429.681,58.882 429.681,60.113 C429.605,61.345 428.664,62.361 427.432,62.361 Z M431.847,59.387 L431.05,59.387 C430.687,57.722 429.245,56.417 427.433,56.417 C425.629,56.417 424.179,57.723 423.822,59.387 L423.034,59.387 L423.034,49.054 L423.1,49.054 L426.854,49.054 L431.92,54.112 L431.847,59.387 Z" id="Shape" fill="#8A8A8A" fill-rule="nonzero"></path>
                <g id="Group" transform="translate(291.000000, 76.000000)" fill-rule="nonzero" fill="#A7183E">
                    <path d="M26.368,0.427 C24.799,0.59 23.674,1.571 23.019,3.513 L22.939,3.677 L2.744,3.839 C2.337,3.922 1.193,4.085 0.704,4.983 C0.377,5.554 0.295,6.208 0.538,6.761 L3.872,15.971 L19.609,15.971 L19.505,16.296 C19.02,17.846 18.2,18.745 17.154,18.745 L4.62,18.745 C4.189,18.745 3.868,19.07 3.868,19.48 L3.868,19.48 C3.868,19.888 4.189,20.209 4.62,20.209 L17.156,20.209 C18.951,20.209 20.422,18.74 21.054,16.23 L24.322,4.492 C24.468,3.839 24.795,3.268 25.218,2.779 C25.543,2.37 25.94,2.125 26.43,1.961 L26.526,1.961 L26.526,0.493 L26.368,0.427 Z M4.852,14.434 L1.932,6.272 C1.846,6.108 1.846,5.88 1.932,5.635 C2.091,5.39 2.417,5.309 3.078,5.145 L22.619,5.062 L20,14.335 L4.854,14.335 L4.854,14.434 L4.852,14.434 Z" id="Shape"></path>
                    <path d="M19.021,21.848 C17.388,21.52 16.017,22.893 16.345,24.524 C16.5,25.421 17.241,26.164 18.138,26.321 C19.771,26.647 21.144,25.258 20.816,23.633 C20.734,22.826 19.999,22.01 19.021,21.848 Z M18.63,25.339 C17.979,25.339 17.391,24.768 17.391,24.114 C17.391,23.462 17.979,22.892 18.63,22.892 C19.281,22.892 19.838,23.455 19.838,24.114 C19.838,24.852 19.281,25.339 18.63,25.339 Z" id="Shape"></path>
                    <path d="M12.102,1.733 C12.85,1.733 13.571,1.961 14.302,2.37 L16.346,2.37 L16.262,2.224 C15.938,1.799 15.528,1.408 15.035,1.08 C13.402,0.003 11.379,-0.062 9.503,0.917 C9.014,1.244 8.524,1.635 8.113,2.059 L7.952,2.224 L10.074,2.224 C10.727,1.896 11.445,1.733 12.102,1.733 Z" id="Shape"></path>
                    <path d="M6.255,21.848 C4.624,21.52 3.234,22.893 3.481,24.606 C3.645,25.504 4.365,26.246 5.278,26.401 C6.897,26.729 8.283,25.34 7.961,23.713 C7.871,22.826 7.137,22.01 6.255,21.848 Z M6.973,24.605 C6.729,25.089 6.321,25.418 5.766,25.418 C5.604,25.418 5.44,25.418 5.276,25.336 C4.955,25.173 4.69,24.932 4.524,24.606 C4.362,24.278 4.362,23.956 4.524,23.627 C4.792,23.152 5.18,22.826 5.766,22.826 C5.93,22.826 6.094,22.826 6.254,22.89 C6.973,23.218 7.298,23.952 6.973,24.605 Z" id="Shape"></path>
                </g>
                <g id="Group" transform="translate(345.000000, 76.000000)" fill-rule="nonzero" fill="#A7183E">
                    <path d="M11.614,26.564 L5.9,26.564 C5.504,26.564 5.174,26.238 5.174,25.83 L5.174,14.99 L0.863,14.99 C0.6,14.99 0.276,14.827 0.212,14.599 C0.115,14.33 0.115,14.005 0.376,13.849 L13.897,0.328 C14.126,0.1 14.617,0.1 14.876,0.328 L20.555,6.043 C20.825,6.272 20.825,6.76 20.555,7.022 C20.327,7.251 19.838,7.251 19.576,7.022 L14.387,1.798 L2.573,13.618 L5.903,13.618 C6.328,13.618 6.655,13.945 6.655,14.337 L6.655,25.177 L11.617,25.177 C12.017,25.177 12.346,25.504 12.346,25.912 C12.349,26.238 12.021,26.564 11.614,26.564 Z" id="Shape"></path>
                    <path d="M22.356,26.564 L17.149,26.564 C16.739,26.564 16.412,26.238 16.412,25.83 L16.412,19.48 L12.266,19.48 L12.266,25.83 C12.266,26.239 11.945,26.564 11.537,26.564 C11.13,26.564 10.805,26.238 10.805,25.83 L10.805,18.745 C10.805,18.337 11.13,18.011 11.537,18.011 L17.072,18.011 C17.473,18.011 17.801,18.337 17.801,18.745 L17.801,25.096 L21.637,25.096 L21.637,14.336 C21.637,13.943 21.964,13.617 22.362,13.617 L26.279,13.617 L23.913,11.25 C23.749,11.087 23.668,10.923 23.668,10.76 L23.668,2.941 L20.828,2.941 L20.828,3.756 C20.828,4.164 20.501,4.49 20.077,4.49 C19.681,4.49 19.352,4.163 19.352,3.756 L19.352,2.222 C19.352,1.797 19.676,1.471 20.077,1.471 L24.316,1.471 C24.724,1.471 25.048,1.797 25.048,2.222 L25.048,10.433 L28.402,13.779 C28.56,13.943 28.631,14.269 28.56,14.497 C28.462,14.758 28.239,14.922 27.912,14.922 L23.016,14.922 L23.016,25.746 C23.093,26.238 22.78,26.564 22.356,26.564 Z" id="Shape"></path>
                </g>
                <path d="M434.68,91.387 L428.742,85.457 L424.409,85.457 L424.338,85.457 L424.338,82.486 C424.338,81.704 423.687,81.037 422.887,81.037 L406.62,81.037 C405.823,81.037 405.171,81.704 405.171,82.486 L399.969,82.486 C399.533,82.486 399.243,82.848 399.243,83.211 C399.243,83.646 399.6,83.936 399.969,83.936 L405.171,83.936 L405.171,86.894 L401.489,86.894 C401.051,86.894 400.76,87.269 400.76,87.618 C400.76,87.994 401.121,88.343 401.489,88.343 L405.171,88.343 L405.171,91.315 L402.941,91.315 C402.504,91.315 402.215,91.677 402.215,92.026 C402.215,92.403 402.569,92.755 402.941,92.755 L405.171,92.755 L405.171,95.733 L404.446,95.733 C404.008,95.733 403.717,96.09 403.717,96.458 C403.717,96.821 404.094,97.185 404.446,97.185 L405.171,97.185 C405.171,97.984 405.822,98.622 406.62,98.622 L408.129,98.622 C408.504,100.309 409.955,101.597 411.751,101.597 C413.564,101.597 414.999,100.309 415.375,98.622 L422.825,98.622 L425.131,98.622 C425.493,100.309 426.944,101.597 428.738,101.597 C430.551,101.597 432.001,100.309 432.363,98.622 L434.592,98.622 L434.68,91.387 Z M411.749,100.287 C410.53,100.287 409.518,99.271 409.518,98.041 C409.518,96.809 410.537,95.794 411.749,95.794 C412.982,95.794 413.996,96.809 413.996,98.041 C413.996,99.271 412.982,100.287 411.749,100.287 Z M422.881,97.314 L415.432,97.314 C415.082,95.648 413.635,94.335 411.828,94.335 C410.015,94.335 408.562,95.648 408.221,97.314 L406.7,97.314 L406.7,82.558 L422.972,82.558 L422.972,82.558 L422.881,97.314 Z M428.736,100.287 C427.512,100.287 426.505,99.271 426.505,98.041 C426.505,96.809 427.519,95.794 428.736,95.794 C429.965,95.794 430.983,96.809 430.983,98.041 C430.983,99.271 429.969,100.287 428.736,100.287 Z M433.231,97.314 L432.427,97.314 C432.07,95.648 430.614,94.335 428.823,94.335 C426.995,94.335 425.555,95.648 425.199,97.314 L424.401,97.314 L424.401,86.979 L424.468,86.979 L428.239,86.979 L433.283,92.024 L433.231,97.314 Z" id="Shape" fill="#A7183E" fill-rule="nonzero"></path>
                <g id="Group" transform="translate(73.000000, 134.000000)" fill-rule="nonzero" fill="#000000">
                    <path d="M4.824,13.52 C2.647,13.52 0.906,11.784 0.906,9.602 C0.906,7.425 2.647,5.684 4.824,5.684 C7.001,5.684 8.741,7.425 8.741,9.602 C8.741,11.669 7,13.52 4.824,13.52 Z M4.824,7.098 C3.409,7.098 2.321,8.188 2.321,9.602 C2.321,11.016 3.41,12.106 4.824,12.106 C6.238,12.106 7.327,11.016 7.327,9.602 C7.327,8.188 6.238,7.098 4.824,7.098 Z" id="Shape"></path>
                    <path d="M15.38,8.188 C13.203,8.188 11.463,6.446 11.463,4.27 C11.463,2.092 13.204,0.352 15.38,0.352 C17.558,0.352 19.298,2.092 19.298,4.27 C19.298,6.445 17.557,8.188 15.38,8.188 Z M15.38,1.766 C13.965,1.766 12.877,2.856 12.877,4.27 C12.877,5.684 13.965,6.772 15.38,6.772 C16.795,6.772 17.883,5.684 17.883,4.27 C17.883,2.856 16.795,1.766 15.38,1.766 Z" id="Shape"></path>
                    <path d="M15.38,18.743 C13.203,18.743 11.463,17.002 11.463,14.825 C11.463,12.648 13.204,10.907 15.38,10.907 C17.558,10.907 19.298,12.648 19.298,14.825 C19.298,17.002 17.557,18.743 15.38,18.743 Z M15.38,12.322 C13.965,12.322 12.877,13.41 12.877,14.825 C12.877,16.239 13.965,17.327 15.38,17.327 C16.795,17.327 17.883,16.239 17.883,14.825 C17.883,13.52 16.795,12.322 15.38,12.322 Z" id="Shape"></path>
                    <path d="M12.551,14.172 C12.443,14.172 12.333,14.172 12.225,14.065 L7.328,11.669 C7.002,11.451 6.784,11.016 7.002,10.69 C7.11,10.473 7.328,10.254 7.654,10.254 C7.763,10.254 7.872,10.254 7.981,10.363 L12.877,12.758 C13.096,12.866 13.203,12.977 13.203,13.194 L13.203,13.737 C13.095,13.954 12.768,14.172 12.551,14.172 Z" id="Shape"></path>
                    <path d="M7.653,8.839 C7.436,8.839 7.109,8.731 7.001,8.404 C6.893,8.185 6.893,8.078 7.001,7.859 C7.109,7.751 7.218,7.642 7.327,7.533 L12.224,5.138 C12.332,5.138 12.442,5.029 12.55,5.029 C12.768,5.029 13.095,5.138 13.202,5.466 C13.311,5.684 13.311,5.793 13.202,6.01 C13.095,6.229 12.985,6.336 12.876,6.448 L7.98,8.842 C7.871,8.839 7.762,8.839 7.653,8.839 Z" id="Shape"></path>
                </g>
                <g id="Group" transform="translate(120.000000, 138.000000)" fill-rule="nonzero" fill="#A71D3F">
                    <path d="M11.321,11.861 C11.158,11.861 10.996,11.804 10.833,11.642 L0.203,1.23 C-0.068,0.959 -0.068,0.579 0.203,0.308 C0.474,0.037 0.909,0.037 1.125,0.308 L11.755,10.72 C12.027,10.991 12.027,11.37 11.755,11.642 C11.646,11.807 11.483,11.861 11.321,11.861 Z" id="Shape"></path>
                    <path d="M0.69,11.861 C0.528,11.861 0.365,11.804 0.203,11.642 C-0.068,11.371 -0.068,10.992 0.203,10.72 L10.832,0.308 C11.103,0.037 11.538,0.037 11.754,0.308 C12.025,0.579 12.025,0.956 11.754,1.23 L1.123,11.642 C1.016,11.807 0.854,11.861 0.69,11.861 Z" id="Shape"></path>
                </g>
                <path d="M168.785,138.648 C169.231,138.648 169.676,138.757 170.122,138.924 C171.683,139.65 172.294,141.433 171.569,142.99 C170.845,144.492 165.888,148.891 165.888,148.891 L165.888,148.891 L165.888,148.891 C165.888,148.891 160.93,144.545 160.206,142.99 C159.481,141.485 160.15,139.645 161.654,138.924 C162.1,138.701 162.545,138.648 162.991,138.648 C164.16,138.648 165.274,139.318 165.776,140.375 C165.832,140.486 165.888,140.6 165.888,140.766 C165.944,140.6 165.944,140.487 165.998,140.375 C166.556,139.316 167.67,138.648 168.785,138.648 L168.785,138.648 Z M168.785,137.089 C167.726,137.089 166.668,137.479 165.889,138.092 C165.053,137.424 164.05,137.089 162.993,137.089 C162.324,137.089 161.656,137.256 160.988,137.535 C158.649,138.594 157.646,141.378 158.76,143.661 C159.539,145.333 163.606,148.953 164.831,150.066 C165.109,150.341 165.498,150.458 165.89,150.458 C166.113,150.458 166.28,150.4 166.447,150.346 C166.503,150.346 166.503,150.29 166.559,150.29 C166.669,150.232 166.837,150.123 166.949,150.066 C168.175,149.007 172.241,145.386 173.02,143.661 C174.135,141.377 173.131,138.593 170.791,137.535 C170.177,137.256 169.508,137.089 168.785,137.089 L168.785,137.089 Z" id="Shape" fill="#A71D3F" fill-rule="nonzero"></path>
                <path d="M220.256,136.6 L216.603,132.946 C215.689,132.037 214.284,132.037 213.37,132.879 L213.37,132.879 L213.37,132.879 L200.017,146.233 L199.735,146.512 L197.417,155.718 L206.623,153.401 L207.466,152.557 L207.466,152.557 L220.187,139.768 L220.187,139.768 L220.187,139.768 C221.169,138.919 221.169,137.514 220.256,136.6 Z M200.719,147.493 L205.778,152.552 L201.07,153.747 L199.594,152.2 L200.719,147.493 Z M206.693,149.391 L203.811,146.509 L213.369,136.951 L216.25,139.832 L206.693,149.391 Z" id="Shape" fill="#A71D3F" fill-rule="nonzero"></path>
                <g id="Group" transform="translate(243.000000, 135.000000)" fill-rule="nonzero" fill="#A71D3F">
                    <path d="M15.419,16.218 C15.208,16.218 14.999,16.149 14.788,15.938 L1.016,2.444 C0.662,2.093 0.662,1.6 1.016,1.252 C1.368,0.899 1.93,0.899 2.208,1.252 L15.982,14.746 C16.335,15.099 16.335,15.59 15.982,15.938 C15.842,16.146 15.63,16.218 15.419,16.218 Z" id="Shape"></path>
                    <path d="M1.645,16.218 C1.436,16.218 1.225,16.149 1.014,15.938 C0.66,15.585 0.66,15.093 1.014,14.746 L14.785,1.252 C15.139,0.899 15.699,0.899 15.98,1.252 C16.332,1.606 16.332,2.099 15.98,2.444 L2.205,15.938 C2.066,16.146 1.855,16.218 1.645,16.218 Z" id="Shape"></path>
                </g>
                <g id="Group" transform="translate(277.000000, 115.000000)" fill-rule="nonzero">
                    <g id="Shape" fill="#8A8A8A">
                        <path d="M20.282,0.827 C19.122,0.949 18.265,1.683 17.773,3.154 L17.71,3.277 L2.564,3.398 C2.259,3.461 1.408,3.583 1.04,4.254 C0.8,4.683 0.734,5.17 0.92,5.603 L3.425,12.506 L15.21,12.506 L15.148,12.753 C14.786,13.901 14.175,14.578 13.381,14.578 L3.914,14.578 C3.606,14.578 3.362,14.821 3.362,15.127 L3.362,15.127 C3.362,15.437 3.606,15.683 3.914,15.683 L13.317,15.683 C14.657,15.683 15.757,14.579 16.251,12.681 L18.692,3.89 C18.815,3.398 19.059,2.967 19.366,2.617 C19.612,2.298 19.912,2.128 20.278,2.003 L20.341,2.003 L20.341,0.828 L20.282,0.827 L20.282,0.827 L20.282,0.827 Z M4.152,11.408 L1.954,5.296 C1.892,5.174 1.892,4.991 1.954,4.807 C2.076,4.624 2.32,4.563 2.81,4.44 L17.467,4.38 L15.517,11.334 L4.152,11.334 L4.152,11.408 L4.152,11.408 Z"></path>
                        <path d="M14.843,16.965 C13.624,16.721 12.583,17.751 12.827,18.975 C12.95,19.649 13.5,20.203 14.175,20.325 C15.397,20.567 16.436,19.526 16.19,18.313 C16.066,17.629 15.518,17.09 14.843,16.965 Z M14.479,19.585 C13.994,19.585 13.561,19.157 13.561,18.669 C13.561,18.19 13.99,17.751 14.479,17.751 C14.963,17.751 15.395,18.189 15.395,18.669 C15.395,19.159 15.025,19.585 14.479,19.585 Z"></path>
                        <path d="M9.648,1.809 C10.202,1.809 10.752,2.002 11.304,2.296 L12.825,2.296 L12.765,2.174 C12.519,1.88 12.212,1.563 11.849,1.317 C10.625,0.535 9.103,0.461 7.695,1.196 C7.329,1.44 6.96,1.759 6.66,2.052 L6.539,2.174 L8.122,2.174 C8.557,1.93 9.105,1.809 9.648,1.809 Z"></path>
                        <path d="M5.255,16.965 C4.029,16.721 2.995,17.751 3.182,19.036 C3.303,19.711 3.852,20.264 4.52,20.382 C5.749,20.628 6.789,19.585 6.541,18.361 C6.479,17.629 5.93,17.09 5.255,16.965 Z M5.807,19.036 C5.622,19.402 5.319,19.646 4.885,19.646 C4.768,19.646 4.643,19.646 4.52,19.583 C4.276,19.461 4.091,19.277 3.973,19.034 C3.852,18.791 3.852,18.556 3.973,18.308 C4.151,17.943 4.458,17.699 4.885,17.699 C5.012,17.699 5.132,17.699 5.254,17.749 C5.745,17.945 5.988,18.561 5.807,19.036 Z"></path>
                    </g>
                    <g transform="translate(40.000000, 0.000000)" id="Shape" fill="#8A8A8A">
                        <path d="M8.702,20.443 L4.431,20.443 C4.122,20.443 3.878,20.199 3.878,19.892 L3.878,11.823 L0.642,11.823 C0.457,11.823 0.211,11.701 0.156,11.531 C0.093,11.334 0.093,11.089 0.277,10.968 L10.421,0.826 C10.6,0.654 10.966,0.654 11.15,0.826 L15.426,5.111 C15.61,5.295 15.61,5.65 15.426,5.845 C15.247,6.017 14.878,6.017 14.695,5.845 L10.78,1.925 L1.926,10.791 L4.432,10.791 C4.735,10.791 4.979,11.033 4.979,11.329 L4.979,19.458 L8.705,19.458 C9.015,19.458 9.253,19.706 9.253,20.013 C9.25,20.264 9.01,20.443 8.702,20.443 Z"></path>
                        <path d="M16.767,20.443 L12.862,20.443 C12.558,20.443 12.313,20.199 12.313,19.892 L12.313,15.124 L9.196,15.124 L9.196,19.892 C9.196,20.199 8.953,20.443 8.647,20.443 C8.34,20.443 8.1,20.199 8.1,19.892 L8.1,14.578 C8.1,14.271 8.34,14.027 8.647,14.027 L12.802,14.027 C13.11,14.027 13.349,14.271 13.349,14.578 L13.349,19.343 L16.223,19.343 L16.223,11.211 C16.223,10.918 16.467,10.671 16.768,10.671 L19.702,10.671 L17.934,8.899 C17.815,8.776 17.753,8.653 17.753,8.53 L17.753,2.668 L15.61,2.668 L15.61,3.276 C15.61,3.587 15.37,3.831 15.059,3.831 C14.752,3.831 14.508,3.587 14.508,3.276 L14.508,2.128 C14.508,1.814 14.752,1.565 15.059,1.565 L18.239,1.565 C18.539,1.565 18.786,1.811 18.786,2.128 L18.786,8.289 L21.292,10.8 C21.413,10.922 21.476,11.168 21.413,11.338 C21.35,11.535 21.168,11.653 20.928,11.653 L17.26,11.653 L17.26,19.772 C17.315,20.264 17.071,20.443 16.767,20.443 Z"></path>
                    </g>
                    <path d="M106.42,11.49 L101.968,7.042 L98.72,7.042 L98.665,7.042 L98.665,4.814 C98.665,4.226 98.177,3.724 97.579,3.724 L85.374,3.724 C84.781,3.724 84.295,4.226 84.295,4.814 L80.386,4.814 C80.069,4.814 79.846,5.097 79.846,5.357 C79.846,5.683 80.117,5.9 80.386,5.9 L84.295,5.9 L84.295,8.12 L81.527,8.12 C81.201,8.12 80.981,8.4 80.981,8.662 C80.981,8.943 81.252,9.205 81.527,9.205 L84.295,9.205 L84.295,11.434 L82.608,11.434 C82.288,11.434 82.069,11.707 82.069,11.981 C82.069,12.252 82.34,12.512 82.608,12.512 L84.295,12.512 L84.295,14.741 L83.747,14.741 C83.423,14.741 83.204,15.012 83.204,15.282 C83.204,15.611 83.478,15.827 83.747,15.827 L84.295,15.827 C84.295,16.426 84.781,16.915 85.374,16.915 L86.515,16.915 C86.787,18.166 87.869,19.143 89.231,19.143 C90.585,19.143 91.67,18.165 91.933,16.915 L97.525,16.915 L99.257,16.915 C99.528,18.166 100.615,19.143 101.968,19.143 C103.33,19.143 104.41,18.165 104.682,16.915 L106.362,16.915 L106.42,11.49 Z M89.228,18.166 C88.303,18.166 87.541,17.404 87.541,16.478 C87.541,15.556 88.303,14.793 89.228,14.793 C90.144,14.793 90.907,15.556 90.907,16.478 C90.854,17.404 90.144,18.166 89.228,18.166 Z M97.523,15.936 L91.932,15.936 C91.666,14.686 90.578,13.707 89.23,13.707 C87.869,13.707 86.788,14.686 86.515,15.936 L85.37,15.936 L85.37,4.88 L97.576,4.88 L97.576,4.88 L97.523,15.936 Z M101.972,18.166 C101.053,18.166 100.291,17.404 100.291,16.478 C100.291,15.556 101.053,14.793 101.972,14.793 C102.893,14.793 103.66,15.556 103.66,16.478 C103.6,17.404 102.893,18.166 101.972,18.166 Z M105.282,15.936 L104.681,15.936 C104.41,14.686 103.327,13.707 101.969,13.707 C100.616,13.707 99.53,14.686 99.258,15.936 L98.667,15.936 L98.667,8.184 L98.717,8.184 L101.532,8.184 L105.333,11.979 L105.282,15.936 Z" id="Shape" fill="#8A8A8A"></path>
                    <g transform="translate(1.000000, 33.000000)" id="Shape" fill="#A7183E">
                        <path d="M20.455,0.967 C19.277,1.089 18.434,1.826 17.943,3.282 L17.88,3.404 L2.734,3.525 C2.426,3.587 1.572,3.709 1.206,4.381 C0.96,4.812 0.898,5.3 1.082,5.715 L3.581,12.623 L15.389,12.623 L15.311,12.867 C14.946,14.028 14.332,14.706 13.545,14.706 L4.145,14.706 C3.821,14.706 3.582,14.949 3.582,15.256 L3.582,15.256 C3.582,15.564 3.82,15.806 4.145,15.806 L13.545,15.806 C14.895,15.806 15.996,14.702 16.471,12.82 L18.921,4.015 C19.031,3.525 19.275,3.097 19.593,2.732 C19.838,2.42 20.133,2.241 20.503,2.119 L20.57,2.119 L20.57,1.015 L20.455,0.967 Z M4.318,11.475 L2.126,5.352 C2.063,5.229 2.063,5.057 2.126,4.873 C2.246,4.691 2.49,4.63 2.984,4.506 L17.642,4.445 L15.676,11.398 L4.318,11.398 L4.318,11.475 L4.318,11.475 Z"></path>
                        <path d="M14.947,17.036 C13.72,16.789 12.691,17.816 12.939,19.041 C13.056,19.714 13.609,20.27 14.283,20.389 C15.508,20.637 16.537,19.592 16.292,18.371 C16.23,17.77 15.68,17.158 14.947,17.036 Z M14.65,19.652 C14.162,19.652 13.72,19.224 13.72,18.734 C13.72,18.245 14.158,17.816 14.65,17.816 C15.14,17.816 15.556,18.244 15.556,18.734 C15.559,19.289 15.143,19.652 14.65,19.652 Z"></path>
                        <path d="M9.755,1.943 C10.318,1.943 10.859,2.119 11.404,2.422 L12.939,2.422 L12.875,2.315 C12.632,1.998 12.323,1.707 11.955,1.458 C10.73,0.649 9.215,0.604 7.807,1.337 C7.44,1.582 7.073,1.875 6.768,2.192 L6.647,2.315 L8.237,2.315 C8.723,2.07 9.264,1.943 9.755,1.943 Z"></path>
                        <path d="M5.369,17.036 C4.144,16.789 3.103,17.816 3.287,19.101 C3.409,19.775 3.949,20.329 4.635,20.449 C5.852,20.695 6.891,19.654 6.647,18.431 C6.582,17.77 6.029,17.158 5.369,17.036 Z M5.907,19.104 C5.724,19.469 5.419,19.713 5.003,19.713 C4.882,19.713 4.757,19.713 4.637,19.652 C4.393,19.529 4.199,19.347 4.074,19.101 C3.952,18.857 3.952,18.613 4.074,18.367 C4.273,18.013 4.564,17.767 5.006,17.767 C5.129,17.767 5.251,17.767 5.372,17.816 C5.907,18.063 6.15,18.613 5.907,19.104 Z"></path>
                    </g>
                    <g transform="translate(41.000000, 33.000000)" id="Shape" fill="#A7183E">
                        <path d="M8.872,20.572 L4.586,20.572 C4.288,20.572 4.042,20.328 4.042,20.021 L4.042,11.888 L0.813,11.888 C0.618,11.888 0.373,11.767 0.325,11.597 C0.251,11.396 0.251,11.154 0.446,11.034 L10.59,0.89 C10.761,0.716 11.13,0.716 11.321,0.89 L15.585,5.173 C15.783,5.347 15.783,5.713 15.585,5.907 C15.414,6.08 15.045,6.08 14.849,5.907 L10.956,1.99 L2.093,10.854 L4.59,10.854 C4.905,10.854 5.153,11.098 5.153,11.393 L5.153,19.524 L8.878,19.524 C9.183,19.524 9.425,19.768 9.425,20.078 C9.425,20.328 9.177,20.572 8.872,20.572 Z"></path>
                        <path d="M16.931,20.572 L13.027,20.572 C12.715,20.572 12.471,20.328 12.471,20.021 L12.471,15.256 L9.362,15.256 L9.362,20.021 C9.362,20.328 9.121,20.572 8.813,20.572 C8.506,20.572 8.262,20.328 8.262,20.021 L8.262,14.708 C8.262,14.398 8.506,14.154 8.813,14.154 L12.964,14.154 C13.266,14.154 13.512,14.398 13.512,14.708 L13.512,19.468 L16.389,19.468 L16.389,11.399 C16.389,11.106 16.633,10.862 16.932,10.862 L19.87,10.862 L18.097,9.088 C17.973,8.966 17.912,8.841 17.912,8.719 L17.912,2.855 L15.782,2.855 L15.782,3.466 C15.782,3.775 15.536,4.019 15.219,4.019 C14.92,4.019 14.676,3.773 14.676,3.466 L14.676,2.318 C14.676,2.002 14.92,1.755 15.219,1.755 L18.401,1.755 C18.71,1.755 18.952,2.001 18.952,2.318 L18.952,8.478 L21.467,10.986 C21.587,11.111 21.638,11.355 21.587,11.523 C21.515,11.719 21.346,11.843 21.1,11.843 L17.427,11.843 L17.427,19.959 C17.479,20.328 17.247,20.572 16.931,20.572 Z"></path>
                    </g>
                    <path d="M107.406,45.188 L102.951,40.743 L99.701,40.743 L99.643,40.743 L99.643,38.514 C99.643,37.926 99.159,37.427 98.556,37.427 L86.358,37.427 C85.761,37.427 85.267,37.926 85.267,38.514 L81.369,38.514 C81.043,38.514 80.823,38.785 80.823,39.059 C80.823,39.384 81.094,39.604 81.369,39.604 L85.267,39.604 L85.267,41.825 L82.508,41.825 C82.179,41.825 81.96,42.104 81.96,42.366 C81.96,42.647 82.232,42.907 82.508,42.907 L85.267,42.907 L85.267,45.136 L83.594,45.136 C83.268,45.136 83.053,45.409 83.053,45.671 C83.053,45.951 83.319,46.216 83.594,46.216 L85.267,46.216 L85.267,48.445 L84.724,48.445 C84.401,48.445 84.18,48.716 84.18,48.993 C84.18,49.264 84.463,49.536 84.724,49.536 L85.267,49.536 C85.267,50.136 85.758,50.609 86.358,50.609 L87.491,50.609 C87.771,51.877 88.861,52.841 90.208,52.841 C91.568,52.841 92.646,51.873 92.926,50.609 L98.515,50.609 L100.244,50.609 C100.515,51.877 101.605,52.841 102.952,52.841 C104.308,52.841 105.397,51.873 105.672,50.609 L107.342,50.609 L107.406,45.188 Z M90.205,51.863 C89.294,51.863 88.532,51.101 88.532,50.179 C88.532,49.252 89.296,48.492 90.205,48.492 C91.132,48.492 91.893,49.252 91.893,50.179 C91.892,51.102 91.132,51.863 90.205,51.863 Z M98.557,49.637 L92.968,49.637 C92.704,48.387 91.619,47.403 90.264,47.403 C88.906,47.403 87.818,48.387 87.558,49.637 L86.416,49.637 L86.416,38.569 L98.622,38.569 L98.622,38.569 L98.557,49.637 Z M102.948,51.863 C102.031,51.863 101.273,51.101 101.273,50.179 C101.273,49.252 102.033,48.492 102.948,48.492 C103.873,48.492 104.635,49.252 104.635,50.179 C104.635,51.102 103.873,51.863 102.948,51.863 Z M106.321,49.637 L105.717,49.637 C105.446,48.387 104.359,47.403 103.013,47.403 C101.642,47.403 100.565,48.387 100.294,49.637 L99.694,49.637 L99.694,41.882 L99.746,41.882 L102.573,41.882 L106.359,45.665 L106.321,49.637 Z" id="Shape" fill="#A7183E"></path>
                </g>
                <g id="Group" transform="translate(201.000000, 3.000000)" fill-rule="nonzero" fill="#A7183E">
                    <path d="M6.909,16.596 L3.491,16.596 C3.256,16.596 3.058,16.4 3.058,16.151 L3.058,9.586 L0.482,9.586 C0.326,9.586 0.13,9.484 0.092,9.348 C0.034,9.184 0.034,8.991 0.191,8.893 L8.275,0.702 C8.412,0.563 8.704,0.563 8.86,0.702 L12.254,4.164 C12.416,4.304 12.416,4.599 12.254,4.758 C12.117,4.897 11.827,4.897 11.669,4.758 L8.568,1.593 L1.502,8.754 L3.493,8.754 C3.747,8.754 3.943,8.95 3.943,9.189 L3.943,15.759 L6.909,15.759 C7.15,15.759 7.347,15.954 7.347,16.2 C7.35,16.399 7.151,16.596 6.909,16.596 Z" id="Shape"></path>
                    <path d="M13.331,16.596 L10.22,16.596 C9.977,16.596 9.778,16.4 9.778,16.151 L9.778,12.306 L7.3,12.306 L7.3,16.151 C7.3,16.4 7.106,16.596 6.86,16.596 C6.619,16.596 6.423,16.4 6.423,16.151 L6.423,11.857 C6.423,11.611 6.619,11.416 6.86,11.416 L10.173,11.416 C10.409,11.416 10.607,11.611 10.607,11.857 L10.607,15.708 L12.899,15.708 L12.899,9.187 C12.899,8.949 13.097,8.752 13.331,8.752 L15.674,8.752 L14.26,7.319 C14.161,7.217 14.113,7.119 14.113,7.022 L14.113,2.282 L12.418,2.282 L12.418,2.777 C12.418,3.023 12.22,3.222 11.97,3.222 C11.734,3.222 11.538,3.022 11.538,2.777 L11.538,1.848 C11.538,1.59 11.731,1.392 11.97,1.392 L14.505,1.392 C14.747,1.392 14.942,1.59 14.942,1.848 L14.942,6.822 L16.949,8.85 C17.044,8.948 17.084,9.149 17.044,9.286 C16.984,9.445 16.851,9.542 16.653,9.542 L13.729,9.542 L13.729,16.104 C13.774,16.399 13.585,16.596 13.331,16.596 Z" id="Shape"></path>
                </g>
                <g id="Group" transform="translate(242.000000, 4.000000)" fill-rule="nonzero" fill="#A7183E">
                    <path d="M18.389,0.609 C17.309,0.702 16.535,1.263 16.082,2.375 L16.027,2.469 L2.114,2.561 C1.834,2.609 1.046,2.702 0.71,3.216 C0.482,3.543 0.427,3.917 0.596,4.233 L2.893,9.502 L13.735,9.502 L13.664,9.688 C13.329,10.575 12.767,11.089 12.045,11.089 L3.41,11.089 C3.112,11.089 2.891,11.275 2.891,11.509 L2.891,11.509 C2.891,11.743 3.112,11.927 3.41,11.927 L12.046,11.927 C13.28,11.927 14.296,11.086 14.734,9.651 L16.984,2.937 C17.086,2.563 17.31,2.237 17.601,1.957 C17.827,1.723 18.099,1.583 18.437,1.489 L18.501,1.489 L18.501,0.649 L18.389,0.609 Z M3.568,8.621 L1.556,3.953 C1.495,3.859 1.495,3.728 1.556,3.588 C1.663,3.448 1.89,3.402 2.345,3.308 L15.806,3.26 L14,8.565 L3.563,8.565 L3.563,8.621 L3.568,8.621 L3.568,8.621 Z" id="Shape"></path>
                    <path d="M13.329,12.862 C12.204,12.674 11.26,13.46 11.484,14.392 C11.591,14.906 12.101,15.33 12.72,15.42 C13.845,15.607 14.788,14.812 14.564,13.881 C14.509,13.421 14.002,12.955 13.329,12.862 Z M13.059,14.859 C12.61,14.859 12.205,14.532 12.205,14.159 C12.205,13.786 12.609,13.46 13.059,13.46 C13.507,13.46 13.891,13.783 13.891,14.159 C13.891,14.58 13.508,14.859 13.059,14.859 Z" id="Shape"></path>
                    <path d="M8.563,1.356 C9.08,1.356 9.576,1.487 10.08,1.721 L11.487,1.721 L11.428,1.638 C11.204,1.395 10.922,1.171 10.582,0.984 C9.458,0.368 8.062,0.331 6.771,0.891 C6.433,1.078 6.095,1.301 5.814,1.544 L5.703,1.639 L7.165,1.639 C7.615,1.449 8.109,1.356 8.563,1.356 Z" id="Shape"></path>
                    <path d="M4.534,12.862 C3.41,12.674 2.453,13.46 2.622,14.439 C2.734,14.954 3.23,15.377 3.859,15.466 C4.974,15.654 5.929,14.859 5.707,13.929 C5.646,13.421 5.143,12.955 4.534,12.862 Z M5.029,14.439 C4.861,14.717 4.58,14.904 4.197,14.904 C4.086,14.904 3.972,14.904 3.859,14.857 C3.636,14.764 3.457,14.626 3.339,14.439 C3.23,14.251 3.23,14.066 3.339,13.879 C3.525,13.608 3.791,13.421 4.193,13.421 C4.306,13.421 4.422,13.421 4.532,13.458 C5.029,13.646 5.252,14.066 5.029,14.439 Z" id="Shape"></path>
                </g>
                <g id="Group" transform="translate(277.000000, 5.000000)" fill-rule="nonzero" fill="#4C4C4C">
                    <polygon id="Shape" points="0.047 5.742 1.693 4.137 8.297 11.64 6.648 13.141"></polygon>
                    <polygon id="Shape" points="15.992 0.294 17.525 1.915 6.741 13.141 5.207 11.52"></polygon>
                </g>
                <path d="M334.596,3.581 C334.466,3.258 334.2,3.065 333.814,3.065 L312.112,3.065 C311.791,3.065 311.46,3.258 311.331,3.581 C311.202,3.913 311.268,4.235 311.522,4.492 L319.196,12.155 L319.196,25.805 C319.196,26.128 319.389,26.451 319.712,26.588 C319.841,26.652 319.906,26.652 320.035,26.652 C320.237,26.652 320.495,26.588 320.624,26.384 L326.603,20.406 C326.73,20.278 326.859,20.02 326.859,19.826 L326.859,12.024 L334.467,4.489 C334.659,4.235 334.723,3.913 334.596,3.581 Z M325.172,11.705 L325.172,19.507 L320.817,23.854 L320.817,11.833 C320.817,11.64 320.754,11.382 320.559,11.253 L314.065,4.686 L331.861,4.686 L325.43,11.125 C325.302,11.317 325.172,11.511 325.172,11.705 Z" id="Shape" fill="#FFFFFF" fill-rule="nonzero"></path>
                <g id="Group" transform="translate(355.000000, 3.000000)" fill-rule="nonzero" fill="#FFFFFF">
                    <path d="M6.618,22.676 C6.038,22.676 5.514,22.151 5.514,21.571 L5.514,1.621 C5.514,1.042 6.039,0.516 6.618,0.516 C7.208,0.516 7.722,1.042 7.722,1.621 L7.722,21.636 C7.723,22.216 7.273,22.676 6.618,22.676 Z" id="Shape"></path>
                    <path d="M6.618,23.652 L0.447,17.472 C-0.004,17.021 -0.004,16.375 0.447,15.915 C0.908,15.463 1.551,15.463 2.004,15.915 L6.618,20.528 L11.234,15.915 C11.693,15.463 12.338,15.463 12.797,15.915 C13.248,16.375 13.248,17.02 12.797,17.472 L6.618,23.652 Z" id="Shape"></path>
                    <path d="M18.574,22.676 C17.993,22.676 17.477,22.151 17.477,21.571 L17.477,1.621 C17.477,1.042 17.994,0.516 18.574,0.516 C19.163,0.516 19.678,1.042 19.678,1.621 L19.678,21.636 C19.678,22.216 19.163,22.676 18.574,22.676 Z" id="Shape"></path>
                    <path d="M23.973,8.06 C23.713,8.06 23.382,7.922 23.188,7.728 L18.577,3.114 L13.973,7.728 C13.51,8.19 12.869,8.19 12.406,7.728 C11.957,7.277 11.957,6.623 12.406,6.172 L18.574,0 L24.754,6.171 C25.205,6.622 25.205,7.276 24.754,7.727 C24.486,7.995 24.229,8.06 23.973,8.06 Z" id="Shape"></path>
                </g>
                <path d="M54.166,179.051 C56.304,177.553 58.627,176.605 61.188,176.253 C69.873,175.055 75.947,180.951 76.722,188.031 C77.198,192.202 75.948,195.892 73.084,199.039 C72.974,199.167 72.846,199.341 72.846,199.515 C72.37,201.956 71.309,202.915 68.86,203.21 C68.804,203.21 68.804,203.266 68.747,203.266 C68.566,205.825 66.903,207.317 64.58,207.376 C64.58,208.623 64.161,209.757 63.088,210.587 C62.076,211.421 60.885,211.661 59.579,211.365 C59.405,212.847 58.453,213.741 57.501,214.637 C56.901,215.169 56.368,215.77 55.768,216.36 C54.521,217.61 53.097,217.968 51.488,217.373 C49.879,216.778 49.048,215.525 48.984,213.741 C48.984,213.687 48.984,213.624 48.927,213.504 C47.794,213.56 46.788,213.15 45.947,212.371 C45.123,211.603 44.761,210.587 44.761,209.4 C43.635,209.337 42.619,209.043 41.787,208.205 C40.952,207.434 40.661,206.429 40.597,205.295 C40.423,205.295 40.242,205.231 40.057,205.231 C37.799,204.928 36.427,203.329 36.491,201.069 C36.491,200.83 36.366,200.532 36.189,200.412 C33.813,198.209 32.029,195.654 31.251,192.494 C30.125,187.912 30.658,183.625 33.695,179.939 C38.686,173.805 47.974,173.395 53.863,178.868 C54.044,178.924 54.102,178.986 54.166,179.051 Z M55.53,206.957 C55.654,206.957 55.711,207.014 55.768,207.014 C57.082,207.078 58.091,207.615 58.865,208.567 C59.104,208.862 59.405,209.099 59.753,209.281 C60.649,209.814 61.781,209.462 62.314,208.567 C62.79,207.729 62.676,206.84 61.838,206.008 C59.168,203.328 56.542,200.706 53.863,198.034 C53.754,197.906 53.572,197.732 53.451,197.615 C53.097,197.192 53.149,196.663 53.515,196.303 C53.863,195.948 54.403,195.892 54.815,196.244 C54.996,196.367 55.117,196.541 55.234,196.662 C57.912,199.34 60.591,202.019 63.265,204.689 C63.808,205.229 64.398,205.531 65.173,205.347 C65.951,205.166 66.427,204.689 66.601,203.921 C66.839,203.15 66.537,202.55 66.008,202.019 C63.209,199.276 60.473,196.481 57.675,193.745 C57.199,193.27 57.139,192.673 57.558,192.255 C57.977,191.835 58.563,191.899 59.039,192.383 C60.648,193.984 62.257,195.529 63.866,197.138 C65.056,198.325 66.243,199.514 67.433,200.705 C68.449,201.657 69.873,201.478 70.53,200.352 C71.006,199.578 70.833,198.683 70.111,197.905 C66.299,193.919 62.438,190.057 58.563,186.183 C58.509,186.125 58.389,186.009 58.215,185.889 C58.09,186.009 58.034,186.125 57.913,186.246 C56.482,187.675 55.118,189.106 53.625,190.47 C50.592,193.27 45.945,192.792 43.331,189.518 C46.421,186.485 49.519,183.387 52.62,180.35 C47.619,175.291 38.749,176.013 34.763,181.838 C32.266,185.468 32.202,189.401 33.694,193.387 C34.461,195.473 35.776,197.254 37.498,198.747 C38.511,197.73 39.526,196.718 40.532,195.709 C41.608,194.632 42.855,194.339 44.283,194.758 C45.707,195.168 46.666,196.129 47.025,197.556 C47.143,197.905 47.143,198.324 47.207,198.683 C48.332,198.683 49.346,199.037 50.116,199.88 C50.954,200.704 51.249,201.716 51.306,202.79 C54.166,202.915 55.594,204.875 55.53,206.957 Z M72.26,197.019 C72.26,197.019 72.317,196.901 72.37,196.901 C72.498,196.72 72.608,196.606 72.736,196.426 C74.455,193.864 75.234,191.07 74.757,187.976 C74.16,184.163 72.259,181.19 68.804,179.4 C64.399,177.078 58.388,177.856 54.577,181.365 C51.725,183.989 49.107,186.785 46.31,189.52 L46.31,189.641 C48.094,190.949 50.772,190.646 52.491,188.984 C54.1,187.439 55.653,185.838 57.262,184.227 C58.09,183.389 58.509,183.389 59.34,184.227 C61.305,186.185 63.325,188.213 65.294,190.17 C67.561,192.384 69.873,194.696 72.26,197.019 Z M47.26,200.648 C47.025,200.769 46.603,200.829 46.311,201.068 C45.179,202.077 44.106,203.151 43.094,204.28 C42.437,205.055 42.561,206.126 43.332,206.84 C44.046,207.555 45.18,207.555 45.894,206.904 C46.906,205.952 47.921,204.927 48.871,203.923 C49.46,203.328 49.585,202.613 49.222,201.84 C48.87,201.125 48.269,200.77 47.26,200.648 Z M53.69,206.84 C53.626,206.84 53.573,206.777 53.573,206.777 C53.573,205.953 53.15,205.349 52.383,205.056 C51.605,204.691 50.891,204.819 50.299,205.413 C49.347,206.301 48.395,207.253 47.499,208.205 C46.668,209.043 46.668,210.176 47.382,210.947 C48.214,211.778 49.347,211.778 50.181,210.947 C51.129,210.051 52.017,209.163 52.912,208.205 C53.206,207.792 53.387,207.253 53.69,206.84 Z M50.83,213.624 C50.954,214.456 51.43,215.17 52.144,215.472 C52.911,215.771 53.625,215.646 54.229,215.053 C55.177,214.101 56.186,213.15 57.138,212.134 C57.912,211.365 57.851,210.233 57.138,209.519 C56.367,208.742 55.234,208.681 54.466,209.461 C53.45,210.413 52.491,211.365 51.543,212.371 C51.25,212.735 51.068,213.214 50.83,213.624 Z M38.447,201.242 C38.574,202.141 38.987,202.733 39.701,203.088 C40.475,203.448 41.189,203.328 41.786,202.734 C42.799,201.782 43.751,200.77 44.703,199.818 C45.47,199.04 45.417,197.907 44.703,197.193 C43.932,196.426 42.799,196.369 42.024,197.139 C41.072,198.087 40.056,199.039 39.161,200.056 C38.814,200.354 38.632,200.829 38.447,201.242 Z" id="Shape" fill="#A9143C" fill-rule="nonzero"></path>
                <g id="Group" transform="translate(96.000000, 173.000000)" fill-rule="nonzero" fill="#A9143C">
                    <path d="M19.654,10.904 C19.288,11.258 19.288,11.799 19.654,12.154 L23.278,15.667 L23.278,15.667 C23.339,15.728 23.459,15.784 23.577,15.842 L23.577,15.842 C23.697,15.902 23.761,15.902 23.878,15.902 L23.878,15.902 L23.878,15.902 L23.878,15.902 C23.996,15.902 24.116,15.902 24.173,15.842 L24.173,15.842 C24.297,15.784 24.354,15.728 24.472,15.667 L24.472,15.667 L28.102,12.154 C28.461,11.799 28.461,11.258 28.102,10.904 C27.747,10.546 27.206,10.546 26.852,10.904 L24.709,12.932 L24.709,0.9 C24.709,0.425 24.297,0.012 23.821,0.012 C23.339,0.012 22.926,0.425 22.926,0.9 L22.926,12.932 L20.787,10.904 C20.55,10.546 20.002,10.546 19.654,10.904 Z" id="Shape"></path>
                    <path d="M14.589,15.185 L11.616,15.246 C11.14,15.246 10.728,15.668 10.728,16.14 C10.728,16.617 11.14,17.03 11.616,17.03 L11.616,17.03 L16.674,16.919 C16.791,16.919 16.855,16.919 16.976,16.856 L16.976,16.856 C17.214,16.738 17.388,16.618 17.448,16.38 L17.448,16.38 C17.512,16.263 17.512,16.205 17.512,16.081 L17.625,11.022 C17.625,10.547 17.273,10.134 16.73,10.134 C16.254,10.134 15.842,10.484 15.842,11.022 L15.778,13.996 L8.169,6.388 C7.803,6.021 7.27,6.021 6.915,6.388 C6.56,6.736 6.56,7.276 6.915,7.631 L14.589,15.185 Z" id="Shape"></path>
                    <path d="M11.317,26.264 C10.965,26.611 10.965,27.152 11.317,27.507 C11.499,27.688 11.736,27.745 11.918,27.745 C12.156,27.745 12.394,27.627 12.568,27.45 L16.081,23.812 L16.081,23.812 C16.142,23.758 16.198,23.637 16.255,23.52 L16.255,23.52 C16.315,23.4 16.315,23.34 16.315,23.226 L16.315,23.226 L16.315,23.226 C16.315,23.101 16.315,22.988 16.255,22.924 L16.255,22.924 C16.198,22.806 16.141,22.749 16.081,22.625 L16.081,22.625 L12.568,18.994 C12.212,18.637 11.68,18.637 11.317,18.994 C10.965,19.35 10.965,19.889 11.317,20.244 L13.345,22.388 L1.385,22.388 C0.909,22.388 0.49,22.806 0.49,23.282 C0.49,23.759 0.909,24.178 1.385,24.178 L13.399,24.178 L11.317,26.264 Z" id="Shape"></path>
                    <path d="M15.722,35.539 C15.722,36.021 16.141,36.433 16.618,36.433 L16.618,36.433 C17.094,36.433 17.513,36.022 17.513,35.539 L17.389,30.488 C17.389,30.362 17.389,30.305 17.332,30.183 L17.332,30.183 C17.215,29.947 17.094,29.773 16.856,29.708 L16.856,29.708 C16.732,29.646 16.675,29.646 16.554,29.646 L11.499,29.535 C11.023,29.535 10.603,29.887 10.603,30.423 C10.603,30.898 10.966,31.311 11.499,31.311 L14.479,31.375 L6.853,38.99 C6.498,39.356 6.498,39.885 6.853,40.244 C7.038,40.417 7.272,40.481 7.51,40.481 C7.748,40.481 7.986,40.417 8.171,40.244 L15.666,32.571 L15.722,35.539 Z" id="Shape"></path>
                    <path d="M27.984,35.783 C28.339,35.425 28.339,34.888 27.984,34.528 L24.354,31.019 L24.354,31.019 C24.297,30.961 24.173,30.898 24.06,30.838 L24.06,30.838 C23.935,30.78 23.878,30.78 23.761,30.78 C23.641,30.78 23.516,30.78 23.459,30.838 L23.459,30.838 C23.338,30.898 23.278,30.961 23.165,31.019 L23.165,31.019 L19.527,34.528 C19.178,34.888 19.178,35.424 19.527,35.783 C19.708,35.957 19.946,36.082 20.184,36.082 C20.422,36.082 20.603,36.021 20.788,35.843 L22.927,33.816 L22.927,45.776 C22.927,46.252 23.339,46.671 23.822,46.671 C24.298,46.671 24.71,46.252 24.71,45.776 L24.71,33.763 L26.853,35.784 C27.089,36.139 27.625,36.139 27.984,35.783 Z" id="Shape"></path>
                    <path d="M33.04,31.496 L36.019,31.439 C36.495,31.439 36.907,31.019 36.907,30.543 C36.907,30.066 36.495,29.647 36.019,29.647 L30.958,29.773 C30.844,29.773 30.78,29.773 30.663,29.829 L30.663,29.829 C30.425,29.947 30.244,30.067 30.187,30.306 L30.187,30.306 C30.123,30.424 30.123,30.489 30.123,30.6 L30.006,35.663 C30.006,36.14 30.361,36.558 30.901,36.558 L30.901,36.558 C31.377,36.558 31.796,36.14 31.796,35.663 L31.853,32.684 L39.469,40.311 C39.643,40.484 39.881,40.547 40.119,40.547 C40.364,40.547 40.602,40.484 40.776,40.311 C41.142,39.945 41.142,39.415 40.776,39.057 L33.04,31.496 Z" id="Shape"></path>
                    <path d="M46.253,22.568 L34.229,22.568 L36.257,20.425 C36.609,20.063 36.609,19.531 36.257,19.175 C35.895,18.821 35.362,18.821 35.007,19.175 L31.494,22.806 L31.494,22.806 C31.434,22.864 31.377,22.988 31.32,23.101 L31.32,23.101 C31.256,23.226 31.256,23.282 31.256,23.4 L31.256,23.4 L31.256,23.4 C31.256,23.52 31.256,23.637 31.32,23.702 L31.32,23.702 C31.377,23.812 31.434,23.877 31.494,23.997 L31.494,23.997 L35.007,27.627 C35.181,27.802 35.419,27.925 35.657,27.925 C35.895,27.925 36.076,27.866 36.257,27.688 C36.609,27.326 36.609,26.793 36.257,26.438 L34.229,24.289 L46.189,24.289 C46.665,24.289 47.085,23.878 47.085,23.401 C47.084,22.925 46.729,22.568 46.253,22.568 Z" id="Shape"></path>
                    <path d="M31.906,11.142 C31.906,10.666 31.494,10.247 31.018,10.247 C30.546,10.247 30.122,10.666 30.122,11.142 L30.243,16.204 C30.243,16.318 30.243,16.379 30.307,16.5 L30.307,16.5 C30.424,16.736 30.545,16.918 30.779,16.977 L30.779,16.977 C30.9,17.03 30.957,17.03 31.081,17.03 L36.132,17.157 L36.132,17.157 C36.608,17.157 37.028,16.737 37.028,16.262 C37.028,15.785 36.669,15.366 36.132,15.366 L33.158,15.309 L40.775,7.686 C41.141,7.333 41.141,6.797 40.775,6.44 C40.42,6.084 39.88,6.084 39.532,6.44 L31.969,14.12 L31.906,11.142 Z" id="Shape"></path>
                    <path d="M34.943,7.629 C32.62,5.963 30.062,4.888 27.27,4.41 L26.968,6.2 C29.472,6.677 31.853,7.629 33.938,9.117 L34.943,7.629 Z" id="Shape"></path>
                    <path d="M20.898,6.146 L20.603,4.356 C17.808,4.829 15.19,5.909 12.87,7.511 L13.875,9 C15.96,7.512 18.341,6.56 20.898,6.146 Z" id="Shape"></path>
                    <path d="M26.968,40.546 L27.27,42.33 C30.062,41.847 32.62,40.72 34.943,39.111 L33.938,37.682 C31.796,39.111 29.473,40.069 26.968,40.546 Z" id="Shape"></path>
                    <path d="M12.87,39.176 C15.19,40.781 17.808,41.847 20.603,42.33 L20.898,40.546 C18.341,40.123 16.017,39.176 13.875,37.683 L12.87,39.176 Z" id="Shape"></path>
                    <path d="M9.531,33.396 C8.042,31.257 7.037,28.935 6.614,26.373 L4.83,26.675 C5.306,29.472 6.433,32.088 8.041,34.413 L9.531,33.396 Z" id="Shape"></path>
                    <path d="M9.531,13.28 L8.042,12.274 C6.376,14.594 5.307,17.212 4.831,20.007 L6.615,20.303 C7.09,17.741 8.042,15.365 9.531,13.28 Z" id="Shape"></path>
                    <path d="M38.161,33.339 L39.642,34.349 C41.251,32.025 42.327,29.472 42.803,26.675 L41.013,26.373 C40.602,28.877 39.643,31.2 38.161,33.339 Z" id="Shape"></path>
                    <path d="M38.161,13.344 C39.642,15.421 40.602,17.806 41.014,20.304 L42.804,20.008 C42.328,17.213 41.252,14.651 39.643,12.328 L38.161,13.344 Z" id="Shape"></path>
                    <path d="M23.821,19.771 C25.789,19.771 27.387,21.365 27.387,23.341 C27.387,25.312 25.789,26.914 23.821,26.914 C21.85,26.914 20.241,25.311 20.241,23.341 C20.241,21.364 21.85,19.771 23.821,19.771 Z" id="Shape"></path>
                </g>
                <g id="Group" transform="translate(229.000000, 174.000000)" fill-rule="nonzero" fill="#A9143C">
                    <path d="M44.853,21.704 C45.566,20.642 45.391,19.09 44.44,18.256 L43.188,17.122 C42.237,16.291 41.581,14.507 41.707,13.253 L41.881,11.591 C42.054,10.338 41.167,9.029 39.914,8.736 L38.308,8.317 C37.062,8.024 35.691,6.764 35.215,5.574 L34.62,4.037 C34.144,2.844 32.774,2.129 31.522,2.428 L29.913,2.844 C28.668,3.142 26.885,2.723 25.926,1.827 L24.682,0.701 C23.731,-0.131 22.122,-0.131 21.17,0.701 L19.917,1.827 C18.968,2.665 17.128,3.141 15.932,2.844 L14.331,2.428 C13.07,2.129 11.706,2.844 11.23,4.037 L10.637,5.574 C10.16,6.764 8.789,8.024 7.544,8.317 L5.754,8.736 C4.509,9.03 3.615,10.339 3.795,11.591 L3.971,13.253 C4.145,14.507 3.431,16.291 2.482,17.122 L1.236,18.256 C0.284,19.09 0.103,20.698 0.815,21.704 L1.767,23.074 C2.481,24.151 2.718,25.991 2.243,27.181 L1.648,28.727 C1.172,29.915 1.767,31.413 2.9,32.001 L4.382,32.775 C5.515,33.369 6.584,34.923 6.703,36.168 L6.941,37.895 C7.124,39.149 8.256,40.209 9.557,40.209 L11.228,40.209 C12.538,40.209 14.145,41.105 14.916,42.121 L15.866,43.485 C16.58,44.561 18.132,44.916 19.265,44.324 L20.748,43.546 C21.881,42.951 23.727,42.951 24.916,43.546 L26.399,44.324 C27.532,44.916 29.085,44.561 29.798,43.485 L30.748,42.121 C31.462,41.047 33.126,40.209 34.442,40.209 L36.106,40.209 C37.413,40.209 38.541,39.148 38.721,37.895 L38.903,36.225 C39.08,34.978 40.093,33.426 41.227,32.839 L42.709,32.061 C43.842,31.468 44.373,29.975 43.96,28.791 L43.366,27.244 C42.89,26.055 43.128,24.207 43.842,23.132 L44.853,21.704 Z M22.835,40.21 C13.014,40.21 4.984,32.183 4.984,22.361 C4.984,12.543 13.013,4.511 22.835,4.511 C32.655,4.511 40.689,12.542 40.689,22.361 C40.689,32.183 32.655,40.21 22.835,40.21 Z" id="Shape"></path>
                    <path d="M33.313,19.444 L22.122,30.637 C21.702,31.05 21.114,31.287 20.513,31.287 C19.917,31.287 19.38,31.05 18.904,30.637 L12.302,23.912 C11.407,23.017 11.407,21.645 12.302,20.751 C13.198,19.855 14.568,19.855 15.456,20.751 L20.577,25.874 L30.151,16.29 C31.047,15.394 32.418,15.394 33.313,16.29 C34.207,17.186 34.207,18.613 33.313,19.444 Z" id="Shape"></path>
                </g>
                <g id="Group" transform="translate(170.000000, 177.000000)" fill-rule="nonzero" fill="#A9143C">
                    <path d="M29.372,15.767 C27.764,12.62 25.092,10.059 21.756,8.635 C20.446,8.03 19.021,7.674 17.594,7.501 L17.594,5.771 L18.72,5.771 C19.432,5.771 20.027,5.178 20.027,4.464 L20.027,3.749 C20.027,2.023 18.656,0.653 16.935,0.653 L14.669,0.653 C12.95,0.653 11.578,2.023 11.578,3.749 L11.578,4.464 C11.578,5.178 12.171,5.771 12.886,5.771 L13.957,5.771 L13.957,7.501 C13.069,7.61 12.236,7.792 11.395,8.029 L11.395,8.029 C10.81,8.215 10.207,8.453 9.612,8.69 C5.981,10.295 3.365,12.97 1.758,16.604 C1.099,18.089 0.687,19.578 0.568,21.123 C0.513,21.72 0.806,22.493 1.401,22.789 C1.877,23.027 2.415,22.971 2.765,22.853 C2.946,22.789 3.065,22.733 3.184,22.679 C3.722,22.312 3.898,21.599 3.96,21.244 C4.555,16.603 7.828,12.732 12.347,11.36 C13.068,11.124 13.845,11.009 14.614,10.948 C17.768,10.646 20.867,11.606 23.301,13.627 C25.741,15.708 27.232,18.565 27.526,21.782 C27.945,26.9 24.853,31.96 20.153,33.686 C19.853,33.795 19.496,33.923 19.194,33.98 C15.62,35.049 12.172,34.51 8.962,32.372 C8.36,31.96 7.829,31.538 7.297,31.002 L9.255,30.412 C9.55,30.287 9.731,30.05 9.731,29.7 C9.731,29.399 9.55,29.097 9.255,28.985 L2.654,26.062 C2.416,25.948 2.114,25.948 1.878,26.006 C1.338,26.187 1.045,26.662 1.1,27.195 L1.814,34.398 C1.814,34.637 1.94,34.811 2.178,34.927 C2.471,35.113 2.892,35.113 3.185,34.811 L4.499,32.97 C5.688,34.27 6.934,35.293 8.36,36.007 C12.291,38.082 16.159,38.566 19.97,37.432 C21.28,37.013 22.644,36.419 23.903,35.642 C27.176,33.621 29.554,30.466 30.561,26.836 C31.512,23.155 31.1,19.223 29.372,15.767 Z" id="Shape"></path>
                    <path d="M24.253,17.852 C24.141,17.794 24.014,17.731 23.903,17.794 L23.72,17.852 C23.539,17.909 23.363,17.968 23.246,18.033 C21.579,18.63 19.734,19.342 17.83,20.054 C17.293,19.643 16.642,19.341 15.859,19.341 C14.138,19.341 12.767,20.704 12.767,22.441 C12.767,24.16 14.139,25.532 15.859,25.532 C17.594,25.532 18.957,24.16 18.957,22.441 L18.957,22.313 C20.392,21.309 21.818,20.293 23.483,19.102 C23.72,18.928 23.903,18.747 24.078,18.629 C24.142,18.566 24.254,18.453 24.378,18.392 C24.435,18.329 24.49,18.207 24.49,18.147 C24.377,17.968 24.377,17.908 24.253,17.852 Z" id="Shape"></path>
                </g>
            </g>
            <g id="149148" transform="translate(275.000000, 177.000000)" fill-rule="nonzero" fill="#000000">
                <g id="Capa_1">
                    <g id="Group">
                        <path d="M10,0 C4.48615385,0 0,4.48576923 0,10 C0,15.5142308 4.48615385,20 10,20 C15.5138462,20 20,15.5142308 20,10 C20,4.48576923 15.5138462,0 10,0 Z M10,19.2307692 C4.91038462,19.2307692 0.769230769,15.0896154 0.769230769,10 C0.769230769,4.91038462 4.91038462,0.769230769 10,0.769230769 C15.0896154,0.769230769 19.2307692,4.91038462 19.2307692,10 C19.2307692,15.0896154 15.0896154,19.2307692 10,19.2307692 Z" id="Shape"></path>
                        <path d="M14.7123077,5.89846154 L8.80115385,12.5484615 L5.24,9.69961538 C5.07461538,9.56692308 4.83192308,9.59423077 4.69961538,9.75961538 C4.56692308,9.92576923 4.59384615,10.1676923 4.75961538,10.3003846 L8.60576923,13.3773077 C8.67653846,13.4338462 8.76153846,13.4615385 8.84615385,13.4615385 C8.95230769,13.4615385 9.05807692,13.4176923 9.13384615,13.3323077 L15.2876923,6.40923077 C15.4288462,6.25076923 15.4146154,6.00730769 15.2557692,5.86653846 C15.0965385,5.725 14.8538462,5.73923077 14.7123077,5.89846154 Z" id="Shape"></path>
                    </g>
                </g>
            </g>
            <g id="149148" transform="translate(257.000000, 176.000000)" fill-rule="nonzero" fill="#000000">
                <g id="Capa_1">
                    <g id="Group">
                        <path d="M11.7698462,4.71876923 L7.04092308,10.0387692 L4.192,7.75969231 C4.05969231,7.65353846 3.86553846,7.67538462 3.75969231,7.80769231 C3.65353846,7.94061538 3.67507692,8.13415385 3.80769231,8.24030769 L6.88461538,10.7018462 C6.94123077,10.7470769 7.00923077,10.7692308 7.07692308,10.7692308 C7.16184615,10.7692308 7.24646154,10.7341538 7.30707692,10.6658462 L12.2301538,5.12738462 C12.3430769,5.00061538 12.3316923,4.80584615 12.2046154,4.69323077 C12.0772308,4.58 11.8830769,4.59138462 11.7698462,4.71876923 Z" id="Shape"></path>
                    </g>
                </g>
            </g>
            <g id="149148" transform="translate(257.000000, 192.000000)" fill-rule="nonzero" fill="#000000">
                <path d="M10.838,11.07 C10.7510667,11.07 10.6646667,11.0396 10.5777333,10.9532 L4.9084,5.40013333 C4.76386667,5.2556 4.76386667,5.05293333 4.9084,4.9084 C5.05293333,4.76386667 5.28493333,4.76386667 5.40013333,4.9084 L11.0694667,10.4614667 C11.2145333,10.606 11.2145333,10.8081333 11.0694667,10.9532 C11.0113333,11.0412 10.9244,11.07 10.838,11.07 Z" id="Shape"></path>
                <path d="M5.16813333,11.07 C5.08173333,11.07 4.9948,11.0396 4.9084,10.9532 C4.76386667,10.8086667 4.76386667,10.6065333 4.9084,10.4614667 L10.5772,4.9084 C10.7217333,4.76386667 10.9537333,4.76386667 11.0689333,4.9084 C11.2134667,5.05293333 11.2134667,5.254 11.0689333,5.40013333 L5.39906667,10.9532 C5.342,11.0412 5.2556,11.07 5.16813333,11.07 Z" id="Shape"></path>
            </g>
        </g>
    </g>
</svg>