<?xml version="1.0" encoding="utf-8"?>
<!-- Generator: Adobe Illustrator 15.1.0, SVG Export Plug-In . SVG Version: 6.00 Build 0)  -->
<!DOCTYPE svg PUBLIC "-//W3C//DTD SVG 1.1//EN" "http://www.w3.org/Graphics/SVG/1.1/DTD/svg11.dtd">
<svg version="1.1" id="Layer_1" xmlns="http://www.w3.org/2000/svg" xmlns:xlink="http://www.w3.org/1999/xlink" x="0px" y="0px"
	 width="308.961px" height="340px" viewBox="0 0 308.961 340" enable-background="new 0 0 308.961 340" xml:space="preserve">
<g id="bg" display="none">
	<rect x="-2" y="-0.042" display="inline" fill="#B2B2B2" width="313" height="340"/>
</g>
<g id="Sprite_image" display="none">
</g>
<g>
	<path d="M24.595,1.581c-0.129-0.323-0.396-0.516-0.783-0.516h-21.7c-0.323,0-0.654,0.193-0.783,0.516
		C1.2,1.913,1.265,2.235,1.522,2.492l7.673,7.663v13.65c0,0.323,0.193,0.646,0.515,0.783c0.129,0.064,0.194,0.064,0.323,0.064
		c0.203,0,0.46-0.064,0.589-0.267l5.979-5.978c0.128-0.128,0.257-0.386,0.257-0.58v-7.802l7.608-7.535
		C24.659,2.235,24.723,1.913,24.595,1.581z M15.172,9.705v7.802l-4.356,4.347V9.833c0-0.193-0.064-0.451-0.258-0.58L4.064,2.686
		H21.86l-6.43,6.439C15.302,9.317,15.172,9.511,15.172,9.705z"/>
</g>
<g>
	<g>
		<path d="M51.618,23.676c-0.58,0-1.105-0.525-1.105-1.105V2.621c0-0.579,0.526-1.105,1.105-1.105c0.59,0,1.105,0.526,1.105,1.105
			v20.015C52.723,23.216,52.273,23.676,51.618,23.676z"/>
	</g>
	<g>
		<path d="M51.618,24.653l-6.171-6.181c-0.451-0.45-0.451-1.096,0-1.556c0.461-0.452,1.105-0.452,1.557,0l4.614,4.614l4.616-4.614
			c0.46-0.452,1.105-0.452,1.565,0c0.451,0.46,0.451,1.105,0,1.556L51.618,24.653z"/>
	</g>
	<g>
		<path d="M63.574,23.676c-0.581,0-1.096-0.525-1.096-1.105V2.621c0-0.579,0.516-1.105,1.096-1.105c0.589,0,1.104,0.526,1.104,1.105
			v20.015C64.678,23.216,64.163,23.676,63.574,23.676z"/>
	</g>
	<g>
		<path d="M68.972,9.06c-0.259,0-0.59-0.138-0.784-0.332l-4.614-4.614l-4.604,4.614c-0.462,0.462-1.105,0.462-1.567,0
			c-0.451-0.451-0.451-1.105,0-1.556L63.574,1l6.18,6.171c0.451,0.451,0.451,1.105,0,1.556C69.487,8.995,69.229,9.06,68.972,9.06z"
			/>
	</g>
</g>
<g>
	<g>
		<path fill="#A7183E" d="M108.475,24.523H95.939c-1.63,0-2.993-1.372-2.993-2.993V6.001h18.522V21.53
			C111.468,23.151,110.17,24.523,108.475,24.523z M94.706,7.752V21.53c0,0.72,0.581,1.235,1.233,1.235h12.536
			c0.718,0,1.233-0.581,1.233-1.235V7.752H94.706z"/>
	</g>
	<g>
		<path fill="#A7183E" d="M107.176,10.027h-1.75V6.389c0-1.815-1.502-3.445-3.251-3.445c-1.695,0-3.253,1.63-3.253,3.445v3.638
			h-1.685V6.389c0-2.855,2.275-5.194,5.001-5.194c2.728,0,5.001,2.403,5.001,5.194v3.638H107.176z"/>
	</g>
</g>
<g>
	<g>
		<path fill="#A7183E" d="M142.813,20.333c-1.634,0-3.205-0.539-4.516-1.517c-1.625-1.202-2.665-2.936-2.934-4.946
			c-0.271-2.01,0.216-3.967,1.418-5.546c1.409-1.903,3.635-2.989,6.032-2.989c1.625,0,3.204,0.547,4.505,1.525
			c3.32,2.497,3.968,7.226,1.526,10.539C147.373,19.192,145.199,20.333,142.813,20.333z M142.813,6.968
			c-1.849,0-3.537,0.87-4.676,2.334c-0.925,1.249-1.302,2.774-1.086,4.352c0.215,1.518,1.031,2.874,2.28,3.852
			c1.031,0.762,2.226,1.147,3.482,1.147c1.849,0,3.528-0.87,4.667-2.341c1.902-2.55,1.417-6.247-1.14-8.15
			C145.308,7.345,144.113,6.968,142.813,6.968z"/>
	</g>
	<g>
		
			<rect x="147.635" y="17.454" transform="matrix(-0.7997 -0.6004 0.6004 -0.7997 259.163 123.0599)" fill="#A7183E" width="4.951" height="1.684"/>
	</g>
</g>
<g>
	<path fill="#8A8A8A" d="M9.388,47.193H3.991c-1.105,0-1.943-0.848-1.943-1.953v-5.452c0-1.105,0.838-1.953,1.943-1.953h5.397
		c1.105,0,1.952,0.848,1.952,1.953v5.388C11.406,46.281,10.493,47.193,9.388,47.193z M3.991,39.198c-0.322,0-0.581,0.258-0.581,0.59
		v5.388c0,0.322,0.259,0.59,0.581,0.59h5.397c0.322,0,0.58-0.268,0.58-0.59v-5.388c0-0.332-0.258-0.59-0.58-0.59H3.991z
		 M21.933,47.193h-5.461c-1.105,0-1.953-0.848-1.953-1.953v-5.452c0-1.105,0.848-1.953,1.953-1.953h5.461
		c1.096,0,1.943,0.848,1.943,1.953v5.388C23.875,46.281,23.028,47.193,21.933,47.193z M16.472,39.198c-0.323,0-0.59,0.258-0.59,0.59
		v5.388c0,0.322,0.267,0.59,0.59,0.59h5.461c0.322,0,0.58-0.268,0.58-0.59v-5.388c0-0.332-0.258-0.59-0.58-0.59H16.472z
		 M9.453,59.342H4.064c-1.104,0-1.952-0.848-1.952-1.944v-5.397c0-1.104,0.848-1.952,1.952-1.952h5.389
		c1.105,0,1.953,0.848,1.953,1.952v5.397C11.406,58.43,10.558,59.342,9.453,59.342z M4.064,51.412c-0.332,0-0.589,0.267-0.589,0.589
		v5.397c0,0.323,0.258,0.581,0.589,0.581h5.389c0.322,0,0.58-0.257,0.58-0.581v-5.397c0-0.322-0.258-0.589-0.58-0.589H4.064z
		 M21.933,59.342h-5.396c-1.105,0-1.953-0.848-1.953-1.944v-5.397c0-1.104,0.848-1.952,1.953-1.952h5.396
		c1.096,0,1.943,0.848,1.943,1.952v5.397C23.941,58.43,23.028,59.342,21.933,59.342z M16.536,51.412c-0.322,0-0.59,0.267-0.59,0.589
		v5.397c0,0.323,0.268,0.581,0.59,0.581h5.396c0.322,0,0.58-0.257,0.58-0.581v-5.397c0-0.322-0.258-0.589-0.58-0.589H16.536z"/>
</g>
<g>
	<path fill="#8A8A8A" d="M64.486,60.06c-0.129,0-0.258,0-0.387-0.128l-6.502-3.446l-6.494,3.446
		c-0.258,0.128-0.655,0.128-0.912-0.065c-0.258-0.202-0.386-0.524-0.322-0.848l1.234-7.276l-5.259-5.139
		c-0.267-0.193-0.332-0.58-0.202-0.838c0.128-0.332,0.396-0.525,0.718-0.59l7.277-1.041l3.25-6.622
		c0.13-0.258,0.452-0.46,0.773-0.46c0.333,0,0.654,0.203,0.784,0.46l3.25,6.622l7.277,1.041c0.321,0.064,0.579,0.258,0.718,0.59
		c0.128,0.322,0,0.645-0.202,0.838l-5.259,5.139l1.233,7.276c0.064,0.323-0.064,0.646-0.322,0.848
		C64.872,59.996,64.678,60.06,64.486,60.06z M47.852,46.539l4.549,4.42c0.194,0.195,0.322,0.525,0.258,0.783l-1.041,6.236
		l5.591-2.92c0.257-0.138,0.59-0.138,0.848,0l5.582,2.92l-1.033-6.236c-0.063-0.257,0.065-0.588,0.26-0.783l4.549-4.42l-6.245-0.903
		c-0.258-0.063-0.515-0.202-0.645-0.46l-2.801-5.646l-2.791,5.646c-0.128,0.258-0.386,0.46-0.645,0.46L47.852,46.539z"/>
</g>
<g>
	<path fill="#8A8A8A" d="M102.239,59.472c-1.693,0-2.726-1.105-2.726-2.986c0-0.718,0.065-1.363,0.194-2.081l0,0
		c0.129-0.977,0.258-2.017,0.258-3.445c0-0.708-0.387-1.04-1.427-1.556c-1.105-0.59-2.598-1.363-2.598-3.704
		c0-0.202,0.129-0.46,0.323-0.524l0.064-0.065v-0.128c0.065-3.38,0.451-6.559,0.451-6.696c0.064-0.322,0.332-0.516,0.59-0.516h9.615
		c0.323,0,0.581,0.258,0.581,0.516c0,0.065,0.396,3.574,0.46,6.696v0.128l0.064,0.065c0.194,0.13,0.323,0.322,0.323,0.524
		c0,2.341-1.492,3.114-2.598,3.704c-0.976,0.516-1.427,0.848-1.427,1.556c0,1.428,0.128,2.534,0.258,3.445
		c0.065,0.783,0.193,1.428,0.193,2.081C104.901,58.301,103.861,59.472,102.239,59.472z M97.237,46.41
		c0.26,0.977,0.978,1.363,1.815,1.824c0.912,0.516,2.018,1.104,2.018,2.663c0,1.491-0.129,2.597-0.258,3.637
		c-0.064,0.719-0.203,1.365-0.203,1.953c0,1.428,0.848,1.75,1.502,1.75c0.708,0,1.491-0.323,1.491-1.75
		c0-0.588-0.063-1.233-0.193-1.953c-0.128-0.976-0.258-2.146-0.258-3.637c0-1.558,1.105-2.147,2.008-2.663
		c0.848-0.461,1.565-0.847,1.823-1.824l0.065-0.194h-9.81V46.41z M106.854,44.982v-0.193c-0.064-2.146-0.258-4.55-0.396-5.785
		v-0.128h-1.096v1.888c0,0.323-0.267,0.581-0.59,0.581c-0.322,0-0.589-0.258-0.589-0.581v-1.888h-1.097v2.598
		c0,0.321-0.267,0.588-0.588,0.588c-0.323,0-0.581-0.267-0.581-0.588v-2.598H98.14v0.128c-0.128,1.171-0.323,3.446-0.385,5.785
		v0.193H106.854z"/>
	<path fill="#8A8A8A" d="M102.239,59.276c-1.556,0-2.532-1.04-2.532-2.791c0-0.653,0.063-1.298,0.193-2.081l0,0
		c0.128-0.977,0.258-2.083,0.258-3.508c0-0.848-0.516-1.17-1.493-1.686c-1.105-0.59-2.469-1.372-2.469-3.575
		c0-0.202,0.065-0.33,0.259-0.396l0.194-0.064v-0.193c0.063-3.38,0.46-6.559,0.46-6.696c0-0.192,0.192-0.388,0.45-0.388h9.422
		c0.194,0,0.388,0.195,0.452,0.388c0,0.065,0.396,3.574,0.461,6.696v0.193l0.192,0.064c0.13,0.065,0.258,0.193,0.258,0.396
		c0,2.275-1.363,2.985-2.468,3.575c-0.976,0.516-1.491,0.838-1.491,1.686c0,1.426,0.128,2.531,0.258,3.508
		c0.065,0.783,0.193,1.428,0.193,2.081C104.771,58.236,103.796,59.276,102.239,59.276z M97.109,46.476
		c0.258,1.04,1.105,1.501,1.943,1.951c0.912,0.518,1.953,1.042,1.953,2.47c0,1.491-0.13,2.597-0.258,3.573
		c-0.064,0.719-0.202,1.363-0.202,2.017c0,1.685,1.04,1.88,1.693,1.88c0.645,0,1.686-0.258,1.686-1.88
		c0-0.653-0.063-1.233-0.193-2.017c-0.13-0.976-0.258-2.082-0.258-3.573c0-1.428,1.04-2.018,1.953-2.47
		c0.837-0.45,1.621-0.911,1.943-1.951l0.128-0.388H97.035L97.109,46.476z M97.817,39.069c-0.128,1.17-0.32,3.445-0.386,5.783v0.323
		h9.616v-0.323c-0.065-2.145-0.258-4.549-0.388-5.783v-0.323h-1.436v2.083c0,0.257-0.195,0.451-0.453,0.451s-0.45-0.193-0.45-0.451
		v-2.083h-1.438v2.792c0,0.258-0.193,0.461-0.451,0.461c-0.257,0-0.452-0.203-0.452-0.461v-2.792h-4.098L97.817,39.069z"/>
	<path fill="#8A8A8A" d="M102.239,55.768c0.36,0,0.645,0.294,0.645,0.654c0,0.359-0.285,0.645-0.645,0.645
		c-0.359,0-0.654-0.285-0.654-0.645C101.585,56.062,101.88,55.768,102.239,55.768z"/>
	<path fill="#8A8A8A" d="M102.239,55.961c0.25,0,0.452,0.202,0.452,0.461c0,0.249-0.202,0.451-0.452,0.451
		c-0.248,0-0.451-0.203-0.451-0.451C101.788,56.164,101.991,55.961,102.239,55.961z"/>
</g>
<g>
	<path fill="#8A8A8A" d="M145.704,39.917l-5.646,0.709c-0.719,0.063-1.373,0.718-1.502,1.5l-0.708,5.646
		c-0.065,0.653,0.192,1.438,0.645,1.889l9.68,9.68c0.268,0.258,0.653,0.45,1.041,0.45c0.396,0,0.782-0.128,1.04-0.45l7.02-7.02
		c0.258-0.258,0.45-0.644,0.45-1.04c0-0.386-0.128-0.773-0.45-1.031l-9.68-9.69C147.141,40.109,146.357,39.788,145.704,39.917z
		 M146.68,41.474l9.679,9.68c0.065,0.063,0.065,0.128,0,0.192l-7.019,7.02l-0.063,0.063c0,0-0.064,0-0.064-0.063l-9.745-9.68
		c-0.129-0.13-0.257-0.517-0.257-0.709v-0.065l0.708-5.655c0-0.13,0.204-0.332,0.332-0.332l5.656-0.709
		C146.1,41.151,146.487,41.28,146.68,41.474z M141.089,45.7c0,0.71,0.267,1.363,0.782,1.815c0.525,0.526,1.169,0.783,1.825,0.783
		c0.708,0,1.363-0.257,1.813-0.783c0.525-0.515,0.783-1.169,0.783-1.815c0-0.652-0.258-1.363-0.783-1.823
		c-1.04-1.04-2.661-1.04-3.702,0C141.356,44.337,141.089,44.982,141.089,45.7z M144.599,44.789c0.266,0.259,0.396,0.581,0.396,0.911
		c0,0.323-0.13,0.646-0.396,0.903c-0.259,0.268-0.58,0.396-0.902,0.396c-0.332,0-0.655-0.129-0.913-0.396
		c-0.258-0.258-0.387-0.58-0.387-0.903c0-0.33,0.129-0.652,0.387-0.911C143.234,44.337,144.082,44.337,144.599,44.789z"/>
	<g>
		<path fill="#8A8A8A" d="M143.954,45.306c-0.525-1.558-1.17-3.114-2.018-4.542c-0.782-1.233-1.75-2.478-3.176-2.993
			c-0.784-0.322-1.567-0.322-2.34-0.193c-0.333,0.064-0.46,0.451-0.397,0.709c0.064,0.332,0.397,0.46,0.72,0.396
			c0.192,0,0.192-0.064,0.386-0.064c0.13,0,0.322,0,0.452,0c0.072,0,0.072,0,0.138,0c-0.138,0,0,0,0,0c0.064,0,0.13,0,0.194,0.064
			c0.128,0,0.258,0.063,0.386,0.129c0.065,0,0.065,0,0.13,0.064c-0.064-0.064,0,0,0,0c0.064,0,0.128,0.064,0.193,0.064
			c0.139,0.063,0.267,0.129,0.397,0.193c0.258,0.13,0.451,0.322,0.643,0.525c0.978,0.967,1.695,2.201,2.275,3.508
			c0.323,0.775,0.655,1.557,0.913,2.405c0.128,0.258,0.386,0.451,0.718,0.386C143.824,45.895,144.019,45.572,143.954,45.306
			L143.954,45.306z"/>
	</g>
</g>
<g>
	<path fill="#8A8A8A" d="M201.316,48.814c-0.055-0.193-0.055-0.322,0-0.516l0.59-1.888c0.258-0.838-0.074-1.75-0.7-2.275
		l-1.565-1.169c-0.13-0.064-0.276-0.258-0.276-0.386l-0.627-1.89c-0.258-0.838-1.104-1.363-1.952-1.426l-2.026-0.065
		c-0.185,0-0.332-0.064-0.442-0.194l-1.63-1.169c-0.72-0.515-1.695-0.515-2.404,0l-1.631,1.169c-0.129,0.065-0.257,0.194-0.45,0.194
		l-2.018,0.065c-0.839,0-1.687,0.588-1.944,1.426l-0.652,1.89c-0.065,0.192-0.195,0.258-0.258,0.386l-1.622,1.169
		c-0.718,0.525-0.976,1.438-0.718,2.275l0.579,1.888c0.075,0.193,0.075,0.322,0,0.516l-0.579,1.888
		c-0.258,0.848,0.064,1.75,0.718,2.276l1.557,1.17c0.128,0.064,0.258,0.257,0.258,0.386l0.654,1.889
		c0.258,0.838,1.105,1.363,1.944,1.427l2.017,0.064c0.193,0,0.322,0.065,0.451,0.195l1.63,1.168c0.386,0.258,0.773,0.388,1.17,0.388
		c0.387,0,0.839-0.13,1.169-0.388l1.612-1.168c0.147-0.065,0.258-0.195,0.461-0.195l2.008-0.064c0.848,0,1.695-0.588,1.953-1.427
		l0.662-1.889c0.056-0.192,0.186-0.258,0.258-0.386l1.548-1.17c0.719-0.525,0.995-1.428,0.719-2.276L201.316,48.814z M200.212,49.21
		l0.59,1.878c0.072,0.323,0,0.718-0.258,0.912l-1.549,1.169c-0.332,0.258-0.59,0.581-0.736,0.978l-0.626,1.878
		c-0.147,0.332-0.405,0.524-0.793,0.59l-2.008,0.064c-0.405,0-0.847,0.129-1.179,0.387l-1.621,1.169
		c-0.258,0.193-0.645,0.193-0.976,0l-1.621-1.169c-0.322-0.258-0.72-0.387-1.17-0.387l-2.018-0.064c-0.322,0-0.646-0.258-0.773-0.59
		l-0.654-1.878c-0.129-0.397-0.387-0.72-0.709-0.978l-1.565-1.169c-0.259-0.194-0.387-0.589-0.259-0.912l0.59-1.878
		c0.129-0.396,0.129-0.848,0-1.169l-0.59-1.889c-0.063-0.322,0-0.719,0.259-0.912l1.565-1.17c0.322-0.257,0.58-0.581,0.709-0.966
		l0.654-1.889c0.128-0.321,0.388-0.525,0.773-0.588l2.018-0.065c0.386,0,0.848-0.129,1.17-0.386l0,0l1.621-1.171
		c0.128-0.063,0.331-0.192,0.524-0.192s0.322,0.064,0.516,0.192l1.631,1.171c0.331,0.257,0.699,0.386,1.179,0.386l1.989,0.065
		c0.332,0,0.662,0.267,0.792,0.588l0.646,1.889c0.146,0.386,0.404,0.709,0.718,0.966l1.565,1.17c0.258,0.193,0.388,0.59,0.258,0.912
		l-0.59,1.889C200.101,48.363,200.101,48.75,200.212,49.21z"/>
	<path fill="#8A8A8A" d="M187.354,53.825c-0.258-0.268-0.58-0.525-0.838-0.783c-0.268-0.258-0.653-0.258-0.848-0.064
		c-0.193,0.192-0.258,0.645-0.065,0.848c0.26,0.322,0.646,0.644,0.978,0.902c0.128,0.065,0.258,0.129,0.388,0.129
		c0.192,0,0.386-0.063,0.516-0.258C187.75,54.405,187.686,54.018,187.354,53.825z"/>
	<path fill="#8A8A8A" d="M197.43,45.7c0.128,0.194,0.313,0.323,0.516,0.323c0.056,0,0.202,0,0.258-0.065
		c0.276-0.192,0.46-0.524,0.276-0.848c-0.221-0.386-0.406-0.773-0.736-1.168c-0.186-0.258-0.571-0.323-0.848-0.129
		c-0.258,0.192-0.313,0.59-0.11,0.847C197.042,44.982,197.228,45.306,197.43,45.7z"/>
	<path fill="#8A8A8A" d="M190.024,42.062c0.063,0,0.063,0,0.129,0c0.322-0.063,0.646-0.063,0.968-0.138c0.063,0,0.138,0,0.202,0
		c0.322,0,0.644-0.258,0.644-0.645c0-0.386-0.258-0.653-0.644-0.653c-0.064,0-0.139,0-0.202,0c-0.388,0-0.71,0.063-1.097,0.137
		c-0.331,0.065-0.526,0.387-0.526,0.71C189.498,41.86,189.758,42.062,190.024,42.062z"/>
	<path fill="#8A8A8A" d="M184.95,49.662c-0.065-0.323-0.388-0.59-0.711-0.516c-0.33,0.064-0.588,0.386-0.524,0.709
		c0.064,0.461,0.194,0.847,0.322,1.299c0.074,0.258,0.332,0.395,0.59,0.395c0.064,0,0.13,0,0.193-0.064
		c0.322-0.138,0.524-0.46,0.396-0.783C185.078,50.444,184.95,50.049,184.95,49.662z"/>
	<path fill="#8A8A8A" d="M187.878,42.256c-0.192-0.258-0.589-0.396-0.847-0.194c-0.387,0.258-0.719,0.518-1.041,0.839
		c-0.258,0.267-0.258,0.654,0,0.847c0.13,0.129,0.258,0.195,0.46,0.195c0.194,0,0.323-0.065,0.388-0.195
		c0.258-0.258,0.58-0.516,0.848-0.718C188.008,42.901,188.073,42.514,187.878,42.256z"/>
	<path fill="#8A8A8A" d="M185.015,45.176c-0.323-0.128-0.646,0-0.839,0.322c-0.203,0.396-0.331,0.848-0.396,1.308
		c-0.064,0.323,0.13,0.645,0.46,0.709c0.065,0,0.065,0,0.13,0c0.258,0,0.516-0.194,0.646-0.515c0.063-0.396,0.202-0.719,0.396-1.105
		C185.475,45.7,185.345,45.306,185.015,45.176z"/>
	<path fill="#8A8A8A" d="M198.073,51.614c-0.258-0.202-0.644-0.065-0.846,0.258c-0.186,0.322-0.388,0.646-0.646,0.976
		c-0.202,0.259-0.202,0.646,0.056,0.839c0.147,0.063,0.258,0.138,0.404,0.138c0.186,0,0.388-0.075,0.516-0.203
		c0.258-0.322,0.516-0.71,0.701-1.104C198.479,52.194,198.405,51.807,198.073,51.614z"/>
	<path fill="#8A8A8A" d="M195.532,41.795c-0.368-0.258-0.773-0.387-1.16-0.581c-0.313-0.128-0.645,0.065-0.773,0.323
		c-0.139,0.322,0.055,0.654,0.313,0.782c0.331,0.13,0.718,0.26,1.05,0.518c0.055,0.063,0.202,0.063,0.313,0.063
		c0.202,0,0.405-0.129,0.516-0.258C195.938,42.384,195.863,41.999,195.532,41.795z"/>
	<path fill="#8A8A8A" d="M190.861,55.188c-0.386-0.065-0.708-0.065-1.104-0.203c-0.322-0.064-0.645,0.138-0.709,0.461
		c-0.065,0.322,0.129,0.645,0.449,0.71c0.388,0.137,0.848,0.202,1.301,0.267h0.063c0.323,0,0.59-0.267,0.655-0.59
		C191.517,55.51,191.185,55.188,190.861,55.188z"/>
	<path fill="#8A8A8A" d="M198.737,48.169l-0.664,0.065c0,0.129,0,0.258,0,0.387c0,0.258,0,0.525-0.072,0.783
		c-0.056,0.322,0.202,0.645,0.534,0.709c0.056,0,0.056,0,0.056,0c0.33,0,0.588-0.258,0.662-0.516
		c0.056-0.259,0.056-0.653,0.056-0.911c0-0.13,0-0.26,0-0.388L198.737,48.169z"/>
	<path fill="#8A8A8A" d="M194.574,54.469c-0.331,0.193-0.718,0.323-1.05,0.451c-0.322,0.138-0.516,0.46-0.387,0.783
		c0.064,0.258,0.322,0.387,0.59,0.387c0.073,0,0.129,0,0.185-0.064c0.404-0.128,0.847-0.322,1.252-0.516
		c0.258-0.193,0.368-0.525,0.258-0.848C195.22,54.405,194.832,54.275,194.574,54.469z"/>
	<path fill="#8A8A8A" d="M193.728,44.403c-0.332-0.138-0.655,0-0.848,0.322l-2.598,6.3l-1.363-1.363
		c-0.268-0.258-0.653-0.258-0.846,0c-0.195,0.258-0.26,0.654,0,0.848l2.015,2.008c0.13,0.128,0.258,0.202,0.453,0.202
		c0.063,0,0.063,0,0.128,0c0.192-0.074,0.388-0.202,0.452-0.397l2.993-7.146C194.169,44.918,194.059,44.531,193.728,44.403z"/>
</g>
<g>
	<g>
		<path fill="#8A8A8A" d="M239.411,59.276c-0.147,0-0.332-0.063-0.461-0.192l-13.465-13.448c-0.111-0.138-0.185-0.266-0.185-0.46
			c0-0.193,0.073-0.323,0.185-0.451l6.834-6.826c0.258-0.257,0.646-0.257,0.848,0l13.446,13.448c0.258,0.268,0.258,0.654,0,0.848
			l-6.833,6.824C239.669,59.214,239.522,59.276,239.411,59.276z M226.793,45.24l12.544,12.545l5.913-5.914l-12.471-12.545
			L226.793,45.24z"/>
	</g>
	<g>
		<g>
			<path fill="#8A8A8A" d="M229.132,46.023c-0.128,0-0.331-0.065-0.441-0.193c-0.258-0.258-0.258-0.654,0-0.848l2.579-2.598
				c0.258-0.258,0.662-0.258,0.848,0c0.258,0.259,0.258,0.646,0,0.848l-2.579,2.598C229.464,45.958,229.261,46.023,229.132,46.023z"
				/>
		</g>
		<g>
			<path fill="#8A8A8A" d="M231.012,47.911c-0.11,0-0.313-0.073-0.442-0.203c-0.258-0.258-0.258-0.645,0-0.837l1.29-1.299
				c0.258-0.267,0.662-0.267,0.846,0c0.26,0.258,0.26,0.644,0,0.838l-1.289,1.298C231.342,47.838,231.214,47.911,231.012,47.911z"/>
		</g>
		<g>
			<path fill="#8A8A8A" d="M233.037,49.919c-0.128,0-0.332-0.064-0.46-0.193c-0.258-0.258-0.258-0.654,0-0.848l2.599-2.597
				c0.257-0.258,0.662-0.258,0.846,0c0.259,0.258,0.259,0.654,0,0.848l-2.597,2.597C233.369,49.855,233.223,49.919,233.037,49.919z"
				/>
		</g>
		<g>
			<path fill="#8A8A8A" d="M234.916,51.872c-0.128,0-0.331-0.065-0.441-0.193c-0.258-0.267-0.258-0.654,0-0.847l1.289-1.3
				c0.258-0.258,0.645-0.258,0.848,0c0.258,0.26,0.258,0.645,0,0.848l-1.308,1.299C235.248,51.807,235.101,51.872,234.916,51.872z"
				/>
		</g>
		<g>
			<path fill="#8A8A8A" d="M236.943,53.89c-0.147,0-0.332-0.064-0.46-0.203c-0.277-0.259-0.277-0.645,0-0.839l2.596-2.596
				c0.258-0.268,0.646-0.268,0.848,0c0.258,0.258,0.258,0.645,0,0.837l-2.615,2.598C237.256,53.825,237.126,53.89,236.943,53.89z"/>
		</g>
		<g>
			<path fill="#8A8A8A" d="M238.877,55.768c-0.129,0-0.313-0.064-0.46-0.193c-0.258-0.258-0.258-0.654,0-0.848l1.308-1.299
				c0.258-0.258,0.645-0.258,0.847,0c0.259,0.259,0.259,0.655,0,0.848l-1.308,1.299C239.209,55.704,239.006,55.768,238.877,55.768z"
				/>
		</g>
	</g>
</g>
<g>
	<path fill="#A7183E" d="M9.388,87.213H3.991c-1.105,0-1.943-0.847-1.943-1.944v-5.461c0-1.105,0.838-1.953,1.943-1.953h5.397
		c1.105,0,1.952,0.848,1.952,1.953v5.389C11.406,86.302,10.493,87.213,9.388,87.213z M3.991,79.219c-0.322,0-0.581,0.268-0.581,0.59
		v5.389c0,0.331,0.259,0.589,0.581,0.589h5.397c0.322,0,0.58-0.258,0.58-0.589v-5.389c0-0.322-0.258-0.59-0.58-0.59H3.991z
		 M21.933,87.213h-5.461c-1.105,0-1.953-0.847-1.953-1.944v-5.461c0-1.105,0.848-1.953,1.953-1.953h5.461
		c1.096,0,1.943,0.848,1.943,1.953v5.389C23.875,86.302,23.028,87.213,21.933,87.213z M16.472,79.219c-0.323,0-0.59,0.268-0.59,0.59
		v5.389c0,0.331,0.267,0.589,0.59,0.589h5.461c0.322,0,0.58-0.258,0.58-0.589v-5.389c0-0.322-0.258-0.59-0.58-0.59H16.472z
		 M9.453,99.363H4.064c-1.104,0-1.952-0.84-1.952-1.945v-5.397c0-1.105,0.848-1.943,1.952-1.943h5.389
		c1.105,0,1.953,0.837,1.953,1.943v5.397C11.406,98.523,10.558,99.363,9.453,99.363z M4.064,91.441c-0.332,0-0.589,0.258-0.589,0.58
		v5.397c0,0.323,0.258,0.581,0.589,0.581h5.389c0.322,0,0.58-0.258,0.58-0.581v-5.397c0-0.322-0.258-0.58-0.58-0.58H4.064z
		 M21.933,99.363h-5.396c-1.105,0-1.953-0.84-1.953-1.945v-5.397c0-1.105,0.848-1.943,1.953-1.943h5.396
		c1.096,0,1.943,0.837,1.943,1.943v5.397C23.941,98.523,23.028,99.363,21.933,99.363z M16.536,91.441c-0.322,0-0.59,0.258-0.59,0.58
		v5.397c0,0.323,0.268,0.581,0.59,0.581h5.396c0.322,0,0.58-0.258,0.58-0.581v-5.397c0-0.322-0.258-0.58-0.58-0.58H16.536z"/>
</g>
<g>
	<path fill="#A7183E" d="M64.486,100.081c-0.129,0-0.258,0-0.387-0.129l-6.502-3.445l-6.494,3.509
		c-0.258,0.13-0.655,0.13-0.912-0.064c-0.258-0.193-0.386-0.525-0.322-0.848l1.234-7.275l-5.259-5.131
		c-0.267-0.193-0.332-0.59-0.202-0.848c0.128-0.322,0.396-0.525,0.718-0.581l7.277-1.04l3.25-6.632
		c0.13-0.258,0.452-0.45,0.773-0.45c0.333,0,0.654,0.192,0.784,0.45l3.25,6.632l7.277,1.04c0.321,0.056,0.579,0.259,0.718,0.581
		c0.128,0.322,0,0.654-0.202,0.848l-5.259,5.131l1.233,7.275c0.064,0.322-0.064,0.654-0.322,0.848
		C64.872,100.081,64.678,100.081,64.486,100.081z M47.852,86.633l4.549,4.413c0.194,0.193,0.322,0.525,0.258,0.783l-1.041,6.234
		l5.591-2.918c0.257-0.13,0.59-0.13,0.848,0l5.582,2.918l-1.033-6.234c-0.063-0.258,0.065-0.59,0.26-0.783l4.549-4.413l-6.245-0.91
		c-0.258-0.065-0.515-0.194-0.645-0.453l-2.801-5.653l-2.791,5.653c-0.128,0.259-0.386,0.453-0.645,0.453L47.852,86.633z"/>
</g>
<g>
	<path fill="#A7183E" d="M102.239,99.491c-1.693,0-2.726-1.104-2.726-2.984c0-0.719,0.065-1.362,0.194-2.082l0,0
		c0.129-0.976,0.258-2.016,0.258-3.444c0-0.709-0.387-1.041-1.427-1.557c-1.105-0.581-2.598-1.363-2.598-3.702
		c0-0.194,0.129-0.453,0.323-0.525l0.064-0.064v-0.13c0.065-3.379,0.451-6.558,0.451-6.687c0.064-0.331,0.332-0.525,0.59-0.525
		h9.615c0.323,0,0.581,0.258,0.581,0.525c0,0.064,0.396,3.573,0.46,6.687v0.13l0.064,0.064c0.194,0.128,0.323,0.331,0.323,0.525
		c0,2.338-1.492,3.121-2.598,3.702c-0.976,0.516-1.427,0.848-1.427,1.557c0,1.428,0.128,2.533,0.258,3.444
		c0.065,0.782,0.193,1.428,0.193,2.082C104.901,98.321,103.861,99.491,102.239,99.491z M97.237,86.43
		c0.26,0.978,0.978,1.373,1.815,1.825c0.912,0.516,2.018,1.105,2.018,2.661c0,1.501-0.129,2.598-0.258,3.639
		c-0.064,0.718-0.203,1.363-0.203,1.952c0,1.428,0.848,1.75,1.502,1.75c0.708,0,1.491-0.321,1.491-1.75
		c0-0.589-0.063-1.234-0.193-1.952c-0.128-0.978-0.258-2.138-0.258-3.639c0-1.555,1.105-2.145,2.008-2.661
		c0.848-0.452,1.565-0.848,1.823-1.825l0.065-0.192h-9.81V86.43z M106.854,85.003V84.81c-0.064-2.145-0.258-4.55-0.396-5.783v-0.13
		h-1.096v1.888c0,0.323-0.267,0.581-0.59,0.581c-0.322,0-0.589-0.258-0.589-0.581v-1.888h-1.097v2.598
		c0,0.331-0.267,0.589-0.588,0.589c-0.323,0-0.581-0.258-0.581-0.589v-2.598H98.14v0.13c-0.128,1.169-0.323,3.444-0.385,5.783v0.193
		H106.854z"/>
	<path fill="#A7183E" d="M102.239,99.299c-1.556,0-2.532-1.042-2.532-2.792c0-0.654,0.063-1.3,0.193-2.082l0,0
		c0.128-0.976,0.258-2.081,0.258-3.509c0-0.837-0.516-1.169-1.493-1.685c-1.105-0.59-2.469-1.363-2.469-3.574
		c0-0.192,0.065-0.332,0.259-0.388l0.194-0.072v-0.194c0.063-3.379,0.46-6.558,0.46-6.687c0-0.193,0.192-0.396,0.45-0.396h9.422
		c0.194,0,0.388,0.202,0.452,0.396c0,0.064,0.396,3.573,0.461,6.687v0.194l0.192,0.072c0.13,0.056,0.258,0.195,0.258,0.388
		c0,2.276-1.363,2.984-2.468,3.574c-0.976,0.516-1.491,0.848-1.491,1.685c0,1.429,0.128,2.534,0.258,3.509
		c0.065,0.782,0.193,1.428,0.193,2.082C104.771,98.257,103.796,99.299,102.239,99.299z M97.109,86.505
		c0.258,1.031,1.105,1.491,1.943,1.944c0.912,0.524,1.953,1.04,1.953,2.467c0,1.493-0.13,2.598-0.258,3.574
		c-0.064,0.718-0.202,1.363-0.202,2.018c0,1.686,1.04,1.879,1.693,1.879c0.645,0,1.686-0.259,1.686-1.879
		c0-0.654-0.063-1.234-0.193-2.018c-0.13-0.976-0.258-2.081-0.258-3.574c0-1.427,1.04-2.017,1.953-2.467
		c0.837-0.453,1.621-0.913,1.943-1.944l0.128-0.396H97.035L97.109,86.505z M97.817,79.091c-0.128,1.168-0.32,3.444-0.386,5.784
		v0.322h9.616v-0.322c-0.065-2.146-0.258-4.551-0.388-5.784v-0.322h-1.436v2.081c0,0.258-0.195,0.452-0.453,0.452
		s-0.45-0.194-0.45-0.452v-2.081h-1.438v2.791c0,0.267-0.193,0.46-0.451,0.46c-0.257,0-0.452-0.193-0.452-0.46v-2.791h-4.098
		L97.817,79.091z"/>
	<path fill="#A7183E" d="M102.239,95.853c0.36,0,0.645,0.296,0.645,0.654c0,0.359-0.285,0.645-0.645,0.645
		c-0.359,0-0.654-0.286-0.654-0.645C101.585,96.149,101.88,95.853,102.239,95.853z"/>
	<path fill="#A7183E" d="M102.239,96.046c0.25,0,0.452,0.211,0.452,0.461c0,0.249-0.202,0.451-0.452,0.451
		c-0.248,0-0.451-0.202-0.451-0.451C101.788,96.258,101.991,96.046,102.239,96.046z"/>
</g>
<g>
	<path fill="#A7183E" d="M145.704,79.938l-5.646,0.718c-0.719,0.065-1.373,0.708-1.502,1.493l-0.708,5.654
		c-0.065,0.646,0.192,1.428,0.645,1.879l9.68,9.681c0.268,0.257,0.653,0.46,1.041,0.46c0.396,0,0.782-0.129,1.04-0.46l7.02-7.019
		c0.258-0.258,0.45-0.646,0.45-1.033c0-0.396-0.128-0.782-0.45-1.04l-9.68-9.68C147.141,80.131,146.357,79.874,145.704,79.938z
		 M146.68,81.495l9.679,9.68c0.065,0.064,0.065,0.137,0,0.202l-7.019,7.01l-0.063,0.073c0,0-0.064,0-0.064-0.073l-9.745-9.68
		c-0.129-0.13-0.257-0.516-0.257-0.711v-0.063l0.708-5.656c0-0.128,0.204-0.322,0.332-0.322l5.656-0.718
		C146.1,81.237,146.487,81.365,146.68,81.495z M141.089,85.723c0,0.708,0.267,1.363,0.782,1.813
		c0.525,0.525,1.169,0.783,1.825,0.783c0.708,0,1.363-0.258,1.813-0.783c0.525-0.515,0.783-1.169,0.783-1.813
		c0-0.72-0.258-1.363-0.783-1.825c-1.04-1.04-2.661-1.04-3.702,0C141.356,84.423,141.089,85.067,141.089,85.723z M144.599,84.81
		c0.266,0.258,0.396,0.59,0.396,0.913c0,0.322-0.13,0.644-0.396,0.91c-0.259,0.258-0.58,0.388-0.902,0.388
		c-0.332,0-0.655-0.13-0.913-0.388c-0.258-0.267-0.387-0.588-0.387-0.91c0-0.323,0.129-0.655,0.387-0.913
		C143.234,84.359,144.082,84.359,144.599,84.81z"/>
	<g>
		<path fill="#A7183E" d="M143.954,85.325c-0.525-1.556-1.17-3.113-2.018-4.541c-0.782-1.233-1.75-2.468-3.176-2.993
			c-0.784-0.322-1.567-0.322-2.34-0.193c-0.333,0.065-0.46,0.451-0.397,0.719c0.064,0.322,0.397,0.452,0.72,0.387
			c0.192,0,0.192-0.064,0.386-0.064c0.13,0,0.322,0,0.452,0c0.072,0,0.072,0,0.138,0c-0.138,0,0,0,0,0c0.064,0,0.13,0,0.194,0.064
			c0.128,0,0.258,0.065,0.386,0.13c0.065,0,0.065,0,0.13,0.063c-0.064-0.063,0,0,0,0c0.064,0,0.128,0.064,0.193,0.064
			c0.139,0.065,0.267,0.13,0.397,0.193c0.258,0.129,0.451,0.332,0.643,0.524c0.978,0.978,1.695,2.21,2.275,3.51
			c0.323,0.774,0.655,1.556,0.913,2.404c0.128,0.258,0.386,0.452,0.718,0.388C143.824,85.915,144.019,85.593,143.954,85.325
			L143.954,85.325z"/>
	</g>
</g>
<g>
	<path fill="#A7183E" d="M201.316,88.843c-0.055-0.202-0.055-0.33,0-0.524l0.59-1.889c0.258-0.837-0.074-1.75-0.7-2.265
		l-1.565-1.171c-0.13-0.063-0.276-0.266-0.276-0.395l-0.627-1.879c-0.258-0.847-1.104-1.363-1.952-1.438l-2.026-0.065
		c-0.185,0-0.332-0.064-0.442-0.192l-1.63-1.171c-0.72-0.516-1.695-0.516-2.404,0l-1.631,1.171c-0.129,0.064-0.257,0.192-0.45,0.192
		l-2.018,0.065c-0.839,0-1.687,0.59-1.944,1.438l-0.652,1.879c-0.065,0.192-0.195,0.257-0.258,0.395l-1.622,1.171
		c-0.718,0.515-0.976,1.427-0.718,2.265l0.579,1.889c0.075,0.194,0.075,0.322,0,0.524l-0.579,1.88
		c-0.258,0.848,0.064,1.749,0.718,2.274l1.557,1.169c0.128,0.064,0.258,0.258,0.258,0.388l0.654,1.888
		c0.258,0.848,1.105,1.363,1.944,1.427l2.017,0.065c0.193,0,0.322,0.063,0.451,0.192l1.63,1.171c0.386,0.257,0.773,0.396,1.17,0.396
		c0.387,0,0.839-0.138,1.169-0.396l1.612-1.171c0.147-0.064,0.258-0.192,0.461-0.192l2.008-0.065c0.848,0,1.695-0.58,1.953-1.427
		l0.662-1.888c0.056-0.193,0.186-0.258,0.258-0.388l1.548-1.169c0.719-0.525,0.995-1.427,0.719-2.274L201.316,88.843z
		 M200.212,89.231l0.59,1.878c0.072,0.332,0,0.72-0.258,0.912l-1.549,1.171c-0.332,0.257-0.59,0.59-0.736,0.975l-0.626,1.879
		c-0.147,0.332-0.405,0.526-0.793,0.59l-2.008,0.064c-0.405,0-0.847,0.129-1.179,0.387l-1.621,1.169
		c-0.258,0.203-0.645,0.203-0.976,0l-1.621-1.169c-0.322-0.258-0.72-0.387-1.17-0.387l-2.018-0.064c-0.322,0-0.646-0.258-0.773-0.59
		l-0.654-1.879c-0.129-0.385-0.387-0.718-0.709-0.975l-1.565-1.171c-0.259-0.192-0.387-0.58-0.259-0.912l0.59-1.878
		c0.129-0.388,0.129-0.848,0-1.17l-0.59-1.888c-0.063-0.322,0-0.708,0.259-0.903l1.565-1.178c0.322-0.258,0.58-0.58,0.709-0.967
		l0.654-1.888c0.128-0.323,0.388-0.516,0.773-0.581l2.018-0.064c0.386,0,0.848-0.138,1.17-0.396l0,0l1.621-1.169
		c0.128-0.065,0.331-0.193,0.524-0.193s0.322,0.063,0.516,0.193l1.631,1.169c0.331,0.258,0.699,0.396,1.179,0.396l1.989,0.064
		c0.332,0,0.662,0.257,0.792,0.581l0.646,1.888c0.146,0.387,0.404,0.709,0.718,0.967l1.565,1.178
		c0.258,0.195,0.388,0.581,0.258,0.903l-0.59,1.888C200.101,88.383,200.101,88.843,200.212,89.231z"/>
	<path fill="#A7183E" d="M187.354,93.845c-0.258-0.267-0.58-0.524-0.838-0.782c-0.268-0.258-0.653-0.258-0.848-0.064
		c-0.258,0.258-0.258,0.654-0.065,0.847c0.26,0.323,0.646,0.645,0.978,0.903c0.128,0.065,0.258,0.14,0.388,0.14
		c0.192,0,0.386-0.074,0.516-0.268C187.75,94.425,187.686,94.103,187.354,93.845z"/>
	<path fill="#A7183E" d="M197.43,85.723c0.128,0.192,0.313,0.322,0.516,0.322c0.056,0,0.202,0,0.258-0.064
		c0.276-0.194,0.46-0.516,0.276-0.848c-0.221-0.388-0.406-0.773-0.736-1.17c-0.186-0.259-0.571-0.323-0.848-0.129
		c-0.258,0.193-0.313,0.589-0.11,0.847C197.042,85.003,197.228,85.325,197.43,85.723z"/>
	<path fill="#A7183E" d="M190.024,82.083c0.063,0,0.063,0,0.129,0c0.322-0.064,0.646-0.064,0.968-0.129c0.063,0,0.138,0,0.202,0
		c0.322,0,0.644-0.258,0.644-0.653c0-0.322-0.258-0.645-0.644-0.645c-0.064,0-0.139,0-0.202,0c-0.388,0-0.71,0.065-1.097,0.128
		c-0.331,0.065-0.526,0.387-0.526,0.71C189.498,81.889,189.758,82.083,190.024,82.083z"/>
	<path fill="#A7183E" d="M184.95,89.747c-0.065-0.322-0.388-0.58-0.711-0.516c-0.33,0.064-0.588,0.388-0.524,0.709
		c0.064,0.46,0.194,0.847,0.322,1.299c0.074,0.267,0.332,0.396,0.59,0.396c0.064,0,0.13,0,0.193-0.063
		c0.322-0.13,0.524-0.462,0.396-0.784C185.078,90.466,184.95,90.079,184.95,89.747z"/>
	<path fill="#A7183E" d="M187.878,82.277c-0.192-0.258-0.589-0.388-0.847-0.193c-0.387,0.259-0.719,0.517-1.041,0.848
		c-0.258,0.258-0.258,0.644,0,0.838c0.13,0.128,0.258,0.193,0.46,0.193c0.194,0,0.323-0.065,0.388-0.193
		c0.258-0.258,0.58-0.515,0.848-0.709C188.008,82.931,188.073,82.535,187.878,82.277z"/>
	<path fill="#A7183E" d="M185.015,85.197c-0.323-0.13-0.646,0-0.839,0.331c-0.203,0.387-0.331,0.838-0.396,1.3
		c-0.064,0.322,0.13,0.643,0.46,0.708c0.065,0,0.065,0,0.13,0c0.258,0,0.516-0.192,0.646-0.515c0.063-0.388,0.202-0.718,0.396-1.105
		C185.475,85.723,185.345,85.325,185.015,85.197z"/>
	<path fill="#A7183E" d="M198.073,91.699c-0.258-0.193-0.644-0.064-0.846,0.258c-0.186,0.322-0.388,0.654-0.646,0.978
		c-0.202,0.258-0.202,0.643,0.056,0.848c0.147,0.063,0.258,0.128,0.404,0.128c0.186,0,0.388-0.065,0.516-0.193
		c0.258-0.332,0.516-0.719,0.701-1.105C198.479,92.215,198.405,91.829,198.073,91.699z"/>
	<path fill="#A7183E" d="M195.532,81.889c-0.368-0.266-0.773-0.395-1.16-0.588c-0.313-0.13-0.645,0.063-0.773,0.322
		c-0.139,0.331,0.055,0.653,0.313,0.783c0.331,0.128,0.718,0.258,1.05,0.524c0.055,0.063,0.202,0.063,0.313,0.063
		c0.202,0,0.405-0.137,0.516-0.266C195.938,82.407,195.863,82.083,195.532,81.889z"/>
	<path fill="#A7183E" d="M190.861,95.208c-0.386-0.063-0.708-0.063-1.104-0.192c-0.322-0.065-0.645,0.13-0.709,0.452
		c-0.065,0.321,0.129,0.653,0.449,0.718c0.388,0.128,0.848,0.193,1.301,0.258h0.063c0.323,0,0.59-0.258,0.655-0.59
		C191.517,95.531,191.185,95.273,190.861,95.208z"/>
	<path fill="#A7183E" d="M198.737,88.191l-0.664,0.064c0,0.128,0,0.258,0,0.386c0,0.258,0,0.525-0.072,0.783
		c-0.056,0.322,0.202,0.654,0.534,0.719c0.056,0,0.056,0,0.056,0c0.33,0,0.588-0.267,0.662-0.524
		c0.056-0.258,0.056-0.646,0.056-0.912c0-0.13,0-0.258,0-0.388L198.737,88.191z"/>
	<path fill="#A7183E" d="M194.574,94.49c-0.331,0.193-0.718,0.323-1.05,0.46c-0.322,0.129-0.516,0.453-0.387,0.775
		c0.064,0.258,0.322,0.396,0.59,0.396c0.073,0,0.129,0,0.185-0.074c0.404-0.128,0.847-0.321,1.252-0.516
		c0.258-0.193,0.368-0.516,0.258-0.848C195.22,94.425,194.832,94.362,194.574,94.49z"/>
	<path fill="#A7183E" d="M193.728,84.487c-0.332-0.128-0.655,0-0.848,0.322l-2.598,6.3l-1.363-1.363
		c-0.268-0.258-0.653-0.258-0.846,0c-0.195,0.257-0.26,0.654,0,0.847l2.015,2.018c0.13,0.129,0.258,0.193,0.453,0.193
		c0.063,0,0.063,0,0.128,0c0.192-0.064,0.388-0.193,0.452-0.396l2.993-7.14C194.169,84.939,194.059,84.617,193.728,84.487z"/>
</g>
<g>
	<g>
		<path fill="#A7183E" d="M239.411,99.299c-0.147,0-0.332-0.065-0.461-0.194l-13.465-13.382c-0.111-0.13-0.185-0.258-0.185-0.453
			c0-0.202,0.073-0.33,0.185-0.46l6.834-6.824c0.258-0.258,0.646-0.258,0.848,0l13.446,13.456c0.258,0.258,0.258,0.646,0,0.838
			l-6.833,6.825C239.669,99.299,239.522,99.299,239.411,99.299z M226.793,85.27l12.544,12.536l5.913-5.913l-12.545-12.534
			L226.793,85.27z"/>
	</g>
	<g>
		<g>
			<path fill="#A7183E" d="M229.132,86.045c-0.128,0-0.331-0.064-0.441-0.194c-0.258-0.258-0.258-0.653,0-0.848l2.579-2.596
				c0.258-0.258,0.662-0.258,0.848,0c0.258,0.258,0.258,0.653,0,0.848l-2.579,2.596C229.464,85.98,229.261,86.045,229.132,86.045z"
				/>
		</g>
		<g>
			<path fill="#A7183E" d="M231.012,87.996c-0.11,0-0.313-0.063-0.442-0.192c-0.258-0.268-0.258-0.653,0-0.847l1.29-1.299
				c0.258-0.258,0.662-0.258,0.846,0c0.26,0.258,0.26,0.645,0,0.848l-1.289,1.298C231.342,87.933,231.214,87.996,231.012,87.996z"/>
		</g>
		<g>
			<path fill="#A7183E" d="M233.037,90.004c-0.128,0-0.332-0.063-0.46-0.192c-0.258-0.257-0.258-0.645,0-0.838l2.599-2.607
				c0.257-0.258,0.662-0.258,0.846,0c0.259,0.267,0.259,0.654,0,0.847l-2.597,2.598C233.369,89.94,233.223,90.004,233.037,90.004z"
				/>
		</g>
		<g>
			<path fill="#A7183E" d="M234.916,91.893c-0.128,0-0.331-0.063-0.441-0.193c-0.258-0.258-0.258-0.653,0-0.848l1.289-1.297
				c0.258-0.259,0.645-0.259,0.848,0c0.258,0.257,0.258,0.652,0,0.847l-1.308,1.298C235.248,91.829,235.101,91.893,234.916,91.893z"
				/>
		</g>
		<g>
			<path fill="#A7183E" d="M236.943,93.91c-0.147,0-0.332-0.065-0.46-0.193c-0.277-0.267-0.277-0.654,0-0.848l2.596-2.597
				c0.258-0.268,0.646-0.268,0.848,0c0.258,0.258,0.258,0.644,0,0.837l-2.615,2.607C237.256,93.845,237.126,93.91,236.943,93.91z"/>
		</g>
		<g>
			<path fill="#A7183E" d="M238.877,95.789c-0.129,0-0.313-0.063-0.46-0.193c-0.258-0.258-0.258-0.645,0-0.848l1.308-1.298
				c0.258-0.257,0.645-0.257,0.847,0c0.259,0.267,0.259,0.653,0,0.848l-1.308,1.298C239.209,95.725,239.006,95.789,238.877,95.789z"
				/>
		</g>
	</g>
</g>
</svg>
