<?xml version="1.0" encoding="UTF-8"?>
<!DOCTYPE svg PUBLIC "-//W3C//DTD SVG 1.0//EN" "http://www.w3.org/TR/2001/REC-SVG-20010904/DTD/svg10.dtd">
<!-- Creator: CorelDRAW X7 -->
<svg xmlns="http://www.w3.org/2000/svg" xml:space="preserve" width="50px" height="50px" version="1.0" style="shape-rendering:geometricPrecision; text-rendering:geometricPrecision; image-rendering:optimizeQuality; fill-rule:evenodd; clip-rule:evenodd"
viewBox="0 0 340881 340883"
 xmlns:xlink="http://www.w3.org/1999/xlink">
 <defs>
  <style type="text/css">
   <![CDATA[
    .fil0 {fill:none}
    .fil1 {fill:#fff}
    .fil2 {fill:#000}
   ]]>
  </style>
 </defs>
 <g id="Layer_x0020_1">
  <metadata id="CorelCorpID_0Corel-Layer"/>
  <rect class="fil0" y="1" width="340881" height="340881"/>
  <g id="_702643968">
   <path class="fil1" d="M170440 85525c47073,0 85217,38011 85217,84916 0,46896 -38144,84917 -85217,84917 -47062,0 -85220,-38025 -85220,-84917 0,-46905 38158,-84916 85220,-84916z"/>
   <path class="fil2" d="M143666 124831l59542 0 0 124c-3508,5342 -5485,8188 -5933,8559l-15911 0c2178,2526 3674,5601 4459,9219l16950 0c213,48 313,123 313,245 -3801,5622 -5730,8437 -5811,8437l-11025 0c-246,2886 -1656,6370 -4202,10448 -3387,4114 -6626,6783 -9722,7999 -5777,2728 -11308,4089 -16591,4089l0 122c0,413 11943,14399 35845,41977l-15791 0c-23272,-26762 -34906,-40203 -34906,-40327l0 -8124 122 -313c2066,291 4479,434 7243,434 13039,0 21152,-4180 24323,-12524 503,-1216 748,-2480 748,-3788l-35410 0c-157,0 -244,-89 -244,-246 3923,-5620 5920,-8437 6001,-8437l28099 0 0 -122c-1610,-3218 -4725,-5722 -9342,-7510 -3306,-1059 -6279,-1586 -8915,-1586l-15721 0 0 -314c3801,-5573 5755,-8369 5879,-8369l0 7z"/>
  </g>
 </g>
</svg>
