<svg xmlns="http://www.w3.org/2000/svg" width="16" height="35" viewBox="0 0 16 35">
    <path fill="#FF1744" fill-rule="evenodd" d="M6.375 9.05H9.22l4.641 16.341-6.064 7.194-6.064-7.194 4.64-16.34zM2.31 1.576h10.974L9.401 7.477H6.196L2.31 1.575zM.747 0C.296.04-.035.426.007.859a.768.768 0 0 0 .124.347l4.73 7.18L.03 25.368a.762.762 0 0 0 .153.7l6.975 8.263a.845.845 0 0 0 1.282 0l6.974-8.262a.762.762 0 0 0 .154-.701l-4.833-16.98 4.73-7.18a.768.768 0 0 0-.26-1.086.844.844 0 0 0-.432-.12H.824a.84.84 0 0 0-.077 0z"/>
</svg>
