<svg xmlns="http://www.w3.org/2000/svg" width="28" height="28" viewBox="0 0 28 28">
    <path fill="#FF1744" fill-rule="evenodd" d="M26.386 18.272c0 .819-.699 1.489-1.552 1.489h-1.94v-7.815h1.94c.853 0 1.552.67 1.552 1.488v4.838zm-11.64 8.001c-1.204 0-2.135-.93-2.135-2.046 0-1.117.97-2.047 2.134-2.047s2.134.93 2.134 2.047c0 1.116-.97 2.046-2.134 2.046zM5.043 11.91v7.815h-1.94c-.853 0-1.552-.67-1.552-1.489v-4.838c0-.819.699-1.488 1.552-1.488h1.94zm19.79-1.489h-.388v-.372C24.446 4.503 19.75 0 13.969 0S3.492 4.503 3.492 10.048v.372h-.388C1.397 10.42 0 11.76 0 13.397v4.838c0 1.637 1.397 2.977 3.104 2.977h3.492V10.42H5.044v-.372c0-4.726 3.997-8.56 8.925-8.56 4.928 0 8.925 3.834 8.925 8.56v.372h-1.552v10.792h2.211c-.349 1.265-1.552 2.233-3.026 2.233h-2.212c-.35-1.6-1.824-2.791-3.609-2.791-2.017 0-3.686 1.6-3.686 3.535 0 1.936 1.669 3.536 3.686 3.536 1.785 0 3.26-1.191 3.609-2.791h2.212c2.328 0 4.23-1.638 4.578-3.722 1.552-.149 2.794-1.414 2.794-2.977v-4.838c.039-1.637-1.32-2.977-3.065-2.977z"/>
</svg>
