<svg xmlns="http://www.w3.org/2000/svg" width="29" height="28" viewBox="0 0 29 28">
    <path fill="#FF1744" fill-rule="evenodd" d="M6.936 16.93a28.311 28.311 0 0 0 9.343 7.018c1.952.889 3.498 1.33 5.006 1.43 1.163.072 2.01-.23 2.665-.949.458-.469.92-.902 1.366-1.321.223-.21.449-.421.674-.638.645-.619.645-1.247 0-1.866l-3.492-3.348c-.593-.569-1.31-.569-1.903 0l-2.172 2.083c-.178.17-.718.687-1.579.275-.175-.09-.327-.163-.48-.237-.336-.161-.683-.328-1.012-.545-2.007-1.197-3.8-2.755-5.64-4.901-1.01-1.185-1.654-2.17-2.089-3.191-.317-.76.1-1.24.34-1.441.358-.342.715-.675 1.072-1.007.358-.334.716-.667 1.074-1.01.655-.656.655-1.252-.013-1.92L8.406 3.74a69.83 69.83 0 0 1-.595-.58c-.384-.377-.747-.734-1.128-1.073-.46-.422-1.158-.76-1.926-.021L2.585 4.149c-.544.49-.826 1.072-.858 1.746-.122 1.407.272 2.68.715 3.849.906 2.387 2.418 4.805 4.494 7.186M21.6 27.02c-.14 0-.283-.004-.428-.013-1.734-.113-3.47-.603-5.632-1.588a30.005 30.005 0 0 1-9.909-7.44H5.63c-2.204-2.528-3.814-5.11-4.788-7.677C.357 9.022-.12 7.484.027 5.79c.05-1.069.526-2.052 1.374-2.815L3.552.911C4.812-.3 6.541-.304 7.851.898c.403.359.797.747 1.18 1.122.19.187.382.376.58.565l1.702 1.634c1.305 1.305 1.305 2.911.013 4.204-.377.362-.74.7-1.105 1.04-.309.288-.618.575-.927.869.369.798.912 1.597 1.735 2.562 1.723 2.01 3.388 3.459 5.24 4.56l.04.025c.231.156.516.293.817.437l.247.119L19.39 16.1c.623-.597 1.368-.913 2.156-.913s1.534.315 2.156.912l3.492 3.348c1.301 1.25 1.301 2.928 0 4.178-.23.22-.46.435-.687.649-.454.426-.882.828-1.296 1.25-.9.989-2.119 1.495-3.61 1.495"/>
</svg>
