<svg xmlns="http://www.w3.org/2000/svg" width="22" height="22" viewBox="0 0 22 22">
    <g fill="#FF1744" fill-rule="nonzero">
        <path d="M.917 11.898c.506 0 .916-.41.916-.916 0-5.045 4.087-9.149 9.11-9.149 2.203 0 4.273.78 5.904 2.182h-.84a.917.917 0 0 0 0 1.833h3.009c.506 0 .916-.41.916-.917V1.91a.917.917 0 0 0-1.833 0v.764A10.83 10.83 0 0 0 10.943 0C4.909 0 0 4.927 0 10.982c0 .506.41.916.917.916zM21.083 10.102a.916.916 0 0 0-.916.916c0 5.045-4.087 9.149-9.11 9.149a9.015 9.015 0 0 1-5.848-2.132h.88a.917.917 0 0 0 0-1.833H3.082l-.023.002c-.035.001-.07.006-.104.01-.026.005-.052.007-.077.013-.03.007-.06.018-.09.028-.027.01-.055.018-.082.03-.025.011-.049.026-.073.04-.03.016-.058.032-.085.05-.006.006-.014.009-.021.014-.016.012-.028.027-.042.04a.802.802 0 0 0-.179.206.944.944 0 0 0-.135.428c-.001.019-.005.037-.005.056v3.022a.917.917 0 0 0 1.833 0v-.73A10.832 10.832 0 0 0 11.058 22C17.09 22 22 17.073 22 11.018a.917.917 0 0 0-.917-.916z"/>
    </g>
</svg>
